<svg fill="none" height="30" viewBox="0 0 150 30" width="150" xmlns="http://www.w3.org/2000/svg"><g fill="#2b6a74"><path d="m57.3825 11.9505c-.765-3.55498-3.69-5.37748-7.3125-5.37748-4.95 0-8.325 3.2175-8.325 8.36998 0 5.22 2.9475 8.505 7.7625 8.505 2.34 0 3.9375-.675 4.995-2.0925l.1125 1.8h2.9475v-9.09h-7.785v3.15h3.9375v.315c0 2.07-1.845 2.745-3.6225 2.745-2.565 0-4.275-1.89-4.275-5.3325s1.845-5.19748 4.2075-5.19748c2.0925 0 3.24 1.07998 3.5775 2.20498z"/><path d="m66.8146 17.013 3.5325 6.1425h4.5225l-4.0275-6.7725c1.8675-.72 3.195-2.0925 3.195-4.5 0-4.04998-3.1725-5.03998-7.4025-5.03998h-6.2775v16.31248h3.8475v-6.1425zm-2.61-6.93h2.5425c1.8225 0 3.2175.3375 3.2175 1.845 0 1.53-1.395 1.845-3.2175 1.845h-2.5425z"/><path d="m82.2911 3.22052h-3.3075v2.5425h3.3075zm5.175 0h-3.33v2.5425h3.33zm-7.4475 3.6225h-3.8475v9.33748c0 5.3775 2.205 7.2675 7.0875 7.2675 5.085 0 7.02-2.385 7.02-7.4025v-9.20248h-3.8475v9.51748c0 2.4075-.4725 3.9375-3.1725 3.9375-2.6775 0-3.24-1.3275-3.24-3.7125z"/><path d="m103.246 23.1555h4.68v-16.31248h-3.712v11.24998l-6.5475-11.24998h-4.68v16.31248h3.7125v-11.25z"/><path d="m110.872 6.84302v16.31248h3.848v-6.6825h7.672v-3.3975h-7.672v-2.8575h8.167v-3.37498z"/><path d="m128.189 23.1555v-16.31248h-3.848v16.31248z"/><path d="m141.391 23.1555h4.68v-16.31248h-3.712v11.24998l-6.548-11.24998h-4.68v16.31248h3.713v-11.25z"/><path clip-rule="evenodd" d="m29.989 15.5812c.0073-.1928.011-.3866.011-.5812 0-8.28427-6.7157-15-15-15-8.28427 0-15 6.71573-15 15 0 5.6118 3.08167 10.5038 7.64504 13.0761 2.17321 1.225 4.68246 1.9239 7.35496 1.9239 7.7665 0 14.1544-5.9025 14.9226-13.4663.0319-.3148.0542-.6324.0664-.9525zm-21.15377 10.582 9.78477-15.7254c.8218-1.32084 2.6056-1.64119 3.8357-.68885l5.239 4.05605c-.6024-6.48129-6.056-11.555-12.6947-11.555-7.04163 0-12.75 5.70837-12.75 12.75 0 4.8056 2.65861 8.9902 6.58523 11.1632z" fill-rule="evenodd"/><path d="m16.5 8.62501c0 1.44979-1.1753 2.62499-2.625 2.62499s-2.625-1.1752-2.625-2.62499c0-1.44974 1.1753-2.625 2.625-2.625s2.625 1.17526 2.625 2.625z"/><path d="m5.41431 26.5389c-2.54336-2.1154-4.37617-5.0558-5.087649-8.4105l7.536689-5.2177c.60214-.4169 1.41729-.338 1.9283.1866l2.58355 2.6523z" opacity=".56"/></g></svg>