<?xml version="1.0" encoding="UTF-8"?>
<svg width="150px" height="56px" viewBox="0 0 150 56" xmlns="http://www.w3.org/2000/svg" xmlns:xlink="http://www.w3.org/1999/xlink" version="1.1">
 <!-- Generated by Pixelmator Pro 1.5.5 -->
 <g id="Layer_2">
  <g id="Layer_1-2">
   <path id="Path" d="M22.513 0 L127.461 0 C133.425 -0.002 139.146 2.357 143.363 6.559 147.581 10.76 149.949 16.459 149.947 22.4 L149.947 33.6 C149.949 39.542 147.581 45.24 143.363 49.442 139.146 53.643 133.425 56.002 127.46 56 L1.13 56 C0.829 56.002 0.541 55.884 0.328 55.673 0.116 55.461 -0.002 55.174 0 54.875 L0 22.4 C0.017 10.026 10.09 0.003 22.513 0 Z" fill="#4716b5" fill-opacity="1" stroke="none"/>
   <path id="Path-1" d="M21.331 37.578 C21.383 38.363 21.725 38.677 22.487 38.781 L22.408 40.979 C20.806 40.979 19.86 40.77 18.888 40.011 18.888 40.011 16.786 40.979 14.632 40.979 12.005 40.979 10.692 39.54 10.692 36.793 10.692 33.993 12.215 33.051 15.052 32.815 L18.468 32.527 18.468 31.585 C18.468 30.146 17.837 29.701 16.55 29.701 14.79 29.701 11.585 29.963 11.585 29.963 L11.48 27.948 C11.48 27.948 14.37 27.267 16.786 27.267 20.017 27.267 21.331 28.602 21.331 31.611 Z M15.394 34.83 C14.186 34.935 13.581 35.51 13.581 36.688 13.581 37.865 14.08 38.598 15.184 38.598 16.299 38.55 17.403 38.357 18.468 38.022 L18.468 34.542 Z" fill="#f9f7f0" fill-opacity="1" stroke="none"/>
   <path id="Path-2" d="M34.098 30.224 C34.098 30.224 30.972 29.806 29.396 29.806 27.82 29.806 27.084 30.172 27.084 31.245 27.084 32.109 27.636 32.344 30.236 32.789 33.415 33.338 34.545 34.123 34.545 36.766 34.545 39.854 32.601 40.953 29.317 40.953 27.504 40.953 24.431 40.378 24.431 40.378 L24.536 37.97 C24.536 37.97 27.714 38.389 29.054 38.389 30.946 38.389 31.707 37.996 31.707 36.845 31.707 35.929 31.261 35.641 28.634 35.223 25.718 34.751 24.247 34.123 24.247 31.323 24.247 28.34 26.585 27.241 29.186 27.241 31.103 27.241 34.151 27.817 34.151 27.817 Z" fill="#f9f7f0" fill-opacity="1" stroke="none"/>
   <path id="Path-3" d="M37.277 40.665 L37.277 22.034 40.166 22.034 40.166 32.815 41.795 32.658 44.921 27.529 48.152 27.529 44.343 33.679 48.362 40.692 45.105 40.692 41.874 35.144 40.166 35.327 40.166 40.692 37.277 40.692 Z" fill="#f9f7f0" fill-opacity="1" stroke="none"/>
   <path id="Path-4" d="M55.876 31.507 L55.876 40.692 51.672 40.692 51.672 14.916 61.497 14.916 C67.198 14.916 70.245 17.402 70.245 23.107 70.245 26.744 68.774 29.282 66.016 30.565 L70.271 40.692 65.674 40.692 61.97 31.507 Z M61.497 18.527 L55.876 18.527 55.876 27.895 61.576 27.895 C64.755 27.895 65.963 25.828 65.963 23.159 65.963 20.202 64.518 18.527 61.497 18.527 Z" fill="#f9f7f0" fill-opacity="1" stroke="none"/>
   <path id="Path-5" d="M90.131 31.166 C90.131 37.421 88.214 41.084 81.699 41.084 75.236 41.084 73.266 37.394 73.266 31.166 73.266 25.069 75.368 21.458 81.699 21.458 88.03 21.458 90.131 25.069 90.131 31.166 Z M85.981 31.166 C85.981 26.796 85.035 24.912 81.725 24.912 78.415 24.912 77.469 26.796 77.469 31.166 77.469 35.536 78.231 37.63 81.725 37.63 85.219 37.63 85.981 35.51 85.981 31.166 Z" fill="#f9f7f0" fill-opacity="1" stroke="none"/>
   <path id="Path-6" d="M110.28 31.009 C110.28 38.807 107.837 41.084 101.059 41.084 99.063 41.084 94.151 40.639 94.151 40.639 L94.151 15.047 98.222 15.047 98.222 22.583 C98.222 22.583 100.823 21.458 102.951 21.458 108.1 21.458 110.28 23.97 110.28 31.009 Z M106.103 31.009 C106.103 26.77 105 25.095 102.478 25.095 100.482 25.095 98.249 25.854 98.249 25.854 L98.249 37.29 C98.249 37.29 100.324 37.447 101.086 37.447 105.263 37.447 106.103 35.589 106.103 31.009 Z" fill="#f9f7f0" fill-opacity="1" stroke="none"/>
   <path id="Path-7" d="M114.352 21.877 L118.45 21.877 118.45 40.692 114.326 40.692 114.326 21.877 Z" fill="#f9f7f0" fill-opacity="1" stroke="none"/>
   <path id="Path-8" d="M123.441 40.665 L123.441 21.877 127.513 21.877 127.513 23.028 C127.513 23.028 130.271 21.458 132.714 21.458 137.968 21.458 139.256 24.441 139.256 30.591 L139.256 40.665 135.184 40.665 135.184 30.695 C135.184 26.927 134.685 25.095 131.821 25.095 130.354 25.143 128.909 25.472 127.566 26.064 L127.566 40.665 Z" fill="#f9f7f0" fill-opacity="1" stroke="none"/>
   <path id="Path-9" d="M115.744 14.942 L117.136 14.942 C117.624 14.942 118.092 15.135 118.437 15.479 118.782 15.822 118.975 16.288 118.975 16.774 L118.975 17.69 C118.975 18.176 118.782 18.641 118.437 18.985 118.092 19.328 117.624 19.522 117.136 19.522 L113.984 19.522 C113.928 19.518 113.883 19.473 113.879 19.417 L113.879 16.774 C113.895 15.759 114.725 14.943 115.744 14.942 Z" fill="#f9f7f0" fill-opacity="1" stroke="none"/>
  </g>
 </g>
</svg>
