<?xml version="1.0" encoding="UTF-8"?>
<svg width="140px" height="52px" viewBox="0 0 140 52" xmlns="http://www.w3.org/2000/svg" xmlns:xlink="http://www.w3.org/1999/xlink" version="1.1">
 <!-- Generated by Pixelmator Pro 1.5.5 -->
 <g id="Layer_2">
  <g id="Layer_1-2">
   <path id="Path" d="M21.012 0 L118.964 0 C124.53 -0.002 129.87 2.189 133.805 6.091 137.742 9.991 139.952 15.283 139.95 20.8 L139.95 31.2 C139.952 36.718 137.742 42.009 133.805 45.91 129.87 49.811 124.53 52.002 118.963 52 L1.054 52 C0.774 52.002 0.505 51.892 0.306 51.696 0.108 51.5 -0.002 51.233 0 50.955 L0 20.8 C0.016 9.31 9.417 0.003 21.012 0 Z" fill="#4716b5" fill-opacity="1" stroke="none"/>
   <path id="Path-1" d="M19.909 34.894 C19.957 35.623 20.277 35.914 20.988 36.011 L20.914 38.052 C19.419 38.052 18.536 37.858 17.629 37.153 17.629 37.153 15.667 38.052 13.656 38.052 11.204 38.052 9.979 36.716 9.979 34.165 9.979 31.565 11.401 30.69 14.048 30.471 L17.237 30.204 17.237 29.329 C17.237 27.993 16.648 27.579 15.447 27.579 13.804 27.579 10.813 27.823 10.813 27.823 L10.715 25.952 C10.715 25.952 13.412 25.319 15.667 25.319 18.682 25.319 19.909 26.559 19.909 29.353 Z M14.368 32.342 C13.24 32.44 12.676 32.974 12.676 34.068 12.676 35.16 13.141 35.841 14.172 35.841 15.212 35.796 16.243 35.617 17.237 35.306 L17.237 32.075 Z" fill="#f9f7f0" fill-opacity="1" stroke="none"/>
   <path id="Path-2" d="M31.825 28.065 C31.825 28.065 28.907 27.677 27.436 27.677 25.965 27.677 25.278 28.017 25.278 29.013 25.278 29.815 25.794 30.034 28.22 30.447 31.187 30.957 32.242 31.686 32.242 34.14 32.242 37.007 30.427 38.028 27.362 38.028 25.67 38.028 22.802 37.494 22.802 37.494 L22.9 35.258 C22.9 35.258 25.866 35.647 27.117 35.647 28.883 35.647 29.593 35.282 29.593 34.213 29.593 33.363 29.177 33.095 26.725 32.707 24.003 32.269 22.63 31.686 22.63 29.086 22.63 26.316 24.813 25.295 27.24 25.295 29.029 25.295 31.874 25.83 31.874 25.83 Z" fill="#f9f7f0" fill-opacity="1" stroke="none"/>
   <path id="Path-3" d="M34.792 37.76 L34.792 20.46 37.488 20.46 37.488 30.471 39.009 30.325 41.926 25.563 44.942 25.563 41.387 31.273 45.138 37.785 42.098 37.785 39.082 32.634 37.488 32.804 37.488 37.785 34.792 37.785 Z" fill="#f9f7f0" fill-opacity="1" stroke="none"/>
   <path id="Path-4" d="M52.151 29.256 L52.151 37.785 48.227 37.785 48.227 13.851 57.397 13.851 C62.718 13.851 65.562 16.159 65.562 21.457 65.562 24.834 64.189 27.19 61.615 28.382 L65.586 37.785 61.296 37.785 57.839 29.256 Z M57.397 17.204 L52.151 17.204 52.151 25.902 57.471 25.902 C60.438 25.902 61.565 23.983 61.565 21.505 61.565 18.759 60.217 17.204 57.397 17.204 Z" fill="#f9f7f0" fill-opacity="1" stroke="none"/>
   <path id="Path-5" d="M84.122 28.94 C84.122 34.748 82.333 38.149 76.252 38.149 70.22 38.149 68.382 34.723 68.382 28.94 68.382 23.278 70.343 19.925 76.252 19.925 82.161 19.925 84.122 23.278 84.122 28.94 Z M80.249 28.94 C80.249 24.882 79.366 23.133 76.277 23.133 73.187 23.133 72.304 24.882 72.304 28.94 72.304 32.998 73.016 34.942 76.277 34.942 79.538 34.942 80.249 32.974 80.249 28.94 Z" fill="#f9f7f0" fill-opacity="1" stroke="none"/>
   <path id="Path-6" d="M102.928 28.794 C102.928 36.035 100.648 38.149 94.322 38.149 92.459 38.149 87.874 37.736 87.874 37.736 L87.874 13.972 91.674 13.972 91.674 20.97 C91.674 20.97 94.101 19.925 96.088 19.925 100.893 19.925 102.928 22.258 102.928 28.794 Z M99.029 28.794 C99.029 24.858 98 23.302 95.646 23.302 93.783 23.302 91.699 24.007 91.699 24.007 L91.699 34.626 C91.699 34.626 93.636 34.772 94.347 34.772 98.245 34.772 99.029 33.047 99.029 28.794 Z" fill="#f9f7f0" fill-opacity="1" stroke="none"/>
   <path id="Path-7" d="M106.728 20.314 L110.553 20.314 110.553 37.785 106.704 37.785 106.704 20.314 Z" fill="#f9f7f0" fill-opacity="1" stroke="none"/>
   <path id="Path-8" d="M115.211 37.76 L115.211 20.314 119.012 20.314 119.012 21.383 C119.012 21.383 121.586 19.925 123.866 19.925 128.77 19.925 129.972 22.695 129.972 28.406 L129.972 37.76 126.172 37.76 126.172 28.503 C126.172 25.004 125.706 23.302 123.033 23.302 121.664 23.347 120.315 23.653 119.062 24.202 L119.062 37.76 Z" fill="#f9f7f0" fill-opacity="1" stroke="none"/>
   <path id="Path-9" d="M108.028 13.875 L109.327 13.875 C109.782 13.875 110.219 14.054 110.541 14.373 110.863 14.692 111.043 15.125 111.043 15.576 L111.043 16.426 C111.043 16.878 110.863 17.31 110.541 17.629 110.219 17.947 109.782 18.128 109.327 18.128 L106.385 18.128 C106.333 18.124 106.291 18.082 106.287 18.03 L106.287 15.576 C106.302 14.633 107.077 13.876 108.028 13.875 Z" fill="#f9f7f0" fill-opacity="1" stroke="none"/>
  </g>
 </g>
</svg>
