<?xml version="1.0" encoding="UTF-8"?>
<!-- Generated by Pixelmator Pro 3.5.11 -->
<svg width="120" height="31" viewBox="0 0 120 31" xmlns="http://www.w3.org/2000/svg">
    <g id="Layer1-2">
        <path id="Path" fill="#000000" stroke="none" d="M 16.338678 17.350548 L 5.300545 17.350548 L 2.818366 23.699879 L -0 23.699879 L 9.594397 -0.068048 L 12.043891 -0.068048 L 21.605602 23.699879 L 18.820856 23.699879 L 16.338678 17.350548 Z M 15.399221 14.939543 L 10.83642 3.259726 L 6.24 14.939543 L 15.399221 14.939543 Z"/>
        <path id="path1" fill="#000000" stroke="none" d="M 42.877819 4.345673 L 39.825058 4.345673 L 39.825058 0.27125 L 42.877819 0.27125 L 42.877819 4.345673 Z M 40.160309 8.012743 L 42.576187 8.012743 L 42.576187 23.699879 L 40.160309 23.699879 L 40.160309 8.012743 Z"/>
        <path id="path2" fill="#000000" stroke="none" d="M 61.623035 15.856312 C 61.623035 20.711403 58.100544 24.209297 53.236111 24.209297 C 48.37167 24.209297 44.848248 20.712347 44.848248 15.856312 C 44.848248 11.000275 48.404358 7.503323 53.236111 7.503323 C 58.06786 7.503323 61.623035 11.000275 61.623035 15.856312 Z M 47.398598 15.856312 C 47.398598 19.455336 49.880779 21.798292 53.236111 21.798292 C 56.591438 21.798292 59.07362 19.455336 59.07362 15.856312 C 59.07362 12.257286 56.591438 9.91433 53.236111 9.91433 C 49.880779 9.91433 47.398598 12.257286 47.398598 15.856312 Z"/>
        <path id="path3" fill="#000000" stroke="none" d="M 66.311913 23.699879 L 63.896027 23.699879 L 63.896027 -0.068048 L 66.311913 -0.068048 L 66.311913 23.699879 Z"/>
        <path id="path4" fill="#000000" stroke="none" d="M 85.358757 15.856312 C 85.358757 20.711403 81.836266 24.209297 76.971825 24.209297 C 72.107399 24.209297 68.583969 20.712347 68.583969 15.856312 C 68.583969 11.000275 72.140076 7.503323 76.971825 7.503323 C 81.803581 7.503323 85.358757 11.000275 85.358757 15.856312 Z M 71.133385 15.856312 C 71.133385 19.455336 73.615562 21.798292 76.970894 21.798292 C 80.326225 21.798292 82.808403 19.455336 82.808403 15.856312 C 82.808403 12.257286 80.326225 9.91433 76.970894 9.91433 C 73.615562 9.91433 71.133385 12.257286 71.133385 15.856312 Z"/>
        <path id="path5" fill="#000000" stroke="none" d="M 90.098053 30.287376 L 90.567787 27.910397 C 92.547554 28.351768 94.526375 28.623018 96.070038 28.623018 C 99.390823 28.623018 100.833618 27.196831 100.833618 23.529755 L 100.833618 20.91555 L 100.766388 20.91555 C 99.69339 22.885183 97.713615 24.209297 94.895248 24.209297 C 90.634087 24.209297 87.212456 21.051647 87.212456 15.856312 C 87.212456 10.660976 90.635017 7.503323 94.895248 7.503323 C 97.713615 7.503323 99.692451 8.82744 100.766388 10.797073 L 100.833618 10.797073 L 100.833618 8.012743 L 103.249496 8.012743 L 103.249496 23.699879 C 103.148643 29.811981 99.961403 31 96.070038 31 C 94.191132 31 91.976967 30.694725 90.098053 30.287376 Z M 100.968086 15.856312 C 100.968086 12.392439 98.753929 9.91433 95.364983 9.91433 C 91.976028 9.91433 89.761871 12.393385 89.761871 15.856312 C 89.761871 19.319237 91.976028 21.798292 95.364983 21.798292 C 98.753929 21.798292 100.968086 19.319237 100.968086 15.856312 Z"/>
        <path id="path6" fill="#000000" stroke="none" d="M 120.071907 8.012743 L 109.939613 30.490578 L 107.356575 30.490578 L 111.315178 22.036465 L 104.873466 8.013689 L 107.725456 8.013689 L 112.556267 19.28616 L 117.387085 8.013689 L 120.070976 8.013689 Z"/>
        <path id="path7" fill="#000000" stroke="none" d="M 38.32716 23.697989 L 35.945839 23.697989 C 35.945839 18.67561 34.479691 18.088688 32.954708 18.088688 C 30.583658 18.088688 27.813852 20.771889 25.293386 23.697989 L 22.165915 23.697989 C 26.757666 18.078293 29.992531 15.678628 32.954708 15.678628 C 36.520157 15.678628 38.32716 18.376951 38.32716 23.697989 Z"/>
        <path id="path8" fill="#000000" stroke="none" d="M 20.668949 8.012743 L 23.050272 8.012743 C 23.050272 13.035122 24.51642 13.622044 26.041399 13.622044 C 28.412451 13.622044 31.182257 10.938843 33.702724 8.012743 L 36.830196 8.012743 C 32.238445 13.632439 29.003578 16.032104 26.041399 16.032104 C 22.475952 16.032104 20.668949 13.33378 20.668949 8.012743 Z"/>
    </g>
</svg>
