<?xml version="1.0" encoding="UTF-8"?>
<!-- Generated by Pixelmator Pro 3.5.11 -->
<svg width="110" height="28" viewBox="0 0 110 28" xmlns="http://www.w3.org/2000/svg">
    <g id="Layer1-2">
        <path id="Path" fill="#000000" stroke="none" d="M 14.977121 15.671464 L 4.858832 15.671464 L 2.583502 21.406342 L 0 21.406342 L 8.794864 -0.061464 L 11.040234 -0.061464 L 19.805136 21.406342 L 17.252451 21.406342 L 14.977121 15.671464 Z M 14.115952 13.49378 L 9.933385 2.944267 L 5.72 13.49378 L 14.115952 13.49378 Z"/>
        <path id="path1" fill="#000000" stroke="none" d="M 39.304668 3.925123 L 36.506302 3.925123 L 36.506302 0.244999 L 39.304668 0.244999 L 39.304668 3.925123 Z M 36.813618 7.237316 L 39.028172 7.237316 L 39.028172 21.406342 L 36.813618 21.406342 L 36.813618 7.237316 Z"/>
        <path id="path2" fill="#000000" stroke="none" d="M 56.487782 14.32183 C 56.487782 18.707073 53.258831 21.866463 48.799767 21.866463 C 44.340698 21.866463 41.110893 18.707928 41.110893 14.32183 C 41.110893 9.935732 44.370663 6.777195 48.799767 6.777195 C 53.22887 6.777195 56.487782 9.935732 56.487782 14.32183 Z M 43.448715 14.32183 C 43.448715 17.572561 45.724049 19.688782 48.799767 19.688782 C 51.875488 19.688782 54.150818 17.572561 54.150818 14.32183 C 54.150818 11.071098 51.875488 8.95488 48.799767 8.95488 C 45.724049 8.95488 43.448715 11.071098 43.448715 14.32183 Z"/>
        <path id="path3" fill="#000000" stroke="none" d="M 60.785915 21.406342 L 58.571358 21.406342 L 58.571358 -0.061464 L 60.785915 -0.061464 L 60.785915 21.406342 Z"/>
        <path id="path4" fill="#000000" stroke="none" d="M 78.245522 14.32183 C 78.245522 18.707073 75.016579 21.866463 70.55751 21.866463 C 66.098442 21.866463 62.868637 18.707928 62.868637 14.32183 C 62.868637 9.935732 66.128403 6.777195 70.55751 6.777195 C 74.98661 6.777195 78.245522 9.935732 78.245522 14.32183 Z M 65.205597 14.32183 C 65.205597 17.572561 67.480934 19.688782 70.556648 19.688782 C 73.63237 19.688782 75.907707 17.572561 75.907707 14.32183 C 75.907707 11.071098 73.63237 8.95488 70.556648 8.95488 C 67.480934 8.95488 65.205597 11.071098 65.205597 14.32183 Z"/>
        <path id="path5" fill="#000000" stroke="none" d="M 82.589882 27.35634 L 83.02047 25.209391 C 84.835258 25.608049 86.649178 25.85305 88.064201 25.85305 C 91.108253 25.85305 92.430817 24.564878 92.430817 21.252682 L 92.430817 18.891464 L 92.369186 18.891464 C 91.385605 20.670488 89.570816 21.866463 86.987312 21.866463 C 83.081245 21.866463 79.944748 19.014391 79.944748 14.32183 C 79.944748 9.629269 83.0821 6.777195 86.987312 6.777195 C 89.570816 6.777195 91.38475 7.973171 92.369186 9.752195 L 92.430817 9.752195 L 92.430817 7.237316 L 94.64537 7.237316 L 94.64537 21.406342 C 94.552925 26.92695 91.631287 28 88.064201 28 C 86.341866 28 84.312218 27.724268 82.589882 27.35634 Z M 92.554085 14.32183 C 92.554085 11.193171 90.524437 8.95488 87.4179 8.95488 C 84.311363 8.95488 82.281715 11.194025 82.281715 14.32183 C 82.281715 17.449635 84.311363 19.688782 87.4179 19.688782 C 90.524437 19.688782 92.554085 17.449635 92.554085 14.32183 Z"/>
        <path id="path6" fill="#000000" stroke="none" d="M 110.065918 7.237316 L 100.777977 27.539877 L 98.410194 27.539877 L 102.03891 19.903904 L 96.13401 7.238171 L 98.748329 7.238171 L 103.176582 17.419756 L 107.604828 7.238171 L 110.065056 7.238171 Z"/>
        <path id="path7" fill="#000000" stroke="none" d="M 35.133232 21.404634 L 32.950352 21.404634 C 32.950352 16.868294 31.606382 16.338171 30.208485 16.338171 C 28.035019 16.338171 25.496031 18.761707 23.185604 21.404634 L 20.318754 21.404634 C 24.527861 16.328781 27.493153 14.161342 30.208485 14.161342 C 33.47681 14.161342 35.133232 16.598537 35.133232 21.404634 Z"/>
        <path id="path8" fill="#000000" stroke="none" d="M 18.946537 7.237316 L 21.129417 7.237316 C 21.129417 11.773659 22.473385 12.303781 23.871283 12.303781 C 26.044746 12.303781 28.583736 9.880245 30.894163 7.237316 L 33.761013 7.237316 C 29.551907 12.313171 26.586613 14.48061 23.871283 14.48061 C 20.602957 14.48061 18.946537 12.043415 18.946537 7.237316 Z"/>
    </g>
</svg>
