<?xml version="1.0" encoding="UTF-8"?>
<svg width="150px" height="45px" viewBox="0 0 150 45" xmlns="http://www.w3.org/2000/svg" xmlns:xlink="http://www.w3.org/1999/xlink" version="1.1">
 <!-- Generated by Pixelmator Pro 2.0.8 -->
 <g id="Layer_2">
  <g id="Layer_1-2">
   <g id="Artwork_1">
    <path id="Path" d="M3.713 3.375 L3.713 40.875 40.47 40.875 40.47 3.375 Z M39.728 36.225 C39.729 37.26 39.322 38.252 38.598 38.984 37.874 39.715 36.891 40.126 35.866 40.125 L8.28 40.125 C7.255 40.126 6.273 39.715 5.548 38.984 4.824 38.252 4.417 37.26 4.418 36.225 L4.418 8.362 C4.417 7.328 4.824 6.335 5.548 5.604 6.273 4.872 7.255 4.462 8.28 4.462 L35.866 4.462 C36.891 4.462 37.873 4.872 38.598 5.604 39.322 6.335 39.729 7.328 39.728 8.362 Z" fill="#f8c01a" fill-opacity="1" stroke="none"/>
    <path id="Path-1" d="M44.183 8.25 C44.183 6.062 43.323 3.964 41.791 2.416 40.259 0.869 38.181 0 36.015 0 L8.168 0 C6.002 0 3.924 0.869 2.392 2.416 0.861 3.964 -0 6.062 0 8.25 L0 36.375 C0 38.563 0.861 40.661 2.392 42.209 3.924 43.756 6.002 44.625 8.168 44.625 L36.015 44.625 C38.181 44.625 40.259 43.756 41.791 42.209 43.323 40.661 44.183 38.563 44.183 36.375 Z M39.728 36.225 C39.729 37.26 39.322 38.252 38.598 38.984 37.874 39.715 36.891 40.126 35.866 40.125 L8.28 40.125 C7.255 40.126 6.273 39.715 5.548 38.984 4.824 38.252 4.417 37.26 4.418 36.225 L4.418 8.362 C4.417 7.328 4.824 6.335 5.548 5.604 6.273 4.872 7.255 4.462 8.28 4.462 L35.866 4.462 C36.891 4.462 37.873 4.872 38.598 5.604 39.322 6.335 39.729 7.328 39.728 8.362 Z" fill="#373638" fill-opacity="1" stroke="none"/>
    <path id="Path-2" d="M39.728 36.262 C39.727 37.293 39.318 38.281 38.593 39.006 37.868 39.731 36.887 40.134 35.866 40.125 L8.28 40.125 C6.159 40.131 4.433 38.404 4.418 36.262 L4.418 8.4 C4.419 7.37 4.827 6.382 5.552 5.657 6.277 4.932 7.259 4.529 8.279 4.537 L35.866 4.537 C37.987 4.531 39.713 6.258 39.728 8.4 Z" fill="#f8c01a" fill-opacity="1" stroke="none"/>
    <path id="Path-3" d="M13.96 11.1 C13.959 10.931 14.026 10.768 14.144 10.648 14.263 10.528 14.424 10.461 14.592 10.463 L22.24 10.463 C26.213 10.463 29.257 13.163 29.257 16.688 29.257 19.275 27.141 21.3 25.582 22.05 27.364 22.612 29.926 24.45 29.926 27.525 29.926 31.313 26.733 34.012 22.649 34.012 L14.592 34.012 C14.424 34.014 14.263 33.947 14.144 33.827 14.026 33.707 13.959 33.544 13.96 33.375 Z M21.832 20.325 C23.54 20.325 24.691 18.975 24.691 17.288 24.691 15.6 23.54 14.438 21.832 14.438 L18.267 14.438 18.267 20.325 Z M22.314 30.037 C23.122 30.048 23.898 29.726 24.466 29.146 25.033 28.566 25.342 27.778 25.322 26.963 25.322 25.275 23.651 24.038 21.906 24.038 L18.267 24.038 18.267 30.037 Z" fill="#373638" fill-opacity="1" stroke="none"/>
    <path id="Path-4" d="M52.277 11.175 C52.276 11.006 52.342 10.843 52.461 10.723 52.58 10.603 52.741 10.536 52.908 10.537 L60.408 10.537 C64.455 10.537 67.351 13.238 67.351 16.762 67.351 19.35 65.458 21.225 63.861 22.125 65.644 22.875 68.057 24.525 68.057 27.637 68.057 31.425 64.975 34.162 60.78 34.162 L52.946 34.162 C52.778 34.164 52.617 34.097 52.498 33.977 52.38 33.857 52.313 33.694 52.314 33.525 L52.314 11.175 Z M60.743 31.05 C61.709 31.066 62.64 30.682 63.32 29.989 63.999 29.295 64.369 28.351 64.344 27.375 64.344 25.313 62.413 23.85 60.223 23.85 L55.656 23.85 55.656 31.088 60.743 31.088 Z M60.223 20.813 C62.376 20.813 63.676 19.238 63.676 17.213 63.676 15.188 62.376 13.725 60.223 13.725 L55.693 13.725 55.693 20.813 Z" fill="#373638" fill-opacity="1" stroke="none"/>
    <path id="Path-5" d="M76.002 25.613 C76.896 25.622 77.784 25.761 78.639 26.025 78.676 23.888 78.267 23.063 76.559 23.063 75.289 23.103 74.03 23.304 72.809 23.663 72.401 23.775 72.178 23.513 72.067 23.138 L71.807 21.9 C71.756 21.736 71.775 21.558 71.86 21.408 71.944 21.259 72.087 21.152 72.252 21.113 73.729 20.579 75.288 20.313 76.856 20.325 81.126 20.325 81.535 22.95 81.535 26.325 L81.535 33.525 C81.525 33.873 81.248 34.153 80.903 34.163 L79.975 34.163 C79.678 34.163 79.53 34.013 79.418 33.675 L79.084 32.775 C77.994 33.884 76.51 34.505 74.963 34.5 72.438 34.5 70.656 32.775 70.656 29.963 70.656 27.525 72.624 25.613 76.002 25.613 Z M75.631 32.1 C76.835 32.028 77.942 31.407 78.639 30.413 L78.639 28.238 C77.914 27.87 77.11 27.689 76.3 27.713 74.703 27.713 73.589 28.575 73.589 29.925 73.589 31.163 74.369 32.1 75.631 32.1 Z" fill="#373638" fill-opacity="1" stroke="none"/>
    <path id="Path-6" d="M85.767 21.3 C85.777 20.952 86.054 20.672 86.399 20.662 L87.364 20.663 C87.635 20.684 87.861 20.882 87.921 21.15 L88.292 22.312 C89.205 21.066 90.656 20.34 92.191 20.363 93.453 20.363 95.012 20.7 94.641 21.6 L93.824 23.25 C93.767 23.409 93.642 23.534 93.485 23.592 93.327 23.65 93.153 23.634 93.007 23.55 92.643 23.395 92.251 23.319 91.856 23.325 90.642 23.325 89.51 23.946 88.849 24.975 L88.849 33.563 C88.849 34.125 88.478 34.2 87.958 34.2 L86.361 34.2 C86.017 34.19 85.74 33.91 85.73 33.563 L85.73 21.3 Z" fill="#373638" fill-opacity="1" stroke="none"/>
    <path id="Path-7" d="M97.017 11.175 C97.027 10.827 97.304 10.547 97.649 10.537 L99.579 10.537 C99.924 10.547 100.201 10.827 100.21 11.175 L100.21 25.8 105.408 21.075 C105.624 20.844 105.913 20.698 106.225 20.662 L108.564 20.662 C108.779 20.655 108.975 20.783 109.058 20.983 109.14 21.183 109.092 21.414 108.936 21.563 L103.403 26.662 109.938 33.262 C110.096 33.405 110.146 33.633 110.062 33.829 109.977 34.026 109.778 34.145 109.567 34.125 L106.819 34.125 C106.598 34.108 106.388 34.016 106.225 33.863 L100.173 27.6 100.173 33.525 C100.164 33.873 99.887 34.153 99.542 34.163 L97.649 34.163 C97.304 34.153 97.027 33.873 97.017 33.525 Z" fill="#373638" fill-opacity="1" stroke="none"/>
    <path id="Path-8" d="M112.24 13.2 C112.24 12.408 112.714 11.695 113.44 11.395 114.166 11.096 115 11.269 115.549 11.835 116.098 12.4 116.254 13.245 115.944 13.972 115.633 14.7 114.918 15.165 114.134 15.15 113.079 15.136 112.234 14.265 112.24 13.2 Z M112.611 21.3 C112.621 20.952 112.898 20.672 113.243 20.663 L115.136 20.663 C115.481 20.672 115.758 20.952 115.767 21.3 L115.767 33.525 C115.758 33.873 115.481 34.153 115.136 34.162 L113.243 34.162 C112.898 34.153 112.621 33.873 112.611 33.525 Z" fill="#373638" fill-opacity="1" stroke="none"/>
    <path id="Path-9" d="M120.111 21.3 C120.121 20.952 120.398 20.672 120.743 20.662 L121.708 20.663 C121.956 20.658 122.173 20.83 122.228 21.075 L122.636 22.237 C123.904 21.036 125.576 20.366 127.314 20.362 131.399 20.362 132.884 23.25 132.884 26.775 L132.884 33.563 C132.874 33.91 132.597 34.19 132.252 34.2 L130.359 34.2 C130.191 34.201 130.03 34.134 129.911 34.014 129.793 33.895 129.727 33.732 129.728 33.563 L129.728 26.663 C129.728 24.488 128.688 23.325 126.943 23.325 124.827 23.325 123.416 24.863 123.23 25.35 L123.23 33.6 C123.23 34.05 123.045 34.238 122.451 34.238 L120.705 34.238 C120.361 34.228 120.084 33.948 120.074 33.6 L120.074 21.3 Z" fill="#373638" fill-opacity="1" stroke="none"/>
    <path id="Path-10" d="M138.156 29.512 C137.465 28.569 137.1 27.423 137.116 26.25 137.083 24.692 137.676 23.186 138.761 22.077 139.845 20.967 141.328 20.349 142.871 20.363 L148.701 20.363 C148.87 20.355 149.035 20.42 149.155 20.541 149.275 20.662 149.339 20.829 149.332 21 L149.332 21.862 C149.332 22.087 149.183 22.388 148.96 22.425 L147.104 22.95 C147.104 22.95 148.552 24.037 148.552 26.55 148.552 29.438 146.361 32.063 142.871 32.063 141.163 32.063 140.235 31.537 139.975 31.537 139.715 31.537 138.601 32.1 138.601 33.188 138.601 33.975 139.196 34.575 140.198 34.575 L144.728 34.575 C147.624 34.575 149.963 36.15 149.963 39.113 149.963 42.075 147.29 44.7 142.834 44.7 138.119 44.7 136.225 42.262 136.225 40.088 136.225 38.063 137.859 37.125 138.193 36.9 L138.193 36.787 C136.709 36.352 135.692 34.973 135.705 33.412 135.78 30.75 138.156 29.512 138.156 29.512 Z M142.834 41.85 C144.876 41.85 146.658 40.8 146.658 39.188 146.658 38.662 146.324 37.275 144.134 37.275 143.168 37.275 142.166 37.275 141.201 37.35 141.015 37.425 139.381 37.95 139.381 39.487 139.381 40.838 140.829 41.85 142.834 41.85 Z M145.73 26.287 C145.73 24.45 144.579 23.175 142.908 23.175 141.238 23.175 139.975 24.45 139.975 26.287 139.975 28.125 141.201 29.4 142.908 29.4 144.616 29.4 145.73 28.125 145.73 26.287 Z" fill="#373638" fill-opacity="1" stroke="none"/>
   </g>
  </g>
 </g>
</svg>
