<?xml version="1.0" encoding="UTF-8"?>
<!-- Generated by Pixelmator Pro 2.3.8 -->
<svg width="120" height="44" viewBox="0 0 120 44" xmlns="http://www.w3.org/2000/svg" xmlns:xlink="http://www.w3.org/1999/xlink">
    <g id="Group">
        <path id="Path" fill="#000000" stroke="none" d="M 0.060469 12.577915 L 0.060469 25.170967 L 59.34996 25.170967 L 118.639458 25.170967 L 118.639458 12.577915 L 118.639458 -0.015137 L 59.34996 -0.015137 L 0.060469 -0.015137 L 0.060469 12.577915 Z M 115.61602 12.577915 L 115.61602 22.143791 L 59.34996 22.143791 L 3.0839 22.143791 L 3.0839 12.577915 L 3.0839 3.012039 L 59.34996 3.012039 L 115.61602 3.012039 L 115.61602 12.577915 Z"/>
        <path id="path1" fill="#000000" stroke="none" d="M 8.465609 12.75349 L 8.465609 19.056072 L 11.174603 19.056072 C 14.560847 19.056072 14.996221 19.001583 16.084656 18.450636 C 16.574451 18.202406 17.154951 17.627245 17.378685 17.173168 C 17.862434 16.180254 17.898714 14.872515 17.469389 13.970417 C 17.227514 13.461851 16.707483 12.953285 16.187452 12.729273 L 15.78836 12.553698 L 16.096748 12.37812 C 16.979591 11.87561 17.475435 10.967457 17.475435 9.859512 C 17.475435 9.066391 17.233561 8.333813 16.798185 7.788921 C 16.380953 7.26825 15.461828 6.796009 14.452003 6.578053 C 14.234316 6.535675 13.121694 6.499348 11.295541 6.481182 L 8.465609 6.450912 L 8.465609 12.75349 Z M 13.980348 8.757618 C 14.621315 9.005848 14.911564 9.502304 14.86319 10.27726 C 14.839003 10.761608 14.675737 11.088547 14.34316 11.348885 C 13.956161 11.645546 13.45427 11.730305 12.130008 11.730305 L 11.005291 11.730305 L 11.005291 10.15012 L 11.005291 8.569935 L 12.323507 8.594151 C 13.502645 8.61837 13.671958 8.636532 13.980348 8.757618 Z M 14.040816 13.643482 C 14.494331 13.770622 14.887377 14.109667 15.038549 14.503201 C 15.18972 14.902786 15.18972 15.732233 15.032502 16.04706 C 14.869237 16.373993 14.597128 16.628277 14.210129 16.809908 C 13.883597 16.961266 13.84127 16.967321 12.444444 16.985483 L 11.005291 17.009699 L 11.005291 15.278156 L 11.005291 13.54661 L 12.347694 13.54661 C 13.405896 13.54661 13.762661 13.564775 14.040816 13.643482 Z"/>
        <path id="path2" fill="#000000" stroke="none" d="M 22.373394 12.759546 L 22.373394 19.056072 L 26.575964 19.056072 L 30.778534 19.056072 L 30.778534 18.026833 L 30.778534 16.997591 L 27.845804 16.997591 L 24.913074 16.997591 L 24.913074 15.2721 L 24.913074 13.54661 L 27.39229 13.54661 L 29.871506 13.54661 L 29.871506 12.547642 L 29.871506 11.548676 L 27.39229 11.548676 L 24.913074 11.548676 L 24.913074 10.065361 L 24.913074 8.582043 L 27.815569 8.582043 L 30.718063 8.582043 L 30.718063 7.522533 L 30.718063 6.46302 L 26.545729 6.46302 L 22.373394 6.46302 L 22.373394 12.759546 Z"/>
        <path id="path3" fill="#000000" stroke="none" d="M 38.488285 6.565945 C 38.470142 6.626488 37.43008 9.411488 36.190475 12.759546 C 34.94482 16.107603 33.910809 18.892603 33.892666 18.947094 C 33.850342 19.050016 33.941044 19.056072 35.235073 19.056072 L 36.613754 19.056072 L 37.043083 17.766495 L 37.466366 16.482971 L 39.73394 16.464808 L 41.995464 16.4527 L 42.424793 17.736221 L 42.848072 19.025801 L 44.244896 19.043964 L 45.641724 19.056072 L 45.012848 17.379017 C 44.668179 16.4527 43.616024 13.625317 42.666668 11.094597 L 40.94936 6.493294 L 39.739986 6.475128 C 38.633408 6.46302 38.530613 6.469074 38.488285 6.565945 Z M 41.26984 14.224699 C 41.312172 14.327623 41.21542 14.333679 39.764172 14.333679 C 38.911564 14.333679 38.216175 14.315514 38.216175 14.285242 C 38.216175 14.242863 39.625095 9.980598 39.703705 9.792915 C 39.721844 9.744476 40.072559 10.695011 40.483749 11.911934 C 40.894936 13.128862 41.245655 14.17021 41.26984 14.224699 Z"/>
        <path id="path4" fill="#000000" stroke="none" d="M 49.463341 12.759546 L 49.463341 19.056072 L 50.733181 19.056072 L 52.003021 19.056072 L 52.003021 17.05208 C 52.003021 15.302374 51.900227 12.051188 51.791382 10.368076 C 51.773243 10.071415 51.773243 9.847401 51.797428 9.865566 C 51.815571 9.889782 52.571426 11.960373 53.478455 14.466871 L 55.123207 19.025801 L 56.024189 19.043964 L 56.931217 19.056072 L 58.594105 14.442656 C 59.507179 11.905884 60.263042 9.87162 60.275131 9.926109 C 60.287228 9.974545 60.238853 11.264122 60.166286 12.783764 C 60.09977 14.309462 60.045353 16.343723 60.045353 17.306366 L 60.045353 19.056072 L 61.345425 19.056072 L 62.645504 19.056072 L 62.645504 12.759546 L 62.645504 6.46302 L 60.940285 6.46302 L 59.229027 6.46302 L 57.699173 10.840317 C 56.852608 13.243895 56.13303 15.28421 56.096752 15.375025 C 56.030235 15.526386 55.891159 15.163124 54.421768 11.003784 L 52.825397 6.46302 L 51.144367 6.46302 L 49.463341 6.46302 L 49.463341 12.759546 Z"/>
        <path id="path5" fill="#000000" stroke="none" d="M 67.543465 12.759546 L 67.543465 19.056072 L 71.564629 19.056072 L 75.585785 19.056072 L 75.585785 18.026833 L 75.585785 16.997591 L 72.834465 16.997591 L 70.083145 16.997591 L 70.083145 11.730305 L 70.083145 6.46302 L 68.813309 6.46302 L 67.543465 6.46302 L 67.543465 12.759546 Z"/>
        <path id="path6" fill="#000000" stroke="none" d="M 79.879066 12.759546 L 79.879066 19.056072 L 81.179138 19.056072 L 82.47921 19.056072 L 82.47921 12.759546 L 82.47921 6.46302 L 81.179138 6.46302 L 79.879066 6.46302 L 79.879066 12.759546 Z"/>
        <path id="path7" fill="#000000" stroke="none" d="M 87.498116 12.759546 L 87.498116 19.056072 L 88.767952 19.056072 L 90.037796 19.056072 L 90.037796 14.969385 C 90.037796 12.723221 90.055931 10.882698 90.086166 10.882698 C 90.110359 10.888752 91.241119 12.723221 92.607712 14.969385 L 95.080879 19.056072 L 96.368858 19.056072 L 97.656837 19.056072 L 97.656837 12.759546 L 97.656837 6.46302 L 96.386993 6.46302 L 95.117157 6.46302 L 95.117157 10.549706 C 95.117157 12.795872 95.099022 14.636395 95.074829 14.636395 C 95.044601 14.636395 93.913834 12.795872 92.547241 10.549706 L 90.068024 6.46302 L 88.786087 6.46302 L 87.498116 6.46302 L 87.498116 12.759546 Z"/>
        <path id="path8" fill="#000000" stroke="none" d="M 102.615273 12.759546 L 102.615273 19.056072 L 106.817833 19.056072 L 111.020409 19.056072 L 111.020409 18.026833 L 111.020409 16.997591 L 108.087677 16.997591 L 105.154953 16.997591 L 105.154953 15.2721 L 105.154953 13.54661 L 107.634163 13.54661 L 110.11338 13.54661 L 110.11338 12.547642 L 110.11338 11.548676 L 107.634163 11.548676 L 105.154953 11.548676 L 105.154953 10.065361 L 105.154953 8.582043 L 108.057449 8.582043 L 110.959946 8.582043 L 110.959946 7.522533 L 110.959946 6.46302 L 106.787605 6.46302 L 102.615273 6.46302 L 102.615273 12.759546 Z"/>
        <path id="path9" fill="#000000" stroke="none" d="M 3.120182 33.199036 C 1.989418 36.214104 0.991686 38.799313 0.900983 38.93856 C 0.719577 39.229172 0.513983 39.398693 0.350718 39.398693 C 0.290249 39.398693 0.241875 39.441074 0.241875 39.48951 C 0.241875 39.568214 0.386999 39.580322 1.209373 39.580322 C 2.031746 39.580322 2.176871 39.568214 2.176871 39.48951 C 2.176871 39.441074 2.14059 39.398693 2.098262 39.398693 C 1.953137 39.398693 1.75359 39.126247 1.75359 38.932507 C 1.75359 38.781151 2.473167 36.728725 3.18065 34.839767 L 3.337868 34.434124 L 4.867725 34.434124 L 6.397581 34.434124 L 6.464097 34.597591 C 6.917612 35.753975 8.042328 38.902237 8.042328 39.035431 C 8.042328 39.223118 7.860922 39.398693 7.667422 39.398693 C 7.606954 39.398693 7.558579 39.441074 7.558579 39.48951 C 7.558579 39.568214 7.746032 39.580322 8.858654 39.580322 C 9.971277 39.580322 10.158731 39.568214 10.158731 39.48951 C 10.158731 39.43502 10.104308 39.398693 10.013605 39.398693 C 9.808012 39.398693 9.511716 39.132301 9.348451 38.799313 C 9.269841 38.647953 8.314437 36.111179 7.226001 33.162712 C 6.131519 30.214241 5.22449 27.786446 5.206349 27.762228 C 5.188209 27.744066 4.244898 30.190025 3.120182 33.199036 Z M 5.569161 32.097145 C 5.895691 32.993187 6.1678 33.749985 6.1678 33.780254 C 6.1678 33.804474 5.569161 33.82869 4.831444 33.82869 C 3.579743 33.82869 3.495087 33.822636 3.537415 33.719711 C 3.561602 33.665222 3.845805 32.878155 4.178382 31.982113 C 4.51096 31.080013 4.795162 30.305058 4.813303 30.256622 C 4.855631 30.147644 4.789115 29.984177 5.569161 32.097145 Z"/>
        <path id="path10" fill="#000000" stroke="none" d="M 17.505669 27.804609 C 16.550264 27.962023 15.842782 28.234467 15.026456 28.76725 C 12.631897 30.329273 11.749056 33.58046 12.970522 36.347298 C 13.64777 37.885105 15.123205 39.102028 16.864702 39.568214 C 17.378685 39.701408 17.566137 39.719574 18.533636 39.725628 C 19.52532 39.725628 19.682539 39.71352 20.317461 39.56216 C 20.698412 39.46529 21.236584 39.344204 21.508692 39.289715 L 22.010582 39.18679 L 22.010582 38.199932 C 22.010582 37.079876 21.962208 36.983006 21.684052 37.582386 C 20.897959 39.307877 18.261526 39.659031 16.217688 38.30891 C 14.452003 37.140419 13.424036 35.015343 13.659864 33.02346 C 13.925926 30.837841 15.165533 29.233437 17.064247 28.60984 C 17.547997 28.452425 17.741497 28.422153 18.442932 28.397936 C 19.368103 28.36161 19.888132 28.452425 20.39607 28.724873 C 20.807255 28.954937 21.18821 29.396904 21.327286 29.814655 C 21.532879 30.432198 21.587301 30.305058 21.587301 29.203165 C 21.587301 28.204197 21.587301 28.198143 21.454271 28.198143 C 21.375662 28.198143 20.964474 28.101273 20.5291 27.980186 C 19.845806 27.792501 19.634165 27.762228 18.896446 27.744066 C 18.334089 27.725903 17.868481 27.75012 17.505669 27.804609 Z"/>
        <path id="path11" fill="#000000" stroke="none" d="M 28.994709 27.804609 C 28.039305 27.962023 27.331823 28.234467 26.515495 28.76725 C 24.120935 30.329273 23.238096 33.58046 24.45956 36.347298 C 25.13681 37.885105 26.612244 39.102028 28.353743 39.568214 C 28.867725 39.701408 29.055178 39.719574 30.022676 39.725628 C 31.01436 39.725628 31.171579 39.71352 31.806499 39.56216 C 32.187454 39.46529 32.725624 39.344204 32.99773 39.289715 L 33.499622 39.18679 L 33.499622 38.199932 C 33.499622 37.079876 33.451244 36.983006 33.173092 37.582386 C 32.387001 39.307877 29.750566 39.659031 27.706728 38.30891 C 25.941044 37.140419 24.913074 35.015343 25.148903 33.02346 C 25.414967 30.837841 26.654573 29.233437 28.553288 28.60984 C 29.037037 28.452425 29.230536 28.422153 29.931973 28.397936 C 30.857143 28.36161 31.377172 28.452425 31.885109 28.724873 C 32.296299 28.954937 32.67725 29.396904 32.816326 29.814655 C 33.021923 30.432198 33.07634 30.305058 33.07634 29.203165 C 33.07634 28.204197 33.07634 28.198143 32.943314 28.198143 C 32.864704 28.198143 32.453514 28.101273 32.018139 27.980186 C 31.334846 27.792501 31.123205 27.762228 30.385487 27.744066 C 29.823128 27.725903 29.357519 27.75012 28.994709 27.804609 Z"/>
        <path id="path12" fill="#000000" stroke="none" d="M 78.766441 33.199036 C 77.635681 36.214104 76.637947 38.799313 76.547241 38.93856 C 76.365837 39.229172 76.16024 39.398693 75.996971 39.398693 C 75.936508 39.398693 75.888138 39.441074 75.888138 39.48951 C 75.888138 39.568214 76.033257 39.580322 76.855629 39.580322 C 77.678009 39.580322 77.823128 39.568214 77.823128 39.48951 C 77.823128 39.441074 77.786842 39.398693 77.744522 39.398693 C 77.599396 39.398693 77.399849 39.126247 77.399849 38.932507 C 77.399849 38.781151 78.119423 36.728725 78.826904 34.839767 L 78.984123 34.434124 L 80.513985 34.434124 L 82.043839 34.434124 L 82.110352 34.597591 C 82.563873 35.753975 83.688591 38.902237 83.688591 39.035431 C 83.688591 39.223118 83.507179 39.398693 83.313683 39.398693 C 83.253212 39.398693 83.204834 39.441074 83.204834 39.48951 C 83.204834 39.568214 83.392296 39.580322 84.504913 39.580322 C 85.617538 39.580322 85.804985 39.568214 85.804985 39.48951 C 85.804985 39.43502 85.750572 39.398693 85.659866 39.398693 C 85.454269 39.398693 85.157974 39.132301 84.994705 38.799313 C 84.9161 38.647953 83.960701 36.111179 82.872261 33.162712 C 81.777779 30.214241 80.870743 27.786446 80.852608 27.762228 C 80.834465 27.744066 79.891159 30.190025 78.766441 33.199036 Z M 81.215424 32.097145 C 81.541946 32.993187 81.814056 33.749985 81.814056 33.780254 C 81.814056 33.804474 81.215424 33.82869 80.477699 33.82869 C 79.226006 33.82869 79.141342 33.822636 79.18367 33.719711 C 79.207863 33.665222 79.492065 32.878155 79.824638 31.982113 C 80.157219 31.080013 80.441422 30.305058 80.459557 30.256622 C 80.501892 30.147644 80.435371 29.984177 81.215424 32.097145 Z"/>
        <path id="path13" fill="#000000" stroke="none" d="M 100.184425 27.774338 C 99.162514 27.937805 98.182915 28.367664 97.372635 29.01548 C 96.229782 29.91758 95.389259 31.406948 95.171585 32.914482 C 95.074829 33.616787 95.1353 34.809494 95.298561 35.43309 C 95.758118 37.158585 96.894943 38.526867 98.47921 39.259441 C 99.767197 39.852768 101.665916 39.919365 103.068787 39.416855 C 104.767952 38.805367 106.068031 37.58844 106.70295 36.020363 C 107.307632 34.52494 107.259262 32.605709 106.575966 31.067905 C 105.886627 29.511936 104.399094 28.288958 102.663643 27.859098 C 102.210129 27.75012 100.674225 27.695631 100.184425 27.774338 Z M 102.028725 28.500858 C 103.377167 28.845959 104.568405 29.875198 105.281929 31.316132 C 105.717308 32.206123 105.89267 32.944756 105.898712 33.889233 C 105.904762 35.475471 105.360542 36.783211 104.260017 37.830616 C 103.47393 38.575302 102.687828 38.950672 101.569168 39.095974 C 100.674225 39.217064 99.755104 38.986996 98.896454 38.429996 C 97.336357 37.406811 96.302338 35.469418 96.308395 33.586517 C 96.320488 31.225319 97.89872 29.01548 99.954651 28.476643 C 100.456535 28.343449 101.472404 28.355556 102.028725 28.500858 Z"/>
        <path id="path14" fill="#000000" stroke="none" d="M 36.281178 27.98624 C 36.281178 28.034676 36.335602 28.077057 36.396069 28.077057 C 36.583523 28.077057 36.867725 28.458481 36.940289 28.803577 C 36.982616 29.009426 37.006802 30.601719 37.006802 33.737873 C 37.006802 36.874027 36.982616 38.466324 36.940289 38.672173 C 36.867725 39.017269 36.583523 39.398693 36.396069 39.398693 C 36.335602 39.398693 36.281178 39.441074 36.281178 39.48951 C 36.281178 39.568214 36.722599 39.580322 39.909298 39.580322 L 43.537415 39.580322 L 43.537415 38.551083 C 43.537415 37.733746 43.519272 37.521843 43.458805 37.521843 C 43.410431 37.521843 43.337868 37.667149 43.277401 37.866943 C 43.16251 38.290749 42.829933 38.702442 42.48526 38.859856 C 42.261524 38.96278 42.049889 38.974888 40.199547 38.974888 L 38.155704 38.974888 L 38.155704 36.280701 L 38.155704 33.586517 L 39.72789 33.586517 C 40.925171 33.586517 41.354496 33.604679 41.499622 33.671276 C 41.735451 33.768147 42.0257 34.095081 42.0257 34.258549 C 42.0257 34.319092 42.068027 34.373581 42.116402 34.373581 C 42.195011 34.373581 42.207108 34.210114 42.207108 33.253525 C 42.207108 32.345375 42.188965 32.133469 42.122448 32.133469 C 42.08012 32.133469 42.0257 32.218231 42.001514 32.321156 C 41.953136 32.563332 41.61451 32.890266 41.360546 32.944756 C 41.251701 32.962917 40.489796 32.981079 39.661377 32.981079 L 38.155704 32.981079 L 38.155704 30.734917 L 38.155704 28.494804 L 40.169312 28.512968 C 41.995464 28.531132 42.195011 28.54324 42.358276 28.64011 C 42.575962 28.773304 42.799698 29.076023 42.866215 29.324251 C 42.8904 29.42112 42.956917 29.505882 43.011337 29.517992 C 43.102043 29.536156 43.114136 29.451393 43.114136 28.718817 L 43.114136 27.895426 L 39.697655 27.895426 C 36.698414 27.895426 36.281178 27.907534 36.281178 27.98624 Z"/>
        <path id="path15" fill="#000000" stroke="none" d="M 46.198036 27.98624 C 46.198036 28.034676 46.252457 28.077057 46.312927 28.077057 C 46.500381 28.077057 46.78458 28.458481 46.85714 28.803577 C 46.899471 29.009426 46.923656 30.601719 46.923656 33.737873 C 46.923656 36.874027 46.899471 38.466324 46.85714 38.672173 C 46.78458 39.017269 46.500381 39.398693 46.312927 39.398693 C 46.252457 39.398693 46.198036 39.441074 46.198036 39.48951 C 46.198036 39.568214 46.639458 39.580322 49.826149 39.580322 L 53.454269 39.580322 L 53.454269 38.46027 C 53.454269 37.546062 53.436134 37.340214 53.369617 37.340214 C 53.321236 37.340214 53.266819 37.43103 53.24263 37.564224 C 53.139832 38.139389 52.819347 38.599518 52.396072 38.799313 C 52.178383 38.902237 51.97279 38.914345 50.116402 38.914345 L 48.072563 38.914345 L 48.072563 33.895287 C 48.072563 29.54221 48.08466 28.845959 48.163265 28.615894 C 48.27211 28.307121 48.471657 28.077057 48.628876 28.077057 C 48.689342 28.077057 48.737717 28.034676 48.737717 27.98624 C 48.737717 27.907534 48.556309 27.895426 47.467873 27.895426 C 46.37944 27.895426 46.198036 27.907534 46.198036 27.98624 Z"/>
        <path id="path16" fill="#000000" stroke="none" d="M 55.691608 27.98624 C 55.691608 28.034676 55.746029 28.077057 55.806499 28.077057 C 55.99395 28.077057 56.278156 28.458481 56.350719 28.803577 C 56.393047 29.009426 56.417233 30.601719 56.417233 33.737873 C 56.417233 36.874027 56.393047 38.466324 56.350719 38.672173 C 56.278156 39.017269 55.99395 39.398693 55.806499 39.398693 C 55.746029 39.398693 55.691608 39.441074 55.691608 39.48951 C 55.691608 39.568214 56.13303 39.580322 59.319729 39.580322 L 62.947845 39.580322 L 62.947845 38.551083 C 62.947845 37.733746 62.929703 37.521843 62.86924 37.521843 C 62.820858 37.521843 62.748299 37.667149 62.687832 37.866943 C 62.572937 38.290749 62.240364 38.702442 61.895695 38.859856 C 61.671959 38.96278 61.460316 38.974888 59.609978 38.974888 L 57.566139 38.974888 L 57.566139 36.280701 L 57.566139 33.586517 L 59.138321 33.586517 C 60.335602 33.586517 60.764931 33.604679 60.910053 33.671276 C 61.145882 33.768147 61.436127 34.095081 61.436127 34.258549 C 61.436127 34.319092 61.478458 34.373581 61.526833 34.373581 C 61.605442 34.373581 61.617535 34.210114 61.617535 33.253525 C 61.617535 32.345375 61.5994 32.133469 61.532883 32.133469 C 61.490555 32.133469 61.436127 32.218231 61.411942 32.321156 C 61.363567 32.563332 61.02494 32.890266 60.770973 32.944756 C 60.662132 32.962917 59.90023 32.981079 59.071808 32.981079 L 57.566139 32.981079 L 57.566139 30.734917 L 57.566139 28.494804 L 59.579739 28.512968 C 61.405895 28.531132 61.605442 28.54324 61.768707 28.64011 C 61.986397 28.773304 62.210125 29.076023 62.276642 29.324251 C 62.300827 29.42112 62.367344 29.505882 62.421768 29.517992 C 62.512474 29.536156 62.524563 29.451393 62.524563 28.718817 L 62.524563 27.895426 L 59.108089 27.895426 C 56.108841 27.895426 55.691608 27.907534 55.691608 27.98624 Z"/>
        <path id="path17" fill="#000000" stroke="none" d="M 65.608467 27.980186 C 65.608467 28.034676 65.656837 28.077057 65.723351 28.077057 C 65.874527 28.077057 66.134544 28.385826 66.21315 28.670382 C 66.297806 28.979155 66.297806 38.496593 66.21315 38.805367 C 66.134544 39.08992 65.874527 39.398693 65.723351 39.398693 C 65.662888 39.398693 65.608467 39.441074 65.608467 39.48951 C 65.608467 39.568214 65.783821 39.580322 66.848076 39.580322 C 67.815575 39.580322 68.087685 39.56216 68.087685 39.501617 C 68.087685 39.459236 68.009071 39.398693 67.918365 39.362366 C 67.803474 39.313931 67.694633 39.198898 67.597885 38.999107 L 67.452759 38.702442 L 67.452759 36.159615 L 67.452759 33.616787 L 67.603928 33.628895 C 67.688583 33.634949 67.876038 33.653114 68.027214 33.67733 L 68.299316 33.713657 L 69.901741 36.147507 C 70.784584 37.485519 71.631142 38.720604 71.788361 38.890129 C 71.94558 39.05965 72.21769 39.277607 72.393051 39.36842 C 72.677246 39.525833 72.786095 39.543999 73.390778 39.568214 C 73.977325 39.59243 74.074074 39.580322 74.074074 39.501617 C 74.074074 39.447128 74.001511 39.392639 73.89267 39.36842 C 73.487526 39.277607 73.106575 38.805367 71.419502 36.280701 C 70.524567 34.936634 69.756615 33.780254 69.726379 33.713657 C 69.665909 33.610733 69.702194 33.586517 70.095238 33.465427 C 71.352989 33.084003 72.126984 32.309048 72.32653 31.237427 C 72.423279 30.753078 72.362808 29.996284 72.193504 29.560371 C 71.933479 28.870174 71.177628 28.295012 70.198036 28.04073 C 69.883598 27.955967 69.411942 27.931751 67.712776 27.913588 C 65.820107 27.889372 65.608467 27.895426 65.608467 27.980186 Z M 69.502647 28.682491 C 70.536659 28.942827 71.050644 29.493774 71.147392 30.444307 C 71.274376 31.691502 70.548752 32.690472 69.315193 32.950809 C 68.879822 33.047676 68.256989 33.065842 67.743004 33.005299 L 67.422523 32.962917 L 67.422523 30.722807 L 67.422523 28.482697 L 68.226761 28.519024 C 68.710503 28.54324 69.218445 28.60984 69.502647 28.682491 Z"/>
        <path id="path18" fill="#000000" stroke="none" d="M 85.925926 28.86412 C 85.925926 29.687511 85.938019 29.832817 86.016624 29.832817 C 86.077095 29.832817 86.10733 29.772274 86.10733 29.663296 C 86.10733 29.409012 86.349205 28.985209 86.609222 28.77936 L 86.845047 28.591675 L 88.048378 28.573513 L 89.251701 28.555349 L 89.251701 33.616787 C 89.251701 38.048573 89.239601 38.702442 89.160995 38.902237 C 89.040062 39.180737 88.840515 39.398693 88.695389 39.398693 C 88.634918 39.398693 88.586548 39.441074 88.586548 39.48951 C 88.586548 39.568214 88.761902 39.580322 89.826149 39.580322 C 90.890396 39.580322 91.065758 39.568214 91.065758 39.48951 C 91.065758 39.441074 91.02948 39.398693 90.987152 39.398693 C 90.878311 39.398693 90.600151 39.102028 90.527588 38.896183 C 90.47921 38.781151 90.461075 37.08593 90.461075 33.641006 L 90.461075 28.561403 L 91.579742 28.561403 C 92.383972 28.561403 92.758881 28.585621 92.897957 28.64011 C 93.200302 28.773304 93.51474 29.16684 93.605446 29.524046 C 93.647774 29.711731 93.708237 29.832817 93.762657 29.832817 C 93.829178 29.832817 93.847313 29.651188 93.847313 28.86412 L 93.847313 27.895426 L 89.88662 27.895426 L 85.925926 27.895426 L 85.925926 28.86412 Z"/>
        <path id="path19" fill="#000000" stroke="none" d="M 109.931976 27.980186 C 109.931976 28.034676 109.980347 28.077057 110.046867 28.077057 C 110.198036 28.077057 110.458054 28.385826 110.536652 28.670382 C 110.621315 28.979155 110.621315 38.496593 110.536652 38.805367 C 110.458054 39.08992 110.198036 39.398693 110.046867 39.398693 C 109.986389 39.398693 109.931976 39.441074 109.931976 39.48951 C 109.931976 39.568214 110.10733 39.580322 111.171577 39.580322 C 112.139084 39.580322 112.411194 39.56216 112.411194 39.501617 C 112.411194 39.459236 112.332581 39.398693 112.241875 39.362366 C 112.126976 39.313931 112.018143 39.198898 111.921394 38.999107 L 111.776268 38.702442 L 111.776268 36.159615 L 111.776268 33.616787 L 111.927437 33.628895 C 112.012093 33.634949 112.199547 33.653114 112.350716 33.67733 L 112.622826 33.713657 L 114.22525 36.147507 C 115.108086 37.485519 115.954651 38.720604 116.111862 38.890129 C 116.269089 39.05965 116.541199 39.277607 116.71656 39.36842 C 117.000755 39.525833 117.109596 39.543999 117.714287 39.568214 C 118.300835 39.59243 118.397583 39.580322 118.397583 39.501617 C 118.397583 39.447128 118.32502 39.392639 118.216179 39.36842 C 117.811035 39.277607 117.430077 38.805367 115.743004 36.280701 C 114.848068 34.936634 114.080116 33.780254 114.049889 33.713657 C 113.98941 33.610733 114.025696 33.586517 114.418747 33.465427 C 115.676498 33.084003 116.450493 32.309048 116.65004 31.237427 C 116.746788 30.753078 116.686317 29.996284 116.517006 29.560371 C 116.256989 28.870174 115.501137 28.295012 114.521538 28.04073 C 114.2071 27.955967 113.735451 27.931751 112.036278 27.913588 C 110.143616 27.889372 109.931976 27.895426 109.931976 27.980186 Z M 113.826157 28.682491 C 114.860168 28.942827 115.374153 29.493774 115.470901 30.444307 C 115.597885 31.691502 114.872261 32.690472 113.638702 32.950809 C 113.203323 33.047676 112.580498 33.065842 112.066513 33.005299 L 111.746033 32.962917 L 111.746033 30.722807 L 111.746033 28.482697 L 112.55027 28.519024 C 113.034012 28.54324 113.541954 28.60984 113.826157 28.682491 Z"/>
    </g>
</svg>
