<?xml version="1.0" encoding="UTF-8"?>
<!-- Generated by Pixelmator Pro 3.2.3 -->
<svg width="150" height="25" viewBox="0 0 150 25" xmlns="http://www.w3.org/2000/svg" xmlns:xlink="http://www.w3.org/1999/xlink">
    <g id="biomatter1">
        <path id="Path" fill="#6d5af9" stroke="none" d="M 13.028465 7.828358 C 14.19543 8.668242 15.131718 9.791473 15.749999 11.093284 C 16.433113 12.494411 16.780251 14.036831 16.763613 15.597014 C 16.779425 17.15711 16.432329 18.699343 15.749999 20.100746 C 15.131605 21.401463 14.195278 22.523457 13.028465 23.36194 C 11.940187 24.151016 10.631555 24.57416 9.289604 24.570894 L 9.256188 24.570894 C 8.15703 24.584417 7.071184 24.328255 6.092822 23.824627 C 5.12739 23.320221 4.280476 22.614128 3.608911 21.753733 L 3.608911 24.365673 L 0.055693 24.365673 L 0.055693 -0.10821 L 3.608911 -0.10821 L 3.608911 9.477612 C 4.273006 8.6003 5.121018 7.880554 6.092822 7.369404 C 7.071184 6.865774 8.15703 6.609612 9.256188 6.623135 L 9.289604 6.623135 C 10.631182 6.618528 11.939854 7.04038 13.028465 7.828358 Z M 11.858911 19.47015 C 12.789222 18.401031 13.280313 17.016464 13.232673 15.597014 C 13.246975 14.635771 13.031807 13.685084 12.605198 12.824627 C 12.213238 12.025353 11.611026 11.349173 10.863861 10.869404 C 10.104929 10.390386 9.22406 10.142826 8.327971 10.156717 L 8.294555 10.156717 C 6.977651 10.107748 5.713776 10.680702 4.878713 11.705223 C 4.003299 12.806693 3.552459 14.188466 3.608911 15.597014 C 3.558221 17.014265 4.019839 18.402031 4.908416 19.503731 C 5.73465 20.534687 6.992698 21.11853 8.309406 21.08209 L 8.342822 21.08209 C 9.693596 21.090092 10.979497 20.500572 11.858911 19.47015 Z"/>
        <path id="path1" fill="#6d5af9" stroke="none" d="M 9.289604 24.626865 L 9.256188 24.626865 C 8.14875 24.640148 7.054538 24.384117 6.066832 23.880596 C 5.14315 23.394997 4.326182 22.72751 3.664604 21.91791 L 3.664604 24.440298 L -0 24.440298 L -0 -0.164181 L 3.664604 -0.164181 L 3.664604 9.313433 C 4.318888 8.487749 5.136969 7.80792 6.066832 7.317163 C 7.054538 6.813643 8.14875 6.557611 9.256188 6.570896 L 9.289604 6.570896 C 10.641571 6.569614 11.959792 6.99511 13.058167 7.787315 L 13.058167 7.787315 C 14.233391 8.632095 15.177197 9.76157 15.801979 11.070895 C 17.163324 13.934537 17.163324 17.263224 15.801979 20.126865 C 15.178267 21.437904 14.234314 22.568836 13.058167 23.414179 C 11.959689 24.20574 10.64128 24.629992 9.289604 24.626865 Z M 3.549505 21.585821 L 3.649753 21.712688 C 4.318106 22.567465 5.159753 23.269571 6.118812 23.772388 C 7.089218 24.272316 8.165751 24.528383 9.256188 24.518656 L 9.289604 24.518656 C 10.621355 24.5228 11.920526 24.104998 13.002476 23.324627 C 14.160514 22.489477 15.090191 21.374218 15.705445 20.082088 C 16.384752 18.689062 16.730589 17.15572 16.715347 15.604478 C 16.730042 14.053293 16.384233 12.520079 15.705445 11.126865 C 15.089243 9.83535 14.159748 8.720308 13.002476 7.884327 L 13.002476 7.884327 C 11.919727 7.105556 10.621081 6.687923 9.289604 6.690298 L 9.256188 6.690298 C 8.165768 6.680721 7.08927 6.936781 6.118812 7.436567 C 5.15514 7.939016 4.313418 8.648611 3.653466 9.514925 L 3.549505 9.645522 L 3.549505 -0.055971 L 0.111386 -0.055971 L 0.111386 24.309702 L 3.549505 24.309702 Z M 8.309406 21.126867 C 6.979349 21.164011 5.707603 20.578054 4.867574 19.541044 C 3.969788 18.428871 3.501739 17.028337 3.549505 15.597014 C 3.500443 14.17317 3.961572 12.778929 4.84901 11.667911 C 5.697841 10.633974 6.976401 10.054933 8.309406 10.100746 L 8.342822 10.100746 C 9.249171 10.087577 10.140035 10.337638 10.908416 10.820895 C 11.663766 11.307285 12.273366 11.990854 12.67203 12.798507 C 13.099888 13.667979 13.316216 14.627118 13.303217 15.597014 C 13.343886 17.031231 12.843928 18.427948 11.903464 19.507462 L 11.858911 19.47015 L 11.903464 19.507462 C 11.007938 20.542694 9.707751 21.134026 8.342822 21.126867 Z M 8.309406 10.212687 C 7.007584 10.173098 5.761053 10.742271 4.934406 11.753732 C 4.068824 12.84176 3.618494 14.204764 3.664604 15.597014 C 3.618886 17.001425 4.076033 18.375713 4.952971 19.47015 C 5.771294 20.473526 7.003999 21.042015 8.294555 21.011192 L 8.327971 21.011192 C 9.659785 21.018604 10.928679 20.442308 11.803218 19.432837 C 12.724677 18.373251 13.215162 17.003716 13.176979 15.597014 C 13.187897 14.645345 12.97547 13.704487 12.556931 12.850746 C 12.16674 12.062043 11.571442 11.394156 10.834159 10.91791 C 10.083725 10.445299 9.213496 10.200422 8.327971 10.212687 Z"/>
        <path id="path2" fill="#6d5af9" stroke="none" d="M 23.587872 24.365673 L 20.034653 24.365673 L 20.034653 6.828358 L 23.587872 6.828358 Z"/>
        <path id="path3" fill="#6d5af9" stroke="none" d="M 23.628712 24.440298 L 19.97896 24.440298 L 19.97896 6.768656 L 23.628712 6.768656 Z M 20.079208 24.328358 L 23.517324 24.328358 L 23.517324 6.880598 L 20.094061 6.880598 Z"/>
        <path id="path4" fill="#6d5af9" stroke="none" d="M 31.054455 23.36194 C 29.765213 22.566414 28.709402 21.440968 27.99505 20.100746 C 26.505268 17.284903 26.505268 13.909128 27.99505 11.093284 C 28.708872 9.751693 29.764727 8.62491 31.054455 7.828358 C 32.349953 7.024042 33.84613 6.606081 35.368813 6.623135 L 35.402225 6.623135 C 36.912827 6.609262 38.396229 7.02725 39.679455 7.828358 C 40.969868 8.625235 42.026855 9.751857 42.742577 11.093284 C 44.227779 13.910273 44.227779 17.283756 42.742577 20.100746 C 42.027195 21.441437 40.970062 22.566929 39.679455 23.36194 C 38.396618 24.16436 36.913193 24.583649 35.402225 24.570894 L 35.368813 24.570894 C 33.845795 24.586624 32.349644 24.167377 31.054455 23.36194 Z M 35.402225 21.033583 C 36.291817 21.041483 37.163383 20.781569 37.904701 20.287313 C 38.652515 19.796375 39.259293 19.117107 39.664604 18.317165 C 40.521309 16.605923 40.521309 14.588107 39.664604 12.876865 C 39.254681 12.075087 38.649181 11.390836 37.904701 10.88806 C 37.164268 10.391907 36.292103 10.131816 35.402225 10.141791 L 35.368813 10.141791 C 34.462868 10.132965 33.574406 10.392522 32.814354 10.88806 C 32.050549 11.376497 31.431223 12.062047 31.02104 12.873135 C 30.164326 14.596194 30.164326 16.623955 31.02104 18.347015 C 31.42617 19.151756 32.03915 19.832226 32.795792 20.317165 C 33.555843 20.8127 34.444302 21.07226 35.350246 21.063431 Z"/>
        <path id="path5" fill="#6d5af9" stroke="none" d="M 35.383663 24.626865 L 35.350246 24.626865 C 33.817337 24.639082 32.311943 24.217543 31.006189 23.410446 C 29.709673 22.607109 28.646746 21.474543 27.924505 20.126865 C 26.429411 17.292538 26.429411 13.89776 27.924505 11.063434 C 28.646601 9.715652 29.709562 8.583052 31.006189 7.77985 C 32.311943 6.972755 33.817337 6.551216 35.350246 6.563433 L 35.383663 6.563433 C 36.904621 6.553394 38.397507 6.975035 39.690594 7.77985 C 40.987217 8.583052 42.050179 9.715652 42.772278 11.063434 C 44.271957 13.896613 44.271957 17.293686 42.772278 20.126865 C 42.050179 21.474648 40.987217 22.607248 39.690594 23.410446 C 38.397507 24.215265 36.904621 24.636904 35.383663 24.626865 Z M 35.350246 6.679106 C 33.834641 6.66375 32.345543 7.078943 31.054455 7.876865 C 29.77446 8.669817 28.725492 9.788361 28.013613 11.119403 C 26.532413 13.9189 26.532413 17.275127 28.013613 20.074627 C 28.724964 21.407036 29.773977 22.526917 31.054455 23.320896 L 31.054455 23.320896 C 32.341923 24.117723 33.827145 24.532913 35.339108 24.518656 L 35.372524 24.518656 C 36.876125 24.531435 38.352608 24.116169 39.631187 23.320896 C 40.912422 22.529474 41.961739 21.410553 42.672031 20.078358 C 44.153225 17.278858 44.153225 13.922633 42.672031 11.123135 C 41.960152 9.792091 40.911182 8.673548 39.631187 7.880598 C 38.35582 7.087357 36.883488 6.672173 35.383663 6.682837 Z M 35.383663 21.08209 L 35.350246 21.08209 C 34.429775 21.095312 33.525818 20.835754 32.751236 20.335821 C 31.987064 19.843475 31.366873 19.155809 30.954208 18.343285 C 30.087761 16.604149 30.087761 14.5563 30.954208 12.817163 C 31.367905 12.005353 31.987873 11.317933 32.751236 10.824626 C 33.526638 10.32651 34.430038 10.067111 35.350246 10.078358 L 35.383663 10.078358 C 36.284286 10.066018 37.167809 10.326022 37.919552 10.824626 C 38.676167 11.343193 39.287334 12.04863 39.694305 12.873135 C 40.124439 13.715536 40.344849 14.650214 40.336632 15.597014 C 40.345905 16.55673 40.122921 17.504328 39.686882 18.35821 C 39.277538 19.16086 38.667137 19.842459 37.915844 20.335821 C 37.164089 20.831413 36.282684 21.091177 35.383663 21.08209 Z M 35.350246 10.205223 C 34.456387 10.193613 33.578701 10.445257 32.825493 10.929105 C 32.074505 11.408355 31.463392 12.079159 31.054455 12.873135 C 30.208048 14.580256 30.208048 16.587654 31.054455 18.294775 C 31.459667 19.088631 32.065273 19.761583 32.810646 20.246267 C 33.564968 20.727205 34.442142 20.977407 35.335396 20.966419 L 35.368813 20.966419 C 36.245625 20.976141 37.105801 20.725628 37.841583 20.246267 C 38.583683 19.763641 39.187714 19.094872 39.594059 18.305971 C 40.022526 17.468449 40.241707 16.538704 40.232674 15.597014 C 40.239563 14.6651 40.020367 13.745536 39.594059 12.91791 C 39.191193 12.124244 38.593029 11.44732 37.856434 10.951492 C 37.125282 10.459186 36.263733 10.199175 35.383663 10.205223 Z"/>
        <path id="path6" fill="#6d5af9" stroke="none" d="M 70.16584 6.824627 L 70.16584 24.36194 L 66.646042 24.36194 L 66.646042 11.858209 C 66.623764 11.858209 64.71906 15.029851 60.931931 21.373135 C 59.780942 23.276119 59.18317 24.271144 59.138615 24.358208 L 55.618813 24.358208 L 55.618813 11.820895 C 54.898514 12.977612 53.726484 14.921642 52.102722 17.652985 C 50.478961 20.384328 49.148515 22.623134 48.111385 24.369402 L 43.678219 24.369402 L 54.631187 6.832088 L 59.120049 6.832088 L 59.153461 17.936567 L 65.699257 6.828358 Z"/>
        <path id="path7" fill="#6d5af9" stroke="none" d="M 48.133663 24.440298 L 43.563118 24.440298 L 54.586636 6.787313 L 59.160889 6.787313 L 59.160889 6.843283 L 59.194305 17.738806 L 65.66584 6.791044 L 70.221535 6.791044 L 70.221535 24.440298 L 66.590347 24.440298 L 66.590347 12.048508 C 66.152229 12.757463 64.26609 15.895522 60.980202 21.402985 C 59.836636 23.298508 59.235146 24.302238 59.190594 24.38806 L 59.172028 24.417912 L 55.559406 24.417912 L 55.559406 12.018657 C 54.842823 13.175374 53.721535 15.033583 52.147278 17.682835 Z M 43.756191 24.328358 L 48.066833 24.328358 L 52.043316 17.64179 C 53.702969 14.839553 54.857674 12.932836 55.559406 11.791044 L 55.663364 11.623135 L 55.663364 24.309702 L 59.090343 24.309702 C 59.201733 24.10821 59.799503 23.11194 60.868813 21.324627 C 66.568069 11.779851 66.582924 11.779851 66.631187 11.779851 L 66.698021 11.779851 L 66.698021 24.309702 L 70.102722 24.309702 L 70.102722 6.880598 L 65.721535 6.880598 L 59.082924 18.134327 L 59.049503 6.880598 L 54.649754 6.880598 Z"/>
        <path id="path8" fill="#6d5af9" stroke="none" d="M 90.144798 6.824627 L 90.144798 24.36194 L 86.595299 24.36194 L 86.595299 21.645523 C 85.944511 22.550255 85.092751 23.289993 84.107674 23.805971 C 83.095573 24.315493 81.975891 24.571522 80.844063 24.55224 L 80.806931 24.55224 C 79.475784 24.556206 78.177025 24.139839 77.094063 23.36194 C 75.937088 22.532042 75.01564 21.413086 74.420792 20.115671 C 73.757248 18.69705 73.422127 17.145786 73.440598 15.578359 C 73.423698 14.021883 73.758865 12.481889 74.420792 11.074627 C 75.016716 9.77279 75.937645 8.648039 77.094063 7.809702 C 78.172432 7.020937 79.47319 6.598703 80.806931 6.604479 L 80.840347 6.604479 C 81.981438 6.590443 83.108505 6.858234 84.12252 7.384329 C 85.119431 7.910429 85.977272 8.667654 86.625 9.593284 L 86.625 6.824627 Z M 85.121284 19.675373 C 86.00705 18.716791 86.53228 17.477676 86.60643 16.171642 L 86.60643 15.085821 C 86.534439 13.764908 86.009674 12.509768 85.121284 11.533582 C 84.310532 10.616383 83.141357 10.101134 81.920792 10.123135 L 81.887375 10.123135 C 80.522385 10.068763 79.205879 10.636374 78.304451 11.667911 C 77.380157 12.761472 76.89669 14.163159 76.949257 15.597014 C 76.895882 17.032463 77.385384 18.434971 78.319305 19.522388 C 79.217331 20.553715 80.52813 21.126106 81.89109 21.08209 L 81.920792 21.08209 C 83.140175 21.102034 84.30806 20.588715 85.121284 19.675373 Z"/>
        <path id="path9" fill="#6d5af9" stroke="none" d="M 125.179466 20.082088 C 126.30809 20.906742 127.679886 21.325977 129.074265 21.272388 C 130.219376 21.27853 131.354599 21.059227 132.415848 20.626865 C 133.384201 20.242821 134.290192 19.715889 135.103958 19.063433 L 135.103958 22.630598 C 134.304642 23.239893 133.406525 23.705709 132.449265 24.007462 C 131.275757 24.396265 130.046188 24.586664 128.810654 24.570894 C 127.159164 24.592358 125.531311 24.175325 124.091583 23.36194 C 122.717262 22.592129 121.57357 21.465931 120.779709 20.100746 C 119.980026 18.736792 119.564224 17.180075 119.576744 15.597014 C 119.566345 14.025654 119.949379 12.476904 120.690605 11.093284 C 121.393883 9.753758 122.439667 8.626783 123.720299 7.828358 C 125.008446 7.022875 126.499062 6.604671 128.016098 6.623135 C 129.485519 6.603981 130.927567 7.023422 132.159653 7.828358 C 133.39653 8.641998 134.399033 9.767874 135.066849 11.093284 C 135.782104 12.484758 136.147934 14.030912 136.132431 15.597014 C 136.132431 15.91418 136.110153 16.365673 136.065598 16.955223 L 123.215355 16.955223 C 123.46022 18.206762 124.160507 19.321629 125.179466 20.082088 Z M 132.605209 14.235075 C 132.460693 13.044111 131.931107 11.933769 131.097778 11.074627 C 130.264175 10.270636 129.140869 9.842248 127.986397 9.88806 C 126.796944 9.843239 125.639107 10.27858 124.771049 11.097015 C 123.914993 11.942396 123.357018 13.04556 123.181938 14.238806 Z"/>
        <path id="path10" fill="#6d5af9" stroke="none" d="M 150.11882 10.735075 L 143.082932 14.839553 L 143.082932 24.365673 L 139.533432 24.365673 L 139.533432 6.828358 L 143.082932 6.828358 L 143.082932 10.869404 L 150.11882 6.623135 Z"/>
        <path id="path11" fill="#6d5af9" stroke="none" d="M 20.034653 -0.10821 L 23.587872 -0.10821 L 23.587872 3.462687 L 20.034653 3.462687 Z"/>
        <path id="path12" fill="#6d5af9" stroke="none" d="M 23.628712 3.518658 L 19.97896 3.518658 L 19.97896 -0.164181 L 23.628712 -0.164181 Z M 20.075495 3.406715 L 23.517324 3.406715 L 23.517324 -0.052238 L 20.090347 -0.052238 Z"/>
        <path id="path13" fill="#6d5af9" stroke="none" d="M 104.313126 21.08209 L 104.313126 24.347015 L 100.061882 24.347015 C 99.135475 24.368568 98.231995 24.056202 97.514854 23.466417 C 96.400993 22.496269 96.256187 20.985073 96.256187 19.944031 L 96.256187 9.917912 L 93.430695 9.917912 L 93.430695 6.824627 L 96.274757 6.824627 L 96.274757 1.86194 L 99.790848 1.86194 L 99.790848 6.824627 L 104.290848 6.824627 L 104.290848 9.917912 L 99.779709 9.917912 L 99.779709 19.526119 C 99.779709 19.578358 99.779709 19.626865 99.779709 19.626865 C 99.782745 19.822081 99.801376 20.016735 99.835403 20.208956 C 99.897789 20.425879 100.027969 20.616879 100.206688 20.753733 C 100.557693 21.009481 100.989014 21.128782 101.420792 21.08955 C 102.397278 21.08209 103.336639 21.08209 104.313126 21.08209 Z"/>
        <path id="path14" fill="#6d5af9" stroke="none" d="M 117.059418 21.08209 L 117.059418 24.347015 L 112.808174 24.347015 C 111.888016 24.375193 110.987869 24.073652 110.26857 23.496269 C 109.154709 22.526121 109.009903 21.014925 109.009903 19.973881 L 109.009903 9.917912 L 106.169556 9.917912 L 106.169556 6.824627 L 109.024757 6.824627 L 109.024757 1.86194 L 112.540848 1.86194 L 112.540848 6.824627 L 117.040848 6.824627 L 117.040848 9.917912 L 112.525993 9.917912 L 112.525993 19.526119 C 112.525993 19.578358 112.525993 19.626865 112.525993 19.626865 C 112.529037 19.822081 112.547661 20.016735 112.58168 20.208956 C 112.6455 20.425207 112.775398 20.615799 112.952972 20.753733 C 113.304123 21.009174 113.735329 21.128441 114.167084 21.08955 C 115.147278 21.08209 116.079216 21.08209 117.059418 21.08209 Z"/>
    </g>
</svg>
