<svg width="142" height="24" viewBox="0 0 142 24" fill="none" xmlns="http://www.w3.org/2000/svg">
<path fill-rule="evenodd" clip-rule="evenodd" d="M11.5862 0.827576C6.90364 0.827576 2.87038 3.60556 1.04333 7.60319L6.13316 9.94891C7.07454 7.8746 9.16391 6.42758 11.5862 6.42758V0.827576Z" fill="#FA8887"/>
<path fill-rule="evenodd" clip-rule="evenodd" d="M17.1456 10.1983L22.3517 8.12374C20.6466 3.84872 16.4694 0.827515 11.5862 0.827515V6.42751C14.1044 6.42751 16.263 7.99146 17.1456 10.1983Z" fill="#FFD770"/>
<path d="M39.4914 8.75159C37.3715 8.75159 35.5945 10.2177 35.5945 12.8805C35.5945 15.5434 37.4027 17.0394 39.5226 17.0394C41.6425 17.0394 42.7024 15.693 43.0453 14.5561L46.6928 15.7229C46.007 18.1764 43.6065 20.6897 39.5226 20.6897C35.0022 20.6897 31.4482 17.3985 31.4482 12.8805C31.4482 8.33271 34.9398 5.07143 39.3979 5.07143C43.5753 5.07143 45.9446 7.55479 46.5993 10.0381L42.8895 11.2349C42.5154 10.0082 41.549 8.75159 39.4914 8.75159Z" fill="#033047"/>
<path fill-rule="evenodd" clip-rule="evenodd" d="M49.7896 16.2316C49.7896 13.5986 51.8159 12.1325 54.3723 11.7735L58.1445 11.2349C59.0174 11.1153 59.2979 10.6964 59.2979 10.1877C59.2979 9.14055 58.4562 8.27287 56.7104 8.27287C54.9023 8.27287 53.9046 9.37991 53.78 10.6665L50.1013 9.91846C50.3507 7.61463 52.5641 5.07143 56.6792 5.07143C61.5425 5.07143 63.3507 7.70439 63.3507 10.6665V17.9071C63.3507 18.685 63.4442 19.7322 63.5377 20.2409H59.7344C59.6409 19.8519 59.5785 19.0441 59.5785 18.4756C58.7991 19.6425 57.3339 20.6597 55.0581 20.6597C51.7847 20.6597 49.7896 18.5354 49.7896 16.2316ZM55.931 17.6977C57.6768 17.6977 59.2979 16.8898 59.2979 14.2868V13.6285L55.8375 14.1372C54.7776 14.2868 53.9358 14.8553 53.9358 15.9922C53.9358 16.8599 54.5905 17.6977 55.931 17.6977Z" fill="#033047"/>
<path d="M75.3946 8.75159C73.2747 8.75159 71.4978 10.2177 71.4978 12.8805C71.4978 15.5434 73.3059 17.0394 75.4258 17.0394C77.5457 17.0394 78.6057 15.693 78.9486 14.5561L82.5961 15.7229C81.9102 18.1764 79.5097 20.6897 75.4258 20.6897C70.9054 20.6897 67.3515 17.3985 67.3515 12.8805C67.3515 8.33271 70.8431 5.07143 75.3011 5.07143C79.4786 5.07143 81.8479 7.55479 82.5025 10.0381L78.7927 11.2349C78.4186 10.0082 77.4522 8.75159 75.3946 8.75159Z" fill="#033047"/>
<path d="M90.8367 11.594V20.2409H86.6904V1.1968L90.8367 0.0747986V6.74696C91.8343 5.60999 93.5177 5.13127 94.9829 5.13127C98.8798 5.13127 100.688 7.73431 100.688 10.9657V20.2409H96.5417V11.6538C96.5417 10.0082 95.7 8.72167 93.7048 8.72167C91.959 8.72167 90.9302 9.97831 90.8367 11.594Z" fill="#033047"/>
<path fill-rule="evenodd" clip-rule="evenodd" d="M116.224 15.0348L119.684 16.0221C118.905 18.5653 116.473 20.6897 112.701 20.6897C108.492 20.6897 104.782 17.7874 104.782 12.8207C104.782 8.12327 108.399 5.07143 112.327 5.07143C117.065 5.07143 119.902 7.97367 119.902 12.701C119.902 13.1302 119.867 13.5765 119.849 13.7952C119.844 13.8661 119.84 13.9131 119.84 13.9277H108.866C108.96 15.8725 110.674 17.2788 112.732 17.2788C114.665 17.2788 115.725 16.3513 116.224 15.0348ZM115.818 11.205C115.756 9.73895 114.758 8.30279 112.389 8.30279C110.238 8.30279 109.053 9.85863 108.96 11.205H115.818Z" fill="#033047"/>
<path d="M129.327 0V5.52023H132.414V9.05079H129.327V15.2143C129.327 16.5009 129.951 16.9197 131.136 16.9197C131.634 16.9197 132.196 16.8599 132.414 16.8001V20.0913C132.04 20.2409 131.291 20.4503 130.076 20.4503C127.083 20.4503 125.212 18.7449 125.212 15.9025V9.05079H122.438V5.52023H123.217C124.838 5.52023 125.586 4.50295 125.586 3.18648V1.122L129.327 0Z" fill="#033047"/>
<path d="M7.13657 16.4106L1.75806 18.5495C1.9334 18.83 2.12051 19.1022 2.31854 19.3657L7.91796 17.139C7.63632 16.9196 7.37486 16.6758 7.13657 16.4106Z" fill="#033047"/>
<path d="M23.0981 11.1019L17.5028 13.3271C17.5486 13.0293 17.5724 12.7243 17.5724 12.4138C17.5724 12.3628 17.5699 12.3125 17.5688 12.2618L22.9451 10.1237C23.0097 10.4451 23.0608 10.7714 23.0981 11.1019Z" fill="#033047"/>
<path d="M11.5862 18.4C11.1681 18.4 10.7602 18.3559 10.3662 18.274L3.71851 20.9178C3.98653 21.1659 4.26701 21.4008 4.55783 21.6231L13.2794 18.1545C12.7421 18.3134 12.1742 18.4 11.5862 18.4Z" fill="#033047"/>
<path d="M23.022 14.2801L14.2836 17.7553C15.1683 17.3067 15.927 16.6451 16.4921 15.8378L23.1458 13.1917C23.1213 13.5595 23.0799 13.9225 23.022 14.2801Z" fill="#033047"/>
<path d="M22.427 16.509L6.51929 22.8353C6.93282 23.0368 7.36054 23.2134 7.79985 23.3653L21.8599 17.7738C22.0731 17.3658 22.2627 16.9437 22.427 16.509Z" fill="#033047"/>
<path d="M15.0763 23.4646C13.9748 23.8122 12.8026 24 11.5862 24C11.4364 24 11.2872 23.997 11.1388 23.9913L19.8606 20.5227C18.9319 21.4704 17.8421 22.2594 16.635 22.8448L15.0763 23.4646Z" fill="#033047"/>
<path d="M139.055 20.4268C140.314 20.4268 141.335 19.3925 141.335 18.1165C141.335 16.8406 140.314 15.8063 139.055 15.8063C137.796 15.8063 136.776 16.8406 136.776 18.1165C136.776 19.3925 137.796 20.4268 139.055 20.4268Z" fill="#033047"/>
<path d="M6.13316 9.94894C5.79175 10.7013 5.6 11.5353 5.6 12.4138C5.6 13.1963 5.75246 13.9435 6.02676 14.6292L0.820686 16.7039C0.291489 15.3769 0 13.9295 0 12.4138C0 10.6975 0.373657 9.06848 1.04333 7.60321L6.13316 9.94894Z" fill="#033047"/>
</svg>
