<svg width="146" height="32" viewBox="0 0 146 32" fill="none" xmlns="http://www.w3.org/2000/svg">
<path d="M0 0V12.8L6.43654 19.2797V32L19.2863 19.2797V10.9714H23.7714L19.2 6.4L12.8 12.8L0 0Z" fill="black"/>
<path d="M38.08 24.2732C40.8122 24.2732 42.6154 22.0598 42.6154 19.2654C42.6154 16.471 40.8122 14.2576 38.08 14.2576C35.3752 14.2576 33.5446 16.471 33.5446 19.2654C33.5446 22.0598 35.3752 24.2732 38.08 24.2732ZM37.8888 26.5143C33.7086 26.5143 31.0857 23.3049 31.0857 19.2654C31.0857 15.2259 33.8452 12.0165 37.8888 12.0165C40.2384 12.0165 41.7411 13.2615 42.4241 14.1192V6.4H44.8557V26.1823H42.8066L42.4788 24.2179C41.7138 25.2969 40.0198 26.5143 37.8888 26.5143ZM55.8663 24.2732C58.5711 24.2732 60.4017 22.0598 60.4017 19.2654C60.4017 16.471 58.5711 14.2576 55.8663 14.2576C53.1341 14.2576 51.3309 16.471 51.3309 19.2654C51.3309 22.0598 53.1341 24.2732 55.8663 24.2732ZM55.6204 26.5143C51.4675 26.5143 48.8447 23.3049 48.8447 19.2654C48.8447 15.2259 51.6315 12.0165 55.6204 12.0165C57.97 12.0165 59.5274 13.1785 60.2104 14.0916L60.5656 12.3485H62.642V26.1823H60.5656L60.2104 24.3286C59.4454 25.4629 57.6695 26.5143 55.6204 26.5143ZM70.9751 26.5143C68.4068 26.5143 66.7949 25.0202 66.0299 22.8345L68.079 21.9768C68.5161 23.4432 69.527 24.3286 71.1117 24.3286C72.5051 24.3286 73.434 23.4155 73.434 22.2812C73.434 21.1191 72.751 20.5104 71.1663 19.8741L69.4177 19.1547C67.997 18.6014 67.0135 17.301 67.0135 15.6133C67.0135 13.6212 68.7074 12.0165 70.9204 12.0165C72.8329 12.0165 74.117 12.9849 74.882 14.5896L72.9422 15.724C72.5324 14.7279 71.822 14.2022 70.9204 14.2022C70.0461 14.2022 69.3358 14.8663 69.3358 15.6963C69.3358 16.6923 70.1281 17.1073 70.9204 17.4393L72.9149 18.2417C74.5542 18.9334 75.7563 20.2338 75.7563 22.2535C75.7563 24.6606 73.8985 26.5143 70.9751 26.5143ZM79.4447 26.1823V6.4H81.8763V14.0639C82.6687 12.8465 84.226 12.0165 86.0292 12.0165C89.5537 12.0165 91.2203 14.3129 91.2203 17.8544V26.1823H88.7613V18.0757C88.7613 15.6133 87.3953 14.2576 85.5101 14.2576C83.6522 14.2576 81.8763 15.89 81.8763 19.6251V26.1823H79.4447ZM103.05 26.5143C100.701 26.5143 99.0889 25.2139 98.4331 24.3009L98.1326 26.1823H96.0835V6.4H98.5151V14.2576C99.3894 13.1509 101.083 12.0165 103.105 12.0165C107.367 12.0165 109.854 15.2259 109.854 19.2654C109.854 23.3049 107.039 26.5143 103.05 26.5143ZM102.832 24.2732C105.509 24.2732 107.395 22.0598 107.395 19.2654C107.395 16.471 105.646 14.2576 102.914 14.2576C100.209 14.2576 98.2965 16.471 98.2965 19.2654C98.2965 22.0598 100.127 24.2732 102.832 24.2732ZM113.651 9.52643V6.81501H116.383V9.52643H113.651ZM113.815 26.1823V12.3485H116.247V26.1823H113.815ZM121.329 26.1823V12.3485H123.378L123.733 14.2022C124.471 12.8465 125.673 12.0165 127.449 12.0165C128.296 12.0165 129.17 12.2932 129.662 12.5699L128.869 15.0046C128.323 14.7003 127.585 14.5343 126.929 14.5343C125.154 14.5343 123.76 15.973 123.76 18.9611V26.1823H121.329ZM138.596 24.2732C141.328 24.2732 143.131 22.0598 143.131 19.2654C143.131 16.471 141.328 14.2576 138.596 14.2576C135.891 14.2576 134.06 16.471 134.06 19.2654C134.06 22.0598 135.891 24.2732 138.596 24.2732ZM138.404 26.5143C134.224 26.5143 131.601 23.3049 131.601 19.2654C131.601 15.2259 134.361 12.0165 138.404 12.0165C140.754 12.0165 142.257 13.2615 142.94 14.1192V6.4H145.371V26.1823H143.322L142.994 24.2179C142.229 25.2969 140.536 26.5143 138.404 26.5143Z" fill="black"/>
</svg>
