<?xml version="1.0" encoding="UTF-8"?>
<!-- Generated by Pixelmator Pro 2.4.5 -->
<svg width="150" height="36" viewBox="0 0 150 36" xmlns="http://www.w3.org/2000/svg" xmlns:xlink="http://www.w3.org/1999/xlink">
    <g id="Group">
        <path id="Path" fill="#000000" stroke="none" d="M 58.430584 27.468908 C 58.430584 28.890757 58.430584 30.312603 58.430584 31.704203 C 58.430584 33.095802 58.430584 34.487396 58.430584 35.939495 C 57.283703 35.939495 56.197182 35.939495 55.050301 35.939495 C 55.050301 28.799999 55.050301 21.630253 55.050301 14.430252 C 55.985916 14.430252 56.89135 14.430252 57.887325 14.430252 C 58.068409 15.216808 58.219315 16.033613 58.430584 17.031933 C 59.09457 15.640335 60.030178 14.79328 61.327969 14.400002 C 64.406433 13.462185 68.05835 14.490759 69.567406 18.121012 C 70.744469 20.934452 70.714279 23.838657 69.325958 26.591599 C 67.877258 29.495798 64.436623 30.857143 61.388329 29.858822 C 60.120724 29.435295 59.15493 28.678993 58.430584 27.468908 Z M 66.851105 21.811768 C 66.790749 21.448742 66.730385 20.783192 66.549294 20.17815 C 66.036217 18.453781 64.587524 17.273951 62.957748 17.183195 C 61.086517 17.092438 59.577461 17.939497 58.883301 19.633615 C 58.219315 21.297482 58.189137 23.021851 58.913479 24.655462 C 60.030178 27.166388 63.25956 27.862186 65.311867 26.016808 C 66.458748 25.018486 66.790749 23.626892 66.851105 21.811768 Z"/>
        <path id="path1" fill="#000000" stroke="none" d="M 36.760563 23.233614 C 32.867203 23.233614 29.064386 23.233614 25.201208 23.233614 C 25.231388 24.352942 25.653923 25.200001 26.348089 25.926048 C 28.249496 27.983192 32.082497 27.529411 33.470821 25.139498 C 33.682095 24.806723 33.833 24.715965 34.195171 24.89748 C 34.919518 25.230255 35.643864 25.532776 36.398392 25.865547 C 35.885311 27.166388 35.040245 28.134453 33.923538 28.890757 C 31.026157 30.857143 26.770622 30.554623 24.205231 28.194958 C 22.907446 26.984873 22.183098 25.442019 21.971832 23.717649 C 21.670021 21.539494 21.851107 19.391598 23.02817 17.485716 C 24.537224 15.035294 26.830986 14.067226 29.668009 14.097481 C 34.014084 14.157984 36.730381 17.364708 36.820927 21.569748 C 36.760563 22.084034 36.760563 22.598318 36.760563 23.233614 Z M 33.440643 20.8437 C 33.440643 19.089077 32.112675 16.941177 29.215292 17.031933 C 26.921528 17.092438 25.201208 18.937817 25.201208 20.8437 C 27.917505 20.8437 30.633802 20.8437 33.440643 20.8437 Z"/>
        <path id="path2" fill="#000000" stroke="none" d="M 53.05835 23.233614 C 49.164989 23.233614 45.362175 23.233614 41.498993 23.233614 C 41.529179 24.352942 41.95171 25.200001 42.645878 25.926048 C 44.547287 27.983192 48.380283 27.529411 49.768608 25.139498 C 49.979881 24.806723 50.130787 24.715965 50.492958 24.89748 C 51.217304 25.230255 51.94165 25.532776 52.696178 25.865547 C 52.183098 27.166388 51.338032 28.134453 50.221325 28.890757 C 47.323944 30.857143 43.068409 30.554623 40.503017 28.194958 C 39.205231 26.984873 38.480885 25.442019 38.269619 23.717649 C 37.967808 21.539494 38.148891 19.391598 39.325958 17.485716 C 40.835011 15.035294 43.128769 14.067226 45.965797 14.097481 C 50.311871 14.157984 53.028168 17.364708 53.118713 21.569748 C 53.088528 22.084034 53.05835 22.598318 53.05835 23.233614 Z M 49.73843 20.8437 C 49.73843 19.089077 48.410461 16.941177 45.513081 17.031933 C 43.219315 17.092438 41.498993 18.937817 41.498993 20.8437 C 44.21529 20.8437 46.961773 20.8437 49.73843 20.8437 Z"/>
        <path id="path3" fill="#000000" stroke="none" d="M 131.559357 23.233614 C 127.665993 23.233614 123.863174 23.233614 120 23.233614 C 120.030182 24.352942 120.452721 25.200001 121.146881 25.926048 C 123.048294 27.983192 126.881287 27.529411 128.269623 25.139498 C 128.480896 24.806723 128.63179 24.715965 128.993958 24.89748 C 129.718307 25.230255 130.442657 25.532776 131.197189 25.865547 C 130.684097 27.166388 129.839035 28.134453 128.722336 28.890757 C 125.824951 30.857143 121.569412 30.554623 119.004021 28.194958 C 117.706238 26.984873 116.981895 25.442019 116.770622 23.717649 C 116.468811 21.539494 116.649902 19.391598 117.826958 17.485716 C 119.336014 15.035294 121.629776 14.067226 124.466797 14.097481 C 128.812866 14.157984 131.529175 17.364708 131.61972 21.569748 C 131.589539 22.084034 131.559357 22.598318 131.559357 23.233614 Z M 128.239441 20.8437 C 128.239441 19.089077 126.911469 16.941177 124.014084 17.031933 C 121.720322 17.092438 120 18.937817 120 20.8437 C 122.716301 20.8437 125.462784 20.8437 128.239441 20.8437 Z"/>
        <path id="path4" fill="#000000" stroke="none" d="M 77.595573 29.828573 C 76.388329 29.828573 75.301811 29.828573 74.15493 29.828573 C 74.15493 25.714287 74.15493 21.630253 74.15493 17.485716 C 73.008049 17.485716 72.796783 17.485716 71.680084 17.485716 C 71.680084 16.457146 71.680084 15.458826 71.680084 14.400002 C 72.766602 14.400002 72.977867 14.400002 74.215286 14.400002 C 74.215286 13.129414 74.15493 11.889076 74.215286 10.709246 C 74.336014 8.531092 75.965797 6.988237 78.169014 6.927734 C 79.496979 6.89748 80.824944 6.927734 82.183098 6.927734 C 82.183098 7.956303 82.183098 8.92437 82.183098 9.983192 C 81.307846 9.983192 80.462776 9.983192 79.587532 9.983192 C 78.078476 10.013447 77.565392 10.527733 77.565392 12.040337 C 77.565392 12.79664 77.565392 13.552942 77.565392 14.400002 C 79.10463 14.400002 80.613686 14.400002 82.183098 14.400002 C 82.183098 15.458826 82.183098 16.426891 82.183098 17.455462 C 80.674042 17.455462 79.164986 17.455462 77.595573 17.455462 C 77.595573 21.569748 77.595573 25.684036 77.595573 29.828573 Z"/>
        <path id="path5" fill="#000000" stroke="none" d="M 106.780678 14.430252 C 107.746475 14.430252 108.651909 14.430252 109.617706 14.430252 C 109.79879 15.337814 109.949692 16.215128 110.160965 17.304201 C 111.277672 14.369747 113.571426 14.309244 115.985909 14.430252 C 115.985909 15.549583 115.985909 16.668909 115.985909 17.84874 C 115.382294 17.84874 114.778671 17.878994 114.144875 17.84874 C 111.36821 17.697479 110.221329 19.875629 110.160965 21.781513 C 110.100601 24.292439 110.130783 26.803364 110.130783 29.314289 C 110.130783 29.465549 110.130783 29.61681 110.100601 29.798319 C 108.983902 29.798319 107.867203 29.798319 106.720322 29.798319 C 106.780678 24.715965 106.780678 19.603363 106.780678 14.430252 Z"/>
        <path id="path6" fill="#000000" stroke="none" d="M 9.718309 7.805042 L 0.241448 7.805042 L 0.241448 29.828573 L 9.718309 29.828573 C 15.784709 29.828573 20.704226 24.89748 20.704226 18.816805 C 20.704226 12.736135 15.784709 7.805042 9.718309 7.805042 Z M 9.205232 26.319328 L 3.953722 26.319328 L 3.953722 11.284035 L 9.175051 11.284035 C 13.309858 11.284035 16.659958 14.642019 16.659958 18.786556 C 16.690142 22.961348 13.340039 26.319328 9.205232 26.319328 Z"/>
        <path id="path7" fill="#000000" stroke="none" d="M 104.004028 22.174789 C 104.004028 21.236973 104.004028 20.329411 104.004028 19.391598 C 104.004028 17.092438 102.73642 15.277311 100.593559 14.521008 C 98.661972 13.855463 96.670013 13.825209 94.738426 14.551262 C 92.716301 15.277311 91.478874 16.789915 90.96579 18.937817 C 91.991951 19.179834 92.957748 19.421848 93.95372 19.663866 C 94.67807 17.606722 95.824951 16.820169 97.967812 16.910927 C 99.295776 16.97143 100.291748 17.788237 100.533203 18.99832 C 100.684105 19.815126 100.32193 20.480671 99.50705 20.662186 C 98.480881 20.873951 97.424545 21.025211 96.368202 21.206724 C 95.010056 21.418488 93.651909 21.569748 92.444664 22.265549 C 90.875252 23.173111 90.150909 24.534454 90.331985 26.319328 C 90.513077 27.983192 91.358154 29.163029 92.957748 29.76807 C 95.100609 30.584875 98.601616 30.433615 100.563385 28.07395 L 100.835014 29.858822 L 103.219315 29.858822 C 103.460762 29.889076 103.732399 29.919331 104.004028 29.889076 L 104.004028 29.858822 L 104.004028 25.653782 L 104.004028 22.174789 L 104.004028 22.174789 Z M 97.635818 27.468908 C 96.881287 27.620169 96.036224 27.589916 95.281693 27.408405 C 94.315895 27.19664 93.802811 26.470589 93.772636 25.653782 C 93.742455 24.836977 94.225357 24.050419 95.130791 23.747898 C 95.824951 23.505882 96.579475 23.415129 97.303818 23.263868 C 98.329979 23.082354 99.386314 22.931093 100.472832 22.779833 C 100.804832 25.200001 99.718307 27.015127 97.635818 27.468908 Z"/>
        <path id="path8" fill="#000000" stroke="none" d="M 84.778671 6.927734 L 88.098587 6.927734 L 88.098587 29.858822 L 84.778671 29.858822 Z"/>
    </g>
    <path id="path9" fill="#ee4123" stroke="none" d="M 143.028168 8.621849 L 149.939636 8.621849 C 149.909454 8.228571 149.818924 7.805042 149.728363 7.442019 L 143.028168 7.442019 C 142.183105 7.442019 141.760574 6.413445 142.364182 5.838655 L 146.227371 1.966385 C 145.895386 1.724369 145.56337 1.512604 145.201202 1.300842 L 141.549301 4.961348 C 140.945679 5.566389 139.949707 5.142857 139.949707 4.295797 L 139.949707 0.030254 C 139.557343 0.060505 139.164993 0.090755 138.772629 0.181515 L 138.772629 4.326052 C 138.772629 5.173111 137.746475 5.596638 137.173035 4.991596 L 134.426559 2.238655 C 134.124741 2.480671 133.822937 2.752941 133.551315 3.055466 L 136.327972 5.838655 C 136.931595 6.443699 136.509048 7.442019 135.663986 7.442019 L 131.227356 7.442019 C 131.136826 7.835297 131.076462 8.228571 131.016098 8.621849 L 135.663986 8.621849 C 136.509048 8.621849 136.931595 9.650423 136.327972 10.22521 L 132.253525 14.309244 C 132.464783 14.67227 132.676056 15.005043 132.917496 15.337814 L 137.173035 11.072271 C 137.776657 10.467228 138.772629 10.890757 138.772629 11.737816 L 138.772629 18.968067 C 139.164993 19.028574 139.557343 19.089077 139.949707 19.119328 L 139.949707 11.737816 C 139.949707 10.890757 140.975861 10.467228 141.549301 11.072271 L 147.01207 16.547897 C 147.313873 16.275631 147.58551 15.97311 147.826965 15.670589 L 142.394363 10.22521 C 141.790741 9.620169 142.213287 8.621849 143.028168 8.621849 Z"/>
</svg>
