<?xml version="1.0" encoding="UTF-8"?>
<svg width="138px" height="30px" viewBox="0 0 138 30" version="1.1" xmlns="http://www.w3.org/2000/svg" xmlns:xlink="http://www.w3.org/1999/xlink">
    <!-- Generator: Sketch 61 (89581) - https://sketch.com -->
    <title>Group</title>
    <desc>Created with Sketch.</desc>
    <g id="Page-1" stroke="none" stroke-width="1" fill="none" fill-rule="evenodd">
        <g id="ds_logo_horiz_2" transform="translate(-40.000000, -178.000000)" fill="#1A1919">
            <g id="Group" transform="translate(40.000000, 177.488000)">
                <polygon id="Fill-1" points="92.1443791 1.512 92 1.68507692 92 3.3426213 92.1443791 3.512 93.8586421 3.512 94 3.3426213 94 1.68507692 93.8586421 1.512"></polygon>
                <polygon id="Fill-2" points="105.142323 1.512 105 1.68507692 105 3.3426213 105.142323 3.512 106.857995 3.512 107 3.3426213 107 1.68507692 106.857995 1.512"></polygon>
                <g id="Group-35" transform="translate(0.000000, 0.512000)">
                    <path d="M84.9044548,0.179493976 L81.3264024,0.179493976 L81.1630813,0.348650602 L81.1630813,11.396241 L81.3264024,11.5594337 L84.9044548,11.5594337 C88.9750026,11.5594337 90.4382005,9.44678313 90.4382005,5.86937349 C90.4382005,2.29449398 88.9750026,0.179493976 84.9044548,0.179493976 M85.0686802,9.60853012 L83.6016841,9.60853012 L83.4423421,9.44678313 L83.4423421,2.29449398 L83.6016841,2.13419277 L85.0686802,2.13419277 C87.3461324,2.13419277 88.1571311,3.26840964 88.1571311,5.86937349 C88.1571311,8.47196386 87.3461324,9.60853012 85.0686802,9.60853012" id="Fill-3"></path>
                    <polygon id="Fill-5" points="91.9200456 3.43109639 91.7558202 3.59519277 91.7558202 11.3962771 91.9200456 11.5594699 93.8699512 11.5594699 94.0307402 11.3962771 94.0307402 3.59519277 93.8699512 3.43109639"></polygon>
                    <path d="M101.503069,3.43109639 L101.335227,3.59519277 L101.178417,4.08260241 L101.013106,4.08260241 C101.013106,4.08260241 100.361088,3.26844578 98.9013263,3.26844578 C96.9450904,3.26844578 95.3200183,4.89459036 95.3200183,7.49591566 C95.3200183,10.100494 96.9450904,11.7206747 98.9013263,11.7206747 C100.361088,11.7206747 101.013106,10.9126627 101.013106,10.9126627 L101.178417,10.9126627 C101.178417,12.3736265 100.523866,13.0238675 99.3842359,13.0238675 C98.735654,13.0238675 98.4086501,12.8612169 98.2478611,12.5379036 L98.0850826,12.3736265 L96.13373,12.3736265 L95.9718558,12.5379036 C96.13373,14.0012169 97.4343303,14.9736867 99.3842359,14.9736867 C101.664944,14.9736867 103.454422,13.6755542 103.454422,10.7485663 L103.454422,3.59519277 L103.290197,3.43109639 L101.503069,3.43109639 Z M99.3842359,9.77121687 C98.0850826,9.77121687 97.5947575,8.79766265 97.5947575,7.49591566 C97.5947575,6.19778313 98.0850826,5.2193494 99.3842359,5.2193494 C100.687007,5.2193494 101.178417,6.19778313 101.178417,7.49591566 C101.178417,8.79766265 100.687007,9.77121687 99.3842359,9.77121687 L99.3842359,9.77121687 Z" id="Fill-7"></path>
                    <polygon id="Fill-9" points="105.098105 3.43109639 104.936231 3.59519277 104.936231 11.3962771 105.098105 11.5594699 107.049458 11.5594699 107.21097 11.3962771 107.21097 3.59519277 107.049458 3.43109639"></polygon>
                    <path d="M112.235925,3.43109639 L112.07405,3.26844578 L112.07405,1.80603614 L111.911272,1.64428916 L109.959919,1.64428916 L109.795694,1.80603614 L109.795694,3.26844578 L109.635267,3.43109639 L108.495274,3.43109639 L108.332496,3.59519277 L108.332496,5.2193494 L108.495274,5.38579518 L109.635267,5.38579518 L109.795694,5.54501205 L109.795694,9.12350602 C109.795694,10.9126627 111.096294,11.5594699 112.564375,11.5594699 L114.025584,11.5594699 L114.19216,11.3962771 L114.19216,9.77121687 L114.025584,9.60856627 L112.564375,9.60856627 C112.235925,9.60856627 112.07405,9.4430241 112.07405,9.12350602 L112.07405,5.54501205 L112.235925,5.38579518 L114.025584,5.38579518 L114.19216,5.2193494 L114.19216,3.59519277 L114.025584,3.43109639 L112.235925,3.43109639 Z" id="Fill-11"></path>
                    <path d="M118.954065,3.26942169 C116.350875,3.26942169 115.542046,4.73291566 115.542046,5.70773494 L115.699942,5.86948193 L117.651294,5.86948193 L117.819137,5.70773494 C117.98083,5.21924096 118.468623,5.21924096 118.954065,5.21924096 C119.932183,5.21924096 120.122272,5.38189157 120.122272,6.1976747 L120.122272,6.36177108 L118.792191,6.36177108 C117.495569,6.36177108 115.2145,6.68381928 115.2145,9.12357831 C115.2145,10.7486386 116.350875,11.720747 118.140172,11.720747 C119.280164,11.720747 120.015923,10.9879157 120.015923,10.9879157 L120.179063,10.9879157 L120.28505,11.3963494 L120.448371,11.5593614 L122.21072,11.5593614 L122.36753,11.3963494 L122.36753,7.00713253 C122.36753,4.57116867 121.557255,3.26942169 118.954065,3.26942169 L118.954065,3.26942169 Z M120.122272,8.63454217 C120.122272,9.2836988 119.482552,9.80183133 118.59975,9.80183133 C117.798156,9.80183133 117.43516,9.45773494 117.43516,8.9900241 C117.43516,8.41514458 117.752217,7.98701205 118.954065,7.98701205 L120.122272,7.98701205 L120.122272,8.63454217 Z" id="Fill-13"></path>
                    <polygon id="Fill-15" points="123.880158 0.179493976 123.718284 0.348650602 123.718284 11.396241 123.880158 11.5594337 125.834043 11.5594337 125.995375 11.396241 125.995375 0.348650602 125.834043 0.179493976"></polygon>
                    <polygon id="Fill-17" points="126.262494 15.193247 126.099354 15.3624036 126.099354 16.9824036 126.262494 17.1475843 128.213485 17.1475843 128.372827 16.9824036 128.372827 15.3624036 128.213485 15.193247"></polygon>
                    <path d="M86.5308291,19.7476807 C84.2537387,19.4243675 83.6055185,19.0974398 83.6055185,18.1215361 C83.6055185,17.4709337 84.0929497,16.9824398 85.5579562,16.9824398 C87.3472537,16.9824398 87.8335997,17.4709337 87.8335997,18.4448494 L87.9954739,18.6089458 L89.9468265,18.6089458 L90.1121371,18.4448494 C90.1121371,16.4975602 88.8082813,15.0315361 85.7207347,15.0315361 C82.6274005,15.0315361 81.3249916,16.4975602 81.3249916,18.1215361 C81.3249916,20.3968373 83.1177256,21.2111747 85.3922839,21.5359337 C87.6708212,21.8601506 88.3204883,22.1849096 88.3204883,23.3236446 C88.3204883,24.300994 87.5089471,24.7860542 86.0444831,24.7860542 C84.0929497,24.7860542 83.4387609,24.1368976 83.4387609,23.0003313 L83.2770676,22.8351506 L81.3249916,22.8351506 L81.1631174,23.0003313 C81.1631174,25.1104518 82.6274005,26.7344277 85.8862262,26.7344277 C89.2986063,26.7344277 90.5973979,25.1104518 90.5973979,23.3236446 C90.5973979,21.0483434 88.8082813,20.0735241 86.5308291,19.7476807" id="Fill-19"></path>
                    <path d="M96.3869229,18.2831928 C94.9222781,18.2831928 94.2677277,19.0975301 94.2677277,19.0975301 L94.1109177,19.0975301 L93.9466923,18.6090361 L93.7848181,18.4449398 L91.9931693,18.4449398 L91.8300291,18.6090361 L91.8300291,29.6627711 L91.9931693,29.8279518 L93.9466923,29.8279518 L94.1109177,29.6627711 L94.1109177,25.9261446 L94.2677277,25.9261446 C94.2677277,25.9261446 94.9222781,26.7345181 96.3869229,26.7345181 C98.3368286,26.7345181 99.9631667,25.1143373 99.9631667,22.5093976 C99.9631667,19.9093373 98.3368286,18.2831928 96.3869229,18.2831928 M95.8955127,24.7859639 C94.5963594,24.7859639 94.1109177,23.8125904 94.1109177,22.5093976 C94.1109177,21.2110843 94.5963594,20.2326506 95.8955127,20.2326506 C97.1970173,20.2326506 97.6862571,21.2110843 97.6862571,22.5093976 C97.6862571,23.8125904 97.1970173,24.7859639 95.8955127,24.7859639" id="Fill-21"></path>
                    <path d="M106.457776,18.4448494 L106.295902,18.6089458 L106.295902,22.8351506 C106.295902,23.974247 105.808109,24.7860542 104.668117,24.7860542 C103.695425,24.7860542 103.369325,24.1368976 103.369325,23.3236446 L103.369325,18.6089458 L103.207451,18.4448494 L101.255013,18.4448494 L101.089341,18.6089458 L101.089341,23.4853916 C101.089341,25.4362952 102.231865,26.7344277 104.184303,26.7344277 C105.643883,26.7344277 106.134208,25.9260542 106.134208,25.9260542 L106.295902,25.9260542 L106.457776,26.4111145 L106.620554,26.5728614 L108.412746,26.5728614 L108.575524,26.4111145 L108.575524,18.6089458 L108.412746,18.4448494 L106.457776,18.4448494 Z" id="Fill-23"></path>
                    <path d="M113.701908,18.4448494 L113.537682,18.2818373 L113.537682,16.8197892 L113.375808,16.6580422 L111.424456,16.6580422 L111.263124,16.8197892 L111.263124,18.2818373 L111.098718,18.4448494 L109.959992,18.4448494 L109.795585,18.6089458 L109.795585,20.232741 L109.959992,20.3991867 L111.098718,20.3991867 L111.263124,20.5598494 L111.263124,24.1368976 C111.263124,25.9260542 112.559564,26.5728614 114.024028,26.5728614 L115.488673,26.5728614 L115.654345,26.4111145 L115.654345,24.7860542 L115.488673,24.6219578 L114.024028,24.6219578 C113.701908,24.6219578 113.537682,24.4576807 113.537682,24.1368976 L113.537682,20.5598494 L113.701908,20.3991867 L115.488673,20.3991867 L115.654345,20.232741 L115.654345,18.6089458 L115.488673,18.4448494 L113.701908,18.4448494 Z" id="Fill-25"></path>
                    <path d="M121.526453,18.2831928 C120.387908,18.2831928 119.736794,18.7716867 119.412322,19.0975301 L119.249001,19.0975301 L119.088574,18.6090361 L118.925796,18.4449398 L117.13487,18.4449398 L116.973358,18.6090361 L116.973358,26.4112048 L117.13487,26.5727711 L119.088574,26.5727711 L119.249001,26.4112048 L119.249001,22.3476506 C119.249001,20.8828916 119.902467,20.2326506 121.039746,20.2326506 C122.012799,20.2326506 122.340346,20.8828916 122.340346,21.698494 L122.340346,26.4112048 L122.504571,26.5727711 L124.455562,26.5727711 L124.618883,26.4112048 L124.618883,21.5358434 C124.618883,19.5849398 123.478891,18.2831928 121.526453,18.2831928" id="Fill-27"></path>
                    <polygon id="Fill-29" points="126.262494 18.4448494 126.099354 18.6089458 126.099354 26.4111145 126.262494 26.5728614 128.213485 26.5728614 128.372827 26.4111145 128.372827 18.6089458 128.213485 18.4448494"></polygon>
                    <polygon id="Fill-31" points="135.092034 22.3476867 135.092034 22.1850361 137.043387 20.2326867 137.043387 18.6090723 136.880247 18.4447952 135.903395 18.4447952 135.578742 18.6090723 132.328236 21.8602771 132.162926 21.8602771 132.162926 15.3584096 132.002498 15.1932289 130.051146 15.1932289 129.884388 15.3584096 129.884388 26.4110602 130.051146 26.5728072 132.002498 26.5728072 132.162926 26.4110602 132.162926 25.2770241 132.328236 24.9526265 133.300386 23.9741928 133.465696 23.9741928 135.741701 26.4110602 136.068705 26.5728072 137.883143 26.5728072 137.883143 25.5658193"></polygon>
                    <path d="M70.8987208,16.3125361 L65.2604351,21.946753 L56.6375151,21.9427771 L62.5418532,16.0436205 L62.5418532,11.0497048 L36.8049436,11.0497048 L42.8490904,4.95030723 L65.2604351,4.96368072 L70.8987208,10.5968133 L70.8987208,16.3125361 Z M34.4459214,21.9427771 L4.8480865,21.9427771 L4.84971429,4.96368072 L20.6126422,4.96368072 L14.7093893,10.8619337 L14.7093893,15.8670542 L39.6267995,15.8607289 L39.764076,15.8558494 L40.5367313,15.8558494 L34.4459214,21.9427771 Z M67.2895596,0.161150602 L40.835882,0.147777108 L29.9924823,11.0497048 L21.3127706,11.0497048 L32.2106107,0.159704819 L25.2796828,0.148861446 L0.0396094364,0.161150602 L0.0396094364,26.7492831 L36.4269358,26.7492831 L47.3262228,15.8581988 L47.3859083,15.8581988 L55.9317798,15.8558494 L45.0301415,26.7492831 L67.2521206,26.7492831 L75.7079214,18.2990422 L75.7079214,8.57289759 L67.2895596,0.161150602 Z" id="Fill-33"></path>
                </g>
            </g>
        </g>
    </g>
</svg>