<?xml version="1.0" encoding="UTF-8"?>
<svg width="150px" height="55px" viewBox="0 0 150 55" xmlns="http://www.w3.org/2000/svg" xmlns:xlink="http://www.w3.org/1999/xlink" version="1.1">
 <!-- Generated by Pixelmator Pro 2.0.1 -->
 <g id="group">
  <g id="group-1">
   <g id="group-2">
    <g id="group-3">
     <g id="group-4">
      <path id="Path" d="M24.588 6.014 L19.85 6.014 C19.092 6.014 18.665 6.439 18.665 7.196 L18.665 17.696 C17.102 15.899 14.78 14.811 11.605 14.811 5.398 14.811 0.281 20.25 0.281 27.297 0.281 34.344 5.398 39.783 11.605 39.783 14.78 39.783 17.102 38.695 18.665 36.898 L18.665 37.938 C18.665 38.695 19.092 39.121 19.85 39.121 L24.588 39.121 C25.346 39.121 25.773 38.695 25.773 37.938 L25.773 7.196 C25.773 6.439 25.346 6.014 24.588 6.014 Z M13.027 33.067 C9.757 33.067 7.388 30.844 7.388 27.297 7.388 23.75 9.757 21.527 13.027 21.527 16.296 21.527 18.665 23.75 18.665 27.297 18.665 30.844 16.296 33.067 13.027 33.067 Z" fill="#003da5" fill-opacity="1" stroke="none"/>
     </g>
     <g id="group-5">
      <path id="Path-1" d="M43.02 15.094 C40.651 15.426 38.803 16.844 38.092 19.209 L38.092 16.655 C38.092 15.899 37.666 15.473 36.908 15.473 L32.169 15.473 C31.411 15.473 30.985 15.899 30.985 16.655 L30.985 37.938 C30.985 38.695 31.411 39.121 32.169 39.121 L36.908 39.121 C37.666 39.121 38.092 38.695 38.092 37.938 L38.092 27.959 C38.092 24.175 40.651 22.851 43.304 22.946 43.92 22.946 44.252 22.567 44.252 21.81 L44.252 16.23 C44.252 15.473 43.826 14.953 43.02 15.094 Z" fill="#003da5" fill-opacity="1" stroke="none"/>
     </g>
     <g id="group-6">
      <path id="Path-2" d="M48.517 12.635 L53.255 12.635 C54.013 12.635 54.44 12.209 54.44 11.453 L54.44 7.196 C54.44 6.439 54.013 6.014 53.255 6.014 L48.517 6.014 C47.759 6.014 47.332 6.439 47.332 7.196 L47.332 11.453 C47.332 12.209 47.759 12.635 48.517 12.635 Z M48.517 39.121 L53.255 39.121 C54.013 39.121 54.44 38.695 54.44 37.938 L54.44 16.655 C54.44 15.899 54.013 15.473 53.255 15.473 L48.517 15.473 C47.759 15.473 47.332 15.899 47.332 16.655 L47.332 37.938 C47.332 38.695 47.759 39.121 48.517 39.121 Z" fill="#003da5" fill-opacity="1" stroke="none"/>
     </g>
     <g id="group-7">
      <path id="Path-3" d="M79.79 15.473 L74.673 15.473 C74.009 15.473 73.535 15.804 73.346 16.466 L69.129 30.04 64.912 16.466 C64.722 15.804 64.248 15.473 63.585 15.473 L58.515 15.473 C57.662 15.473 57.236 15.993 57.52 16.844 L65.243 38.175 C65.48 38.79 65.907 39.121 66.57 39.121 L71.687 39.121 C72.351 39.121 72.777 38.79 73.014 38.175 L80.738 16.844 C81.022 15.993 80.643 15.473 79.79 15.473 Z" fill="#003da5" fill-opacity="1" stroke="none"/>
     </g>
     <g id="group-8">
      <path id="Path-4" d="M94.621 14.811 C87.134 14.811 81.922 20.25 81.922 27.297 81.922 34.344 86.945 39.783 94.81 39.783 99.643 39.783 103.529 37.655 105.377 33.54 105.756 32.783 105.282 32.216 104.429 32.216 L99.88 32.263 C99.264 32.263 98.885 32.499 98.411 32.878 97.559 33.587 96.232 34.06 94.905 34.06 92.441 34.06 90.214 32.925 89.361 30.135 L105.187 30.135 C105.898 30.135 106.372 29.803 106.467 29.047 106.514 28.479 106.561 27.912 106.561 27.297 106.561 20.155 101.539 14.811 94.621 14.811 Z M89.314 24.743 C90.072 22.378 91.92 21.101 94.573 21.101 96.658 21.101 98.743 22.047 99.501 24.743 Z" fill="#003da5" fill-opacity="1" stroke="none"/>
     </g>
    </g>
    <g id="group-9">
     <path id="Path-5" d="M131.035 22.496 C131.312 22.979 131.657 23.394 132.072 23.739 132.418 24.084 132.833 24.498 133.248 24.844 134.839 26.155 136.361 27.467 137.813 28.848 139.266 30.229 140.719 31.679 142.102 33.198 142.932 34.095 143.762 34.993 144.523 35.89 145.284 36.788 146.114 37.754 146.875 38.721 147.843 39.825 148.604 41.068 149.157 42.449 149.226 42.587 149.295 42.725 149.365 42.863 149.365 43.001 149.365 43.139 149.434 43.208 149.503 43.554 149.434 43.899 149.226 44.244 149.019 44.589 148.673 44.658 148.327 44.589 147.981 44.52 147.635 44.52 147.29 44.52 L146.252 44.52 C145.629 44.52 145.145 44.244 144.661 43.692 144.315 43.416 144.039 43.07 143.693 42.587 142.794 41.344 141.825 40.171 140.788 39.135 139.681 38.099 138.505 37.133 137.329 36.235 136.015 35.2 134.632 34.164 133.317 33.128 131.934 32.093 130.551 31.126 129.167 30.16 128.752 29.884 128.337 29.607 127.853 29.331 127.369 29.055 126.954 28.71 126.608 28.296 126.539 28.227 126.47 28.158 126.401 28.089 126.262 28.089 126.124 28.019 125.986 27.95 125.916 28.019 125.778 28.158 125.64 28.227 125.432 28.296 125.294 28.434 125.225 28.503 124.533 29.193 123.841 29.884 123.15 30.574 122.458 31.264 121.766 31.955 121.144 32.645 119.968 33.819 118.861 35.062 117.754 36.304 116.579 37.547 115.472 38.79 114.365 39.963 L110.561 44.106 C110.353 44.313 110.077 44.589 109.938 44.796 109.662 45.003 109.454 45.211 109.247 45.418 108.486 46.039 107.863 46.799 107.31 47.489 106.687 48.248 106.134 49.077 105.581 49.836 105.235 50.458 104.82 51.01 104.474 51.631 104.059 52.253 103.644 52.805 103.229 53.357 103.16 53.495 103.022 53.634 102.814 53.841 102.676 53.979 102.468 54.186 102.261 54.462 102.261 54.186 102.261 53.979 102.192 53.91 102.192 53.772 102.192 53.634 102.261 53.565 102.537 53.15 102.676 52.736 102.745 52.253 102.814 51.769 102.883 51.286 102.814 50.803 102.745 50.596 102.745 50.32 102.676 50.043 102.676 49.767 102.676 49.491 102.745 49.215 102.814 49.008 102.814 48.732 102.814 48.525 102.883 48.317 102.952 48.041 103.091 47.834 103.437 47.006 103.852 46.177 104.336 45.28 104.751 44.451 105.166 43.623 105.581 42.863 106.134 41.828 106.687 40.792 107.241 39.756 107.794 38.721 108.417 37.754 109.039 36.788 111.46 32.714 114.227 28.848 117.339 25.189 117.547 24.913 117.754 24.636 117.962 24.291 118.1 24.015 118.239 23.67 118.308 23.256 118.1 23.394 117.893 23.532 117.685 23.67 117.478 23.808 117.27 23.946 117.063 24.153 116.994 23.946 116.994 23.808 117.132 23.67 117.27 23.601 117.409 23.463 117.478 23.394 L117.685 22.979 C117.754 22.91 117.824 22.772 117.893 22.634 118.031 22.151 117.962 21.806 117.754 21.53 117.547 21.323 117.409 21.115 117.201 20.908 116.994 20.77 116.786 20.563 116.579 20.356 115.403 19.182 114.227 18.078 113.051 16.904 111.875 15.799 110.63 14.695 109.454 13.59 108.901 13.038 108.348 12.416 107.863 11.795 107.379 11.174 106.826 10.621 106.342 10 106.272 9.931 106.203 9.793 106.134 9.724 106.065 9.655 105.996 9.517 105.996 9.448 106.065 8.895 105.996 8.412 105.788 8.067 105.512 7.791 105.235 7.376 105.027 6.962 104.958 6.824 104.82 6.686 104.751 6.479 104.682 6.272 104.543 6.065 104.474 5.857 104.682 5.788 104.889 5.719 105.097 5.719 105.304 5.719 105.442 5.65 105.581 5.581 105.719 5.512 105.857 5.443 105.927 5.305 105.996 5.167 106.134 5.029 106.272 4.96 106.411 4.891 106.549 4.822 106.757 4.753 106.895 4.753 107.033 4.684 107.241 4.615 108.002 5.374 108.763 5.926 109.662 6.41 110.561 6.962 111.391 7.376 112.221 7.791 113.259 8.412 114.296 9.033 115.264 9.724 116.164 10.414 117.132 11.174 118.031 11.933 118.861 12.623 119.691 13.314 120.521 13.935 121.282 14.626 122.112 15.316 122.873 15.937 123.08 16.144 123.357 16.352 123.634 16.49 123.911 16.628 124.187 16.766 124.395 16.904 125.294 16.49 126.055 15.937 126.608 15.178 126.816 14.833 127.092 14.557 127.369 14.28 L129.029 12.623 C130.136 11.381 131.242 10.138 132.349 8.964 133.387 7.791 134.563 6.617 135.738 5.443 136.223 5.029 136.638 4.546 137.053 4.062 137.398 3.579 137.883 3.165 138.367 2.82 L138.989 2.405 C139.197 2.336 139.335 2.198 139.473 1.991 140.096 1.37 140.719 1.025 141.41 0.886 142.102 0.817 142.794 0.817 143.554 0.886 143.9 0.956 144.315 1.094 144.73 1.163 145.076 1.232 145.491 1.37 145.837 1.577 146.183 1.646 146.39 1.853 146.46 2.129 146.529 2.405 146.39 2.682 146.114 2.889 145.56 3.372 145.076 3.924 144.73 4.546 144.384 5.167 143.969 5.857 143.624 6.479 143.554 6.548 143.554 6.617 143.554 6.617 143.554 6.686 143.554 6.755 143.485 6.824 141.756 9.378 139.958 11.933 138.159 14.418 136.361 16.973 134.286 19.251 131.934 21.392 131.588 21.737 131.312 22.082 131.035 22.496 Z" fill="#003da5" fill-opacity="1" stroke="none"/>
    </g>
   </g>
  </g>
 </g>
</svg>
