<?xml version="1.0" encoding="UTF-8"?>
<svg width="150px" height="23px" viewBox="0 0 150 23" xmlns="http://www.w3.org/2000/svg" xmlns:xlink="http://www.w3.org/1999/xlink" version="1.1">
 <!-- Generated by Pixelmator Pro 2.0.8 -->
 <path id="Path" d="M150 0 L0.926 0 0 0 0 0.92 0 23 0.926 23 0.926 0.92 150 0.92 Z" fill="#000000" fill-opacity="1" stroke="none"/>
 <path id="Path-1" d="M141.343 15.41 C141.019 15.824 140.509 16.146 139.907 16.376 139.306 16.606 138.611 16.698 137.824 16.698 137.037 16.698 136.343 16.514 135.741 16.192 135.139 15.824 134.676 15.318 134.352 14.674 134.028 14.03 133.843 13.248 133.843 12.374 L133.843 11.73 C133.843 10.81 133.981 10.028 134.306 9.338 134.63 8.648 135.046 8.142 135.648 7.82 136.25 7.452 136.898 7.268 137.685 7.268 138.796 7.268 139.63 7.544 140.231 8.05 140.833 8.556 141.204 9.338 141.343 10.304 L139.491 10.304 C139.398 9.798 139.213 9.384 138.935 9.154 138.657 8.924 138.241 8.786 137.731 8.786 137.083 8.786 136.574 9.016 136.25 9.522 135.926 9.982 135.741 10.718 135.741 11.684 L135.741 12.282 C135.741 13.248 135.926 13.984 136.296 14.444 136.667 14.904 137.222 15.18 137.917 15.18 138.611 15.18 139.12 15.042 139.444 14.72 L139.444 13.156 137.731 13.156 137.731 11.776 141.343 11.776 Z M128.38 16.56 L126.481 16.56 122.778 10.534 122.778 16.56 120.88 16.56 120.88 7.406 122.778 7.406 126.481 13.432 126.481 7.406 128.38 7.406 Z M115.093 16.56 L113.194 16.56 113.194 7.406 115.093 7.406 Z M102.685 11.684 L104.213 11.684 C104.676 11.684 105.046 11.546 105.324 11.316 105.602 11.086 105.694 10.718 105.694 10.304 105.694 9.89 105.556 9.522 105.324 9.292 105.093 9.062 104.722 8.924 104.213 8.924 L102.685 8.924 Z M104.167 13.202 L102.639 13.202 102.639 16.56 100.741 16.56 100.741 7.406 104.167 7.406 C105.278 7.406 106.111 7.636 106.667 8.142 107.269 8.602 107.546 9.292 107.546 10.166 107.546 10.81 107.407 11.316 107.13 11.73 106.852 12.144 106.435 12.466 105.88 12.742 L107.87 16.468 107.87 16.56 105.833 16.56 Z M95.185 7.406 L95.185 13.432 C95.185 14.444 94.861 15.226 94.213 15.824 93.565 16.422 92.731 16.698 91.62 16.698 90.556 16.698 89.676 16.422 89.074 15.87 88.472 15.318 88.102 14.536 88.102 13.524 L88.102 7.406 90 7.406 90 13.432 C90 14.03 90.139 14.49 90.417 14.766 90.694 15.042 91.111 15.18 91.62 15.18 92.685 15.18 93.241 14.628 93.241 13.524 L93.241 7.406 Z M83.102 8.924 L80.278 8.924 80.278 16.56 78.38 16.56 78.38 8.924 75.602 8.924 75.602 7.406 83.102 7.406 Z M58.889 11.684 L60.417 11.684 C60.88 11.684 61.25 11.546 61.528 11.316 61.806 11.086 61.898 10.718 61.898 10.304 61.898 9.89 61.759 9.522 61.528 9.292 61.296 9.062 60.926 8.924 60.417 8.924 L58.889 8.924 Z M60.417 13.202 L58.889 13.202 58.889 16.56 56.991 16.56 56.991 7.406 60.417 7.406 C61.528 7.406 62.361 7.636 62.917 8.142 63.519 8.602 63.796 9.292 63.796 10.166 63.796 10.81 63.657 11.316 63.38 11.73 63.102 12.144 62.685 12.466 62.13 12.742 L64.12 16.468 64.12 16.56 62.083 16.56 Z M51.25 12.604 L47.593 12.604 47.593 15.042 51.852 15.042 51.852 16.56 45.694 16.56 45.694 7.406 51.852 7.406 51.852 8.924 47.593 8.924 47.593 11.086 51.25 11.086 Z M35.139 8.924 L35.139 15.042 36.065 15.042 C36.806 15.042 37.361 14.812 37.778 14.306 38.194 13.8 38.38 13.156 38.38 12.236 L38.38 11.73 C38.38 10.81 38.194 10.074 37.778 9.614 37.407 9.154 36.806 8.878 36.065 8.878 L35.139 8.878 Z M33.241 16.56 L33.241 7.406 36.065 7.406 C36.898 7.406 37.593 7.59 38.241 7.958 38.889 8.326 39.398 8.832 39.722 9.522 40.093 10.166 40.278 10.948 40.278 11.776 L40.278 12.19 C40.278 13.064 40.093 13.8 39.769 14.444 39.398 15.088 38.935 15.64 38.287 15.962 37.639 16.284 36.898 16.56 36.111 16.56 Z M27.593 16.56 L25.694 16.56 21.991 10.534 21.991 16.56 20.093 16.56 20.093 7.406 21.991 7.406 25.694 13.432 25.694 7.406 27.593 7.406 Z M14.306 12.604 L10.648 12.604 10.648 15.042 14.907 15.042 14.907 16.56 8.75 16.56 8.75 7.406 14.907 7.406 14.907 8.924 10.648 8.924 10.648 11.086 14.306 11.086 Z" fill="#000000" fill-opacity="1" stroke="none"/>
</svg>
