<?xml version="1.0" encoding="UTF-8"?>
<!-- Generated by Pixelmator Pro 3.5.7 -->
<svg width="150" height="58" viewBox="0 0 150 58" xmlns="http://www.w3.org/2000/svg">
    <g id="Layer2">
        <g id="Layer1-2">
            <path id="Path" fill="#141a30" stroke="none" d="M 25.263159 45.675785 L 4.149474 45.675785 C 4.411579 51.16227 8.035263 54.657944 12.918947 54.657944 C 16.392632 54.657944 19.168421 52.881893 20.53421 49.853352 L 24.42 50.480377 C 22.582106 55.183083 18.276316 58.004704 12.918947 58.004704 C 5.251579 58 0 52.725136 0 44.840267 C 0 36.903675 5.303684 31.628811 12.814737 31.628811 C 20.008421 31.628811 25.313684 36.488274 25.313684 44.68351 Z M 4.263158 42.490486 L 21.112106 42.490486 C 20.586317 37.787781 17.278421 34.966164 12.814737 34.966164 C 8.193158 34.970863 4.937368 37.687462 4.253685 42.490486 Z"/>
            <path id="path1" fill="#141a30" stroke="none" d="M 53.199474 40.767731 L 53.199474 57.478001 L 48.997894 57.478001 L 48.997894 41.498219 C 48.997894 37.21719 46.582104 35.024162 42.696316 35.024162 C 38.748947 35.024162 35.763157 37.689026 35.763157 42.909027 L 35.763157 57.478001 L 31.615263 57.478001 L 31.615263 32.152378 L 35.763157 32.152378 L 35.763157 35.702919 C 37.444736 33.143082 40.280525 31.627243 43.852108 31.627243 C 49.894737 31.628811 53.199474 35.024162 53.199474 40.767731 Z"/>
            <path id="path2" fill="#141a30" stroke="none" d="M 79.773163 32.152378 L 64.91053 54.187675 L 79.405266 54.187675 L 79.405266 57.479565 L 58.345261 57.479565 L 73.207893 35.494431 L 59.448948 35.494431 L 59.448948 32.152378 Z"/>
            <path id="path3" fill="#141a30" stroke="none" d="M 102.353683 32.152378 L 106.503159 32.152378 L 106.503159 57.478001 L 102.353683 57.478001 L 102.353683 53.979191 C 100.673683 56.485729 97.837898 58 94.263161 58 C 88.223686 58 84.915787 54.606216 84.915787 48.861084 L 84.915787 32.152378 L 89.063683 32.152378 L 89.063683 48.124325 C 89.063683 52.406921 91.533165 54.599945 95.418945 54.599945 C 99.356842 54.599945 102.298424 51.935081 102.350525 46.762108 Z"/>
            <path id="path4" fill="#141a30" stroke="none" d="M 147.75 39.410217 L 147.75 57.478001 L 143.602097 57.478001 L 143.602097 40.610973 C 143.602097 37.060432 141.391571 35.024162 138.192627 35.024162 C 134.778946 35.024162 132.25737 37.268921 132.25737 42.021786 L 132.25737 57.478001 L 128.109467 57.478001 L 128.109467 40.610973 C 128.109467 37.060432 125.849998 35.024162 122.646317 35.024162 C 119.232635 35.024162 116.712631 37.320648 116.712631 42.078217 L 116.712631 57.482704 L 112.563164 57.482704 L 112.563164 32.152378 L 116.712631 32.152378 L 116.712631 35.389404 C 118.182632 32.98632 120.704216 31.627243 123.906311 31.627243 C 127.793678 31.627243 130.577362 33.351566 131.679474 36.223351 C 133.151047 33.298271 135.933151 31.627243 139.452637 31.627243 C 144.599991 31.628811 147.75 34.605621 147.75 39.410217 Z"/>
            <linearGradient id="linearGradient1" x1="125.123684" y1="28.139405" x2="141.609474" y2="6.108811" gradientUnits="userSpaceOnUse">
                <stop offset="1e-05" stop-color="#0015fb" stop-opacity="1"/>
                <stop offset="0.12" stop-color="#001cfb" stop-opacity="1"/>
                <stop offset="0.29" stop-color="#002efc" stop-opacity="1"/>
                <stop offset="0.48" stop-color="#004cfc" stop-opacity="1"/>
                <stop offset="0.7" stop-color="#0076fd" stop-opacity="1"/>
                <stop offset="0.94" stop-color="#00abff" stop-opacity="1"/>
                <stop offset="1" stop-color="#00bbff" stop-opacity="1"/>
            </linearGradient>
            <path id="path5" fill="url(#linearGradient1)" stroke="none" d="M 129.868423 18.737137 C 129.642288 18.964481 129.554031 19.293545 129.636322 19.602432 C 129.68013 19.751369 129.759796 19.887482 129.868423 19.999027 C 129.978958 20.107632 130.11525 20.186874 130.26474 20.229462 C 130.576355 20.312416 130.908905 20.224655 131.137894 19.999027 C 131.199295 19.935364 131.252335 19.864262 131.295792 19.787407 C 131.408691 19.575008 131.430878 19.326477 131.357361 19.097675 C 131.339996 19.047516 131.319473 18.997353 131.295792 18.940918 C 131.251892 18.865314 131.198868 18.7953 131.137894 18.732433 C 131.072586 18.672897 131.001129 18.620358 130.924744 18.575676 C 130.872635 18.552162 130.822098 18.531784 130.766846 18.512974 C 130.53714 18.443279 130.288971 18.466961 130.076843 18.578808 C 130.000305 18.621731 129.930161 18.675018 129.868423 18.737137 Z M 126.901581 6.699783 C 123.554214 10.068489 123.168945 13.669189 123.775261 16.630325 C 124.206787 18.716858 125.187424 20.652637 126.617363 22.24065 C 125.167892 23.482162 123.404213 25.004269 122.265785 26.027891 C 122.931694 25.917366 123.611465 25.917366 124.277374 26.027891 C 124.277374 26.027891 128.382629 20.864326 129.085266 20.136974 C 128.744629 19.509953 128.859604 18.735229 129.367905 18.232376 C 129.572983 18.026558 129.831497 17.881149 130.114731 17.812271 L 130.334213 11.805351 C 129.715408 11.738297 129.190323 11.324516 128.984116 10.741425 C 128.777878 10.158329 128.927139 9.509483 129.367905 9.073082 C 129.65477 8.782238 130.044342 8.613594 130.454208 8.60281 L 130.507889 7.057186 L 130.561584 8.60281 C 130.972549 8.612782 131.363403 8.781498 131.651047 9.073082 C 132.091354 9.510658 132.239883 10.160133 132.033112 10.74358 C 131.826324 11.327019 131.300858 11.741051 130.68158 11.808491 L 130.901047 17.812271 C 131.053085 17.848099 131.198532 17.907337 131.332108 17.987839 L 135.683685 13.822811 L 135.631577 13.822811 L 136.081573 4.969193 L 136.492111 13.043728 L 141.779999 7.98362 C 141.22644 7.337227 141.27449 6.374931 141.889755 5.786079 C 142.50502 5.197227 143.475418 5.184788 144.105789 5.757679 L 146.447372 3.519192 L 144.191055 5.843891 C 144.786087 6.467213 144.78157 7.445084 144.180786 8.062946 C 143.580002 8.680813 142.595795 8.719769 141.947372 8.151352 L 136.863159 13.413677 L 140.684204 13.604919 C 140.797073 12.779339 141.527405 12.176731 142.365601 12.21756 C 143.203796 12.258389 143.871185 12.929089 143.9021 13.761677 L 144.982101 13.814972 L 143.9021 13.868271 C 143.880966 14.507378 143.479767 15.073067 142.880814 15.308262 C 142.281876 15.543461 141.599457 15.40329 141.143677 14.951462 C 140.892441 14.703236 140.731842 14.378845 140.687378 14.029728 L 136.080002 14.264866 L 136.080002 14.219402 L 131.891052 18.542759 C 131.974579 18.675053 132.0354 18.820198 132.07106 18.972271 L 142.883682 19.367298 L 132.07106 19.75135 C 131.949356 20.233036 131.610367 20.631897 131.152557 20.83202 C 130.694763 21.032146 130.169525 21.011089 129.729477 20.774971 L 127.470001 23.107513 C 129.097031 24.602058 131.104675 25.626556 133.275787 26.070215 C 136.253677 26.672161 139.874207 26.288107 143.261047 22.960163 C 149.808945 16.533134 150 0 150 0 C 150 0 133.372101 0.189674 126.901581 6.699783 Z M 130.648422 11.08897 C 130.834152 11.05978 131.005646 10.972458 131.137894 10.839729 C 131.38295 10.594696 131.463867 10.231407 131.345703 9.906635 C 131.227554 9.581871 130.931488 9.353764 130.585266 9.320755 C 130.528427 9.320755 130.471573 9.320755 130.427368 9.320755 C 130.21875 9.338039 130.02301 9.427986 129.874741 9.574707 C 129.529633 9.92252 129.529633 10.480942 129.874741 10.828758 C 130.005615 10.961617 130.176163 11.049023 130.361053 11.077999 C 130.455826 11.095615 130.552811 11.098263 130.648422 11.085838 Z M 142.454208 7.640324 C 142.816956 7.923515 143.337097 7.886574 143.655533 7.554996 C 143.973984 7.223427 143.986404 6.705868 143.684204 6.359623 C 143.67009 6.339497 143.654236 6.320614 143.636841 6.303188 C 143.618927 6.285053 143.59877 6.269245 143.576843 6.256165 C 143.226105 5.965435 142.711136 5.983566 142.382034 6.298225 C 142.052933 6.612888 142.015305 7.123104 142.294739 7.482002 C 142.315842 7.512222 142.340195 7.540081 142.367371 7.565083 C 142.393585 7.591274 142.422714 7.614414 142.454208 7.634056 Z M 142.927902 14.45924 C 143.073135 14.313454 143.163452 14.122501 143.183685 13.918434 C 143.191574 13.859123 143.191574 13.799038 143.183685 13.739727 C 143.16539 13.535133 143.074783 13.343559 142.927902 13.198921 C 142.696381 12.965717 142.35463 12.87748 142.038025 12.969158 C 141.72142 13.060841 141.481033 13.317642 141.412109 13.637836 C 141.388412 13.755814 141.388412 13.87727 141.412109 13.995243 C 141.476334 14.317448 141.71431 14.578224 142.030945 14.673386 C 142.347595 14.768551 142.691299 14.682583 142.924744 14.449837 Z"/>
        </g>
    </g>
</svg>
