<?xml version="1.0" encoding="UTF-8"?>
<!-- Generated by Pixelmator Pro 3.6.7 -->
<svg width="140" height="37" viewBox="0 0 140 37" xmlns="http://www.w3.org/2000/svg">
    <path id="Path" fill="#323232" stroke="none" d="M 55.483658 27.927292 C 50.362362 27.927292 46.853333 24.171791 46.853333 18.927042 C 46.853333 13.261415 50.488819 9.764915 55.167526 9.764915 C 59.909462 9.764915 63.070751 13.164291 63.165592 18.732792 L 63.165592 19.639292 L 50.583652 19.639292 C 50.836559 22.650166 52.670109 24.689791 55.51527 24.689791 C 57.443657 24.689791 58.89785 23.718544 59.466881 22.002666 L 63.102364 22.002666 C 62.248817 25.693417 59.435268 27.927292 55.483658 27.927292 Z M 50.741722 16.952166 L 59.308819 16.952166 C 58.834621 14.491667 57.348816 13.002417 55.167526 13.002417 C 52.95462 13.002417 51.310753 14.491667 50.741722 16.952166 Z M 72.746712 27.927292 C 68.162834 27.927292 65.44413 25.725792 65.222839 21.970291 L 68.826706 21.970291 C 68.953163 23.815666 70.50219 24.786917 72.55703 24.786917 C 74.453804 24.786917 75.465416 24.042292 75.465416 22.714916 C 75.465416 21.387541 74.390579 21.128542 72.936386 20.642916 L 70.72348 19.898293 C 67.941544 18.959417 65.538971 17.988167 65.538971 14.815418 C 65.538971 11.772167 67.815094 9.764915 71.829933 9.764915 C 75.718323 9.764915 78.373802 11.869289 78.816383 15.754292 L 75.275742 15.754292 C 75.086067 13.81179 73.726715 12.905291 71.798325 12.905291 C 70.154449 12.905291 69.20607 13.617542 69.20607 14.783041 C 69.20607 16.110416 70.660255 16.466541 71.861549 16.887419 L 73.884773 17.567291 C 77.204132 18.700417 79.19574 19.736418 79.19574 22.812042 C 79.19574 25.984791 76.856384 27.927292 72.746712 27.927292 Z M 89.533157 34.434666 C 84.854454 34.434666 81.629936 32.103668 81.629936 28.412918 L 85.36026 28.412918 C 85.36026 30.031668 87.035744 31.326666 89.533157 31.326666 C 92.504768 31.326666 94.05381 29.513668 94.05381 26.923668 L 94.05381 24.495541 C 92.978966 26.146667 91.1138 27.182667 88.711227 27.182667 C 84.222198 27.182667 80.997681 23.621418 80.997681 18.506166 C 80.997681 13.358541 84.222198 9.764915 88.679611 9.764915 C 91.303482 9.764915 93.421547 11.027542 94.464775 12.937666 L 94.780907 10.282917 L 97.752518 10.282917 L 97.752518 26.923668 C 97.752518 31.456165 94.622833 34.434666 89.533157 34.434666 Z M 89.438316 23.977543 C 92.157028 23.977543 94.05381 21.711292 94.05381 18.473791 C 94.05381 15.236292 92.157028 13.002417 89.438316 13.002417 C 86.719612 13.002417 84.854454 15.236292 84.854454 18.506166 C 84.854454 21.743666 86.719612 23.977543 89.438316 23.977543 Z M 105.247787 27.441666 L 101.517464 27.441666 L 101.517464 10.282917 L 104.520683 10.282917 L 104.994881 14.070789 L 110.211014 9.764915 L 112.392303 12.32254 L 105.247787 18.052916 L 105.247787 27.441666 Z M 116.132561 7.984293 C 114.773201 7.984293 113.72998 6.883541 113.72998 5.491415 C 113.72998 4.099293 114.773201 3.03091 116.132561 3.03091 C 117.523529 3.03091 118.535141 4.099293 118.535141 5.491415 C 118.535141 6.883541 117.523529 7.984293 116.132561 7.984293 Z M 117.997719 27.441666 L 114.267403 27.441666 L 114.267403 10.282917 L 117.997719 10.282917 L 117.997719 27.441666 Z M 128.69191 27.927292 C 124.171265 27.927292 120.915138 24.171791 120.915138 18.765167 C 120.915138 13.455666 124.108047 9.764915 128.56546 9.764915 C 130.936432 9.764915 132.896439 10.768543 134.066101 12.387293 L 134.066101 3.160416 L 137.796432 3.160416 L 137.796432 27.441666 L 134.793198 27.441666 L 134.445465 24.398415 C 133.49707 26.567543 131.410629 27.927292 128.69191 27.927292 Z M 129.387405 24.689791 C 132.137711 24.689791 134.066101 22.229292 134.066101 18.732792 C 134.066101 15.333416 132.169327 12.970043 129.450623 12.970043 C 126.668694 12.970043 124.740303 15.365791 124.740303 18.797543 C 124.740303 22.261665 126.637077 24.689791 129.387405 24.689791 Z"/>
    <linearGradient id="linearGradient1" x1="18.064546" y1="11.5625" x2="36.129032" y2="18.5" gradientUnits="userSpaceOnUse">
        <stop offset="1e-05" stop-color="#8378ff" stop-opacity="0"/>
        <stop offset="0.630565" stop-color="#8378ff" stop-opacity="1"/>
    </linearGradient>
    <path id="path1" fill="none" stroke="url(#linearGradient1)" stroke-width="6.855585" d="M 36.129032 18.5 C 33.756863 18.5 31.407871 18.021467 29.216043 17.091749 C 27.024364 16.162062 25.032965 14.799351 23.355522 13.081472 C 21.678051 11.363596 20.34745 9.324154 19.439617 7.079641 C 18.531784 4.835129 18.064547 2.429455 18.064547 0"/>
    <linearGradient id="linearGradient2" x1="18.064546" y1="25.426215" x2="2.4e-05" y2="18.488715" gradientUnits="userSpaceOnUse">
        <stop offset="1e-05" stop-color="#8378ff" stop-opacity="0"/>
        <stop offset="0.630565" stop-color="#8378ff" stop-opacity="1"/>
    </linearGradient>
    <path id="path2" fill="none" stroke="url(#linearGradient2)" stroke-width="6.855585" d="M 2.3e-05 18.488716 C 2.372289 18.488716 4.721312 18.967218 6.913019 19.896936 C 9.104697 20.826653 11.096128 22.189331 12.773569 23.907242 C 14.451011 25.62512 15.781643 27.664532 16.689445 29.909042 C 17.597279 32.153618 18.064547 34.559235 18.064547 36.98859"/>
    <path id="path3" fill="none" stroke="#8378ff" stroke-width="6.855585" d="M 2.3e-05 18.5 C 2.372289 18.5 4.721312 18.021467 6.913019 17.091749 C 9.104697 16.162062 11.096128 14.799351 12.773569 13.081472 C 14.451011 11.363596 15.781643 9.324154 16.689445 7.079641 C 17.597279 4.835129 18.064547 2.429455 18.064547 0"/>
    <path id="path4" fill="none" stroke="#8378ff" stroke-width="6.855585" d="M 36.129032 18.5 C 33.756863 18.5 31.407871 18.978533 29.216043 19.90822 C 27.024336 20.837936 25.032934 22.200647 23.355494 23.918526 C 21.678051 25.636406 20.347418 27.675846 19.439587 29.920359 C 18.531755 32.165024 18.064516 34.570641 18.064516 37"/>
</svg>
