<?xml version="1.0" encoding="UTF-8"?>
<!-- Generated by Pixelmator Pro 3.5.7 -->
<svg width="100" height="100" viewBox="0 0 100 100" xmlns="http://www.w3.org/2000/svg">
    <clipPath id="clipPath1">
        <path d="M -0 39.253394 L 100 39.253394 L 100 60.746606 L -0 60.746606 Z"/>
    </clipPath>
    <g id="Group" clip-path="url(#clipPath1)">
        <path id="Path" fill="#277190" stroke="none" d="M 0.073152 60.407238 L 0.073152 39.67503 L 13.071267 39.67503 L 13.071267 42.367783 L 3.20121 42.367783 L 3.20121 48.684639 L 12.392986 48.684639 L 12.392986 51.367306 L 3.20121 51.367306 L 3.20121 57.714481 L 13.19276 57.714481 L 13.19276 60.407238 L 0.073152 60.407238 Z M 28.557127 45.121288 C 28.449207 44.162964 28.003733 43.420601 27.220926 42.894196 C 26.438009 42.361042 25.452715 42.094467 24.264933 42.094467 C 23.414593 42.094467 22.678959 42.229435 22.058146 42.49939 C 21.437218 42.762592 20.954638 43.127026 20.610521 43.592693 C 20.273077 44.051605 20.1043 44.574638 20.1043 45.161777 C 20.1043 45.654434 20.219118 46.079605 20.44853 46.437298 C 20.684729 46.794979 20.991743 47.095295 21.369684 47.338257 C 21.754412 47.574455 22.166063 47.773552 22.604752 47.93552 C 23.043438 48.090748 23.465271 48.218971 23.870134 48.320202 L 25.894796 48.846607 C 26.556108 49.008575 27.234388 49.227905 27.929525 49.504604 C 28.624662 49.781311 29.269119 50.145737 29.86301 50.597965 C 30.456902 51.050114 30.936087 51.61018 31.300564 52.278393 C 31.671719 52.946491 31.857351 53.746155 31.857351 54.67749 C 31.857351 55.85181 31.553619 56.894459 30.946268 57.805542 C 30.345589 58.716629 29.471605 59.435406 28.32432 59.961765 C 27.183823 60.488235 25.803621 60.751469 24.183937 60.751469 C 22.631788 60.751469 21.288689 60.505093 20.154978 60.012444 C 19.021154 59.519794 18.133711 58.821266 17.492535 57.916969 C 16.851471 57.005882 16.497173 55.926018 16.429638 54.67749 L 19.56776 54.67749 C 19.628508 55.426697 19.871494 56.050907 20.296721 56.550339 C 20.728621 57.042984 21.27862 57.410748 21.94672 57.653732 C 22.621607 57.889931 23.360634 58.00803 24.163687 58.00803 C 25.047852 58.00803 25.834049 57.869682 26.522398 57.592987 C 27.217533 57.309502 27.764139 56.918098 28.162331 56.418663 C 28.56052 55.912556 28.759615 55.32206 28.759615 54.647171 C 28.759615 54.033031 28.584164 53.530205 28.233257 53.138802 C 27.889027 52.747398 27.420023 52.423416 26.826132 52.166969 C 26.238914 51.910519 25.574209 51.684502 24.831787 51.4888 L 22.382013 50.820587 C 20.721832 50.36845 19.405882 49.703697 18.43405 48.826359 C 17.468891 47.949017 16.986425 46.788235 16.986425 45.343994 C 16.986425 44.149456 17.310293 43.106777 17.95826 42.215939 C 18.606108 41.325104 19.483484 40.633358 20.590273 40.140697 C 21.69706 39.641285 22.945589 39.391582 24.335859 39.391582 C 25.739592 39.391582 26.977942 39.637913 28.051018 40.130573 C 29.130768 40.623238 29.981108 41.301483 30.602037 42.165329 C 31.222961 43.022423 31.546831 44.007736 31.57387 45.121288 L 28.557127 45.121288 Z M 49.626019 46.224705 C 49.430206 45.610565 49.16708 45.060543 48.836315 44.574638 C 48.512444 44.081978 48.124321 43.663551 47.672173 43.319366 C 47.22002 42.968426 46.703732 42.701855 46.123306 42.519638 C 45.54966 42.337421 44.918663 42.246311 44.230316 42.246311 C 43.062782 42.246311 42.009956 42.546627 41.071945 43.147274 C 40.133823 43.74791 39.391518 44.62862 38.844795 45.78941 C 38.304863 46.943451 38.034954 48.357319 38.034954 50.031006 C 38.034954 51.711426 38.308258 53.132011 38.854977 54.292873 C 39.401585 55.453621 40.150681 56.334389 41.102261 56.934956 C 42.053848 57.535633 43.13699 57.835972 44.35181 57.835972 C 45.478844 57.835972 46.460747 57.606449 47.297623 57.147625 C 48.141289 56.68869 48.792534 56.040836 49.251358 55.20396 C 49.717079 54.360294 49.949886 53.368324 49.949886 52.227715 L 50.759727 52.379639 L 44.827602 52.379639 L 44.827602 49.79818 L 52.976696 49.79818 L 52.976696 52.156902 C 52.976696 53.898075 52.605541 55.409729 51.863235 56.692081 C 51.127602 57.967533 50.108486 58.952827 48.805996 59.647964 C 47.510181 60.343098 46.025452 60.690723 44.35181 60.690723 C 42.475677 60.690723 40.82896 60.258823 39.411762 59.394909 C 38.001244 58.531109 36.901131 57.306221 36.111542 55.720249 C 35.321945 54.127487 34.927151 52.237896 34.927151 50.051254 C 34.927151 48.397804 35.156559 46.913078 35.615498 45.597069 C 36.074436 44.281063 36.719006 43.164139 37.549095 42.246311 C 38.38586 41.321732 39.367874 40.616482 40.494911 40.130573 C 41.628731 39.637913 42.867081 39.391582 44.210068 39.391582 C 45.330429 39.391582 46.373077 39.556927 47.338123 39.887619 C 48.309956 40.218304 49.173756 40.687344 49.929638 41.294739 C 50.692307 41.902126 51.323303 42.624241 51.822739 43.461086 C 52.32206 44.291187 52.659504 45.212399 52.834957 46.224705 L 49.626019 46.224705 Z M 56.94751 60.407238 L 56.94751 39.67503 L 64.33744 39.67503 C 65.943665 39.67503 67.276474 39.951729 68.33609 40.505127 C 69.402382 41.058529 70.198753 41.824512 70.725113 42.803089 C 71.251587 43.77491 71.514709 44.898575 71.514709 46.174095 C 71.514709 47.442863 71.248192 48.559784 70.715042 49.524853 C 70.188576 50.483177 69.392303 51.228958 68.325905 51.762104 C 67.266403 52.29525 65.933479 52.561764 64.327263 52.561764 L 58.729187 52.561764 L 58.729187 49.869038 L 64.043892 49.869038 C 65.056221 49.869038 65.879524 49.723949 66.513908 49.433746 C 67.15509 49.143551 67.624092 48.721752 67.921043 48.168346 C 68.217987 47.614956 68.366402 46.950203 68.366402 46.174095 C 68.366402 45.391232 68.2146 44.712986 67.910858 44.139343 C 67.613907 43.565689 67.144905 43.127026 66.503731 42.823326 C 65.869461 42.512886 65.035973 42.35767 64.003387 42.35767 L 60.075565 42.35767 L 60.075565 60.407238 L 56.94751 60.407238 Z M 67.182014 51.053394 L 72.304298 60.407238 L 68.740952 60.407238 L 63.71991 51.053394 L 67.182014 51.053394 Z M 78.449097 39.67503 L 78.449097 60.407238 L 75.321045 60.407238 L 75.321045 39.67503 L 78.449097 39.67503 Z M 89.716179 60.407238 L 83.004524 60.407238 L 83.004524 39.67503 L 89.928726 39.67503 C 91.960182 39.67503 93.704636 40.09008 95.162445 40.920181 C 96.62014 41.74353 97.737099 42.927929 98.513237 44.473404 C 99.296036 46.012127 99.687447 47.857906 99.687447 50.010769 C 99.687447 52.170361 99.292648 54.026245 98.503059 55.578506 C 97.720245 57.130768 96.586426 58.325226 95.101692 59.162102 C 93.616966 59.992195 91.821831 60.407238 89.716179 60.407238 Z M 86.132576 57.673981 L 89.544121 57.673981 C 91.123306 57.673981 92.435966 57.377037 93.48201 56.783146 C 94.528053 56.182465 95.31086 55.315273 95.830544 54.18145 C 96.350227 53.040951 96.610069 51.650681 96.610069 50.010769 C 96.610069 48.384312 96.350227 47.004185 95.830544 45.870396 C 95.317642 44.736607 94.551697 43.876133 93.532578 43.288994 C 92.513573 42.701855 91.248184 42.408279 89.736427 42.408279 L 86.132576 42.408279 L 86.132576 57.673981 Z"/>
        <path id="path1" fill="#000000" fill-opacity="0.2" stroke="none" d="M 0.073152 60.407238 L 0.073152 39.67503 L 13.071267 39.67503 L 13.071267 42.367783 L 3.20121 42.367783 L 3.20121 48.684639 L 12.392986 48.684639 L 12.392986 51.367306 L 3.20121 51.367306 L 3.20121 57.714481 L 13.19276 57.714481 L 13.19276 60.407238 L 0.073152 60.407238 Z M 28.557127 45.121288 C 28.449207 44.162964 28.003733 43.420601 27.220926 42.894196 C 26.438009 42.361042 25.452715 42.094467 24.264933 42.094467 C 23.414593 42.094467 22.678959 42.229435 22.058146 42.49939 C 21.437218 42.762592 20.954638 43.127026 20.610521 43.592693 C 20.273077 44.051605 20.1043 44.574638 20.1043 45.161777 C 20.1043 45.654434 20.219118 46.079605 20.44853 46.437298 C 20.684729 46.794979 20.991743 47.095295 21.369684 47.338257 C 21.754412 47.574455 22.166063 47.773552 22.604752 47.93552 C 23.043438 48.090748 23.465271 48.218971 23.870134 48.320202 L 25.894796 48.846607 C 26.556108 49.008575 27.234388 49.227905 27.929525 49.504604 C 28.624662 49.781311 29.269119 50.145737 29.86301 50.597965 C 30.456902 51.050114 30.936087 51.61018 31.300564 52.278393 C 31.671719 52.946491 31.857351 53.746155 31.857351 54.67749 C 31.857351 55.85181 31.553619 56.894459 30.946268 57.805542 C 30.345589 58.716629 29.471605 59.435406 28.32432 59.961765 C 27.183823 60.488235 25.803621 60.751469 24.183937 60.751469 C 22.631788 60.751469 21.288689 60.505093 20.154978 60.012444 C 19.021154 59.519794 18.133711 58.821266 17.492535 57.916969 C 16.851471 57.005882 16.497173 55.926018 16.429638 54.67749 L 19.56776 54.67749 C 19.628508 55.426697 19.871494 56.050907 20.296721 56.550339 C 20.728621 57.042984 21.27862 57.410748 21.94672 57.653732 C 22.621607 57.889931 23.360634 58.00803 24.163687 58.00803 C 25.047852 58.00803 25.834049 57.869682 26.522398 57.592987 C 27.217533 57.309502 27.764139 56.918098 28.162331 56.418663 C 28.56052 55.912556 28.759615 55.32206 28.759615 54.647171 C 28.759615 54.033031 28.584164 53.530205 28.233257 53.138802 C 27.889027 52.747398 27.420023 52.423416 26.826132 52.166969 C 26.238914 51.910519 25.574209 51.684502 24.831787 51.4888 L 22.382013 50.820587 C 20.721832 50.36845 19.405882 49.703697 18.43405 48.826359 C 17.468891 47.949017 16.986425 46.788235 16.986425 45.343994 C 16.986425 44.149456 17.310293 43.106777 17.95826 42.215939 C 18.606108 41.325104 19.483484 40.633358 20.590273 40.140697 C 21.69706 39.641285 22.945589 39.391582 24.335859 39.391582 C 25.739592 39.391582 26.977942 39.637913 28.051018 40.130573 C 29.130768 40.623238 29.981108 41.301483 30.602037 42.165329 C 31.222961 43.022423 31.546831 44.007736 31.57387 45.121288 L 28.557127 45.121288 Z M 49.626019 46.224705 C 49.430206 45.610565 49.16708 45.060543 48.836315 44.574638 C 48.512444 44.081978 48.124321 43.663551 47.672173 43.319366 C 47.22002 42.968426 46.703732 42.701855 46.123306 42.519638 C 45.54966 42.337421 44.918663 42.246311 44.230316 42.246311 C 43.062782 42.246311 42.009956 42.546627 41.071945 43.147274 C 40.133823 43.74791 39.391518 44.62862 38.844795 45.78941 C 38.304863 46.943451 38.034954 48.357319 38.034954 50.031006 C 38.034954 51.711426 38.308258 53.132011 38.854977 54.292873 C 39.401585 55.453621 40.150681 56.334389 41.102261 56.934956 C 42.053848 57.535633 43.13699 57.835972 44.35181 57.835972 C 45.478844 57.835972 46.460747 57.606449 47.297623 57.147625 C 48.141289 56.68869 48.792534 56.040836 49.251358 55.20396 C 49.717079 54.360294 49.949886 53.368324 49.949886 52.227715 L 50.759727 52.379639 L 44.827602 52.379639 L 44.827602 49.79818 L 52.976696 49.79818 L 52.976696 52.156902 C 52.976696 53.898075 52.605541 55.409729 51.863235 56.692081 C 51.127602 57.967533 50.108486 58.952827 48.805996 59.647964 C 47.510181 60.343098 46.025452 60.690723 44.35181 60.690723 C 42.475677 60.690723 40.82896 60.258823 39.411762 59.394909 C 38.001244 58.531109 36.901131 57.306221 36.111542 55.720249 C 35.321945 54.127487 34.927151 52.237896 34.927151 50.051254 C 34.927151 48.397804 35.156559 46.913078 35.615498 45.597069 C 36.074436 44.281063 36.719006 43.164139 37.549095 42.246311 C 38.38586 41.321732 39.367874 40.616482 40.494911 40.130573 C 41.628731 39.637913 42.867081 39.391582 44.210068 39.391582 C 45.330429 39.391582 46.373077 39.556927 47.338123 39.887619 C 48.309956 40.218304 49.173756 40.687344 49.929638 41.294739 C 50.692307 41.902126 51.323303 42.624241 51.822739 43.461086 C 52.32206 44.291187 52.659504 45.212399 52.834957 46.224705 L 49.626019 46.224705 Z M 56.94751 60.407238 L 56.94751 39.67503 L 64.33744 39.67503 C 65.943665 39.67503 67.276474 39.951729 68.33609 40.505127 C 69.402382 41.058529 70.198753 41.824512 70.725113 42.803089 C 71.251587 43.77491 71.514709 44.898575 71.514709 46.174095 C 71.514709 47.442863 71.248192 48.559784 70.715042 49.524853 C 70.188576 50.483177 69.392303 51.228958 68.325905 51.762104 C 67.266403 52.29525 65.933479 52.561764 64.327263 52.561764 L 58.729187 52.561764 L 58.729187 49.869038 L 64.043892 49.869038 C 65.056221 49.869038 65.879524 49.723949 66.513908 49.433746 C 67.15509 49.143551 67.624092 48.721752 67.921043 48.168346 C 68.217987 47.614956 68.366402 46.950203 68.366402 46.174095 C 68.366402 45.391232 68.2146 44.712986 67.910858 44.139343 C 67.613907 43.565689 67.144905 43.127026 66.503731 42.823326 C 65.869461 42.512886 65.035973 42.35767 64.003387 42.35767 L 60.075565 42.35767 L 60.075565 60.407238 L 56.94751 60.407238 Z M 67.182014 51.053394 L 72.304298 60.407238 L 68.740952 60.407238 L 63.71991 51.053394 L 67.182014 51.053394 Z M 78.449097 39.67503 L 78.449097 60.407238 L 75.321045 60.407238 L 75.321045 39.67503 L 78.449097 39.67503 Z M 89.716179 60.407238 L 83.004524 60.407238 L 83.004524 39.67503 L 89.928726 39.67503 C 91.960182 39.67503 93.704636 40.09008 95.162445 40.920181 C 96.62014 41.74353 97.737099 42.927929 98.513237 44.473404 C 99.296036 46.012127 99.687447 47.857906 99.687447 50.010769 C 99.687447 52.170361 99.292648 54.026245 98.503059 55.578506 C 97.720245 57.130768 96.586426 58.325226 95.101692 59.162102 C 93.616966 59.992195 91.821831 60.407238 89.716179 60.407238 Z M 86.132576 57.673981 L 89.544121 57.673981 C 91.123306 57.673981 92.435966 57.377037 93.48201 56.783146 C 94.528053 56.182465 95.31086 55.315273 95.830544 54.18145 C 96.350227 53.040951 96.610069 51.650681 96.610069 50.010769 C 96.610069 48.384312 96.350227 47.004185 95.830544 45.870396 C 95.317642 44.736607 94.551697 43.876133 93.532578 43.288994 C 92.513573 42.701855 91.248184 42.408279 89.736427 42.408279 L 86.132576 42.408279 L 86.132576 57.673981 Z"/>
    </g>
</svg>
