<?xml version="1.0" encoding="UTF-8"?>
<!-- Generated by Pixelmator Pro 3.6.7 -->
<svg width="130" height="34" viewBox="0 0 130 34" xmlns="http://www.w3.org/2000/svg">
    <path id="Path" fill="#323232" stroke="none" d="M 51.520538 25.662916 C 46.765053 25.662916 43.506664 22.211916 43.506664 17.392416 C 43.506664 12.186165 46.882477 8.973166 51.22699 8.973166 C 55.630215 8.973166 58.565701 12.096916 58.653763 17.213917 L 58.653763 18.046917 L 46.970535 18.046917 C 47.205379 20.813667 48.907959 22.687916 51.549892 22.687916 C 53.340538 22.687916 54.690861 21.795418 55.219246 20.218666 L 58.595055 20.218666 C 57.802475 23.610168 55.189892 25.662916 51.520538 25.662916 Z M 47.117313 15.577665 L 55.072475 15.577665 C 54.632149 13.316668 53.252472 11.948166 51.22699 11.948166 C 49.17215 11.948166 47.645699 13.316668 47.117313 15.577665 Z M 67.550514 25.662916 C 63.294064 25.662916 60.769547 23.639915 60.564064 20.188915 L 63.910515 20.188915 C 64.027931 21.884666 65.466324 22.777166 67.37439 22.777166 C 69.135674 22.777166 70.075035 22.092916 70.075035 20.873165 C 70.075035 19.653416 69.076965 19.415417 67.726646 18.969166 L 65.671806 18.284918 C 63.088577 17.422167 60.857613 16.529667 60.857613 13.614168 C 60.857613 10.817667 62.971161 8.973166 66.699226 8.973166 C 70.309868 8.973166 72.775673 10.906916 73.186646 14.476917 L 69.898903 14.476917 C 69.722778 12.691916 68.460518 11.858915 66.669876 11.858915 C 65.143417 11.858915 64.262779 12.513416 64.262779 13.584417 C 64.262779 14.804167 65.613098 15.131416 66.728577 15.518167 L 68.607292 16.142916 C 71.689552 17.184168 73.538902 18.136168 73.538902 20.962418 C 73.538902 23.877918 71.366646 25.662916 67.550514 25.662916 Z M 83.137932 31.642666 C 78.793427 31.642666 75.799225 29.500668 75.799225 26.109167 L 79.2631 26.109167 C 79.2631 27.596668 80.818909 28.786667 83.137932 28.786667 C 85.897285 28.786667 87.335678 27.120667 87.335678 24.740665 L 87.335678 22.509417 C 86.337616 24.026669 84.605675 24.978668 82.37471 24.978668 C 78.206322 24.978668 75.212135 21.706167 75.212135 17.005667 C 75.212135 12.275415 78.206322 8.973166 82.345352 8.973166 C 84.781807 8.973166 86.748581 10.133417 87.717293 11.888666 L 88.010841 9.449165 L 90.770195 9.449165 L 90.770195 24.740665 C 90.770195 28.905666 87.864059 31.642666 83.137932 31.642666 Z M 83.049866 22.033417 C 85.574387 22.033417 87.335678 19.950916 87.335678 16.975918 C 87.335678 14.000917 85.574387 11.948166 83.049866 11.948166 C 80.525352 11.948166 78.793427 14.000917 78.793427 17.005667 C 78.793427 19.980667 80.525352 22.033417 83.049866 22.033417 Z M 97.730087 25.216667 L 94.26622 25.216667 L 94.26622 9.449165 L 97.054924 9.449165 L 97.495247 12.929914 L 102.338799 8.973166 L 104.364281 11.323416 L 97.730087 16.589167 L 97.730087 25.216667 Z M 107.837379 7.336918 C 106.575119 7.336918 105.606407 6.325417 105.606407 5.046165 C 105.606407 3.766916 106.575119 2.78516 107.837379 2.78516 C 109.12899 2.78516 110.068344 3.766916 110.068344 5.046165 C 110.068344 6.325417 109.12899 7.336918 107.837379 7.336918 Z M 109.569305 25.216667 L 106.105446 25.216667 L 106.105446 9.449165 L 109.569305 9.449165 L 109.569305 25.216667 Z M 119.499634 25.662916 C 115.301888 25.662916 112.278343 22.211916 112.278343 17.243668 C 112.278343 12.364666 115.243187 8.973166 119.382217 8.973166 C 121.583824 8.973166 123.403831 9.895418 124.489952 11.382917 L 124.489952 2.904167 L 127.953827 2.904167 L 127.953827 25.216667 L 125.165115 25.216667 L 124.842216 22.420166 C 123.961571 24.413418 122.024155 25.662916 119.499634 25.662916 Z M 120.145439 22.687916 C 122.69931 22.687916 124.489952 20.426918 124.489952 17.213917 C 124.489952 14.090166 122.728668 11.918417 120.204147 11.918417 C 117.620926 11.918417 115.830284 14.119917 115.830284 17.273417 C 115.830284 20.456665 117.591568 22.687916 120.145439 22.687916 Z"/>
    <linearGradient id="linearGradient1" x1="16.774222" y1="10.625" x2="33.548387" y2="17" gradientUnits="userSpaceOnUse">
        <stop offset="1e-05" stop-color="#8378ff" stop-opacity="0"/>
        <stop offset="0.630565" stop-color="#8378ff" stop-opacity="1"/>
    </linearGradient>
    <path id="path1" fill="none" stroke="url(#linearGradient1)" stroke-width="6.332641" d="M 33.548386 17 C 31.345657 17 29.164452 16.560266 27.129183 15.705933 C 25.094053 14.851624 23.244896 13.599403 21.687271 12.020813 C 20.12962 10.442223 18.894062 8.568142 18.051073 6.505617 C 17.208086 4.443092 16.774221 2.232471 16.774221 0"/>
    <linearGradient id="linearGradient2" x1="16.774222" y1="23.36463" x2="2.2e-05" y2="16.98963" gradientUnits="userSpaceOnUse">
        <stop offset="1e-05" stop-color="#8378ff" stop-opacity="0"/>
        <stop offset="0.630565" stop-color="#8378ff" stop-opacity="1"/>
    </linearGradient>
    <path id="path2" fill="none" stroke="url(#linearGradient2)" stroke-width="6.332641" d="M 2.2e-05 16.98963 C 2.20284 16.98963 4.384075 17.429335 6.419232 18.28367 C 8.454362 19.138004 10.303548 20.390198 11.861172 21.968819 C 13.418796 23.547409 14.654383 25.421459 15.497342 27.483984 C 16.34033 29.546566 16.774221 31.757133 16.774221 33.989517"/>
    <path id="path3" fill="none" stroke="#8378ff" stroke-width="6.332641" d="M 2.1e-05 17 C 2.20284 17 4.384075 16.560266 6.419232 15.705933 C 8.454362 14.851624 10.303548 13.599403 11.861172 12.020813 C 13.418796 10.442223 14.654383 8.568142 15.497342 6.505617 C 16.34033 4.443092 16.774221 2.232471 16.774221 0"/>
    <path id="path4" fill="none" stroke="#8378ff" stroke-width="6.332641" d="M 33.548386 17 C 31.345657 17 29.164452 17.439734 27.129183 18.294041 C 25.094027 19.148373 23.244867 20.400595 21.687243 21.979187 C 20.12962 23.557779 18.894032 25.431858 18.051044 27.494385 C 17.208057 29.557051 16.774193 31.767616 16.774193 34"/>
</svg>
