<?xml version="1.0" encoding="UTF-8"?>
<!-- Generated by Pixelmator Pro 3.5.7 -->
<svg width="110" height="110" viewBox="0 0 110 110" xmlns="http://www.w3.org/2000/svg">
    <clipPath id="clipPath1">
        <path d="M -0 43.178733 L 110 43.178733 L 110 66.821267 L -0 66.821267 Z"/>
    </clipPath>
    <g id="Group" clip-path="url(#clipPath1)">
        <path id="Path" fill="#277190" stroke="none" d="M 0.080467 66.447968 L 0.080467 43.642532 L 14.378394 43.642532 L 14.378394 46.604561 L 3.521332 46.604561 L 3.521332 53.553101 L 13.632285 53.553101 L 13.632285 56.50404 L 3.521332 56.50404 L 3.521332 63.485928 L 14.512036 63.485928 L 14.512036 66.447968 L 0.080467 66.447968 Z M 31.41284 49.633419 C 31.294128 48.579262 30.804106 47.762661 29.94302 47.183617 C 29.08181 46.597145 27.997986 46.303913 26.691425 46.303913 C 25.756052 46.303913 24.946854 46.452377 24.26396 46.749329 C 23.58094 47.038849 23.050102 47.439728 22.671574 47.951962 C 22.300385 48.456768 22.114729 49.032101 22.114729 49.677956 C 22.114729 50.219879 22.24103 50.687565 22.493382 51.081024 C 22.753201 51.474476 23.090916 51.804825 23.506653 52.072083 C 23.929853 52.331902 24.382669 52.550907 24.865227 52.729073 C 25.347782 52.899822 25.811798 53.040867 26.257149 53.152222 L 28.484276 53.731266 C 29.21172 53.909431 29.957829 54.150696 30.722477 54.455063 C 31.487127 54.759445 32.19603 55.160309 32.849312 55.657761 C 33.502594 56.155125 34.029694 56.771198 34.430622 57.506233 C 34.83889 58.241142 35.043087 59.12077 35.043087 60.145237 C 35.043087 61.436989 34.708981 62.583904 34.040894 63.586098 C 33.380146 64.588287 32.418766 65.378952 31.156752 65.957939 C 29.902205 66.537064 28.383982 66.826614 26.602329 66.826614 C 24.894966 66.826614 23.417557 66.555603 22.170475 66.013687 C 20.923269 65.471771 19.947083 64.703392 19.241787 63.708664 C 18.536617 62.70647 18.146891 61.51862 18.072603 60.145237 L 21.524536 60.145237 C 21.591358 60.969368 21.858643 61.655994 22.326391 62.205372 C 22.801481 62.747284 23.406481 63.151821 24.141392 63.419106 C 24.883768 63.678925 25.696697 63.808834 26.580055 63.808834 C 27.552637 63.808834 28.417456 63.656651 29.174637 63.352283 C 29.939287 63.040451 30.540554 62.609909 30.978563 62.060532 C 31.416573 61.503811 31.635576 60.854263 31.635576 60.111889 C 31.635576 59.436333 31.442579 58.883224 31.056583 58.452682 C 30.677931 58.022137 30.162025 57.665756 29.508745 57.383663 C 28.862804 57.101574 28.13163 56.852951 27.314966 56.63768 L 24.620214 55.902645 C 22.794016 55.405296 21.346472 54.674068 20.277454 53.708992 C 19.21578 52.743919 18.685068 51.46706 18.685068 49.878391 C 18.685068 48.564404 19.041323 47.417454 19.754086 46.437534 C 20.466719 45.457611 21.431831 44.696693 22.6493 44.154762 C 23.866764 43.605415 25.240149 43.330742 26.769445 43.330742 C 28.313551 43.330742 29.675735 43.6017 30.856119 44.143631 C 32.043846 44.685562 32.979218 45.431633 33.662239 46.381863 C 34.345257 47.324665 34.701515 48.408512 34.731255 49.633419 L 31.41284 49.633419 Z M 54.588619 50.847176 C 54.373226 50.171623 54.08379 49.566597 53.719944 49.032101 C 53.363689 48.490177 52.936752 48.029907 52.439388 47.651302 C 51.942024 47.26527 51.374104 46.972042 50.735634 46.771603 C 50.104626 46.571163 49.41053 46.470943 48.653347 46.470943 C 47.369061 46.470943 46.210953 46.801292 45.179138 47.462002 C 44.147205 48.1227 43.330669 49.09148 42.729275 50.368351 C 42.135349 51.637794 41.838451 53.19305 41.838451 55.034107 C 41.838451 56.882568 42.139084 58.445213 42.740475 59.72216 C 43.341743 60.998981 44.165749 61.967827 45.212486 62.628448 C 46.259232 63.289196 47.450687 63.619572 48.786991 63.619572 C 50.02673 63.619572 51.106823 63.367092 52.027386 62.862385 C 52.955418 62.357559 53.671787 61.64492 54.176491 60.724358 C 54.688789 59.796322 54.944878 58.705158 54.944878 57.450485 L 55.835701 57.617603 L 49.310364 57.617603 L 49.310364 54.777996 L 58.274364 54.777996 L 58.274364 57.372589 C 58.274364 59.287884 57.866096 60.950703 57.049561 62.36129 C 56.24036 63.764286 55.119335 64.848114 53.686596 65.612762 C 52.261196 66.377411 50.627998 66.759796 48.786991 66.759796 C 46.723244 66.759796 44.911858 66.284706 43.35294 65.334396 C 41.801369 64.384216 40.591244 63.036846 39.722694 61.292274 C 38.854141 59.540237 38.419865 57.461685 38.419865 55.056381 C 38.419865 53.237587 38.672218 51.604385 39.177048 50.156776 C 39.681881 48.709167 40.390907 47.480553 41.304005 46.470943 C 42.224445 45.453903 43.304661 44.678131 44.544403 44.143631 C 45.791603 43.6017 47.15379 43.330742 48.631073 43.330742 C 49.863472 43.330742 51.010384 43.512619 52.071934 43.876381 C 53.140949 44.240135 54.091133 44.756073 54.9226 45.424217 C 55.761539 46.092339 56.455635 46.886665 57.005013 47.807194 C 57.554264 48.720306 57.925453 49.733639 58.11845 50.847176 L 54.588619 50.847176 Z M 62.642262 66.447968 L 62.642262 43.642532 L 70.771187 43.642532 C 72.538033 43.642532 74.00412 43.946899 75.169693 44.555641 C 76.342613 45.164383 77.218636 46.006966 77.79763 47.083397 C 78.376747 48.152401 78.666176 49.388432 78.666176 50.791504 C 78.666176 52.187149 78.373009 53.415764 77.786545 54.477337 C 77.207428 55.531498 76.331535 56.351856 75.158493 56.938316 C 73.993042 57.524773 72.526833 57.81794 70.759987 57.81794 L 64.602104 57.81794 L 64.602104 54.855942 L 70.44828 54.855942 C 71.561844 54.855942 72.467476 54.696342 73.165298 54.377117 C 73.870598 54.057907 74.386505 53.593929 74.713142 52.985184 C 75.039787 52.37645 75.203041 51.645226 75.203041 50.791504 C 75.203041 49.930355 75.036057 49.184284 74.701942 48.55328 C 74.375305 47.92226 73.859398 47.439728 73.154106 47.105659 C 72.456406 46.764175 71.539574 46.593437 70.403732 46.593437 L 66.083122 46.593437 L 66.083122 66.447968 L 62.642262 66.447968 Z M 73.900215 56.158733 L 79.534729 66.447968 L 75.615044 66.447968 L 70.091904 56.158733 L 73.900215 56.158733 Z M 86.294006 43.642532 L 86.294006 66.447968 L 82.853149 66.447968 L 82.853149 43.642532 L 86.294006 43.642532 Z M 98.687798 66.447968 L 91.304977 66.447968 L 91.304977 43.642532 L 98.9216 43.642532 C 101.156197 43.642532 103.075104 44.099091 104.678688 45.012199 C 106.28215 45.917885 107.510811 47.220722 108.364555 48.920746 C 109.225639 50.613338 109.656189 52.6437 109.656189 55.011845 C 109.656189 57.387398 109.221916 59.428867 108.353363 61.136356 C 107.492271 62.843845 106.245064 64.157745 104.611862 65.078316 C 102.978661 65.991409 101.004021 66.447968 98.687798 66.447968 Z M 94.745834 63.44138 L 98.498528 63.44138 C 100.235634 63.44138 101.679565 63.114738 102.830215 62.46146 C 103.980858 61.800713 104.841942 60.846798 105.413597 59.599594 C 105.985252 58.345047 106.27108 56.815746 106.27108 55.011845 C 106.27108 53.22274 105.985252 51.704605 105.413597 50.457436 C 104.849411 49.210266 104.006866 48.263744 102.885834 47.617893 C 101.764931 46.972042 100.373009 46.649109 98.710068 46.649109 L 94.745834 46.649109 L 94.745834 63.44138 Z"/>
        <path id="path1" fill="#000000" fill-opacity="0.2" stroke="none" d="M 0.080467 66.447968 L 0.080467 43.642532 L 14.378394 43.642532 L 14.378394 46.604561 L 3.521332 46.604561 L 3.521332 53.553101 L 13.632285 53.553101 L 13.632285 56.50404 L 3.521332 56.50404 L 3.521332 63.485928 L 14.512036 63.485928 L 14.512036 66.447968 L 0.080467 66.447968 Z M 31.41284 49.633419 C 31.294128 48.579262 30.804106 47.762661 29.94302 47.183617 C 29.08181 46.597145 27.997986 46.303913 26.691425 46.303913 C 25.756052 46.303913 24.946854 46.452377 24.26396 46.749329 C 23.58094 47.038849 23.050102 47.439728 22.671574 47.951962 C 22.300385 48.456768 22.114729 49.032101 22.114729 49.677956 C 22.114729 50.219879 22.24103 50.687565 22.493382 51.081024 C 22.753201 51.474476 23.090916 51.804825 23.506653 52.072083 C 23.929853 52.331902 24.382669 52.550907 24.865227 52.729073 C 25.347782 52.899822 25.811798 53.040867 26.257149 53.152222 L 28.484276 53.731266 C 29.21172 53.909431 29.957829 54.150696 30.722477 54.455063 C 31.487127 54.759445 32.19603 55.160309 32.849312 55.657761 C 33.502594 56.155125 34.029694 56.771198 34.430622 57.506233 C 34.83889 58.241142 35.043087 59.12077 35.043087 60.145237 C 35.043087 61.436989 34.708981 62.583904 34.040894 63.586098 C 33.380146 64.588287 32.418766 65.378952 31.156752 65.957939 C 29.902205 66.537064 28.383982 66.826614 26.602329 66.826614 C 24.894966 66.826614 23.417557 66.555603 22.170475 66.013687 C 20.923269 65.471771 19.947083 64.703392 19.241787 63.708664 C 18.536617 62.70647 18.146891 61.51862 18.072603 60.145237 L 21.524536 60.145237 C 21.591358 60.969368 21.858643 61.655994 22.326391 62.205372 C 22.801481 62.747284 23.406481 63.151821 24.141392 63.419106 C 24.883768 63.678925 25.696697 63.808834 26.580055 63.808834 C 27.552637 63.808834 28.417456 63.656651 29.174637 63.352283 C 29.939287 63.040451 30.540554 62.609909 30.978563 62.060532 C 31.416573 61.503811 31.635576 60.854263 31.635576 60.111889 C 31.635576 59.436333 31.442579 58.883224 31.056583 58.452682 C 30.677931 58.022137 30.162025 57.665756 29.508745 57.383663 C 28.862804 57.101574 28.13163 56.852951 27.314966 56.63768 L 24.620214 55.902645 C 22.794016 55.405296 21.346472 54.674068 20.277454 53.708992 C 19.21578 52.743919 18.685068 51.46706 18.685068 49.878391 C 18.685068 48.564404 19.041323 47.417454 19.754086 46.437534 C 20.466719 45.457611 21.431831 44.696693 22.6493 44.154762 C 23.866764 43.605415 25.240149 43.330742 26.769445 43.330742 C 28.313551 43.330742 29.675735 43.6017 30.856119 44.143631 C 32.043846 44.685562 32.979218 45.431633 33.662239 46.381863 C 34.345257 47.324665 34.701515 48.408512 34.731255 49.633419 L 31.41284 49.633419 Z M 54.588619 50.847176 C 54.373226 50.171623 54.08379 49.566597 53.719944 49.032101 C 53.363689 48.490177 52.936752 48.029907 52.439388 47.651302 C 51.942024 47.26527 51.374104 46.972042 50.735634 46.771603 C 50.104626 46.571163 49.41053 46.470943 48.653347 46.470943 C 47.369061 46.470943 46.210953 46.801292 45.179138 47.462002 C 44.147205 48.1227 43.330669 49.09148 42.729275 50.368351 C 42.135349 51.637794 41.838451 53.19305 41.838451 55.034107 C 41.838451 56.882568 42.139084 58.445213 42.740475 59.72216 C 43.341743 60.998981 44.165749 61.967827 45.212486 62.628448 C 46.259232 63.289196 47.450687 63.619572 48.786991 63.619572 C 50.02673 63.619572 51.106823 63.367092 52.027386 62.862385 C 52.955418 62.357559 53.671787 61.64492 54.176491 60.724358 C 54.688789 59.796322 54.944878 58.705158 54.944878 57.450485 L 55.835701 57.617603 L 49.310364 57.617603 L 49.310364 54.777996 L 58.274364 54.777996 L 58.274364 57.372589 C 58.274364 59.287884 57.866096 60.950703 57.049561 62.36129 C 56.24036 63.764286 55.119335 64.848114 53.686596 65.612762 C 52.261196 66.377411 50.627998 66.759796 48.786991 66.759796 C 46.723244 66.759796 44.911858 66.284706 43.35294 65.334396 C 41.801369 64.384216 40.591244 63.036846 39.722694 61.292274 C 38.854141 59.540237 38.419865 57.461685 38.419865 55.056381 C 38.419865 53.237587 38.672218 51.604385 39.177048 50.156776 C 39.681881 48.709167 40.390907 47.480553 41.304005 46.470943 C 42.224445 45.453903 43.304661 44.678131 44.544403 44.143631 C 45.791603 43.6017 47.15379 43.330742 48.631073 43.330742 C 49.863472 43.330742 51.010384 43.512619 52.071934 43.876381 C 53.140949 44.240135 54.091133 44.756073 54.9226 45.424217 C 55.761539 46.092339 56.455635 46.886665 57.005013 47.807194 C 57.554264 48.720306 57.925453 49.733639 58.11845 50.847176 L 54.588619 50.847176 Z M 62.642262 66.447968 L 62.642262 43.642532 L 70.771187 43.642532 C 72.538033 43.642532 74.00412 43.946899 75.169693 44.555641 C 76.342613 45.164383 77.218636 46.006966 77.79763 47.083397 C 78.376747 48.152401 78.666176 49.388432 78.666176 50.791504 C 78.666176 52.187149 78.373009 53.415764 77.786545 54.477337 C 77.207428 55.531498 76.331535 56.351856 75.158493 56.938316 C 73.993042 57.524773 72.526833 57.81794 70.759987 57.81794 L 64.602104 57.81794 L 64.602104 54.855942 L 70.44828 54.855942 C 71.561844 54.855942 72.467476 54.696342 73.165298 54.377117 C 73.870598 54.057907 74.386505 53.593929 74.713142 52.985184 C 75.039787 52.37645 75.203041 51.645226 75.203041 50.791504 C 75.203041 49.930355 75.036057 49.184284 74.701942 48.55328 C 74.375305 47.92226 73.859398 47.439728 73.154106 47.105659 C 72.456406 46.764175 71.539574 46.593437 70.403732 46.593437 L 66.083122 46.593437 L 66.083122 66.447968 L 62.642262 66.447968 Z M 73.900215 56.158733 L 79.534729 66.447968 L 75.615044 66.447968 L 70.091904 56.158733 L 73.900215 56.158733 Z M 86.294006 43.642532 L 86.294006 66.447968 L 82.853149 66.447968 L 82.853149 43.642532 L 86.294006 43.642532 Z M 98.687798 66.447968 L 91.304977 66.447968 L 91.304977 43.642532 L 98.9216 43.642532 C 101.156197 43.642532 103.075104 44.099091 104.678688 45.012199 C 106.28215 45.917885 107.510811 47.220722 108.364555 48.920746 C 109.225639 50.613338 109.656189 52.6437 109.656189 55.011845 C 109.656189 57.387398 109.221916 59.428867 108.353363 61.136356 C 107.492271 62.843845 106.245064 64.157745 104.611862 65.078316 C 102.978661 65.991409 101.004021 66.447968 98.687798 66.447968 Z M 94.745834 63.44138 L 98.498528 63.44138 C 100.235634 63.44138 101.679565 63.114738 102.830215 62.46146 C 103.980858 61.800713 104.841942 60.846798 105.413597 59.599594 C 105.985252 58.345047 106.27108 56.815746 106.27108 55.011845 C 106.27108 53.22274 105.985252 51.704605 105.413597 50.457436 C 104.849411 49.210266 104.006866 48.263744 102.885834 47.617893 C 101.764931 46.972042 100.373009 46.649109 98.710068 46.649109 L 94.745834 46.649109 L 94.745834 63.44138 Z"/>
    </g>
</svg>
