<svg width="150" height="60" viewBox="0 0 150 60" fill="none" xmlns="http://www.w3.org/2000/svg">
<path fill-rule="evenodd" clip-rule="evenodd" d="M46.2485 6.72764C44.2627 2.43167 40.8989 0 37.1298 0C36.4003 0 35.6708 0.0810608 34.9819 0.24317C32.5502 0.810558 30.3616 2.39116 28.7811 4.62019C27.1194 7.01134 26.2278 10.0509 26.2278 13.3742V45.9181C26.2278 53.3347 31.0506 59.3329 36.9677 59.3329C41.831 59.3329 45.9649 55.3611 47.2617 49.6467C51.1119 49.2414 54.4353 46.8097 56.2995 42.9596C58.3664 38.7042 58.1638 33.6382 55.8942 29.6664C57.11 27.559 57.7585 25.1273 57.7585 22.6551C57.7585 19.0076 56.3805 15.5222 53.9894 13.05C52.1251 11.1452 49.7745 9.96987 47.2617 9.68618C47.0186 8.67298 46.6944 7.65977 46.2485 6.72764ZM42.7632 17.6702V7.54033C41.1115 4.51623 38.5365 3.12937 35.7519 3.76909C32.7528 4.4986 29.7132 7.74083 29.7132 13.3337V26.7484H42.3432C42.6828 25.9436 43.4472 25.3705 44.3438 25.3705C45.5597 25.3705 46.5323 26.3837 46.5323 27.6806C46.5323 28.9775 45.5597 29.9907 44.3438 29.9907C43.4408 29.9907 42.6718 29.4317 42.336 28.6127H29.7132V45.9181C29.7132 50.6691 32.0463 53.9651 34.7387 55.1547V39.4206C34.038 39.0402 33.5634 38.2727 33.5634 37.3667C33.5634 36.1104 34.536 35.0566 35.7519 35.0566C36.6095 35.0566 37.3462 35.5608 37.7058 36.313H54.2738C54.2209 34.2991 53.6017 32.3197 52.4493 30.6796L51.6793 29.5854L52.4493 28.4911C53.6652 26.789 54.3137 24.7626 54.3137 22.5741C54.3137 19.9397 53.3005 17.3865 51.5577 15.6032C49.9772 13.9821 47.9508 13.131 45.8838 13.2121L44.7085 13.2724V19.6966H39.2565C38.901 20.4586 38.1581 20.9935 37.2918 20.9935C36.076 20.9935 35.1034 19.9803 35.1034 18.6834C35.1034 17.427 36.076 16.3733 37.2918 16.3733C38.1648 16.3733 38.9125 16.8956 39.2647 17.6702H42.7632ZM36.5218 39.5334V55.6249C36.6708 55.6382 36.8195 55.6448 36.9677 55.6448C40.4126 55.6448 43.4927 52.2 44.1006 47.5798L44.3033 45.9587L45.8433 45.9992H46.0459C49.0855 45.9992 51.7604 44.216 53.2194 41.2169C53.6859 40.261 53.9959 39.2475 54.1539 38.2178H37.7912C37.5663 38.8295 37.104 39.3071 36.5218 39.5334Z" fill="#00689E"/>
<path fill-rule="evenodd" clip-rule="evenodd" d="M9.48974 53.6995C11.1109 57.2254 13.8668 59.2113 16.9469 59.2113C17.5549 59.2113 18.1222 59.1302 18.6491 59.0492C20.6349 58.5628 22.4182 57.2659 23.7151 55.4422C25.093 53.4968 25.8225 50.9841 25.8225 48.2687V21.5609C25.8225 15.5222 21.8913 10.5778 17.028 10.5778C13.0562 10.5778 9.65191 13.8606 8.59815 18.5213C5.43695 18.8455 2.7216 20.8313 1.18152 23.9925C-0.520635 27.4779 -0.358563 31.6523 1.50576 34.8945C0.53313 36.5967 0.00624751 38.6231 0.00624751 40.6495C0.00624751 43.608 1.14105 46.4855 3.12688 48.5119C4.66696 50.0925 6.57175 51.0247 8.63871 51.2678C8.84135 52.1189 9.12503 52.9295 9.48974 53.6995ZM10.7461 48.2789V43.3244H16.3235C16.6303 42.5142 17.3864 41.9464 18.2843 41.9464C19.4596 41.9464 20.3917 42.9191 20.3917 44.1349C20.3917 45.3507 19.4596 46.3234 18.2843 46.3234C17.3715 46.3234 16.6053 45.7366 16.3086 44.9049H12.2457V52.8136C13.6026 55.4101 15.7688 56.6303 18.0816 56.0906C20.5539 55.4827 23.0261 52.8484 23.0261 48.2282V37.2857H13.0782C12.7424 38.1047 11.9734 38.6636 11.0703 38.6636C9.85445 38.6636 8.88182 37.6099 8.88182 36.3535C8.88182 35.0566 9.85445 34.0434 11.0703 34.0434C12.0881 34.0434 12.9356 34.7535 13.1846 35.7456H23.0261V21.5203C23.0261 17.6228 21.1122 14.9089 18.8923 13.9344V26.457C19.7667 26.7562 20.3918 27.6136 20.3918 28.6532C20.3918 29.9501 19.4191 30.9633 18.2032 30.9633C17.2474 30.9633 16.442 30.3122 16.1411 29.4233H2.9089C2.96758 31.054 3.48308 32.6499 4.42375 33.9624L5.07224 34.854L4.42375 35.7456C3.41055 37.1236 2.88367 38.8257 2.88367 40.609C2.88367 42.7975 3.69423 44.8644 5.11271 46.3234C6.40968 47.6203 8.07126 48.3498 9.77342 48.3093L10.7461 48.2789ZM17.4333 26.4866C16.8255 26.7227 16.3486 27.2327 16.1358 27.8832H2.99004C3.11481 27.0066 3.37493 26.1426 3.77536 25.3299C4.95063 22.8983 7.1391 21.4393 9.65191 21.4393H9.81398L11.0704 21.4798L11.2325 20.1424C11.7188 16.3733 14.2315 13.5363 17.0684 13.5363C17.1897 13.5363 17.3114 13.5417 17.4333 13.5525V26.4866Z" fill="#00689E"/>
<path d="M98.8538 21.3177C99.0564 21.3177 99.1375 21.2366 99.1375 21.115V19.7776C99.1375 19.656 99.0564 19.575 98.8538 19.575H92.2477C92.0857 19.575 91.964 19.656 91.964 19.7776V29.5854C91.964 29.707 92.0857 29.788 92.2477 29.788H98.8538C99.0564 29.788 99.1375 29.707 99.1375 29.5854V28.329C99.1375 28.2074 99.0564 28.1264 98.8538 28.1264H94.3552V25.5326H97.8C97.9622 25.5326 98.0838 25.4515 98.0838 25.3299V24.0736C98.0838 23.952 97.9622 23.8709 97.8 23.8709H94.3552V21.3177H98.8538Z" fill="#00689E"/>
<path d="M107.77 19.656C108.054 19.656 108.135 19.7776 108.054 19.9803L103.555 28.2074H107.527C107.689 28.2074 107.811 28.2885 107.811 28.4101V29.6664C107.811 29.788 107.689 29.8691 107.527 29.8691H100.515C100.232 29.8691 100.151 29.7475 100.232 29.5448L104.73 21.3582H101.002C100.84 21.3582 100.718 21.2771 100.718 21.1556V19.8992C100.718 19.7776 100.84 19.6966 101.002 19.6966H107.77V19.656Z" fill="#00689E"/>
<path d="M111.62 19.8587C111.62 19.7371 111.499 19.656 111.336 19.656H109.472C109.27 19.656 109.189 19.7371 109.189 19.8587V29.6664C109.189 29.788 109.27 29.8691 109.472 29.8691H111.336C111.499 29.8691 111.62 29.788 111.62 29.6664V19.8587Z" fill="#00689E"/>
<path d="M115.592 19.656C115.754 19.656 115.876 19.7371 115.876 19.8587V29.6664C115.876 29.788 115.754 29.8691 115.592 29.8691H113.728C113.525 29.8691 113.444 29.788 113.444 29.6664V19.8587C113.444 19.7371 113.525 19.656 113.728 19.656H115.592Z" fill="#00689E"/>
<path d="M124.427 28.1669H120.131V19.8181C120.131 19.6966 120.05 19.6155 119.847 19.6155H117.983C117.821 19.6155 117.699 19.6966 117.699 19.8181V29.6259C117.699 29.7475 117.821 29.8285 117.983 29.8285H124.427C124.63 29.8285 124.711 29.7475 124.711 29.6259V28.3695C124.711 28.248 124.63 28.1669 124.427 28.1669Z" fill="#00689E"/>
<path fill-rule="evenodd" clip-rule="evenodd" d="M67.4852 37.2857C67.7689 37.2452 68.1742 37.2046 68.6605 37.2046C69.2684 37.2046 69.7143 37.3262 69.9979 37.6099C70.2411 37.8531 70.4032 38.1773 70.4032 38.5826C70.4032 39.0284 70.2816 39.3526 70.0385 39.5958C69.7143 39.92 69.1874 40.1226 68.5795 40.1226C68.4174 40.1226 68.2147 40.1226 68.0931 40.0821V41.9869H67.4852V37.2857ZM68.0931 39.5552C68.2147 39.5958 68.3768 39.5958 68.5795 39.5958C69.309 39.5958 69.7548 39.231 69.7548 38.5826C69.7548 37.9746 69.309 37.6504 68.6605 37.6504C68.5459 37.6504 68.4445 37.657 68.359 37.6649L68.2923 37.6716L68.2224 37.6794L68.2203 37.6796C68.1951 37.6825 68.1724 37.6851 68.1526 37.6871L68.1208 37.6898C68.1104 37.6906 68.1012 37.691 68.0931 37.691V39.5552Z" fill="#00689E"/>
<path fill-rule="evenodd" clip-rule="evenodd" d="M72.389 37.2046C71.9433 37.2046 71.538 37.2046 71.2138 37.2857V41.9059H71.8217V39.8795H72.389C72.9159 39.92 73.1996 40.1632 73.3212 40.8116C73.3438 40.8962 73.3647 40.977 73.3844 41.0535C73.4065 41.1396 73.4269 41.2204 73.4459 41.2957C73.5313 41.6344 73.5884 41.8608 73.6454 41.9464H74.2939C74.2128 41.7438 74.0913 41.2979 73.9291 40.6495C73.8075 40.1632 73.6049 39.8389 73.2402 39.7174V39.6768C73.7265 39.5147 74.1318 39.0689 74.1318 38.461C74.1318 38.0962 74.0102 37.772 73.7671 37.5694C73.4428 37.3262 73.0375 37.2046 72.389 37.2046ZM72.4296 39.4337H71.7811V37.691C71.8292 37.691 71.89 37.6846 71.9635 37.6769L71.9644 37.6769C72.0164 37.6714 72.075 37.6653 72.1397 37.6604C72.1777 37.6575 72.2179 37.6549 72.2602 37.6532C72.3011 37.6514 72.344 37.6504 72.389 37.6504C73.0375 37.6504 73.4834 37.9341 73.4834 38.5421C73.4834 39.0689 73.0781 39.4337 72.4296 39.4337Z" fill="#00689E"/>
<path fill-rule="evenodd" clip-rule="evenodd" d="M78.9952 39.5147C78.9952 41.1358 78.0225 41.9869 76.8066 41.9869C75.5503 41.9869 74.6992 41.0142 74.6992 39.5958C74.6992 38.0962 75.6314 37.1236 76.8877 37.1236C78.1847 37.1641 78.9952 38.1368 78.9952 39.5147ZM75.3477 39.5958C75.3477 40.609 75.8745 41.5006 76.8472 41.5006C77.8198 41.5006 78.3467 40.609 78.3467 39.5552C78.3467 38.6231 77.8604 37.6504 76.8472 37.6504C75.8745 37.6504 75.3477 38.5826 75.3477 39.5958Z" fill="#00689E"/>
<path fill-rule="evenodd" clip-rule="evenodd" d="M81.1025 37.2046C80.6162 37.2046 80.1704 37.2452 79.8057 37.2857V41.9464C79.8363 41.9464 79.868 41.9469 79.9006 41.9477C79.9272 41.9484 79.9545 41.9493 79.9824 41.9505C80.0604 41.9536 80.1434 41.9583 80.2312 41.9633C80.3314 41.9689 80.4379 41.9749 80.5509 41.9794C80.6612 41.9839 80.7775 41.9869 80.8999 41.9869C81.7915 41.9869 82.521 41.7438 82.9669 41.2979C83.4126 40.8927 83.6558 40.2442 83.6558 39.4742C83.6558 38.7042 83.4126 38.1368 83.0073 37.772C82.6021 37.4073 81.9941 37.2046 81.1025 37.2046ZM81.0215 41.5006C80.7783 41.5006 80.5757 41.5006 80.4136 41.4601V37.772C80.5757 37.7315 80.8189 37.691 81.1431 37.691C82.44 37.691 83.0479 38.4205 83.0479 39.5147C83.0479 40.7711 82.3184 41.5006 81.0215 41.5006Z" fill="#00689E"/>
<path d="M85.0744 37.2452V40.0416C85.0744 41.0953 85.5607 41.5411 86.1686 41.5411C86.8576 41.5411 87.3034 41.0953 87.3034 40.0416V37.2452H87.9114V40.001C87.9114 41.4601 87.1413 42.0274 86.1281 42.0274C85.1554 42.0274 84.4259 41.4601 84.4259 40.001V37.2452H85.0744Z" fill="#00689E"/>
<path d="M91.0319 42.0274C91.5993 42.0274 92.0451 41.9059 92.2883 41.7843L92.2073 41.2979C91.964 41.4195 91.5993 41.5006 91.2345 41.5006C90.0593 41.5006 89.4108 40.7305 89.4108 39.5958C89.4108 38.3394 90.1403 37.6504 91.2345 37.6504C91.5993 37.6504 91.9235 37.7315 92.1667 37.8531L92.3288 37.3667C92.1667 37.2857 91.7614 37.1641 91.1941 37.1641C89.735 37.1641 88.7218 38.1773 88.7218 39.6363C88.7218 41.1764 89.6944 42.0274 91.0319 42.0274Z" fill="#00689E"/>
<path d="M94.112 37.7315H92.6936V37.2452H96.179V37.7315H94.72V41.9464H94.112V37.7315Z" fill="#00689E"/>
<path d="M96.7059 37.2452H97.3138V41.9464H96.7059V37.2452Z" fill="#00689E"/>
<path fill-rule="evenodd" clip-rule="evenodd" d="M102.42 39.5147C102.42 41.1358 101.448 41.9869 100.232 41.9869C98.9755 41.9869 98.1244 41.0142 98.1244 39.5958C98.1244 38.0962 99.0565 37.1236 100.313 37.1236C101.569 37.1641 102.42 38.1368 102.42 39.5147ZM98.7323 39.5958C98.7323 40.609 99.2592 41.5006 100.232 41.5006C101.205 41.5006 101.731 40.609 101.731 39.5552C101.731 38.6231 101.245 37.6504 100.232 37.6504C99.2592 37.6504 98.7323 38.5826 98.7323 39.5958Z" fill="#00689E"/>
<path d="M103.19 37.2452V41.9464H103.677V39.92C103.677 39.15 103.677 38.5826 103.636 37.9746H103.677C103.919 38.4999 104.242 39.0251 104.566 39.5504L104.568 39.5552L106.068 41.9464H106.676V37.2452H106.108V39.231C106.108 39.8926 106.142 40.4208 106.178 40.9971L106.189 41.1764C105.946 40.69 105.703 40.2037 105.338 39.6363L103.839 37.2452H103.19Z" fill="#00689E"/>
<path d="M109.877 37.2452H109.269V41.9464H109.877V37.2452Z" fill="#00689E"/>
<path d="M110.931 37.2452V41.9464H111.418V39.92C111.418 39.15 111.418 38.5826 111.377 37.9746H111.418C111.66 38.5003 111.983 39.026 112.307 39.5517L112.309 39.5552L113.809 41.9464H114.417V37.2452H113.849V39.231C113.849 39.8934 113.882 40.4222 113.919 40.9993L113.919 41.0055L113.928 41.1728C113.686 40.6877 113.443 40.2023 113.079 39.6363L111.58 37.2452H110.931Z" fill="#00689E"/>
<path d="M116.443 37.7315H115.024V37.2452H118.51V37.7315H117.051V41.9464H116.443V37.7315Z" fill="#00689E"/>
<path d="M119.645 39.7174H121.468V39.231H119.645V37.7315H121.55V37.2452H119.037V41.9464H121.671V41.4195H119.645V39.7174Z" fill="#00689E"/>
<path d="M122.441 37.2452H123.049V41.4195H125.075V41.9464H122.441V37.2452Z" fill="#00689E"/>
<path d="M126.372 37.2452H125.764V41.9464H128.399V41.4195H126.372V37.2452Z" fill="#00689E"/>
<path d="M129.655 37.2452H129.047V41.9464H129.655V37.2452Z" fill="#00689E"/>
<path d="M134.268 41.7574L134.316 41.7438H134.275V39.4742H132.735V39.9605H133.708V41.379C133.586 41.4601 133.303 41.5006 132.897 41.5006C131.803 41.5006 131.074 40.7711 131.074 39.5958C131.074 38.4205 131.844 37.691 132.978 37.691C133.465 37.691 133.789 37.772 134.032 37.8936L134.194 37.4073C133.992 37.3262 133.546 37.2046 133.019 37.2046C131.438 37.2046 130.466 38.2178 130.466 39.6363C130.466 40.3658 130.709 40.9737 131.114 41.379C131.56 41.8248 132.127 41.9869 132.857 41.9869C133.471 41.9869 133.975 41.8417 134.268 41.7574Z" fill="#00689E"/>
<path d="M137.68 39.7174H135.856V41.4195H137.882V41.9464H135.248V37.2452H137.801V37.7315H135.856V39.231H137.68V39.7174Z" fill="#00689E"/>
<path d="M138.693 37.2452V41.9464H139.179V39.92C139.179 39.15 139.179 38.5826 139.139 37.9746H139.179C139.422 38.5015 139.747 39.0284 140.071 39.5552L141.57 41.9464H142.178V37.2452H141.611V39.231C141.611 39.8934 141.644 40.4222 141.681 40.9993L141.681 41.0055L141.692 41.1764C141.449 40.69 141.206 40.2037 140.841 39.6363L139.341 37.2452H138.693Z" fill="#00689E"/>
<path d="M146.596 41.7843C146.353 41.9059 145.907 42.0274 145.339 42.0274C144.002 42.0274 143.029 41.1764 143.029 39.6363C143.029 38.1773 144.043 37.1641 145.502 37.1641C146.069 37.1641 146.474 37.2857 146.636 37.3667L146.474 37.8531C146.231 37.7315 145.907 37.6504 145.542 37.6504C144.448 37.6504 143.718 38.3394 143.718 39.5958C143.718 40.7305 144.367 41.5006 145.542 41.5006C145.907 41.5006 146.272 41.4195 146.515 41.2979L146.596 41.7843Z" fill="#00689E"/>
<path d="M147.933 39.7174H149.797V39.231H147.933V37.7315H149.878V37.2452H147.325V41.9464H150V41.4195H147.933V39.7174Z" fill="#00689E"/>
</svg>
