<?xml version="1.0" encoding="UTF-8"?>
<!-- Generated by Pixelmator Pro 3.2.3 -->
<svg width="150" height="38" viewBox="0 0 150 38" xmlns="http://www.w3.org/2000/svg" xmlns:xlink="http://www.w3.org/1999/xlink">
    <path id="Path" fill="#6e11e8" stroke="none" d="M 16.698425 24.036186 L 16.698425 19.345564 L 4.932283 19.345564 L 4.932283 9.69475 L 21.446457 9.69475 L 21.446457 5.004128 L 0 5.004128 L 0 37.354 L 4.932283 37.354 L 4.932283 24.036186 L 16.698425 24.036186 Z M 31.872047 15.571686 C 36.48307 15.571686 38.788582 18.105812 39.10984 22.580311 L 24.098032 22.580311 C 24.741732 17.889687 27.583466 15.571686 31.872047 15.571686 Z M 32.087009 37.946564 C 38.467323 37.946564 42.060238 34.765247 43.346458 29.805063 L 39.218506 28.565313 C 38.361023 31.5305 36.591732 33.848499 32.087009 33.848499 C 27.315355 33.848499 24.473623 31.152874 23.990551 26.246124 L 43.399605 26.246124 C 43.507084 25.059814 43.507084 24.035 43.507084 23.226313 C 43.507084 16.325752 39.485432 11.527063 32.032677 11.527063 C 24.419291 11.527063 19.325197 16.540689 19.325197 24.951748 C 19.325197 33.201313 24.36496 37.945377 32.085827 37.945377 Z M 51.094486 37.352814 L 51.094486 25.533627 C 51.094486 20.681501 53.18504 16.227188 57.903545 16.227188 L 62.017323 16.227188 L 62.017323 12.17425 L 58.600395 12.17425 C 54.578739 12.17425 52.220081 14.061188 51.200787 19.938126 L 51.093307 19.938126 L 51.093307 12.17425 L 46.429134 12.17425 L 46.429134 37.352814 L 51.093307 37.352814 Z"/>
    <path id="path1" fill="#6e11e8" stroke="none" d="M 62.521656 29.858498 C 62.521656 34.549126 64.827164 38 70.081886 38 C 72.387398 38 73.727951 37.677002 75.444092 37.137875 L 74.854721 32.824875 C 73.514175 33.202499 72.388588 33.472061 71.048027 33.472061 C 68.259445 33.472061 67.187004 32.01619 67.187004 29.212502 L 67.187004 16.217688 L 71.164955 16.217688 C 73.384254 16.217688 75.181892 14.405563 75.17598 12.174248 L 67.187004 12.174248 L 67.187004 5.219063 L 62.522835 5.219063 L 62.522835 12.174248 L 58.823624 12.174248 L 58.823624 16.217688 L 62.522835 16.217688 L 62.522835 29.858498 Z M 83.396461 9.045189 L 83.396461 4.302311 L 78.088577 4.302311 L 78.088577 9.044001 L 83.396461 9.044001 Z M 83.020866 37.352814 L 83.020866 12.174248 L 78.409843 12.174248 L 78.409843 37.352814 L 83.020866 37.352814 Z M 94.952362 11.689751 C 94.952362 8.669939 96.185432 7.052561 99.242126 7.052561 C 100.260239 7.052561 101.172043 7.160625 102.29882 7.375563 L 102.727554 3.816628 C 101.762596 3.600498 100.529526 3.385563 98.705902 3.385563 C 93.022446 3.385563 90.288193 6.728374 90.288193 11.688562 L 90.288193 12.174248 L 85.945274 12.174248 L 85.945274 16.217688 L 90.288193 16.217688 L 90.288193 37.352814 L 94.952362 37.352814 L 94.952362 16.217688 L 101.922043 16.217688 L 101.923225 12.174248 L 94.952362 12.174248 L 94.952362 11.688562 Z M 111.257477 33.956562 C 107.61142 33.956562 106.378349 32.123062 106.378349 30.182688 C 106.378349 27.97275 108.094482 26.786436 111.257477 26.786436 L 118.710243 26.786436 L 118.710243 27.97275 C 118.710243 31.423626 115.8685 33.957752 111.257477 33.957752 Z M 118.710243 37.352814 L 123.374413 37.352814 L 123.374413 21.663563 C 123.374413 15.194063 120.372047 11.635126 113.402359 11.635126 C 106.807091 11.635126 103.375984 14.924501 102.518509 20.800251 L 106.968903 21.447439 C 107.665749 17.295937 109.649994 15.625126 113.24173 15.625126 C 117.209053 15.625126 118.710243 17.781624 118.710243 21.718187 L 118.710243 23.066 L 110.613777 23.066 C 104.554726 23.066 101.767326 26.355375 101.767326 30.776438 C 101.767326 35.5205 104.930321 37.893124 109.809448 37.893124 C 114.152367 37.893124 117.530319 35.575127 118.655907 30.937937 L 118.709061 30.937937 L 118.709061 37.354 Z M 150 0 C 150.00032 1.310581 149.482635 2.567574 148.560898 3.494293 C 147.639175 4.421017 146.388962 4.941505 145.085434 4.941185 L 138 4.941185 L 138 12.061438 L 145.199997 12.061438 L 145.199997 16.866062 L 138 16.866062 L 138 24.078938 L 133.199997 24.078938 L 133.199997 16.866062 L 126 16.866062 L 126 12.061438 L 133.199997 12.061438 L 133.199997 4.849751 L 137.909058 4.849751 C 137.907883 2.17194 140.068115 0 142.732681 0 L 150 0 Z"/>
</svg>
