<?xml version="1.0" encoding="UTF-8"?>
<svg width="150px" height="28px" viewBox="0 0 150 28" xmlns="http://www.w3.org/2000/svg" xmlns:xlink="http://www.w3.org/1999/xlink" version="1.1">
 <!-- Generated by Pixelmator Pro 2.0.8 -->
 <path id="Path" d="M14.315 0 L22.904 0 17.178 8.4 8.589 8.4 Z" fill="#2cb89c" fill-opacity="1" stroke="none"/>
 <path id="Path-1" d="M14.315 11.2 L22.904 11.2 17.178 19.6 8.589 19.6 Z" fill="#2cb89c" fill-opacity="1" stroke="none"/>
 <path id="Path-2" d="M0 8.4 L8.589 0 8.589 19.6 0 28 Z" fill="#2cb89c" fill-opacity="1" stroke="none"/>
 <path id="Path-3" d="M33.675 8.205 C32.805 8.205 31.977 8.205 31.132 8.205 31.132 7.579 31.132 6.97 31.132 6.344 L33.667 6.344 C33.667 6.235 33.667 6.143 33.667 6.06 33.684 5.359 33.641 4.649 33.718 3.957 33.903 2.337 34.841 1.252 36.32 0.601 37.3 0.159 38.339 0.017 39.404 0 39.429 0 39.455 0.008 39.497 0.017 L39.497 1.995 C39.176 2.02 38.855 2.037 38.542 2.087 37.739 2.195 36.996 2.446 36.413 3.038 36.024 3.431 35.813 3.915 35.796 4.457 35.779 5.075 35.796 5.693 35.796 6.335 L39.505 6.335 39.505 8.205 C38.28 8.205 37.046 8.205 35.796 8.205 L35.796 19.683 C35.086 19.683 34.393 19.683 33.684 19.683 33.675 15.86 33.675 12.045 33.675 8.205 Z" fill="#273038" fill-opacity="1" stroke="none"/>
 <path id="Path-4" d="M82.089 8.205 C81.244 8.205 80.416 8.205 79.588 8.205 79.588 7.579 79.588 6.97 79.588 6.335 L82.089 6.335 C82.089 5.242 82.089 4.174 82.089 3.088 L84.226 3.088 84.226 6.327 88.291 6.327 88.291 8.205 C86.938 8.205 85.596 8.205 84.226 8.205 L84.226 8.464 84.226 16.018 C84.226 17.212 84.869 17.871 86.077 17.938 86.787 17.971 87.48 17.896 88.164 17.704 88.198 17.696 88.232 17.688 88.282 17.679 88.291 17.729 88.299 17.779 88.299 17.821 L88.299 19.365 C88.299 19.457 88.308 19.541 88.181 19.574 86.719 19.941 85.274 20.041 83.88 19.357 82.85 18.848 82.292 17.971 82.14 16.853 82.097 16.577 82.089 16.302 82.089 16.018 82.089 13.506 82.089 10.993 82.089 8.489 82.089 8.397 82.089 8.314 82.089 8.205 Z" fill="#273038" fill-opacity="1" stroke="none"/>
 <path id="Path-5" d="M60.983 17.679 C60.265 18.522 59.386 19.098 58.355 19.432 56.074 20.167 53.852 20.05 51.765 18.831 49.974 17.788 48.96 16.177 48.639 14.157 48.36 12.404 48.613 10.718 49.56 9.174 50.616 7.446 52.179 6.452 54.207 6.202 56.066 5.968 57.764 6.394 59.209 7.596 60.417 8.598 61.127 9.9 61.414 11.41 61.541 12.078 61.541 12.763 61.591 13.439 61.608 13.639 61.541 13.706 61.321 13.706 57.891 13.698 54.469 13.698 51.038 13.698 50.945 13.698 50.861 13.698 50.768 13.698 50.776 14.841 51.604 16.36 53.083 17.195 54.857 18.205 57.899 18.13 59.378 16.319 59.901 16.778 60.434 17.22 60.983 17.679 Z M50.81 11.795 L59.335 11.795 C59.04 9.841 57.493 8.155 55.085 8.155 52.644 8.155 51.123 9.925 50.81 11.795 Z" fill="#273038" fill-opacity="1" stroke="none"/>
 <path id="Path-6" d="M66.526 13.706 C66.779 15.434 67.666 16.703 69.246 17.37 71.409 18.28 73.429 18.046 75.195 16.352 75.701 16.778 76.234 17.228 76.775 17.679 76.47 18.063 76.107 18.38 75.71 18.656 74.73 19.332 73.632 19.691 72.457 19.816 71.071 19.966 69.711 19.824 68.427 19.265 66.154 18.28 64.827 16.544 64.439 14.132 64.16 12.379 64.422 10.684 65.368 9.148 66.424 7.437 67.987 6.444 70.007 6.194 71.866 5.96 73.564 6.386 75.008 7.588 76.217 8.589 76.927 9.891 77.214 11.402 77.341 12.062 77.349 12.738 77.392 13.414 77.408 13.698 77.383 13.698 77.104 13.698 73.682 13.698 70.26 13.698 66.838 13.698 66.754 13.706 66.661 13.706 66.526 13.706 Z M75.144 11.795 C74.806 9.708 73.133 7.972 70.497 8.163 68.215 8.33 66.864 10.125 66.627 11.795 Z" fill="#273038" fill-opacity="1" stroke="none"/>
 <path id="Path-7" d="M44.786 19.683 C44.085 19.683 43.392 19.683 42.69 19.683 42.69 13.188 42.69 6.703 42.69 0.2 L44.786 0.2 Z" fill="#273038" fill-opacity="1" stroke="none"/>
 <path id="Path-8" d="M92.621 24.065 C93.12 23.572 93.611 23.097 94.109 22.604 94.489 23.021 94.962 23.355 95.495 23.597 97.632 24.557 101.02 23.915 102.296 21.243 102.575 20.667 102.735 20.058 102.752 19.415 102.769 18.889 102.752 18.364 102.752 17.821 102.482 18.063 102.237 18.305 101.975 18.514 98.95 20.951 93.652 20.217 92.022 15.709 91.211 13.472 91.346 11.252 92.563 9.174 93.577 7.446 95.131 6.452 97.133 6.21 99.279 5.943 101.13 6.578 102.642 8.13 102.668 8.155 102.693 8.172 102.752 8.23 102.752 7.571 102.752 6.962 102.752 6.344 L104.881 6.344 C104.89 6.394 104.898 6.444 104.898 6.486 104.898 10.759 104.915 15.025 104.89 19.299 104.873 22.287 102.955 24.791 100.049 25.651 98.173 26.202 96.314 26.185 94.497 25.4 93.779 25.083 93.146 24.641 92.621 24.065 Z M93.652 13.038 C93.695 13.405 93.72 13.773 93.779 14.132 94.168 16.327 95.917 17.846 98.147 17.863 100.057 17.88 101.451 17.011 102.263 15.309 102.904 13.956 102.93 12.546 102.423 11.143 101.181 7.671 96.998 7.354 94.996 9.491 94.066 10.484 93.695 11.694 93.652 13.038 Z" fill="#273038" fill-opacity="1" stroke="none"/>
 <path id="Path-9" d="M119.828 6.335 L121.949 6.335 121.949 19.674 C121.256 19.674 120.555 19.674 119.828 19.674 119.828 19.148 119.828 18.622 119.828 18.055 119.752 18.113 119.71 18.147 119.667 18.18 118.62 19.132 117.378 19.641 115.975 19.808 114.809 19.95 113.652 19.883 112.545 19.465 110.66 18.748 109.672 17.354 109.503 15.384 109.478 15.067 109.478 14.741 109.478 14.424 109.478 11.819 109.478 9.207 109.478 6.603 109.478 6.519 109.478 6.436 109.478 6.344 L111.616 6.344 111.616 6.594 111.616 14.833 C111.616 15.843 111.979 16.661 112.84 17.237 113.39 17.604 114.015 17.771 114.666 17.829 115.764 17.93 116.829 17.804 117.817 17.262 119.05 16.586 119.71 15.534 119.82 14.148 119.837 13.973 119.837 13.798 119.837 13.631 119.837 11.294 119.837 8.956 119.837 6.619 119.828 6.536 119.828 6.444 119.828 6.335 Z" fill="#273038" fill-opacity="1" stroke="none"/>
 <path id="Path-10" d="M128.675 19.683 C127.948 19.683 127.255 19.683 126.545 19.683 126.545 15.242 126.545 10.801 126.545 6.352 L128.666 6.352 128.666 8.147 C130.204 6.719 132.028 6.169 134.065 6.152 L134.065 8.147 C133.753 8.172 133.431 8.18 133.119 8.222 131.843 8.381 130.668 8.781 129.73 9.699 129.029 10.384 128.675 11.227 128.675 12.204 L128.675 19.44 Z" fill="#273038" fill-opacity="1" stroke="none"/>
 <path id="Path-11" d="M139.658 6.344 L139.658 6.603 139.658 14.824 C139.658 15.834 140.013 16.669 140.892 17.245 141.441 17.612 142.066 17.779 142.717 17.838 143.807 17.938 144.872 17.813 145.843 17.279 147.085 16.602 147.778 15.551 147.854 14.157 147.905 13.188 147.871 12.212 147.879 11.235 147.879 9.691 147.879 8.147 147.879 6.603 147.879 6.519 147.879 6.436 147.879 6.344 L150 6.344 150 19.674 C149.299 19.674 148.598 19.674 147.879 19.674 147.879 19.14 147.879 18.622 147.879 18.055 147.803 18.113 147.769 18.147 147.736 18.172 146.679 19.132 145.421 19.657 144.001 19.816 142.733 19.958 141.492 19.874 140.317 19.357 138.611 18.606 137.732 17.262 137.554 15.451 137.52 15.108 137.52 14.766 137.52 14.432 137.52 11.828 137.52 9.215 137.52 6.611 137.52 6.527 137.52 6.444 137.52 6.352 138.238 6.344 138.932 6.344 139.658 6.344 Z" fill="#273038" fill-opacity="1" stroke="none"/>
</svg>
