<?xml version="1.0" encoding="UTF-8"?>
<svg width="150px" height="55px" viewBox="0 0 150 55" xmlns="http://www.w3.org/2000/svg" xmlns:xlink="http://www.w3.org/1999/xlink" version="1.1">
 <!-- Generated by Pixelmator Pro 2.0.1 -->
 <path id="Path" d="M0 42.528 L0 -0 28.362 -0 28.362 7.496 9.189 7.496 9.189 17.244 26.34 17.244 26.34 24.74 9.189 24.74 9.189 42.528 Z" fill="#231f20" fill-opacity="1" stroke="none"/>
 <path id="Path-1" d="M54.819 11.087 L64.07 11.087 49.188 47.585 Q47.775 51.181 45.389 52.948 43.003 54.715 39.082 54.715 L32.831 54.715 32.831 47.707 39.143 47.707 C39.923 47.731 40.627 47.245 40.879 46.511 L42.415 42.365 29.672 11.107 39.399 11.107 44.007 24.348 46.884 33.484 47.396 33.484 50.094 24.312 Z" fill="#231f20" fill-opacity="1" stroke="none"/>
 <path id="Path-2" d="M67.623 10.542 L76.715 10.542 76.715 15.955 77.078 15.955 C77.619 14.185 78.691 12.621 80.15 11.474 81.753 10.309 83.706 9.718 85.689 9.798 87.694 9.74 89.666 10.316 91.321 11.443 92.94 12.64 94.123 14.329 94.689 16.256 L94.874 16.256 C95.512 14.356 96.774 12.726 98.457 11.626 100.289 10.392 102.46 9.753 104.672 9.798 Q109.326 9.798 111.809 13.119 114.292 16.439 114.292 22.474 L114.292 42.518 105.23 42.518 105.23 23.212 Q105.23 20.111 104.16 18.629 103.09 17.147 100.823 17.137 C99.463 17.1 98.133 17.53 97.055 18.354 96 19.192 95.418 20.486 95.493 21.827 L95.493 42.544 86.442 42.544 86.442 23.212 Q86.442 20.111 85.336 18.629 C84.555 17.611 83.313 17.05 82.029 17.137 80.682 17.111 79.367 17.54 78.297 18.354 77.235 19.181 76.645 20.471 76.715 21.812 L76.715 42.528 67.623 42.528 Z" fill="#231f20" fill-opacity="1" stroke="none"/>
 <path id="Path-3" d="M144.676 42.528 C143.027 42.603 141.405 42.084 140.109 41.067 138.917 40.034 138.2 38.563 138.123 36.993 L137.816 36.993 C137.354 38.928 136.143 40.604 134.447 41.657 132.561 42.778 130.392 43.339 128.196 43.272 Q123.543 43.272 120.788 40.771 118.034 38.271 118.029 33.886 118.029 24.21 132.241 24.21 L137.324 24.21 137.324 22.626 Q137.324 19.764 135.978 18.359 134.631 16.953 131.57 16.958 C130.004 16.899 128.451 17.25 127.065 17.977 125.802 18.723 124.708 19.72 123.85 20.905 L118.889 16.515 C120.104 14.545 121.889 12.985 124.009 12.039 Q127.505 10.363 132.584 10.363 139.136 10.363 142.751 13.378 146.365 16.393 146.365 22.244 L146.365 33.957 C146.368 35.101 147.299 36.027 148.449 36.03 L149.857 36.03 149.857 42.549 Z M135.732 36.162 C136.784 35.387 137.381 34.143 137.324 32.842 L137.324 29.063 132.486 29.063 Q129.788 29.063 128.35 30.006 C127.406 30.609 126.858 31.667 126.911 32.781 L126.911 33.998 C126.861 34.992 127.337 35.941 128.166 36.499 129.208 37.118 130.413 37.415 131.626 37.349 133.089 37.414 134.532 36.996 135.732 36.163 Z" fill="#231f20" fill-opacity="1" stroke="none"/>
</svg>
