<?xml version="1.0" encoding="UTF-8"?>
<svg width="150px" height="30px" viewBox="0 0 150 30" xmlns="http://www.w3.org/2000/svg" xmlns:xlink="http://www.w3.org/1999/xlink" version="1.1">
 <!-- Generated by Pixelmator Pro 1.5.5 -->
 <g id="group">
  <path id="Path" d="M52.819 10.392 C53.524 10.414 53.939 10.927 53.927 11.476 L53.923 11.65 C54.833 10.81 56.064 10.392 57.615 10.392 59.322 10.392 60.829 11.11 62.143 12.541 63.103 13.743 63.581 15.008 63.581 16.34 L63.581 21.828 C63.581 22.399 63.26 22.904 62.461 22.904 L62.345 22.904 C61.625 22.904 61.225 22.375 61.225 21.738 L61.225 16.909 C61.225 14.902 60.386 13.589 58.707 12.966 58.299 12.86 57.934 12.805 57.615 12.805 L57.491 12.805 C56.088 12.805 54.996 13.55 54.222 15.036 54.024 15.474 53.927 16.215 53.927 17.255 L53.927 21.784 C53.927 22.399 53.511 22.904 52.807 22.904 L52.725 22.904 C52.097 22.904 51.571 22.506 51.571 21.725 L51.571 11.709 C51.572 10.787 52.078 10.37 52.819 10.392 Z M67.969 5.471 C68.744 5.469 69.106 6.054 69.106 6.731 L69.106 10.653 70.838 10.652 C71.425 10.652 71.97 10.97 71.978 11.76 71.986 12.437 71.561 12.943 70.913 12.946 L69.106 12.947 69.106 18.828 C69.106 20.405 69.561 20.561 70.711 20.559 L71.166 20.559 C71.718 20.559 72.281 20.939 72.281 21.678 72.281 22.47 71.783 22.905 71.073 22.905 L70.268 22.905 C68.256 22.905 66.797 21.733 66.797 19.151 L66.797 12.947 65.733 12.945 C65.068 12.939 64.527 12.489 64.52 11.772 64.513 11.016 65.091 10.667 65.548 10.652 L66.797 10.652 66.797 6.728 C66.797 5.883 67.288 5.468 67.969 5.471 Z M79.467 10.369 C76.147 10.369 73.33 13.228 73.33 16.629 73.33 20.044 75.839 22.904 79.467 22.904 80.515 22.904 81.495 22.726 82.409 22.169 82.99 21.815 83.387 21.238 83.079 20.516 82.831 19.935 82.109 19.647 81.514 19.929 80.756 20.287 80.102 20.468 79.549 20.468 78.133 20.468 76.425 19.609 76.008 18.15 L84.535 18.15 C85.352 18.15 85.686 17.453 85.686 16.719 85.686 13.233 82.948 10.369 79.467 10.369 Z M75.802 15.761 C75.924 14.232 77.564 12.81 79.577 12.829 81.304 12.845 83.112 14.088 83.26 15.761 Z M88.76 10.298 C89.543 10.305 89.876 10.854 89.876 11.382 L89.876 11.567 C90.816 10.72 92.044 10.298 93.552 10.298 94.293 10.298 95.091 10.471 95.945 10.816 96.651 11.1 96.817 11.811 96.617 12.313 96.427 12.792 95.936 13.272 95.232 13.052 94.553 12.839 94.049 12.734 93.723 12.734 L93.474 12.734 C91.939 12.734 90.816 13.542 90.105 15.162 89.953 15.584 89.875 16.077 89.875 16.64 L89.875 21.773 C89.875 22.396 89.506 22.901 88.736 22.905 87.967 22.907 87.519 22.461 87.519 21.726 L87.519 11.626 C87.52 10.735 87.977 10.291 88.76 10.298 Z M102.976 10.392 C99.449 10.392 96.8 13.193 96.8 16.609 96.8 19.931 99.299 22.904 102.79 22.904 L103.12 22.904 C104.636 22.904 105.949 22.373 106.781 21.583 L106.781 21.803 C106.772 22.259 107.119 22.896 107.96 22.899 108.802 22.903 109.136 22.288 109.136 21.784 L109.136 16.782 C109.136 13.295 106.48 10.392 102.976 10.392 Z M106.781 16.782 C106.781 19.023 105.082 20.516 103.132 20.516 L102.805 20.516 C100.695 20.516 99.156 18.633 99.156 16.562 99.156 14.469 100.937 12.781 102.976 12.781 105.048 12.781 106.781 14.481 106.781 16.609 L106.781 16.782 Z M117.048 10.345 C118.515 10.345 119.868 10.867 121.104 11.913 121.609 12.34 121.791 12.951 121.415 13.554 120.947 14.305 120.148 14.103 119.539 13.681 118.772 13.15 118.061 12.74 116.923 12.758 114.885 12.79 113.211 14.604 113.211 16.664 113.211 18.867 115.025 20.516 117.141 20.516 117.955 20.516 118.746 20.129 119.627 19.527 120.142 19.175 120.926 19.086 121.438 19.763 121.95 20.44 121.572 21.06 121.003 21.558 119.991 22.446 118.234 22.91 116.834 22.905 113.53 22.931 110.856 19.875 110.856 16.625 110.857 13.216 113.709 10.345 117.048 10.345 Z M143.729 10.44 C140.208 10.454 137.555 13.293 137.596 16.672 137.638 20.139 140.207 22.905 143.511 22.905 L143.853 22.905 C147.131 22.905 149.861 20.006 149.861 16.672 149.861 13.3 147.055 10.427 143.729 10.44 Z M143.853 20.491 L143.604 20.491 C141.436 20.491 139.974 18.665 139.974 16.546 139.974 14.547 141.697 12.852 143.682 12.852 145.706 12.852 147.483 14.448 147.483 16.546 147.483 18.665 146.021 20.491 143.853 20.491 Z M134.178 6.839 C134.904 6.839 135.493 7.436 135.493 8.173 135.493 8.91 134.904 9.507 134.178 9.507 133.451 9.507 132.862 8.91 132.862 8.173 132.862 7.437 133.452 6.839 134.178 6.839 Z M135.355 13.278 L135.355 11.613 C135.355 10.923 134.977 10.323 134.159 10.318 133.341 10.313 133 10.885 133 11.634 L133 13.326 133 21.726 C133 22.473 133.492 22.905 134.15 22.905 L134.216 22.905 C134.984 22.905 135.355 22.396 135.355 21.773 Z M48.588 8.423 L48.588 6.757 C48.588 6.068 48.209 5.467 47.391 5.462 46.574 5.457 46.233 6.031 46.233 6.779 L46.233 8.47 46.233 21.726 C46.233 22.473 46.725 22.905 47.383 22.905 L47.449 22.905 C48.217 22.905 48.588 22.396 48.588 21.773 L48.588 8.423 Z M126.233 5.471 C127.007 5.469 127.369 6.054 127.369 6.731 L127.369 10.653 129.101 10.652 C129.688 10.652 130.233 10.97 130.241 11.76 130.249 12.437 129.824 12.943 129.176 12.946 L127.369 12.947 127.369 18.828 C127.369 20.405 127.824 20.561 128.975 20.559 L129.43 20.559 C129.982 20.559 130.544 20.939 130.544 21.678 130.544 22.47 130.047 22.905 129.336 22.905 L128.531 22.905 C126.519 22.905 125.061 21.733 125.061 19.151 L125.061 12.947 123.996 12.945 C123.332 12.939 122.791 12.489 122.784 11.772 122.777 11.016 123.355 10.667 123.811 10.652 L125.061 10.652 125.061 6.728 C125.061 5.883 125.552 5.468 126.233 5.471 Z" fill="#231f20" fill-opacity="1" stroke="none"/>
  <path id="Path-1" d="M3.545 18.97 C2.994 18.848 2.294 18.893 1.819 19.202 1.342 19.512 0.705 20.06 0.585 20.622 0.465 21.181 0.326 21.891 0.631 22.372 0.937 22.856 1.842 23.317 2.396 23.439 2.947 23.56 3.769 23.393 4.243 23.084 4.72 22.773 5.053 22.164 5.173 21.602 5.293 21.044 5.25 20.333 4.945 19.852 4.639 19.368 4.099 19.092 3.545 18.97 Z M9.061 27.906 C8.801 27.849 8.54 27.901 8.327 28.032 8.1 28.172 7.988 28.402 7.928 28.684 7.811 29.23 8.085 29.937 8.634 29.895 9.129 29.857 9.654 29.441 9.827 29.117 10.09 28.626 9.599 28.025 9.061 27.906 Z M6.227 24.304 C5.796 24.209 5.343 24.106 4.972 24.348 4.598 24.591 4.033 25.157 3.939 25.596 3.845 26.034 4.048 26.494 4.287 26.871 4.527 27.249 5.084 27.39 5.517 27.486 5.949 27.581 6.402 27.498 6.774 27.256 7.147 27.013 7.407 26.695 7.502 26.255 7.595 25.817 7.514 25.296 7.276 24.92 7.036 24.54 6.661 24.4 6.227 24.304 Z M21.968 10.879 C21.295 9.131 20.715 7.943 19.378 6.613 18.077 5.318 15.614 3.868 13.849 3.407 12.024 2.93 10.089 3.06 8.27 3.497 6.588 3.9 5.21 4.777 3.899 5.888 2.215 7.314 1.349 8.833 0.659 10.949 0.264 12.156 0.384 13.388 0.093 14.295 -0.074 14.817 -0.016 15.562 0.271 16.026 0.561 16.491 1.327 16.935 1.85 17.052 2.371 17.169 3.149 17.008 3.598 16.711 4.049 16.412 4.364 15.825 4.478 15.285 4.825 13.637 4.335 13.431 5.462 11.452 5.839 10.789 6.35 10.094 6.92 9.585 7.278 9.265 7.711 9.016 8.128 8.782 9.18 8.19 10.242 7.817 11.457 7.817 13.328 7.817 15.255 8.501 16.597 9.85 18.851 12.113 18.008 12.757 18.234 14.934 18.293 15.502 18.713 16.239 19.157 16.596 19.603 16.954 20.288 17.078 20.86 17.013 21.43 16.948 22.092 16.678 22.453 16.23 22.816 15.779 22.907 15.172 22.849 14.6 22.786 13.997 22.155 11.366 21.968 10.879 Z M8.709 18.313 C8.581 17.889 8.361 15.914 8.36 15.377 8.359 14.832 8.588 14.155 8.914 13.719 9.242 13.281 9.771 12.887 10.302 12.811 10.83 12.736 11.599 12.925 12.019 13.253 12.442 13.584 12.947 14.313 13.013 14.856 13.122 15.743 12.75 15.949 13.114 17.004 13.52 18.18 14.278 19.158 15.19 19.974 16.495 21.14 18.161 21.778 19.9 21.778 20.809 21.778 21.87 21.607 22.71 21.257 24.181 20.641 25.256 19.706 26.043 18.298 26.508 17.467 26.97 16.417 26.774 15.473 26.663 14.941 26.797 14.148 27.093 13.698 27.391 13.246 28.076 12.684 28.607 12.579 29.137 12.475 29.988 12.689 30.384 13.063 30.865 13.519 31.224 13.868 31.273 14.644 31.364 16.045 30.941 16.224 30.055 19.091 29.53 20.364 28.883 21.615 27.934 22.617 27.054 23.547 26.027 24.443 24.886 25.023 23.338 25.811 21.654 26.463 19.9 26.463 19.049 26.463 18.141 26.471 17.302 26.31 16.526 26.161 15.783 25.858 15.061 25.541 12.344 24.35 10.225 22.446 9.144 19.609 8.987 19.193 8.838 18.74 8.709 18.313 Z M28.407 11.012 C28.958 11.134 29.717 11.052 30.192 10.743 30.669 10.433 31.053 10.071 31.174 9.114 31.245 8.547 31.14 8.069 30.835 7.588 30.529 7.104 29.928 6.851 29.375 6.728 28.823 6.607 28.123 6.527 27.649 6.837 27.172 7.147 26.839 7.633 26.719 8.195 26.599 8.754 26.646 9.344 26.886 9.884 27.127 10.426 27.748 10.951 28.407 11.012 Z M23.011 2.073 C23.549 2.192 24.21 1.78 24.327 1.234 24.444 0.689 23.977 0.142 23.439 0.023 22.901 -0.095 22.544 0.256 22.427 0.802 22.31 1.346 22.473 1.955 23.011 2.073 Z M25.845 5.676 C26.276 5.771 26.729 5.689 27.1 5.447 27.474 5.204 27.917 4.823 28.011 4.384 28.105 3.946 28.023 3.302 27.785 2.925 27.545 2.546 27.049 2.405 26.615 2.31 26.184 2.215 25.67 2.297 25.299 2.539 24.926 2.782 24.665 3.224 24.571 3.664 24.477 4.102 24.558 4.561 24.797 4.938 25.036 5.316 25.411 5.58 25.845 5.676 Z" fill="#c0617d" fill-opacity="1" stroke="none"/>
 </g>
</svg>
