<svg width="130" height="53" viewBox="0 0 130 53" xmlns="http://www.w3.org/2000/svg" xmlns:xlink="http://www.w3.org/1999/xlink">
    <g id="Group">
        <path id="Path" fill="#177e85" stroke="none" d="M 99.016083 15.898235 C 99.016083 15.534298 99.016083 15.149166 98.986214 14.766682 C 98.479393 7.342266 93.658852 1.896515 86.27784 0.377182 C 79.733917 -0.970783 72.670006 2.652649 69.564056 8.895164 C 68.444122 11.145901 68.091011 13.504402 68.020744 15.898235 L 68.038307 36.823517 C 68.038307 37.188332 68.038307 37.569935 68.070816 37.952415 C 68.57412 45.376831 73.394661 50.822582 80.77655 52.341919 C 87.32399 53.68988 94.383514 50.069099 97.489456 43.823933 C 98.60939 41.572315 98.963379 39.214699 99.036285 36.823517 L 99.016083 15.898235 Z M 82.795067 45.228432 C 78.566551 44.82563 75.587097 41.948616 75.251549 37.736 C 75.227837 37.440083 75.207634 37.119431 75.192703 36.81115 L 75.201485 15.898235 C 75.240135 15.067898 75.359596 14.241985 75.554596 13.433735 C 76.630608 9.504669 80.239861 7.09935 84.250542 7.481834 C 88.481689 7.8811 91.457634 10.758999 91.794052 14.97073 C 91.80899 15.134148 91.817772 15.300217 91.826553 15.462746 L 91.811623 37.125618 C 91.769402 37.854385 91.658821 38.577515 91.481354 39.285366 C 90.415001 43.216202 86.804863 45.618866 82.794189 45.240799 L 82.794189 45.228432 Z M 129.973648 14.979568 L 129.973648 11.910866 C 129.973648 8.127552 128.261688 5.064152 124.740265 2.543118 C 122.541695 0.96637 119.604385 0.101585 116.463318 0.101585 C 107.876289 0.101585 102.54277 5.469601 102.54277 14.111248 C 102.54277 20.724766 104.75013 24.481583 109.909729 26.676668 C 111.642769 27.416901 113.569931 28.110317 115.269592 28.726 C 116.448387 29.147352 117.538452 29.543966 118.431755 29.911432 C 121.77047 31.304449 122.26236 32.904167 122.26236 37.679466 C 122.26236 39.29155 122.26236 40.956635 121.843384 42.318733 C 120.883316 45.352982 118.32811 45.761967 115.95034 45.761967 C 111.418785 45.761967 109.809593 42.751564 109.809593 40.174 L 109.809593 33.337002 L 102.122025 38.009834 L 102.122025 40.086552 C 102.122025 50.005501 111.171082 52.627232 115.956482 52.627232 C 125.247101 52.627232 129.956085 47.542767 129.956085 37.517815 C 129.956085 30.1994 128.747437 26.259733 121.867096 23.711319 C 120.777023 23.305868 118.952637 22.662798 117.344322 22.094816 L 116.10405 21.658447 C 111.258919 19.919167 110.210136 19.078232 110.210136 14.106834 C 110.210136 9.366867 112.193512 6.978336 116.10405 6.978336 C 118.902565 6.978336 122.244804 8.163769 122.244804 13.884235 L 122.244804 14.977802 L 129.973648 14.98045 Z M 64.437836 39.294201 C 61.891365 41.229057 59.120571 42.845623 56.186352 44.108364 C 50.363583 46.572865 44.547836 45.645367 39.095741 42.381451 C 35.147434 40.011467 31.902702 36.814682 28.593853 33.674435 C 25.559053 30.794765 19.458715 25.053099 17.305811 23.897701 C 25.829596 18.795567 30.871487 11.614067 32.501755 2.160633 C 32.645813 1.476933 32.74419 0.783516 32.796017 0.086567 L 18.15081 0.086567 L 18.15081 6.254883 L 23.136486 6.254883 C 21.40081 12.029232 12.732095 19.355602 7.428446 19.423615 L 7.428446 0.098934 L 0.235405 0.098934 L 0.235405 47.672619 L 7.428446 47.672619 L 7.428446 42.499817 C 7.446014 39.033615 7.395946 29.464466 7.395946 29.464466 C 14.467771 29.464466 18.065607 33.478333 18.065607 33.478333 C 21.415743 36.778465 24.044731 39.353382 27.112026 42.200363 C 31.05419 45.859135 35.271282 49.153965 40.410675 50.972752 C 48.805336 53.935448 57.226353 52.578648 64.386894 47.243317 L 64.44838 47.19915 L 64.436958 39.294201 Z"/>
        <path id="path1" fill="#177e85" stroke="none" d="M 64.572227 17.637516 C 64.478241 16.079315 64.528305 14.497269 64.277977 12.964684 C 63.119392 6.216015 57.550472 0.9487 50.891487 0.196098 C 50.254509 0.125469 49.613918 0.093021 48.97311 0.098934 C 48.332771 0.092751 47.69331 0.125431 47.058243 0.196098 C 40.389595 0.9487 34.831215 6.216015 33.673512 12.965569 C 33.414391 14.497269 33.461826 16.079315 33.379257 17.637516 C 33.107838 22.904833 34.481621 27.550283 38.465069 31.069483 C 41.706284 33.928833 45.242634 35.320969 48.975742 35.232635 C 52.708851 35.320969 56.253986 33.928833 59.489929 31.069483 C 63.467228 27.550283 64.840134 22.904833 64.572227 17.637516 Z M 57.161346 20.937649 C 56.66946 24.946217 53.00135 27.908916 48.975742 27.832066 C 44.947502 27.9151 41.275879 24.940033 40.787502 20.937649 C 40.55912 18.958981 40.531891 16.963535 40.704933 14.979568 C 40.999187 11.267799 43.079189 8.822731 46.539124 7.833401 C 48.125229 7.323887 49.829773 7.323887 51.415878 7.833401 C 54.868782 8.822731 56.932098 11.267799 57.243916 14.979568 C 57.413933 16.963398 57.386276 18.959351 57.161346 20.937649 Z"/>
    </g>
</svg>
