<svg width="148" height="60" xmlns="http://www.w3.org/2000/svg"><g fill="#177E85" fill-rule="nonzero"><path d="M112.726 17.998c0-.412 0-.848-.034-1.281-.577-8.405-6.065-14.57-14.468-16.29-7.45-1.526-15.492 2.576-19.028 9.643-1.275 2.548-1.677 5.218-1.757 7.928l.02 23.689c0 .413 0 .845.037 1.278.573 8.405 6.061 14.57 14.465 16.29 7.454 1.526 15.491-2.573 19.027-9.643 1.275-2.549 1.678-5.218 1.761-7.925l-.023-23.689ZM94.259 51.202c-4.814-.456-8.206-3.713-8.588-8.482-.027-.335-.05-.698-.067-1.047l.01-23.675c.044-.94.18-1.875.402-2.79 1.225-4.448 5.334-7.171 9.9-6.738 4.817.452 8.205 3.71 8.588 8.478.017.185.027.373.037.557l-.017 24.524a13.122 13.122 0 0 1-.376 2.445c-1.214 4.45-5.324 7.17-9.89 6.742v-.014ZM147.97 16.958v-3.474c0-4.283-1.949-7.751-5.958-10.605-2.503-1.785-5.847-2.764-9.423-2.764-9.776 0-15.848 6.077-15.848 15.86 0 7.487 2.513 11.74 8.387 14.225 1.973.838 4.167 1.623 6.102 2.32 1.342.477 2.583.926 3.6 1.342 3.801 1.577 4.361 3.388 4.361 8.794 0 1.825 0 3.71-.477 5.252-1.093 3.435-4.002 3.898-6.709 3.898-5.159 0-6.991-3.408-6.991-6.326V37.74l-8.752 5.29v2.351c0 11.229 10.302 14.197 15.75 14.197 10.577 0 15.938-5.756 15.938-17.105 0-8.285-1.376-12.745-9.209-15.63-1.241-.459-3.318-1.187-5.149-1.83l-1.412-.494c-5.516-1.969-6.71-2.921-6.71-8.549 0-5.366 2.258-8.07 6.71-8.07 3.186 0 6.991 1.342 6.991 7.818v1.238l8.799.003ZM73.36 44.484a44.86 44.86 0 0 1-9.394 5.45c-6.629 2.79-13.25 1.74-19.457-1.955-4.495-2.683-8.189-6.302-11.956-9.857-3.455-3.26-10.4-9.76-12.851-11.068 9.704-5.776 15.444-13.906 17.3-24.608.164-.774.276-1.559.335-2.348H20.664v6.983h5.676c-1.976 6.537-11.845 14.831-17.883 14.908V.112H.268v53.857h8.189v-5.856c.02-3.924-.037-14.757-.037-14.757 8.051 0 12.147 4.544 12.147 4.544 3.814 3.736 6.807 6.651 10.299 9.874 4.488 4.142 9.289 7.872 15.14 9.931 9.557 3.354 19.144 1.818 27.296-4.222l.07-.05-.013-8.949Z"/><path d="M73.513 19.967c-.107-1.764-.05-3.555-.335-5.29-1.319-7.64-7.659-13.603-15.24-14.455a18.388 18.388 0 0 0-2.184-.11c-.729-.007-1.457.03-2.18.11-7.592.852-13.92 6.815-15.238 14.456-.295 1.734-.241 3.525-.335 5.289-.309 5.963 1.255 11.222 5.79 15.206 3.69 3.237 7.716 4.813 11.966 4.713 4.25.1 8.286-1.476 11.97-4.713 4.528-3.984 6.091-9.243 5.786-15.206Zm-8.437 3.736c-.56 4.538-4.736 7.892-9.319 7.805-4.586.094-8.766-3.274-9.322-7.805-.26-2.24-.291-4.499-.094-6.745.335-4.202 2.703-6.97 6.642-8.09a9.123 9.123 0 0 1 5.552 0c3.931 1.12 6.28 3.888 6.635 8.09a33.816 33.816 0 0 1-.094 6.745Z"/></g></svg>
