<?xml version="1.0" encoding="UTF-8"?>
<!-- Generated by Pixelmator Pro 3.5.7 -->
<svg width="110" height="110" viewBox="0 0 110 110" xmlns="http://www.w3.org/2000/svg">
    <g id="Group">
        <path id="Path" fill="#000000" stroke="none" d="M 0 54.965607 L 0 110 L 55.034393 110 L 110.068787 110 L 110.068787 54.965607 L 110.068787 -0.068787 L 55.034393 -0.068787 L 0 -0.068787 L 0 54.965607 Z M 23.004377 35.524704 L 23.045652 39.624763 L 27.21451 39.666046 L 31.369606 39.693558 L 31.369606 41.96373 L 31.369606 44.233902 L 28.879299 44.261414 L 26.402752 44.302689 L 29.883678 49.049404 C 31.809881 51.663544 33.419636 53.878677 33.48843 53.961227 C 33.570984 54.098812 32.993122 54.140091 30.791744 54.140091 L 27.998751 54.140091 L 25.590994 50.85178 C 24.270168 49.035648 23.141964 47.549717 23.086929 47.549717 C 23.018137 47.535961 22.976862 49.021889 22.976862 50.838024 L 22.976862 54.140091 L 20.706692 54.140091 L 18.436523 54.140091 L 18.436523 42.789246 L 18.436523 31.4384 L 20.706692 31.4384 L 22.976862 31.4384 L 23.004377 35.524704 Z M 69.618515 35.565979 L 69.618515 39.693558 L 71.063164 39.693558 L 72.50782 39.693558 L 72.50782 42.032516 L 72.50782 44.371483 L 71.063164 44.371483 L 69.618515 44.371483 L 69.618515 53.314575 L 69.618515 62.257664 L 73.746094 62.257664 L 77.873672 62.257664 L 77.873672 64.596619 L 77.873672 66.935585 L 75.465912 66.963104 L 73.058159 67.004379 L 76.635399 71.86116 C 78.602875 74.530334 80.212631 76.745468 80.212631 76.786743 C 80.212631 76.814255 78.974358 76.841774 77.460915 76.841774 L 74.70919 76.841774 L 74.200127 76.181366 C 73.911194 75.823639 72.78299 74.296432 71.682304 72.796753 L 69.687302 70.072548 L 69.646034 73.457161 L 69.618515 76.841774 L 67.375862 76.814255 L 65.146965 76.77298 L 65.10569 60.565353 L 65.078178 44.371483 L 64.115067 44.371483 L 63.15197 44.371483 L 63.15197 42.032516 L 63.15197 39.693558 L 64.115067 39.693558 L 65.078178 39.693558 L 65.078178 35.565979 L 65.078178 31.4384 L 67.348343 31.4384 L 69.618515 31.4384 L 69.618515 35.565979 Z M 80.762978 35.565979 L 80.762978 39.693558 L 82.207634 39.693558 L 83.652283 39.693558 L 83.652283 42.032516 L 83.652283 44.371483 L 82.207634 44.371483 L 80.762978 44.371483 L 80.762978 49.255783 L 80.762978 54.140091 L 78.534081 54.112572 L 76.291428 54.071293 L 76.25016 49.214512 L 76.222641 44.371483 L 75.259537 44.371483 L 74.296432 44.371483 L 74.296432 42.032516 L 74.296432 39.693558 L 75.259537 39.693558 L 76.222641 39.693558 L 76.222641 35.565979 L 76.222641 31.4384 L 78.492813 31.4384 L 80.762978 31.4384 L 80.762978 35.565979 Z M 54.360226 39.776108 C 54.772984 39.89994 55.48843 40.202621 55.969982 40.464043 L 56.823017 40.931831 L 56.823017 40.312698 L 56.823017 39.693558 L 59.161976 39.693558 L 61.500938 39.693558 L 61.500938 46.916824 L 61.500938 54.140091 L 59.161976 54.140091 L 56.823017 54.140091 L 56.823017 53.520954 L 56.823017 52.901817 L 55.969982 53.383362 C 51.030643 56.093807 45.004379 52.502811 44.99062 46.84803 C 44.99062 43.656036 47.329578 40.615379 50.452782 39.762352 C 51.388367 39.500938 53.452156 39.514702 54.360226 39.776108 Z M 39.624767 40.17511 C 39.624767 40.436523 39.638523 40.656662 39.666042 40.656662 C 39.762352 40.656662 43.559723 39.817383 43.793621 39.748596 C 44.01376 39.679802 44.027515 39.831146 44 42.183861 L 43.958725 44.701691 L 41.894936 45.073166 C 40.766731 45.279549 39.789867 45.458412 39.734837 45.458412 C 39.666042 45.472176 39.624767 47.425888 39.624767 49.806129 L 39.624767 54.140091 L 37.354595 54.140091 L 35.084427 54.140091 L 35.084427 46.916824 L 35.084427 39.693558 L 37.354595 39.693558 L 39.624767 39.693558 L 39.624767 40.17511 Z M 47.756096 62.587868 C 52.901817 64.37648 54.387741 70.953094 50.50782 74.777985 C 49.434647 75.837402 48.554096 76.33271 47.109444 76.704193 C 45.77486 77.048157 44.89431 77.048157 43.559723 76.704193 C 42.101315 76.33271 41.234524 75.837402 40.17511 74.777985 C 37.354595 71.957474 37.203251 67.637276 39.831146 64.637894 C 41.757347 62.436523 44.949345 61.611008 47.756096 62.587868 Z M 88.371483 62.532833 C 89.444649 62.863041 90.545341 63.606003 91.09568 64.348969 C 91.480927 64.899307 91.728584 65.504684 91.604752 65.628517 C 91.57724 65.669792 90.476547 65.766106 89.183243 65.862411 C 86.968102 66.013763 86.803001 66 86.637894 65.779861 C 86.514076 65.614761 86.321449 65.545967 85.991241 65.587242 C 85.619766 65.614761 85.482178 65.711067 85.385864 66.013763 C 85.179489 66.577866 85.495934 66.798004 87.779861 67.62352 C 88.880547 68.022514 90.105064 68.572861 90.517822 68.834274 C 92.925575 70.430267 93.049408 73.209503 90.806755 75.232025 C 87.697311 78.038773 81.94622 77.240776 80.226395 73.787369 C 79.9925 73.319572 79.799873 72.86554 79.799873 72.78299 C 79.799873 72.576614 80.43277 72.480301 82.482803 72.370232 C 83.322075 72.328949 84.161346 72.246399 84.381493 72.218887 C 84.656662 72.163849 84.780487 72.205124 84.835526 72.397751 C 85.303314 73.691055 87.091934 73.498436 87.091934 72.150101 C 87.091934 71.44841 86.803001 71.255783 84.656662 70.444031 C 82.042526 69.467163 80.996872 68.655411 80.51532 67.224518 C 80.061287 65.889931 80.707947 64.29393 82.083801 63.358349 C 83.789871 62.17511 86.197624 61.858662 88.371483 62.532833 Z M 23.307068 66.619141 C 23.829893 68.958099 24.270168 70.870544 24.283926 70.898064 C 24.311445 70.925583 24.930582 69.948715 25.673546 68.737961 L 27.035646 66.536583 L 27.599751 66.522827 L 28.177612 66.522827 L 29.553471 68.737961 C 30.557848 70.333954 30.956848 70.8843 31.011881 70.691681 C 31.053156 70.554092 31.479677 68.655411 31.974985 66.481552 C 32.456535 64.29393 32.896809 62.477798 32.924328 62.450283 C 32.951847 62.409004 34.025017 62.409004 35.318325 62.422764 L 37.643524 62.464043 L 36.116322 69.288307 C 35.26329 73.03064 34.534084 76.277679 34.47905 76.470291 L 34.3965 76.841774 L 32.057533 76.841774 L 29.732332 76.841774 L 28.741713 75.562225 C 28.20513 74.874298 27.723576 74.282677 27.654785 74.255157 C 27.599751 74.241402 27.104439 74.805504 26.540339 75.534714 L 25.522202 76.841774 L 23.224516 76.841774 C 21.958725 76.841774 20.899313 76.786743 20.858036 76.731705 C 20.816761 76.662918 20.101315 73.553467 19.262039 69.811127 C 18.422766 66.068794 17.693558 62.876801 17.652283 62.697937 L 17.583488 62.395245 L 19.977486 62.395245 L 22.371483 62.395245 L 23.307068 66.619141 Z M 59.051907 62.849281 L 59.093185 63.317074 L 61.156975 62.863041 C 62.298939 62.615383 63.262035 62.409004 63.330833 62.395245 C 63.385864 62.395245 63.427143 63.509693 63.427143 64.871796 L 63.427143 67.334579 L 62.98687 67.417137 C 62.739212 67.458412 61.762352 67.637276 60.813007 67.802383 L 59.093185 68.105064 L 59.051907 72.480301 L 59.024391 76.841774 L 56.712944 76.814255 L 54.415257 76.77298 L 54.373985 69.57724 L 54.34647 62.395245 L 56.671673 62.395245 L 59.010628 62.395245 L 59.051907 62.849281 Z"/>
        <path id="path1" fill="#000000" stroke="none" d="M 52.599125 43.697311 C 51.869919 43.834892 51.347092 44.110069 50.893059 44.605377 C 49.352093 46.242653 49.819885 48.774235 51.828644 49.696056 C 53.328327 50.383991 55.048157 49.861164 55.928707 48.444027 C 56.28643 47.866165 56.341465 47.632267 56.341465 46.86179 C 56.327702 44.770477 54.635399 43.339584 52.599125 43.697311 Z"/>
        <path id="path2" fill="#000000" stroke="none" d="M 44.09631 66.921829 C 43.078175 67.389618 42.514072 68.325203 42.514072 69.508438 C 42.527828 70.691681 43.146965 71.654785 44.192619 72.095062 C 45.183239 72.507813 46.545341 72.273926 47.315823 71.572235 C 48.402752 70.567856 48.402752 68.393997 47.315823 67.389618 C 46.517822 66.660416 45.114449 66.454033 44.09631 66.921829 Z"/>
    </g>
</svg>
