<?xml version="1.0" encoding="UTF-8"?>
<!-- Generated by Pixelmator Pro 3.5.7 -->
<svg width="115" height="115" viewBox="0 0 115 115" xmlns="http://www.w3.org/2000/svg">
    <g id="Group">
        <path id="Path" fill="#000000" stroke="none" d="M 0 57.464043 L 0 115 L 57.535957 115 L 115.071915 115 L 115.071915 57.464043 L 115.071915 -0.071915 L 57.535957 -0.071915 L 0 -0.071915 L 0 57.464043 Z M 24.050032 37.139465 L 24.093184 41.425888 L 28.451532 41.469048 L 32.795498 41.49781 L 32.795498 43.87117 L 32.795498 46.24453 L 30.191996 46.2733 L 27.602877 46.316444 L 31.242027 51.278923 C 33.255783 54.011883 34.938713 56.327709 35.010632 56.414009 C 35.096935 56.55785 34.492809 56.601002 32.191368 56.601002 L 29.271421 56.601002 L 26.754221 53.163227 C 25.373358 51.264542 24.193871 49.711067 24.136335 49.711067 C 24.064415 49.696686 24.021263 51.250156 24.021263 53.148846 L 24.021263 56.601002 L 21.647905 56.601002 L 19.274548 56.601002 L 19.274548 44.734215 L 19.274548 32.867416 L 21.647905 32.867416 L 24.021263 32.867416 L 24.050032 37.139465 Z M 72.78299 37.182617 L 72.78299 41.49781 L 74.293312 41.49781 L 75.803627 41.49781 L 75.803627 43.943085 L 75.803627 46.388367 L 74.293312 46.388367 L 72.78299 46.388367 L 72.78299 55.737965 L 72.78299 65.087555 L 77.09819 65.087555 L 81.413383 65.087555 L 81.413383 67.532837 L 81.413383 69.978111 L 78.896179 70.006882 L 76.37899 70.050034 L 80.118828 75.127579 C 82.175735 77.918076 83.858658 80.233902 83.858658 80.277046 C 83.858658 80.305817 82.564102 80.334579 80.981865 80.334579 L 78.105064 80.334579 L 77.572853 79.64415 C 77.27079 79.270172 76.091309 77.673546 74.94059 76.105698 L 72.854904 73.25766 L 72.81176 76.796127 L 72.78299 80.334579 L 70.4384 80.305817 L 68.108192 80.262665 L 68.065041 63.318321 L 68.036278 46.388367 L 67.029388 46.388367 L 66.022514 46.388367 L 66.022514 43.943085 L 66.022514 41.49781 L 67.029388 41.49781 L 68.036278 41.49781 L 68.036278 37.182617 L 68.036278 32.867416 L 70.40963 32.867416 L 72.78299 32.867416 L 72.78299 37.182617 Z M 84.434021 37.182617 L 84.434021 41.49781 L 85.944344 41.49781 L 87.454659 41.49781 L 87.454659 43.943085 L 87.454659 46.388367 L 85.944344 46.388367 L 84.434021 46.388367 L 84.434021 51.494682 L 84.434021 56.601002 L 82.103813 56.572235 L 79.759224 56.529079 L 79.716072 51.451534 L 79.687309 46.388367 L 78.68042 46.388367 L 77.673546 46.388367 L 77.673546 43.943085 L 77.673546 41.49781 L 78.68042 41.49781 L 79.687309 41.49781 L 79.687309 37.182617 L 79.687309 32.867416 L 82.060661 32.867416 L 84.434021 32.867416 L 84.434021 37.182617 Z M 56.831142 41.584114 C 57.262661 41.71357 58.010632 42.030014 58.514072 42.303314 L 59.40588 42.792374 L 59.40588 42.145096 L 59.40588 41.49781 L 61.851154 41.49781 L 64.296432 41.49781 L 64.296432 49.049408 L 64.296432 56.601002 L 61.851154 56.601002 L 59.40588 56.601002 L 59.40588 55.953724 L 59.40588 55.306442 L 58.514072 55.809879 C 53.35022 58.643524 47.05003 54.889305 47.035648 48.977486 C 47.035648 45.640396 49.480923 42.461533 52.74609 41.569733 C 53.724201 41.296432 55.881802 41.310822 56.831142 41.584114 Z M 41.425892 42.001251 C 41.425892 42.274544 41.440273 42.504692 41.469044 42.504692 C 41.569733 42.504692 45.539711 41.627266 45.784241 41.555351 C 46.014381 41.483429 46.028767 41.641647 46 44.101311 L 45.956848 46.733582 L 43.799248 47.121948 C 42.619762 47.337708 41.598499 47.524704 41.540966 47.524704 C 41.469044 47.539085 41.425892 49.581612 41.425892 52.070045 L 41.425892 56.601002 L 39.052532 56.601002 L 36.679176 56.601002 L 36.679176 49.049408 L 36.679176 41.49781 L 39.052532 41.49781 L 41.425892 41.49781 L 41.425892 42.001251 Z M 49.926826 65.43277 C 55.306442 67.302689 56.859909 74.178238 52.803627 78.176987 C 51.681679 79.284546 50.761101 79.802376 49.250782 80.19075 C 47.855534 80.550339 46.934959 80.550339 45.539711 80.19075 C 44.015011 79.802376 43.108818 79.284546 42.001251 78.176987 C 39.052532 75.228271 38.894306 70.7117 41.641651 67.575989 C 43.655407 65.274551 46.992496 64.411514 49.926826 65.43277 Z M 92.388367 65.375229 C 93.510315 65.720451 94.661041 66.497185 95.236397 67.273926 C 95.639145 67.849274 95.898064 68.482178 95.768608 68.611633 C 95.739838 68.654785 94.589119 68.755478 93.237022 68.856155 C 90.921196 69.014389 90.748596 69 90.575981 68.769852 C 90.446533 68.597244 90.245155 68.52533 89.899933 68.568481 C 89.511574 68.597244 89.367729 68.697937 89.267044 69.014389 C 89.051285 69.604126 89.382111 69.834274 91.769859 70.697311 C 92.92057 71.114449 94.200752 71.689804 94.632271 71.963104 C 97.149467 73.631645 97.278923 76.537216 94.934334 78.651657 C 91.683548 81.585991 85.671051 80.751724 83.873047 77.141342 C 83.628517 76.652283 83.427139 76.177612 83.427139 76.091309 C 83.427139 75.875549 84.088806 75.774857 86.232018 75.65979 C 87.109444 75.616638 87.986862 75.530334 88.21701 75.501564 C 88.504692 75.444031 88.63414 75.487183 88.691689 75.688553 C 89.18074 77.040649 91.050659 76.839279 91.050659 75.429642 C 91.050659 74.69606 90.748596 74.494682 88.504692 73.646027 C 85.771729 72.624771 84.678551 71.776108 84.17511 70.280174 C 83.700432 68.884926 84.376488 67.216385 85.814888 66.238274 C 87.598495 65.001251 90.115692 64.670425 92.388367 65.375229 Z M 24.36648 69.647278 C 24.913071 72.09256 25.373358 74.091934 25.387741 74.120697 C 25.416512 74.149475 26.063791 73.128204 26.840527 71.862411 L 28.26454 69.560974 L 28.854284 69.546585 L 29.458412 69.546585 L 30.896811 71.862411 C 31.946842 73.53096 32.363979 74.106316 32.421513 73.904938 C 32.464664 73.761101 32.910572 71.776108 33.428394 69.503441 C 33.931831 67.216385 34.39212 65.317703 34.420891 65.288933 C 34.449657 65.245773 35.571609 65.245773 36.923702 65.260162 L 39.354595 65.303314 L 37.757973 72.437775 C 36.866165 76.35022 36.103813 79.744843 36.04628 79.946213 L 35.959976 80.334579 L 33.514694 80.334579 L 31.083801 80.334579 L 30.048155 78.996872 C 29.487181 78.277679 28.983738 77.659164 28.911819 77.630394 C 28.854284 77.616013 28.33646 78.20575 27.746717 78.968109 L 26.682301 80.334579 L 24.280174 80.334579 C 22.956848 80.334579 21.849281 80.277046 21.806129 80.219513 C 21.762978 80.147591 21.015009 76.896805 20.137587 72.98436 C 19.260164 69.071915 18.49781 65.734833 18.454659 65.547844 L 18.382738 65.231392 L 20.885553 65.231392 L 23.388369 65.231392 L 24.36648 69.647278 Z M 61.736084 65.70607 L 61.77924 66.195122 L 63.936836 65.720451 C 65.130707 65.461533 66.137581 65.245773 66.209503 65.231392 C 66.267044 65.231392 66.310196 66.3965 66.310196 67.820511 L 66.310196 70.395248 L 65.849907 70.481552 C 65.590996 70.524704 64.569733 70.7117 63.577232 70.884308 L 61.77924 71.200752 L 61.736084 75.774857 L 61.707317 80.334579 L 59.290806 80.305817 L 56.88868 80.262665 L 56.845531 72.739838 L 56.816761 65.231392 L 59.247658 65.231392 L 61.692928 65.231392 L 61.736084 65.70607 Z"/>
        <path id="path1" fill="#000000" stroke="none" d="M 54.989994 45.683556 C 54.227642 45.827393 53.681053 46.115074 53.206379 46.632896 C 51.595371 48.344597 52.084427 50.991249 54.18449 51.954967 C 55.752342 52.674171 57.550346 52.127583 58.470921 50.646027 C 58.844902 50.041901 58.902439 49.797371 58.902439 48.991875 C 58.88805 46.805504 57.118824 45.30957 54.989994 45.683556 Z"/>
        <path id="path2" fill="#000000" stroke="none" d="M 46.100689 69.96373 C 45.036274 70.452789 44.446529 71.430893 44.446529 72.667923 C 44.460915 73.904938 45.108192 74.911819 46.201374 75.372101 C 47.237022 75.803627 48.661041 75.559097 49.466541 74.825516 C 50.602879 73.775482 50.602879 71.502808 49.466541 70.452789 C 48.632267 69.69043 47.165104 69.47467 46.100689 69.96373 Z"/>
    </g>
</svg>
