<?xml version="1.0" encoding="UTF-8"?>
<!-- Generated by Pixelmator Pro 3.5.7 -->
<svg width="100" height="100" viewBox="0 0 100 100" xmlns="http://www.w3.org/2000/svg">
    <g id="Group">
        <path id="Path" fill="#000000" stroke="none" d="M 0 49.968731 L 0 100 L 50.031269 100 L 100.062538 100 L 100.062538 49.968731 L 100.062538 -0.062538 L 50.031269 -0.062538 L 0 -0.062538 L 0 49.968731 Z M 20.913071 32.295181 L 20.950594 36.022514 L 24.740463 36.06004 L 28.517824 36.085056 L 28.517824 38.148846 L 28.517824 40.212635 L 26.253908 40.237652 L 24.002502 40.275169 L 27.166981 44.590366 C 28.918074 46.966858 30.381489 48.980614 30.444027 49.05566 C 30.519075 49.180737 29.993746 49.218262 27.992495 49.218262 L 25.453409 49.218262 L 23.26454 46.228893 C 22.063789 44.577862 21.038149 43.227016 20.988117 43.227016 C 20.925579 43.214512 20.888056 44.565353 20.888056 46.216389 L 20.888056 49.218262 L 18.824266 49.218262 L 16.760475 49.218262 L 16.760475 38.899315 L 16.760475 28.580368 L 18.824266 28.580368 L 20.888056 28.580368 L 20.913071 32.295181 Z M 63.289558 32.33271 L 63.289558 36.085056 L 64.602882 36.085056 L 65.916199 36.085056 L 65.916199 38.21138 L 65.916199 40.337711 L 64.602882 40.337711 L 63.289558 40.337711 L 63.289558 48.467793 L 63.289558 56.597874 L 67.041901 56.597874 L 70.79425 56.597874 L 70.79425 58.724201 L 70.79425 60.850533 L 68.605377 60.875546 L 66.416512 60.913071 L 69.668541 65.328331 C 71.457161 67.754845 72.92057 69.768608 72.92057 69.806129 C 72.92057 69.831146 71.794868 69.856155 70.419014 69.856155 L 67.91745 69.856155 L 67.454659 69.255783 C 67.191994 68.93058 66.166351 67.542213 65.165733 66.178864 L 63.352093 63.702316 L 63.314571 66.779236 L 63.289558 69.856155 L 61.250782 69.831146 L 59.224514 69.793625 L 59.186993 55.05941 L 59.16198 40.337711 L 58.286427 40.337711 L 57.410881 40.337711 L 57.410881 38.21138 L 57.410881 36.085056 L 58.286427 36.085056 L 59.16198 36.085056 L 59.16198 32.33271 L 59.16198 28.580368 L 61.225769 28.580368 L 63.289558 28.580368 L 63.289558 32.33271 Z M 73.420891 32.33271 L 73.420891 36.085056 L 74.734207 36.085056 L 76.047531 36.085056 L 76.047531 38.21138 L 76.047531 40.337711 L 74.734207 40.337711 L 73.420891 40.337711 L 73.420891 44.777985 L 73.420891 49.218262 L 71.394623 49.193249 L 69.355843 49.155724 L 69.318329 44.740463 L 69.293312 40.337711 L 68.417763 40.337711 L 67.542213 40.337711 L 67.542213 38.21138 L 67.542213 36.085056 L 68.417763 36.085056 L 69.293312 36.085056 L 69.293312 32.33271 L 69.293312 28.580368 L 71.357101 28.580368 L 73.420891 28.580368 L 73.420891 32.33271 Z M 49.418385 36.160099 C 49.793621 36.272671 50.444027 36.54784 50.881802 36.785492 L 51.657288 37.210758 L 51.657288 36.647907 L 51.657288 36.085056 L 53.783611 36.085056 L 55.909943 36.085056 L 55.909943 42.651661 L 55.909943 49.218262 L 53.783611 49.218262 L 51.657288 49.218262 L 51.657288 48.655411 L 51.657288 48.09256 L 50.881802 48.530331 C 46.391495 50.99437 40.913071 47.729832 40.900562 42.589119 C 40.900562 39.687302 43.02689 36.923073 45.866165 36.147591 C 46.716698 35.909943 48.592869 35.922455 49.418385 36.160099 Z M 36.022514 36.522823 C 36.022514 36.760471 36.035023 36.960602 36.060036 36.960602 C 36.147594 36.960602 39.599751 36.19762 39.812382 36.135086 C 40.012508 36.072544 40.025013 36.210133 40 38.348969 L 39.962475 40.637901 L 38.086304 40.975609 C 37.060665 41.163227 36.172607 41.325829 36.122578 41.325829 C 36.060036 41.338337 36.022514 43.114445 36.022514 45.278301 L 36.022514 49.218262 L 33.958725 49.218262 L 31.894934 49.218262 L 31.894934 42.651661 L 31.894934 36.085056 L 33.958725 36.085056 L 36.022514 36.085056 L 36.022514 36.522823 Z M 43.414635 56.89806 C 48.09256 58.524078 49.443401 64.502815 45.916199 67.979988 C 44.94059 68.943085 44.140087 69.393372 42.826767 69.731079 C 41.61351 70.043777 40.813011 70.043777 39.599751 69.731079 C 38.273922 69.393372 37.485928 68.943085 36.522827 67.979988 C 33.958725 65.415886 33.821136 61.48843 36.210133 58.761726 C 37.961224 56.760475 40.863041 56.010006 43.414635 56.89806 Z M 80.337715 56.84803 C 81.313316 57.14822 82.31395 57.823639 82.814255 58.499062 C 83.164474 58.999374 83.389618 59.549717 83.277046 59.662289 C 83.252037 59.69981 82.251404 59.787369 81.075668 59.87492 C 79.061913 60.012508 78.911819 60 78.761726 59.799877 C 78.649155 59.64978 78.474045 59.587242 78.173859 59.624767 C 77.836151 59.64978 77.711075 59.737335 77.623512 60.012508 C 77.435898 60.52533 77.723579 60.725456 79.799873 61.475922 C 80.800499 61.83865 81.913696 62.338963 82.288933 62.576611 C 84.477798 64.027512 84.59037 66.554092 82.551598 68.392746 C 79.724823 70.944336 74.496567 70.218887 72.933083 67.079422 C 72.720451 66.65416 72.545341 66.241402 72.545341 66.166351 C 72.545341 65.978737 73.120705 65.891182 74.98436 65.791122 C 75.747345 65.753593 76.510315 65.678551 76.710442 65.653534 C 76.960602 65.6035 77.073166 65.641022 77.123207 65.816132 C 77.54847 66.991867 79.174484 66.816757 79.174484 65.590996 C 79.174484 64.953094 78.911819 64.777985 76.960602 64.040024 C 74.584114 63.15197 73.633522 62.414009 73.195747 61.113197 C 72.78299 59.899937 73.370857 58.449032 74.621643 57.598499 C 76.172607 56.522827 78.361473 56.235149 80.337715 56.84803 Z M 21.188242 60.562851 C 21.66354 62.689178 22.063789 64.427765 22.076298 64.452789 C 22.101315 64.477798 22.664165 63.589745 23.339588 62.489056 L 24.577862 60.487804 L 25.090683 60.475296 L 25.616011 60.475296 L 26.866791 62.489056 C 27.779861 63.939964 28.14259 64.440277 28.192619 64.265167 C 28.230143 64.140091 28.617887 62.414009 29.068169 60.437775 C 29.505941 58.449032 29.906191 56.798 29.931208 56.772984 C 29.956224 56.735458 30.931833 56.735458 32.107567 56.747967 L 34.221386 56.785492 L 32.833019 62.989368 C 32.057537 66.391495 31.394621 69.343338 31.344589 69.518448 L 31.269545 69.856155 L 29.143213 69.856155 L 27.029392 69.856155 L 26.12883 68.692932 C 25.641027 68.067543 25.203251 67.529709 25.140713 67.504692 C 25.090683 67.492188 24.6404 68.005005 24.127581 68.667915 L 23.202002 69.856155 L 21.113195 69.856155 C 19.962477 69.856155 18.999374 69.806129 18.961851 69.756096 C 18.924328 69.693558 18.273922 66.866791 17.510944 63.464664 C 16.747969 60.062538 16.085052 57.160725 16.047529 56.998123 L 15.98499 56.72295 L 18.161352 56.72295 L 20.337711 56.72295 L 21.188242 60.562851 Z M 53.683552 57.135712 L 53.721077 57.560978 L 55.597252 57.14822 C 56.635399 56.923077 57.510944 56.735458 57.573483 56.72295 C 57.623516 56.72295 57.661041 57.736084 57.661041 58.974358 L 57.661041 61.213257 L 57.260792 61.288307 C 57.035648 61.325829 56.147591 61.48843 55.28455 61.638527 L 53.721077 61.913696 L 53.683552 65.891182 L 53.658535 69.856155 L 51.55722 69.831146 L 49.468414 69.793625 L 49.430897 63.252033 L 49.40588 56.72295 L 51.519699 56.72295 L 53.646027 56.72295 L 53.683552 57.135712 Z"/>
        <path id="path1" fill="#000000" stroke="none" d="M 47.817387 39.724831 C 47.154472 39.849907 46.679176 40.100063 46.266418 40.550343 C 44.86554 42.038776 45.290806 44.340214 47.116947 45.178234 C 48.480301 45.803627 50.043777 45.328331 50.844276 44.040028 C 51.169483 43.514694 51.219513 43.302063 51.219513 42.601627 C 51.207001 40.700436 49.668545 39.399624 47.817387 39.724831 Z"/>
        <path id="path2" fill="#000000" stroke="none" d="M 40.087555 60.838024 C 39.161976 61.26329 38.649155 62.113819 38.649155 63.189495 C 38.661663 64.265167 39.224514 65.140717 40.17511 65.540962 C 41.075672 65.916199 42.313946 65.703568 43.014381 65.065666 C 44.002502 64.152596 44.002502 62.176357 43.014381 61.26329 C 42.288929 60.600376 41.013134 60.412758 40.087555 60.838024 Z"/>
    </g>
</svg>
