<?xml version="1.0" encoding="UTF-8"?>
<!-- Generated by Pixelmator Pro 2.3.8 -->
<svg width="120" height="26" viewBox="0 0 120 26" xmlns="http://www.w3.org/2000/svg" xmlns:xlink="http://www.w3.org/1999/xlink">
    <g id="a"/>
    <g id="b">
        <g id="c">
            <path id="Path" fill="#0998d0" stroke="none" d="M 8.560885 17.183908 L 8.560885 25.514368 L 0 25.514368 L 0 0.485632 L 8.560885 0.485632 L 8.560885 9.339081 L 10.036901 9.339081 L 12.804428 0.485632 L 21.291513 0.485632 L 17.343174 12.589081 L 21.660517 25.514368 L 13.062731 25.514368 L 10.073801 17.183908 L 8.560885 17.183908 Z"/>
            <path id="path1" fill="#0998d0" stroke="none" d="M 24.501844 25.514368 L 21.586716 0.485632 L 30.110701 0.485632 L 31.291513 16.772987 L 31.955719 16.772987 L 33.616238 0.859196 L 42.95203 0.859196 L 44.797047 16.772987 L 45.461254 16.772987 L 46.199261 0.485632 L 54.797047 0.485632 L 52.066422 25.514368 L 39.557194 25.514368 L 38.339485 10.123563 L 37.970478 10.086206 L 36.715866 25.514368 L 24.501844 25.514368 Z"/>
            <path id="path2" fill="#0998d0" stroke="none" d="M 78.966789 13 C 78.966789 17.557472 78.030991 20.862759 76.162361 22.918852 C 74.292252 24.97345 71.309227 26 67.21476 26 C 63.120296 26 60.12989 24.96747 58.247971 22.899426 C 56.366051 20.832874 55.425831 17.526093 55.425831 12.980576 C 55.425831 8.435057 56.360146 5.135746 58.230259 3.081148 C 60.097416 1.028048 63.086346 0 67.195572 0 C 71.304794 0 74.292252 1.028048 76.162361 3.081148 C 78.030991 5.135746 78.966789 8.44253 78.966789 13 Z M 64.059044 13 C 64.059044 15.117356 64.262733 16.642988 64.66716 17.575401 C 65.071587 18.507816 65.921768 18.977013 67.21328 18.977013 C 68.504799 18.977013 69.347603 18.516781 69.740219 17.594828 C 70.132843 16.674366 70.330627 15.135287 70.330627 12.980576 C 70.330627 10.825862 70.140221 9.295748 69.757935 8.385746 C 69.375641 7.477242 68.534317 7.022989 67.230995 7.022989 C 65.927673 7.022989 65.073059 7.489195 64.66568 8.424599 C 64.258301 9.360001 64.057564 10.884137 64.057564 13 Z"/>
            <path id="path3" fill="#0998d0" stroke="none" d="M 79.446495 7.545977 L 79.446495 0.485632 L 97.896683 0.485632 L 97.896683 7.545977 L 93.099632 7.545977 L 93.099632 25.514368 L 84.538742 25.514368 L 84.538742 7.545977 L 79.446495 7.545977 Z"/>
            <path id="path4" fill="#0998d0" stroke="none" d="M 96.014763 25.514368 L 101.476013 0.485632 L 114.428047 0.485632 L 120 25.514368 L 111.365311 25.514368 L 110.664207 22.637932 L 105.018448 22.637932 L 104.428047 25.514368 L 96.014763 25.514368 Z M 107.527672 7.284483 L 106.125458 16.025862 L 109.778595 16.025862 L 108.450188 7.284483 L 107.527672 7.284483 Z"/>
        </g>
    </g>
</svg>
