<svg width="144" height="112" viewBox="0 0 144 112" fill="none" xmlns="http://www.w3.org/2000/svg">
<path d="M73.8941 17.782V1.52741C73.8941 0.618068 74.7275 -0.10183 75.6367 0.0118378C79.6144 0.618068 83.2511 2.17154 86.3575 4.4449C87.1152 5.01324 87.191 6.11203 86.5469 6.75615L75.0306 18.2745C74.6139 18.6913 73.8941 18.3882 73.8941 17.782Z" fill="white"/>
<path d="M54.7634 9.44631L66.2797 20.9647C66.6964 21.3814 66.3934 22.1013 65.7872 22.1013H49.5355C48.5885 22.1013 47.8687 21.2678 48.0202 20.3584C48.6263 16.3801 50.1795 12.7427 52.4525 9.63576C53.0207 8.87797 54.1194 8.80219 54.7634 9.44631Z" fill="white"/>
<path d="M68.3633 0.049714C64.3856 0.655944 60.7488 2.20941 57.6424 4.48277C56.8848 5.05111 56.809 6.11202 57.453 6.79403L68.9694 18.3124C69.3861 18.7292 70.1059 18.4261 70.1059 17.8198V1.56529C70.1059 0.618055 69.2724 -0.101843 68.3633 0.049714Z" fill="white"/>
<path d="M49.5734 25.8903H65.8251C66.3934 25.8903 66.6964 26.6102 66.3176 27.0269L54.8012 38.5453C54.1193 39.1894 53.0586 39.1137 52.4904 38.3559C50.2174 35.2489 48.6642 31.6116 48.0581 27.6332C47.9445 26.7238 48.6264 25.8903 49.5734 25.8903Z" fill="white"/>
<path d="M77.7203 27.0648L89.2367 38.5832C89.8807 39.2273 90.9793 39.1515 91.5475 38.3937C93.8205 35.2868 95.3737 31.6494 95.9798 27.6711C96.1313 26.7617 95.4115 25.9282 94.4645 25.9282H78.2128C77.6066 25.8903 77.3036 26.6102 77.7203 27.0648Z" fill="white"/>
<path d="M94.4645 22.1013H78.2128C77.6066 22.1013 77.3036 21.3814 77.7203 20.9647L89.2367 9.44631C89.9185 8.80219 90.9793 8.87797 91.5475 9.63576C93.8205 12.7427 95.3737 16.3801 95.9798 20.3584C96.0934 21.2678 95.4115 22.1013 94.4645 22.1013Z" fill="white"/>
<path d="M73.8941 30.2097V46.4642C73.8941 47.4114 74.7275 48.0935 75.6367 47.9798C79.6144 47.3736 83.2511 45.8201 86.3575 43.5467C87.1152 42.9784 87.191 41.9175 86.5469 41.2355L75.0685 29.7171C74.6139 29.3003 73.8941 29.6034 73.8941 30.2097Z" fill="white"/>
<path d="M57.453 41.2355L68.9694 29.7171C69.3861 29.3003 70.1059 29.6034 70.1059 30.2097V46.4642C70.1059 47.4114 69.2724 48.1313 68.3633 47.9798C64.3856 47.3736 60.7488 45.8201 57.6424 43.5467C56.8848 42.9784 56.809 41.8796 57.453 41.2355Z" fill="white"/>
<path d="M17.017 78.424H8.95297V65.68H4.89697V82H17.017V78.424Z" fill="white"/>
<path d="M22.992 69.208H31.272V65.68H18.936V82H31.272V78.472H22.992V75.64H30.24V72.184H22.992V69.208Z" fill="white"/>
<path d="M51.2005 65.68H48.1765L42.3925 74.392L36.6085 65.68H33.5845V82H37.6405L37.6165 73.768L41.2645 79.408V79.432H43.5205V79.408L47.1445 73.816V82H51.2005V65.68Z" fill="white"/>
<path d="M62.3248 65.344C57.4048 65.344 53.6848 69.088 53.6848 73.84C53.6848 78.592 57.4048 82.336 62.3248 82.336C67.2449 82.336 70.9648 78.592 70.9648 73.84C70.9648 69.088 67.2449 65.344 62.3248 65.344ZM62.3248 78.568C59.6848 78.568 57.7888 76.408 57.7888 73.84C57.7888 71.272 59.6848 69.112 62.3248 69.112C64.9648 69.112 66.8609 71.272 66.8609 73.84C66.8609 76.408 64.9648 78.568 62.3248 78.568Z" fill="white"/>
<path d="M88.4517 65.68H84.4197V74.872L76.5477 65.68H73.4517V82H77.5077V73.048L85.3317 82H88.4517V65.68Z" fill="white"/>
<path d="M102.494 79.192L103.598 82H107.918L101.006 65.584H97.1185L90.1825 82H94.5025L95.5825 79.192H102.494ZM101.15 75.736H96.9265L99.0385 70.312L101.15 75.736Z" fill="white"/>
<path d="M109.639 65.68V82H116.191C121.327 82 124.999 78.64 124.999 73.792C124.999 69.016 121.327 65.68 116.191 65.68H109.639ZM113.695 78.352V69.328H116.191C118.855 69.328 120.871 71.272 120.871 73.792C120.871 76.384 118.855 78.352 116.191 78.352H113.695Z" fill="white"/>
<path d="M131.39 69.208H139.67V65.68H127.334V82H139.67V78.472H131.39V75.64H138.638V72.184H131.39V69.208Z" fill="white"/>
<path d="M38.9083 89.32C35.0683 89.32 32.4283 91.384 32.4283 94.648C32.4283 97.24 33.9403 98.752 37.1563 99.448L39.8443 100.048C41.2363 100.312 41.5723 100.888 41.5723 101.44C41.5723 102.328 40.7803 102.88 39.2683 102.88C37.3483 102.88 36.1003 102.016 35.8363 100.576H31.7803C32.1643 104.608 35.4763 106.336 39.1483 106.336C43.2283 106.336 45.9163 104.296 45.9163 101.032C45.9163 98.224 43.9723 97.024 40.9963 96.376L38.7163 95.848C37.4923 95.584 36.8443 95.2 36.8443 94.312C36.8443 93.256 37.7803 92.68 39.1723 92.68C40.8283 92.68 41.5963 93.52 41.8123 94.744H45.8923C45.4843 90.352 41.5483 89.32 38.9083 89.32Z" fill="white"/>
<path d="M61.3828 93.304V89.68H46.9348V93.304H52.1428V106H56.1748V93.304H61.3828Z" fill="white"/>
<path d="M71.8968 103.192L73.0008 106H77.3208L70.4088 89.584H66.5208L59.5848 106H63.9048L64.9848 103.192H71.8968ZM70.5528 99.736H66.3288L68.4408 94.312L70.5528 99.736Z" fill="white"/>
<path d="M94.0415 89.68H90.0095V98.872L82.1375 89.68H79.0415V106H83.0975V97.048L90.9215 106H94.0415V89.68Z" fill="white"/>
<path d="M96.9243 89.68V106H103.476C108.612 106 112.284 102.64 112.284 97.792C112.284 93.016 108.612 89.68 103.476 89.68H96.9243ZM100.98 102.352V93.328H103.476C106.14 93.328 108.156 95.272 108.156 97.792C108.156 100.384 106.14 102.352 103.476 102.352H100.98Z" fill="white"/>
</svg>
