<?xml version="1.0" encoding="UTF-8"?>
<!-- Generated by Pixelmator Pro 3.6.18 -->
<svg width="150" height="103" viewBox="0 0 150 103" xmlns="http://www.w3.org/2000/svg">
    <path id="Path" fill="#000000" stroke="none" d="M 146.997513 102.765762 L 146.997513 86.3871 L 150 86.3871 L 150 102.765762 L 146.997513 102.765762 Z"/>
    <path id="path1" fill="#000000" stroke="none" d="M 123.482323 102.765762 L 130.757736 86.3871 L 133.714645 86.3871 L 141.014084 102.765762 L 137.872375 102.765762 L 131.612991 88.001869 L 132.813812 88.001869 L 126.577621 102.765762 L 123.482323 102.765762 Z M 126.831215 98.975525 L 127.640053 96.589081 L 136.371536 96.589081 L 137.17955 98.975525 L 126.831215 98.975525 Z"/>
    <path id="path2" fill="#000000" stroke="none" d="M 104.946136 102.765762 L 104.946136 86.3871 L 111.599167 86.3871 C 113.031219 86.3871 114.255249 86.621338 115.271263 87.088989 C 116.30304 87.556641 117.096138 88.227806 117.650551 89.101646 C 118.204971 89.974655 118.48259 91.012131 118.48259 92.213242 C 118.48259 93.414352 118.204971 94.451828 117.650551 95.325668 C 117.096138 96.182892 116.30304 96.846581 115.271263 97.314232 C 114.255249 97.76693 113.031219 97.992874 111.599167 97.992874 L 106.60939 97.992874 L 107.949448 96.612335 L 107.949448 102.765762 L 104.946136 102.765762 Z M 115.525688 102.765762 L 111.437569 96.822495 L 114.648064 96.822495 L 118.759384 102.765762 L 115.525688 102.765762 Z M 107.949448 96.939613 L 106.60939 95.489304 L 111.459938 95.489304 C 112.784256 95.489304 113.777908 95.200241 114.440056 94.62294 C 115.11795 94.046478 115.456078 93.24324 115.456078 92.213242 C 115.456078 91.168289 115.11795 90.365059 114.440056 89.803543 C 113.777908 89.24202 112.784256 88.961266 111.459938 88.961266 L 106.60939 88.961266 L 107.949448 87.463608 L 107.949448 96.939613 Z"/>
    <path id="path3" fill="#000000" stroke="none" d="M 89.745583 103 C 87.528725 103 85.788399 102.367874 84.525414 101.104469 C 83.278175 99.841057 82.654564 98.016129 82.654564 95.629684 L 82.654564 86.3871 L 85.657455 86.3871 L 85.657455 95.512566 C 85.657455 97.197113 86.01133 98.421486 86.719887 99.185677 C 87.443367 99.950706 88.46022 100.332802 89.768784 100.332802 C 91.078178 100.332802 92.086739 99.950706 92.795303 99.185677 C 93.503044 98.421486 93.857735 97.197113 93.857735 95.512566 L 93.857735 86.3871 L 96.813812 86.3871 L 96.813812 95.629684 C 96.813812 98.016129 96.183144 99.841057 94.920166 101.104469 C 93.672928 102.367874 91.948341 103 89.745583 103 Z"/>
    <path id="path4" fill="#000000" stroke="none" d="M 59.782707 102.765762 L 59.782707 86.3871 L 66.850937 86.3871 C 68.606522 86.3871 70.146385 86.730156 71.470772 87.416267 C 72.795082 88.10321 73.826851 89.054298 74.565994 90.271194 C 75.305138 91.488091 75.674751 92.923447 75.674751 94.576431 C 75.674751 96.214462 75.305138 97.649811 74.565994 98.88166 C 73.826851 100.098557 72.795082 101.050476 71.470772 101.736588 C 70.146385 102.422699 68.606522 102.765762 66.850937 102.765762 L 59.782707 102.765762 Z M 62.785606 100.192421 L 66.712379 100.192421 C 67.928947 100.192421 68.976051 99.958176 69.853836 99.490524 C 70.746956 99.022041 71.432236 98.367493 71.909584 97.524384 C 72.402428 96.682114 72.648811 95.699455 72.648811 94.576431 C 72.648811 93.437614 72.402428 92.454956 71.909584 91.628464 C 71.432236 90.786194 70.746956 90.130814 69.853836 89.663162 C 68.976051 89.194672 67.928947 88.961266 66.712379 88.961266 L 62.785606 88.961266 L 62.785606 100.192421 Z"/>
    <path id="path5" fill="#000000" stroke="none" d="M 37.155746 102.765762 L 37.155746 86.3871 L 39.62735 86.3871 L 49.767761 98.998779 L 48.543484 98.998779 L 48.543484 86.3871 L 51.523258 86.3871 L 51.523258 102.765762 L 49.051659 102.765762 L 38.911324 90.154076 L 40.135525 90.154076 L 40.135525 102.765762 L 37.155746 102.765762 Z"/>
    <path id="path6" fill="#000000" stroke="none" d="M 20.526381 93.195892 L 28.564808 93.195892 L 28.564808 95.699455 L 20.526381 95.699455 L 20.526381 93.195892 Z M 20.757347 100.215683 L 29.881409 100.215683 L 29.881409 102.765762 L 17.75453 102.765762 L 17.75453 86.3871 L 29.558037 86.3871 L 29.558037 88.93718 L 20.757347 88.93718 L 20.757347 100.215683 Z"/>
    <path id="path7" fill="#000000" stroke="none" d="M -0 102.765762 L -0 86.3871 L 3.002851 86.3871 L 3.002851 100.192421 L 11.457016 100.192421 L 11.457016 102.765762 L -0 102.765762 Z"/>
    <path id="path8" fill="#000000" stroke="none" d="M 74.171272 2.491936 L 2.486188 2.491936 L 2.486188 71.435486 L 74.171272 71.435486 L 74.171272 73.927422 L -0 73.927422 L -0 0 L 74.171272 0 L 74.171272 2.491936 Z"/>
    <path id="path9" fill="#000000" stroke="none" d="M 150 73.927422 L 76.243095 73.927422 L 76.243095 57.522179 L 86.395027 57.522179 L 96.321541 67.47123 L 106.869606 56.899193 L 96.321541 46.327156 L 86.395027 56.276211 L 76.243095 56.276211 L 76.243095 38.417336 L 119.544197 38.417336 L 129.470718 48.36639 L 140.018784 37.794357 L 129.470718 27.222321 L 119.544197 37.171371 L 76.243095 37.171371 L 76.243095 18.481857 L 97.997238 18.481857 L 107.923752 28.430908 L 118.471817 17.858871 L 107.923752 7.286804 L 97.997238 17.235886 L 76.243095 17.235886 L 76.243095 0 L 150 0 L 150 73.927422 Z"/>
    <path id="path10" fill="#000000" stroke="none" d="M 29.717735 56.28759 L 76.243095 56.28759 L 76.243095 57.510796 L 29.717735 57.510796 L 19.729227 67.282257 L 9.116022 56.899193 L 19.729227 46.516129 L 29.717735 56.28759 Z"/>
    <path id="path11" fill="#000000" stroke="none" d="M 62.99229 37.182755 L 76.243095 37.182755 L 76.243095 38.40596 L 62.99229 38.40596 L 52.943203 48.177418 L 42.265194 37.794357 L 52.943203 27.411293 L 62.99229 37.182755 Z"/>
    <path id="path12" fill="#000000" stroke="none" d="M 41.34663 17.247269 L 76.243095 17.247269 L 76.243095 18.470474 L 41.34663 18.470474 L 31.345194 28.241936 L 20.718231 17.858871 L 31.345194 7.475807 L 41.34663 17.247269 Z"/>
</svg>
