<?xml version="1.0" encoding="UTF-8"?>
<!-- Generated by Pixelmator Pro 3.2.2 -->
<svg width="150" height="35" viewBox="0 0 150 35" xmlns="http://www.w3.org/2000/svg" xmlns:xlink="http://www.w3.org/1999/xlink">
    <g id="Group">
        <path id="Path" fill="#6285bc" stroke="none" d="M 20.365629 18.908485 C 20.365629 27.795582 20.139555 35 19.86068 35 C 19.581802 35 19.35573 27.795582 19.35573 18.908485 C 19.35573 10.021387 19.581802 2.816971 19.86068 2.816971 C 20.139555 2.816971 20.365629 10.021387 20.365629 18.908485 Z"/>
        <path id="path1" fill="#6285bc" stroke="none" d="M 21.980198 18.004848 C 21.980198 27.084076 21.754124 34.444244 21.475248 34.444244 C 21.196371 34.444244 20.970297 27.084076 20.970297 18.004848 C 20.970297 8.925623 21.196371 1.565456 21.475248 1.565456 C 21.754124 1.565456 21.980198 8.925623 21.980198 18.004848 Z"/>
        <path id="path2" fill="#6285bc" stroke="none" d="M 23.594767 16.891212 C 23.594767 25.753708 23.368692 32.938183 23.089817 32.938183 C 22.81094 32.938183 22.584866 25.753708 22.584866 16.891212 C 22.584866 8.028717 22.81094 0.844242 23.089817 0.844242 C 23.368692 0.844242 23.594767 8.028717 23.594767 16.891212 Z"/>
        <path id="path3" fill="#6285bc" stroke="none" d="M 25.207212 15.709696 C 25.207212 24.310947 24.98114 31.283636 24.702263 31.283636 C 24.423388 31.283636 24.197313 24.310947 24.197313 15.709696 C 24.197313 7.10845 24.423388 0.135757 24.702263 0.135757 C 24.98114 0.135757 25.207212 7.10845 25.207212 15.709696 Z"/>
        <path id="path4" fill="#6285bc" stroke="none" d="M 26.821781 14.818789 C 26.821781 23.029922 26.595709 29.686363 26.316832 29.686363 C 26.037956 29.686363 25.811882 23.029922 25.811882 14.818789 C 25.811882 6.607653 26.037956 -0.048786 26.316832 -0.048786 C 26.595709 -0.048786 26.821781 6.607653 26.821781 14.818789 Z"/>
        <path id="path5" fill="#6285bc" stroke="none" d="M 28.43635 13.955454 C 28.43635 21.734303 28.210276 28.040304 27.931398 28.040304 C 27.652523 28.040304 27.426451 21.734303 27.426451 13.955454 C 27.426451 6.176605 27.652523 -0.129395 27.931398 -0.129395 C 28.210276 -0.129395 28.43635 6.176605 28.43635 13.955454 Z"/>
        <path id="path6" fill="#6285bc" stroke="none" d="M 30.050919 13.172728 C 30.050919 20.47477 29.824844 26.394241 29.545967 26.394241 C 29.267092 26.394241 29.041019 20.47477 29.041019 13.172728 C 29.041019 5.870686 29.267092 -0.048786 29.545967 -0.048786 C 29.824844 -0.048786 30.050919 5.870686 30.050919 13.172728 Z"/>
        <path id="path7" fill="#6285bc" stroke="none" d="M 31.665487 12.28606 C 31.665487 18.99766 31.439413 24.438484 31.160536 24.438484 C 30.88166 24.438484 30.655588 18.99766 30.655588 12.28606 C 30.655588 5.574461 30.88166 0.133636 31.160536 0.133636 C 31.439413 0.133636 31.665487 5.574461 31.665487 12.28606 Z"/>
        <path id="path8" fill="#6285bc" stroke="none" d="M 33.280056 11.923332 C 33.280056 18.042147 33.053982 23.002426 32.775105 23.002426 C 32.496227 23.002426 32.270157 18.042147 32.270157 11.923332 C 32.270157 5.80452 32.496227 0.844242 32.775105 0.844242 C 33.053982 0.844242 33.280056 5.80452 33.280056 11.923332 Z"/>
        <path id="path9" fill="#6285bc" stroke="none" d="M 34.892506 11.673031 C 34.892506 17.138138 34.666431 21.568485 34.387554 21.568485 C 34.108677 21.568485 33.882603 17.138138 33.882603 11.673031 C 33.882603 6.207922 34.108677 1.777576 34.387554 1.777576 C 34.666431 1.777576 34.892506 6.207922 34.892506 11.673031 Z"/>
        <path id="path10" fill="#6285bc" stroke="none" d="M 36.507072 11.37394 C 36.507072 16.099823 36.280998 19.930908 36.002121 19.930908 C 35.723248 19.930908 35.497169 16.099823 35.497169 11.37394 C 35.497169 6.648056 35.723248 2.816971 36.002121 2.816971 C 36.280998 2.816971 36.507072 6.648056 36.507072 11.37394 Z"/>
        <path id="path11" fill="#6285bc" stroke="none" d="M 38.121639 11.443941 C 38.121639 15.144749 37.895569 18.144848 37.616692 18.144848 C 37.337814 18.144848 37.11174 15.144749 37.11174 11.443941 C 37.11174 7.74313 37.337814 4.743031 37.616692 4.743031 C 37.895569 4.743031 38.121639 7.74313 38.121639 11.443941 Z"/>
        <path id="path12" fill="#6285bc" stroke="none" d="M 39.736206 11.37394 C 39.736206 13.650188 39.510136 15.495455 39.231258 15.495455 C 38.952385 15.495455 38.726307 13.650188 38.726307 11.37394 C 38.726307 9.097689 38.952385 7.252424 39.231258 7.252424 C 39.510136 7.252424 39.736206 9.097689 39.736206 11.37394 Z"/>
        <path id="path13" fill="#6285bc" stroke="none" d="M 17.151342 16.891212 C 17.151342 25.753708 16.92527 32.938183 16.646393 32.938183 C 16.367517 32.938183 16.141443 25.753708 16.141443 16.891212 C 16.141443 8.028717 16.367517 0.844242 16.646393 0.844242 C 16.92527 0.844242 17.151342 8.028717 17.151342 16.891212 Z"/>
        <path id="path14" fill="#6285bc" stroke="none" d="M 13.924328 14.818789 C 13.924328 23.029922 13.698255 29.686363 13.419377 29.686363 C 13.140501 29.686363 12.914427 23.029922 12.914427 14.818789 C 12.914427 6.607653 13.140501 -0.048786 13.419377 -0.048786 C 13.698255 -0.048786 13.924328 6.607653 13.924328 14.818789 Z"/>
        <path id="path15" fill="#6285bc" stroke="none" d="M 10.695191 13.172728 C 10.695191 20.47477 10.469116 26.394241 10.19024 26.394241 C 9.911364 26.394241 9.68529 20.47477 9.68529 13.172728 C 9.68529 5.870686 9.911364 -0.048786 10.19024 -0.048786 C 10.469116 -0.048786 10.695191 5.870686 10.695191 13.172728 Z"/>
        <path id="path16" fill="#6285bc" stroke="none" d="M 7.468175 11.923332 C 7.468175 18.042147 7.242101 23.002426 6.963225 23.002426 C 6.684348 23.002426 6.458274 18.042147 6.458274 11.923332 C 6.458274 5.80452 6.684348 0.844242 6.963225 0.844242 C 7.242101 0.844242 7.468175 5.80452 7.468175 11.923332 Z"/>
        <path id="path17" fill="#6285bc" stroke="none" d="M 4.239038 11.37394 C 4.239038 16.099823 4.012964 19.930908 3.734088 19.930908 C 3.455211 19.930908 3.229137 16.099823 3.229137 11.37394 C 3.229137 6.648056 3.455211 2.816971 3.734088 2.816971 C 4.012964 2.816971 4.239038 6.648056 4.239038 11.37394 Z"/>
        <path id="path18" fill="#6285bc" stroke="none" d="M 1.009901 11.37394 C 1.009901 13.650188 0.783827 15.495455 0.504951 15.495455 C 0.226074 15.495455 -0 13.650188 -0 11.37394 C -0 9.097689 0.226074 7.252424 0.504951 7.252424 C 0.783827 7.252424 1.009901 9.097689 1.009901 11.37394 Z"/>
    </g>
    <path id="path19" fill="#0d0d0d" stroke="none" d="M 48.014851 2.668484 L 45.848656 2.668484 L 45.848656 26.139696 L 60.002121 26.139696 L 60.002121 23.973938 L 48.014851 23.973938 Z"/>
    <path id="path20" fill="#0d0d0d" stroke="none" d="M 61.962517 9.326969 L 64.130829 9.326969 L 64.130829 26.141819 L 61.962517 26.141819 Z"/>
    <path id="path21" fill="#0d0d0d" stroke="none" d="M 61.962517 5.298786 L 64.162659 5.298786 L 64.162659 7.466665 L 61.962517 7.466665 Z"/>
    <path id="path22" fill="#0d0d0d" stroke="none" d="M 80.077087 11.9 C 78.628006 10.268789 76.618813 9.324848 74.501411 9.324848 C 70.232674 9.324848 66.757423 13.096363 66.757423 17.731211 C 66.757423 22.366062 70.230553 26.137577 74.501411 26.137577 C 76.618813 26.137577 78.628006 25.193636 80.077087 23.564545 L 80.077087 25.055759 C 80.077087 27.117575 77.917259 30.133938 74.535362 30.163635 L 73.451202 30.163635 L 73.451202 32.329395 L 74.537483 32.329395 C 79.311172 32.293335 82.243286 28.067877 82.243286 25.055759 L 82.277222 10.461819 L 82.33239 9.356667 L 80.077087 9.356667 L 80.077087 11.897881 Z M 74.501411 23.973938 C 71.427155 23.973938 68.925743 21.173939 68.925743 17.733334 C 68.925743 14.292727 71.427155 11.492727 74.501411 11.492727 C 77.575676 11.492727 80.077087 14.292727 80.077087 17.733334 C 80.077087 21.173939 77.575676 23.973938 74.501411 23.973938 Z"/>
    <path id="path23" fill="#0d0d0d" stroke="none" d="M 92.613861 9.326969 C 88.345116 9.326969 84.871994 13.098484 84.871994 17.733334 C 84.871994 22.368181 88.345116 26.139696 92.61174 26.139696 L 92.709335 26.139696 C 95.473831 26.139696 97.684586 25.004848 99.282181 22.769089 L 99.519806 22.438183 L 97.786423 21.139999 L 97.538193 21.483635 C 96.326729 23.159393 94.74823 23.973938 92.709335 23.973938 L 92.615982 23.973938 C 89.879066 23.973938 87.587692 21.786968 87.127296 18.817272 L 100.35997 18.817272 L 100.35997 17.733334 C 100.35997 13.098484 96.886848 9.326969 92.615982 9.326969 Z M 87.125175 16.651516 C 87.585571 13.681818 89.876945 11.494848 92.613861 11.494848 C 95.637199 11.494848 97.937057 14.135757 98.170433 16.651516 Z"/>
    <path id="path24" fill="#0d0d0d" stroke="none" d="M 116.471703 16.50091 C 116.471703 12.544847 113.446259 9.324848 109.727013 9.324848 C 108.016975 9.324848 106.398163 10.007879 105.150635 11.227575 L 105.150635 9.324848 L 102.982323 9.324848 L 102.982323 26.139696 L 105.150635 26.139696 L 105.150635 16.50091 C 105.150635 13.73909 107.204384 11.492727 109.727013 11.492727 C 112.249649 11.492727 114.303398 13.73909 114.303398 16.503031 L 114.337334 25.110909 L 114.390373 26.173637 L 116.52475 26.173637 L 116.471703 25.057878 L 116.471703 16.503031 Z"/>
    <path id="path25" fill="#0d0d0d" stroke="none" d="M 131.297729 21.61515 C 130.561523 22.626968 129.288544 23.973938 126.740448 23.973938 C 123.721359 23.973938 121.264496 21.173939 121.264496 17.733334 C 121.264496 14.292727 123.721359 11.492727 126.740448 11.492727 C 128.734802 11.492727 130.266617 12.218182 131.295624 13.65 L 131.533249 13.98303 L 133.277222 12.784546 L 133.045975 12.44091 C 132.08699 11.019697 130.213577 9.326969 126.740448 9.326969 C 122.526878 9.326969 119.098297 13.098484 119.098297 17.733334 C 119.098297 22.368181 122.526878 26.139696 126.740448 26.139696 C 129.422211 26.139696 131.543854 25.02606 133.045975 22.828485 L 133.281479 22.484848 L 131.537476 21.286364 Z"/>
    <path id="path26" fill="#0d0d0d" stroke="none" d="M 150.033936 17.733334 C 150.033936 13.098484 146.560822 9.326969 142.289948 9.326969 C 138.019104 9.326969 134.54808 13.098484 134.54808 17.733334 C 134.54808 22.368181 138.02121 26.139696 142.287842 26.139696 L 142.385422 26.139696 C 145.149933 26.139696 147.360672 25.004848 148.958282 22.769089 L 149.195908 22.438183 L 147.462509 21.139999 L 147.214279 21.483635 C 146.002823 23.159393 144.424316 23.973938 142.385422 23.973938 L 142.292068 23.973938 C 139.555161 23.973938 137.263779 21.786968 136.803391 18.817272 L 150.036072 18.817272 L 150.036072 17.733334 Z M 136.80127 16.649393 C 137.261673 13.679697 139.55304 11.492727 142.289948 11.492727 C 145.313293 11.492727 147.613159 14.133636 147.846527 16.649393 Z"/>
    <path id="path27" fill="#6285bc" stroke="none" d="M 87.884727 28.150608 L 87.806221 28.339396 L 86.645691 30.901817 L 85.485153 28.345758 L 85.404526 28.150608 L 84.869873 28.150608 L 84.869873 32.002728 L 85.512726 32.002728 L 85.512726 29.955757 L 86.352905 31.805454 L 86.433525 32.002728 L 86.85997 32.002728 L 86.938469 31.811819 L 87.778641 29.955757 L 87.780762 32.002728 L 88.423622 32.002728 L 88.417252 28.150608 Z"/>
    <path id="path28" fill="#6285bc" stroke="none" d="M 89.486565 32.002728 L 92.335922 32.002728 L 92.335922 31.359999 L 90.127296 31.359999 L 90.127296 30.396971 L 91.743988 30.396971 L 91.743988 29.756363 L 90.127296 29.756363 L 90.127296 28.79121 L 92.335922 28.79121 L 92.335922 28.150608 L 89.486565 28.150608 Z"/>
    <path id="path29" fill="#6285bc" stroke="none" d="M 94.754593 28.150608 L 94.739746 28.150608 C 94.739746 28.150608 93.199432 28.150608 93.199432 28.150608 L 93.199432 32.002728 L 94.754593 32.002728 C 95.658417 31.92 96.326729 31.058788 96.250351 30.076666 C 96.324615 29.094547 95.658417 28.233334 94.754593 28.150608 Z M 93.842293 28.79121 L 94.701553 28.79121 C 95.257431 28.840002 95.66478 29.404242 95.609619 30.066063 L 95.609619 30.095758 C 95.66478 30.74485 95.257431 31.313332 94.72065 31.362122 L 93.842293 31.362122 L 93.842293 28.793335 Z"/>
    <path id="path30" fill="#6285bc" stroke="none" d="M 97.118103 28.150608 L 97.760963 28.150608 L 97.760963 32.002728 L 97.118103 32.002728 Z"/>
    <path id="path31" fill="#6285bc" stroke="none" d="M 101.172554 30.846666 C 101.026169 31.094849 100.650635 31.359999 100.243286 31.359999 C 99.644981 31.359999 99.159119 30.78303 99.159119 30.074545 C 99.159119 29.366062 99.644981 28.789091 100.243286 28.789091 C 100.646393 28.789091 101.02829 29.049999 101.151344 29.289698 L 101.25106 29.484848 L 101.828148 29.196363 L 101.724182 28.996969 C 101.509903 28.583334 100.917961 28.146364 100.243286 28.146364 C 99.292786 28.146364 98.518387 29.009697 98.518387 30.072426 C 98.518387 31.135151 99.292786 31.998486 100.243286 31.998486 C 100.907349 31.998486 101.492928 31.578484 101.724182 31.162727 L 101.830269 30.97394 L 101.282883 30.651516 L 101.170441 30.842422 Z"/>
    <path id="path32" fill="#6285bc" stroke="none" d="M 104.149223 28.345758 L 104.068604 28.148483 L 103.644272 28.148483 L 103.563652 28.341515 L 102.16124 31.546667 L 101.951202 32.000607 L 102.664078 32.000607 L 102.74469 31.807575 L 103.012024 31.196665 L 104.700844 31.196665 L 104.968178 31.803331 L 105.048798 32.000607 L 105.761665 32.000607 L 105.553749 31.550911 L 104.151344 28.343636 Z M 103.289955 30.558182 L 103.856438 29.270607 L 104.420792 30.558182 Z"/>
    <path id="path33" fill="#6285bc" stroke="none" d="M 106.886139 28.150608 L 106.243286 28.150608 L 106.243286 32.002728 L 108.69165 32.002728 L 108.69165 31.359999 L 106.886139 31.359999 Z"/>
    <path id="path34" fill="#6285bc" stroke="none" d="M 113.632965 28.345758 L 113.550217 28.150608 L 113.125885 28.150608 L 113.045265 28.343636 L 111.64286 31.548786 L 111.432808 32.002728 L 112.145691 32.002728 L 112.22419 31.809698 L 112.491516 31.198788 L 114.180336 31.198788 L 114.447662 31.805454 L 114.52829 32.002728 L 115.241158 32.002728 L 115.033241 31.55303 L 113.630836 28.345758 Z M 112.773689 30.558182 L 113.338051 29.270607 L 113.904526 30.558182 Z"/>
    <path id="path35" fill="#6285bc" stroke="none" d="M 115.731255 28.150608 L 116.374115 28.150608 L 116.374115 32.002728 L 115.731255 32.002728 Z"/>
    <path id="path36" fill="#6285bc" stroke="none" d="M 121.340874 29.752121 C 120.980194 29.616364 120.532532 29.446665 120.532532 29.274847 C 120.532532 29.013939 120.844414 28.793335 121.215706 28.793335 C 121.58699 28.793335 121.898865 29.013939 121.898865 29.274847 L 121.898865 29.495455 L 122.539604 29.495455 L 122.539604 29.274847 C 122.539604 28.655453 121.945549 28.150608 121.215706 28.150608 C 120.485855 28.150608 119.8918 28.655453 119.8918 29.274847 C 119.896034 29.904848 120.579208 30.161516 121.181747 30.388483 C 121.544556 30.526363 121.998589 30.696062 121.998589 30.878483 C 121.998589 31.130909 121.625175 31.359999 121.215706 31.359999 C 120.806229 31.359999 120.432816 31.135151 120.432816 30.878483 L 120.432816 30.657879 L 119.789955 30.657879 L 119.789955 30.878483 C 119.789955 31.497879 120.428574 32.002728 121.215706 32.002728 C 122.002823 32.002728 122.641441 31.497879 122.641441 30.880608 C 122.645691 30.242119 121.951904 29.981211 121.342995 29.752121 Z"/>
    <path id="path37" fill="#6285bc" stroke="none" d="M 124.928574 28.150608 C 123.978073 28.150608 123.203682 29.013939 123.203682 30.076666 C 123.203682 31.139395 123.978073 32.002728 124.928574 32.002728 C 125.879066 32.002728 126.653473 31.139395 126.653473 30.076666 C 126.653473 29.013939 125.879066 28.150608 124.928574 28.150608 Z M 124.928574 31.362122 C 124.330269 31.362122 123.844406 30.785152 123.844406 30.076666 C 123.844406 29.368181 124.330269 28.79121 124.928574 28.79121 C 125.526878 28.79121 126.012733 29.368181 126.012733 30.076666 C 126.012733 30.785152 125.526878 31.362122 124.928574 31.362122 Z"/>
    <path id="path38" fill="#6285bc" stroke="none" d="M 128.159836 28.150608 L 127.516983 28.150608 L 127.516983 32.002728 L 129.965347 32.002728 L 129.965347 31.359999 L 128.159836 31.359999 Z"/>
    <path id="path39" fill="#6285bc" stroke="none" d="M 132.734085 30.679092 C 132.734085 31.054544 132.381897 31.362122 131.951202 31.362122 C 131.520508 31.362122 131.16832 31.056667 131.16832 30.681211 L 131.172562 28.49 L 131.189545 28.159092 L 130.527573 28.159092 L 130.527573 30.683332 C 130.527573 31.413029 131.166183 32.006969 131.953323 32.006969 C 132.740463 32.006969 133.379059 31.413029 133.379059 30.683332 L 133.383301 28.492119 L 133.400284 28.161211 L 132.736206 28.161211 L 132.736206 30.685455 Z"/>
    <path id="path40" fill="#6285bc" stroke="none" d="M 133.939178 28.79121 L 135.148514 28.79121 L 135.148514 32.002728 L 135.789261 32.002728 L 135.789261 28.79121 L 136.990097 28.79121 L 136.990097 28.150608 L 133.939178 28.150608 Z"/>
    <path id="path41" fill="#6285bc" stroke="none" d="M 137.656296 28.150608 L 138.299149 28.150608 L 138.299149 32.002728 L 137.656296 32.002728 Z"/>
    <path id="path42" fill="#6285bc" stroke="none" d="M 140.883316 28.150608 C 139.932816 28.150608 139.158417 29.013939 139.158417 30.076666 C 139.158417 31.139395 139.932816 32.002728 140.883316 32.002728 C 141.833801 32.002728 142.6082 31.139395 142.6082 30.076666 C 142.6082 29.013939 141.833801 28.150608 140.883316 28.150608 Z M 140.883316 31.362122 C 140.285019 31.362122 139.799149 30.785152 139.799149 30.076666 C 139.799149 29.368181 140.285019 28.79121 140.883316 28.79121 C 141.481613 28.79121 141.967468 29.368181 141.967468 30.076666 C 141.967468 30.785152 141.481613 31.362122 140.883316 31.362122 Z"/>
    <path id="path43" fill="#6285bc" stroke="none" d="M 145.775818 30.685455 L 144.048798 28.279999 L 143.953323 28.150608 L 143.47171 28.150608 L 143.47171 32.002728 L 144.114578 32.002728 L 144.114578 29.467878 L 145.839462 31.875456 L 145.934937 32.002728 L 146.41655 32.002728 L 146.420792 28.150608 L 145.78006 28.150608 Z"/>
    <path id="path44" fill="#6285bc" stroke="none" d="M 148.735504 29.752121 C 148.374832 29.616364 147.927155 29.446665 147.927155 29.274847 C 147.927155 29.013939 148.239044 28.793335 148.610321 28.793335 C 148.981613 28.793335 149.293488 29.013939 149.293488 29.274847 L 149.293488 29.495455 L 149.934235 29.495455 L 149.934235 29.274847 C 149.934235 28.655453 149.340179 28.150608 148.610321 28.150608 C 147.880478 28.150608 147.286423 28.655453 147.286423 29.274847 C 147.290665 29.904848 147.973831 30.161516 148.57637 30.388483 C 148.939178 30.526363 149.393219 30.696062 149.393219 30.878483 C 149.393219 31.130909 149.019806 31.359999 148.610321 31.359999 C 148.200851 31.359999 147.827438 31.135151 147.827438 30.878483 L 147.827438 30.657879 L 147.184586 30.657879 L 147.184586 30.878483 C 147.184586 31.497879 147.823196 32.002728 148.610321 32.002728 C 149.397446 32.002728 150.036072 31.497879 150.036072 30.880608 C 150.040314 30.242119 149.346527 29.981211 148.737625 29.752121 Z"/>
</svg>
