<?xml version="1.0" encoding="UTF-8"?>
<svg width="150px" height="57px" viewBox="0 0 150 57" xmlns="http://www.w3.org/2000/svg" xmlns:xlink="http://www.w3.org/1999/xlink" version="1.1">
 <!-- Generated by Pixelmator Pro 1.8 -->
 <g id="Layer_1_1_">
  <g id="group">
   <path id="Path" d="M82.237 38.242 L85.601 18.299 90.675 18.299 94.696 28.96 98.955 18.299 104.081 18.299 107.077 38.242 101.926 38.242 100.48 26.763 100.428 26.763 95.671 38.242 93.619 38.242 89.073 26.763 89.018 26.763 87.362 38.242 Z" fill="#231f20" fill-opacity="1" stroke="none"/>
   <path id="Path-1" d="M120.569 22.689 L114.447 22.689 114.447 26.023 120.253 26.023 120.253 30.413 114.447 30.413 114.447 33.851 120.569 33.851 120.569 38.242 109.295 38.242 109.295 18.299 120.569 18.299 Z" fill="#231f20" fill-opacity="1" stroke="none"/>
   <path id="Path-2" d="M139.167 18.299 L134.909 28.958 130.887 18.299 125.812 18.299 122.451 38.242 127.576 38.242 129.233 26.763 129.284 26.763 133.834 38.242 135.883 38.242 140.639 26.763 140.692 26.763 142.14 38.242 147.29 38.242 144.294 18.299 Z" fill="#231f20" fill-opacity="1" stroke="none"/>
   <path id="Path-3" d="M89.271 47.348 L95.098 47.348 C95.123 48.418 95.036 49.338 94.836 50.11 94.64 50.883 94.244 51.617 93.651 52.313 93.02 53.062 92.242 53.641 91.321 54.051 90.399 54.46 89.45 54.665 88.473 54.665 86.506 54.665 84.815 53.957 83.398 52.531 81.982 51.106 81.273 49.401 81.273 47.423 81.273 45.408 81.985 43.683 83.409 42.25 84.831 40.82 86.549 40.105 88.566 40.105 90.967 40.105 92.939 41.118 94.486 43.148 L93.353 44.211 C92.102 42.445 90.501 41.559 88.548 41.559 86.964 41.559 85.617 42.139 84.503 43.295 83.389 44.453 82.834 45.837 82.834 47.44 82.834 48.973 83.377 50.297 84.466 51.418 84.997 51.953 85.617 52.386 86.319 52.715 87.027 53.046 87.733 53.211 88.437 53.211 89.709 53.211 90.861 52.792 91.887 51.951 92.917 51.113 93.428 50.061 93.428 48.806 L89.272 48.806 89.272 47.348 Z" fill="#231f20" fill-opacity="1" stroke="none"/>
   <path id="Path-4" d="M100.663 48.243 L100.663 54.425 99.106 54.425 99.106 40.345 101.128 40.345 C101.845 40.345 102.488 40.399 103.056 40.512 103.626 40.624 104.164 40.819 104.672 41.093 105.176 41.366 105.567 41.769 105.84 42.296 106.112 42.825 106.249 43.469 106.249 44.23 106.249 45.312 105.933 46.209 105.301 46.918 104.672 47.625 103.818 48.025 102.742 48.113 L107.195 54.425 105.285 54.425 101.051 48.243 100.663 48.243 Z M100.663 41.803 L100.663 46.863 101.147 46.863 C101.641 46.863 102.077 46.833 102.454 46.77 102.831 46.707 103.204 46.591 103.567 46.423 103.934 46.258 104.211 45.997 104.403 45.65 104.595 45.301 104.69 44.865 104.69 44.342 104.69 43.894 104.622 43.512 104.485 43.196 104.35 42.879 104.183 42.629 103.986 42.449 103.788 42.268 103.521 42.129 103.189 42.028 102.853 41.929 102.533 41.868 102.232 41.841 101.928 41.818 101.56 41.803 101.129 41.803 L100.663 41.803 Z" fill="#231f20" fill-opacity="1" stroke="none"/>
   <path id="Path-5" d="M119.452 50.428 L113.476 50.428 111.79 54.425 110.081 54.425 116.539 39.673 122.83 54.425 121.103 54.425 Z M118.841 48.973 L116.502 43.333 114.106 48.973 Z" fill="#231f20" fill-opacity="1" stroke="none"/>
   <path id="Path-6" d="M127.701 48.263 L127.701 54.426 126.144 54.426 126.144 40.346 128.444 40.346 C129.211 40.346 129.865 40.387 130.41 40.477 130.955 40.562 131.456 40.768 131.913 41.094 132.421 41.454 132.812 41.917 133.084 42.485 133.358 43.05 133.493 43.658 133.493 44.306 133.493 45.574 133.047 46.583 132.16 47.328 131.401 47.952 130.293 48.263 128.835 48.263 L127.701 48.263 Z M127.701 41.803 L127.701 46.805 128.74 46.805 C130.868 46.805 131.932 45.96 131.932 44.268 131.932 43.818 131.862 43.439 131.718 43.128 131.578 42.816 131.397 42.578 131.18 42.409 130.966 42.242 130.683 42.111 130.337 42.016 129.99 41.924 129.667 41.867 129.372 41.84 129.075 41.817 128.711 41.803 128.276 41.803 Z" fill="#231f20" fill-opacity="1" stroke="none"/>
   <path id="Path-7" d="M138.642 46.061 L145.804 46.061 145.804 40.346 147.364 40.346 147.364 54.424 145.804 54.424 145.804 47.516 138.642 47.516 138.642 54.424 137.083 54.424 137.083 40.346 138.642 40.346 Z" fill="#231f20" fill-opacity="1" stroke="none"/>
   <g id="group-1">
    <defs>
     <linearGradient id="linear-gradient" gradientUnits="userSpaceOnUse" x1="17.504" y1="14.676" x2="31.22" y2="29.643">
      <stop offset="0" stop-color="#ff0097" stop-opacity="1"/>
      <stop offset="1" stop-color="#ffc516" stop-opacity="1"/>
     </linearGradient>
    </defs>
    <path id="Path-8" d="M28.425 25.106 C28.477 25.021 28.53 24.938 28.575 24.849 28.602 24.802 28.632 24.756 28.656 24.706 28.684 24.658 28.714 24.612 28.74 24.564 28.767 24.517 28.797 24.469 28.821 24.423 28.849 24.376 28.879 24.328 28.904 24.281 28.932 24.232 28.961 24.186 28.987 24.137 29.015 24.092 29.043 24.044 29.069 23.996 29.098 23.949 29.126 23.903 29.153 23.855 29.181 23.809 29.209 23.761 29.236 23.714 29.264 23.667 29.292 23.62 29.318 23.573 29.346 23.526 29.374 23.48 29.4 23.431 29.429 23.385 29.457 23.338 29.483 23.291 29.513 23.245 29.539 23.197 29.566 23.15 29.596 23.104 29.621 23.058 29.649 23.011 29.679 22.964 29.704 22.918 29.731 22.871 29.761 22.825 29.787 22.777 29.815 22.729 29.844 22.683 29.87 22.634 29.897 22.59 29.927 22.544 29.952 22.495 29.98 22.45 30.009 22.405 30.034 22.357 30.062 22.31 30.093 22.265 30.118 22.215 30.147 22.168 30.205 22.08 30.254 21.99 30.307 21.9 30.364 21.807 30.421 21.717 30.471 21.624 30.501 21.573 30.535 21.522 30.563 21.471 30.591 21.424 30.622 21.376 30.648 21.327 30.676 21.28 30.708 21.234 30.734 21.186 30.762 21.137 30.793 21.091 30.82 21.042 30.848 20.996 30.88 20.947 30.905 20.901 30.934 20.852 30.965 20.806 30.991 20.757 31.02 20.71 31.051 20.663 31.078 20.616 31.106 20.569 31.136 20.521 31.163 20.475 31.192 20.426 31.222 20.379 31.249 20.331 31.278 20.283 31.307 20.236 31.335 20.188 31.364 20.141 31.393 20.094 31.42 20.046 31.449 20 31.478 19.953 31.506 19.905 31.536 19.858 31.564 19.811 31.591 19.764 31.621 19.717 31.65 19.67 31.678 19.623 31.703 19.583 31.728 19.542 31.752 19.501 31.788 19.445 31.821 19.387 31.856 19.331 31.886 19.282 31.916 19.233 31.944 19.184 31.975 19.137 32.003 19.088 32.032 19.04 32.063 18.991 32.091 18.943 32.121 18.894 32.151 18.847 32.179 18.798 32.208 18.749 32.239 18.702 32.268 18.652 32.297 18.606 32.334 18.548 32.367 18.49 32.401 18.434 32.45 18.358 32.496 18.282 32.54 18.205 32.57 18.156 32.601 18.108 32.63 18.057 34.088 15.693 33.794 12.548 31.748 10.502 29.369 8.121 25.521 8.132 23.154 10.526 21.996 11.698 21.409 13.224 21.39 14.755 21.388 14.781 21.389 14.808 21.388 14.833 21.388 14.842 21.388 14.849 21.388 14.856 21.387 14.884 21.387 14.911 21.386 14.941 21.384 15.001 21.383 15.063 21.382 15.125 21.38 15.187 21.379 15.249 21.378 15.31 21.377 15.372 21.376 15.433 21.375 15.495 21.373 15.555 21.372 15.617 21.372 15.679 21.37 15.74 21.368 15.802 21.368 15.863 21.365 15.925 21.364 15.986 21.364 16.047 21.361 16.108 21.359 16.17 21.359 16.231 21.357 16.31 21.355 16.391 21.355 16.471 21.352 16.527 21.354 16.582 21.354 16.638 21.349 16.703 21.35 16.767 21.348 16.833 21.345 16.895 21.346 16.962 21.344 17.025 21.341 17.09 21.341 17.154 21.338 17.218 21.334 17.283 21.334 17.346 21.334 17.412 21.33 17.475 21.329 17.541 21.329 17.604 21.325 17.669 21.324 17.733 21.324 17.797 21.321 17.861 21.319 17.925 21.318 17.989 21.316 18.054 21.314 18.118 21.313 18.182 21.311 18.247 21.309 18.309 21.308 18.374 21.305 18.438 21.303 18.502 21.303 18.565 21.301 18.63 21.298 18.694 21.298 18.757 21.296 18.822 21.292 18.885 21.292 18.949 21.29 19.013 21.287 19.076 21.287 19.14 21.285 19.204 21.281 19.267 21.281 19.331 21.28 19.395 21.275 19.458 21.276 19.521 21.274 19.586 21.269 19.649 21.27 19.712 21.269 19.754 21.265 19.796 21.265 19.838 21.264 19.85 21.265 19.858 21.264 19.867 21.264 19.877 21.264 19.884 21.264 19.893 21.261 19.937 21.261 19.98 21.26 20.025 21.255 20.088 21.256 20.153 21.253 20.219 21.249 20.283 21.249 20.347 21.247 20.412 21.242 20.476 21.242 20.54 21.24 20.606 21.236 20.67 21.235 20.733 21.234 20.799 21.229 20.863 21.228 20.926 21.226 20.991 21.222 21.056 21.22 21.12 21.219 21.185 21.215 21.248 21.213 21.312 21.212 21.378 21.209 21.441 21.205 21.504 21.204 21.57 21.2 21.634 21.197 21.697 21.197 21.761 21.193 21.824 21.19 21.888 21.19 21.952 21.186 22.016 21.181 22.081 21.181 22.144 21.178 22.207 21.173 22.27 21.173 22.335 21.17 22.397 21.165 22.459 21.165 22.524 21.159 22.586 21.159 22.651 21.157 22.715 21.151 22.779 21.15 22.844 21.148 22.907 21.142 22.974 21.14 23.036 21.139 23.102 21.134 23.165 21.131 23.231 21.129 23.294 21.125 23.357 21.122 23.423 21.12 23.487 21.115 23.55 21.112 23.616 21.111 23.679 21.106 23.742 21.102 23.806 21.101 23.87 21.096 23.933 21.092 23.997 21.091 24.06 21.086 24.124 21.082 24.188 21.081 24.25 21.077 24.313 21.07 24.376 21.07 24.441 21.069 24.453 21.068 24.468 21.068 24.484 21.062 24.531 21.062 24.577 21.06 24.622 21.06 24.624 21.059 24.627 21.059 24.629 21.058 24.645 21.057 24.661 21.057 24.677 21.05 24.741 21.049 24.804 21.046 24.87 21.039 24.932 21.037 24.996 21.034 25.061 21.028 25.124 21.024 25.187 21.022 25.251 21.016 25.316 21.013 25.378 21.011 25.441 21.005 25.506 20.999 25.567 20.997 25.632 20.992 25.695 20.986 25.756 20.985 25.821 20.98 25.882 20.972 25.946 20.971 26.008 20.968 26.034 20.967 26.061 20.965 26.088 20.957 26.151 20.955 26.215 20.951 26.278 20.943 26.342 20.94 26.406 20.938 26.47 20.93 26.531 20.925 26.595 20.923 26.657 20.916 26.721 20.911 26.783 20.908 26.846 20.9 26.908 20.894 26.971 20.893 27.033 20.886 27.095 20.879 27.156 20.876 27.219 20.872 27.255 20.869 27.29 20.866 27.324 20.858 27.387 20.854 27.45 20.851 27.514 20.843 27.576 20.838 27.638 20.834 27.7 20.826 27.764 20.821 27.825 20.818 27.886 20.81 27.948 20.803 28.009 20.8 28.071 20.792 28.133 20.785 28.193 20.781 28.254 20.775 28.295 20.771 28.339 20.767 28.38 20.758 28.442 20.753 28.503 20.748 28.565 20.739 28.627 20.734 28.686 20.728 28.748 20.72 28.808 20.713 28.869 20.707 28.931 20.699 28.991 20.691 29.052 20.686 29.112 20.677 29.171 20.668 29.232 20.662 29.291 20.656 29.338 20.651 29.384 20.647 29.429 20.644 29.444 20.64 29.455 20.638 29.471 20.632 29.516 20.629 29.563 20.625 29.609 20.62 29.638 20.612 29.665 20.608 29.695 20.605 29.726 20.604 29.756 20.601 29.786 20.593 29.831 20.584 29.875 20.579 29.92 20.576 29.935 20.577 29.949 20.576 29.965 20.566 30.012 20.558 30.065 20.553 30.117 20.541 30.174 20.535 30.234 20.528 30.293 20.517 30.35 20.509 30.407 20.503 30.468 20.491 30.523 20.482 30.58 20.475 30.638 20.464 30.696 20.452 30.752 20.445 30.809 20.434 30.863 20.426 30.923 20.419 30.98 20.407 31.034 20.398 31.094 20.39 31.149 20.377 31.204 20.367 31.258 20.359 31.316 20.346 31.375 20.334 31.435 20.325 31.496 20.313 31.551 20.305 31.605 20.296 31.662 20.284 31.717 20.273 31.772 20.265 31.827 20.251 31.879 20.24 31.933 20.231 31.988 20.215 32.051 20.203 32.114 20.193 32.18 20.18 32.23 20.17 32.284 20.16 32.338 20.146 32.391 20.134 32.443 20.124 32.496 20.107 32.558 20.092 32.621 20.08 32.685 20.067 32.738 20.055 32.791 20.045 32.846 20.03 32.897 20.018 32.948 20.008 33 19.99 33.059 19.974 33.119 19.963 33.182 19.946 33.236 19.934 33.293 19.921 33.349 19.906 33.398 19.893 33.449 19.882 33.5 19.863 33.556 19.847 33.617 19.833 33.678 19.815 33.733 19.801 33.789 19.788 33.846 19.772 33.894 19.758 33.945 19.746 33.995 19.727 34.052 19.709 34.112 19.694 34.172 19.675 34.227 19.659 34.282 19.645 34.338 19.628 34.388 19.613 34.437 19.599 34.485 19.578 34.544 19.559 34.602 19.543 34.663 19.524 34.717 19.507 34.771 19.49 34.828 19.473 34.877 19.458 34.928 19.443 34.976 19.42 35.033 19.4 35.09 19.383 35.147 19.362 35.203 19.344 35.259 19.327 35.315 19.308 35.365 19.291 35.414 19.275 35.464 19.252 35.518 19.233 35.573 19.216 35.628 19.192 35.686 19.172 35.744 19.154 35.802 19.133 35.852 19.114 35.902 19.098 35.954 19.077 36.002 19.055 36.054 19.038 36.104 19.012 36.166 18.99 36.224 18.969 36.287 18.947 36.337 18.928 36.389 18.91 36.441 18.887 36.49 18.866 36.542 18.848 36.597 18.823 36.649 18.799 36.703 18.779 36.76 18.754 36.813 18.734 36.867 18.714 36.923 18.689 36.974 18.668 37.027 18.649 37.079 18.625 37.133 18.601 37.184 18.581 37.238 18.555 37.291 18.532 37.344 18.51 37.397 18.486 37.451 18.465 37.504 18.443 37.558 18.417 37.61 18.396 37.664 18.373 37.719 18.347 37.771 18.322 37.825 18.3 37.878 18.277 37.925 18.253 37.975 18.233 38.022 18.233 38.023 18.233 38.023 18.233 38.023 18.231 38.029 18.228 38.036 18.225 38.042 18.202 38.088 18.181 38.136 18.161 38.184 18.134 38.237 18.111 38.292 18.086 38.347 18.059 38.401 18.033 38.455 18.011 38.51 17.983 38.565 17.955 38.619 17.932 38.675 17.912 38.716 17.892 38.757 17.873 38.799 17.871 38.803 17.868 38.806 17.866 38.811 17.839 38.859 17.818 38.912 17.795 38.963 17.786 38.979 17.776 38.995 17.768 39.01 17.748 39.049 17.733 39.089 17.715 39.126 17.7 39.154 17.683 39.182 17.669 39.211 17.656 39.237 17.646 39.265 17.635 39.29 17.613 39.332 17.591 39.369 17.57 39.411 17.564 39.426 17.559 39.442 17.553 39.456 17.525 39.508 17.497 39.558 17.472 39.611 17.471 39.617 17.47 39.619 17.469 39.624 17.45 39.656 17.433 39.692 17.416 39.728 17.386 39.78 17.361 39.835 17.334 39.893 17.304 39.946 17.276 40.002 17.249 40.058 17.219 40.113 17.19 40.168 17.164 40.225 17.133 40.279 17.104 40.335 17.077 40.393 17.046 40.447 17.017 40.5 16.989 40.559 16.973 40.587 16.958 40.616 16.943 40.645 16.913 40.698 16.885 40.755 16.857 40.81 16.826 40.865 16.798 40.92 16.769 40.977 16.738 41.032 16.709 41.086 16.681 41.143 16.649 41.198 16.62 41.254 16.592 41.31 16.56 41.366 16.529 41.42 16.502 41.478 16.47 41.534 16.438 41.588 16.41 41.645 16.398 41.667 16.386 41.688 16.375 41.709 16.37 41.72 16.365 41.727 16.359 41.738 16.346 41.763 16.33 41.788 16.318 41.815 16.308 41.834 16.297 41.853 16.286 41.873 16.254 41.927 16.225 41.984 16.195 42.038 16.164 42.093 16.135 42.15 16.105 42.206 16.073 42.26 16.043 42.314 16.013 42.373 15.98 42.428 15.95 42.481 15.921 42.539 15.888 42.594 15.857 42.649 15.828 42.705 15.795 42.761 15.763 42.815 15.734 42.873 15.702 42.929 15.669 42.983 15.64 43.041 15.608 43.097 15.574 43.151 15.545 43.21 15.54 43.219 15.535 43.229 15.53 43.237 15.496 43.29 15.467 43.347 15.436 43.403 15.404 43.456 15.374 43.512 15.343 43.568 15.309 43.621 15.279 43.676 15.249 43.734 15.215 43.789 15.186 43.842 15.154 43.898 15.121 43.955 15.09 44.01 15.059 44.066 15.026 44.12 14.994 44.175 14.964 44.233 14.931 44.287 14.898 44.343 14.867 44.4 14.834 44.455 14.801 44.509 14.771 44.566 14.738 44.62 14.705 44.676 14.676 44.734 14.643 44.79 14.609 44.844 14.579 44.902 14.547 44.955 14.514 45.005 14.485 45.06 14.453 45.109 14.426 45.164 14.396 45.217 14.361 45.27 14.332 45.326 14.299 45.381 14.266 45.434 14.235 45.49 14.204 45.546 14.17 45.6 14.139 45.656 14.108 45.711 14.074 45.765 14.042 45.82 14.01 45.877 13.976 45.932 13.946 45.986 13.913 46.043 13.88 46.097 13.847 46.151 13.816 46.207 13.783 46.262 13.751 46.318 13.718 46.373 13.685 46.427 13.652 46.482 13.621 46.538 13.587 46.593 13.554 46.648 13.523 46.704 13.49 46.76 13.456 46.813 13.425 46.871 13.392 46.925 13.358 46.979 13.327 47.037 13.294 47.092 13.259 47.145 13.229 47.203 13.195 47.258 13.161 47.312 13.129 47.37 12.702 48.095 12.454 48.938 12.454 49.842 12.454 52.531 14.62 54.71 17.291 54.71 19.962 54.71 22.129 52.53 22.129 49.842 22.129 49.833 22.126 49.822 22.126 49.811 22.128 49.771 22.134 49.729 22.134 49.686 22.134 49.672 22.133 49.661 22.132 49.649 22.133 49.608 22.139 49.57 22.139 49.529 22.14 49.514 22.138 49.5 22.138 49.484 22.139 49.446 22.144 49.41 22.144 49.372 22.145 49.356 22.143 49.338 22.143 49.321 22.144 49.287 22.149 49.251 22.151 49.215 22.151 49.197 22.148 49.176 22.148 49.158 22.149 49.124 22.155 49.093 22.156 49.06 22.157 49.036 22.154 49.015 22.154 48.994 22.156 48.963 22.16 48.932 22.161 48.904 22.162 48.879 22.16 48.855 22.16 48.829 22.161 48.801 22.166 48.775 22.167 48.746 22.168 48.719 22.165 48.692 22.166 48.666 22.167 48.641 22.171 48.616 22.172 48.59 22.174 48.561 22.171 48.531 22.171 48.502 22.173 48.478 22.177 48.457 22.179 48.434 22.18 48.401 22.177 48.368 22.178 48.337 22.18 48.317 22.182 48.298 22.184 48.277 22.185 48.243 22.183 48.208 22.184 48.172 22.185 48.156 22.188 48.139 22.189 48.122 22.191 48.084 22.189 48.048 22.19 48.009 22.19 47.994 22.193 47.981 22.194 47.967 22.198 47.925 22.194 47.885 22.196 47.843 22.197 47.832 22.2 47.82 22.201 47.809 22.203 47.764 22.201 47.722 22.203 47.679 22.203 47.67 22.205 47.662 22.205 47.653 22.209 47.606 22.207 47.561 22.208 47.515 22.209 47.507 22.21 47.501 22.21 47.496 22.215 47.446 22.213 47.399 22.215 47.349 22.215 47.346 22.215 47.343 22.216 47.341 22.221 47.282 22.219 47.225 22.222 47.167 22.23 47.064 22.233 46.961 22.234 46.859 22.239 46.777 22.246 46.692 22.246 46.609 22.248 46.556 22.253 46.501 22.253 46.448 22.256 46.395 22.26 46.341 22.261 46.287 22.263 46.232 22.268 46.179 22.268 46.124 22.271 46.071 22.275 46.016 22.276 45.962 22.279 45.907 22.283 45.855 22.284 45.8 22.287 45.747 22.291 45.692 22.292 45.638 22.296 45.583 22.299 45.53 22.3 45.473 22.304 45.42 22.306 45.366 22.309 45.313 22.314 45.259 22.316 45.203 22.318 45.147 22.322 45.093 22.324 45.039 22.326 44.985 22.332 44.93 22.333 44.876 22.335 44.82 22.341 44.766 22.342 44.71 22.345 44.655 22.35 44.603 22.352 44.549 22.354 44.494 22.361 44.419 22.363 44.346 22.367 44.275 22.377 44.179 22.384 44.084 22.385 43.99 22.389 43.937 22.395 43.885 22.396 43.831 22.401 43.777 22.405 43.724 22.407 43.669 22.411 43.616 22.416 43.562 22.417 43.508 22.422 43.454 22.427 43.4 22.428 43.347 22.434 43.292 22.438 43.238 22.441 43.185 22.446 43.13 22.449 43.077 22.452 43.022 22.458 42.969 22.463 42.915 22.464 42.861 22.471 42.806 22.474 42.753 22.477 42.697 22.484 42.644 22.487 42.591 22.491 42.535 22.498 42.48 22.5 42.425 22.504 42.372 22.516 42.287 22.522 42.201 22.526 42.115 22.533 42.05 22.541 41.984 22.543 41.92 22.548 41.867 22.555 41.812 22.558 41.758 22.564 41.705 22.569 41.653 22.572 41.598 22.579 41.543 22.585 41.491 22.588 41.437 22.596 41.383 22.6 41.33 22.604 41.275 22.611 41.222 22.616 41.168 22.619 41.114 22.627 41.059 22.633 41.007 22.637 40.951 22.644 40.898 22.649 40.844 22.655 40.79 22.666 40.715 22.674 40.639 22.679 40.564 22.689 40.499 22.696 40.434 22.702 40.369 22.709 40.315 22.716 40.262 22.72 40.209 22.727 40.154 22.735 40.101 22.74 40.048 22.748 39.994 22.754 39.941 22.759 39.888 22.767 39.835 22.774 39.779 22.779 39.726 22.789 39.673 22.795 39.621 22.8 39.566 22.811 39.511 22.816 39.459 22.824 39.403 22.839 39.324 22.851 39.243 22.857 39.164 22.866 39.111 22.875 39.057 22.88 39.004 22.89 38.951 22.899 38.899 22.904 38.844 22.914 38.791 22.923 38.739 22.929 38.685 22.94 38.632 22.948 38.578 22.955 38.525 22.966 38.471 22.974 38.419 22.982 38.364 22.996 38.301 23.006 38.236 23.015 38.172 23.03 38.109 23.041 38.044 23.049 37.978 23.06 37.925 23.07 37.874 23.077 37.82 23.09 37.767 23.1 37.714 23.108 37.66 23.12 37.608 23.13 37.554 23.138 37.501 23.15 37.449 23.16 37.397 23.17 37.342 23.186 37.277 23.2 37.214 23.21 37.147 23.225 37.089 23.239 37.029 23.248 36.968 23.262 36.916 23.273 36.863 23.283 36.81 23.297 36.755 23.308 36.705 23.318 36.651 23.332 36.599 23.345 36.547 23.355 36.494 23.37 36.441 23.382 36.389 23.394 36.334 23.415 36.267 23.432 36.198 23.445 36.126 23.46 36.075 23.473 36.021 23.485 35.971 23.5 35.919 23.514 35.865 23.526 35.814 23.542 35.761 23.556 35.709 23.569 35.657 23.585 35.606 23.599 35.552 23.612 35.5 23.635 35.435 23.653 35.367 23.668 35.302 23.686 35.249 23.703 35.194 23.715 35.139 23.733 35.087 23.749 35.035 23.762 34.984 23.779 34.932 23.796 34.88 23.809 34.829 23.828 34.779 23.843 34.726 23.858 34.676 23.877 34.622 23.894 34.568 23.909 34.512 23.935 34.449 23.956 34.383 23.973 34.316 23.992 34.265 24.01 34.213 24.025 34.163 24.045 34.112 24.062 34.062 24.077 34.01 24.097 33.959 24.115 33.907 24.132 33.856 24.153 33.808 24.169 33.756 24.186 33.706 24.214 33.637 24.24 33.57 24.262 33.498 24.282 33.449 24.302 33.399 24.318 33.346 24.338 33.298 24.359 33.247 24.376 33.195 24.397 33.146 24.416 33.096 24.434 33.044 24.456 32.996 24.474 32.946 24.494 32.896 24.516 32.845 24.536 32.795 24.554 32.744 24.585 32.676 24.615 32.606 24.639 32.534 24.661 32.486 24.683 32.435 24.7 32.383 24.722 32.335 24.744 32.285 24.763 32.236 24.786 32.187 24.807 32.136 24.826 32.086 24.85 32.038 24.871 31.989 24.89 31.938 24.913 31.89 24.934 31.841 24.954 31.79 24.983 31.732 25.009 31.672 25.034 31.61 25.065 31.549 25.093 31.487 25.118 31.424 25.142 31.375 25.164 31.326 25.185 31.276 25.209 31.228 25.231 31.18 25.252 31.129 25.276 31.082 25.298 31.033 25.32 30.984 25.344 30.934 25.367 30.885 25.388 30.837 25.413 30.79 25.435 30.741 25.457 30.693 25.482 30.646 25.503 30.597 25.526 30.548 25.568 30.473 25.605 30.393 25.639 30.313 25.663 30.267 25.688 30.217 25.71 30.166 25.735 30.12 25.759 30.071 25.782 30.022 25.807 29.975 25.831 29.927 25.854 29.878 25.879 29.831 25.903 29.781 25.926 29.733 25.952 29.686 25.976 29.637 25.999 29.588 26.025 29.543 26.048 29.493 26.071 29.446 26.097 29.4 26.12 29.35 26.144 29.304 26.174 29.249 26.201 29.195 26.228 29.139 26.271 29.064 26.313 28.983 26.35 28.902 26.376 28.854 26.402 28.808 26.425 28.757 26.451 28.71 26.478 28.663 26.5 28.613 26.526 28.567 26.552 28.52 26.575 28.47 26.602 28.423 26.628 28.377 26.651 28.327 26.678 28.282 26.703 28.234 26.728 28.185 26.754 28.138 26.779 28.09 26.803 28.042 26.83 27.996 26.854 27.948 26.879 27.9 26.906 27.855 26.931 27.807 26.956 27.761 26.983 27.715 27.007 27.666 27.031 27.619 27.064 27.565 27.092 27.509 27.121 27.453 27.172 27.368 27.221 27.281 27.264 27.191 27.291 27.144 27.32 27.101 27.344 27.052 27.345 27.047 27.346 27.044 27.349 27.04 27.372 27 27.396 26.962 27.417 26.919 27.421 26.914 27.423 26.904 27.428 26.897 27.448 26.86 27.472 26.826 27.492 26.789 27.498 26.778 27.501 26.765 27.507 26.755 27.525 26.721 27.547 26.69 27.565 26.658 27.573 26.643 27.579 26.627 27.587 26.612 27.604 26.582 27.623 26.555 27.639 26.524 27.649 26.507 27.656 26.488 27.666 26.469 27.681 26.444 27.699 26.42 27.714 26.394 27.725 26.373 27.733 26.349 27.745 26.328 27.759 26.306 27.774 26.283 27.787 26.262 27.801 26.237 27.811 26.212 27.825 26.186 27.836 26.168 27.85 26.15 27.861 26.131 27.877 26.103 27.889 26.073 27.904 26.045 27.914 26.029 27.925 26.015 27.934 26 27.952 25.968 27.967 25.935 27.984 25.905 27.992 25.891 28.001 25.879 28.009 25.867 28.03 25.833 28.045 25.797 28.065 25.764 28.07 25.753 28.078 25.744 28.084 25.734 28.106 25.696 28.123 25.66 28.143 25.623 28.148 25.616 28.153 25.609 28.157 25.603 28.181 25.564 28.202 25.523 28.224 25.483 28.226 25.477 28.229 25.475 28.232 25.471 28.258 25.429 28.279 25.385 28.304 25.342 28.304 25.34 28.305 25.34 28.306 25.339 28.344 25.259 28.384 25.182 28.425 25.106" fill-opacity="1" fill="url(#linear-gradient)" stroke="none"/>
    <defs>
     <linearGradient id="linear-gradient-1" gradientUnits="userSpaceOnUse" x1="47.122" y1="13.148" x2="29.356" y2="34.335">
      <stop offset="0" stop-color="#ff7300" stop-opacity="1"/>
      <stop offset="1" stop-color="#ffc516" stop-opacity="1"/>
     </linearGradient>
    </defs>
    <path id="Path-9" d="M46.332 45.528 C46.247 45.41 46.158 45.296 46.063 45.183 45.978 45.066 45.886 44.951 45.79 44.839 45.706 44.723 45.616 44.609 45.523 44.499 45.44 44.382 45.352 44.272 45.26 44.162 45.178 44.047 45.092 43.935 45.001 43.828 44.921 43.713 44.837 43.603 44.747 43.497 44.665 43.376 44.576 43.259 44.481 43.149 44.393 43.02 44.3 42.898 44.198 42.78 44.113 42.658 44.024 42.54 43.928 42.426 43.852 42.315 43.769 42.206 43.682 42.103 43.608 41.996 43.528 41.887 43.443 41.786 43.361 41.659 43.268 41.54 43.172 41.425 43.088 41.296 42.996 41.173 42.898 41.056 42.818 40.934 42.733 40.816 42.639 40.705 42.57 40.6 42.495 40.497 42.416 40.4 42.334 40.27 42.242 40.149 42.146 40.032 42.066 39.903 41.978 39.782 41.882 39.665 41.81 39.552 41.734 39.442 41.651 39.341 41.574 39.214 41.488 39.094 41.397 38.983 41.321 38.854 41.237 38.733 41.144 38.62 41.073 38.5 40.997 38.387 40.913 38.282 40.839 38.154 40.756 38.034 40.666 37.92 40.594 37.793 40.516 37.673 40.429 37.56 40.36 37.438 40.282 37.32 40.196 37.212 40.18 37.18 40.165 37.147 40.147 37.119 40.093 37.027 40.034 36.941 39.972 36.858 39.933 36.787 39.894 36.716 39.85 36.646 39.816 36.595 39.779 36.546 39.741 36.496 39.685 36.386 39.624 36.279 39.552 36.178 39.543 36.164 39.533 36.155 39.525 36.144 39.464 36.016 39.389 35.894 39.304 35.777 39.244 35.649 39.172 35.524 39.088 35.405 39.033 35.284 38.966 35.167 38.888 35.053 38.83 34.918 38.759 34.788 38.673 34.663 38.62 34.536 38.554 34.413 38.478 34.296 38.427 34.169 38.364 34.047 38.29 33.928 38.24 33.797 38.178 33.671 38.104 33.55 38.055 33.415 37.993 33.285 37.919 33.162 37.874 33.031 37.816 32.905 37.747 32.785 37.704 32.652 37.649 32.525 37.582 32.405 37.542 32.272 37.489 32.145 37.424 32.022 37.383 31.882 37.33 31.746 37.264 31.617 37.226 31.482 37.177 31.352 37.116 31.228 37.081 31.093 37.034 30.963 36.977 30.839 36.944 30.703 36.898 30.571 36.842 30.445 36.81 30.299 36.763 30.159 36.704 30.024 36.673 29.888 36.633 29.759 36.582 29.635 36.553 29.493 36.51 29.355 36.459 29.224 36.431 29.08 36.393 28.942 36.341 28.808 36.315 28.671 36.277 28.537 36.229 28.408 36.204 28.264 36.168 28.124 36.121 27.989 36.119 27.975 36.118 27.963 36.115 27.947 36.091 27.821 36.056 27.702 36.016 27.584 36.007 27.527 35.999 27.469 35.986 27.412 35.967 27.331 35.943 27.255 35.919 27.178 35.904 27.077 35.883 26.978 35.856 26.878 35.845 26.837 35.83 26.8 35.817 26.759 35.796 26.621 35.769 26.482 35.726 26.344 35.725 26.339 35.723 26.334 35.721 26.329 35.702 26.198 35.671 26.067 35.633 25.936 35.613 25.789 35.582 25.644 35.54 25.501 35.521 25.359 35.493 25.216 35.452 25.075 35.434 24.944 35.407 24.813 35.372 24.682 35.354 24.532 35.323 24.384 35.284 24.238 35.264 24.087 35.238 23.937 35.198 23.785 35.181 23.663 35.157 23.54 35.127 23.417 35.111 23.272 35.083 23.129 35.048 22.986 35.03 22.834 35.003 22.684 34.966 22.532 34.948 22.383 34.922 22.235 34.886 22.086 34.87 21.954 34.846 21.823 34.816 21.693 34.8 21.558 34.776 21.424 34.748 21.29 34.731 21.144 34.706 20.999 34.674 20.854 34.657 20.701 34.631 20.548 34.598 20.396 34.58 20.25 34.555 20.105 34.524 19.96 34.507 19.822 34.484 19.684 34.454 19.546 34.439 19.408 34.415 19.267 34.386 19.128 34.37 18.986 34.347 18.844 34.319 18.703 34.303 18.56 34.282 18.417 34.253 18.276 34.237 18.131 34.216 17.986 34.188 17.843 34.171 17.696 34.146 17.553 34.118 17.408 34.102 17.266 34.078 17.123 34.05 16.983 34.034 16.838 34.011 16.696 33.983 16.553 33.966 16.408 33.944 16.263 33.917 16.12 33.902 15.994 33.885 15.869 33.862 15.744 33.846 15.584 33.822 15.425 33.792 15.265 33.777 15.119 33.754 14.974 33.728 14.827 33.712 14.681 33.69 14.535 33.663 14.389 33.646 14.242 33.626 14.094 33.599 13.949 33.447 12.612 32.864 11.32 31.846 10.296 29.454 7.888 25.576 7.888 23.184 10.296 20.9 12.594 20.799 16.253 22.875 18.674 22.963 18.792 23.056 18.909 23.152 19.021 23.241 19.14 23.333 19.258 23.431 19.37 23.516 19.486 23.605 19.598 23.7 19.708 23.784 19.822 23.874 19.935 23.968 20.044 24.042 20.144 24.122 20.238 24.203 20.335 24.285 20.448 24.375 20.56 24.467 20.669 24.559 20.799 24.661 20.926 24.766 21.05 24.856 21.177 24.951 21.301 25.055 21.42 25.06 21.427 25.068 21.434 25.074 21.441 25.144 21.535 25.212 21.631 25.288 21.721 25.302 21.74 25.319 21.753 25.333 21.768 25.394 21.854 25.454 21.94 25.521 22.024 25.544 22.05 25.569 22.074 25.592 22.101 25.647 22.175 25.697 22.252 25.756 22.325 25.787 22.361 25.82 22.395 25.852 22.431 25.897 22.495 25.939 22.562 25.989 22.625 26.028 22.674 26.071 22.718 26.111 22.765 26.149 22.819 26.183 22.873 26.222 22.927 26.27 22.988 26.323 23.045 26.372 23.102 26.401 23.143 26.426 23.187 26.457 23.229 26.513 23.302 26.573 23.37 26.632 23.44 26.652 23.469 26.669 23.501 26.691 23.528 26.754 23.617 26.824 23.698 26.893 23.78 26.904 23.796 26.913 23.814 26.925 23.829 26.996 23.932 27.074 24.028 27.153 24.119 27.154 24.126 27.155 24.129 27.158 24.131 27.246 24.26 27.341 24.382 27.44 24.498 27.52 24.616 27.606 24.727 27.696 24.833 27.777 24.954 27.863 25.066 27.953 25.174 28.034 25.294 28.12 25.408 28.21 25.517 28.29 25.638 28.374 25.754 28.466 25.862 28.544 25.984 28.63 26.101 28.721 26.21 28.798 26.331 28.882 26.445 28.97 26.554 29.048 26.677 29.134 26.791 29.224 26.901 29.302 27.023 29.387 27.14 29.478 27.25 29.554 27.373 29.638 27.493 29.73 27.604 29.806 27.729 29.888 27.851 29.979 27.962 30.05 28.078 30.126 28.189 30.209 28.293 30.283 28.418 30.366 28.534 30.455 28.647 30.529 28.777 30.611 28.896 30.701 29.011 30.773 29.136 30.85 29.256 30.938 29.367 31.004 29.486 31.078 29.597 31.159 29.704 31.228 29.836 31.309 29.956 31.397 30.072 31.465 30.202 31.542 30.326 31.629 30.441 31.691 30.562 31.761 30.677 31.841 30.785 31.904 30.917 31.979 31.041 32.064 31.155 32.125 31.286 32.197 31.41 32.279 31.526 32.336 31.65 32.402 31.767 32.478 31.876 32.537 32.014 32.61 32.144 32.692 32.269 32.746 32.393 32.809 32.513 32.884 32.627 32.937 32.759 33.001 32.883 33.076 33.003 33.127 33.137 33.19 33.263 33.265 33.385 33.311 33.513 33.37 33.634 33.439 33.753 33.484 33.89 33.547 34.023 33.62 34.15 33.662 34.28 33.715 34.403 33.781 34.523 33.823 34.663 33.879 34.8 33.949 34.929 33.987 35.058 34.037 35.185 34.098 35.305 34.135 35.442 34.186 35.577 34.248 35.705 34.284 35.841 34.33 35.973 34.391 36.101 34.423 36.234 34.467 36.364 34.524 36.49 34.556 36.633 34.602 36.774 34.661 36.911 34.691 37.04 34.73 37.169 34.782 37.295 34.81 37.435 34.852 37.573 34.906 37.707 34.933 37.846 34.971 37.986 35.023 38.121 35.048 38.254 35.083 38.383 35.129 38.51 35.154 38.654 35.193 38.795 35.242 38.934 35.266 39.077 35.299 39.22 35.348 39.36 35.371 39.492 35.402 39.622 35.444 39.751 35.465 39.891 35.5 40.031 35.544 40.168 35.566 40.312 35.598 40.455 35.641 40.597 35.661 40.739 35.69 40.881 35.733 41.023 35.752 41.155 35.781 41.285 35.817 41.417 35.836 41.558 35.869 41.702 35.909 41.843 35.928 41.986 35.957 42.128 35.997 42.27 36.014 42.41 36.042 42.552 36.079 42.694 36.098 42.835 36.122 42.976 36.158 43.117 36.175 43.246 36.197 43.375 36.228 43.504 36.232 43.517 36.236 43.528 36.24 43.54 36.254 43.649 36.271 43.761 36.294 43.87 36.302 43.903 36.312 43.933 36.32 43.965 36.333 44.056 36.342 44.146 36.36 44.235 36.37 44.288 36.387 44.339 36.399 44.392 36.407 44.461 36.414 44.53 36.426 44.601 36.439 44.674 36.458 44.743 36.474 44.815 36.481 44.865 36.483 44.916 36.491 44.967 36.506 45.058 36.527 45.146 36.548 45.236 36.552 45.268 36.553 45.3 36.557 45.332 36.572 45.441 36.596 45.548 36.62 45.654 36.621 45.668 36.62 45.684 36.622 45.699 36.64 45.841 36.666 45.984 36.698 46.124 36.715 46.266 36.739 46.408 36.77 46.547 36.788 46.69 36.811 46.833 36.841 46.971 36.859 47.114 36.882 47.256 36.912 47.393 36.928 47.534 36.951 47.674 36.98 47.814 36.997 47.956 37.019 48.095 37.047 48.233 37.063 48.374 37.085 48.514 37.113 48.65 37.127 48.784 37.148 48.915 37.173 49.043 37.189 49.203 37.213 49.358 37.242 49.512 37.529 52.147 39.762 54.186 42.452 54.158 45.318 54.13 47.618 51.768 47.589 48.884 47.576 47.599 47.103 46.429 46.332 45.528" fill-opacity="1" fill="url(#linear-gradient-1)" stroke="none"/>
    <defs>
     <linearGradient id="linear-gradient-2" gradientUnits="userSpaceOnUse" x1="56.321" y1="24.313" x2="42.847" y2="9.181">
      <stop offset="0" stop-color="#6e0097" stop-opacity="1"/>
      <stop offset="1" stop-color="#ff7300" stop-opacity="1"/>
     </linearGradient>
    </defs>
    <path id="Path-10" d="M59.718 30.723 C59.769 30.681 59.819 30.64 59.869 30.599 59.92 30.557 59.971 30.516 60.02 30.474 60.071 30.432 60.122 30.391 60.173 30.349 60.223 30.309 60.274 30.268 60.324 30.225 60.376 30.185 60.427 30.144 60.477 30.101 60.528 30.059 60.58 30.018 60.631 29.975 60.681 29.933 60.734 29.894 60.783 29.85 60.836 29.809 60.888 29.768 60.938 29.726 60.947 29.717 60.957 29.711 60.965 29.703 60.998 29.678 61.028 29.651 61.06 29.626 61.071 29.618 61.082 29.609 61.093 29.6 61.101 29.592 61.109 29.587 61.117 29.579 61.169 29.54 61.22 29.499 61.27 29.457 61.321 29.417 61.372 29.374 61.422 29.332 61.474 29.292 61.525 29.252 61.575 29.209 61.627 29.169 61.678 29.127 61.728 29.084 61.779 29.044 61.831 29.003 61.882 28.961 61.934 28.921 61.985 28.879 62.036 28.836 62.273 28.65 62.502 28.45 62.721 28.229 65.755 25.196 65.772 20.262 62.757 17.208 59.741 14.156 54.838 14.138 51.804 17.173 50.472 18.505 49.722 20.203 49.552 21.947 49.547 22.004 49.538 22.061 49.533 22.118 49.527 22.175 49.519 22.231 49.514 22.288 49.507 22.344 49.499 22.403 49.493 22.46 49.486 22.516 49.479 22.573 49.474 22.629 49.467 22.688 49.459 22.745 49.453 22.8 49.446 22.858 49.439 22.916 49.434 22.973 49.425 23.029 49.418 23.087 49.413 23.145 49.404 23.201 49.399 23.258 49.392 23.316 49.384 23.373 49.378 23.432 49.371 23.488 49.363 23.544 49.357 23.602 49.351 23.66 49.342 23.717 49.336 23.774 49.33 23.832 49.321 23.89 49.315 23.948 49.308 24.005 49.295 24.097 49.284 24.19 49.275 24.283 49.265 24.355 49.255 24.426 49.247 24.499 49.24 24.555 49.232 24.611 49.226 24.669 49.218 24.725 49.211 24.78 49.206 24.838 49.197 24.896 49.19 24.952 49.184 25.008 49.176 25.065 49.168 25.122 49.162 25.179 49.154 25.235 49.148 25.293 49.14 25.349 49.132 25.405 49.125 25.463 49.118 25.52 49.109 25.577 49.103 25.633 49.096 25.69 49.087 25.749 49.081 25.806 49.073 25.863 49.065 25.92 49.057 25.977 49.05 26.034 49.042 26.092 49.035 26.149 49.027 26.205 49.012 26.3 48.999 26.394 48.99 26.49 48.982 26.545 48.973 26.603 48.967 26.659 48.959 26.715 48.951 26.773 48.943 26.828 48.934 26.886 48.926 26.942 48.92 26.998 48.911 27.054 48.903 27.112 48.896 27.167 48.887 27.224 48.88 27.282 48.872 27.339 48.862 27.395 48.856 27.452 48.848 27.51 48.838 27.569 48.83 27.63 48.822 27.689 48.817 27.723 48.814 27.755 48.809 27.789 48.808 27.799 48.807 27.81 48.805 27.821 48.796 27.875 48.79 27.93 48.782 27.984 48.773 28.037 48.767 28.093 48.758 28.149 48.748 28.202 48.743 28.256 48.734 28.313 48.72 28.387 48.713 28.46 48.703 28.535 48.685 28.634 48.67 28.734 48.657 28.834 48.643 28.92 48.626 29.004 48.618 29.089 48.61 29.142 48.599 29.194 48.592 29.248 48.584 29.301 48.575 29.353 48.567 29.406 48.559 29.459 48.549 29.511 48.542 29.563 48.533 29.617 48.523 29.669 48.517 29.723 48.506 29.776 48.498 29.828 48.491 29.882 48.481 29.933 48.471 29.988 48.464 30.04 48.453 30.094 48.446 30.146 48.437 30.201 48.427 30.254 48.419 30.306 48.41 30.361 48.399 30.413 48.392 30.465 48.383 30.519 48.371 30.573 48.364 30.626 48.355 30.681 48.338 30.754 48.328 30.828 48.316 30.902 48.297 30.996 48.278 31.09 48.264 31.186 48.253 31.248 48.238 31.308 48.229 31.37 48.219 31.422 48.207 31.473 48.201 31.524 48.189 31.576 48.178 31.627 48.17 31.68 48.159 31.731 48.147 31.784 48.139 31.836 48.127 31.888 48.117 31.939 48.108 31.991 48.095 32.043 48.086 32.096 48.077 32.148 48.064 32.2 48.054 32.252 48.044 32.304 48.031 32.356 48.022 32.409 48.011 32.461 47.99 32.544 47.974 32.628 47.958 32.713 47.94 32.787 47.921 32.86 47.908 32.937 47.896 32.986 47.883 33.037 47.873 33.089 47.861 33.139 47.848 33.191 47.839 33.241 47.825 33.292 47.813 33.343 47.802 33.393 47.788 33.444 47.776 33.495 47.766 33.546 47.751 33.597 47.739 33.65 47.728 33.7 47.711 33.754 47.698 33.809 47.685 33.866 47.659 33.949 47.636 34.035 47.618 34.121 47.602 34.176 47.586 34.23 47.573 34.286 47.558 34.334 47.543 34.384 47.532 34.434 47.516 34.483 47.502 34.534 47.489 34.583 47.473 34.634 47.458 34.683 47.445 34.733 47.428 34.782 47.414 34.832 47.4 34.884 47.376 34.953 47.355 35.021 47.335 35.092 47.312 35.156 47.29 35.221 47.272 35.288 47.256 35.337 47.238 35.384 47.224 35.434 47.205 35.482 47.189 35.53 47.173 35.579 47.155 35.628 47.138 35.675 47.122 35.726 47.103 35.773 47.086 35.822 47.069 35.871 47.038 35.943 47.011 36.016 46.986 36.094 46.964 36.146 46.942 36.197 46.923 36.251 46.903 36.296 46.883 36.344 46.865 36.392 46.844 36.44 46.825 36.487 46.807 36.534 46.784 36.579 46.764 36.628 46.745 36.674 46.714 36.735 46.688 36.799 46.661 36.863 46.632 36.92 46.604 36.978 46.579 37.038 46.557 37.083 46.534 37.128 46.514 37.176 46.49 37.221 46.468 37.266 46.446 37.311 46.422 37.356 46.4 37.401 46.378 37.447 46.345 37.503 46.314 37.562 46.286 37.623 46.255 37.676 46.222 37.729 46.194 37.787 46.192 37.792 46.191 37.795 46.189 37.8 46.17 37.831 46.149 37.859 46.133 37.892 46.125 37.906 46.121 37.918 46.114 37.932 46.099 37.954 46.084 37.976 46.071 37.997 46.059 38.02 46.049 38.042 46.037 38.065 46.029 38.079 46.019 38.09 46.01 38.105 45.991 38.134 45.977 38.165 45.959 38.195 45.957 38.201 45.952 38.205 45.949 38.21 45.916 38.259 45.888 38.309 45.86 38.359 45.82 38.418 45.782 38.475 45.747 38.537 45.718 38.58 45.69 38.621 45.664 38.666 45.633 38.707 45.605 38.748 45.579 38.793 45.548 38.833 45.52 38.876 45.492 38.918 45.456 38.961 45.426 39.01 45.395 39.056 45.345 39.119 45.299 39.181 45.256 39.248 45.224 39.288 45.193 39.329 45.164 39.372 45.132 39.411 45.1 39.451 45.071 39.493 45.039 39.532 45.007 39.571 44.977 39.614 44.944 39.654 44.914 39.694 44.883 39.734 44.835 39.788 44.79 39.845 44.747 39.903 44.703 39.953 44.658 40.006 44.617 40.058 44.584 40.098 44.548 40.136 44.517 40.178 44.483 40.217 44.449 40.254 44.416 40.295 44.381 40.334 44.348 40.371 44.315 40.412 44.279 40.448 44.246 40.488 44.213 40.527 44.165 40.576 44.122 40.628 44.078 40.68 44.022 40.737 43.968 40.793 43.918 40.853 43.882 40.892 43.845 40.929 43.81 40.968 43.775 41.006 43.738 41.043 43.704 41.083 43.668 41.119 43.632 41.157 43.597 41.196 43.56 41.234 43.524 41.27 43.49 41.307 43.452 41.343 43.417 41.382 43.381 41.419 43.334 41.463 43.293 41.509 43.249 41.555 43.182 41.616 43.118 41.68 43.057 41.747 43.017 41.786 42.975 41.824 42.936 41.867 42.898 41.904 42.859 41.939 42.824 41.978 42.785 42.014 42.747 42.05 42.71 42.088 42.671 42.126 42.633 42.16 42.597 42.198 42.558 42.234 42.521 42.27 42.484 42.306 42.444 42.342 42.408 42.378 42.37 42.415 42.331 42.449 42.294 42.487 42.257 42.522 42.201 42.57 42.15 42.622 42.097 42.673 42.025 42.735 41.955 42.8 41.888 42.867 41.844 42.907 41.799 42.945 41.759 42.987 41.719 43.024 41.677 43.058 41.64 43.096 41.6 43.131 41.559 43.167 41.521 43.204 41.48 43.239 41.44 43.275 41.401 43.31 41.361 43.346 41.322 43.382 41.282 43.418 41.241 43.452 41.203 43.488 41.164 43.524 41.123 43.558 41.084 43.595 41.045 43.63 41.004 43.664 40.966 43.702 40.926 43.735 40.885 43.769 40.848 43.807 40.808 43.84 40.765 43.876 40.727 43.913 40.686 43.95 40.609 44.011 40.538 44.077 40.466 44.143 40.39 44.209 40.314 44.27 40.242 44.339 40.201 44.376 40.158 44.409 40.118 44.445 40.077 44.482 40.035 44.517 39.996 44.553 39.954 44.589 39.912 44.623 39.872 44.66 39.867 44.664 39.861 44.668 39.855 44.673 39.853 44.674 39.85 44.678 39.848 44.679 39.822 44.701 39.795 44.722 39.77 44.744 39.724 44.784 39.678 44.82 39.634 44.861 39.59 44.898 39.546 44.935 39.503 44.973 39.458 45.01 39.415 45.047 39.373 45.084 39.329 45.12 39.285 45.158 39.242 45.196 38.043 46.173 37.275 47.669 37.275 49.342 37.275 52.291 39.65 54.681 42.58 54.681 45.281 54.681 47.509 52.651 47.841 50.024 47.85 49.961 47.86 49.898 47.868 49.836 47.878 49.773 47.887 49.712 47.896 49.649 47.905 49.587 47.915 49.526 47.923 49.464 47.932 49.407 47.941 49.352 47.949 49.295 47.956 49.245 47.962 49.193 47.968 49.142 47.979 49.073 47.99 49.005 48 48.935 48.012 48.866 48.023 48.798 48.032 48.727 48.042 48.658 48.056 48.591 48.064 48.52 48.075 48.452 48.088 48.385 48.097 48.316 48.108 48.252 48.121 48.189 48.128 48.125 48.142 48.061 48.148 47.994 48.159 47.93 48.173 47.861 48.183 47.793 48.193 47.724 48.207 47.653 48.217 47.585 48.228 47.514 48.242 47.447 48.254 47.379 48.263 47.31 48.277 47.242 48.29 47.174 48.299 47.105 48.313 47.036 48.326 46.97 48.336 46.903 48.337 46.891 48.338 46.882 48.341 46.874 48.345 46.854 48.347 46.833 48.353 46.812 48.359 46.775 48.367 46.738 48.371 46.7 48.374 46.69 48.377 46.678 48.378 46.667 48.393 46.599 48.404 46.531 48.416 46.462 48.431 46.395 48.443 46.327 48.454 46.26 48.469 46.192 48.482 46.125 48.493 46.058 48.509 45.991 48.523 45.925 48.534 45.858 48.539 45.835 48.545 45.812 48.549 45.787 48.554 45.765 48.559 45.742 48.563 45.719 48.567 45.7 48.572 45.679 48.575 45.659 48.58 45.635 48.585 45.61 48.59 45.585 48.606 45.52 48.618 45.452 48.631 45.385 48.647 45.32 48.662 45.255 48.673 45.19 48.688 45.123 48.704 45.06 48.716 44.994 48.726 44.96 48.733 44.926 48.741 44.889 48.759 44.827 48.77 44.76 48.784 44.695 48.801 44.631 48.816 44.568 48.829 44.503 48.845 44.441 48.862 44.378 48.876 44.316 48.887 44.271 48.898 44.23 48.908 44.187 48.925 44.125 48.94 44.063 48.953 43.999 48.97 43.94 48.986 43.878 49 43.816 49.018 43.757 49.036 43.697 49.05 43.637 49.064 43.59 49.077 43.539 49.089 43.49 49.108 43.432 49.123 43.372 49.139 43.313 49.157 43.257 49.176 43.202 49.19 43.144 49.208 43.09 49.224 43.036 49.238 42.983 49.256 42.926 49.273 42.869 49.288 42.814 49.307 42.76 49.328 42.708 49.343 42.653 49.362 42.596 49.38 42.538 49.397 42.481 49.417 42.429 49.434 42.376 49.45 42.323 49.473 42.267 49.495 42.209 49.514 42.15 49.534 42.098 49.551 42.046 49.568 41.994 49.588 41.946 49.608 41.897 49.625 41.846 49.652 41.787 49.672 41.725 49.696 41.662 49.716 41.615 49.735 41.567 49.753 41.519 49.781 41.459 49.807 41.397 49.83 41.335 49.852 41.289 49.87 41.242 49.888 41.196 49.913 41.141 49.94 41.088 49.963 41.033 49.987 40.981 50.01 40.928 50.032 40.877 50.056 40.829 50.081 40.78 50.103 40.731 50.133 40.677 50.159 40.621 50.183 40.563 50.206 40.52 50.229 40.479 50.25 40.434 50.283 40.378 50.312 40.319 50.34 40.26 50.354 40.236 50.369 40.213 50.384 40.187 50.393 40.17 50.399 40.151 50.408 40.134 50.442 40.078 50.475 40.02 50.504 39.961 50.529 39.921 50.553 39.881 50.576 39.837 50.612 39.782 50.648 39.723 50.68 39.662 50.705 39.624 50.729 39.582 50.755 39.538 50.79 39.489 50.824 39.436 50.856 39.38 50.886 39.338 50.914 39.29 50.942 39.245 50.976 39.2 51.009 39.152 51.038 39.104 51.073 39.058 51.106 39.005 51.139 38.953 51.169 38.914 51.199 38.876 51.226 38.832 51.267 38.78 51.304 38.725 51.341 38.668 51.373 38.628 51.403 38.587 51.432 38.545 51.473 38.495 51.513 38.444 51.55 38.391 51.583 38.35 51.614 38.306 51.645 38.264 51.681 38.222 51.716 38.181 51.748 38.136 51.789 38.089 51.825 38.04 51.862 37.99 51.9 37.949 51.934 37.906 51.969 37.861 52.008 37.817 52.046 37.773 52.083 37.726 52.122 37.684 52.158 37.638 52.192 37.593 52.232 37.55 52.27 37.505 52.308 37.459 52.345 37.419 52.382 37.381 52.417 37.339 52.458 37.294 52.495 37.249 52.535 37.203 52.578 37.159 52.62 37.114 52.66 37.067 52.693 37.03 52.728 36.996 52.76 36.96 52.804 36.915 52.845 36.868 52.887 36.823 52.931 36.778 52.975 36.731 53.017 36.685 53.062 36.639 53.109 36.594 53.152 36.546 53.182 36.517 53.21 36.488 53.239 36.456 53.287 36.412 53.33 36.365 53.374 36.317 53.421 36.272 53.469 36.225 53.513 36.178 53.561 36.132 53.61 36.086 53.654 36.038 53.678 36.014 53.702 35.994 53.725 35.968 53.749 35.948 53.771 35.923 53.795 35.9 53.797 35.899 53.798 35.897 53.8 35.896 53.824 35.875 53.844 35.851 53.867 35.828 53.917 35.783 53.966 35.735 54.011 35.689 54.062 35.643 54.111 35.596 54.158 35.547 54.209 35.501 54.26 35.455 54.307 35.406 54.322 35.392 54.336 35.379 54.351 35.363 54.372 35.346 54.391 35.327 54.41 35.309 54.425 35.294 54.443 35.28 54.457 35.265 54.47 35.251 54.484 35.238 54.499 35.224 54.551 35.179 54.599 35.131 54.648 35.084 54.7 35.039 54.751 34.993 54.799 34.945 54.851 34.899 54.903 34.852 54.952 34.804 55.004 34.759 55.057 34.711 55.106 34.664 55.11 34.659 55.114 34.656 55.118 34.653 55.118 34.652 55.119 34.652 55.121 34.649 55.166 34.607 55.217 34.565 55.262 34.521 55.265 34.518 55.266 34.516 55.27 34.514 55.322 34.469 55.371 34.422 55.422 34.377 55.476 34.332 55.526 34.285 55.577 34.238 55.63 34.194 55.681 34.146 55.732 34.099 55.785 34.055 55.837 34.008 55.888 33.962 55.943 33.917 55.996 33.87 56.046 33.823 56.1 33.778 56.154 33.732 56.206 33.685 56.253 33.642 56.306 33.602 56.352 33.557 56.395 33.522 56.436 33.482 56.477 33.446 56.532 33.401 56.582 33.354 56.635 33.31 56.688 33.266 56.739 33.219 56.793 33.174 56.847 33.13 56.898 33.084 56.95 33.038 57.005 32.993 57.058 32.948 57.109 32.902 57.164 32.857 57.217 32.812 57.27 32.766 57.323 32.721 57.378 32.676 57.43 32.629 57.432 32.628 57.433 32.626 57.435 32.625 57.508 32.569 57.578 32.509 57.647 32.449 57.696 32.409 57.745 32.368 57.792 32.326 57.842 32.286 57.892 32.245 57.939 32.204 57.988 32.162 58.038 32.121 58.086 32.08 58.136 32.038 58.187 31.997 58.234 31.954 58.285 31.914 58.336 31.873 58.384 31.83 58.412 31.808 58.439 31.784 58.466 31.76 58.473 31.756 58.48 31.752 58.485 31.747 58.529 31.71 58.571 31.672 58.614 31.637 58.628 31.625 58.641 31.617 58.655 31.605 58.692 31.575 58.727 31.543 58.763 31.514 58.782 31.497 58.804 31.481 58.824 31.465 58.854 31.441 58.882 31.414 58.912 31.39 58.939 31.367 58.966 31.347 58.993 31.324 59.016 31.306 59.037 31.284 59.062 31.266 59.095 31.238 59.13 31.213 59.164 31.184 59.18 31.17 59.197 31.154 59.212 31.139 59.253 31.106 59.293 31.077 59.333 31.042 59.344 31.033 59.353 31.026 59.364 31.016 59.41 30.977 59.458 30.942 59.503 30.902 59.508 30.898 59.511 30.894 59.516 30.891 59.534 30.874 59.554 30.859 59.572 30.844 59.619 30.805 59.669 30.764 59.718 30.723" fill-opacity="1" fill="url(#linear-gradient-2)" stroke="none"/>
    <defs>
     <linearGradient id="linear-gradient-3" gradientUnits="userSpaceOnUse" x1="59.716" y1="33.752" x2="80.803" y2="-0.201">
      <stop offset="0.022" stop-color="#6e0097" stop-opacity="1"/>
      <stop offset="1" stop-color="#ff0009" stop-opacity="1"/>
     </linearGradient>
    </defs>
    <path id="Path-11" d="M72.615 49.231 C72.572 49.175 72.527 49.122 72.48 49.067 72.436 49.013 72.392 48.958 72.345 48.906 72.302 48.852 72.258 48.797 72.212 48.745 72.179 48.702 72.143 48.66 72.108 48.619 72.065 48.563 72.021 48.51 71.973 48.457 71.931 48.402 71.886 48.349 71.84 48.297 71.799 48.242 71.757 48.189 71.711 48.137 71.671 48.082 71.629 48.029 71.585 47.977 71.545 47.925 71.507 47.875 71.464 47.826 71.424 47.771 71.38 47.719 71.336 47.665 71.296 47.613 71.256 47.561 71.213 47.51 71.173 47.456 71.134 47.405 71.092 47.354 71.052 47.3 71.013 47.247 70.969 47.194 70.929 47.137 70.885 47.08 70.84 47.028 70.803 46.974 70.764 46.924 70.723 46.876 70.688 46.825 70.652 46.773 70.613 46.726 70.571 46.663 70.528 46.603 70.481 46.547 70.443 46.492 70.404 46.44 70.363 46.389 70.33 46.338 70.295 46.291 70.259 46.244 70.219 46.183 70.177 46.124 70.132 46.066 70.095 46.01 70.057 45.954 70.014 45.9 69.985 45.855 69.953 45.806 69.92 45.763 69.88 45.696 69.837 45.634 69.791 45.575 69.758 45.52 69.724 45.469 69.687 45.42 69.655 45.365 69.62 45.313 69.583 45.26 69.578 45.253 69.575 45.245 69.571 45.237 69.538 45.179 69.502 45.126 69.465 45.074 69.45 45.049 69.438 45.023 69.421 44.999 69.408 44.978 69.393 44.959 69.38 44.938 69.347 44.878 69.311 44.818 69.273 44.761 69.27 44.756 69.265 44.752 69.264 44.749 69.238 44.701 69.209 44.653 69.179 44.607 69.147 44.542 69.109 44.48 69.068 44.416 69.043 44.364 69.014 44.315 68.984 44.267 68.954 44.2 68.917 44.138 68.879 44.075 68.855 44.021 68.826 43.969 68.796 43.918 68.766 43.854 68.734 43.789 68.697 43.727 68.672 43.672 68.646 43.62 68.616 43.568 68.589 43.501 68.559 43.437 68.524 43.375 68.501 43.318 68.475 43.264 68.446 43.211 68.422 43.147 68.396 43.085 68.363 43.024 68.341 42.966 68.316 42.908 68.288 42.853 68.267 42.795 68.244 42.739 68.218 42.685 68.195 42.619 68.169 42.552 68.139 42.489 68.12 42.433 68.098 42.375 68.074 42.321 68.053 42.252 68.028 42.186 67.999 42.124 67.983 42.065 67.961 42.009 67.939 41.955 67.919 41.885 67.897 41.818 67.868 41.751 67.853 41.695 67.834 41.64 67.813 41.584 67.795 41.514 67.773 41.445 67.748 41.378 67.732 41.322 67.716 41.267 67.697 41.212 67.68 41.14 67.66 41.069 67.635 41 67.622 40.946 67.606 40.894 67.591 40.84 67.576 40.765 67.554 40.695 67.531 40.624 67.519 40.567 67.504 40.511 67.487 40.457 67.472 40.385 67.456 40.32 67.435 40.253 67.422 40.185 67.405 40.115 67.385 40.049 67.375 39.994 67.361 39.939 67.347 39.886 67.334 39.811 67.317 39.739 67.298 39.667 67.285 39.602 67.271 39.536 67.254 39.473 67.243 39.412 67.231 39.353 67.215 39.295 67.204 39.225 67.192 39.158 67.175 39.09 67.173 39.084 67.173 39.079 67.173 39.074 67.163 39.011 67.148 38.951 67.133 38.891 67.128 38.866 67.127 38.84 67.122 38.812 67.115 38.776 67.104 38.742 67.096 38.705 67.088 38.655 67.082 38.603 67.073 38.553 67.069 38.54 67.064 38.527 67.061 38.513 67.052 38.445 67.04 38.377 67.025 38.311 67.015 38.246 67.002 38.182 66.988 38.117 66.978 38.05 66.967 37.985 66.953 37.919 66.944 37.852 66.933 37.786 66.919 37.718 66.91 37.65 66.902 37.582 66.887 37.514 66.879 37.454 66.867 37.394 66.856 37.334 66.848 37.266 66.836 37.199 66.822 37.13 66.814 37.063 66.804 36.995 66.79 36.926 66.782 36.856 66.773 36.787 66.759 36.718 66.75 36.647 66.743 36.578 66.728 36.505 66.722 36.456 66.716 36.404 66.706 36.354 66.699 36.284 66.688 36.215 66.676 36.146 66.668 36.074 66.657 36.007 66.644 35.934 66.637 35.865 66.628 35.795 66.616 35.724 66.608 35.652 66.598 35.583 66.585 35.511 66.578 35.438 66.571 35.367 66.559 35.295 66.551 35.223 66.543 35.152 66.53 35.078 66.526 35.043 66.522 35.005 66.516 34.969 66.508 34.897 66.498 34.826 66.487 34.756 66.48 34.685 66.471 34.613 66.46 34.543 66.453 34.47 66.443 34.399 66.432 34.327 66.426 34.255 66.417 34.184 66.406 34.111 66.398 34.039 66.39 33.968 66.379 33.894 66.372 33.821 66.364 33.749 66.353 33.676 66.345 33.604 66.339 33.529 66.328 33.457 66.319 33.384 66.313 33.31 66.301 33.238 66.3 33.221 66.297 33.202 66.295 33.185 66.294 33.167 66.291 33.148 66.289 33.13 66.284 33.092 66.281 33.056 66.274 33.016 66.273 33.001 66.271 32.986 66.269 32.971 66.264 32.899 66.253 32.828 66.245 32.756 66.239 32.682 66.228 32.612 66.219 32.54 66.213 32.467 66.204 32.394 66.195 32.323 66.189 32.25 66.179 32.178 66.17 32.104 66.165 32.032 66.155 31.961 66.146 31.888 66.14 31.813 66.132 31.741 66.122 31.669 66.116 31.594 66.107 31.523 66.099 31.451 66.091 31.376 66.084 31.303 66.075 31.229 66.067 31.155 66.061 31.083 66.051 31.008 66.043 30.936 66.037 30.862 66.028 30.788 66.018 30.715 66.014 30.642 66.003 30.566 65.995 30.495 65.991 30.423 65.981 30.351 65.978 30.317 65.972 30.282 65.969 30.247 65.965 30.222 65.965 30.192 65.961 30.165 65.957 30.093 65.946 30.024 65.939 29.952 65.933 29.88 65.923 29.81 65.915 29.738 65.911 29.664 65.901 29.593 65.892 29.52 65.888 29.447 65.879 29.375 65.871 29.303 65.866 29.229 65.857 29.158 65.849 29.086 65.843 29.024 65.837 28.962 65.831 28.899 65.824 28.808 65.816 28.721 65.806 28.632 65.801 28.562 65.793 28.493 65.785 28.424 65.778 28.356 65.771 28.287 65.764 28.217 65.757 28.146 65.751 28.078 65.744 28.009 65.738 27.938 65.731 27.871 65.722 27.799 65.716 27.729 65.71 27.66 65.702 27.588 65.696 27.52 65.689 27.45 65.681 27.38 65.675 27.307 65.669 27.239 65.661 27.169 65.657 27.122 65.651 27.075 65.647 27.027 65.641 26.958 65.633 26.889 65.626 26.82 65.621 26.749 65.612 26.68 65.605 26.611 65.599 26.541 65.592 26.473 65.585 26.402 65.579 26.333 65.571 26.262 65.565 26.192 65.559 26.122 65.552 26.054 65.544 25.984 65.538 25.912 65.532 25.845 65.524 25.772 65.517 25.704 65.511 25.633 65.504 25.563 65.498 25.491 65.491 25.423 65.483 25.352 65.477 25.281 65.472 25.212 65.463 25.14 65.457 25.07 65.452 25 65.444 24.927 65.438 24.857 65.431 24.787 65.423 24.718 65.417 24.646 65.411 24.575 65.403 24.505 65.398 24.435 65.391 24.365 65.384 24.293 65.376 24.222 65.371 24.151 65.363 24.08 65.361 24.051 65.359 24.02 65.354 23.991 65.349 23.92 65.343 23.852 65.336 23.781 65.33 23.71 65.322 23.642 65.315 23.571 65.31 23.501 65.303 23.432 65.296 23.363 65.291 23.29 65.283 23.22 65.277 23.15 65.271 23.079 65.264 23.01 65.257 22.94 65.252 22.869 65.245 22.799 65.237 22.728 65.232 22.658 65.224 22.589 65.218 22.518 65.212 22.446 65.206 22.376 65.198 22.305 65.193 22.236 65.186 22.165 65.179 22.093 65.173 22.023 65.166 21.953 65.159 21.883 65.015 20.085 64.262 18.328 62.896 16.954 59.841 13.881 54.888 13.881 51.834 16.954 48.838 19.967 48.782 24.816 51.661 27.9 51.704 27.95 51.75 27.998 51.796 28.048 51.839 28.096 51.885 28.146 51.931 28.194 51.974 28.242 52.02 28.291 52.066 28.34 52.109 28.388 52.155 28.437 52.2 28.486 52.244 28.535 52.291 28.584 52.335 28.632 52.412 28.721 52.492 28.805 52.573 28.892 52.623 28.945 52.671 29 52.721 29.052 52.723 29.055 52.726 29.057 52.727 29.058 52.767 29.102 52.807 29.147 52.848 29.191 52.852 29.197 52.856 29.199 52.86 29.202 52.899 29.246 52.935 29.286 52.975 29.329 52.982 29.335 52.987 29.342 52.992 29.347 53.029 29.387 53.064 29.427 53.101 29.468 53.109 29.476 53.117 29.484 53.124 29.492 53.16 29.529 53.193 29.567 53.229 29.606 53.237 29.616 53.248 29.627 53.257 29.636 53.289 29.672 53.322 29.708 53.355 29.744 53.367 29.756 53.379 29.767 53.39 29.781 53.422 29.814 53.451 29.849 53.481 29.883 53.496 29.898 53.509 29.911 53.523 29.927 53.553 29.957 53.579 29.99 53.609 30.022 53.624 30.038 53.641 30.055 53.657 30.07 53.683 30.1 53.708 30.13 53.734 30.159 53.753 30.179 53.773 30.196 53.79 30.215 53.814 30.242 53.836 30.27 53.862 30.296 53.881 30.318 53.903 30.339 53.923 30.362 53.945 30.384 53.967 30.412 53.989 30.435 54.012 30.46 54.034 30.482 54.057 30.507 54.077 30.528 54.095 30.552 54.116 30.575 54.139 30.601 54.165 30.627 54.19 30.653 54.207 30.672 54.225 30.693 54.241 30.713 54.267 30.741 54.297 30.769 54.323 30.799 54.338 30.815 54.353 30.835 54.368 30.851 54.397 30.884 54.427 30.913 54.456 30.946 54.469 30.959 54.481 30.975 54.494 30.991 54.527 31.025 54.559 31.056 54.591 31.091 54.601 31.104 54.611 31.117 54.622 31.129 54.655 31.168 54.69 31.202 54.724 31.238 54.733 31.247 54.739 31.257 54.748 31.267 54.784 31.308 54.822 31.345 54.858 31.385 54.864 31.391 54.869 31.399 54.875 31.405 54.913 31.449 54.952 31.49 54.992 31.531 54.996 31.536 54.999 31.539 55.001 31.543 55.042 31.59 55.083 31.635 55.126 31.679 55.126 31.681 55.127 31.681 55.128 31.681 55.196 31.761 55.266 31.839 55.339 31.913 55.382 31.962 55.425 32.011 55.471 32.058 55.515 32.107 55.558 32.156 55.603 32.201 55.647 32.251 55.69 32.301 55.736 32.347 55.779 32.396 55.823 32.447 55.868 32.494 55.912 32.542 55.956 32.591 56.001 32.638 56.045 32.688 56.089 32.738 56.135 32.784 56.178 32.835 56.222 32.884 56.268 32.934 56.349 33.024 56.432 33.116 56.517 33.201 56.561 33.249 56.601 33.3 56.646 33.345 56.689 33.39 56.729 33.44 56.772 33.483 56.814 33.528 56.855 33.579 56.899 33.623 56.941 33.67 56.979 33.719 57.024 33.763 57.067 33.809 57.107 33.858 57.151 33.903 57.193 33.951 57.233 33.998 57.277 34.044 57.318 34.091 57.36 34.139 57.403 34.184 57.446 34.231 57.486 34.28 57.529 34.326 57.572 34.372 57.613 34.42 57.656 34.465 57.698 34.514 57.739 34.562 57.783 34.607 57.825 34.654 57.866 34.702 57.91 34.749 57.951 34.796 57.993 34.843 58.037 34.891 58.078 34.938 58.121 34.984 58.163 35.032 58.205 35.08 58.247 35.126 58.291 35.173 58.332 35.223 58.375 35.27 58.418 35.316 58.459 35.364 58.502 35.413 58.544 35.46 58.585 35.508 58.629 35.556 58.672 35.602 58.713 35.652 58.756 35.698 58.8 35.745 58.84 35.795 58.884 35.842 58.927 35.888 58.983 35.961 59.046 36.027 59.108 36.094 59.177 36.179 59.247 36.263 59.323 36.339 59.364 36.387 59.403 36.436 59.446 36.48 59.487 36.527 59.526 36.577 59.57 36.623 59.609 36.669 59.649 36.718 59.691 36.762 59.732 36.809 59.772 36.858 59.814 36.903 59.855 36.952 59.896 37 59.938 37.045 59.978 37.093 60.019 37.142 60.062 37.188 60.101 37.237 60.142 37.285 60.186 37.331 60.225 37.38 60.266 37.428 60.309 37.475 60.349 37.524 60.39 37.572 60.432 37.619 60.471 37.669 60.513 37.715 60.555 37.764 60.595 37.814 60.638 37.861 60.68 37.908 60.729 37.974 60.783 38.032 60.836 38.093 60.893 38.167 60.951 38.236 61.013 38.303 61.053 38.352 61.09 38.401 61.133 38.447 61.172 38.494 61.21 38.544 61.253 38.589 61.293 38.639 61.331 38.688 61.373 38.734 61.411 38.785 61.451 38.833 61.493 38.879 61.532 38.929 61.572 38.979 61.613 39.025 61.651 39.075 61.691 39.125 61.733 39.171 61.771 39.223 61.811 39.273 61.852 39.32 61.897 39.38 61.943 39.436 61.991 39.492 62.039 39.559 62.092 39.623 62.145 39.685 62.183 39.735 62.22 39.786 62.262 39.832 62.3 39.882 62.337 39.931 62.379 39.978 62.416 40.03 62.454 40.081 62.496 40.128 62.532 40.179 62.571 40.23 62.612 40.277 62.648 40.33 62.686 40.379 62.726 40.43 62.771 40.495 62.82 40.558 62.871 40.618 62.909 40.674 62.949 40.728 62.991 40.778 63.027 40.83 63.064 40.881 63.103 40.929 63.14 40.983 63.176 41.034 63.215 41.083 63.251 41.137 63.288 41.187 63.326 41.237 63.36 41.29 63.398 41.342 63.437 41.391 63.478 41.457 63.522 41.52 63.569 41.582 63.603 41.633 63.639 41.685 63.677 41.735 63.71 41.789 63.746 41.841 63.783 41.893 63.815 41.947 63.851 41.999 63.889 42.051 63.925 42.116 63.964 42.177 64.008 42.235 64.04 42.291 64.074 42.343 64.111 42.395 64.143 42.449 64.176 42.502 64.213 42.554 64.242 42.612 64.276 42.665 64.312 42.719 64.345 42.78 64.381 42.842 64.42 42.901 64.449 42.957 64.481 43.012 64.516 43.063 64.545 43.121 64.576 43.176 64.61 43.229 64.637 43.286 64.668 43.343 64.702 43.396 64.731 43.46 64.764 43.521 64.8 43.58 64.827 43.637 64.856 43.692 64.888 43.748 64.914 43.806 64.942 43.863 64.972 43.917 64.997 43.975 65.024 44.035 65.055 44.088 65.08 44.152 65.111 44.213 65.143 44.275 65.165 44.333 65.192 44.39 65.221 44.448 65.243 44.505 65.269 44.565 65.296 44.621 65.32 44.684 65.346 44.749 65.376 44.811 65.396 44.87 65.42 44.929 65.447 44.986 65.467 45.046 65.491 45.106 65.518 45.162 65.536 45.223 65.558 45.283 65.583 45.341 65.603 45.406 65.628 45.472 65.654 45.537 65.672 45.598 65.694 45.656 65.718 45.716 65.734 45.777 65.754 45.836 65.776 45.895 65.794 45.963 65.814 46.031 65.839 46.096 65.854 46.158 65.875 46.22 65.898 46.28 65.912 46.341 65.931 46.401 65.951 46.462 65.966 46.522 65.982 46.583 66.002 46.644 66.017 46.707 66.034 46.772 66.054 46.834 66.068 46.904 66.087 46.972 66.109 47.04 66.122 47.103 66.137 47.162 66.157 47.225 66.168 47.285 66.182 47.345 66.201 47.409 66.212 47.468 66.226 47.53 66.243 47.59 66.258 47.669 66.274 47.743 66.295 47.821 66.308 47.882 66.32 47.945 66.337 48.006 66.349 48.069 66.361 48.131 66.378 48.191 66.389 48.254 66.4 48.316 66.417 48.376 66.426 48.438 66.439 48.499 66.453 48.561 66.463 48.621 66.475 48.683 66.489 48.744 66.501 48.827 66.516 48.911 66.535 48.995 66.536 48.997 66.537 48.999 66.538 49.002 66.546 49.053 66.553 49.104 66.564 49.155 66.566 49.168 66.57 49.178 66.573 49.189 66.579 49.231 66.584 49.274 66.592 49.317 66.595 49.337 66.603 49.357 66.607 49.375 66.611 49.411 66.614 49.444 66.62 49.478 66.626 49.506 66.634 49.535 66.639 49.563 66.643 49.587 66.643 49.612 66.648 49.639 66.655 49.676 66.664 49.712 66.671 49.747 66.673 49.764 66.673 49.782 66.677 49.8 66.683 49.845 66.693 49.887 66.702 49.934 66.702 49.942 66.702 49.95 66.704 49.959 66.711 50.012 66.722 50.064 66.732 50.116 L66.732 50.121 C66.742 50.218 66.758 50.313 66.777 50.406 66.786 50.47 66.794 50.533 66.807 50.595 66.815 50.659 66.824 50.72 66.835 50.783 66.845 50.847 66.853 50.909 66.864 50.971 66.871 51.034 66.879 51.097 66.892 51.159 66.897 51.221 66.907 51.283 66.918 51.345 66.924 51.408 66.933 51.469 66.943 51.531 66.951 51.593 66.96 51.655 66.968 51.717 67.124 53.38 68.513 54.682 70.208 54.682 72.005 54.682 73.461 53.218 73.461 51.407 73.452 50.576 73.134 49.811 72.615 49.231" fill-opacity="1" fill="url(#linear-gradient-3)" stroke="none"/>
   </g>
  </g>
 </g>
 <g id="Isolation_Mode"/>
</svg>
