<?xml version="1.0" encoding="UTF-8"?>
<svg width="150px" height="39px" viewBox="0 0 150 39" xmlns="http://www.w3.org/2000/svg" xmlns:xlink="http://www.w3.org/1999/xlink" version="1.1">
 <!-- Generated by Pixelmator Pro 1.6.1 -->
 <path id="Path" d="M40.67 19.362 C40.67 13.885 44.54 10.236 50.354 10.236 56.167 10.236 59.988 13.889 59.988 19.362 59.988 24.834 56.117 28.487 50.354 28.487 44.59 28.487 40.67 24.838 40.67 19.362 Z M54.957 19.362 C54.957 16.334 53.105 14.329 50.354 14.329 47.602 14.329 45.725 16.346 45.725 19.362 45.725 22.377 47.577 24.394 50.354 24.394 53.13 24.394 54.953 22.389 54.953 19.362 Z M79.032 19.311 C79.032 24.666 75.518 28.244 70.251 28.244 L62.378 28.244 62.378 10.484 70.251 10.484 C75.518 10.484 79.032 14.006 79.032 19.311 Z M73.977 19.311 C73.977 16.455 72.53 14.556 70.367 14.556 L67.28 14.556 67.28 24.163 70.367 24.163 C72.514 24.163 73.977 22.226 73.977 19.311 Z M94.633 28.244 L81.439 28.244 81.439 10.484 94.475 10.484 94.475 14.568 86.325 14.568 86.325 17.256 93.564 17.256 93.564 21.341 86.325 21.341 86.325 24.176 94.612 24.176 Z M125.08 10.484 L120.547 10.484 113.395 27.929 109.251 21.387 C111.03 20.398 112.118 18.492 112.077 16.439 112.077 12.878 109.512 10.484 105.663 10.484 L97.434 10.484 97.434 28.248 102.323 28.248 102.323 22.435 104.457 22.435 107.876 28.248 118.483 28.248 119.387 25.824 126.22 25.824 127.123 28.248 132.344 28.248 Z M104.673 18.351 L102.323 18.351 102.323 14.577 105.149 14.577 C105.658 14.54 106.159 14.727 106.522 15.089 106.886 15.452 107.077 15.956 107.047 16.472 107.043 17.584 106.077 18.351 104.673 18.351 Z M120.928 21.739 L122.826 16.648 124.699 21.739 Z M149.586 28.248 L146.805 28.248 137.569 18.808 137.656 28.248 133.098 28.248 133.098 10.484 135.912 10.484 145.152 19.915 145.028 10.484 149.586 10.484 Z M19.131 0 C11.393 -0.002 4.416 4.715 1.453 11.949 -1.509 19.184 0.127 27.513 5.598 33.051 11.069 38.589 19.298 40.246 26.447 37.25 33.597 34.253 38.258 27.193 38.258 19.362 38.258 8.67 29.695 0.002 19.131 0 Z M30.733 26.902 L25.844 28.248 25.844 12.031 21.576 15.483 21.576 26.902 16.686 28.248 16.686 12.035 12.431 15.487 12.431 26.902 7.541 28.248 7.541 10.484 12.431 11.817 12.431 13.914 16.686 10.484 21.576 11.83 21.576 13.927 25.844 10.484 30.733 11.83 Z" fill="#3b3c57" fill-opacity="1" stroke="none"/>
</svg>
