<svg width="618" height="106" viewBox="0 0 618 106" version="1.1" xmlns="http://www.w3.org/2000/svg"><title>montonio copy 3</title><path d="M0 27h18.396v8.429c3.133-3.462 6.613-6.047 10.44-7.755 3.827-1.709 8-2.563 12.521-2.563 4.566 0 8.684 1.124 12.354 3.372 3.67 2.248 6.624 5.53 8.862 9.846 2.91-4.316 6.48-7.598 10.709-9.846 4.23-2.248 8.851-3.372 13.864-3.372 5.192 0 9.757 1.214 13.696 3.642 3.94 2.427 6.77 5.597 8.493 9.508 1.724 3.912 2.585 10.273 2.585 19.085v43.025H93.457V63.146c0-8.318-1.03-13.949-3.088-16.893-2.06-2.945-5.148-4.417-9.265-4.417-3.134 0-5.942.899-8.426 2.697-2.485 1.798-4.33 4.282-5.54 7.452-1.208 3.17-1.812 8.26-1.812 15.274v33.112H46.863V64.83c0-6.563-.481-11.318-1.444-14.262-.962-2.945-2.405-5.137-4.33-6.576-1.925-1.438-4.252-2.157-6.983-2.157-3.043 0-5.807.91-8.291 2.73-2.484 1.822-4.342 4.373-5.573 7.655-1.23 3.282-1.846 8.452-1.846 15.51v32.64H0V26.999zm163.684 1.324c6.893 0 13.372 1.73 19.437 5.192 6.065 3.462 10.798 8.16 14.2 14.095 3.401 5.934 5.102 12.34 5.102 19.22 0 6.923-1.712 13.397-5.136 19.421-3.424 6.024-8.09 10.734-13.998 14.128-5.909 3.394-12.421 5.092-19.538 5.092-10.473 0-19.414-3.743-26.822-11.229-7.407-7.485-11.111-16.578-11.111-27.278 0-11.464 4.185-21.018 12.555-28.66 7.34-6.655 15.777-9.981 25.311-9.981zm.269 17.33c-5.685 0-10.418 1.99-14.2 5.97-3.782 3.978-5.673 9.07-5.673 15.274 0 6.384 1.868 11.554 5.606 15.51 3.737 3.956 8.47 5.935 14.2 5.935 5.729 0 10.495-2.001 14.3-6.002 3.805-4.002 5.707-9.15 5.707-15.443 0-6.295-1.869-11.409-5.606-15.342-3.738-3.934-8.516-5.901-14.334-5.901zm53.442-15.442h18.262v7.485c4.162-3.506 7.933-5.945 11.313-7.317 3.379-1.37 6.837-2.056 10.373-2.056 7.25 0 13.405 2.54 18.463 7.62 4.252 4.316 6.378 10.7 6.378 19.152v48.487h-18.128V71.416c0-8.767-.391-14.589-1.175-17.466-.783-2.878-2.148-5.07-4.095-6.575-1.947-1.507-4.353-2.26-7.217-2.26-3.715 0-6.904 1.248-9.568 3.743-2.663 2.495-4.51 5.946-5.539 10.352-.537 2.293-.805 7.26-.805 14.903v29.47h-18.262V30.212zM302.124 3.17h18.262v27.042h10.876V46.06h-10.876v57.523h-18.262V46.06h-9.4V30.212h9.4V3.17zm73.315 25.154c6.893 0 13.372 1.73 19.437 5.192 6.065 3.462 10.798 8.16 14.2 14.095 3.402 5.934 5.102 12.34 5.102 19.22 0 6.923-1.712 13.397-5.136 19.421-3.424 6.024-8.09 10.734-13.998 14.128-5.908 3.394-12.42 5.092-19.537 5.092-10.474 0-19.415-3.743-26.822-11.229-7.408-7.485-11.112-16.578-11.112-27.278 0-11.464 4.185-21.018 12.555-28.66 7.34-6.655 15.778-9.981 25.311-9.981zm.269 17.33c-5.684 0-10.418 1.99-14.2 5.97-3.782 3.978-5.673 9.07-5.673 15.274 0 6.384 1.869 11.554 5.606 15.51 3.737 3.956 8.47 5.935 14.2 5.935 5.73 0 10.496-2.001 14.3-6.002 3.805-4.002 5.707-9.15 5.707-15.443 0-6.295-1.868-11.409-5.606-15.342-3.737-3.934-8.515-5.901-14.334-5.901zm53.442-15.442h18.262v7.485c4.163-3.506 7.934-5.945 11.313-7.317 3.38-1.37 6.837-2.056 10.373-2.056 7.25 0 13.405 2.54 18.463 7.62 4.252 4.316 6.378 10.7 6.378 19.152v48.487h-18.127V71.416c0-8.767-.392-14.589-1.175-17.466-.783-2.878-2.149-5.07-4.096-6.575-1.947-1.507-4.352-2.26-7.217-2.26-3.715 0-6.904 1.248-9.567 3.743-2.663 2.495-4.51 5.946-5.54 10.352-.536 2.293-.805 7.26-.805 14.903v29.47H429.15V30.212zM518.848 0c3.222 0 5.986 1.169 8.291 3.507 2.305 2.338 3.458 5.17 3.458 8.497 0 3.282-1.141 6.08-3.424 8.396-2.283 2.315-5.013 3.473-8.191 3.473-3.267 0-6.054-1.18-8.359-3.54-2.305-2.361-3.457-5.227-3.457-8.599 0-3.237 1.14-6.002 3.424-8.295C512.872 1.146 515.625 0 518.848 0zm-9.198 30.212h18.396v73.371H509.65V30.212zm69.287-1.888c6.893 0 13.372 1.73 19.436 5.192 6.065 3.462 10.799 8.16 14.2 14.095 3.402 5.934 5.103 12.34 5.103 19.22 0 6.923-1.712 13.397-5.136 19.421-3.424 6.024-8.09 10.734-13.999 14.128-5.908 3.394-12.42 5.092-19.537 5.092-10.474 0-19.414-3.743-26.822-11.229-7.408-7.485-11.111-16.578-11.111-27.278 0-11.464 4.184-21.018 12.554-28.66 7.341-6.655 15.778-9.981 25.312-9.981zm.268 17.33c-5.684 0-10.417 1.99-14.2 5.97-3.782 3.978-5.673 9.07-5.673 15.274 0 6.384 1.869 11.554 5.606 15.51 3.738 3.956 8.471 5.935 14.2 5.935 5.73 0 10.496-2.001 14.3-6.002 3.805-4.002 5.708-9.15 5.708-15.443 0-6.295-1.87-11.409-5.607-15.342-3.737-3.934-8.515-5.901-14.334-5.901z" fill="#072A58" stroke="none" stroke-width="1" fill-rule="evenodd"/></svg>