<?xml version="1.0" encoding="UTF-8"?>
<svg width="150px" height="26px" viewBox="0 0 150 26" xmlns="http://www.w3.org/2000/svg" xmlns:xlink="http://www.w3.org/1999/xlink" version="1.1">
 <!-- Generated by Pixelmator Pro 1.5.4 -->
 <path id="Path" d="M0 6.623 L4.465 6.623 4.465 8.69 C5.225 7.841 6.07 7.207 6.999 6.788 7.928 6.369 8.941 6.159 10.038 6.159 11.146 6.159 12.146 6.435 13.037 6.986 13.927 7.538 14.644 8.343 15.188 9.401 15.894 8.343 16.76 7.538 17.787 6.986 18.813 6.435 19.935 6.159 21.152 6.159 22.412 6.159 23.52 6.457 24.476 7.053 25.432 7.648 26.119 8.426 26.538 9.385 26.956 10.344 27.165 11.905 27.165 14.066 L27.165 24.619 22.684 24.619 22.684 15.489 C22.684 13.448 22.434 12.067 21.934 11.345 21.434 10.623 20.685 10.262 19.685 10.262 18.925 10.262 18.243 10.482 17.64 10.923 17.037 11.364 16.589 11.974 16.296 12.751 16.002 13.529 15.856 14.777 15.856 16.498 L15.856 24.619 11.374 24.619 11.374 15.902 C11.374 14.292 11.258 13.126 11.024 12.404 10.79 11.681 10.44 11.143 9.973 10.791 9.506 10.438 8.941 10.261 8.278 10.261 7.54 10.261 6.869 10.485 6.266 10.931 5.663 11.378 5.212 12.004 4.913 12.809 4.615 13.614 4.465 14.882 4.465 16.613 L4.465 24.619 0 24.619 0 6.622 Z M39.729 6.948 C41.402 6.948 42.975 7.372 44.447 8.221 45.919 9.07 47.068 10.222 47.893 11.678 48.719 13.134 49.132 14.705 49.132 16.393 49.132 18.091 48.716 19.679 47.885 21.156 47.054 22.634 45.922 23.789 44.488 24.622 43.053 25.454 41.473 25.87 39.745 25.87 37.203 25.87 35.033 24.952 33.235 23.116 31.437 21.28 30.538 19.05 30.538 16.425 30.538 13.614 31.554 11.27 33.586 9.396 35.367 7.763 37.415 6.948 39.729 6.948 Z M39.794 11.198 C38.414 11.198 37.266 11.686 36.348 12.662 35.43 13.638 34.971 14.887 34.971 16.409 34.971 17.975 35.424 19.243 36.331 20.213 37.239 21.184 38.387 21.669 39.778 21.669 41.169 21.669 42.325 21.178 43.249 20.197 44.172 19.215 44.634 17.953 44.634 16.409 44.634 14.865 44.181 13.611 43.273 12.646 42.366 11.681 41.207 11.198 39.794 11.198 Z M52.766 7.411 L57.198 7.411 57.198 9.246 C58.208 8.386 59.124 7.788 59.944 7.452 60.764 7.116 61.604 6.948 62.462 6.948 64.222 6.948 65.715 7.57 66.943 8.817 67.975 9.875 68.491 11.441 68.491 13.514 L68.491 25.407 64.091 25.407 64.091 17.517 C64.091 15.367 63.996 13.939 63.806 13.233 63.616 12.527 63.285 11.99 62.812 11.62 62.339 11.251 61.755 11.066 61.06 11.066 60.159 11.066 59.385 11.372 58.738 11.984 58.092 12.596 57.643 13.443 57.394 14.523 57.263 15.086 57.198 16.304 57.198 18.179 L57.198 25.407 52.766 25.407 Z M73.331 0.778 L77.764 0.778 77.764 7.411 80.403 7.411 80.403 11.298 77.764 11.298 77.764 25.407 73.331 25.407 73.331 11.298 71.049 11.298 71.049 7.411 73.331 7.411 Z M91.126 6.948 C92.799 6.948 94.371 7.372 95.844 8.221 97.316 9.07 98.464 10.222 99.29 11.678 100.116 13.134 100.529 14.705 100.529 16.393 100.529 18.091 100.113 19.679 99.282 21.156 98.451 22.634 97.318 23.789 95.884 24.622 94.45 25.454 92.87 25.87 91.142 25.87 88.6 25.87 86.43 24.952 84.632 23.116 82.834 21.28 81.935 19.05 81.935 16.425 81.935 13.614 82.951 11.27 84.982 9.396 86.764 7.763 88.812 6.948 91.126 6.948 Z M91.191 11.198 C89.812 11.198 88.663 11.686 87.745 12.662 86.827 13.638 86.368 14.887 86.368 16.409 86.368 17.975 86.821 19.243 87.728 20.213 88.635 21.184 89.784 21.669 91.175 21.669 92.566 21.669 93.723 21.178 94.646 20.197 95.569 19.215 96.031 17.953 96.031 16.409 96.031 14.865 95.578 13.611 94.67 12.646 93.763 11.681 92.604 11.198 91.191 11.198 Z M104.162 7.411 L108.595 7.411 108.595 9.246 C109.605 8.386 110.521 7.788 111.341 7.452 112.161 7.116 113 6.948 113.859 6.948 115.618 6.948 117.112 7.57 118.34 8.817 119.372 9.875 119.888 11.441 119.888 13.514 L119.888 25.407 115.488 25.407 115.488 17.517 C115.488 15.367 115.393 13.939 115.203 13.233 115.013 12.527 114.682 11.99 114.209 11.62 113.736 11.251 113.153 11.066 112.457 11.066 111.556 11.066 110.781 11.372 110.135 11.984 109.489 12.596 109.04 13.443 108.79 14.523 108.66 15.086 108.595 16.304 108.595 18.179 L108.595 25.407 104.162 25.407 Z M125.934 0 C126.716 0 127.387 0.287 127.946 0.86 128.506 1.434 128.786 2.128 128.786 2.944 128.786 3.749 128.509 4.436 127.955 5.004 127.4 5.572 126.738 5.856 125.966 5.856 125.173 5.856 124.497 5.566 123.938 4.987 123.378 4.408 123.099 3.705 123.099 2.878 123.099 2.084 123.375 1.406 123.93 0.844 124.483 0.281 125.152 0 125.934 0 Z M123.701 7.411 L128.166 7.411 128.166 25.407 123.701 25.407 Z M140.519 6.948 C142.192 6.948 143.764 7.372 145.236 8.221 146.708 9.07 147.857 10.222 148.683 11.678 149.508 13.134 149.921 14.705 149.921 16.393 149.921 18.091 149.506 19.679 148.675 21.156 147.844 22.634 146.711 23.789 145.277 24.622 143.843 25.454 142.262 25.87 140.535 25.87 137.993 25.87 135.823 24.952 134.025 23.116 132.227 21.28 131.328 19.05 131.328 16.425 131.328 13.614 132.343 11.27 134.375 9.396 136.157 7.763 138.205 6.948 140.519 6.948 Z M140.584 11.198 C139.204 11.198 138.055 11.686 137.137 12.662 136.219 13.638 135.76 14.887 135.76 16.409 135.76 17.975 136.214 19.243 137.121 20.213 138.028 21.184 139.177 21.669 140.567 21.669 141.958 21.669 143.115 21.178 144.038 20.197 144.962 19.215 145.424 17.953 145.424 16.409 145.424 14.865 144.97 13.611 144.063 12.646 143.156 11.681 141.996 11.198 140.584 11.198 Z" fill="#072a58" fill-opacity="1" stroke="none"/>
</svg>
