<?xml version="1.0" encoding="UTF-8"?>
<svg width="150px" height="72px" viewBox="0 0 150 72" xmlns="http://www.w3.org/2000/svg" xmlns:xlink="http://www.w3.org/1999/xlink" version="1.1">
 <!-- Generated by Pixelmator Pro 2.0.1 -->
 <path id="Path" d="M-0.109 63.952 L-0.109 63.91 C-0.109 59.555 3.231 55.91 7.96 55.91 12.689 55.91 15.985 59.51 15.985 63.865 L15.985 63.91 C15.985 68.262 12.644 71.91 7.915 71.91 3.187 71.91 -0.109 68.307 -0.109 63.952 Z M13.149 63.952 L13.149 63.91 C13.149 60.91 10.973 58.41 7.925 58.41 4.878 58.41 2.736 60.86 2.736 63.865 L2.736 63.91 C2.736 66.91 4.913 69.39 7.96 69.39 11.007 69.39 13.149 66.958 13.149 63.952 Z" fill="#060208" fill-opacity="1" stroke="none"/>
 <path id="Path-1" d="M19.754 65.08 L19.754 57.413 C19.785 56.685 20.381 56.111 21.106 56.111 21.831 56.111 22.427 56.685 22.458 57.413 L22.458 64.97 C22.458 67.842 23.93 69.368 26.351 69.368 28.771 69.368 30.221 67.93 30.221 65.08 L30.221 57.413 C30.252 56.685 30.849 56.111 31.573 56.111 32.298 56.111 32.894 56.685 32.925 57.413 L32.925 64.948 C32.925 69.568 30.331 71.888 26.306 71.888 22.281 71.888 19.754 69.568 19.754 65.08 Z" fill="#060208" fill-opacity="1" stroke="none"/>
 <path id="Path-2" d="M41.522 58.693 L37.791 58.693 C37.099 58.693 36.539 58.129 36.539 57.434 36.539 56.739 37.099 56.175 37.791 56.175 L48.01 56.175 C48.702 56.175 49.262 56.739 49.262 57.434 49.262 58.129 48.702 58.693 48.01 58.693 L44.251 58.693 44.251 70.405 C44.251 71.164 43.639 71.78 42.883 71.78 42.127 71.78 41.515 71.164 41.515 70.405 Z" fill="#060208" fill-opacity="1" stroke="none"/>
 <path id="Path-3" d="M53.09 57.545 C53.084 57.18 53.226 56.828 53.484 56.569 53.741 56.311 54.092 56.169 54.455 56.175 L63.433 56.175 C64.046 56.263 64.501 56.79 64.501 57.413 64.501 58.035 64.046 58.562 63.433 58.65 L55.796 58.65 55.796 62.87 62.438 62.87 C62.92 62.801 63.397 63.021 63.66 63.432 63.923 63.844 63.923 64.371 63.66 64.783 63.397 65.194 62.92 65.414 62.438 65.345 L55.796 65.345 55.796 70.405 C55.796 71.156 55.19 71.765 54.443 71.765 53.695 71.765 53.09 71.156 53.09 70.405 Z" fill="#060208" fill-opacity="1" stroke="none"/>
 <path id="Path-4" d="M68.373 65.08 L68.373 57.413 C68.373 56.661 68.979 56.053 69.726 56.053 70.474 56.053 71.08 56.661 71.08 57.413 L71.08 64.97 C71.08 67.842 72.552 69.368 74.97 69.368 77.388 69.368 78.841 67.93 78.841 65.08 L78.841 57.413 C78.872 56.685 79.468 56.111 80.193 56.111 80.918 56.111 81.514 56.685 81.545 57.413 L81.545 64.948 C81.545 69.568 78.95 71.888 74.928 71.888 70.905 71.888 68.373 69.568 68.373 65.08 Z" fill="#060208" fill-opacity="1" stroke="none"/>
 <path id="Path-5" d="M86.179 57.455 C86.177 57.091 86.32 56.741 86.576 56.484 86.832 56.227 87.18 56.083 87.542 56.085 L87.828 56.085 C88.488 56.085 88.861 56.418 89.234 56.88 L96.93 66.893 96.93 57.393 C96.933 56.655 97.528 56.059 98.261 56.059 98.995 56.059 99.59 56.655 99.592 57.392 L99.592 70.393 C99.599 70.748 99.462 71.092 99.214 71.346 98.965 71.599 98.625 71.741 98.271 71.74 L98.162 71.74 C97.525 71.74 97.129 71.408 96.754 70.923 L88.838 60.623 88.838 70.435 C88.807 71.151 88.221 71.715 87.509 71.715 86.796 71.715 86.21 71.151 86.179 70.435 Z" fill="#060208" fill-opacity="1" stroke="none"/>
 <path id="Path-6" d="M104.649 57.455 C104.648 57.091 104.791 56.742 105.047 56.485 105.303 56.228 105.65 56.084 106.012 56.085 L106.298 56.085 C106.958 56.085 107.333 56.418 107.706 56.88 L115.403 66.893 115.403 57.393 C115.434 56.677 116.02 56.113 116.733 56.113 117.445 56.113 118.031 56.677 118.062 57.393 L118.062 70.393 C118.07 70.748 117.934 71.092 117.686 71.346 117.437 71.599 117.098 71.741 116.744 71.74 L116.634 71.74 C115.997 71.74 115.599 71.408 115.226 70.923 L107.311 60.623 107.311 70.435 C107.309 71.172 106.713 71.768 105.98 71.768 105.247 71.768 104.651 71.172 104.649 70.435 Z" fill="#060208" fill-opacity="1" stroke="none"/>
 <path id="Path-7" d="M123.134 70.273 L123.134 57.545 C123.128 57.18 123.27 56.828 123.527 56.57 123.784 56.311 124.134 56.169 124.498 56.175 L133.453 56.175 C134.118 56.18 134.656 56.721 134.662 57.39 134.662 57.712 134.535 58.022 134.308 58.25 134.081 58.478 133.774 58.606 133.453 58.605 L125.843 58.605 125.843 62.628 132.463 62.628 C132.788 62.631 133.099 62.766 133.326 63 133.552 63.235 133.677 63.55 133.672 63.878 133.663 64.541 133.123 65.074 132.463 65.07 L125.843 65.07 125.843 69.225 133.555 69.225 C134.22 69.23 134.758 69.771 134.764 70.44 134.764 70.762 134.637 71.072 134.41 71.3 134.183 71.528 133.876 71.656 133.555 71.655 L124.495 71.655 C124.13 71.661 123.778 71.516 123.521 71.255 123.265 70.994 123.125 70.639 123.134 70.272 Z" fill="#060208" fill-opacity="1" stroke="none"/>
 <path id="Path-8" d="M138.955 57.413 C138.986 56.685 139.582 56.111 140.307 56.111 141.032 56.111 141.628 56.685 141.659 57.413 L141.659 69.163 148.624 69.163 C149.106 69.094 149.584 69.313 149.846 69.725 150.109 70.136 150.109 70.664 149.846 71.075 149.584 71.487 149.106 71.706 148.624 71.638 L140.313 71.638 C139.95 71.644 139.6 71.501 139.343 71.243 139.086 70.985 138.944 70.633 138.95 70.268 Z" fill="#060208" fill-opacity="1" stroke="none"/>
 <path id="Path-9" d="M67.803 3.052 C63.266 3.875 58.935 6.052 55.774 9.802 46.42 20.878 55.562 42.777 70.567 39.712 Q71.963 39.425 73.289 39.027 C70.893 38.472 68.559 37.675 66.323 36.647 47.833 28.287 57.099 10.06 67.803 3.052 Z" fill="#b343e8" fill-opacity="1" stroke="none"/>
 <path id="Path-10" d="M97.704 19.418 C96.754 7.735 84.706 -2.943 72.58 0.74 70.885 1.281 69.274 2.059 67.796 3.053 76.682 1.44 86.361 5.053 89.607 12.443 94.206 22.91 86.622 35.033 73.281 39.025 89.963 42.778 98.545 29.75 97.704 19.418 Z" fill="#00bbff" fill-opacity="1" stroke="none"/>
 <path id="Path-11" d="M89.614 12.443 C86.381 5.055 76.679 1.443 67.803 3.052 57.107 10.052 47.833 28.287 66.311 36.645 68.547 37.672 70.881 38.47 73.276 39.025 86.627 35.033 94.214 22.91 89.614 12.442 Z" fill="#e0ffff" fill-opacity="1" stroke="none"/>
</svg>
