<?xml version="1.0" encoding="UTF-8"?>
<svg width="150px" height="33px" viewBox="0 0 150 33" xmlns="http://www.w3.org/2000/svg" xmlns:xlink="http://www.w3.org/1999/xlink" version="1.1">
 <!-- Generated by Pixelmator Pro 2.1.2 -->
 <g id="Outvio_Logo_Shade">
  <g id="Layer_3">
   <path id="Path_462" d="M59.056 24.366 C60.5 23.622 61.703 22.49 62.525 21.102 63.36 19.668 63.789 18.04 63.769 16.386 63.794 14.742 63.364 13.122 62.525 11.701 61.701 10.322 60.498 9.202 59.055 8.47 55.902 6.919 52.193 6.919 49.039 8.47 47.596 9.202 46.393 10.322 45.569 11.701 44.735 13.124 44.305 14.742 44.325 16.386 44.305 18.04 44.735 19.668 45.569 21.102 46.391 22.49 47.594 23.622 49.039 24.366 50.574 25.155 52.284 25.554 54.014 25.529 55.766 25.558 57.498 25.158 59.056 24.366 Z M48.617 16.418 C48.544 14.926 49.088 13.469 50.123 12.379 51.143 11.349 52.56 10.797 54.018 10.861 55.472 10.818 56.88 11.367 57.913 12.379 59.964 14.691 59.964 18.145 57.913 20.457 56.889 21.481 55.475 22.032 54.018 21.975 52.564 22.018 51.155 21.469 50.123 20.457 49.106 19.356 48.566 17.907 48.617 16.418 Z" fill="#00363d" fill-opacity="1" stroke="none"/>
   <path id="Path_463" d="M123.18 7.565 L120.921 7.565 C120.642 7.561 120.374 7.669 120.177 7.864 119.979 8.058 119.87 8.323 119.874 8.599 L119.874 24.334 C119.87 24.609 119.979 24.874 120.177 25.069 120.374 25.264 120.642 25.372 120.921 25.368 L123.18 25.368 C123.459 25.372 123.727 25.264 123.925 25.069 124.122 24.874 124.231 24.609 124.227 24.334 L124.227 8.599 C124.231 8.323 124.122 8.058 123.925 7.864 123.727 7.669 123.459 7.561 123.18 7.565 Z" fill="#00363d" fill-opacity="1" stroke="none"/>
   <path id="Path_464" d="M140.922 24.366 C142.347 23.619 143.527 22.487 144.323 21.102 145.158 19.668 145.587 18.04 145.567 16.386 145.592 14.742 145.162 13.123 144.323 11.702 143.516 10.333 142.338 9.214 140.922 8.471 139.398 7.681 137.698 7.28 135.977 7.306 134.267 7.276 132.577 7.677 131.067 8.469 129.644 9.203 128.464 10.324 127.666 11.7 126.832 13.122 126.402 14.741 126.422 16.385 126.386 18.04 126.817 19.673 127.666 21.101 128.472 22.478 129.649 23.608 131.067 24.364 134.164 25.915 137.824 25.915 140.92 24.364 Z M130.677 16.418 C130.604 14.926 131.148 13.469 132.183 12.379 133.177 11.351 134.574 10.797 136.012 10.861 137.446 10.825 138.832 11.374 139.842 12.379 141.85 14.707 141.85 18.129 139.842 20.457 138.84 21.475 137.449 22.027 136.012 21.975 134.578 22.011 133.193 21.462 132.183 20.457 131.153 19.364 130.61 17.909 130.677 16.418 Z" fill="#00363d" fill-opacity="1" stroke="none"/>
   <path id="Path_465" d="M116.732 7.565 L114.376 7.565 C114.05 7.566 113.755 7.755 113.622 8.049 L107.992 20.585 C107.975 20.614 107.944 20.632 107.911 20.632 107.877 20.632 107.846 20.614 107.83 20.585 L102.363 8.082 C102.231 7.788 101.936 7.598 101.61 7.598 L92.607 7.598 C92.58 7.602 92.553 7.593 92.533 7.573 92.514 7.554 92.505 7.528 92.509 7.501 L92.509 4.949 C92.511 4.734 92.426 4.527 92.272 4.375 92.118 4.223 91.908 4.138 91.69 4.141 L89.006 4.141 C88.788 4.138 88.578 4.223 88.424 4.375 88.27 4.527 88.185 4.734 88.187 4.949 L88.187 7.497 C88.191 7.524 88.182 7.551 88.163 7.57 88.143 7.589 88.116 7.598 88.089 7.594 L80.558 7.594 C80.34 7.592 80.131 7.676 79.976 7.828 79.822 7.98 79.737 8.187 79.739 8.402 L79.739 16.577 C79.844 18.031 79.347 19.464 78.363 20.551 77.382 21.506 76.039 22.01 74.663 21.94 73.468 22.016 72.299 21.579 71.455 20.741 70.617 19.737 70.207 18.452 70.309 17.155 L70.309 8.377 C70.312 8.162 70.226 7.955 70.072 7.803 69.918 7.651 69.709 7.567 69.491 7.569 L66.807 7.569 C66.59 7.568 66.382 7.653 66.229 7.805 66.077 7.957 65.992 8.163 65.995 8.377 L65.995 17.714 C65.995 20.299 66.715 22.271 68.122 23.595 69.74 24.98 71.843 25.686 73.982 25.562 75.137 25.566 76.283 25.347 77.353 24.916 78.286 24.54 79.124 23.967 79.808 23.236 79.833 23.206 79.876 23.195 79.913 23.21 79.95 23.225 79.973 23.262 79.97 23.301 L79.97 24.529 C79.968 24.744 80.053 24.951 80.207 25.103 80.361 25.255 80.571 25.339 80.789 25.337 L83.243 25.337 C83.461 25.339 83.671 25.255 83.825 25.103 83.979 24.951 84.064 24.744 84.062 24.529 L84.062 12.053 C84.059 11.838 84.145 11.631 84.299 11.479 84.453 11.327 84.663 11.243 84.88 11.245 L88.088 11.245 C88.115 11.241 88.142 11.25 88.161 11.269 88.181 11.288 88.19 11.315 88.186 11.342 L88.186 20.098 C88.063 21.753 88.672 23.379 89.856 24.556 91.168 25.648 92.858 26.192 94.57 26.074 95.354 26.077 96.135 25.979 96.894 25.783 97.316 25.667 97.723 25.505 98.108 25.299 98.469 25.089 98.633 24.658 98.501 24.265 L97.781 22.553 C97.675 22.348 97.457 22.224 97.224 22.234 97.133 22.236 97.044 22.258 96.963 22.298 96.367 22.566 95.718 22.699 95.064 22.686 94.363 22.727 93.677 22.482 93.166 22.007 92.679 21.467 92.431 20.757 92.478 20.036 L92.478 11.248 98.73 11.248 C99.056 11.249 99.351 11.439 99.483 11.732 L105.375 24.882 C105.508 25.176 105.803 25.366 106.128 25.366 L109.53 25.366 C109.855 25.366 110.15 25.176 110.283 24.882 L117.517 8.727 C117.614 8.468 117.579 8.179 117.424 7.949 117.268 7.719 117.011 7.576 116.731 7.564 Z" fill="#00363d" fill-opacity="1" stroke="none"/>
   <path id="Path_466" d="M14.472 16.062 C14.329 16.808 14.568 17.575 15.112 18.112 15.656 18.649 16.433 18.885 17.189 18.744 18.106 18.582 18.824 17.873 18.989 16.967 19.132 16.222 18.892 15.454 18.349 14.918 17.805 14.381 17.027 14.144 16.272 14.285 15.355 14.448 14.636 15.157 14.472 16.062 Z" fill="#4bb4b3" fill-opacity="1" stroke="none"/>
   <path id="Path_467" d="M15.814 10.244 C16.119 10.206 16.425 10.185 16.731 10.179 17.005 10.185 17.278 10.206 17.55 10.244 17.797 10.283 18.04 10.151 18.139 9.924 L21.936 0.876 C21.982 0.769 21.98 0.648 21.93 0.543 21.88 0.438 21.787 0.359 21.675 0.326 21.224 0.189 20.764 0.082 20.298 0.006 20.102 -0.031 19.907 0.079 19.84 0.264 L16.763 7.502 C16.755 7.532 16.728 7.552 16.697 7.552 16.666 7.552 16.639 7.532 16.631 7.502 L13.489 0.33 C13.414 0.137 13.197 0.037 12.998 0.104 12.474 0.234 11.984 0.363 11.46 0.524 11.348 0.557 11.255 0.636 11.205 0.741 11.155 0.846 11.153 0.967 11.199 1.074 L15.192 9.992 C15.336 10.183 15.575 10.28 15.814 10.245 Z" fill="#4bb4b3" fill-opacity="1" stroke="none"/>
   <path id="Path_468" d="M23.048 15.675 C23.086 15.975 23.108 16.277 23.114 16.579 23.108 16.85 23.086 17.12 23.048 17.387 23.009 17.632 23.142 17.871 23.372 17.969 L32.54 21.718 C32.648 21.763 32.771 21.761 32.877 21.711 32.984 21.662 33.064 21.57 33.097 21.459 33.236 21.014 33.344 20.56 33.421 20.1 33.459 19.906 33.348 19.714 33.16 19.648 L25.827 16.611 C25.797 16.603 25.777 16.576 25.777 16.546 25.777 16.516 25.797 16.489 25.827 16.481 L33.093 13.379 C33.289 13.305 33.39 13.091 33.322 12.895 33.191 12.378 33.06 11.893 32.897 11.377 32.863 11.266 32.783 11.174 32.677 11.125 32.571 11.076 32.448 11.073 32.34 11.119 L23.305 15.061 C23.119 15.209 23.022 15.44 23.048 15.675 Z" fill="#4bb4b3" fill-opacity="1" stroke="none"/>
   <path id="Path_469" d="M17.55 22.75 C17.246 22.788 16.94 22.809 16.633 22.814 16.359 22.809 16.086 22.787 15.814 22.75 15.567 22.711 15.325 22.842 15.225 23.069 L11.428 32.123 C11.382 32.23 11.384 32.351 11.434 32.456 11.484 32.561 11.577 32.64 11.69 32.673 12.141 32.81 12.601 32.917 13.067 32.993 13.263 33.03 13.458 32.92 13.525 32.734 L16.602 25.496 C16.61 25.467 16.637 25.447 16.668 25.447 16.699 25.447 16.726 25.467 16.734 25.496 L19.876 32.668 C19.951 32.862 20.168 32.962 20.367 32.895 20.891 32.765 21.381 32.636 21.904 32.475 22.017 32.442 22.11 32.363 22.16 32.258 22.21 32.153 22.212 32.032 22.166 31.925 L18.171 23.012 C18.038 22.808 17.792 22.704 17.55 22.751 Z" fill="#4bb4b3" fill-opacity="1" stroke="none"/>
   <path id="Path_470" d="M20.561 11.474 C20.79 11.669 21.051 11.862 21.248 12.056 21.44 12.246 21.616 12.451 21.772 12.67 21.93 12.862 22.197 12.927 22.427 12.83 L31.592 9.114 C31.704 9.071 31.79 8.981 31.828 8.868 31.866 8.756 31.852 8.633 31.789 8.532 31.56 8.112 31.33 7.724 31.069 7.333 30.951 7.169 30.736 7.103 30.545 7.173 L23.175 10.146 C23.147 10.161 23.112 10.157 23.089 10.134 23.066 10.112 23.061 10.077 23.077 10.049 L25.993 2.775 C26.058 2.586 25.993 2.377 25.831 2.258 25.386 1.975 24.926 1.716 24.454 1.483 24.345 1.434 24.222 1.431 24.111 1.474 24 1.516 23.911 1.601 23.864 1.709 L20.395 10.822 C20.284 11.051 20.354 11.324 20.561 11.474 Z" fill="#4bb4b3" fill-opacity="1" stroke="none"/>
   <path id="Path_471" d="M12.869 21.522 C12.639 21.328 12.378 21.135 12.181 20.94 11.989 20.751 11.814 20.546 11.657 20.327 11.5 20.135 11.232 20.07 11.003 20.167 L1.838 23.883 C1.726 23.926 1.639 24.016 1.601 24.128 1.563 24.241 1.578 24.364 1.641 24.465 1.87 24.885 2.099 25.273 2.361 25.664 2.479 25.828 2.694 25.893 2.885 25.824 L10.254 22.851 C10.282 22.835 10.317 22.84 10.34 22.863 10.363 22.885 10.368 22.92 10.352 22.948 L7.437 30.222 C7.371 30.41 7.437 30.619 7.599 30.739 8.043 31.021 8.503 31.28 8.975 31.514 9.084 31.562 9.207 31.565 9.318 31.523 9.429 31.48 9.518 31.396 9.565 31.288 L13.133 22.209 C13.16 21.952 13.062 21.697 12.869 21.523 Z" fill="#4bb4b3" fill-opacity="1" stroke="none"/>
   <path id="Path_472" d="M21.805 20.295 C21.608 20.521 21.412 20.779 21.215 20.973 21.023 21.163 20.815 21.336 20.593 21.491 20.399 21.646 20.333 21.91 20.431 22.137 L24.196 31.183 C24.24 31.293 24.331 31.379 24.445 31.416 24.558 31.454 24.683 31.44 24.785 31.378 25.211 31.151 25.604 30.925 26 30.667 26.166 30.55 26.233 30.338 26.162 30.15 L23.151 22.876 C23.135 22.848 23.14 22.813 23.162 22.791 23.185 22.768 23.221 22.763 23.249 22.779 L30.618 25.657 C30.809 25.721 31.021 25.657 31.142 25.497 31.428 25.058 31.69 24.604 31.927 24.138 31.976 24.031 31.979 23.909 31.936 23.799 31.893 23.69 31.807 23.602 31.698 23.556 L22.492 20.036 C22.234 20.011 21.98 20.107 21.805 20.295 Z" fill="#4bb4b3" fill-opacity="1" stroke="none"/>
   <path id="Path_473" d="M11.624 12.702 C11.821 12.476 12.017 12.218 12.214 12.023 12.406 11.834 12.614 11.661 12.835 11.506 13.029 11.351 13.096 11.087 12.997 10.86 L9.233 1.813 C9.189 1.703 9.098 1.618 8.984 1.58 8.87 1.543 8.745 1.557 8.643 1.619 8.218 1.845 7.825 2.072 7.428 2.33 7.262 2.446 7.196 2.658 7.266 2.847 L10.278 10.121 C10.294 10.149 10.289 10.183 10.266 10.206 10.243 10.229 10.208 10.233 10.18 10.218 L2.811 7.34 C2.619 7.275 2.408 7.34 2.287 7.5 2 7.939 1.738 8.392 1.501 8.859 1.453 8.966 1.449 9.088 1.492 9.197 1.536 9.307 1.621 9.394 1.73 9.441 L10.929 12.963 C11.191 13.005 11.457 12.906 11.624 12.702 Z" fill="#4bb4b3" fill-opacity="1" stroke="none"/>
   <path id="Path_474" d="M10.378 17.42 C10.34 17.119 10.318 16.817 10.313 16.515 10.318 16.244 10.34 15.975 10.378 15.707 10.417 15.463 10.284 15.223 10.054 15.125 L0.888 11.377 C0.78 11.331 0.657 11.334 0.551 11.383 0.444 11.432 0.364 11.524 0.331 11.635 0.192 12.081 0.084 12.535 0.007 12.995 -0.031 13.189 0.08 13.381 0.269 13.447 L7.602 16.485 C7.632 16.492 7.652 16.519 7.652 16.549 7.652 16.58 7.632 16.606 7.602 16.614 L0.336 19.716 C0.14 19.79 0.039 20.004 0.107 20.2 0.238 20.717 0.368 21.202 0.532 21.718 0.566 21.829 0.646 21.921 0.752 21.97 0.858 22.019 0.981 22.022 1.089 21.976 L10.122 18.034 C10.304 17.883 10.4 17.653 10.379 17.42 Z" fill="#4bb4b3" fill-opacity="1" stroke="none"/>
   <path id="Path_475" d="M145.799 23.074 C145.619 23.964 146.05 24.865 146.861 25.293 147.671 25.722 148.67 25.576 149.32 24.934 149.97 24.292 150.118 23.307 149.684 22.507 149.25 21.707 148.337 21.281 147.436 21.459 146.601 21.605 145.947 22.25 145.799 23.074 Z" fill="#4bb4b3" fill-opacity="1" stroke="none"/>
  </g>
 </g>
</svg>
