<svg xmlns="http://www.w3.org/2000/svg" width="672.69" height="150" viewBox="0 0 672.69 150">
  <g id="Outvio_Logo_Shade" data-name="Outvio+Logo+Shade" transform="translate(-68.684 -246.384)">
    <g id="Layer_3" transform="translate(68.684 246.384)">
      <path id="Path_462" data-name="Path 462" d="M270.191,346.54a38.846,38.846,0,0,0,15.568-14.835,42.042,42.042,0,0,0,5.581-21.436,41.123,41.123,0,0,0-5.581-21.294,38.511,38.511,0,0,0-15.569-14.686,50.389,50.389,0,0,0-44.94,0,38.513,38.513,0,0,0-15.569,14.686,41.507,41.507,0,0,0-5.581,21.294,42.043,42.043,0,0,0,5.581,21.436,38.847,38.847,0,0,0,15.568,14.835,46.826,46.826,0,0,0,22.323,5.286A47.6,47.6,0,0,0,270.191,346.54Zm-46.833-36.125a25.069,25.069,0,0,1,6.754-18.359,23.017,23.017,0,0,1,17.476-6.9,23.8,23.8,0,0,1,17.476,6.9,27.864,27.864,0,0,1,0,36.718,23.254,23.254,0,0,1-17.476,6.9,23.8,23.8,0,0,1-17.476-6.9A25.935,25.935,0,0,1,223.358,310.415Z" transform="translate(-5.228 -235.787)" fill="#00363d"/>
      <path id="Path_463" data-name="Path 463" d="M449.735,269.8H439.6a4.64,4.64,0,0,0-4.7,4.7v71.524a4.64,4.64,0,0,0,4.7,4.7h10.133a4.64,4.64,0,0,0,4.7-4.7V274.5a4.64,4.64,0,0,0-4.7-4.7Z" transform="translate(102.934 -235.415)" fill="#00363d"/>
      <path id="Path_464" data-name="Path 464" d="M519.965,346.55a38.083,38.083,0,0,0,15.26-14.835,42.047,42.047,0,0,0,5.581-21.436,41.123,41.123,0,0,0-5.581-21.294,38.674,38.674,0,0,0-15.26-14.686,46.239,46.239,0,0,0-22.188-5.294,45.249,45.249,0,0,0-22.028,5.286,37.737,37.737,0,0,0-15.26,14.686,41.507,41.507,0,0,0-5.581,21.295,40.646,40.646,0,0,0,5.581,21.436,39.036,39.036,0,0,0,15.26,14.835,48.846,48.846,0,0,0,44.206,0ZM474,310.424a25.069,25.069,0,0,1,6.754-18.359,22.366,22.366,0,0,1,17.182-6.9,23.358,23.358,0,0,1,17.182,6.9,28.321,28.321,0,0,1,0,36.718,22.8,22.8,0,0,1-17.182,6.9,23.359,23.359,0,0,1-17.182-6.9A25.306,25.306,0,0,1,474,310.424Z" transform="translate(112.306 -235.796)" fill="#00363d"/>
      <path id="Path_465" data-name="Path 465" d="M497.942,274.766H487.369a3.71,3.71,0,0,0-3.379,2.2l-25.262,56.984a.418.418,0,0,1-.727,0l-24.528-56.835a3.709,3.709,0,0,0-3.379-2.2H389.7a.389.389,0,0,1-.44-.44v-11.6a3.633,3.633,0,0,0-3.673-3.673H373.543a3.633,3.633,0,0,0-3.673,3.673v11.583a.389.389,0,0,1-.44.44H335.641a3.633,3.633,0,0,0-3.673,3.673v37.157a24.48,24.48,0,0,1-6.177,18.064,22.024,22.024,0,0,1-16.6,6.315,18.609,18.609,0,0,1-14.391-5.45,22.832,22.832,0,0,1-5.141-16.3v-39.9a3.633,3.633,0,0,0-3.673-3.673H273.944a3.633,3.633,0,0,0-3.644,3.673V320.9c0,11.75,3.23,20.71,9.545,26.73a36.833,36.833,0,0,0,26.29,8.941,39.664,39.664,0,0,0,15.125-2.935A30.917,30.917,0,0,0,332.276,346a.411.411,0,0,1,.727.294v5.581a3.633,3.633,0,0,0,3.673,3.673h11.012a3.633,3.633,0,0,0,3.673-3.673V295.167a3.633,3.633,0,0,1,3.673-3.673h14.391a.389.389,0,0,1,.44.44v39.8A26.061,26.061,0,0,0,377.358,352a29.619,29.619,0,0,0,21.149,6.9,40.582,40.582,0,0,0,10.427-1.323,26.212,26.212,0,0,0,5.45-2.2,4,4,0,0,0,1.762-4.7l-3.23-7.782h0a2.678,2.678,0,0,0-2.5-1.453,2.764,2.764,0,0,0-1.173.294h0a19.619,19.619,0,0,1-8.52,1.762,11.435,11.435,0,0,1-8.516-3.085,12.288,12.288,0,0,1-3.085-8.96V291.508h28.052a3.71,3.71,0,0,1,3.379,2.2l26.435,59.774a3.71,3.71,0,0,0,3.379,2.2h15.26a3.71,3.71,0,0,0,3.379-2.2l32.456-73.432a3.928,3.928,0,0,0-3.524-5.286Z" transform="translate(25.796 -240.38)" fill="#00363d"/>
      <path id="Path_466" data-name="Path 466" d="M112.959,298.738a10.431,10.431,0,0,0,12.19,12.19,10,10,0,0,0,8.077-8.077,10.431,10.431,0,0,0-12.19-12.19A10,10,0,0,0,112.959,298.738Z" transform="translate(-48.029 -225.727)" fill="#4bb4b3"/>
      <path id="Path_467" data-name="Path 467" d="M123.658,292.948a38.7,38.7,0,0,1,4.113-.294,30.918,30.918,0,0,1,3.673.294,2.463,2.463,0,0,0,2.645-1.453l17.036-41.129a1.853,1.853,0,0,0-1.174-2.5,46.962,46.962,0,0,0-6.177-1.453,1.817,1.817,0,0,0-2.056,1.173l-13.806,32.9a.305.305,0,0,1-.589,0l-14.1-32.6a1.748,1.748,0,0,0-2.2-1.028c-2.351.589-4.552,1.174-6.9,1.907a1.853,1.853,0,0,0-1.174,2.5L120.864,291.8a2.943,2.943,0,0,0,2.794,1.152Z" transform="translate(-52.704 -246.384)" fill="#4bb4b3"/>
      <path id="Path_468" data-name="Path 468" d="M139.113,301.558a38.716,38.716,0,0,1,.294,4.113,30.932,30.932,0,0,1-.294,3.673,2.463,2.463,0,0,0,1.453,2.645L181.7,329.026a1.853,1.853,0,0,0,2.5-1.174,46.957,46.957,0,0,0,1.453-6.177,1.816,1.816,0,0,0-1.173-2.056l-32.9-13.806a.305.305,0,0,1,0-.589l32.6-14.1a1.747,1.747,0,0,0,1.028-2.2c-.589-2.351-1.174-4.553-1.907-6.9a1.853,1.853,0,0,0-2.5-1.174l-40.536,17.919A3.128,3.128,0,0,0,139.113,301.558Z" transform="translate(-35.703 -230.31)" fill="#4bb4b3"/>
      <path id="Path_469" data-name="Path 469" d="M131.113,316.809A38.763,38.763,0,0,1,127,317.1a30.92,30.92,0,0,1-3.673-.294,2.464,2.464,0,0,0-2.645,1.453l-17.036,41.154a1.853,1.853,0,0,0,1.174,2.5A46.952,46.952,0,0,0,111,363.366a1.817,1.817,0,0,0,2.056-1.174l13.806-32.9a.305.305,0,0,1,.589,0l14.1,32.6a1.748,1.748,0,0,0,2.2,1.028c2.351-.589,4.552-1.174,6.9-1.908a1.853,1.853,0,0,0,1.174-2.5L133.9,318a2.7,2.7,0,0,0-2.787-1.188Z" transform="translate(-52.373 -213.399)" fill="#4bb4b3"/>
      <path id="Path_470" data-name="Path 470" d="M131.829,296.465c1.028.883,2.2,1.762,3.085,2.645a21.489,21.489,0,0,1,2.351,2.79,2.51,2.51,0,0,0,2.936.727l41.121-16.891a1.817,1.817,0,0,0,.883-2.645c-1.028-1.908-2.056-3.673-3.23-5.45a2.024,2.024,0,0,0-2.351-.727L143.56,290.426a.323.323,0,0,1-.44-.44l13.08-33.063a2.089,2.089,0,0,0-.727-2.351,65.962,65.962,0,0,0-6.177-3.524,1.991,1.991,0,0,0-2.645,1.028L131.084,293.5A2.4,2.4,0,0,0,131.829,296.465Z" transform="translate(-39.58 -244.309)" fill="#4bb4b3"/>
      <path id="Path_471" data-name="Path 471" d="M124.164,315.028c-1.028-.883-2.2-1.762-3.085-2.645a21.481,21.481,0,0,1-2.351-2.79,2.511,2.511,0,0,0-2.936-.727L74.672,325.757a1.817,1.817,0,0,0-.883,2.645c1.028,1.911,2.056,3.673,3.23,5.45a2.024,2.024,0,0,0,2.351.727l33.063-13.512a.323.323,0,0,1,.44.44l-13.08,33.063a2.089,2.089,0,0,0,.727,2.351,66.038,66.038,0,0,0,6.177,3.524,1.991,1.991,0,0,0,2.645-1.028l16.008-41.27a3.7,3.7,0,0,0-1.184-3.117Z" transform="translate(-66.427 -217.199)" fill="#4bb4b3"/>
      <path id="Path_472" data-name="Path 472" d="M137.329,309.586c-.883,1.028-1.762,2.2-2.645,3.085a21.481,21.481,0,0,1-2.79,2.351,2.51,2.51,0,0,0-.727,2.936l16.891,41.121a1.817,1.817,0,0,0,2.645.883c1.908-1.028,3.673-2.056,5.45-3.23a2.024,2.024,0,0,0,.727-2.351l-13.512-33.063a.323.323,0,0,1,.44-.44l33.063,13.08a2.089,2.089,0,0,0,2.351-.727,65.992,65.992,0,0,0,3.524-6.177,1.991,1.991,0,0,0-1.028-2.645l-41.307-16A3.7,3.7,0,0,0,137.329,309.586Z" transform="translate(-39.499 -217.337)" fill="#4bb4b3"/>
      <path id="Path_473" data-name="Path 473" d="M118.764,301.864c.883-1.028,1.762-2.2,2.645-3.085a21.486,21.486,0,0,1,2.79-2.351,2.51,2.51,0,0,0,.727-2.936l-16.891-41.121a1.817,1.817,0,0,0-2.645-.883c-1.907,1.028-3.673,2.056-5.45,3.23a2.024,2.024,0,0,0-.727,2.351l13.512,33.063a.323.323,0,0,1-.44.44l-33.063-13.08a2.089,2.089,0,0,0-2.351.727,65.984,65.984,0,0,0-3.524,6.177,1.991,1.991,0,0,0,1.028,2.645l41.27,16.008A3.317,3.317,0,0,0,118.764,301.864Z" transform="translate(-66.611 -244.128)" fill="#4bb4b3"/>
      <path id="Path_474" data-name="Path 474" d="M115.248,309.113a38.7,38.7,0,0,1-.294-4.113,30.919,30.919,0,0,1,.294-3.673,2.463,2.463,0,0,0-1.453-2.645L72.667,281.646a1.853,1.853,0,0,0-2.5,1.174A46.939,46.939,0,0,0,68.717,289a1.816,1.816,0,0,0,1.174,2.057l32.9,13.806a.305.305,0,0,1,0,.589l-32.6,14.1a1.748,1.748,0,0,0-1.028,2.2c.589,2.351,1.174,4.552,1.907,6.9a1.853,1.853,0,0,0,2.5,1.173L114.1,311.907a3.292,3.292,0,0,0,1.152-2.794Z" transform="translate(-68.684 -229.933)" fill="#4bb4b3"/>
      <path id="Path_475" data-name="Path 475" d="M514.154,320.2a9.359,9.359,0,1,0,7.343-7.343A9.061,9.061,0,0,0,514.154,320.2Z" transform="translate(139.999 -215.316)" fill="#4bb4b3"/>
    </g>
  </g>
</svg>
