<?xml version="1.0" encoding="UTF-8"?>
<svg width="150px" height="17px" viewBox="0 0 150 17" xmlns="http://www.w3.org/2000/svg" xmlns:xlink="http://www.w3.org/1999/xlink" version="1.1">
 <!-- Generated by Pixelmator Pro 2.0.6 -->
 <g id="Logo/patchstack/Dark">
  <g id="Group-27">
   <path id="Fill-1" d="M41.05 8.91 C41.05 6.956 40.166 6.155 37.944 6.155 35.802 6.155 34.779 7.015 34.779 8.91 34.779 10.786 35.802 11.626 37.944 11.626 40.166 11.626 41.05 10.806 41.05 8.91 M43.567 8.91 C43.567 11.959 41.857 13.874 38.691 13.874 37.02 13.874 35.585 12.975 34.878 11.353 L34.878 17 32.381 17 32.381 4.103 34.878 4.103 34.878 6.468 C35.585 4.846 37.079 3.908 38.829 3.908 41.916 3.908 43.567 5.803 43.567 8.91" fill="#17191e" fill-opacity="1" stroke="none"/>
   <path id="Fill-3" d="M54.091 8.91 C54.091 7.015 53.069 6.155 50.926 6.155 48.705 6.155 47.82 6.956 47.82 8.91 47.82 10.806 48.705 11.626 50.926 11.626 53.069 11.626 54.091 10.786 54.091 8.91 Z M54.013 4.103 L56.51 4.103 56.51 13.678 54.013 13.678 54.013 11.314 C53.305 12.936 51.89 13.874 50.179 13.874 47.014 13.874 45.304 11.959 45.304 8.91 45.304 5.803 46.936 3.908 50.061 3.908 51.811 3.908 53.305 4.866 54.013 6.507 Z" fill="#17191e" fill-opacity="1" stroke="none"/>
   <path id="Fill-5" d="M66.378 6.292 L63.095 6.292 63.095 11.49 66.142 11.49 66.142 13.678 63.586 13.678 C61.797 13.678 60.598 12.486 60.598 10.708 L60.598 6.292 58.259 6.292 58.259 4.104 60.598 4.104 60.598 1.251 63.095 1.251 63.095 4.104 66.378 4.104 Z" fill="#17191e" fill-opacity="1" stroke="none"/>
   <path id="Fill-7" d="M76.424 9.496 L78.861 10.083 C78.252 12.603 76.424 13.874 73.377 13.874 71.587 13.874 70.172 13.424 69.15 12.506 68.108 11.607 67.597 10.415 67.597 8.91 67.597 7.386 68.108 6.175 69.15 5.256 70.172 4.358 71.587 3.908 73.377 3.908 76.424 3.908 78.252 5.178 78.861 7.699 L76.424 8.285 C76.109 6.722 75.264 6.155 73.357 6.155 71.017 6.155 70.093 7.015 70.093 8.91 70.093 10.786 71.017 11.626 73.357 11.626 75.264 11.626 76.09 11.06 76.424 9.496" fill="#17191e" fill-opacity="1" stroke="none"/>
   <path id="Fill-9" d="M91.128 8.148 L91.128 13.678 88.631 13.678 88.631 8.676 C88.631 6.878 87.904 6.155 86.312 6.155 84.425 6.155 83.481 7.132 83.481 9.106 L83.481 13.678 80.984 13.678 80.984 0 83.481 0 83.481 6.351 C84.011 4.729 85.25 3.908 87.196 3.908 89.811 3.908 91.128 5.315 91.128 8.148" fill="#17191e" fill-opacity="1" stroke="none"/>
   <path id="Fill-11" d="M92.995 11.04 L95.433 10.396 C95.649 11.587 96.377 11.978 97.93 11.978 99.267 11.978 99.935 11.646 99.935 11.001 99.935 10.376 99.503 10.122 98.244 9.946 L96.318 9.673 C94.43 9.418 93.271 8.402 93.271 6.82 93.271 5.002 94.863 3.908 97.556 3.908 100.23 3.908 101.823 4.924 102.196 6.722 L99.778 7.249 C99.601 6.058 98.992 5.706 97.655 5.706 96.416 5.706 95.787 6.038 95.787 6.702 95.787 7.269 96.16 7.562 97.163 7.699 L99.522 7.992 C101.351 8.207 102.432 9.184 102.432 10.728 102.432 12.701 100.702 13.874 97.773 13.874 95.158 13.874 93.33 12.682 92.995 11.04" fill="#17191e" fill-opacity="1" stroke="none"/>
   <path id="Fill-13" d="M111.477 6.292 L108.194 6.292 108.194 11.49 111.241 11.49 111.241 13.678 108.685 13.678 C106.897 13.678 105.697 12.486 105.697 10.708 L105.697 6.292 103.358 6.292 103.358 4.104 105.697 4.104 105.697 1.251 108.194 1.251 108.194 4.104 111.477 4.104 Z" fill="#17191e" fill-opacity="1" stroke="none"/>
   <path id="Fill-15" d="M121.613 8.91 C121.613 7.015 120.591 6.155 118.448 6.155 116.226 6.155 115.342 6.956 115.342 8.91 115.342 10.806 116.226 11.626 118.448 11.626 120.591 11.626 121.613 10.786 121.613 8.91 Z M121.534 4.103 L124.031 4.103 124.031 13.678 121.534 13.678 121.534 11.314 C120.827 12.936 119.411 13.874 117.701 13.874 114.536 13.874 112.825 11.959 112.825 8.91 112.825 5.803 114.457 3.908 117.583 3.908 119.333 3.908 120.827 4.866 121.534 6.507 Z" fill="#17191e" fill-opacity="1" stroke="none"/>
   <path id="Fill-17" d="M134.961 9.496 L137.399 10.083 C136.789 12.603 134.961 13.874 131.914 13.874 130.125 13.874 128.71 13.424 127.687 12.506 126.645 11.607 126.134 10.415 126.134 8.91 126.134 7.386 126.645 6.175 127.687 5.256 128.71 4.358 130.125 3.908 131.914 3.908 134.961 3.908 136.789 5.178 137.399 7.699 L134.961 8.285 C134.646 6.722 133.801 6.155 131.894 6.155 129.555 6.155 128.631 7.015 128.631 8.91 128.631 10.786 129.555 11.626 131.894 11.626 133.801 11.626 134.627 11.06 134.961 9.496" fill="#17191e" fill-opacity="1" stroke="none"/>
   <path id="Fill-19" d="M146.973 13.678 L143.984 9.555 141.979 11.451 141.979 13.678 139.522 13.678 139.522 0 141.979 0 141.979 8.549 146.599 4.103 149.784 4.103 145.557 8.07 150 13.678 Z" fill="#17191e" fill-opacity="1" stroke="none"/>
   <path id="Fill-22" d="M0 17 L5.953 17 5.953 12.75 0 12.75 Z" fill="#afe614" fill-opacity="1" stroke="none"/>
   <path id="Fill-24" d="M5.952 17 L11.905 17 11.905 12.75 5.952 12.75 Z" fill="#6ebe00" fill-opacity="1" stroke="none"/>
   <path id="Fill-25" d="M11.905 12.75 L23.81 12.75 23.81 0 11.905 0 Z" fill="#afe614" fill-opacity="1" stroke="none"/>
   <path id="Fill-26" d="M0 8.5 L11.905 8.5 11.905 0 0 0 Z" fill="#6ebe00" fill-opacity="1" stroke="none"/>
  </g>
 </g>
</svg>
