<?xml version="1.0" encoding="UTF-8"?>
<svg width="150px" height="26px" viewBox="0 0 150 26" xmlns="http://www.w3.org/2000/svg" xmlns:xlink="http://www.w3.org/1999/xlink" version="1.1">
 <!-- Generated by Pixelmator Pro 2.3.3 -->
 <g id="group">
  <path id="Path" d="M24.484 25.88 C23.098 25.88 21.974 24.75 21.974 23.357 L21.974 2.807 C21.974 1.414 23.098 0.285 24.484 0.285 25.87 0.285 26.993 1.414 26.993 2.807 L26.993 23.357 C26.993 24.75 25.87 25.88 24.484 25.88 M39.527 20.834 C36.943 20.834 34.841 18.721 34.841 16.123 34.841 13.525 36.943 11.412 39.527 11.412 42.111 11.412 44.213 13.525 44.213 16.123 44.213 18.721 42.111 20.834 39.527 20.834 M46.723 6.366 C45.616 6.366 44.679 7.087 44.345 8.086 42.821 7.019 41.053 6.366 39.21 6.366 33.859 6.366 29.822 10.743 29.822 16.123 29.822 21.503 34.176 25.88 39.527 25.88 41.296 25.88 42.956 25.27 44.385 24.27 44.75 25.212 45.658 25.88 46.723 25.88 48.109 25.88 49.232 24.75 49.232 23.357 L49.232 8.889 C49.232 7.496 48.109 6.366 46.723 6.366 M62.366 6.366 C60.523 6.366 58.755 7.018 57.231 8.084 56.896 7.086 55.959 6.366 54.854 6.366 53.468 6.366 52.344 7.496 52.344 8.889 L52.344 23.357 C52.344 24.75 53.468 25.88 54.854 25.88 56.24 25.88 57.363 24.75 57.363 23.357 L57.363 16.123 C57.363 13.525 59.465 11.412 62.049 11.412 64.633 11.412 66.735 13.525 66.735 16.123 L66.735 23.357 C66.735 24.75 67.859 25.88 69.245 25.88 70.631 25.88 71.754 24.75 71.754 23.357 L71.754 16.123 C71.754 10.743 67.717 6.366 62.366 6.366 M130.42 19.082 C130.42 20.239 129.53 21.395 128.045 21.395 L127.044 21.395 127.044 23.297 C127.044 24.753 125.93 25.871 124.521 25.871 123.111 25.871 122.035 24.753 122.035 23.297 L122.035 21.395 112.35 21.395 C110.977 21.395 109.863 20.276 109.863 18.895 109.863 18.522 109.938 18.187 110.087 17.814 L116.951 1.997 C117.359 1.065 118.25 0.355 119.288 0.355 120.661 0.355 121.812 1.512 121.812 2.893 121.812 3.191 121.737 3.489 121.626 3.788 L116.06 16.732 122.035 16.732 122.035 12.629 C122.035 11.211 123.073 10.092 124.521 10.092 125.93 10.092 127.044 11.211 127.044 12.629 L127.044 16.732 128.045 16.732 C129.53 16.732 130.42 17.889 130.42 19.082 M149.724 23.036 C149.724 24.417 148.685 25.424 147.275 25.424 L133.953 25.461 C132.581 25.461 131.467 24.342 131.467 22.962 131.467 22.179 131.802 21.469 132.507 20.873 L140.002 14.493 C142.748 12.143 143.676 10.652 143.676 8.637 143.676 6.436 142.34 5.018 140.299 5.018 138.48 5.018 137.182 6.212 136.923 8.115 136.885 8.488 136.811 8.861 136.774 9.196 136.589 10.54 135.586 11.398 134.288 11.398 132.952 11.398 131.913 10.391 131.802 8.935 131.728 8.45 131.765 7.779 131.876 7.07 132.544 3.153 136.031 0.355 140.447 0.355 145.308 0.355 148.834 3.75 148.834 8.376 148.834 11.584 147.238 14.195 143.007 17.739 L139.52 20.686 147.275 20.686 C148.685 20.686 149.724 21.693 149.724 23.036 M79.357 14.347 L87.722 14.347 C87.648 12.141 86.086 10.609 83.744 10.609 81.55 10.609 79.915 12.067 79.357 14.347 M92.593 15.207 L92.593 15.319 C92.593 16.888 91.478 17.898 89.842 17.898 L79.357 17.898 C79.952 20.216 81.811 21.561 84.525 21.561 85.863 21.561 87.239 21.187 88.354 20.477 88.726 20.253 89.061 20.141 89.433 20.141 90.585 20.141 91.478 21 91.478 22.159 91.478 22.981 91.106 23.579 90.213 24.177 88.54 25.299 86.532 25.897 84.377 25.897 78.576 25.897 74.3 21.747 74.3 16.216 74.3 10.721 78.427 6.535 83.855 6.535 88.875 6.535 92.593 10.198 92.593 15.207 M108.442 23.392 C108.442 24.327 107.959 25.037 107.177 25.411 106.471 25.71 105.653 25.897 104.575 25.897 99.779 25.897 97.213 23.467 97.213 18.944 L97.213 11.207 96.172 11.207 C94.945 11.207 94.016 10.311 94.016 9.077 94.016 7.844 94.945 6.946 96.172 6.946 L97.213 6.946 97.213 2.871 C97.213 1.414 98.255 0.33 99.741 0.33 101.155 0.33 102.232 1.414 102.232 2.871 L102.232 6.946 105.616 6.946 C106.843 6.946 107.735 7.844 107.735 9.077 107.735 10.311 106.843 11.207 105.616 11.207 L102.232 11.207 102.232 18.496 C102.232 20.552 103.199 21.374 105.542 21.374 105.839 21.374 106.062 21.337 106.248 21.337 107.587 21.337 108.442 22.16 108.442 23.392 M14.369 9.454 C14.393 9.647 14.409 9.842 14.409 10.042 14.409 12.639 12.307 14.753 9.723 14.753 8.368 14.753 7.149 14.169 6.294 13.241 4.369 13.79 2.978 13.861 2.727 13.321 2.477 12.781 3.426 11.755 5.083 10.625 5.074 10.549 5.061 10.475 5.055 10.398 L5.055 10.042 C5.055 9.981 5.05 9.922 5.046 9.863 5.14 7.348 7.199 5.33 9.723 5.33 11.078 5.33 12.297 5.915 13.153 6.842 15.077 6.293 16.468 6.222 16.719 6.762 16.969 7.302 16.022 8.326 14.369 9.454 M9.723 0.285 C4.489 0.285 0.211 4.473 0.027 9.691 0.011 9.806 -0 9.922 -0 10.042 L-0 23.357 C-0 24.76 1.132 25.898 2.527 25.898 3.923 25.898 5.055 24.76 5.055 23.357 L5.055 18.593 C6.441 19.36 8.032 19.799 9.723 19.799 15.074 19.799 19.428 15.422 19.428 10.042 19.428 4.661 15.074 0.285 9.723 0.285" fill="#0086ff" fill-opacity="1" stroke="none"/>
 </g>
</svg>
