<svg width="187" height="40" viewBox="0 0 187 40" fill="none" xmlns="http://www.w3.org/2000/svg">
<path d="M53.2043 13.8658L53.4432 13.8848L53.6725 13.9132L53.897 13.9464L54.1168 13.9891L54.3222 14.0413L54.5277 14.0982L54.7188 14.1646L54.9051 14.2404L55.0866 14.3258L55.2586 14.4206L55.4258 14.525L55.5835 14.6341L55.7316 14.7574L55.8749 14.8854L56.0039 15.0229L56.1281 15.1605L56.2428 15.3075L56.3431 15.4592L56.4387 15.6157L56.5199 15.7817L56.5915 15.9524L56.6584 16.1326L56.711 16.3223L56.754 16.5168L56.7874 16.7207L56.8113 16.9341L56.8256 17.1523L56.8304 17.3846L56.8256 17.617L56.8113 17.8352L56.7874 18.0486L56.754 18.2525L56.711 18.4469L56.6584 18.6366L56.5915 18.8121L56.5199 18.9876L56.4387 19.1488L56.3431 19.31L56.2428 19.4618L56.1281 19.6088L56.0039 19.7463L55.8749 19.8791L55.7316 20.0119L55.5835 20.1305L55.4258 20.2443L55.2586 20.3486L55.0866 20.4435L54.9051 20.5288L54.7188 20.6047L54.5277 20.6711L54.3222 20.728L54.1168 20.7802L53.897 20.8229L53.6725 20.8561L53.4432 20.8845L53.2043 20.9035L52.9606 20.913L52.7074 20.9177H50.4142V24.631V24.6452V24.6642V24.6831V24.7021L50.4095 24.7211V24.7353L50.4047 24.7543L50.3999 24.7733L50.3951 24.7922L50.3856 24.8112L50.376 24.8302L50.3665 24.8444L50.3521 24.8634L50.3378 24.8823L50.3235 24.9013L50.3044 24.9155L50.2805 24.9298L50.2566 24.944L50.2327 24.9535L50.2088 24.9629L50.1801 24.9724L50.1515 24.9772L50.1228 24.9819L50.0989 24.9867H50.0703L50.0464 24.9914H50.0177H49.9986H49.9747H49.9556H48.3981H48.379L48.3599 24.9867L48.3408 24.9819L48.3217 24.9724L48.3026 24.9629L48.2883 24.9535L48.2691 24.9392L48.25 24.9298L48.2309 24.9108L48.2118 24.8966L48.1927 24.8823L48.1784 24.8634L48.1593 24.8444L48.1402 24.8302L48.121 24.8112L48.1019 24.7922L48.0876 24.7733L48.078 24.7543L48.0637 24.7353L48.0589 24.7211L48.0494 24.7021L48.0446 24.6831L48.0398 24.6642L48.0351 24.6452V24.631L48.0303 24.612V24.593V24.5741V24.5551V24.5361V14.2167V14.1978V14.1788V14.1598V14.1408L48.0351 14.1219V14.1077L48.0398 14.0887L48.0446 14.0697L48.0494 14.0507L48.0589 14.0318L48.0637 14.0175L48.078 13.9986L48.0876 13.9796L48.1019 13.9606L48.121 13.9417L48.1402 13.9274L48.1593 13.9132L48.1784 13.899L48.1927 13.8895L48.2118 13.88L48.2309 13.8705L48.25 13.8658L48.2691 13.861L48.2883 13.8563H48.3026H48.3217L48.3408 13.8516H48.3599H48.379H48.3981H52.7074L52.9606 13.8563L53.2043 13.8658ZM50.4142 19.1061H52.7074L53.1183 19.0302L53.4671 18.9449L53.7633 18.8548L53.9974 18.7552L54.1741 18.6508L54.3604 18.4659L54.4942 18.243L54.5754 17.9869L54.6184 17.6976L54.6328 17.3846L54.6089 17.0716L54.5515 16.7824L54.4512 16.5215L54.327 16.2986L54.1741 16.1184L53.9782 15.9667L53.725 15.8386L53.4193 15.7438L53.0801 15.6821L52.7074 15.6631H50.4142V19.1061Z" fill="black"/>
<path d="M58.4828 24.536C58.4828 23.7867 58.4828 17.7734 58.4828 17.0241C58.4828 16.9293 58.4828 16.8391 58.5736 16.749C58.6643 16.6589 58.7551 16.6589 58.8507 16.6589C58.9796 16.6589 60.0068 16.6589 60.131 16.6589C60.2266 16.6589 60.3173 16.6589 60.4081 16.749C60.4989 16.8391 60.4989 16.9293 60.4989 17.0241C60.4989 17.0952 60.4989 17.6738 60.4989 17.7449C61.0483 17.0241 61.784 16.6589 62.7921 16.6589C62.8542 16.6589 63.3701 16.6589 63.4323 16.6589C63.5278 16.6589 63.6186 16.6589 63.7094 16.749C63.8001 16.8391 63.8001 16.9293 63.8001 17.0241C63.8001 17.1379 63.8001 18.0816 63.8001 18.2002C63.8001 18.2903 63.8001 18.3804 63.7094 18.4705C63.6186 18.5606 63.5278 18.5606 63.4323 18.5606C63.3224 18.5606 62.4433 18.5606 62.3334 18.5606C61.784 18.5606 61.4162 18.7408 61.1438 19.0159C60.8668 19.2862 60.6852 19.7367 60.6852 20.192C60.6852 20.6283 60.6852 24.1045 60.6852 24.536C60.6852 24.6309 60.6852 24.721 60.5897 24.8111C60.4989 24.9012 60.4081 24.9913 60.3173 24.9913C60.1692 24.9913 58.994 24.9913 58.8507 24.9913C58.7551 24.9913 58.6643 24.9012 58.5736 24.8111C58.4828 24.721 58.4828 24.6309 58.4828 24.536Z" fill="black"/>
<path d="M69.4755 16.5118L69.7764 16.5593L70.0679 16.6162L70.345 16.692L70.6173 16.7869L70.8753 16.896L71.1189 17.0193L71.353 17.1568L71.5728 17.3086L71.7782 17.4745L71.9693 17.6547L72.1413 17.8444L72.2942 18.0531L72.4327 18.2713L72.5522 18.4989L72.6525 18.7408L72.7337 18.9921L72.7958 19.2529L72.8436 19.528L72.8675 19.8078L72.877 20.1018V21.5482L72.8484 21.8423L72.8006 22.1221L72.7433 22.3971L72.6716 22.658L72.5808 22.9093L72.4805 23.1512L72.3706 23.3788L72.2416 23.5969L72.1031 23.8056L71.9454 23.9953L71.7782 24.1755L71.5728 24.3415L71.3578 24.4933L71.1333 24.6308L70.8944 24.7541L70.6459 24.8632L70.3832 24.958L70.1061 25.0339L69.8147 25.0908L69.5089 25.1382L69.184 25.1619L68.8448 25.1714L68.5009 25.143L68.1808 25.105L67.8702 25.0529L67.5788 24.9912L67.3017 24.9201L67.0389 24.8347L66.7905 24.7304L66.5564 24.6166L66.3271 24.4885L66.1121 24.3415L65.9115 24.1755L65.7204 23.9953L65.5436 23.8056L65.3907 23.5969L65.2569 23.3788L65.1375 23.1512L65.0372 22.9093L64.956 22.658L64.8891 22.3971L64.8461 22.1221L64.8174 21.8423L64.8079 21.5482V20.1018L64.8413 19.8078L64.8843 19.528L64.9464 19.2529L65.0181 18.9921L65.1041 18.7408L65.2044 18.4989L65.319 18.2713L65.448 18.0531L65.5866 17.8444L65.7395 17.6547L65.9115 17.4745L66.1121 17.3086L66.3271 17.1568L66.5564 17.0193L66.7905 16.896L67.0389 16.7869L67.3017 16.692L67.5788 16.6162L67.8702 16.5593L68.1808 16.5118L68.5009 16.4881L68.8448 16.4786L69.1649 16.4881L69.4755 16.5118ZM68.3289 18.1669L68.0995 18.2428L67.8941 18.3519L67.7126 18.4847L67.5597 18.6506L67.4307 18.8498L67.3208 19.0727L67.2253 19.3193L67.1584 19.5896L67.1154 19.8837L67.1011 20.1919V21.4581L67.1154 21.7996L67.1584 22.0984L67.2253 22.3639L67.3208 22.601L67.4307 22.8097L67.5597 22.9994L67.7126 23.1654L67.8941 23.2982L68.0995 23.4073L68.3289 23.4831L68.5773 23.5258L68.8448 23.54L69.1124 23.5258L69.3608 23.4831L69.5901 23.4073L69.7956 23.2982L69.9771 23.1654L70.1252 22.9994L70.259 22.805L70.3689 22.5773L70.4596 22.3307L70.5265 22.0604L70.5695 21.7664L70.5838 21.4581V20.1919L70.5695 19.8505L70.5265 19.5517L70.4596 19.2861L70.3689 19.049L70.259 18.8403L70.1252 18.6506L69.9771 18.4847L69.7956 18.3519L69.5901 18.2428L69.3608 18.1669L69.1124 18.1242L68.8448 18.11L68.5773 18.1242L68.3289 18.1669Z" fill="black"/>
<path d="M74.3434 21.4581C74.3434 21.4155 74.3434 21.2068 74.3434 20.8274C74.3434 20.4433 74.3434 20.2346 74.3434 20.1919C74.3434 19.0158 74.802 18.11 75.447 17.4745C76.1779 16.8391 77.0952 16.4786 78.2896 16.4786C79.1113 16.4786 79.8471 16.6588 80.3965 16.9292C80.9459 17.2042 81.4045 17.5646 81.6816 18.0199C81.9539 18.4704 82.1402 18.8309 82.1402 19.2861C82.1402 19.3762 82.1402 19.4663 82.0495 19.5564C81.9539 19.6465 81.8631 19.6465 81.7724 19.6465C81.6243 19.6465 80.4538 19.6465 80.3057 19.6465C80.2149 19.6465 80.1241 19.6465 80.0286 19.5564C79.9378 19.4663 79.9378 19.4663 79.847 19.2861C79.6655 18.9257 79.4792 18.5605 79.2069 18.3803C78.9298 18.2001 78.5619 18.11 78.1988 18.11C77.6446 18.11 77.186 18.2902 76.9137 18.6506C76.6366 19.0158 76.455 19.4663 76.455 20.1919C76.455 20.2346 76.455 20.4433 76.455 20.8274C76.455 21.1499 76.455 21.3301 76.455 21.368C76.5458 22.7291 77.0952 23.4499 78.1988 23.4499C78.6527 23.4499 78.9298 23.3598 79.2069 23.1796C79.4792 22.9994 79.6655 22.7291 79.847 22.2738C79.847 22.1837 79.9378 22.0936 80.0286 22.0035C80.1241 21.9134 80.2149 21.9134 80.3057 21.9134C80.4538 21.9134 81.6243 21.9134 81.7724 21.9134C81.8631 21.9134 81.9539 21.9134 82.0495 22.0035C82.1402 22.0936 82.1402 22.1837 82.1402 22.2738C82.1402 22.6342 81.9539 23.0895 81.6816 23.4499C81.4045 23.9052 80.9459 24.2656 80.3965 24.5359C79.8471 24.811 79.1113 24.9912 78.1988 24.9912C77.0952 25.0813 76.1779 24.811 75.447 24.1755C74.7113 23.54 74.3434 22.6342 74.3434 21.4581Z" fill="black"/>
<path d="M83.8837 21.5482C83.8837 21.1072 83.8837 17.5552 83.8837 17.1141C83.8837 17.024 83.8837 16.9292 83.9744 16.8391C84.0652 16.749 84.156 16.749 84.2468 16.749C84.3949 16.749 85.5701 16.749 85.7134 16.749C85.809 16.749 85.8998 16.749 85.9905 16.8391C86.0813 16.9292 86.0813 17.024 86.0813 17.1141C86.0813 17.5457 86.0813 21.0266 86.0813 21.4581C86.0813 22.7291 86.6307 23.4499 87.8251 23.4499C88.3745 23.4499 88.8331 23.2697 89.201 22.9093C89.5689 22.5441 89.6597 22.0936 89.6597 21.4581C89.6597 21.0266 89.6597 17.5457 89.6597 17.1141C89.6597 17.024 89.6596 16.9292 89.7504 16.8391C89.8412 16.749 89.932 16.749 90.0227 16.749C90.1708 16.749 91.3461 16.749 91.4942 16.749C91.585 16.749 91.6757 16.749 91.7665 16.8391C91.8573 16.9292 91.8573 17.024 91.8573 17.1141C91.8573 17.8634 91.8573 23.8768 91.8573 24.6308C91.8573 24.7209 91.8573 24.811 91.7665 24.9011C91.6757 24.9912 91.585 24.9912 91.4942 24.9912C91.3557 24.9912 90.2521 24.9912 90.1183 24.9912C90.0227 24.9912 89.932 24.9912 89.8412 24.9011C89.7504 24.811 89.7504 24.7209 89.7504 24.6308C89.7504 24.5644 89.7504 24.057 89.7504 23.9953C89.201 24.811 88.2837 25.1714 87.0894 25.1714C85.9905 25.0813 85.2548 24.811 84.7054 24.1755C84.156 23.54 83.8837 22.6342 83.8837 21.5482Z" fill="black"/>
<path d="M93.9685 24.536C93.9685 23.7867 93.9685 17.7734 93.9685 17.0241C93.9685 16.9293 93.9685 16.8391 94.0593 16.749C94.1501 16.6589 94.2408 16.6589 94.3364 16.6589C94.4606 16.6589 95.4878 16.6589 95.6167 16.6589C95.7075 16.6589 95.8031 16.6589 95.8938 16.749C95.9846 16.8391 95.9846 16.9293 95.9846 17.0241C95.9846 17.0952 95.9846 17.6738 95.9846 17.7449C96.534 17.0241 97.2697 16.6589 98.2778 16.6589C98.3399 16.6589 98.8559 16.6589 98.918 16.6589C99.0088 16.6589 99.1043 16.6589 99.1951 16.749C99.2858 16.8391 99.2858 16.9293 99.2858 17.0241C99.2858 17.1379 99.2858 18.0816 99.2858 18.2002C99.2858 18.2903 99.2858 18.3804 99.1951 18.4705C99.1043 18.5606 99.1951 18.6507 99.0088 18.6507C98.8845 18.6507 97.8574 18.6507 97.7284 18.6507C97.179 18.6507 96.8111 18.8309 96.534 19.106C96.2617 19.3763 96.0754 19.8268 96.0754 20.2821C96.0754 20.7184 96.0754 24.1946 96.0754 24.6309C96.0754 24.721 96.0754 24.8111 95.9846 24.9012C95.8938 24.9913 95.8031 24.9913 95.7075 24.9913C95.5642 24.9913 94.3889 24.9913 94.2408 24.9913C94.2408 24.9913 94.1501 24.9012 94.0593 24.8111C93.9685 24.721 93.9685 24.6309 93.9685 24.536Z" fill="black"/>
<path d="M104.799 16.4976L105.023 16.5166L105.238 16.5498L105.449 16.5877L105.654 16.6351L105.85 16.692L106.036 16.7632L106.218 16.8391L106.39 16.9244L106.557 17.0193L106.715 17.1283L106.863 17.2422L107.006 17.3702L107.14 17.5077L107.264 17.6547L107.398 17.797L107.517 17.944L107.627 18.1005L107.732 18.2618L107.823 18.4372L107.904 18.6127L107.981 18.7977L108.043 18.9921L108.1 19.1913L108.148 19.3952L108.186 19.6039L108.22 19.822L108.243 20.0402L108.258 20.2678L108.267 20.5002L108.272 20.7325V21.0977V21.1119V21.1309V21.1499V21.1641L108.267 21.1831V21.1973L108.263 21.2163V21.2305L108.258 21.2495L108.248 21.2684L108.243 21.2827L108.234 21.3016L108.224 21.3159L108.21 21.3348L108.196 21.3538L108.181 21.368L108.162 21.3823L108.148 21.3965L108.129 21.4107L108.11 21.4202L108.095 21.4297L108.076 21.4392L108.062 21.4439L108.043 21.4486L108.024 21.4534H108.009L107.99 21.4581H107.976H107.957H107.938H107.923H107.904H102.587V21.5482V21.6668L102.596 21.7806L102.606 21.8897L102.62 21.994L102.639 22.0936L102.659 22.1932L102.682 22.2833L102.711 22.3782L102.745 22.4635L102.778 22.5489L102.816 22.6295L102.859 22.7101L102.902 22.786L102.945 22.8571L102.993 22.9283L103.046 22.9994L103.098 23.0658L103.155 23.1274L103.218 23.1844L103.284 23.2365L103.356 23.2839L103.428 23.3314L103.504 23.3693L103.585 23.4072L103.667 23.4357L103.753 23.4642L103.843 23.4879L103.934 23.5068L104.03 23.5211L104.125 23.5353L104.226 23.54H104.331H104.445L104.56 23.5306L104.67 23.5116L104.78 23.4926L104.88 23.4642L104.98 23.431L105.076 23.393L105.167 23.3503L105.253 23.2982L105.339 23.246L105.425 23.1844L105.501 23.1227L105.578 23.0516L105.654 22.9804L105.726 22.8998L105.797 22.8192L105.979 22.6342H107.632H107.646H107.665L107.68 22.639H107.699H107.718H107.732L107.751 22.6437L107.766 22.6485L107.785 22.6532L107.804 22.658L107.818 22.6674L107.837 22.6722L107.852 22.6864L107.871 22.6959L107.89 22.7101L107.904 22.7291L107.923 22.7433L107.938 22.7575L107.947 22.7718L107.957 22.7813L107.966 22.7907L107.976 22.8002L107.981 22.8097L107.985 22.8192L107.99 22.8239V22.8334L107.995 22.8429V22.8524V22.8666V22.8761V22.8903V22.9093V22.9567L107.99 23.0089L107.976 23.0611L107.966 23.1132L107.947 23.1654L107.923 23.2176L107.899 23.2745L107.871 23.3266L107.837 23.3835L107.804 23.4404L107.766 23.4974L107.727 23.559L107.684 23.6207L107.637 23.6823L107.589 23.7487L107.536 23.8151L107.484 23.8815L107.426 23.9431L107.364 24.0095L107.298 24.0712L107.231 24.1281L107.154 24.1897L107.078 24.2466L107.001 24.2988L106.915 24.3557L106.829 24.4079L106.739 24.4601L106.648 24.5122L106.552 24.5644L106.457 24.6166L106.356 24.6687L106.256 24.7209L106.151 24.7683L106.046 24.811L105.936 24.8537L105.821 24.8916L105.711 24.9248L105.592 24.9533L105.472 24.977L105.348 25.0007L105.224 25.0197L105.095 25.0386L104.961 25.0529L104.823 25.0623L104.684 25.0718L104.541 25.0766L104.388 25.0813H104.235L104.015 25.0766L103.8 25.0671L103.585 25.0529L103.38 25.0291L103.179 24.9959L102.983 24.958L102.792 24.9106L102.611 24.8537L102.434 24.792L102.262 24.7209L102.1 24.6355L101.942 24.5454L101.794 24.4458L101.651 24.3368L101.522 24.2135L101.393 24.0854L101.264 23.9479L101.139 23.8056L101.02 23.6586L100.915 23.5068L100.814 23.3456L100.724 23.1844L100.642 23.0136L100.571 22.8382L100.504 22.658L100.451 22.4683L100.404 22.2738L100.365 22.0746L100.332 21.8612L100.313 21.6478L100.298 21.4202L100.294 21.1878V20.8274L100.298 20.5761L100.313 20.3342L100.332 20.0971L100.365 19.8694L100.404 19.6513L100.451 19.4379L100.504 19.234L100.571 19.0348L100.642 18.8451L100.724 18.6601L100.814 18.4799L100.915 18.3045L101.02 18.1337L101.139 17.9677L101.264 17.8112L101.393 17.6547L101.536 17.522L101.679 17.3987L101.827 17.2801L101.98 17.1663L102.143 17.0619L102.305 16.9624L102.477 16.877L102.654 16.7964L102.84 16.7252L103.031 16.6588L103.227 16.6067L103.433 16.5593L103.643 16.5261L103.862 16.4976L104.092 16.4834L104.331 16.4786L104.565 16.4834L104.799 16.4976ZM103.495 18.1527L103.194 18.3234L102.955 18.5605L102.764 18.8641L102.62 19.2292L102.53 19.6418L102.496 20.1018H105.979L105.883 19.5612L105.773 19.1249L105.654 18.7929L105.52 18.5605L105.281 18.3234L104.98 18.1527L104.632 18.0531L104.235 18.0199L103.843 18.0531L103.495 18.1527Z" fill="black"/>
<path d="M109.92 24.5356C109.92 23.7864 109.92 17.7733 109.92 17.024C109.92 16.9291 109.92 16.839 110.016 16.7489C110.106 16.6588 110.197 16.6588 110.288 16.6588C110.417 16.6588 111.444 16.6588 111.573 16.6588C111.664 16.6588 111.755 16.6588 111.85 16.7489C111.941 16.839 111.941 16.9291 111.941 17.024C111.941 17.0762 111.941 17.5124 111.941 17.5646C112.49 16.839 113.317 16.4786 114.234 16.4786C115.423 16.4786 116.25 16.9291 116.709 17.925C116.981 17.4745 117.349 17.2042 117.807 16.9291C118.266 16.6588 118.815 16.5687 119.365 16.5687C120.282 16.5687 120.927 16.839 121.567 17.4745C122.116 18.11 122.394 18.9256 122.394 20.1017C122.394 20.5522 122.394 24.1752 122.394 24.6305C122.394 24.7206 122.394 24.8107 122.303 24.9008C122.207 24.9909 122.116 24.9909 122.026 24.9909C121.887 24.9909 120.788 24.9909 120.65 24.9909C120.559 24.9909 120.468 24.9909 120.378 24.9008C120.282 24.8107 120.282 24.7206 120.282 24.6305C120.282 24.1847 120.282 20.6328 120.282 20.1918C120.282 19.5563 120.1 19.0157 119.823 18.7407C119.551 18.4704 119.183 18.2902 118.725 18.2902C118.266 18.2902 117.994 18.4704 117.626 18.7407C117.349 19.0157 117.167 19.5563 117.167 20.1918C117.167 20.6328 117.167 24.1847 117.167 24.6305C117.167 24.7206 117.167 24.8107 117.076 24.9008C116.981 24.9909 116.89 24.9909 116.799 24.9909C116.67 24.9909 115.643 24.9909 115.514 24.9909C115.423 24.9909 115.333 24.9909 115.242 24.9008C115.151 24.8107 115.151 24.7206 115.151 24.6305C115.151 24.1847 115.151 20.6328 115.151 20.1918C115.151 19.5563 114.965 19.0157 114.693 18.7407C114.415 18.4704 114.048 18.2902 113.589 18.2902C113.13 18.2902 112.858 18.4704 112.49 18.7407C112.213 19.0157 112.032 19.5563 112.032 20.1918C112.032 20.6328 112.032 24.1847 112.032 24.6305C112.032 24.7206 112.032 24.8107 111.941 24.9008C111.85 24.9909 111.755 24.9909 111.664 24.9909C111.525 24.9909 110.426 24.9909 110.288 24.9909C110.197 24.9909 110.106 24.9008 110.016 24.8107C109.92 24.7206 109.92 24.6305 109.92 24.5356Z" fill="black"/>
<path d="M128.666 16.4976L128.905 16.5213L129.135 16.5593L129.359 16.6019L129.574 16.6588L129.78 16.7252L129.975 16.8011L130.162 16.8912L130.343 16.9861L130.515 17.0999L130.678 17.2184L130.826 17.3512L130.969 17.4982L131.103 17.6547L131.246 17.8065L131.375 17.963L131.49 18.1337L131.595 18.3092L131.691 18.4941L131.777 18.6886L131.848 18.8878L131.915 19.0964L131.968 19.3098L132.015 19.5327L132.049 19.7604L132.078 19.9975L132.097 20.2393L132.111 20.4812V20.7325V21.0977V21.1167V21.1309V21.1499V21.1688V21.1878L132.106 21.2068L132.101 21.2258L132.097 21.24L132.092 21.259L132.087 21.2779L132.078 21.2969L132.063 21.3159L132.054 21.3301L132.039 21.3491L132.02 21.368L132.001 21.387L131.982 21.4012L131.968 21.4107L131.949 21.4249L131.929 21.4344L131.91 21.4392L131.891 21.4439L131.872 21.4486L131.858 21.4534H131.839L131.82 21.4581H131.8H131.781H131.762H131.748H126.426V21.5482L126.431 21.6763L126.435 21.7948L126.45 21.9087L126.464 22.0177L126.483 22.1268L126.512 22.2311L126.536 22.326L126.569 22.4208L126.607 22.5157L126.646 22.601L126.689 22.6864L126.732 22.7718L126.779 22.8476L126.832 22.9235L126.884 22.9994L126.942 23.0705L127.004 23.1322L127.071 23.1938L127.142 23.2508L127.219 23.2982L127.3 23.3456L127.381 23.3883L127.467 23.4215L127.558 23.4547L127.654 23.4831L127.749 23.5021L127.849 23.5211L127.955 23.5306L128.06 23.54H128.17H128.294L128.418 23.5258L128.533 23.5116L128.647 23.4879L128.752 23.4547L128.858 23.4167L128.958 23.3741L129.053 23.3219L129.149 23.2697L129.235 23.2081L129.321 23.1369L129.407 23.0658L129.483 22.9899L129.56 22.9046L129.636 22.8192L129.818 22.6342H131.471H131.49H131.509L131.523 22.639H131.542H131.562L131.581 22.6437H131.6L131.619 22.6485L131.638 22.658L131.652 22.6627L131.671 22.6722L131.691 22.6817L131.71 22.6959L131.729 22.7101L131.748 22.7291L131.762 22.7433L131.777 22.7575L131.791 22.7718L131.8 22.7813L131.81 22.7955L131.82 22.805L131.824 22.8145L131.829 22.8239L131.834 22.8334V22.8429V22.8524L131.839 22.8619V22.8761V22.8903V22.9093L131.834 22.9615L131.829 23.0184L131.815 23.0705L131.8 23.1274L131.781 23.1844L131.757 23.2413L131.729 23.2982L131.695 23.3551L131.657 23.4167L131.619 23.4784L131.576 23.54L131.533 23.6064L131.485 23.6728L131.433 23.744L131.38 23.8151L131.323 23.8862L131.261 23.9526L131.194 24.019L131.122 24.0854L131.046 24.1471L130.964 24.2087L130.883 24.2704L130.797 24.3273L130.706 24.3889L130.611 24.4458L130.515 24.498L130.415 24.5549L130.31 24.6118L130.205 24.664L130.095 24.7209L129.985 24.7731L129.87 24.8205L129.756 24.8632L129.631 24.9011L129.512 24.9343L129.383 24.9627L129.254 24.9912L129.125 25.0149L128.987 25.0339L128.843 25.0481L128.7 25.0623L128.552 25.0718L128.399 25.0766L128.241 25.0813H128.079L127.845 25.0766L127.615 25.0671L127.396 25.0481L127.181 25.0197L126.975 24.9865L126.775 24.939L126.579 24.8869L126.392 24.8205L126.211 24.7493L126.034 24.664L125.862 24.5739L125.7 24.4648L125.537 24.351L125.384 24.2229L125.236 24.0854L125.093 23.9384L124.959 23.7866L124.84 23.6254L124.725 23.4642L124.625 23.2934L124.529 23.118L124.448 22.933L124.376 22.7433L124.309 22.5441L124.257 22.3402L124.214 22.1268L124.18 21.9039L124.156 21.6763L124.142 21.4344L124.133 21.1878V20.8274L124.142 20.5571L124.156 20.301L124.18 20.0544L124.214 19.8125L124.257 19.5802L124.309 19.3573L124.376 19.1439L124.448 18.9352L124.529 18.7313L124.625 18.5368L124.725 18.3519L124.84 18.1669L124.959 17.9915L125.093 17.8207L125.236 17.6547L125.384 17.5125L125.537 17.3797L125.7 17.2564L125.867 17.1378L126.039 17.0288L126.216 16.9292L126.402 16.8391L126.593 16.7537L126.794 16.6826L126.999 16.6209L127.219 16.5735L127.443 16.5308L127.677 16.5023L127.916 16.4834L128.17 16.4786L128.423 16.4834L128.666 16.4976ZM127.333 18.1527L127.033 18.3234L126.794 18.5605L126.607 18.8641L126.464 19.2292L126.368 19.6418L126.335 20.1018H129.818L129.722 19.5612L129.612 19.1249L129.493 18.7929L129.364 18.5605L129.12 18.3234L128.824 18.1527L128.471 18.0531L128.079 18.0199L127.682 18.0531L127.333 18.1527Z" fill="black"/>
<path d="M133.764 24.536C133.764 23.7867 133.764 17.7734 133.764 17.0241C133.764 16.9293 133.764 16.8392 133.854 16.7491C133.945 16.659 134.036 16.659 134.132 16.659C134.265 16.659 135.369 16.659 135.503 16.659C135.598 16.659 135.689 16.659 135.78 16.7491C135.871 16.8392 135.871 16.9293 135.871 17.0241C135.871 17.0953 135.871 17.6738 135.871 17.745C136.516 16.9293 137.433 16.5688 138.532 16.5688C139.54 16.5688 140.275 16.9293 140.916 17.5647C141.556 18.2002 141.833 19.106 141.833 20.192C141.833 20.6331 141.833 24.1851 141.833 24.6309C141.833 24.721 141.833 24.8111 141.742 24.9012C141.647 24.9913 141.556 24.9913 141.465 24.9913C141.317 24.9913 140.146 24.9913 139.998 24.9913C139.908 24.9913 139.817 24.9913 139.721 24.9012C139.63 24.8111 139.63 24.721 139.63 24.6309C139.63 24.1946 139.63 20.7184 139.63 20.2821C139.63 19.6467 139.449 19.1961 139.172 18.831C138.899 18.4705 138.441 18.2903 137.891 18.2903C137.337 18.2903 136.879 18.4705 136.606 18.831C136.238 19.1961 136.148 19.6467 136.148 20.2821C136.148 20.7184 136.148 24.1946 136.148 24.6309C136.148 24.721 136.148 24.8111 136.057 24.9012C135.961 24.9913 135.871 24.9913 135.78 24.9913C135.632 24.9913 134.461 24.9913 134.313 24.9913C134.036 24.9913 133.945 24.9012 133.854 24.8111C133.764 24.721 133.764 24.6309 133.764 24.536Z" fill="black"/>
<path d="M144.584 21.9136C144.584 21.6717 144.584 20.4624 144.584 18.2904C143.81 18.2904 143.385 18.2904 143.299 18.2904C143.208 18.2904 143.117 18.2904 143.022 18.2003C142.931 18.1102 142.931 18.0201 142.931 17.9252C142.931 17.8351 142.931 17.1143 142.931 17.0242C142.931 16.9293 142.931 16.8392 143.022 16.7491C143.117 16.659 143.208 16.659 143.299 16.659C143.385 16.659 143.81 16.659 144.584 16.659C144.584 15.0846 144.584 14.2072 144.584 14.0317C144.584 13.9416 144.584 13.8515 144.675 13.7614C144.766 13.6713 144.856 13.6713 144.947 13.6713C145.086 13.6713 146.189 13.6713 146.323 13.6713C146.419 13.6713 146.509 13.6713 146.6 13.7614C146.691 13.8515 146.691 13.9416 146.691 14.0317C146.691 14.2072 146.691 15.0846 146.691 16.659C147.9 16.659 148.573 16.659 148.707 16.659C148.803 16.659 148.893 16.659 148.984 16.7491C149.075 16.8392 149.075 16.9293 149.075 17.0242C149.075 17.1143 149.075 17.8351 149.075 17.9252C149.075 18.0201 149.075 18.1102 148.984 18.2003C148.893 18.2904 148.803 18.2904 148.707 18.2904C148.573 18.2904 147.9 18.2904 146.691 18.2904C146.691 20.3533 146.691 21.501 146.691 21.7286C146.691 22.1839 146.782 22.5443 146.968 22.7293C147.15 22.9095 147.427 23.0897 147.79 23.0897C147.9 23.0897 148.784 23.0897 148.893 23.0897C148.984 23.0897 149.075 23.0897 149.166 23.1798C149.261 23.2699 149.261 23.36 149.261 23.4501C149.261 23.5497 149.261 24.3464 149.261 24.446C149.261 24.5361 149.261 24.631 149.166 24.7211C149.075 24.8112 148.984 24.8112 148.893 24.8112C148.764 24.8112 147.737 24.8112 147.608 24.8112C146.6 24.9914 145.865 24.7211 145.315 24.1757C144.856 23.6303 144.584 22.9095 144.584 21.9136Z" fill="black"/>
<path d="M152.189 24.5361C152.189 23.507 152.189 15.2458 152.189 14.2167C152.189 14.1219 152.189 14.0318 152.28 13.9417C152.371 13.8516 152.462 13.8516 152.557 13.8516C153.25 13.8516 158.825 13.8516 159.523 13.8516C159.614 13.8516 159.709 13.8516 159.8 13.9417C159.891 14.0318 159.891 14.1219 159.891 14.2167C159.891 14.3305 159.891 15.2743 159.891 15.3928C159.891 15.4829 159.891 15.573 159.8 15.6631C159.709 15.7533 159.614 15.7533 159.523 15.7533C159.184 15.7533 157.469 15.7533 154.387 15.7533V18.741C157.306 18.741 158.926 18.741 159.251 18.741C159.341 18.741 159.432 18.7409 159.523 18.8311C159.614 18.9259 159.614 19.016 159.614 19.1061C159.614 19.2247 159.614 20.1637 159.614 20.2822C159.614 20.3723 159.614 20.4624 159.523 20.5525C159.432 20.6426 159.341 20.6426 159.251 20.6426C158.926 20.6426 157.306 20.6426 154.387 20.6426C154.387 22.9806 154.387 24.28 154.387 24.5361C154.387 24.631 154.387 24.7211 154.296 24.8112C154.206 24.9013 154.115 24.9013 154.024 24.9013C153.876 24.9013 152.701 24.9013 152.557 24.9013C152.462 24.9914 152.371 24.9013 152.28 24.8112C152.189 24.7211 152.189 24.631 152.189 24.5361Z" fill="black"/>
<path d="M161.725 24.5361C161.725 23.488 161.725 15.0846 161.725 14.0317C161.725 13.9416 161.725 13.8515 161.816 13.7614C161.906 13.6713 161.997 13.6713 162.093 13.6713C162.226 13.6713 163.33 13.6713 163.469 13.6713C163.559 13.6713 163.65 13.6713 163.741 13.7614C163.832 13.8515 163.832 13.9416 163.832 14.0317C163.832 15.0846 163.832 23.488 163.832 24.5361C163.832 24.631 163.832 24.7211 163.741 24.8112C163.65 24.9013 163.559 24.9013 163.469 24.9013C163.33 24.9013 162.226 24.9013 162.093 24.9013C161.997 24.9914 161.906 24.9013 161.816 24.8112C161.725 24.7211 161.725 24.631 161.725 24.5361Z" fill="black"/>
<path d="M170.334 16.5118L170.635 16.5593L170.926 16.6162L171.203 16.692L171.476 16.7869L171.729 16.896L171.977 17.0193L172.211 17.1568L172.431 17.3086L172.637 17.4745L172.828 17.6547L173 17.8444L173.153 18.0531L173.291 18.2713L173.411 18.4989L173.511 18.7408L173.592 18.9921L173.654 19.2529L173.702 19.528L173.726 19.8078L173.735 20.1018V21.5482L173.707 21.8423L173.659 22.1221L173.602 22.3971L173.525 22.658L173.439 22.9093L173.339 23.1512L173.229 23.3788L173.1 23.5969L172.957 23.8056L172.804 23.9953L172.637 24.1755L172.431 24.3415L172.216 24.4933L171.992 24.6308L171.753 24.7541L171.504 24.8632L171.242 24.958L170.964 25.0339L170.673 25.0908L170.367 25.1382L170.042 25.1619L169.703 25.1714L169.359 25.143L169.039 25.105L168.729 25.0529L168.437 24.9912L168.16 24.9201L167.897 24.8347L167.649 24.7304L167.41 24.6166L167.185 24.4885L166.971 24.3415L166.77 24.1755L166.579 23.9953L166.402 23.8056L166.249 23.5969L166.111 23.3788L165.996 23.1512L165.896 22.9093L165.814 22.658L165.747 22.3971L165.704 22.1221L165.676 21.8423L165.666 21.5482V20.1018L165.7 19.8078L165.743 19.528L165.805 19.2529L165.876 18.9921L165.962 18.7408L166.063 18.4989L166.177 18.2713L166.302 18.0531L166.445 17.8444L166.598 17.6547L166.77 17.4745L166.971 17.3086L167.185 17.1568L167.41 17.0193L167.649 16.896L167.897 16.7869L168.16 16.692L168.437 16.6162L168.729 16.5593L169.039 16.5118L169.359 16.4881L169.703 16.4786L170.023 16.4881L170.334 16.5118ZM169.278 18.1669L169.049 18.2428L168.843 18.3519L168.662 18.4847L168.509 18.6506L168.38 18.8498L168.27 19.0727L168.179 19.3193L168.108 19.5896L168.065 19.8837L168.05 20.1919V21.4581L168.065 21.7996L168.108 22.0984L168.179 22.3639L168.27 22.601L168.38 22.8097L168.509 22.9994L168.662 23.1654L168.843 23.2982L169.049 23.4073L169.278 23.4831L169.526 23.5258L169.794 23.54L170.052 23.5258L170.291 23.4831L170.506 23.4073L170.702 23.2982L170.893 23.1654L171.079 22.9994L171.208 22.805L171.318 22.5773L171.409 22.3307L171.476 22.0604L171.519 21.7664L171.538 21.4581V20.1919L171.519 19.8505L171.476 19.5517L171.409 19.2861L171.318 19.049L171.208 18.8403L171.079 18.6506L170.926 18.4847L170.745 18.3519L170.539 18.2428L170.31 18.1669L170.062 18.1242L169.794 18.11L169.526 18.1242L169.278 18.1669Z" fill="black"/>
<path d="M174.743 17.1142C174.743 17.1142 174.743 17.0241 174.743 16.9293C174.743 16.8392 174.743 16.7491 174.839 16.659C174.929 16.5688 175.02 16.5688 175.111 16.5688C175.23 16.5688 176.186 16.5688 176.305 16.5688C176.396 16.5688 176.487 16.5688 176.578 16.659C176.668 16.7491 176.668 16.7491 176.764 16.8392C176.864 17.1901 177.385 18.9399 178.321 22.0935C179.31 18.9968 179.86 17.2754 179.97 16.9293C179.97 16.8392 180.065 16.7491 180.156 16.659C180.247 16.5688 180.337 16.5688 180.428 16.5688C180.514 16.5688 181.173 16.5688 181.255 16.5688C181.345 16.5688 181.532 16.5688 181.532 16.659C181.532 16.7491 181.622 16.8392 181.713 16.9293C181.823 17.2754 182.373 18.9968 183.366 22.0935C184.298 18.9399 184.818 17.1901 184.924 16.8392C184.924 16.7491 185.014 16.659 185.105 16.659C185.196 16.659 185.291 16.5688 185.382 16.5688C185.502 16.5688 186.452 16.5688 186.572 16.5688C186.667 16.5688 186.758 16.5688 186.849 16.659C186.94 16.7491 186.94 16.8392 186.94 16.9293C186.94 16.9435 186.94 17.0051 186.94 17.1142C185.564 21.5671 184.799 24.0425 184.646 24.5357C184.646 24.6306 184.556 24.7207 184.465 24.8108C184.374 24.9009 184.279 24.9009 184.097 24.9009C183.987 24.9009 183.108 24.9009 182.998 24.9009C182.721 24.9009 182.54 24.8108 182.449 24.5357C182.339 24.2038 181.785 22.544 180.796 19.5564C179.807 22.544 179.258 24.2038 179.148 24.5357C179.052 24.8108 178.871 24.9009 178.594 24.9009C178.493 24.9009 177.686 24.9009 177.586 24.9009C177.313 24.991 177.127 24.8108 177.036 24.5357C176.578 23.0514 174.972 17.854 174.743 17.1142Z" fill="black"/>
<path d="M23.0352 21.0454C22.395 20.41 22.395 19.4094 23.0352 18.8593C23.7613 18.1432 29.5562 12.3909 30.2823 11.6701C30.9225 11.0347 31.9305 11.0347 32.4799 11.6701C33.206 12.3909 39.0009 18.1432 39.7223 18.8593C40.3672 19.4995 40.3672 20.5001 39.7223 21.0454C39.0009 21.7662 33.206 27.5185 32.4799 28.2346C31.8397 28.7847 30.8317 28.7847 30.2823 28.2346C28.83 26.7977 23.7613 21.7662 23.0352 21.0454Z" fill="#5EBE3F"/>
<path d="M20.3551 22.5061L20.4697 22.5345L20.5796 22.5677L20.6943 22.6104L20.7994 22.6626L20.9092 22.7242L21.0096 22.7906L21.1099 22.8712L21.2006 22.9566L28.3523 30.0556L28.443 30.1505L28.5195 30.2501L28.5911 30.3497L28.6532 30.454L28.7058 30.563L28.7488 30.6769L28.787 30.7907L28.8157 30.9045L28.8348 31.0183L28.8443 31.1369L28.8491 31.2554L28.8443 31.3692L28.83 31.4878L28.8109 31.6016L28.7822 31.7154L28.744 31.8245L28.701 31.9335L28.6485 32.0379L28.5863 32.1422L28.5195 32.237L28.4478 32.3319L21.2006 39.521L21.1194 39.6111L21.0334 39.687L20.9427 39.7582L20.8423 39.8198L20.742 39.872L20.6369 39.9146L20.5318 39.9478L20.4219 39.9715L20.3073 39.9905L20.1926 40H20.078L19.9633 39.9905L19.8487 39.9715L19.734 39.9478L19.6241 39.9146L19.5095 39.872L19.4044 39.8198L19.2945 39.7582L19.1942 39.687L19.0939 39.6111L19.0031 39.521L11.7559 32.3319L11.6699 32.2513L11.5935 32.1659L11.5218 32.0711L11.4597 31.9762L11.4072 31.8766L11.3642 31.7723L11.3307 31.6632L11.3021 31.5542L11.2878 31.4451L11.2782 31.3313V31.2175L11.2878 31.1037L11.3021 30.9898L11.3307 30.876L11.3642 30.7622L11.4072 30.6532L11.4597 30.5441L11.5218 30.4398L11.5935 30.3402L11.6699 30.2406L11.7559 30.1457L19.0031 22.9566L19.0843 22.8712L19.1703 22.7906L19.2611 22.7242L19.3614 22.6626L19.4617 22.6104L19.5668 22.5677L19.6719 22.5345L19.7866 22.5061L19.8964 22.4871L20.0111 22.4824H20.1258L20.2404 22.4871L20.3551 22.5061ZM19.39 24.9341L19.3136 24.9625L19.2467 25.0005L19.1846 25.0526L18.0858 26.1433L18.0333 26.205L17.9951 26.2714L17.9712 26.3472L17.9521 26.4279L17.9473 26.5085L17.9521 26.5891L17.9712 26.6697L17.9951 26.7408L18.0333 26.812L18.0858 26.8736L24.5018 33.2424L24.5639 33.2898L24.6307 33.3277L24.7072 33.3562L24.7884 33.3752L24.8696 33.3799L24.9508 33.3752L25.032 33.3562L25.1085 33.3277L25.1754 33.2898L25.2375 33.2424L26.3362 32.0616L26.3888 31.9999L26.427 31.9335L26.4509 31.8577L26.47 31.7818L26.4748 31.7059L26.47 31.6348L26.4509 31.5637L26.427 31.5067L26.3888 31.4593L26.3362 31.4214L19.9203 25.0526L19.8582 25.0005L19.7913 24.9625L19.7149 24.9341L19.6337 24.9198L19.5525 24.9151L19.4713 24.9198L19.39 24.9341Z" fill="#009CDF"/>
<path d="M20.2127 0.00474218L20.2796 0.0142266L20.3513 0.0237109L20.4229 0.0379375L20.4946 0.0569062L20.5615 0.0806172L20.6331 0.104328L20.7 0.132781L20.7669 0.161234L20.8338 0.199172L20.9007 0.237109L20.9628 0.279789L21.0249 0.322469L21.087 0.369891L21.1443 0.422055L21.2016 0.474219L28.3533 7.66812L28.4106 7.71554L28.4631 7.7677L28.5109 7.81987L28.5539 7.87677L28.5969 7.93368L28.6351 7.99533L28.6733 8.05698L28.702 8.11862L28.7307 8.18027L28.7593 8.24666L28.7784 8.31306L28.7975 8.37945L28.8167 8.44584L28.8262 8.51697L28.8358 8.58336L28.8453 8.65449L28.8501 8.72562V8.79676L28.8453 8.86789L28.8405 8.93428L28.831 9.00541L28.8214 9.07655L28.8071 9.14768L28.788 9.21407L28.7689 9.2852L28.745 9.35159L28.7163 9.41798L28.6877 9.48438L28.6542 9.55077L28.616 9.61241L28.5778 9.67406L28.5396 9.73571L28.4966 9.79262L28.4488 9.84952L9.92722 28.235L9.87467 28.2919L9.82212 28.3441L9.76957 28.3915L9.71224 28.4342L9.65492 28.4768L9.59759 28.5148L9.53549 28.548L9.47338 28.5812L9.4065 28.6096L9.33962 28.6333L9.27273 28.657L9.20585 28.6713L9.13897 28.6902L9.07209 28.6997L9.00043 28.7092L8.92877 28.7139H8.85711H8.79023L8.71857 28.7092L8.64691 28.6997L8.57525 28.6902L8.50359 28.6713L8.43671 28.657L8.36505 28.6333L8.29817 28.6096L8.22651 28.5812L8.15962 28.548L8.09274 28.5148L8.03064 28.4768L7.96375 28.4342L7.90165 28.3915L7.83954 28.3441L7.78222 28.2919L7.72489 28.235L0.482507 21.0458L0.425179 20.9984L0.372629 20.9462L0.324856 20.8941L0.281861 20.8372L0.238865 20.7803L0.200646 20.7186L0.167205 20.657L0.133764 20.5953L0.105101 20.5337L0.081214 20.4673L0.0573276 20.4009L0.0429957 20.3345L0.0238865 20.2681L0.0143319 20.197L0.00477729 20.1306L0 20.0595V19.9883V19.9172L0.00477729 19.8461L0.0143319 19.7749L0.0238865 19.7085L0.0429957 19.6374L0.0573276 19.5663L0.081214 19.4999L0.105101 19.4287L0.133764 19.3624L0.167205 19.296L0.200646 19.2296L0.238865 19.1632L0.281861 19.1015L0.324856 19.0399L0.372629 18.9782L0.425179 18.9213L0.482507 18.8597L19.0041 0.474219L19.0519 0.422055L19.1044 0.369891L19.157 0.322469L19.2143 0.279789L19.2716 0.237109L19.3337 0.199172L19.3958 0.161234L19.4579 0.132781L19.52 0.104328L19.5869 0.0806172L19.6538 0.0569062L19.7207 0.0379375L19.7876 0.0237109L19.8592 0.0142266L19.9261 0.00474218L19.9978 0H20.0694H20.1411L20.2127 0.00474218ZM16.4578 5.36816L16.3813 5.39661L16.3097 5.43455L16.2524 5.48197L15.1536 6.57267L15.101 6.63432L15.0628 6.70071L15.0342 6.77659L15.0198 6.8572L15.015 6.93782L15.0198 7.01844L15.0342 7.09905L15.0628 7.17493L15.101 7.24132L15.1536 7.30297L21.5695 13.6717L21.6316 13.7239L21.6985 13.7618L21.7749 13.7903L21.8561 13.8045L21.9373 13.8092L22.0186 13.8045L22.0998 13.7903L22.1762 13.7618L22.2431 13.7239L22.3052 13.6717L23.404 12.581L23.4517 12.5241L23.49 12.453L23.5186 12.3771L23.5377 12.3012L23.5425 12.2159L23.5377 12.1353L23.5186 12.0546L23.49 11.9835L23.4517 11.9124L23.404 11.8555L16.9833 5.48197L16.926 5.43455L16.8543 5.39661L16.7826 5.36816L16.7014 5.34919L16.6202 5.34445L16.5342 5.34919L16.4578 5.36816ZM19.391 2.45645L19.3146 2.48016L19.2477 2.5181L19.1856 2.57027L18.0868 3.66097L18.0343 3.72262L17.9961 3.78901L17.9722 3.86488L17.9531 3.9455L17.9483 4.02612L17.9531 4.10673L17.9722 4.18735L17.9961 4.26323L18.0343 4.32962L18.0868 4.39127L24.5028 10.76L24.5649 10.8122L24.6317 10.8501L24.7082 10.8738L24.7894 10.8928L24.8706 10.8975L24.9518 10.8928L25.033 10.8738L25.1095 10.8501L25.1764 10.8122L25.2385 10.76L26.3372 9.66932L26.3898 9.60767L26.428 9.54128L26.4519 9.46541L26.471 9.38479L26.4758 9.30417L26.471 9.22355L26.4519 9.14294L26.428 9.06706L26.3898 9.00067L26.3372 8.93902L19.9213 2.57027L19.8592 2.5181L19.7923 2.48016L19.7159 2.45645L19.6347 2.43748L19.5535 2.43274L19.4723 2.43748L19.391 2.45645Z" fill="#FEB900"/>
</svg>
