<svg width="37" height="40" viewBox="0 0 37 40" fill="none" xmlns="http://www.w3.org/2000/svg">
<g clip-path="url(#clip0)">
<path d="M35.9656 6.54C35.9656 7.65825 35.6897 8.64094 35.1035 9.522C34.5518 10.3691 33.7587 11.0807 32.7587 11.5891C33.8966 12.1312 34.7587 12.8767 35.4139 13.8255C36.069 14.7743 36.4139 15.8587 36.4139 17.1464C36.4139 19.2134 35.6897 20.8399 34.2415 22.0598C32.7932 23.2459 30.7932 23.8558 28.2415 23.8558C25.6897 23.8558 23.6553 23.2459 22.1725 22.0598C20.6897 20.8399 19.9656 19.2134 19.9656 17.1464C19.9656 15.8926 20.276 14.8082 20.9311 13.8594C21.5863 12.9106 22.4828 12.1651 23.6897 11.5891C22.6897 11.0807 21.8966 10.3691 21.3104 9.522C20.7242 8.67481 20.4483 7.65825 20.4483 6.54C20.4483 4.54073 21.138 2.94809 22.5518 1.76207C23.9311 0.609949 25.8276 0 28.1725 0C30.5518 0 32.4483 0.576063 33.8276 1.76207C35.2415 2.94809 35.9656 4.54073 35.9656 6.54ZM30.9656 16.7058C30.9656 15.757 30.7242 15.0115 30.207 14.5033C29.7242 13.9949 29.069 13.7239 28.2415 13.7239C27.4139 13.7239 26.7587 13.9949 26.2415 14.5033C25.7242 15.0115 25.4828 15.757 25.4828 16.7058C25.4828 17.6208 25.7242 18.3662 26.2415 18.9084C26.7587 19.4506 27.4483 19.6878 28.276 19.6878C29.069 19.6878 29.7242 19.4167 30.2415 18.9084C30.6897 18.4001 30.9656 17.6546 30.9656 16.7058ZM28.207 4.16799C27.4828 4.16799 26.8966 4.40519 26.5173 4.87959C26.138 5.354 25.9656 5.99784 25.9656 6.845C25.9656 7.65825 26.1725 8.336 26.5518 8.84425C26.9311 9.35256 27.5173 9.62362 28.276 9.62362C29.0346 9.62362 29.5863 9.35256 29.9311 8.84425C30.3105 8.336 30.4828 7.65825 30.4828 6.845C30.4828 6.03172 30.276 5.354 29.8966 4.87959C29.5173 4.40519 28.9656 4.16799 28.207 4.16799Z" fill="black"/>
<path d="M8.75863 15.3504H5.68966V23.5169H0V0.372742H9.27588C12.0689 0.372742 14.2414 0.982689 15.8276 2.20259C17.4138 3.42249 18.2069 5.15068 18.2069 7.38713C18.2069 9.01369 17.8621 10.3353 17.2069 11.3857C16.5518 12.4362 15.5173 13.3172 14.1034 13.9611L19.0345 23.3136V23.5508H12.9311L8.75863 15.3504ZM5.68966 11.0469H9.27588C10.3448 11.0469 11.1724 10.7758 11.6897 10.2336C12.2414 9.65751 12.5173 8.87813 12.5173 7.89544C12.5173 6.91276 12.2414 6.13337 11.6897 5.55731C11.1379 4.98125 10.3448 4.71016 9.27588 4.71016H5.68966V11.0469Z" fill="black"/>
<path d="M21.9312 37.5941C22.3795 37.5941 22.7244 37.4925 22.9657 37.2553C23.2071 37.018 23.3105 36.6792 23.3105 36.2726H26.2416C26.2416 37.3569 25.8623 38.238 25.0692 38.9496C24.276 39.6273 23.276 40 22.0347 40C20.5864 40 19.414 39.5595 18.5864 38.6446C17.7588 37.7297 17.3105 36.5098 17.3105 34.9171V34.7816C17.3105 33.7989 17.483 32.9179 17.8623 32.1385C18.2415 31.3591 18.7933 30.783 19.483 30.3764C20.1726 29.9698 21.0347 29.7665 22.0002 29.7665C23.3105 29.7665 24.345 30.1053 25.1037 30.8169C25.8623 31.5285 26.2416 32.4774 26.2416 33.6972H23.3105C23.3105 33.1889 23.1726 32.7823 22.9312 32.5112C22.6899 32.2401 22.345 32.1046 21.8967 32.1046C21.1037 32.1046 20.6209 32.6129 20.483 33.6295C20.4485 33.9683 20.414 34.4089 20.414 34.951C20.414 35.9337 20.5174 36.6114 20.7588 37.018C21.0347 37.3908 21.414 37.5941 21.9312 37.5941Z" fill="#00B9E2"/>
<path d="M16.4482 34.6121C16.4482 33.0872 16.0343 31.8673 15.2068 31.0202C14.3792 30.173 13.2757 29.7325 11.862 29.7325C10.862 29.7325 9.99991 29.9358 9.27572 30.3764C8.5516 30.783 7.99991 31.3929 7.6206 32.1723C7.24129 32.9517 7.06885 33.8327 7.06885 34.8493V35.1204C7.06885 36.5775 7.5516 37.7296 8.48266 38.6445C9.44816 39.5595 10.6895 40 12.2068 40C13.0343 40 13.793 39.8305 14.5171 39.5255C15.2413 39.2206 15.793 38.7801 16.1723 38.2718L14.7585 36.6114C14.2068 37.2891 13.4137 37.6279 12.4482 37.6279C11.862 37.6279 11.3447 37.4585 10.9999 37.1535C10.6206 36.8485 10.3792 36.408 10.2757 35.8659H16.4827V34.6121H16.4482ZM13.3792 33.9005H10.2413C10.4137 32.7145 10.9654 32.1045 11.862 32.1045C12.3447 32.1045 12.724 32.24 12.9999 32.5112C13.2757 32.7822 13.3792 33.155 13.3792 33.6633V33.9005Z" fill="#030303"/>
<path d="M4.4484 27.4622V29.902H6.10357V32.0368H4.4484V36.5775C4.4484 36.9502 4.51737 37.2213 4.6553 37.3569C4.79323 37.4924 5.06909 37.5602 5.4484 37.5602C5.75875 37.5602 6.00013 37.5263 6.2415 37.4924V39.695C5.68978 39.8645 5.10357 39.9661 4.48288 39.9661C3.41392 39.9661 2.62082 39.7289 2.10357 39.2206C1.58633 38.7123 1.34495 37.9668 1.34495 36.9502V32.0707H0.0690918V29.9358H1.34495V27.496H4.4484V27.4622Z" fill="#030303"/>
<path d="M30.6206 30.9863C31.2758 30.173 32.1379 29.7325 33.1724 29.7325C34.2758 29.7325 35.1034 30.0714 35.6895 30.7152C36.2413 31.359 36.5517 32.3078 36.5517 33.5616V39.7967H33.4137V33.6294C33.4137 33.1211 33.3103 32.7145 33.1034 32.4773C32.8965 32.2401 32.5172 32.1045 31.9999 32.1045C31.3447 32.1045 30.8965 32.3078 30.6206 32.7145V39.7967H27.4827V25.8017H30.6206V30.9863Z" fill="#E15B00"/>
</g>
<defs>
<clipPath id="clip0">
<rect width="36.875" height="40" fill="white"/>
</clipPath>
</defs>
</svg>
