<?xml version="1.0" encoding="UTF-8"?>
<svg width="150px" height="22px" viewBox="0 0 150 22" xmlns="http://www.w3.org/2000/svg" xmlns:xlink="http://www.w3.org/1999/xlink" version="1.1">
 <!-- Generated by Pixelmator Pro 1.5.5 -->
 <path id="Path" d="M37.473 9.42 C39.556 9.42 40.677 8.35 40.677 6.864 40.677 5.288 39.556 4.307 37.473 4.307 L34.911 4.307 C34.679 4.307 34.492 4.486 34.492 4.707 L34.492 9.02 C34.492 9.241 34.679 9.42 34.911 9.42 Z M36.028 13.463 L34.911 13.463 C34.68 13.463 34.493 13.642 34.493 13.862 L34.493 20.911 C34.493 21.131 34.306 21.31 34.074 21.31 L29.848 21.31 C29.617 21.31 29.429 21.131 29.429 20.911 L29.429 0.634 C29.429 0.413 29.617 0.234 29.848 0.234 L38.435 0.234 C42.922 0.234 45.806 3.089 45.806 6.833 45.806 9.535 44.284 11.623 41.758 12.62 41.527 12.711 41.42 12.965 41.534 13.177 L45.619 20.727 C45.763 20.993 45.561 21.31 45.248 21.31 L40.617 21.31 C40.458 21.31 40.313 21.224 40.242 21.088 L36.403 13.685 C36.332 13.549 36.187 13.463 36.028 13.463 Z" fill="#10191f" fill-opacity="1" stroke="none"/>
 <path id="Path-1" d="M60.626 11.157 C60.66 11.157 60.688 11.13 60.686 11.097 60.592 9.86 59.687 8.395 57.251 8.395 55.087 8.395 53.988 9.889 53.854 11.095 53.85 11.129 53.879 11.157 53.914 11.157 Z M65.019 16.471 C65.246 16.532 65.383 16.763 65.306 16.977 64.352 19.627 61.69 21.779 57.56 21.779 52.85 21.779 48.656 18.556 48.656 13.064 48.656 7.803 52.747 4.45 57.182 4.45 62.477 4.45 65.744 7.573 65.744 12.835 65.744 13.26 65.718 13.712 65.69 14.018 65.671 14.224 65.489 14.38 65.272 14.38 L53.807 14.38 C53.773 14.38 53.745 14.409 53.748 14.442 53.887 16.251 55.624 17.536 57.629 17.536 59.363 17.536 60.403 16.818 60.935 15.711 61.021 15.531 61.242 15.447 61.442 15.501 Z" fill="#10191f" fill-opacity="1" stroke="none"/>
 <path id="Path-2" d="M69.542 20.908 L69.542 5.345 C69.542 5.124 69.726 4.943 69.954 4.943 L74.027 4.943 C74.255 4.943 74.439 5.124 74.439 5.345 L74.439 6.631 C74.439 6.687 74.509 6.706 74.54 6.66 75.445 5.304 77.513 4.449 79.269 4.449 81.629 4.449 83.334 5.374 84.193 6.942 84.212 6.978 84.261 6.98 84.285 6.947 85.592 5.155 87.201 4.449 89.435 4.449 92.61 4.449 95.649 6.26 95.649 10.707 L95.649 20.908 C95.649 21.13 95.464 21.31 95.237 21.31 L91.097 21.31 C90.869 21.31 90.685 21.13 90.685 20.908 L90.685 11.825 C90.685 10.278 89.841 9.06 88.016 9.06 86.192 9.06 85.213 10.41 85.213 11.859 L85.213 20.908 C85.213 21.13 85.028 21.31 84.801 21.31 L80.559 21.31 C80.331 21.31 80.146 21.13 80.146 20.908 L80.146 11.825 C80.146 10.278 79.302 9.06 77.445 9.06 75.655 9.06 74.676 10.41 74.676 11.892 L74.676 20.908 C74.676 21.13 74.491 21.31 74.263 21.31 L69.954 21.31 C69.726 21.31 69.542 21.13 69.542 20.908" fill="#10191f" fill-opacity="1" stroke="none"/>
 <path id="Path-3" d="M109.919 14.893 L109.919 14.168 106.711 14.662 C105.62 14.826 104.8 15.32 104.8 16.474 104.8 17.33 105.381 18.154 106.814 18.154 108.35 18.154 109.919 17.429 109.919 14.893 M104.699 11.862 L108.692 11.269 C109.613 11.137 109.92 10.71 109.92 10.149 109.92 9.194 109.067 8.37 107.429 8.37 105.813 8.37 104.85 9.318 104.591 10.39 104.539 10.601 104.326 10.735 104.105 10.691 L100.404 9.961 C100.179 9.916 100.038 9.705 100.078 9.487 100.489 7.21 102.76 4.45 107.464 4.45 112.958 4.45 114.97 7.415 114.97 10.775 L114.97 18.781 C114.97 19.635 115.046 20.402 115.107 20.869 115.138 21.107 114.943 21.318 114.693 21.318 L110.844 21.318 C110.638 21.318 110.464 21.176 110.432 20.979 110.388 20.703 110.339 20.267 110.331 19.659 110.33 19.603 110.26 19.579 110.228 19.625 109.32 20.924 107.721 21.779 105.552 21.779 101.832 21.779 99.682 19.406 99.682 16.804 99.682 13.905 101.901 12.257 104.699 11.862" fill="#10191f" fill-opacity="1" stroke="none"/>
 <path id="Path-4" d="M126.23 4.98 L128.699 4.98 C128.927 4.98 129.113 5.159 129.113 5.38 L129.113 8.935 C129.113 9.156 128.927 9.334 128.699 9.334 L126.23 9.334 C126 9.334 125.815 9.513 125.815 9.734 L125.815 15.423 C125.815 16.764 126.563 17.125 127.685 17.125 128.002 17.125 128.307 17.091 128.568 17.051 128.82 17.011 129.046 17.198 129.046 17.444 L129.046 20.822 C129.046 20.987 128.943 21.136 128.784 21.194 128.386 21.337 127.598 21.545 126.359 21.545 122.856 21.545 120.714 19.547 120.714 16.307 L120.714 9.734 C120.714 9.513 120.528 9.334 120.299 9.334 L118.136 9.334 C117.906 9.334 117.721 9.156 117.721 8.935 L117.721 5.38 C117.721 5.159 117.906 4.98 118.136 4.98 L118.57 4.98 C120.34 4.98 121.19 3.835 121.19 2.33 L121.19 0.634 C121.19 0.413 121.375 0.234 121.605 0.234 L125.4 0.234 C125.629 0.234 125.815 0.413 125.815 0.634 L125.815 4.581 C125.815 4.802 126 4.98 126.23 4.98" fill="#10191f" fill-opacity="1" stroke="none"/>
 <path id="Path-5" d="M144.808 13.098 C144.808 10.335 142.963 9.054 140.982 9.054 139.034 9.054 137.155 10.335 137.155 13.098 137.155 15.827 139.034 17.175 140.982 17.175 142.963 17.175 144.808 15.86 144.808 13.098 M149.999 13.098 C149.999 18.161 146.07 21.779 140.981 21.779 135.925 21.779 131.961 18.161 131.961 13.098 131.961 8.034 135.925 4.45 140.981 4.45 146.07 4.45 149.999 8.034 149.999 13.098" fill="#10191f" fill-opacity="1" stroke="none"/>
 <path id="Path-6" d="M7.209 0.119 L6.055 1.24 C5.892 1.399 5.892 1.657 6.055 1.816 L9.805 5.461 C9.883 5.537 9.99 5.58 10.1 5.58 L15.675 5.58 C15.906 5.58 16.094 5.762 16.094 5.986 L16.094 11.404 C16.094 11.512 16.138 11.615 16.216 11.692 L19.966 15.337 C20.13 15.495 20.394 15.495 20.558 15.337 L21.712 14.215 C21.791 14.139 21.834 14.035 21.834 13.927 L21.834 0.407 C21.834 0.182 21.647 0 21.416 0 L7.505 0 C7.394 0 7.287 0.043 7.209 0.119" fill="#f6d961" fill-opacity="1" stroke="none"/>
 <path id="Path-7" d="M21.711 0.169 L15.914 5.731 C15.991 5.804 16.038 5.906 16.038 6.017 L16.038 11.418 C16.038 11.525 16.083 11.629 16.161 11.705 L19.948 15.338 C20.113 15.496 20.381 15.496 20.546 15.338 L21.711 14.219 C21.79 14.143 21.835 14.041 21.835 13.933 L21.835 0.456 C21.835 0.343 21.788 0.242 21.711 0.169" fill="#eead09" fill-opacity="1" stroke="none"/>
 <path id="Path-8" d="M0.124 7.109 L1.288 5.975 C1.453 5.815 1.72 5.815 1.884 5.975 L5.667 9.658 C5.746 9.735 5.79 9.84 5.79 9.949 L5.79 15.424 C5.79 15.651 5.979 15.835 6.213 15.835 L11.835 15.835 C11.947 15.835 12.054 15.879 12.133 15.956 L15.916 19.639 C16.08 19.8 16.08 20.06 15.916 20.22 L14.751 21.354 C14.673 21.431 14.565 21.474 14.453 21.474 L0.422 21.474 C0.189 21.474 0 21.29 0 21.063 L0 7.4 C0 7.291 0.045 7.186 0.124 7.109" fill="#f6d961" fill-opacity="1" stroke="none"/>
 <path id="Path-9" d="M6.266 15.861 C6.149 15.861 6.043 15.815 5.967 15.74 L0.171 21.405 C0.248 21.479 0.354 21.526 0.47 21.526 L14.515 21.526 C14.627 21.526 14.734 21.482 14.813 21.405 L15.978 20.266 C16.144 20.105 16.144 19.843 15.978 19.682 L12.193 15.982 C12.113 15.905 12.006 15.861 11.894 15.861 Z" fill="#eead09" fill-opacity="1" stroke="none"/>
</svg>
