<?xml version="1.0" encoding="UTF-8"?>
<svg width="150px" height="33px" viewBox="0 0 150 33" xmlns="http://www.w3.org/2000/svg" xmlns:xlink="http://www.w3.org/1999/xlink" version="1.1">
 <!-- Generated by Pixelmator Pro 2.1.2 -->
 <g id="g10">
  <g id="g12">
   <g id="g14">
    <g id="g20">
     <path id="path22" d="M36.477 14.812 C37.341 14.677 38.043 14.267 38.708 13.774 41.618 11.616 41.595 5.928 39.195 3.665 38.415 2.93 37.268 2.291 36.433 2.224 38.312 3.938 39.101 6.064 39.097 8.516 39.092 10.968 38.304 13.095 36.477 14.812 M9.194 30.192 C7.394 28.448 6.615 26.329 6.621 23.863 6.627 21.396 7.474 19.283 9.268 17.557 7.398 18.075 6.005 19.133 5.301 20.953 4.588 22.773 4.555 24.791 5.209 26.634 5.859 28.548 7.279 29.665 9.194 30.192 M12.745 15.207 C12.552 14.865 12.38 14.594 12.239 14.306 10.477 10.583 8.706 6.865 6.978 3.125 6.521 2.134 5.831 1.718 4.751 1.82 4.794 1.942 4.825 2.058 4.872 2.165 6.28 5.159 7.675 8.155 9.102 11.142 9.589 12.166 10.097 13.185 10.664 14.165 11.092 14.908 11.794 15.251 12.745 15.211 Z M32.957 17.166 C33.187 17.597 33.404 17.961 33.584 18.342 35.329 22.031 37.071 25.721 38.812 29.413 39.281 30.406 39.853 30.704 40.968 30.547 39.75 27.951 38.543 25.358 37.313 22.776 36.61 21.291 35.895 19.811 35.133 18.352 34.703 17.535 33.949 17.167 32.957 17.166 M21.928 30.567 L23.771 30.567 23.771 1.807 21.928 1.807 Z M25.913 1.764 L25.913 15.189 C27.77 15.189 29.584 15.312 31.375 15.161 34.24 14.922 36.2 13.159 36.777 10.424 36.953 9.506 37.01 8.568 36.946 7.636 36.791 4.758 35.095 2.705 32.347 2.047 30.23 1.541 28.074 1.85 25.913 1.764 M19.843 30.509 L19.843 17.177 C18.093 17.177 16.385 17.085 14.689 17.197 11.714 17.391 9.676 19.024 9.007 21.694 8.802 22.564 8.71 23.458 8.736 24.353 8.796 27.761 10.808 30.117 14.15 30.476 16.013 30.671 17.914 30.509 19.843 30.509 M-0.111 1.795 C0.052 1.115 0.188 0.546 0.354 -0.141 2.412 -0.079 4.479 -0.062 6.538 0.067 7.535 0.129 8.16 0.859 8.583 1.716 9.327 3.23 10.045 4.756 10.766 6.282 11.817 8.505 12.856 10.734 13.911 12.955 14.104 13.359 14.324 13.749 14.568 14.123 15.003 14.795 15.614 15.208 16.43 15.225 17.561 15.242 18.69 15.225 19.855 15.225 L19.855 1.799 16.895 1.799 C17.033 1.2 17.126 0.684 17.284 0.189 17.324 0.067 17.57 -0.055 17.729 -0.07 18.235 -0.103 18.744 -0.082 19.251 -0.082 L34.117 -0.082 C36.573 -0.082 38.83 0.52 40.639 2.282 42.624 4.213 43.242 6.664 42.997 9.329 42.632 13.351 40.645 15.617 36.738 16.69 36.659 16.717 36.581 16.75 36.506 16.788 37.764 18.25 38.305 20.066 39.125 21.728 40.352 24.204 41.53 26.705 42.659 29.229 43.092 30.198 43.734 30.661 44.769 30.624 45.087 30.613 45.405 30.624 45.811 30.624 45.65 31.303 45.512 31.888 45.385 32.426 43.373 32.426 41.425 32.463 39.482 32.412 38.446 32.385 37.689 31.779 37.223 30.87 36.62 29.696 36.055 28.5 35.492 27.306 34.294 24.77 33.102 22.232 31.917 19.689 31.874 19.597 31.82 19.509 31.783 19.415 31.134 17.749 29.965 16.948 28.145 17.125 27.421 17.197 26.683 17.138 25.906 17.138 L25.906 30.59 28.767 30.59 C28.779 30.633 28.786 30.677 28.791 30.722 28.499 32.503 28.498 32.503 26.728 32.503 L11.862 32.503 C10.496 32.503 9.148 32.365 7.859 31.864 4.771 30.665 3.107 28.358 2.741 25.105 2.516 23.103 2.758 21.16 3.792 19.379 5.01 17.289 6.913 16.195 9.096 15.677 7.272 12.549 5.939 9.166 4.326 5.917 3.874 5.003 3.422 4.097 3.033 3.158 2.667 2.255 2.058 1.795 1.083 1.795 Z" fill="#343434" fill-opacity="1" stroke="none"/>
    </g>
    <g id="g24">
     <path id="path26" d="M54.807 1.877 L54.807 7.266 C55.904 7.266 56.966 7.337 58.012 7.247 59.417 7.125 60.171 6.022 60.121 4.331 60.08 2.926 59.185 1.939 57.834 1.882 56.842 1.843 55.846 1.877 54.807 1.877 M51.202 -0.019 L51.965 -0.019 C54.115 -0.005 56.268 -0.059 58.415 0.043 60.486 0.139 61.972 1.528 62.3 3.457 62.701 5.818 61.806 7.628 59.862 8.493 60.507 9.743 61.177 10.986 61.791 12.256 62.129 12.955 62.437 13.615 63.429 13.358 L63.429 15.345 C62.708 15.292 61.988 15.363 61.358 15.153 60.923 15.007 60.512 14.533 60.272 14.103 59.569 12.847 58.932 11.548 58.322 10.244 57.976 9.509 57.486 9.142 56.658 9.206 56.055 9.251 55.447 9.214 54.763 9.214 L54.763 15.278 52.594 15.278 52.594 1.9 51.202 1.9 Z" fill="#343434" fill-opacity="1" stroke="none"/>
    </g>
    <g id="g28">
     <path id="path30" d="M54.789 24.47 C55.793 24.47 56.725 24.507 57.653 24.462 59.041 24.394 59.875 23.62 60.091 22.281 60.334 20.812 59.745 19.44 58.555 19.209 57.33 18.97 56.05 19.023 54.786 18.947 Z M54.76 26.348 L54.76 32.391 52.575 32.391 52.575 19.018 51.204 19.018 51.204 17.187 C51.321 17.163 51.441 17.147 51.561 17.139 53.732 17.139 55.905 17.105 58.075 17.148 59.856 17.183 61.301 17.917 61.989 19.639 62.691 21.392 62.585 23.13 61.308 24.623 60.915 25.082 60.333 25.379 59.905 25.7 60.535 26.925 61.194 28.203 61.843 29.481 62.33 30.433 62.319 30.437 63.427 30.595 L63.427 32.39 C62.833 32.39 62.25 32.416 61.67 32.384 61.043 32.35 60.639 31.971 60.363 31.424 59.688 30.077 58.977 28.754 58.337 27.394 57.972 26.629 57.455 26.283 56.617 26.34 56.029 26.379 55.441 26.348 54.76 26.348" fill="#343434" fill-opacity="1" stroke="none"/>
    </g>
    <g id="g32">
     <path id="path34" d="M97.585 23.237 L97.585 21.413 C98.468 21.452 99.354 21.44 100.226 21.546 100.9 21.628 101.039 22.197 101.042 22.789 101.051 24.682 101.053 26.575 101.068 28.469 101.074 28.733 101.108 28.995 101.17 29.252 101.393 30.232 101.968 30.69 102.981 30.714 104.839 30.754 106.393 29.302 106.532 27.248 106.639 25.605 106.589 23.953 106.607 22.305 L106.607 21.481 108.72 21.481 108.72 29.579 C108.72 30.591 108.72 30.591 109.718 30.612 109.817 30.612 109.914 30.624 110.046 30.633 L110.046 32.417 C109.255 32.417 108.486 32.462 107.731 32.404 106.999 32.347 106.687 31.933 106.674 31.17 L106.674 30.292 C105.895 31.534 104.968 32.32 103.69 32.565 100.992 33.082 98.965 32.03 98.938 28.752 98.926 27.282 98.938 25.82 98.938 24.354 98.938 23.304 98.938 23.306 97.918 23.274 97.812 23.266 97.716 23.25 97.585 23.237" fill="#343434" fill-opacity="1" stroke="none"/>
    </g>
    <g id="g36">
     <path id="path38" d="M87.241 27.004 C87.319 29.234 88.981 30.909 91.053 30.845 93.124 30.78 94.768 28.994 94.708 26.834 94.645 24.639 92.945 22.964 90.854 23.037 88.78 23.102 87.168 24.877 87.241 27.004 M90.96 21.192 C94.324 21.192 96.875 23.682 96.86 26.948 96.846 30.214 94.295 32.688 90.939 32.68 87.584 32.673 85.061 30.17 85.081 26.889 85.101 23.636 87.622 21.189 90.96 21.192" fill="#343434" fill-opacity="1" stroke="none"/>
    </g>
    <g id="g40">
     <path id="path42" d="M118.145 8.466 L123.778 8.466 C123.746 6.933 122.803 5.836 121.497 5.772 119.718 5.674 118.339 6.767 118.144 8.466 Z M125.944 10.075 L117.994 10.075 C118.102 11.474 118.648 12.572 119.855 13.212 121.683 14.184 123.341 13.628 124.927 12.433 L125.848 13.933 C124.428 15.134 122.827 15.692 121.004 15.513 116.091 15.03 114.775 10.046 116.531 6.76 118.115 3.807 122.463 3.07 124.648 5.394 125.864 6.688 126.126 8.278 125.944 10.075" fill="#343434" fill-opacity="1" stroke="none"/>
    </g>
    <g id="g44">
     <path id="path46" d="M71.915 8.462 C71.955 7.053 71.012 5.89 69.758 5.776 67.95 5.607 66.541 6.684 66.288 8.462 Z M73.079 12.439 L73.985 13.908 C73.191 14.663 72.258 15.104 71.228 15.361 67.918 16.188 64.805 14.33 64.082 11.1 63.484 8.421 64.657 5.681 66.911 4.609 69.908 3.186 74.144 4.225 74.151 9.242 74.151 9.487 74.122 9.732 74.101 10.043 L66.205 10.043 C66.155 11.672 67.229 13.121 68.797 13.538 70.407 13.989 71.781 13.415 73.079 12.439" fill="#343434" fill-opacity="1" stroke="none"/>
    </g>
    <g id="g48">
     <path id="path50" d="M94.524 8.467 C94.445 6.729 93.457 5.743 91.886 5.766 90.289 5.789 88.933 7.012 88.916 8.467 Z M96.575 13.908 C93.624 16.653 88.055 15.973 86.773 11.503 85.986 8.756 87.111 5.776 89.472 4.645 91.29 3.774 93.128 3.729 94.85 4.914 96.302 5.918 96.997 7.988 96.65 10.058 L88.729 10.058 C88.851 11.492 89.399 12.604 90.654 13.242 92.482 14.169 94.111 13.61 95.668 12.433 95.974 12.923 96.273 13.405 96.575 13.908" fill="#343434" fill-opacity="1" stroke="none"/>
    </g>
    <g id="g52">
     <path id="path54" d="M71.889 25.617 C72.011 24.196 70.956 22.969 69.595 22.902 67.844 22.817 66.35 24.046 66.328 25.617 Z M73.086 29.583 L73.987 31.06 C73.214 31.795 72.302 32.233 71.291 32.494 67.949 33.352 64.739 31.528 64.102 28.253 63.182 23.524 66.691 20.552 70.578 21.309 72.547 21.693 73.964 23.419 74.124 25.651 74.158 26.133 74.124 26.619 74.124 27.178 L66.176 27.178 C66.2 28.475 66.669 29.478 67.666 30.14 69.58 31.412 71.368 30.849 73.086 29.583" fill="#343434" fill-opacity="1" stroke="none"/>
    </g>
    <g id="g56">
     <path id="path58" d="M137.9 25.619 C137.842 23.93 136.832 22.887 135.341 22.895 133.714 22.905 132.338 24.12 132.302 25.619 Z M139.058 29.578 L139.964 31.061 C138.989 31.964 137.841 32.437 136.552 32.638 134.053 33.031 131.597 31.788 130.51 29.576 129.392 27.3 129.876 24.31 131.634 22.621 133.108 21.208 135.643 20.743 137.483 21.612 139.323 22.48 139.992 24.061 140.114 25.968 140.126 26.192 140.126 26.416 140.114 26.64 140.106 26.802 140.076 26.962 140.047 27.183 L132.134 27.183 C132.212 28.524 132.693 29.577 133.794 30.245 135.66 31.368 137.371 30.823 139.058 29.578" fill="#343434" fill-opacity="1" stroke="none"/>
    </g>
    <g id="g60">
     <path id="path62" d="M114.202 7.207 L112.411 7.207 C112.421 6.594 112.261 6.09 111.592 5.912 110.755 5.689 109.934 5.68 109.193 6.176 108.625 6.554 108.553 7.3 109.061 7.753 109.435 8.062 109.849 8.317 110.292 8.511 111.267 8.974 112.279 9.337 113.216 9.858 114.234 10.418 114.768 11.344 114.679 12.539 114.59 13.735 113.961 14.646 112.858 15.068 112.084 15.359 111.267 15.517 110.441 15.535 108.824 15.573 107.166 14.737 106.304 13.59 L107.361 12.185 C107.531 12.343 107.668 12.481 107.814 12.609 108.811 13.466 109.931 13.971 111.278 13.732 111.87 13.628 112.361 13.352 112.512 12.712 112.673 12.035 112.285 11.617 111.746 11.344 111.077 11.007 110.371 10.746 109.7 10.416 109.028 10.085 108.359 9.803 107.787 9.367 105.948 7.99 106.273 5.37 108.396 4.481 109.902 3.848 111.452 3.887 112.965 4.481 114.111 4.93 114.485 5.8 114.202 7.207" fill="#343434" fill-opacity="1" stroke="none"/>
    </g>
    <g id="g64">
     <path id="path66" d="M83.385 24.343 L81.52 24.343 C81.581 23.73 81.412 23.227 80.739 23.043 79.9 22.816 79.079 22.82 78.34 23.315 77.731 23.725 77.716 24.568 78.34 25.024 78.809 25.363 79.366 25.584 79.893 25.839 80.767 26.263 81.709 26.574 82.514 27.102 84.341 28.298 84.266 30.802 82.431 31.992 80.398 33.311 76.861 32.678 75.458 30.71 L76.51 29.334 C77.325 30.137 78.207 30.804 79.347 30.892 79.887 30.944 80.432 30.875 80.942 30.688 81.879 30.313 81.983 29.218 81.137 28.667 80.515 28.262 79.796 28.019 79.126 27.673 78.322 27.253 77.458 26.898 76.754 26.343 75.279 25.185 75.413 22.877 77.022 21.925 78.812 20.868 80.704 20.923 82.541 21.859 83.547 22.37 83.465 23.341 83.385 24.343" fill="#343434" fill-opacity="1" stroke="none"/>
    </g>
    <g id="g68">
     <path id="path70" d="M149.373 24.343 L147.545 24.343 C147.423 23.291 147.046 22.929 145.971 22.918 145.525 22.907 145.081 22.979 144.66 23.128 143.708 23.485 143.563 24.497 144.388 25.075 144.913 25.442 145.536 25.666 146.121 25.941 146.852 26.285 147.621 26.567 148.32 26.967 149.375 27.58 149.918 28.515 149.797 29.762 149.675 30.941 149.015 31.738 147.969 32.23 146.002 33.151 143.192 32.624 141.696 31.077 141.468 30.841 141.432 30.667 141.655 30.411 141.945 30.078 142.201 29.715 142.5 29.33 143.327 30.155 144.215 30.82 145.356 30.887 145.954 30.926 146.552 30.817 147.1 30.572 147.88 30.195 147.922 29.216 147.207 28.721 146.663 28.344 146.027 28.108 145.431 27.803 144.619 27.395 143.768 27.047 143.002 26.564 142.027 25.952 141.619 24.993 141.775 23.834 141.931 22.676 142.617 21.964 143.657 21.565 144.979 21.059 146.435 21.036 147.772 21.499 149.156 21.957 149.538 22.644 149.373 24.343" fill="#343434" fill-opacity="1" stroke="none"/>
    </g>
    <g id="g72">
     <path id="path74" d="M128.539 24.708 L126.75 24.708 C126.492 23.329 125.517 22.76 123.959 23.078 121.943 23.483 120.669 25.342 120.97 27.446 121.275 29.603 122.979 30.968 125.113 30.776 126.296 30.67 127.262 30.106 128.166 29.296 128.483 29.812 128.775 30.289 129.09 30.801 127.729 32.176 126.106 32.76 124.229 32.682 121.45 32.566 119.21 30.584 118.853 27.928 118.452 24.933 119.896 22.424 122.544 21.53 123.861 21.077 125.288 21.067 126.611 21.501 128.294 22.038 128.807 22.883 128.539 24.708" fill="#343434" fill-opacity="1" stroke="none"/>
    </g>
    <g id="g76">
     <path id="path78" d="M75.037 6.13 L75.037 4.303 C75.646 4.334 76.272 4.316 76.875 4.41 77.421 4.494 77.62 4.987 77.794 5.454 78.255 6.692 78.726 7.927 79.181 9.166 79.635 10.406 80.084 11.644 80.521 12.84 81.351 10.578 82.198 8.267 83.047 5.957 83.13 5.728 83.215 5.498 83.305 5.272 83.556 4.633 84.016 4.307 84.709 4.32 85.094 4.328 85.479 4.32 85.909 4.32 L85.909 6.112 C85.272 6.05 85.049 6.465 84.857 6.98 83.882 9.587 82.878 12.183 81.903 14.79 81.763 15.167 81.594 15.354 81.163 15.313 80.698 15.273 80.23 15.273 79.764 15.313 79.366 15.345 79.208 15.175 79.074 14.823 78.079 12.201 77.061 9.588 76.055 6.969 75.872 6.491 75.712 6.013 75.037 6.13" fill="#343434" fill-opacity="1" stroke="none"/>
    </g>
    <g id="g80">
     <path id="path82" d="M97.945 6.096 L97.945 4.382 C98.81 4.382 99.674 4.33 100.528 4.4 101.051 4.443 101.31 4.87 101.324 5.403 101.332 5.801 101.324 6.199 101.375 6.628 102.228 5.046 103.363 4.008 105.312 4.226 L105.312 6.151 C104.665 6.297 104.012 6.326 103.473 6.59 102.011 7.303 101.517 8.658 101.443 10.168 101.373 11.632 101.415 13.1 101.409 14.567 L101.409 15.263 99.296 15.263 99.296 7.193 C99.296 6.164 99.296 6.165 98.253 6.13 98.174 6.128 98.093 6.113 97.945 6.096" fill="#343434" fill-opacity="1" stroke="none"/>
    </g>
    <g id="g84">
     <path id="path86" d="M110.941 23.25 L110.941 21.474 C111.754 21.474 112.543 21.427 113.322 21.489 113.974 21.541 114.278 21.929 114.319 22.591 114.342 22.969 114.319 23.348 114.369 23.751 115.208 22.159 116.36 21.147 118.306 21.352 L118.306 23.378 C115.57 23.591 114.399 24.983 114.368 28.068 114.355 29.493 114.368 30.917 114.368 32.39 L112.273 32.39 112.273 31.778 112.273 24.265 C112.273 23.286 112.273 23.286 111.291 23.271 111.192 23.268 111.094 23.259 110.941 23.25" fill="#343434" fill-opacity="1" stroke="none"/>
    </g>
   </g>
  </g>
  <g id="g88">
   <g id="g90">
    <g id="g96">
     <path id="path98" d="M36.477 14.812 C37.341 14.677 38.043 14.267 38.708 13.774 41.618 11.616 41.595 5.928 39.195 3.665 38.415 2.93 37.268 2.291 36.433 2.224 38.312 3.938 39.101 6.064 39.097 8.516 39.092 10.968 38.304 13.095 36.477 14.812 M9.194 30.192 C7.394 28.448 6.615 26.329 6.621 23.863 6.627 21.396 7.474 19.283 9.268 17.557 7.398 18.075 6.005 19.133 5.301 20.953 4.588 22.773 4.555 24.791 5.209 26.634 5.859 28.548 7.279 29.665 9.194 30.192 M12.745 15.207 C12.552 14.865 12.38 14.594 12.239 14.306 10.477 10.583 8.706 6.865 6.978 3.125 6.521 2.134 5.831 1.718 4.751 1.82 4.794 1.942 4.825 2.058 4.872 2.165 6.28 5.159 7.675 8.155 9.102 11.142 9.589 12.166 10.097 13.185 10.664 14.165 11.092 14.908 11.794 15.251 12.745 15.211 Z M32.957 17.166 C33.187 17.597 33.404 17.961 33.584 18.342 35.329 22.031 37.071 25.721 38.812 29.413 39.281 30.406 39.853 30.704 40.968 30.547 39.75 27.951 38.543 25.358 37.313 22.776 36.61 21.291 35.895 19.811 35.133 18.352 34.703 17.535 33.949 17.167 32.957 17.166 M21.928 30.567 L23.771 30.567 23.771 1.807 21.928 1.807 Z M25.913 1.764 L25.913 15.189 C27.77 15.189 29.584 15.312 31.375 15.161 34.24 14.922 36.2 13.159 36.777 10.424 36.953 9.506 37.01 8.568 36.946 7.636 36.791 4.758 35.095 2.705 32.347 2.047 30.23 1.541 28.074 1.85 25.913 1.764 M19.843 30.509 L19.843 17.177 C18.093 17.177 16.385 17.085 14.689 17.197 11.714 17.391 9.676 19.024 9.007 21.694 8.802 22.564 8.71 23.458 8.736 24.353 8.796 27.761 10.808 30.117 14.15 30.476 16.013 30.671 17.914 30.509 19.843 30.509 M-0.111 1.795 C0.052 1.115 0.188 0.546 0.354 -0.141 2.412 -0.079 4.479 -0.062 6.538 0.067 7.535 0.129 8.16 0.859 8.583 1.716 9.327 3.23 10.045 4.756 10.766 6.282 11.817 8.505 12.856 10.734 13.911 12.955 14.104 13.359 14.324 13.749 14.568 14.123 15.003 14.795 15.614 15.208 16.43 15.225 17.561 15.242 18.69 15.225 19.855 15.225 L19.855 1.799 16.895 1.799 C17.033 1.2 17.126 0.684 17.284 0.189 17.324 0.067 17.57 -0.055 17.729 -0.07 18.235 -0.103 18.744 -0.082 19.251 -0.082 L34.117 -0.082 C36.573 -0.082 38.83 0.52 40.639 2.282 42.624 4.213 43.242 6.664 42.997 9.329 42.632 13.351 40.645 15.617 36.738 16.69 36.659 16.717 36.581 16.75 36.506 16.788 37.764 18.25 38.305 20.066 39.125 21.728 40.352 24.204 41.53 26.705 42.659 29.229 43.092 30.198 43.734 30.661 44.769 30.624 45.087 30.613 45.405 30.624 45.811 30.624 45.65 31.303 45.512 31.888 45.385 32.426 43.373 32.426 41.425 32.463 39.482 32.412 38.446 32.385 37.689 31.779 37.223 30.87 36.62 29.696 36.055 28.5 35.492 27.306 34.294 24.77 33.102 22.232 31.917 19.689 31.874 19.597 31.82 19.509 31.783 19.415 31.134 17.749 29.965 16.948 28.145 17.125 27.421 17.197 26.683 17.138 25.906 17.138 L25.906 30.59 28.767 30.59 C28.779 30.633 28.786 30.677 28.791 30.722 28.499 32.503 28.498 32.503 26.728 32.503 L11.862 32.503 C10.496 32.503 9.148 32.365 7.859 31.864 4.771 30.665 3.107 28.358 2.741 25.105 2.516 23.103 2.758 21.16 3.792 19.379 5.01 17.289 6.913 16.195 9.096 15.677 7.272 12.549 5.939 9.166 4.326 5.917 3.874 5.003 3.422 4.097 3.033 3.158 2.667 2.255 2.058 1.795 1.083 1.795 Z" fill="#ffffff" fill-opacity="1" stroke="none"/>
    </g>
    <g id="g100">
     <path id="path102" d="M54.807 1.877 L54.807 7.266 C55.904 7.266 56.966 7.337 58.012 7.247 59.417 7.125 60.171 6.022 60.121 4.331 60.08 2.926 59.185 1.939 57.834 1.882 56.842 1.843 55.846 1.877 54.807 1.877 M51.202 -0.019 L51.965 -0.019 C54.115 -0.005 56.268 -0.059 58.415 0.043 60.486 0.139 61.972 1.528 62.3 3.457 62.701 5.818 61.806 7.628 59.862 8.493 60.507 9.743 61.177 10.986 61.791 12.256 62.129 12.955 62.437 13.615 63.429 13.358 L63.429 15.345 C62.708 15.292 61.988 15.363 61.358 15.153 60.923 15.007 60.512 14.533 60.272 14.103 59.569 12.847 58.932 11.548 58.322 10.244 57.976 9.509 57.486 9.142 56.658 9.206 56.055 9.251 55.447 9.214 54.763 9.214 L54.763 15.278 52.594 15.278 52.594 1.9 51.202 1.9 Z" fill="#ffffff" fill-opacity="1" stroke="none"/>
    </g>
    <g id="g104">
     <path id="path106" d="M54.789 24.47 C55.793 24.47 56.725 24.507 57.653 24.462 59.041 24.394 59.875 23.62 60.091 22.281 60.334 20.812 59.745 19.44 58.555 19.209 57.33 18.97 56.05 19.023 54.786 18.947 Z M54.76 26.348 L54.76 32.391 52.575 32.391 52.575 19.018 51.204 19.018 51.204 17.187 C51.321 17.163 51.441 17.147 51.561 17.139 53.732 17.139 55.905 17.105 58.075 17.148 59.856 17.183 61.301 17.917 61.989 19.639 62.691 21.392 62.585 23.13 61.308 24.623 60.915 25.082 60.333 25.379 59.905 25.7 60.535 26.925 61.194 28.203 61.843 29.481 62.33 30.433 62.319 30.437 63.427 30.595 L63.427 32.39 C62.833 32.39 62.25 32.416 61.67 32.384 61.043 32.35 60.639 31.971 60.363 31.424 59.688 30.077 58.977 28.754 58.337 27.394 57.972 26.629 57.455 26.283 56.617 26.34 56.029 26.379 55.441 26.348 54.76 26.348" fill="#ffffff" fill-opacity="1" stroke="none"/>
    </g>
    <g id="g108">
     <path id="path110" d="M97.585 23.237 L97.585 21.413 C98.468 21.452 99.354 21.44 100.226 21.546 100.9 21.628 101.039 22.197 101.042 22.789 101.051 24.682 101.053 26.575 101.068 28.469 101.074 28.733 101.108 28.995 101.17 29.252 101.393 30.232 101.968 30.69 102.981 30.714 104.839 30.754 106.393 29.302 106.532 27.248 106.639 25.605 106.589 23.953 106.607 22.305 L106.607 21.481 108.72 21.481 108.72 29.579 C108.72 30.591 108.72 30.591 109.718 30.612 109.817 30.612 109.914 30.624 110.046 30.633 L110.046 32.417 C109.255 32.417 108.486 32.462 107.731 32.404 106.999 32.347 106.687 31.933 106.674 31.17 L106.674 30.292 C105.895 31.534 104.968 32.32 103.69 32.565 100.992 33.082 98.965 32.03 98.938 28.752 98.926 27.282 98.938 25.82 98.938 24.354 98.938 23.304 98.938 23.306 97.918 23.274 97.812 23.266 97.716 23.25 97.585 23.237" fill="#ffffff" fill-opacity="1" stroke="none"/>
    </g>
    <g id="g112">
     <path id="path114" d="M87.241 27.004 C87.319 29.234 88.981 30.909 91.053 30.845 93.124 30.78 94.768 28.994 94.708 26.834 94.645 24.639 92.945 22.964 90.854 23.037 88.78 23.102 87.168 24.877 87.241 27.004 M90.96 21.192 C94.324 21.192 96.875 23.682 96.86 26.948 96.846 30.214 94.295 32.688 90.939 32.68 87.584 32.673 85.061 30.17 85.081 26.889 85.101 23.636 87.622 21.189 90.96 21.192" fill="#ffffff" fill-opacity="1" stroke="none"/>
    </g>
    <g id="g116">
     <path id="path118" d="M118.145 8.466 L123.778 8.466 C123.746 6.933 122.803 5.836 121.497 5.772 119.718 5.674 118.339 6.767 118.144 8.466 Z M125.944 10.075 L117.994 10.075 C118.102 11.474 118.648 12.572 119.855 13.212 121.683 14.184 123.341 13.628 124.927 12.433 L125.848 13.933 C124.428 15.134 122.827 15.692 121.004 15.513 116.091 15.03 114.775 10.046 116.531 6.76 118.115 3.807 122.463 3.07 124.648 5.394 125.864 6.688 126.126 8.278 125.944 10.075" fill="#ffffff" fill-opacity="1" stroke="none"/>
    </g>
    <g id="g120">
     <path id="path122" d="M71.915 8.462 C71.955 7.053 71.012 5.89 69.758 5.776 67.95 5.607 66.541 6.684 66.288 8.462 Z M73.079 12.439 L73.985 13.908 C73.191 14.663 72.258 15.104 71.228 15.361 67.918 16.188 64.805 14.33 64.082 11.1 63.484 8.421 64.657 5.681 66.911 4.609 69.908 3.186 74.144 4.225 74.151 9.242 74.151 9.487 74.122 9.732 74.101 10.043 L66.205 10.043 C66.155 11.672 67.229 13.121 68.797 13.538 70.407 13.989 71.781 13.415 73.079 12.439" fill="#ffffff" fill-opacity="1" stroke="none"/>
    </g>
    <g id="g124">
     <path id="path126" d="M94.524 8.467 C94.445 6.729 93.457 5.743 91.886 5.766 90.289 5.789 88.933 7.012 88.916 8.467 Z M96.575 13.908 C93.624 16.653 88.055 15.973 86.773 11.503 85.986 8.756 87.111 5.776 89.472 4.645 91.29 3.774 93.128 3.729 94.85 4.914 96.302 5.918 96.997 7.988 96.65 10.058 L88.729 10.058 C88.851 11.492 89.399 12.604 90.654 13.242 92.482 14.169 94.111 13.61 95.668 12.433 95.974 12.923 96.273 13.405 96.575 13.908" fill="#ffffff" fill-opacity="1" stroke="none"/>
    </g>
    <g id="g128">
     <path id="path130" d="M71.889 25.617 C72.011 24.196 70.956 22.969 69.595 22.902 67.844 22.817 66.35 24.046 66.328 25.617 Z M73.086 29.583 L73.987 31.06 C73.214 31.795 72.302 32.233 71.291 32.494 67.949 33.352 64.739 31.528 64.102 28.253 63.182 23.524 66.691 20.552 70.578 21.309 72.547 21.693 73.964 23.419 74.124 25.651 74.158 26.133 74.124 26.619 74.124 27.178 L66.176 27.178 C66.2 28.475 66.669 29.478 67.666 30.14 69.58 31.412 71.368 30.849 73.086 29.583" fill="#ffffff" fill-opacity="1" stroke="none"/>
    </g>
    <g id="g132">
     <path id="path134" d="M137.9 25.619 C137.842 23.93 136.832 22.887 135.341 22.895 133.714 22.905 132.338 24.12 132.302 25.619 Z M139.058 29.578 L139.964 31.061 C138.989 31.964 137.841 32.437 136.552 32.638 134.053 33.031 131.597 31.788 130.51 29.576 129.392 27.3 129.876 24.31 131.634 22.621 133.108 21.208 135.643 20.743 137.483 21.612 139.323 22.48 139.992 24.061 140.114 25.968 140.126 26.192 140.126 26.416 140.114 26.64 140.106 26.802 140.076 26.962 140.047 27.183 L132.134 27.183 C132.212 28.524 132.693 29.577 133.794 30.245 135.66 31.368 137.371 30.823 139.058 29.578" fill="#ffffff" fill-opacity="1" stroke="none"/>
    </g>
    <g id="g136">
     <path id="path138" d="M114.202 7.207 L112.411 7.207 C112.421 6.594 112.261 6.09 111.592 5.912 110.755 5.689 109.934 5.68 109.193 6.176 108.625 6.554 108.553 7.3 109.061 7.753 109.435 8.062 109.849 8.317 110.292 8.511 111.267 8.974 112.279 9.337 113.216 9.858 114.234 10.418 114.768 11.344 114.679 12.539 114.59 13.735 113.961 14.646 112.858 15.068 112.084 15.359 111.267 15.517 110.441 15.535 108.824 15.573 107.166 14.737 106.304 13.59 L107.361 12.185 C107.531 12.343 107.668 12.481 107.814 12.609 108.811 13.466 109.931 13.971 111.278 13.732 111.87 13.628 112.361 13.352 112.512 12.712 112.673 12.035 112.285 11.617 111.746 11.344 111.077 11.007 110.371 10.746 109.7 10.416 109.028 10.085 108.359 9.803 107.787 9.367 105.948 7.99 106.273 5.37 108.396 4.481 109.902 3.848 111.452 3.887 112.965 4.481 114.111 4.93 114.485 5.8 114.202 7.207" fill="#ffffff" fill-opacity="1" stroke="none"/>
    </g>
    <g id="g140">
     <path id="path142" d="M83.385 24.343 L81.52 24.343 C81.581 23.73 81.412 23.227 80.739 23.043 79.9 22.816 79.079 22.82 78.34 23.315 77.731 23.725 77.716 24.568 78.34 25.024 78.809 25.363 79.366 25.584 79.893 25.839 80.767 26.263 81.709 26.574 82.514 27.102 84.341 28.298 84.266 30.802 82.431 31.992 80.398 33.311 76.861 32.678 75.458 30.71 L76.51 29.334 C77.325 30.137 78.207 30.804 79.347 30.892 79.887 30.944 80.432 30.875 80.942 30.688 81.879 30.313 81.983 29.218 81.137 28.667 80.515 28.262 79.796 28.019 79.126 27.673 78.322 27.253 77.458 26.898 76.754 26.343 75.279 25.185 75.413 22.877 77.022 21.925 78.812 20.868 80.704 20.923 82.541 21.859 83.547 22.37 83.465 23.341 83.385 24.343" fill="#ffffff" fill-opacity="1" stroke="none"/>
    </g>
    <g id="g144">
     <path id="path146" d="M149.373 24.343 L147.545 24.343 C147.423 23.291 147.046 22.929 145.971 22.918 145.525 22.907 145.081 22.979 144.66 23.128 143.708 23.485 143.563 24.497 144.388 25.075 144.913 25.442 145.536 25.666 146.121 25.941 146.852 26.285 147.621 26.567 148.32 26.967 149.375 27.58 149.918 28.515 149.797 29.762 149.675 30.941 149.015 31.738 147.969 32.23 146.002 33.151 143.192 32.624 141.696 31.077 141.468 30.841 141.432 30.667 141.655 30.411 141.945 30.078 142.201 29.715 142.5 29.33 143.327 30.155 144.215 30.82 145.356 30.887 145.954 30.926 146.552 30.817 147.1 30.572 147.88 30.195 147.922 29.216 147.207 28.721 146.663 28.344 146.027 28.108 145.431 27.803 144.619 27.395 143.768 27.047 143.002 26.564 142.027 25.952 141.619 24.993 141.775 23.834 141.931 22.676 142.617 21.964 143.657 21.565 144.979 21.059 146.435 21.036 147.772 21.499 149.156 21.957 149.538 22.644 149.373 24.343" fill="#ffffff" fill-opacity="1" stroke="none"/>
    </g>
    <g id="g148">
     <path id="path150" d="M128.539 24.708 L126.75 24.708 C126.492 23.329 125.517 22.76 123.959 23.078 121.943 23.483 120.669 25.342 120.97 27.446 121.275 29.603 122.979 30.968 125.113 30.776 126.296 30.67 127.262 30.106 128.166 29.296 128.483 29.812 128.775 30.289 129.09 30.801 127.729 32.176 126.106 32.76 124.229 32.682 121.45 32.566 119.21 30.584 118.853 27.928 118.452 24.933 119.896 22.424 122.544 21.53 123.861 21.077 125.288 21.067 126.611 21.501 128.294 22.038 128.807 22.883 128.539 24.708" fill="#ffffff" fill-opacity="1" stroke="none"/>
    </g>
    <g id="g152">
     <path id="path154" d="M75.037 6.13 L75.037 4.303 C75.646 4.334 76.272 4.316 76.875 4.41 77.421 4.494 77.62 4.987 77.794 5.454 78.255 6.692 78.726 7.927 79.181 9.166 79.635 10.406 80.084 11.644 80.521 12.84 81.351 10.578 82.198 8.267 83.047 5.957 83.13 5.728 83.215 5.498 83.305 5.272 83.556 4.633 84.016 4.307 84.709 4.32 85.094 4.328 85.479 4.32 85.909 4.32 L85.909 6.112 C85.272 6.05 85.049 6.465 84.857 6.98 83.882 9.587 82.878 12.183 81.903 14.79 81.763 15.167 81.594 15.354 81.163 15.313 80.698 15.273 80.23 15.273 79.764 15.313 79.366 15.345 79.208 15.175 79.074 14.823 78.079 12.201 77.061 9.588 76.055 6.969 75.872 6.491 75.712 6.013 75.037 6.13" fill="#ffffff" fill-opacity="1" stroke="none"/>
    </g>
    <g id="g156">
     <path id="path158" d="M97.945 6.096 L97.945 4.382 C98.81 4.382 99.674 4.33 100.528 4.4 101.051 4.443 101.31 4.87 101.324 5.403 101.332 5.801 101.324 6.199 101.375 6.628 102.228 5.046 103.363 4.008 105.312 4.226 L105.312 6.151 C104.665 6.297 104.012 6.326 103.473 6.59 102.011 7.303 101.517 8.658 101.443 10.168 101.373 11.632 101.415 13.1 101.409 14.567 L101.409 15.263 99.296 15.263 99.296 7.193 C99.296 6.164 99.296 6.165 98.253 6.13 98.174 6.128 98.093 6.113 97.945 6.096" fill="#ffffff" fill-opacity="1" stroke="none"/>
    </g>
    <g id="g160">
     <path id="path162" d="M110.941 23.25 L110.941 21.474 C111.754 21.474 112.543 21.427 113.322 21.489 113.974 21.541 114.278 21.929 114.319 22.591 114.342 22.969 114.319 23.348 114.369 23.751 115.208 22.159 116.36 21.147 118.306 21.352 L118.306 23.378 C115.57 23.591 114.399 24.983 114.368 28.068 114.355 29.493 114.368 30.917 114.368 32.39 L112.273 32.39 112.273 31.778 112.273 24.265 C112.273 23.286 112.273 23.286 111.291 23.271 111.192 23.268 111.094 23.259 110.941 23.25" fill="#ffffff" fill-opacity="1" stroke="none"/>
    </g>
   </g>
  </g>
  <g id="g164">
   <g id="g166">
    <g id="g172">
     <path id="path174" d="M36.477 14.812 C37.341 14.677 38.043 14.267 38.708 13.774 41.618 11.616 41.595 5.928 39.195 3.665 38.415 2.93 37.268 2.291 36.433 2.224 38.312 3.938 39.101 6.064 39.097 8.516 39.092 10.968 38.304 13.095 36.477 14.812 M9.194 30.192 C7.394 28.448 6.615 26.329 6.621 23.863 6.627 21.396 7.474 19.283 9.268 17.557 7.398 18.075 6.005 19.133 5.301 20.953 4.588 22.773 4.555 24.791 5.209 26.634 5.859 28.548 7.279 29.665 9.194 30.192 M12.745 15.207 C12.552 14.865 12.38 14.594 12.239 14.306 10.477 10.583 8.706 6.865 6.978 3.125 6.521 2.134 5.831 1.718 4.751 1.82 4.794 1.942 4.825 2.058 4.872 2.165 6.28 5.159 7.675 8.155 9.102 11.142 9.589 12.166 10.097 13.185 10.664 14.165 11.092 14.908 11.794 15.251 12.745 15.211 Z M32.957 17.166 C33.187 17.597 33.404 17.961 33.584 18.342 35.329 22.031 37.071 25.721 38.812 29.413 39.281 30.406 39.853 30.704 40.968 30.547 39.75 27.951 38.543 25.358 37.313 22.776 36.61 21.291 35.895 19.811 35.133 18.352 34.703 17.535 33.949 17.167 32.957 17.166 M21.928 30.567 L23.771 30.567 23.771 1.807 21.928 1.807 Z M25.913 1.764 L25.913 15.189 C27.77 15.189 29.584 15.312 31.375 15.161 34.24 14.922 36.2 13.159 36.777 10.424 36.953 9.506 37.01 8.568 36.946 7.636 36.791 4.758 35.095 2.705 32.347 2.047 30.23 1.541 28.074 1.85 25.913 1.764 M19.843 30.509 L19.843 17.177 C18.093 17.177 16.385 17.085 14.689 17.197 11.714 17.391 9.676 19.024 9.007 21.694 8.802 22.564 8.71 23.458 8.736 24.353 8.796 27.761 10.808 30.117 14.15 30.476 16.013 30.671 17.914 30.509 19.843 30.509 M-0.111 1.795 C0.052 1.115 0.188 0.546 0.354 -0.141 2.412 -0.079 4.479 -0.062 6.538 0.067 7.535 0.129 8.16 0.859 8.583 1.716 9.327 3.23 10.045 4.756 10.766 6.282 11.817 8.505 12.856 10.734 13.911 12.955 14.104 13.359 14.324 13.749 14.568 14.123 15.003 14.795 15.614 15.208 16.43 15.225 17.561 15.242 18.69 15.225 19.855 15.225 L19.855 1.799 16.895 1.799 C17.033 1.2 17.126 0.684 17.284 0.189 17.324 0.067 17.57 -0.055 17.729 -0.07 18.235 -0.103 18.744 -0.082 19.251 -0.082 L34.117 -0.082 C36.573 -0.082 38.83 0.52 40.639 2.282 42.624 4.213 43.242 6.664 42.997 9.329 42.632 13.351 40.645 15.617 36.738 16.69 36.659 16.717 36.581 16.75 36.506 16.788 37.764 18.25 38.305 20.066 39.125 21.728 40.352 24.204 41.53 26.705 42.659 29.229 43.092 30.198 43.734 30.661 44.769 30.624 45.087 30.613 45.405 30.624 45.811 30.624 45.65 31.303 45.512 31.888 45.385 32.426 43.373 32.426 41.425 32.463 39.482 32.412 38.446 32.385 37.689 31.779 37.223 30.87 36.62 29.696 36.055 28.5 35.492 27.306 34.294 24.77 33.102 22.232 31.917 19.689 31.874 19.597 31.82 19.509 31.783 19.415 31.134 17.749 29.965 16.948 28.145 17.125 27.421 17.197 26.683 17.138 25.906 17.138 L25.906 30.59 28.767 30.59 C28.779 30.633 28.786 30.677 28.791 30.722 28.499 32.503 28.498 32.503 26.728 32.503 L11.862 32.503 C10.496 32.503 9.148 32.365 7.859 31.864 4.771 30.665 3.107 28.358 2.741 25.105 2.516 23.103 2.758 21.16 3.792 19.379 5.01 17.289 6.913 16.195 9.096 15.677 7.272 12.549 5.939 9.166 4.326 5.917 3.874 5.003 3.422 4.097 3.033 3.158 2.667 2.255 2.058 1.795 1.083 1.795 Z" fill="#2e4964" fill-opacity="1" stroke="none"/>
    </g>
    <g id="g176">
     <path id="path178" d="M54.807 1.877 L54.807 7.266 C55.904 7.266 56.966 7.337 58.012 7.247 59.417 7.125 60.171 6.022 60.121 4.331 60.08 2.926 59.185 1.939 57.834 1.882 56.842 1.843 55.846 1.877 54.807 1.877 M51.202 -0.019 L51.965 -0.019 C54.115 -0.005 56.268 -0.059 58.415 0.043 60.486 0.139 61.972 1.528 62.3 3.457 62.701 5.818 61.806 7.628 59.862 8.493 60.507 9.743 61.177 10.986 61.791 12.256 62.129 12.955 62.437 13.615 63.429 13.358 L63.429 15.345 C62.708 15.292 61.988 15.363 61.358 15.153 60.923 15.007 60.512 14.533 60.272 14.103 59.569 12.847 58.932 11.548 58.322 10.244 57.976 9.509 57.486 9.142 56.658 9.206 56.055 9.251 55.447 9.214 54.763 9.214 L54.763 15.278 52.594 15.278 52.594 1.9 51.202 1.9 Z" fill="#2e4964" fill-opacity="1" stroke="none"/>
    </g>
    <g id="g180">
     <path id="path182" d="M54.789 24.47 C55.793 24.47 56.725 24.507 57.653 24.462 59.041 24.394 59.875 23.62 60.091 22.281 60.334 20.812 59.745 19.44 58.555 19.209 57.33 18.97 56.05 19.023 54.786 18.947 Z M54.76 26.348 L54.76 32.391 52.575 32.391 52.575 19.018 51.204 19.018 51.204 17.187 C51.321 17.163 51.441 17.147 51.561 17.139 53.732 17.139 55.905 17.105 58.075 17.148 59.856 17.183 61.301 17.917 61.989 19.639 62.691 21.392 62.585 23.13 61.308 24.623 60.915 25.082 60.333 25.379 59.905 25.7 60.535 26.925 61.194 28.203 61.843 29.481 62.33 30.433 62.319 30.437 63.427 30.595 L63.427 32.39 C62.833 32.39 62.25 32.416 61.67 32.384 61.043 32.35 60.639 31.971 60.363 31.424 59.688 30.077 58.977 28.754 58.337 27.394 57.972 26.629 57.455 26.283 56.617 26.34 56.029 26.379 55.441 26.348 54.76 26.348" fill="#2e4964" fill-opacity="1" stroke="none"/>
    </g>
    <g id="g184">
     <path id="path186" d="M97.585 23.237 L97.585 21.413 C98.468 21.452 99.354 21.44 100.226 21.546 100.9 21.628 101.039 22.197 101.042 22.789 101.051 24.682 101.053 26.575 101.068 28.469 101.074 28.733 101.108 28.995 101.17 29.252 101.393 30.232 101.968 30.69 102.981 30.714 104.839 30.754 106.393 29.302 106.532 27.248 106.639 25.605 106.589 23.953 106.607 22.305 L106.607 21.481 108.72 21.481 108.72 29.579 C108.72 30.591 108.72 30.591 109.718 30.612 109.817 30.612 109.914 30.624 110.046 30.633 L110.046 32.417 C109.255 32.417 108.486 32.462 107.731 32.404 106.999 32.347 106.687 31.933 106.674 31.17 L106.674 30.292 C105.895 31.534 104.968 32.32 103.69 32.565 100.992 33.082 98.965 32.03 98.938 28.752 98.926 27.282 98.938 25.82 98.938 24.354 98.938 23.304 98.938 23.306 97.918 23.274 97.812 23.266 97.716 23.25 97.585 23.237" fill="#2e4964" fill-opacity="1" stroke="none"/>
    </g>
    <g id="g188">
     <path id="path190" d="M87.241 27.004 C87.319 29.234 88.981 30.909 91.053 30.845 93.124 30.78 94.768 28.994 94.708 26.834 94.645 24.639 92.945 22.964 90.854 23.037 88.78 23.102 87.168 24.877 87.241 27.004 M90.96 21.192 C94.324 21.192 96.875 23.682 96.86 26.948 96.846 30.214 94.295 32.688 90.939 32.68 87.584 32.673 85.061 30.17 85.081 26.889 85.101 23.636 87.622 21.189 90.96 21.192" fill="#2e4964" fill-opacity="1" stroke="none"/>
    </g>
    <g id="g192">
     <path id="path194" d="M118.145 8.466 L123.778 8.466 C123.746 6.933 122.803 5.836 121.497 5.772 119.718 5.674 118.339 6.767 118.144 8.466 Z M125.944 10.075 L117.994 10.075 C118.102 11.474 118.648 12.572 119.855 13.212 121.683 14.184 123.341 13.628 124.927 12.433 L125.848 13.933 C124.428 15.134 122.827 15.692 121.004 15.513 116.091 15.03 114.775 10.046 116.531 6.76 118.115 3.807 122.463 3.07 124.648 5.394 125.864 6.688 126.126 8.278 125.944 10.075" fill="#2e4964" fill-opacity="1" stroke="none"/>
    </g>
    <g id="g196">
     <path id="path198" d="M71.915 8.462 C71.955 7.053 71.012 5.89 69.758 5.776 67.95 5.607 66.541 6.684 66.288 8.462 Z M73.079 12.439 L73.985 13.908 C73.191 14.663 72.258 15.104 71.228 15.361 67.918 16.188 64.805 14.33 64.082 11.1 63.484 8.421 64.657 5.681 66.911 4.609 69.908 3.186 74.144 4.225 74.151 9.242 74.151 9.487 74.122 9.732 74.101 10.043 L66.205 10.043 C66.155 11.672 67.229 13.121 68.797 13.538 70.407 13.989 71.781 13.415 73.079 12.439" fill="#2e4964" fill-opacity="1" stroke="none"/>
    </g>
    <g id="g200">
     <path id="path202" d="M94.524 8.467 C94.445 6.729 93.457 5.743 91.886 5.766 90.289 5.789 88.933 7.012 88.916 8.467 Z M96.575 13.908 C93.624 16.653 88.055 15.973 86.773 11.503 85.986 8.756 87.111 5.776 89.472 4.645 91.29 3.774 93.128 3.729 94.85 4.914 96.302 5.918 96.997 7.988 96.65 10.058 L88.729 10.058 C88.851 11.492 89.399 12.604 90.654 13.242 92.482 14.169 94.111 13.61 95.668 12.433 95.974 12.923 96.273 13.405 96.575 13.908" fill="#2e4964" fill-opacity="1" stroke="none"/>
    </g>
    <g id="g204">
     <path id="path206" d="M71.889 25.617 C72.011 24.196 70.956 22.969 69.595 22.902 67.844 22.817 66.35 24.046 66.328 25.617 Z M73.086 29.583 L73.987 31.06 C73.214 31.795 72.302 32.233 71.291 32.494 67.949 33.352 64.739 31.528 64.102 28.253 63.182 23.524 66.691 20.552 70.578 21.309 72.547 21.693 73.964 23.419 74.124 25.651 74.158 26.133 74.124 26.619 74.124 27.178 L66.176 27.178 C66.2 28.475 66.669 29.478 67.666 30.14 69.58 31.412 71.368 30.849 73.086 29.583" fill="#2e4964" fill-opacity="1" stroke="none"/>
    </g>
    <g id="g208">
     <path id="path210" d="M137.9 25.619 C137.842 23.93 136.832 22.887 135.341 22.895 133.714 22.905 132.338 24.12 132.302 25.619 Z M139.058 29.578 L139.964 31.061 C138.989 31.964 137.841 32.437 136.552 32.638 134.053 33.031 131.597 31.788 130.51 29.576 129.392 27.3 129.876 24.31 131.634 22.621 133.108 21.208 135.643 20.743 137.483 21.612 139.323 22.48 139.992 24.061 140.114 25.968 140.126 26.192 140.126 26.416 140.114 26.64 140.106 26.802 140.076 26.962 140.047 27.183 L132.134 27.183 C132.212 28.524 132.693 29.577 133.794 30.245 135.66 31.368 137.371 30.823 139.058 29.578" fill="#2e4964" fill-opacity="1" stroke="none"/>
    </g>
    <g id="g212">
     <path id="path214" d="M114.202 7.207 L112.411 7.207 C112.421 6.594 112.261 6.09 111.592 5.912 110.755 5.689 109.934 5.68 109.193 6.176 108.625 6.554 108.553 7.3 109.061 7.753 109.435 8.062 109.849 8.317 110.292 8.511 111.267 8.974 112.279 9.337 113.216 9.858 114.234 10.418 114.768 11.344 114.679 12.539 114.59 13.735 113.961 14.646 112.858 15.068 112.084 15.359 111.267 15.517 110.441 15.535 108.824 15.573 107.166 14.737 106.304 13.59 L107.361 12.185 C107.531 12.343 107.668 12.481 107.814 12.609 108.811 13.466 109.931 13.971 111.278 13.732 111.87 13.628 112.361 13.352 112.512 12.712 112.673 12.035 112.285 11.617 111.746 11.344 111.077 11.007 110.371 10.746 109.7 10.416 109.028 10.085 108.359 9.803 107.787 9.367 105.948 7.99 106.273 5.37 108.396 4.481 109.902 3.848 111.452 3.887 112.965 4.481 114.111 4.93 114.485 5.8 114.202 7.207" fill="#2e4964" fill-opacity="1" stroke="none"/>
    </g>
    <g id="g216">
     <path id="path218" d="M83.385 24.343 L81.52 24.343 C81.581 23.73 81.412 23.227 80.739 23.043 79.9 22.816 79.079 22.82 78.34 23.315 77.731 23.725 77.716 24.568 78.34 25.024 78.809 25.363 79.366 25.584 79.893 25.839 80.767 26.263 81.709 26.574 82.514 27.102 84.341 28.298 84.266 30.802 82.431 31.992 80.398 33.311 76.861 32.678 75.458 30.71 L76.51 29.334 C77.325 30.137 78.207 30.804 79.347 30.892 79.887 30.944 80.432 30.875 80.942 30.688 81.879 30.313 81.983 29.218 81.137 28.667 80.515 28.262 79.796 28.019 79.126 27.673 78.322 27.253 77.458 26.898 76.754 26.343 75.279 25.185 75.413 22.877 77.022 21.925 78.812 20.868 80.704 20.923 82.541 21.859 83.547 22.37 83.465 23.341 83.385 24.343" fill="#2e4964" fill-opacity="1" stroke="none"/>
    </g>
    <g id="g220">
     <path id="path222" d="M149.373 24.343 L147.545 24.343 C147.423 23.291 147.046 22.929 145.971 22.918 145.525 22.907 145.081 22.979 144.66 23.128 143.708 23.485 143.563 24.497 144.388 25.075 144.913 25.442 145.536 25.666 146.121 25.941 146.852 26.285 147.621 26.567 148.32 26.967 149.375 27.58 149.918 28.515 149.797 29.762 149.675 30.941 149.015 31.738 147.969 32.23 146.002 33.151 143.192 32.624 141.696 31.077 141.468 30.841 141.432 30.667 141.655 30.411 141.945 30.078 142.201 29.715 142.5 29.33 143.327 30.155 144.215 30.82 145.356 30.887 145.954 30.926 146.552 30.817 147.1 30.572 147.88 30.195 147.922 29.216 147.207 28.721 146.663 28.344 146.027 28.108 145.431 27.803 144.619 27.395 143.768 27.047 143.002 26.564 142.027 25.952 141.619 24.993 141.775 23.834 141.931 22.676 142.617 21.964 143.657 21.565 144.979 21.059 146.435 21.036 147.772 21.499 149.156 21.957 149.538 22.644 149.373 24.343" fill="#2e4964" fill-opacity="1" stroke="none"/>
    </g>
    <g id="g224">
     <path id="path226" d="M128.539 24.708 L126.75 24.708 C126.492 23.329 125.517 22.76 123.959 23.078 121.943 23.483 120.669 25.342 120.97 27.446 121.275 29.603 122.979 30.968 125.113 30.776 126.296 30.67 127.262 30.106 128.166 29.296 128.483 29.812 128.775 30.289 129.09 30.801 127.729 32.176 126.106 32.76 124.229 32.682 121.45 32.566 119.21 30.584 118.853 27.928 118.452 24.933 119.896 22.424 122.544 21.53 123.861 21.077 125.288 21.067 126.611 21.501 128.294 22.038 128.807 22.883 128.539 24.708" fill="#2e4964" fill-opacity="1" stroke="none"/>
    </g>
    <g id="g228">
     <path id="path230" d="M75.037 6.13 L75.037 4.303 C75.646 4.334 76.272 4.316 76.875 4.41 77.421 4.494 77.62 4.987 77.794 5.454 78.255 6.692 78.726 7.927 79.181 9.166 79.635 10.406 80.084 11.644 80.521 12.84 81.351 10.578 82.198 8.267 83.047 5.957 83.13 5.728 83.215 5.498 83.305 5.272 83.556 4.633 84.016 4.307 84.709 4.32 85.094 4.328 85.479 4.32 85.909 4.32 L85.909 6.112 C85.272 6.05 85.049 6.465 84.857 6.98 83.882 9.587 82.878 12.183 81.903 14.79 81.763 15.167 81.594 15.354 81.163 15.313 80.698 15.273 80.23 15.273 79.764 15.313 79.366 15.345 79.208 15.175 79.074 14.823 78.079 12.201 77.061 9.588 76.055 6.969 75.872 6.491 75.712 6.013 75.037 6.13" fill="#2e4964" fill-opacity="1" stroke="none"/>
    </g>
    <g id="g232">
     <path id="path234" d="M97.945 6.096 L97.945 4.382 C98.81 4.382 99.674 4.33 100.528 4.4 101.051 4.443 101.31 4.87 101.324 5.403 101.332 5.801 101.324 6.199 101.375 6.628 102.228 5.046 103.363 4.008 105.312 4.226 L105.312 6.151 C104.665 6.297 104.012 6.326 103.473 6.59 102.011 7.303 101.517 8.658 101.443 10.168 101.373 11.632 101.415 13.1 101.409 14.567 L101.409 15.263 99.296 15.263 99.296 7.193 C99.296 6.164 99.296 6.165 98.253 6.13 98.174 6.128 98.093 6.113 97.945 6.096" fill="#2e4964" fill-opacity="1" stroke="none"/>
    </g>
    <g id="g236">
     <path id="path238" d="M110.941 23.25 L110.941 21.474 C111.754 21.474 112.543 21.427 113.322 21.489 113.974 21.541 114.278 21.929 114.319 22.591 114.342 22.969 114.319 23.348 114.369 23.751 115.208 22.159 116.36 21.147 118.306 21.352 L118.306 23.378 C115.57 23.591 114.399 24.983 114.368 28.068 114.355 29.493 114.368 30.917 114.368 32.39 L112.273 32.39 112.273 31.778 112.273 24.265 C112.273 23.286 112.273 23.286 111.291 23.271 111.192 23.268 111.094 23.259 110.941 23.25" fill="#2e4964" fill-opacity="1" stroke="none"/>
    </g>
   </g>
  </g>
 </g>
</svg>
