<?xml version="1.0" encoding="UTF-8"?>
<!-- Generated by Pixelmator Pro 3.7.1 -->
<svg width="150" height="45" viewBox="0 0 150 45" xmlns="http://www.w3.org/2000/svg">
    <clipPath id="clipPath1">
        <path d="M 0 0 L 150 0 L 150 45 L 0 45 Z"/>
    </clipPath>
    <g id="Group" clip-path="url(#clipPath1)">
        <path id="Path" fill="#0f172a" stroke="none" d="M 65.160744 13.555086 C 62.588245 12.1959 59.704872 11.516323 56.511375 11.516323 C 53.317497 11.516323 50.431496 12.1959 47.861622 13.555086 C 45.28875 14.914276 43.263374 16.864277 41.78175 19.405088 C 41.517372 19.858164 41.286751 20.326538 41.068501 20.804064 C 41.139374 20.084702 41.154751 19.362265 41.099251 18.633677 C 40.927124 16.380598 40.054123 14.256111 38.483624 12.263248 C 36.912899 10.270428 34.669048 8.580601 31.748962 7.19389 L 16.607588 0 L -0 34.668373 L 9.021524 38.957253 L 14.631149 27.247952 L 16.795088 28.276537 L 26.640375 44.130749 L 36.805313 44.130749 L 28.632187 32.225513 C 30.836061 32.271412 32.815575 31.812263 34.570686 30.851025 C 36.863735 29.595938 38.597252 27.753077 39.771374 25.328588 C 39.636375 26.259188 39.5625 27.223463 39.5625 28.227562 C 39.5625 31.604061 40.294125 34.555084 41.754002 37.07449 C 43.214249 39.597 45.221249 41.537624 47.775749 42.896999 C 50.326874 44.256001 53.200874 44.935875 56.397377 44.935875 C 59.59425 44.935875 62.486622 44.256001 65.077873 42.896999 C 67.669128 41.537624 69.713249 39.587624 71.216248 37.046925 C 72.716248 34.506111 73.466248 31.567352 73.466248 28.227562 C 73.466248 24.887739 72.72525 21.948977 71.243996 19.408161 C 69.762375 16.86735 67.736626 14.917351 65.16375 13.558165 L 65.160744 13.555086 Z M 30.439535 21.278587 C 29.735661 22.751024 28.776638 23.690813 27.5625 24.104061 C 26.348362 24.517351 24.915974 24.330601 23.265375 23.543888 L 17.674162 20.886749 L 22.054312 11.745937 L 27.645487 14.403076 C 29.299164 15.189789 30.34425 16.181625 30.786898 17.378586 C 31.226437 18.578588 31.1127 19.876539 30.439535 21.278587 Z M 61.272377 34.221413 C 59.929127 35.617348 58.300121 36.318375 56.391373 36.318375 C 54.482624 36.318375 52.893372 35.620426 51.626999 34.221413 C 50.360622 32.825512 49.727623 30.826538 49.727623 28.224487 C 49.727623 25.622438 50.370003 23.577562 51.654751 22.200001 C 52.939499 20.822439 54.556496 20.133677 56.504997 20.133677 C 58.453873 20.133677 60.021378 20.831623 61.327873 22.2306 C 62.634373 23.626537 63.285748 25.62859 63.285748 28.227562 C 63.285748 30.826538 62.612621 32.825512 61.269371 34.224487 L 61.272377 34.221413 Z"/>
        <path id="path1" fill="#0f172a" stroke="none" d="M 73.459877 1.276543 L 73.459877 28.224487 L 73.459877 44.354248 L 83.455872 44.354248 L 83.455872 28.224487 L 83.455872 1.276543 L 73.459877 1.276543 Z"/>
        <path id="path2" fill="#0f172a" stroke="none" d="M 147.565491 19.405088 C 146.083878 16.864277 144.058502 14.914274 141.485626 13.555086 C 138.91275 12.1959 136.029755 11.516323 132.836258 11.516323 C 129.64238 11.516323 126.755997 12.1959 124.186501 13.555086 C 121.613625 14.914274 119.588249 16.864277 118.106621 19.405088 C 117.04612 21.223463 116.373001 23.246923 116.071869 25.472437 C 115.822868 23.124487 115.17112 21.012224 114.113625 19.141836 C 112.730621 16.6959 110.8125 14.816324 108.356621 13.493889 C 105.900749 12.174488 103.097244 11.513248 99.940498 11.513248 C 96.783745 11.513248 93.842247 12.19286 91.349251 13.55205 C 88.853622 14.91124 86.91713 16.852049 85.533745 19.374487 C 84.150749 21.896925 83.458878 24.844873 83.458878 28.224485 C 83.458878 31.604061 84.159744 34.552052 85.564499 37.071411 C 86.966248 39.594002 88.915123 41.534626 91.410744 42.894001 C 93.903748 44.253002 96.75 44.932499 99.943497 44.932499 C 102.593246 44.932499 104.990623 44.449123 107.133369 43.478626 C 109.275749 42.508125 111.058502 41.170502 112.481621 39.462376 C 113.904747 37.75425 114.888367 35.834698 115.432503 33.697948 L 104.794121 33.697948 C 103.819496 35.794914 102.08625 36.841839 99.590248 36.841839 C 97.915123 36.841839 96.500999 36.309189 95.35125 35.240814 C 94.201874 34.17551 93.550125 32.632652 93.393372 30.612225 L 116.013367 30.612225 C 116.013367 30.612225 116.013367 30.606113 116.013367 30.599998 C 116.280746 33.003036 116.966248 35.161201 118.075867 37.071411 C 119.535744 39.594002 121.543121 41.534626 124.097244 42.894001 C 126.648376 44.253002 129.522369 44.932499 132.719254 44.932499 C 135.916122 44.932499 138.808502 44.253002 141.39975 42.894001 C 143.990631 41.534626 146.034744 39.584625 147.53775 37.043888 C 149.03775 34.503036 149.78775 31.564276 149.78775 28.224485 C 149.78775 24.884699 149.047134 21.9459 147.565491 19.405088 Z M 93.451874 25.080599 C 93.72525 23.295898 94.435501 21.918375 95.584877 20.947948 C 96.734627 19.977562 98.145378 19.493889 99.823868 19.493889 C 101.501999 19.493889 103.038742 19.998974 104.206879 21.006113 C 105.375 22.016325 105.958878 23.372437 105.958878 25.080599 L 93.448875 25.080599 L 93.451874 25.080599 Z M 137.597244 34.221413 C 136.253998 35.617348 134.625 36.318375 132.716248 36.318375 C 130.807495 36.318375 129.218246 35.620388 127.951866 34.221413 C 126.685501 32.825512 126.052124 30.826538 126.052124 28.224485 C 126.052124 25.622437 126.694496 23.577562 127.98262 22.200001 C 129.26738 20.822439 130.884369 20.133677 132.83287 20.133677 C 134.781754 20.133677 136.349243 20.831623 137.655746 22.2306 C 138.96225 23.626537 139.613632 25.628548 139.613632 28.227562 C 139.613632 30.826538 138.940491 32.825512 137.597244 34.224487 L 137.597244 34.221413 Z"/>
    </g>
</svg>
