<?xml version="1.0" encoding="UTF-8"?>
<svg width="100px" height="68px" viewBox="0 0 100 68" version="1.1" xmlns="http://www.w3.org/2000/svg" xmlns:xlink="http://www.w3.org/1999/xlink">
    <title>sensus-septima</title>
    <g id="Page-1" stroke="none" stroke-width="1" fill="none" fill-rule="evenodd">
        <g id="sensus-septima" fill="#231F20" fill-rule="nonzero">
            <path d="M49.8972603,31.390411 L56.4589041,26.1712329 C54.5410959,25.0136986 52.2945205,24.3424658 49.8835616,24.3424658 C47.4589041,24.3424658 45.1917808,25.0273973 43.260274,26.2054795 L49.8972603,31.390411 Z" id="Path"></path>
            <path d="M49.8561644,46.2808219 C49.0821918,45.5616438 48.4726027,44.9931507 47.8493151,44.4109589 C48.5342466,43.2534247 49.2054795,42.2260274 49.890411,41.0684932 C50.5821918,42.2123288 51.1438356,43.2260274 51.8561644,44.4041096 C51.239726,44.9726027 50.6369863,45.5410959 49.8561644,46.2808219 Z" id="Path"></path>
            <path d="M51.6986301,55.4589041 C51.0479452,56.2465753 50.5616438,56.9041096 49.890411,57.7123288 C49.890411,57.7123288 49.8835616,57.7054795 49.8835616,57.7054795 C49.8835616,57.7054795 49.8835616,57.7054795 49.8835616,57.7054795 L49.8835616,57.7054795 C49.2191781,56.8972603 48.7328767,56.2465753 48.0821918,55.4589041 C46.7465753,65.4931507 46.2876712,63.2328767 49.8835616,67.6712329 L49.8835616,67.6780822 C49.8835616,67.6780822 49.890411,67.6780822 49.890411,67.6849315 C49.890411,67.6849315 49.890411,67.6849315 49.890411,67.6849315 C49.890411,67.6849315 49.890411,67.6849315 49.890411,67.6849315 C49.890411,67.6849315 49.8972603,67.6849315 49.8972603,67.6780822 L49.8972603,67.6712329 C53.4931507,63.2328767 53.0342466,65.4931507 51.6986301,55.4589041 Z" id="Path"></path>
            <path d="M58.0821918,26.1438356 C55.1369863,28.4794521 54.4589041,28.9726027 51.4178082,31.4657534 C50.8561644,31.9315068 50.369863,32.1643836 49.8767123,32.1575342 C49.390411,32.1575342 48.9041096,31.9246575 48.3356164,31.4657534 C45.3013699,28.9726027 44.6232877,28.4863014 41.6712329,26.1438356 C40.0273973,28.6575342 40.7876712,29.5 43.8424658,30.5547945 C46.3356164,31.4178082 47.9041096,32.890411 48.6369863,35.3972603 C48.8561644,36.1575342 49.390411,36.7739726 49.869863,37.6986301 L49.869863,37.6986301 C49.869863,37.6986301 49.869863,37.6986301 49.869863,37.6986301 C49.869863,37.6986301 49.869863,37.6986301 49.869863,37.6986301 L49.869863,37.6986301 C50.3493151,36.7671233 50.8835616,36.1575342 51.1027397,35.3972603 C51.8356164,32.890411 53.4041096,31.4178082 55.8972603,30.5547945 C58.9726027,29.5 59.7260274,28.6575342 58.0821918,26.1438356 Z" id="Path"></path>
            <path d="M58.0547945,49.6712329 C60.8972603,49.6712329 63.5616438,49.6712329 66.9452055,49.6712329 C59.7876712,46.6643836 59.3972603,46.6575342 58.0547945,49.6712329 Z" id="Path"></path>
            <path d="M41.6232877,49.6712329 C38.7808219,49.6712329 36.1164384,49.6712329 32.7328767,49.6712329 C39.8835616,46.6643836 40.2739726,46.6575342 41.6232877,49.6712329 Z" id="Path"></path>
            <path d="M47.1164384,43.739726 C49.390411,41.2534247 49.7808219,39.3082192 48.2945205,37.5136986 C46.0890411,39.0547945 43.7328767,39.6027397 40.9726027,37.6438356 C42.1986301,41.4383562 42.4109589,41.5753425 46.0273973,41.0136986 C45.5342466,41.4794521 45.1575342,41.8356164 44.7465753,42.2260274 C45.6027397,42.7739726 46.369863,43.2671233 47.1164384,43.739726 Z" id="Path"></path>
            <path d="M42.3287671,37.9452055 C44.2465753,38.6849315 46.2876712,37.7328767 46.5342466,36.609589 C45.5068493,36.7945205 43.4794521,36.9315068 42.3082192,36.1232877 C40.8219178,35.1027397 40.8082192,33.3219178 42.1027397,31.6643836 C41.0342466,30.7945205 40.1643836,30.0821918 39.5410959,29.5684932 C39.5410959,30.7808219 39.6643836,31.890411 39.5136986,32.9726027 C39.2328767,35.0410959 40.390411,37.1986301 42.3287671,37.9452055 Z" id="Path"></path>
            <path d="M43,59.0958904 C41.5753425,61.4041096 41.6232877,61.5136986 45.1712329,63.3356164 C45.5821918,60.3013699 46.2465753,58.8082192 46.3424658,55.3082192 C46.3424658,55.1986301 46.3082192,54.1986301 46.1164384,53.9863014 C45.1575342,55.5479452 43.9589041,57.5273973 43,59.0958904 Z" id="Path"></path>
            <path d="M0.876712329,20.0068493 C1.31506849,20.4589041 2.02054795,20.9520548 2.45205479,21.0958904 C2.76712329,21.2054795 3.62328767,21.3287671 3.97945205,21.2328767 C0.883561644,20.130137 -0.157534247,17.6712329 0.404109589,10.8630137 C1.04794521,12.0068493 1.36986301,12.3972603 1.96575342,12.739726 C2.61643836,13.1164384 2.74657534,13.1575342 3.14383562,13.2123288 C-0.684931507,10.2739726 1.02739726,6.54794521 2.81506849,2.1369863 C4.65068493,7.68493151 7.57534247,12.1232877 11.7534247,15.6643836 C13.1849315,16.8767123 14.7945205,17.8835616 16.2260274,19.0958904 C18.4315068,20.9726027 20.8630137,22.6986301 22.6643836,24.9178082 C27.5616438,30.9589041 24.6643836,40.8561644 17.3356164,43.8150685 C18.2123288,42.5136986 18.5547945,41.7739726 18.6575342,40.8424658 C18.7945205,39.5753425 18.0273973,38.8972603 17.9315068,38.6438356 C16.739726,40.260274 14.6369863,41.0616438 9.48630137,41.2328767 C11.9931507,39.9109589 13.369863,38.9931507 14.4657534,35.0684932 C10.9931507,37.6986301 8.54794521,36.890411 4.43150685,34.9452055 C5.80136986,34.2328767 7.55479452,33.2465753 8.52054795,31.630137 C4.10958904,31.9657534 2.56164384,29.2191781 1.76712329,25.6438356 C3.19178082,26.3972603 3.56164384,26.6712329 3.85616438,26.7876712 C4.34931507,26.9794521 5.2260274,26.9452055 5.4109589,26.7739726 C2.59589041,25.4178082 1.93150685,24.6027397 0.876712329,20.0068493 Z" id="Path"></path>
            <g id="Group" transform="translate(4.109589, 0.000000)">
                <path d="M36.1986301,37.8356164 C35.8287671,37.0273973 35.2808219,35.8493151 34.4178082,35.239726 C31.6917808,33.3287671 28.8287671,32.5890411 26.2328767,31.390411 C26.5136986,33.760274 30.9109589,39.7328767 34.130137,39.0342466 C34.6780822,38.9178082 35.5890411,38.260274 36.1986301,37.8356164 Z" id="Path"></path>
                <path d="M32.0753425,42.0273973 C9.73972603,39.5342466 25,37.5136986 23.7739726,33.260274 C21.4109589,25.0616438 15.8013699,19.6712329 9.3630137,14.6027397 C4.76027397,10.9794521 1.51369863,6.10958904 0.589041096,0 C2.07534247,2.06849315 3.32876712,4.36986301 5.10273973,6.15068493 C8.0890411,9.16438356 11.1849315,12.1575342 14.6369863,14.5890411 C18.2260274,17.1232877 21.0205479,20.0821918 22.1506849,24.2876712 C23.8082192,30.4589041 26.6575342,35.1232877 30.9041096,39.9315068 C31.7808219,40.9178082 31.7945205,41.4178082 32.0753425,42.0273973 Z" id="Path"></path>
                <path d="M16.0547945,44.1575342 C21.7054795,40.0684932 29.8972603,42.1712329 35.4726027,46.3561644 C26.7328767,44.9178082 20.9794521,49.5342466 16.0547945,44.1575342 Z" id="Path"></path>
            </g>
            <path d="M59.6575342,37.8356164 C60.0273973,37.0273973 60.5753425,35.8493151 61.4383562,35.239726 C64.1643836,33.3287671 67.0273973,32.5890411 69.6232877,31.390411 C69.3424658,33.760274 64.9452055,39.7328767 61.7260274,39.0342466 C61.1780822,38.9178082 60.2671233,38.260274 59.6575342,37.8356164 Z" id="Path"></path>
            <path d="M63.7808219,42.0273973 C86.1164384,39.5342466 70.8561644,37.5136986 72.0821918,33.260274 C74.4452055,25.0616438 80.0547945,19.6712329 86.4931507,14.6027397 C91.0958904,10.9794521 94.3424658,6.10958904 95.260274,2.43336553e-15 C93.7739726,2.06849315 92.5205479,4.36986301 90.7465753,6.15068493 C87.760274,9.16438356 84.6643836,12.1575342 81.2123288,14.5890411 C77.6232877,17.1232877 74.8287671,20.0821918 73.6986301,24.2876712 C72.0410959,30.4589041 69.1917808,35.1232877 64.9452055,39.9315068 C64.0753425,40.9178082 64.0616438,41.4178082 63.7808219,42.0273973 Z" id="Path"></path>
            <path d="M79.8082192,44.1575342 C74.1575342,40.0684932 65.9657534,42.1712329 60.390411,46.3561644 C69.1232877,44.9178082 74.8767123,49.5342466 79.8082192,44.1575342 Z" id="Path"></path>
            <path d="M45.8219178,33.1643836 C45.4178082,32.1849315 44.2945205,31.7123288 43.3150685,32.1164384 C42.3356164,32.5205479 41.8630137,33.6438356 42.2671233,34.6232877 C42.6712329,35.6027397 43.7945205,36.0753425 44.7739726,35.6712329 C45.760274,35.2671233 46.2260274,34.1438356 45.8219178,33.1643836 Z M44.3082192,35.1986301 C43.6780822,35.4589041 42.9520548,35.130137 42.6780822,34.4726027 C42.4109589,33.8150685 42.6986301,33.0684932 43.3287671,32.8082192 C43.4657534,32.7534247 43.6027397,32.7260274 43.739726,32.7191781 C43.7260274,32.7260274 43.7191781,32.7260274 43.7054795,32.7328767 C43.109589,32.9726027 42.8356164,33.6780822 43.0890411,34.3013699 C43.3424658,34.9246575 44.0342466,35.2328767 44.6232877,34.9863014 C44.6369863,34.9794521 44.6438356,34.9726027 44.6575342,34.9726027 C44.5616438,35.0684932 44.4452055,35.1438356 44.3082192,35.1986301 Z" id="Shape"></path>
            <path d="M52.6164384,43.739726 C50.3424658,41.2534247 49.9520548,39.3082192 51.4383562,37.5136986 C53.6438356,39.0547945 56,39.6027397 58.760274,37.6438356 C57.5342466,41.4383562 57.3219178,41.5753425 53.7054795,41.0136986 C54.1986301,41.4794521 54.5753425,41.8356164 54.9863014,42.2260274 C54.130137,42.7739726 53.369863,43.2671233 52.6164384,43.739726 Z" id="Path"></path>
            <path d="M57.4041096,37.9452055 C55.4863014,38.6849315 53.4452055,37.7328767 53.1986301,36.609589 C54.2260274,36.7945205 56.2534247,36.9315068 57.4246575,36.1232877 C58.9109589,35.1027397 58.9246575,33.3219178 57.630137,31.6643836 C58.6986301,30.7945205 59.5684932,30.0821918 60.1917808,29.5684932 C60.1917808,30.7808219 60.0684932,31.890411 60.2191781,32.9726027 C60.5,35.0410959 59.3493151,37.1986301 57.4041096,37.9452055 Z" id="Path"></path>
            <path d="M56.739726,59.0958904 C58.1643836,61.4041096 58.1164384,61.5136986 54.5684932,63.3356164 C54.1575342,60.3013699 53.4931507,58.8082192 53.3972603,55.3082192 C53.3972603,55.1986301 53.4315068,54.1986301 53.6232877,53.9863014 C54.5821918,55.5479452 55.7739726,57.5273973 56.739726,59.0958904 Z" id="Path"></path>
            <path d="M98.8630137,20.0068493 C98.4246575,20.4589041 97.7191781,20.9520548 97.2876712,21.0958904 C96.9726027,21.2054795 96.1164384,21.3287671 95.760274,21.2328767 C98.8561644,20.130137 99.8972603,17.6712329 99.3356164,10.8630137 C98.6917808,12.0068493 98.3630137,12.3972603 97.7739726,12.739726 C97.1232877,13.1164384 96.9931507,13.1575342 96.5958904,13.2123288 C100.424658,10.2808219 98.7123288,6.54794521 96.9246575,2.1369863 C95.0890411,7.68493151 92.1643836,12.1232877 87.9863014,15.6643836 C86.5547945,16.8767123 84.9452055,17.8835616 83.5136986,19.0958904 C81.3082192,20.9726027 78.8767123,22.6986301 77.0753425,24.9178082 C72.1780822,30.9589041 75.0753425,40.8561644 82.4041096,43.8150685 C81.5273973,42.5136986 81.1849315,41.7739726 81.0821918,40.8424658 C80.9452055,39.5753425 81.7123288,38.8972603 81.8082192,38.6438356 C83,40.260274 85.1027397,41.0616438 90.2534247,41.2328767 C87.7465753,39.9109589 86.369863,38.9931507 85.2739726,35.0684932 C88.7465753,37.6986301 91.1917808,36.890411 95.3082192,34.9452055 C93.9383562,34.2328767 92.1849315,33.2465753 91.2191781,31.630137 C95.6232877,31.9657534 97.1712329,29.2260274 97.9589041,25.6438356 C96.5342466,26.3972603 96.1643836,26.6712329 95.869863,26.7876712 C95.3767123,26.9794521 94.5,26.9452055 94.3150685,26.7739726 C97.1438356,25.4178082 97.8013699,24.6027397 98.8630137,20.0068493 Z" id="Path"></path>
            <path d="M54.9589041,35.6712329 C55.9383562,36.0753425 57.0616438,35.6027397 57.4657534,34.6232877 C57.869863,33.6438356 57.3972603,32.5205479 56.4178082,32.1164384 C55.4383562,31.7123288 54.3150685,32.1849315 53.9109589,33.1643836 C53.5068493,34.1438356 53.9794521,35.2671233 54.9589041,35.6712329 Z M55.0684932,34.9726027 C55.0821918,34.9794521 55.0890411,34.9863014 55.1027397,34.9863014 C55.6986301,35.2260274 56.3835616,34.9246575 56.6369863,34.3013699 C56.890411,33.6780822 56.6164384,32.9794521 56.0205479,32.7328767 C56.0068493,32.7260274 56,32.7260274 55.9863014,32.7191781 C56.1232877,32.7260274 56.2671233,32.7534247 56.3972603,32.8082192 C57.0273973,33.0684932 57.3219178,33.8082192 57.0479452,34.4726027 C56.7808219,35.130137 56.0479452,35.4589041 55.4178082,35.1986301 C55.2876712,35.1438356 55.1712329,35.0684932 55.0684932,34.9726027 Z" id="Shape"></path>
            <path d="M49.869863,47.3835616 C46.0821918,43.7328767 41.390411,41.0205479 35.7739726,40.5205479 C36.0547945,40.8219178 36.3356164,41.130137 36.6232877,41.4383562 C36.6232877,41.4452055 36.630137,41.4452055 36.630137,41.4452055 C37.0479452,41.8630137 39.3630137,44.8287671 39.9452055,45.4589041 C43.1506849,48.8630137 46.5753425,52.6849315 49.8493151,56.1780822 L49.8493151,56.2191781 C49.8493151,56.2191781 49.8493151,56.2191781 49.8493151,56.2191781 C49.8493151,56.2191781 49.8493151,56.2191781 49.8493151,56.2191781 L49.8493151,56.2191781 C49.8561644,56.2123288 49.8630137,56.2054795 49.869863,56.1986301 C49.8767123,56.2054795 49.8835616,56.2123288 49.890411,56.2191781 L49.890411,56.2191781 C49.890411,56.2191781 49.890411,56.2191781 49.890411,56.2191781 C49.890411,56.2191781 49.890411,56.2191781 49.890411,56.2191781 L49.890411,56.1780822 C53.1643836,52.6849315 56.5890411,48.869863 59.7945205,45.4589041 C60.3767123,44.8287671 62.6917808,41.869863 63.109589,41.4452055 C63.1164384,41.4383562 63.1164384,41.4383562 63.1164384,41.4383562 C63.4041096,41.1369863 63.6849315,40.8219178 63.9657534,40.5205479 C58.3493151,41.0205479 53.6575342,43.7328767 49.869863,47.3835616 Z" id="Path"></path>
        </g>
    </g>
</svg>