<svg width="150" height="43" viewBox="0 0 150 43" fill="none" xmlns="http://www.w3.org/2000/svg">
<path d="M41.6881 41.6745C19.0944 33.145 21.1928 2.11517 16.5114 1.00071C16.0352 0.887372 15.5925 1.29242 15.6283 1.7806C16.6373 15.5441 9.32228 23.7022 0.563783 30.1727C0.539977 30.1903 0.516172 30.208 0.492248 30.2257C0.357353 30.3414 0.271606 30.5126 0.271606 30.7043C0.271606 31.0526 0.553953 31.3349 0.902265 31.3349C0.988129 31.3349 1.07032 31.3193 1.14493 31.2882C17.684 24.5663 24.6038 38.6563 41.2578 42.86C42.0128 43.0695 42.4038 41.9933 41.6881 41.6745Z" fill="#173D60"/>
<path d="M55.9611 21.9276C55.7604 21.5086 55.4843 21.133 55.1398 20.811C54.7957 20.4988 54.3964 20.2469 53.9518 20.0613C53.4974 19.8856 53.0154 19.797 52.516 19.797L48.1955 19.7893L48.0695 19.788L44.7615 19.7822C44.3749 19.7822 44.0188 19.6313 43.7031 19.3338C43.4086 19.0458 43.2564 18.6953 43.2523 18.2938L43.2579 16.8011C43.2576 16.4433 43.336 16.1625 43.491 15.9659C43.6416 15.7636 43.8199 15.6104 44.0224 15.508L44.0363 15.5015C44.2641 15.4038 44.5225 15.3429 44.8012 15.3223L44.8209 15.3217H52.5174C52.9553 15.3217 53.3263 15.4626 53.6199 15.7404C53.8431 15.959 53.9862 16.2202 54.0435 16.5151C54.0702 16.6514 54.1875 16.7542 54.3166 16.7542H54.9721H56.0184C56.1567 16.7542 56.2603 16.6399 56.2493 16.4994C56.2204 16.1297 56.125 15.7668 55.9658 15.4212L55.9637 15.4165C55.7729 14.9808 55.5066 14.5965 55.1727 14.275C54.839 13.9537 54.4334 13.6916 53.967 13.496C53.5122 13.3107 53.0296 13.2169 52.5314 13.2168L44.8203 13.2172H44.8171L44.8139 13.2174C44.1058 13.2578 43.4701 13.4116 42.9245 13.6746C42.4449 13.8894 42.0112 14.2516 41.638 14.7501C41.2553 15.2369 41.0594 15.9307 41.0571 16.8107L41.0697 18.3434C41.0638 18.8249 41.1618 19.281 41.3607 19.6968C41.5612 20.1159 41.8326 20.4918 42.1671 20.8138C42.4901 21.1257 42.8799 21.383 43.3257 21.5784C43.6081 21.7036 44.0771 21.8068 44.7193 21.885C44.7298 21.8861 44.7418 21.887 44.7531 21.887H52.5021C52.919 21.887 53.2845 22.0277 53.5884 22.305C53.88 22.5813 54.0424 22.9238 54.0692 23.3217L54.0697 23.3406L54.064 24.8233C54.0589 25.2428 53.9074 25.6008 53.6135 25.8867C53.3186 26.1622 52.9472 26.3025 52.511 26.3025H44.8045C44.3664 26.3025 43.9954 26.1617 43.7019 25.884C43.4789 25.6658 43.3358 25.4047 43.2783 25.1094C43.2516 24.9731 43.1343 24.8702 43.0052 24.8702H42.3498H41.2935C41.2264 24.8702 41.1656 24.8965 41.1222 24.9443C41.0777 24.9934 41.0567 25.059 41.0631 25.1291C41.0988 25.5119 41.1976 25.878 41.3573 26.2177C41.5484 26.6464 41.8153 27.0279 42.1491 27.3492C42.4836 27.6714 42.8792 27.9336 43.3245 28.1288C43.779 28.3142 44.2718 28.4075 44.792 28.4075H52.4983C52.9982 28.4075 53.4863 28.3134 53.9492 28.1276C54.4117 27.9318 54.817 27.6691 55.1557 27.3461C55.4844 27.0227 55.755 26.6411 55.9612 26.2105C56.1567 25.7811 56.2585 25.3116 56.2647 24.8132L56.2522 23.2809C56.2579 22.7996 56.1598 22.3435 55.9611 21.9276Z" fill="#173D60"/>
<path d="M68.742 21.0294C68.7245 21.2429 68.6385 21.4219 68.4793 21.5763C68.3174 21.7216 68.1234 21.7934 67.8888 21.7934H61.2048L61.2079 20.0004C61.2047 19.7656 61.2794 19.5858 61.443 19.4329C61.6102 19.2702 61.8067 19.1919 62.0452 19.1919H67.9304C68.1714 19.1919 68.3564 19.263 68.5125 19.4156C68.6679 19.5628 68.7409 19.736 68.7441 19.9622L68.742 21.0294ZM69.955 18.0133C69.6909 17.7661 69.3775 17.5642 69.0222 17.4117C68.6618 17.265 68.2828 17.191 67.8934 17.191H62.0084C61.6056 17.191 61.2268 17.2642 60.8824 17.4086C60.5417 17.5595 60.2383 17.7571 59.9786 17.9967C59.7219 18.2488 59.5163 18.544 59.3652 18.8757C59.2052 19.219 59.1249 19.5842 59.1268 19.9603L59.1163 25.5981C59.1195 25.9923 59.2024 26.3645 59.3626 26.7052C59.5119 27.0341 59.722 27.3306 59.9866 27.5851C60.241 27.8311 60.547 28.0333 60.8956 28.186C61.2485 28.3333 61.6319 28.4075 62.037 28.4075H67.9222C68.3095 28.4075 68.6873 28.3348 69.0452 28.1912C69.3959 28.0393 69.7007 27.8408 69.954 27.5998C70.215 27.351 70.4242 27.0603 70.5764 26.7354C70.6937 26.4777 70.7661 26.2021 70.7924 25.915C70.8043 25.785 70.7571 25.6522 70.6631 25.5507C70.5692 25.4491 70.4395 25.3908 70.3074 25.3908H69.1219C68.917 25.3908 68.7531 25.5295 68.7232 25.7281C68.6972 25.9013 68.6227 26.0453 68.496 26.1683C68.3312 26.3287 68.1315 26.4066 67.8854 26.4066H62.0001C61.7588 26.4066 61.5738 26.3356 61.4181 26.1831C61.2645 26.0375 61.1948 25.8662 61.1974 25.6421L61.2006 23.805H67.9268C68.316 23.805 68.6842 23.7314 69.0211 23.5867C69.3569 23.4535 69.658 23.2706 69.9131 23.0443C70.1697 22.8085 70.3805 22.5291 70.5408 22.2124C70.704 21.8989 70.7943 21.5486 70.8085 21.1723L70.8122 19.9796C70.8184 19.6024 70.74 19.2365 70.579 18.8936C70.4296 18.5643 70.2193 18.2676 69.955 18.0133Z" fill="#173D60"/>
<path d="M100.056 24.6386L100.056 24.6291L100.054 24.6149C100.058 24.2319 99.9793 23.8692 99.8202 23.5367C99.6619 23.2058 99.4438 22.9093 99.1721 22.6555C98.9003 22.4087 98.5874 22.2109 98.2408 22.0662C97.8812 21.9269 97.5036 21.8569 97.1153 21.8569L91.1523 21.8464C90.9465 21.8464 90.7705 21.7708 90.5984 21.6087C90.4482 21.4619 90.3734 21.2873 90.3712 21.0771L90.3724 20.8475L90.3753 20.0221C90.3751 19.8248 90.4135 19.6762 90.4894 19.5798C90.5766 19.4629 90.6756 19.3762 90.7855 19.3202C90.9223 19.262 91.0762 19.2258 91.2429 19.213H97.1641C97.4036 19.213 97.5946 19.2837 97.7482 19.4292C97.8614 19.54 97.9318 19.6691 97.9616 19.822C98.0068 20.0539 98.2125 20.2288 98.44 20.2288H99.6466C99.8889 20.2288 100.07 20.0305 100.052 19.7866C100.029 19.4916 99.9524 19.2024 99.8253 18.9267C99.6751 18.5838 99.464 18.2793 99.1987 18.0239C98.9353 17.7702 98.6167 17.564 98.252 17.411C97.8932 17.2648 97.5145 17.1909 97.1251 17.1909H91.2043C91.1945 17.1909 91.1845 17.1913 91.1749 17.1917C90.639 17.2223 90.1564 17.3394 89.7403 17.5399C89.3679 17.7067 89.0313 17.9873 88.7428 18.3729C88.4399 18.7578 88.2848 19.299 88.2831 19.9797L88.2913 20.8076L88.2902 21.0374L88.2901 21.0427L88.2906 21.0535L88.292 21.0683C88.2882 21.4513 88.367 21.8141 88.5262 22.1465C88.6837 22.4759 88.897 22.7715 89.1604 23.0251C89.4148 23.2708 89.7207 23.473 90.0694 23.6257C90.298 23.7271 90.6475 23.8055 91.137 23.865C91.1559 23.8672 91.1752 23.8684 91.1938 23.8684H97.1532C97.3795 23.8684 97.5681 23.9403 97.7299 24.0879C97.8793 24.2294 97.9601 24.4011 97.975 24.6111L97.9712 25.6611C97.9684 25.8926 97.8873 26.0829 97.7232 26.2425C97.5598 26.3952 97.3593 26.4702 97.1118 26.4702H91.1824C90.9428 26.4702 90.7516 26.3995 90.5983 26.2541C90.4848 26.1432 90.4146 26.0142 90.3849 25.8613C90.3395 25.6293 90.1338 25.4544 89.9064 25.4544H88.6926C88.5741 25.4544 88.467 25.5007 88.3908 25.5846C88.3137 25.6698 88.2773 25.7829 88.2885 25.9035C88.3168 26.2069 88.3955 26.4979 88.5226 26.7685C88.6722 27.1039 88.8828 27.4044 89.1476 27.6592C89.4106 27.9124 89.7204 28.1182 90.0686 28.2706C90.4297 28.418 90.8165 28.4922 91.2212 28.4922H97.1506C97.5378 28.4922 97.9156 28.4195 98.2735 28.2758C98.6309 28.1246 98.9433 27.9223 99.2038 27.6737C99.4579 27.4237 99.6662 27.1302 99.8241 26.8005C99.9783 26.462 100.058 26.0943 100.063 25.7058L100.056 24.6433L100.056 24.6386Z" fill="#173D60"/>
<path d="M129.339 24.6386L129.339 24.6291L129.337 24.6148C129.341 24.2319 129.262 23.8692 129.103 23.5367C128.945 23.2058 128.727 22.9093 128.455 22.6555C128.183 22.4087 127.87 22.2109 127.524 22.0662C127.164 21.9269 126.786 21.8569 126.398 21.8569L120.435 21.8464C120.229 21.8464 120.053 21.7708 119.881 21.6087C119.731 21.4619 119.656 21.2873 119.654 21.0769L119.655 20.8475L119.658 20.0221C119.658 19.8248 119.696 19.6762 119.772 19.58C119.859 19.4629 119.959 19.3762 120.068 19.3202C120.205 19.262 120.359 19.2258 120.526 19.213H126.447C126.686 19.213 126.877 19.2837 127.031 19.4292C127.144 19.54 127.215 19.669 127.244 19.822C127.29 20.0539 127.495 20.2288 127.723 20.2288H128.929C129.172 20.2288 129.353 20.0305 129.334 19.7866C129.311 19.4917 129.235 19.2025 129.108 18.9268C128.958 18.5838 128.747 18.2793 128.481 18.0239C128.218 17.7702 127.899 17.564 127.535 17.411C127.176 17.2648 126.797 17.1909 126.408 17.1909H120.487C120.477 17.1909 120.467 17.1913 120.458 17.1917C119.922 17.2223 119.439 17.3394 119.023 17.5399C118.651 17.7067 118.314 17.9873 118.026 18.3729C117.723 18.7579 117.568 19.299 117.566 19.9797L117.574 20.8076L117.573 21.0373V21.0374L117.573 21.043L117.573 21.0482L117.573 21.0534L117.575 21.0683C117.571 21.4514 117.65 21.8141 117.809 22.1465C117.966 22.4759 118.18 22.7715 118.443 23.0251C118.698 23.2708 119.004 23.473 119.352 23.6257C119.581 23.7271 119.93 23.8055 120.42 23.865C120.439 23.8672 120.458 23.8684 120.476 23.8684H126.436C126.662 23.8684 126.851 23.9403 127.013 24.0879C127.162 24.2294 127.243 24.4011 127.258 24.6111L127.254 25.6611C127.251 25.8924 127.17 26.0829 127.006 26.2425C126.843 26.3952 126.642 26.4702 126.395 26.4702H120.465C120.226 26.4702 120.035 26.3995 119.881 26.2541C119.768 26.1432 119.697 26.0142 119.668 25.8612C119.622 25.6293 119.417 25.4544 119.189 25.4544H117.975C117.857 25.4544 117.75 25.5007 117.673 25.5848C117.596 25.6698 117.56 25.783 117.571 25.9036C117.599 26.2069 117.678 26.4979 117.806 26.7685C117.955 27.1038 118.166 27.4044 118.43 27.6593C118.693 27.9124 119.003 28.118 119.351 28.2706C119.713 28.418 120.099 28.4922 120.504 28.4922H126.433C126.821 28.4922 127.198 28.4195 127.556 28.2758C127.914 28.1246 128.226 27.9223 128.487 27.6737C128.741 27.4237 128.949 27.1302 129.107 26.8005C129.261 26.462 129.341 26.0941 129.346 25.7058L129.339 24.6433V24.6386Z" fill="#173D60"/>
<path d="M83.5983 17.4763C83.2446 17.3287 82.8649 17.2544 82.4674 17.2544H78.7656H76.6399C76.2373 17.2544 75.8584 17.3276 75.514 17.4721C75.1734 17.6231 74.87 17.8207 74.6104 18.0602C74.0684 18.5944 73.7508 19.328 73.7584 20.0245L73.7544 22.2483L73.7539 22.3778L73.7535 22.6391L73.7509 27.9234C73.7508 28.0473 73.8037 28.1712 73.8959 28.2629C73.9881 28.3548 74.1125 28.4075 74.237 28.4075H75.427C75.6582 28.4075 75.8327 28.2339 75.8329 28.0037L75.8377 22.0904L75.8381 21.9689L75.8384 21.848H75.8364L75.8395 20.064C75.8357 19.8339 75.9147 19.6438 76.0741 19.4969C76.2418 19.3339 76.4384 19.2554 76.6768 19.2554H78.5351L82.5043 19.2553H82.5237C82.7424 19.2553 82.9441 19.3366 83.0917 19.4844C83.2311 19.6241 83.3072 19.8118 83.306 20.0129L83.2972 24.6844L83.297 24.8416L83.2955 27.9234C83.2953 28.0437 83.3432 28.1603 83.4302 28.2516C83.5143 28.3399 83.6239 28.3937 83.7403 28.4042V28.4055C83.7485 28.4068 83.7562 28.4075 83.7642 28.4075H83.7814H84.9542C85.1854 28.4075 85.36 28.2339 85.3601 28.0037L85.3613 26.6143C85.3615 26.6133 85.3618 26.609 85.3618 26.6045L85.3625 25.2737L85.3628 24.7945L85.3651 20.053C85.3698 19.661 85.2907 19.2913 85.1301 18.9553C84.8372 18.3021 84.3071 17.7896 83.5983 17.4763Z" fill="#173D60"/>
<path d="M114.095 17.2544H112.905C112.674 17.2544 112.499 17.4281 112.499 17.6583L112.494 23.5716L112.494 23.6932L112.494 23.814L112.496 23.8141L112.492 25.5981C112.496 25.8281 112.417 26.0182 112.258 26.1651C112.09 26.3282 111.894 26.4065 111.655 26.4065H109.797L105.828 26.4066L105.808 26.4069C105.589 26.4069 105.388 26.3255 105.24 26.1776C105.101 26.0379 105.025 25.8503 105.026 25.6492L105.034 21.0588L105.035 20.9776V20.8204L105.036 17.7387C105.037 17.6184 104.989 17.5017 104.902 17.4103C104.818 17.3221 104.708 17.2683 104.592 17.2578V17.2565C104.583 17.2553 104.576 17.2544 104.568 17.2544H104.551H103.378C103.146 17.2544 102.972 17.4281 102.972 17.6583L102.971 19.0476C102.97 19.0487 102.97 19.0532 102.97 19.0577L102.969 20.3883L102.969 20.8675L102.967 25.609C102.962 26.001 103.041 26.3707 103.202 26.7067C103.495 27.3599 104.025 27.8723 104.734 28.1858C105.087 28.3333 105.467 28.4075 105.865 28.4075H109.566H111.692C112.095 28.4075 112.473 28.3344 112.818 28.1899C113.159 28.039 113.462 27.8414 113.722 27.6018C114.264 27.0676 114.581 26.3341 114.574 25.6375L114.578 23.414L114.578 23.2842L114.578 23.0229L114.581 17.7387C114.581 17.6147 114.528 17.491 114.436 17.3991C114.344 17.3072 114.219 17.2544 114.095 17.2544Z" fill="#173D60"/>
<path d="M145.048 25.2754L144.986 25.3291L144.931 25.2595L143.101 22.9572C143.059 22.9047 142.996 22.8735 142.932 22.8735H140.894C140.819 22.8735 140.757 22.9134 140.728 22.9799C140.7 23.0467 140.712 23.1232 140.761 23.1847L143.225 26.2846L143.291 26.3679L143.199 26.4043C142.443 26.7047 141.646 26.857 140.83 26.857C139.128 26.857 137.538 26.2025 136.352 25.014C135.203 23.8625 134.576 22.3444 134.586 20.7389C134.608 17.3739 137.438 14.6363 140.895 14.6363C142.597 14.6363 144.187 15.2908 145.373 16.4792C146.523 17.6307 147.15 19.149 147.139 20.7542C147.128 22.471 146.365 24.1189 145.048 25.2754ZM146.33 27.0192L146.281 26.9575L146.336 26.9111C148.186 25.3506 149.256 23.101 149.271 20.7389C149.286 18.5933 148.448 16.565 146.914 15.0276C145.329 13.4393 143.201 12.5646 140.924 12.5646C136.283 12.5646 132.483 16.2384 132.454 20.7542C132.44 22.8999 133.277 24.9283 134.811 26.4658C136.397 28.0541 138.524 28.9287 140.801 28.9287C142.116 28.9287 143.382 28.6383 144.561 28.0652L144.619 28.0371L144.662 28.0914L146.193 30.0182C146.235 30.0706 146.298 30.1019 146.362 30.1019H148.4C148.475 30.1019 148.537 30.0621 148.566 29.9954C148.594 29.9286 148.582 29.8523 148.533 29.7907L146.33 27.0192Z" fill="#173D60"/>
</svg>
