<?xml version="1.0" encoding="utf-8"?>
<!-- Generator: Adobe Illustrator 24.0.3, SVG Export Plug-In . SVG Version: 6.00 Build 0)  -->
<svg version="1.1" id="Layer_1" xmlns="http://www.w3.org/2000/svg" xmlns:xlink="http://www.w3.org/1999/xlink" x="0px" y="0px"
	 viewBox="0 0 150 112" style="enable-background:new 0 0 150 112;" xml:space="preserve">
<style type="text/css">
	.st0{fill:#231F20;}
</style>
<g>
	<path class="st0" d="M74.85,54.83l9.58-7.62c-2.8-1.69-6.08-2.67-9.6-2.67c-3.54,0-6.85,1-9.67,2.72L74.85,54.83z"/>
	<path class="st0" d="M74.79,76.57c-1.13-1.05-2.02-1.88-2.93-2.73c1-1.69,1.98-3.19,2.98-4.88c1.01,1.67,1.83,3.15,2.87,4.87
		C76.81,74.66,75.93,75.49,74.79,76.57z"/>
	<path class="st0" d="M77.48,89.97c-0.95,1.15-1.66,2.11-2.64,3.29c0,0-0.01-0.01-0.01-0.01c0,0,0,0,0,0v0
		c-0.97-1.18-1.68-2.13-2.63-3.28c-1.95,14.65-2.62,11.35,2.63,17.83v0.01c0,0,0.01,0,0.01,0.01c0,0,0,0,0,0c0,0,0,0,0,0
		c0,0,0.01,0,0.01-0.01v-0.01C80.1,101.32,79.43,104.62,77.48,89.97z"/>
	<path class="st0" d="M86.8,47.17c-4.3,3.41-5.29,4.13-9.73,7.77c-0.82,0.68-1.53,1.02-2.25,1.01c-0.71,0-1.42-0.34-2.25-1.01
		c-4.43-3.64-5.42-4.35-9.73-7.77c-2.4,3.67-1.29,4.9,3.17,6.44c3.64,1.26,5.93,3.41,7,7.07c0.32,1.11,1.1,2.01,1.8,3.36v0
		c0,0,0,0,0,0c0,0,0,0,0,0v0c0.7-1.36,1.48-2.25,1.8-3.36c1.07-3.66,3.36-5.81,7-7.07C88.1,52.07,89.2,50.84,86.8,47.17z"/>
	<path class="st0" d="M86.76,81.52c4.15,0,8.04,0,12.98,0C89.29,77.13,88.72,77.12,86.76,81.52z"/>
	<path class="st0" d="M62.77,81.52c-4.15,0-8.04,0-12.98,0C60.23,77.13,60.8,77.12,62.77,81.52z"/>
	<path class="st0" d="M70.79,72.86c3.32-3.63,3.89-6.47,1.72-9.09c-3.22,2.25-6.66,3.05-10.69,0.19c1.79,5.54,2.1,5.74,7.38,4.92
		c-0.72,0.68-1.27,1.2-1.87,1.77C68.58,71.45,69.7,72.17,70.79,72.86z"/>
	<path class="st0" d="M63.8,64.4c2.8,1.08,5.78-0.31,6.14-1.95c-1.5,0.27-4.46,0.47-6.17-0.71c-2.17-1.49-2.19-4.09-0.3-6.51
		c-1.56-1.27-2.83-2.31-3.74-3.06c0,1.77,0.18,3.39-0.04,4.97C59.28,60.16,60.97,63.31,63.8,64.4z"/>
	<path class="st0" d="M64.78,95.28c-2.08,3.37-2.01,3.53,3.17,6.19c0.6-4.43,1.57-6.61,1.71-11.72c0-0.16-0.05-1.62-0.33-1.93
		C67.93,90.1,66.18,92.99,64.78,95.28z"/>
	<path class="st0" d="M3.28,38.21c0.64,0.66,1.67,1.38,2.3,1.59c0.46,0.16,1.71,0.34,2.23,0.2c-4.52-1.61-6.04-5.2-5.22-15.14
		C3.53,26.53,4,27.1,4.87,27.6c0.95,0.55,1.14,0.61,1.72,0.69C1,24,3.5,18.56,6.11,12.12c2.68,8.1,6.95,14.58,13.05,19.75
		c2.09,1.77,4.44,3.24,6.53,5.01c3.22,2.74,6.77,5.26,9.4,8.5c7.15,8.82,2.92,23.27-7.78,27.59c1.28-1.9,1.78-2.98,1.93-4.34
		c0.2-1.85-0.92-2.84-1.06-3.21c-1.74,2.36-4.81,3.53-12.33,3.78c3.66-1.93,5.67-3.27,7.27-9c-5.07,3.84-8.64,2.66-14.65-0.18
		c2-1.04,4.56-2.48,5.97-4.84C8,55.67,5.74,51.66,4.58,46.44c2.08,1.1,2.62,1.5,3.05,1.67c0.72,0.28,2,0.23,2.27-0.02
		C5.79,46.11,4.82,44.92,3.28,38.21z"/>
	<g>
		<path class="st0" d="M60.85,64.24c-0.54-1.18-1.34-2.9-2.6-3.79c-3.98-2.79-8.16-3.87-11.95-5.62
			c0.41,3.46,6.83,12.18,11.53,11.16C58.63,65.82,59.96,64.86,60.85,64.24z"/>
		<path class="st0" d="M54.83,70.36c-32.61-3.64-10.33-6.59-12.12-12.8c-3.45-11.97-11.64-19.84-21.04-27.24
			C14.95,25.03,10.21,17.92,8.86,9c2.17,3.02,4,6.38,6.59,8.98c4.36,4.4,8.88,8.77,13.92,12.32c5.24,3.7,9.32,8.02,10.97,14.16
			c2.42,9.01,6.58,15.82,12.78,22.84C54.4,68.74,54.42,69.47,54.83,70.36z"/>
		<path class="st0" d="M31.44,73.47c8.25-5.97,20.21-2.9,28.35,3.21C47.03,74.58,38.63,81.32,31.44,73.47z"/>
	</g>
	<path class="st0" d="M89.1,64.24c0.54-1.18,1.34-2.9,2.6-3.79c3.98-2.79,8.16-3.87,11.95-5.62c-0.41,3.46-6.83,12.18-11.53,11.16
		C91.32,65.82,89.99,64.86,89.1,64.24z"/>
	<path class="st0" d="M95.12,70.36c32.61-3.64,10.33-6.59,12.12-12.8c3.45-11.97,11.64-19.84,21.04-27.24
		c6.72-5.29,11.46-12.4,12.8-21.32c-2.17,3.02-4,6.38-6.59,8.98c-4.36,4.4-8.88,8.77-13.92,12.32c-5.24,3.7-9.32,8.02-10.97,14.16
		c-2.42,9.01-6.58,15.82-12.78,22.84C95.55,68.74,95.53,69.47,95.12,70.36z"/>
	<path class="st0" d="M118.52,73.47c-8.25-5.97-20.21-2.9-28.35,3.21C102.92,74.58,111.32,81.32,118.52,73.47z"/>
	<path class="st0" d="M68.9,57.42c-0.59-1.43-2.23-2.12-3.66-1.53s-2.12,2.23-1.53,3.66c0.59,1.43,2.23,2.12,3.66,1.53
		C68.81,60.49,69.49,58.85,68.9,57.42z M66.69,60.39c-0.92,0.38-1.98-0.1-2.38-1.06c-0.39-0.96,0.03-2.05,0.95-2.43
		c0.2-0.08,0.4-0.12,0.6-0.13c-0.02,0.01-0.03,0.01-0.05,0.02c-0.87,0.35-1.27,1.38-0.9,2.29c0.37,0.91,1.38,1.36,2.24,1
		c0.02-0.01,0.03-0.02,0.05-0.02C67.06,60.2,66.89,60.31,66.69,60.39z"/>
	<path class="st0" d="M78.82,72.86c-3.32-3.63-3.89-6.47-1.72-9.09c3.22,2.25,6.66,3.05,10.69,0.19c-1.79,5.54-2.1,5.74-7.38,4.92
		c0.72,0.68,1.27,1.2,1.87,1.77C81.03,71.45,79.92,72.17,78.82,72.86z"/>
	<path class="st0" d="M85.81,64.4c-2.8,1.08-5.78-0.31-6.14-1.95c1.5,0.27,4.46,0.47,6.17-0.71c2.17-1.49,2.19-4.09,0.3-6.51
		c1.56-1.27,2.83-2.31,3.74-3.06c0,1.77-0.18,3.39,0.04,4.97C90.33,60.16,88.65,63.31,85.81,64.4z"/>
	<path class="st0" d="M84.84,95.28c2.08,3.37,2.01,3.53-3.17,6.19c-0.6-4.43-1.57-6.61-1.71-11.72c0-0.16,0.05-1.62,0.33-1.93
		C81.69,90.1,83.43,92.99,84.84,95.28z"/>
	<path class="st0" d="M146.34,38.21c-0.64,0.66-1.67,1.38-2.3,1.59c-0.46,0.16-1.71,0.34-2.23,0.2c4.52-1.61,6.04-5.2,5.22-15.14
		c-0.94,1.67-1.42,2.24-2.28,2.74c-0.95,0.55-1.14,0.61-1.72,0.69c5.59-4.28,3.09-9.73,0.48-16.17c-2.68,8.1-6.95,14.58-13.05,19.75
		c-2.09,1.77-4.44,3.24-6.53,5.01c-3.22,2.74-6.77,5.26-9.4,8.5c-7.15,8.82-2.92,23.27,7.78,27.59c-1.28-1.9-1.78-2.98-1.93-4.34
		c-0.2-1.85,0.92-2.84,1.06-3.21c1.74,2.36,4.81,3.53,12.33,3.78c-3.66-1.93-5.67-3.27-7.27-9c5.07,3.84,8.64,2.66,14.65-0.18
		c-2-1.04-4.56-2.48-5.97-4.84c6.43,0.49,8.69-3.51,9.84-8.74c-2.08,1.1-2.62,1.5-3.05,1.67c-0.72,0.28-2,0.23-2.27-0.02
		C143.83,46.11,144.79,44.92,146.34,38.21z"/>
	<path class="st0" d="M82.24,61.08c1.43,0.59,3.07-0.1,3.66-1.53c0.59-1.43-0.1-3.07-1.53-3.66s-3.07,0.1-3.66,1.53
		C80.12,58.85,80.81,60.49,82.24,61.08z M82.4,60.06c0.02,0.01,0.03,0.02,0.05,0.02c0.87,0.35,1.87-0.09,2.24-1
		c0.37-0.91-0.03-1.93-0.9-2.29c-0.02-0.01-0.03-0.01-0.05-0.02c0.2,0.01,0.41,0.05,0.6,0.13c0.92,0.38,1.35,1.46,0.95,2.43
		c-0.39,0.96-1.46,1.44-2.38,1.06C82.72,60.31,82.55,60.2,82.4,60.06z"/>
	<path class="st0" d="M74.81,78.18c-5.53-5.33-12.38-9.29-20.58-10.02c0.41,0.44,0.82,0.89,1.24,1.34c0,0.01,0.01,0.01,0.01,0.01
		c0.61,0.61,3.99,4.94,4.84,5.86C65,80.34,70,85.92,74.78,91.02v0.06c0,0,0,0,0,0c0,0,0,0,0,0v0c0.01-0.01,0.02-0.02,0.03-0.03
		c0.01,0.01,0.02,0.02,0.03,0.03v0c0,0,0,0,0,0c0,0,0,0,0,0v-0.06c4.78-5.1,9.78-10.67,14.46-15.65c0.85-0.92,4.23-5.24,4.84-5.86
		c0.01-0.01,0.01-0.01,0.01-0.01c0.42-0.44,0.83-0.9,1.24-1.34C87.19,68.89,80.34,72.85,74.81,78.18z"/>
</g>
</svg>
