<?xml version="1.0" encoding="UTF-8"?>
<svg width="150px" height="84px" viewBox="0 0 150 84" xmlns="http://www.w3.org/2000/svg" xmlns:xlink="http://www.w3.org/1999/xlink" version="1.1">
 <!-- Generated by Pixelmator Pro 2.3 -->
 <g id="svgg">
  <path id="path0" d="M6.069 48.812 C5.433 48.893 4.286 49.184 4.146 49.3 4.098 49.34 3.857 49.452 3.611 49.549 0.605 50.734 -0.781 55.819 1.246 58.226 1.366 58.369 1.559 58.598 1.675 58.735 1.791 58.872 2.092 59.131 2.345 59.31 2.597 59.49 2.856 59.687 2.918 59.747 3.072 59.894 4.011 60.322 4.719 60.568 5.036 60.678 5.337 60.802 5.389 60.844 5.441 60.885 6.368 61.14 7.45 61.41 8.532 61.679 9.436 61.923 9.459 61.952 9.482 61.981 9.632 62.033 9.792 62.068 11.734 62.49 12.47 63.116 12.481 64.356 12.49 65.281 12.106 65.931 11.356 66.262 11.164 66.346 10.986 66.446 10.96 66.482 10.761 66.759 8.11 66.893 7.115 66.675 5.61 66.346 4.514 65.242 4.377 63.914 L4.329 63.449 2.173 63.449 0.016 63.449 0.054 63.972 C0.213 66.144 0.783 67.465 2.064 68.63 2.63 69.145 3.719 69.755 4.268 69.864 4.407 69.892 4.52 69.944 4.52 69.978 4.52 70.047 4.571 70.061 5.566 70.262 7.651 70.682 11.337 70.557 12.598 70.022 12.736 69.963 13.15 69.793 13.518 69.644 14.162 69.384 14.498 69.194 14.858 68.888 15.322 68.493 15.829 67.942 15.954 67.698 16.032 67.548 16.122 67.406 16.156 67.383 16.504 67.143 16.909 65.6 16.968 64.283 17.109 61.124 15.974 59.67 12.598 58.684 12.229 58.576 11.89 58.459 11.844 58.423 11.748 58.347 9.906 57.864 8.664 57.588 8.203 57.486 7.789 57.372 7.743 57.336 7.697 57.3 7.5 57.228 7.305 57.176 5.716 56.751 4.294 55.395 4.589 54.586 4.633 54.465 4.713 54.203 4.767 54.003 4.854 53.687 5.776 52.565 5.776 52.777 5.776 52.811 5.823 52.8 5.88 52.752 6.305 52.403 8.349 52.239 9.333 52.474 10.288 52.703 11.095 53.283 11.666 54.15 12.396 55.258 12.745 55.404 14.669 55.409 L16.071 55.413 16.071 54.968 C16.071 52.624 14.656 50.314 12.753 49.551 12.483 49.443 12.243 49.327 12.219 49.292 12.157 49.203 10.945 48.902 10.254 48.803 9.547 48.703 6.885 48.708 6.069 48.812 M50.363 49.023 C50.214 49.172 50.308 67.999 50.46 68.437 50.719 69.186 51.327 69.743 52.009 69.855 52.201 69.887 52.404 69.95 52.459 69.995 52.589 70.1 55.693 70.188 56.438 70.109 L57.003 70.048 57.003 68.433 57.003 66.819 56.145 66.78 C54.472 66.704 54.576 67.059 54.576 61.395 L54.576 56.855 55.057 56.796 C56.391 56.63 57.003 55.894 57.003 54.453 L57.003 53.655 55.796 53.655 54.589 53.655 54.561 52.086 C54.531 50.313 54.515 50.26 53.862 49.606 53.337 49.082 52.92 48.967 51.519 48.967 50.914 48.967 50.393 48.993 50.363 49.023 M73.995 50.684 L73.995 52.399 76.141 52.399 78.287 52.399 78.247 51.332 C78.173 49.329 77.701 48.967 75.156 48.967 L73.995 48.967 Z M111.615 49.079 C111.591 49.141 111.586 52.691 111.603 56.968 111.633 64.694 111.649 65.144 111.913 65.751 111.953 65.842 112.049 66.125 112.126 66.378 112.723 68.329 114.544 69.814 116.923 70.287 118.519 70.604 121.481 70.434 122.542 69.965 124.159 69.249 124.985 68.647 125.521 67.791 125.647 67.589 125.774 67.406 125.803 67.383 126.165 67.093 126.747 65.23 126.968 63.658 127.027 63.231 127.029 60.835 126.97 60.393 126.519 57.043 125.472 55.112 123.633 54.238 123.334 54.096 122.994 53.929 122.88 53.867 122.232 53.519 120.084 53.346 119.071 53.561 117.969 53.795 116.022 55.11 115.914 55.694 115.904 55.747 115.876 54.528 115.851 52.986 115.801 49.821 115.822 49.928 115.12 49.4 114.582 48.996 111.746 48.737 111.615 49.079 M128.802 49.016 C128.767 49.051 128.739 53.838 128.739 59.654 L128.739 70.229 130.874 70.229 133.008 70.229 133.008 60.53 C133.008 49.876 133.031 50.493 132.602 49.927 132.011 49.149 131.665 49.014 130.162 48.981 129.448 48.965 128.836 48.981 128.802 49.016 M40.086 53.489 C39.31 53.563 38.191 53.804 38.124 53.912 38.098 53.955 38.023 53.99 37.959 53.99 37.198 53.99 35.58 55.297 35.071 56.322 34.625 57.222 34.258 59.598 34.565 59.598 34.614 59.598 34.654 59.692 34.654 59.807 34.654 60.619 35.821 62.148 36.789 62.604 38.423 63.375 38.553 63.417 40.304 63.741 41.477 63.958 41.916 64.064 42.229 64.206 42.321 64.247 42.594 64.357 42.835 64.449 43.791 64.816 44.19 65.166 44.194 65.643 44.202 66.574 43.54 66.99 41.978 67.035 39.716 67.1 38.69 66.523 38.455 65.055 L38.399 64.701 36.213 64.724 34.026 64.746 34.053 65.29 C34.155 67.345 35.283 69.038 37.021 69.749 37.261 69.847 37.477 69.953 37.5 69.985 38.002 70.665 43.493 70.66 44.991 69.978 45.193 69.886 45.389 69.81 45.426 69.81 45.693 69.81 46.752 69.15 47.231 68.685 48.55 67.405 49.086 64.928 48.377 63.387 48.288 63.192 48.214 62.998 48.214 62.957 48.214 62.755 47.434 61.857 47.019 61.582 45.945 60.868 44.576 60.4 42.062 59.884 39.454 59.349 38.367 58.49 39.042 57.497 39.766 56.432 43.526 56.82 43.527 57.96 43.527 58.132 44.085 58.674 44.411 58.819 44.68 58.938 45.054 58.971 46.444 58.996 L48.149 59.027 48.091 58.497 C47.986 57.541 47.567 56.25 47.361 56.25 47.324 56.25 47.293 56.194 47.293 56.126 47.293 55.766 45.79 54.469 45.072 54.21 44.89 54.144 44.628 54.043 44.489 53.986 43.7 53.655 42.006 53.377 41.016 53.416 40.854 53.422 40.436 53.455 40.086 53.489 M63.942 53.486 C61.7 53.703 59.859 54.821 59.246 56.337 59.03 56.871 58.677 57.924 58.677 58.035 58.677 58.066 59.647 58.092 60.833 58.092 L62.989 58.092 63.097 57.861 C63.682 56.612 67.222 56.678 67.801 57.95 68.017 58.424 67.621 59.347 67.203 59.347 67.162 59.347 66.97 59.418 66.775 59.505 66.228 59.75 66.202 59.755 64.718 59.936 59.921 60.521 58.151 62.098 58.284 65.667 58.373 68.077 59.661 69.686 62.016 70.333 62.772 70.54 65.272 70.587 66.211 70.411 67.157 70.233 67.885 70.046 67.885 69.979 67.885 69.944 67.991 69.894 68.121 69.868 68.816 69.729 69.923 69.035 70.665 68.275 71.038 67.892 71.731 66.582 71.928 65.889 72.103 65.271 72.109 65.1 72.111 61.147 L72.112 57.045 71.914 56.501 C71.542 55.478 70.033 54.074 69.306 54.074 69.256 54.074 69.057 54.002 68.864 53.915 68.083 53.562 65.493 53.336 63.942 53.486 M86.217 53.491 C83.898 53.739 82.058 54.852 81.249 56.496 81.081 56.839 80.943 57.17 80.943 57.233 80.943 57.296 80.871 57.506 80.783 57.699 80.439 58.456 80.399 59.188 80.399 64.83 L80.399 70.187 82.596 70.209 84.793 70.231 84.793 64.679 C84.793 57.881 84.738 58.194 86.064 57.508 86.646 57.207 87.958 57.096 88.402 57.31 88.512 57.363 88.775 57.486 88.986 57.582 89.452 57.796 89.641 57.994 89.953 58.594 L90.192 59.054 90.234 63.993 C90.28 69.365 90.263 69.184 90.753 69.64 91.259 70.112 91.524 70.177 93.059 70.212 L94.503 70.245 94.503 65.027 C94.502 58.018 94.424 57.426 93.299 55.816 92.047 54.025 89.389 53.153 86.217 53.491 M101.589 53.488 C100.867 53.557 100.071 53.71 99.902 53.811 99.856 53.839 99.8 53.866 99.777 53.87 99.694 53.887 99.391 54.017 98.881 54.255 97.827 54.746 96.858 55.942 96.518 57.172 96.235 58.189 96.027 58.092 98.477 58.092 L100.609 58.092 100.729 57.861 C101.28 56.803 104.24 56.631 105.188 57.602 105.855 58.285 105.303 59.514 104.33 59.514 104.273 59.514 104.214 59.553 104.199 59.599 104.184 59.645 103.738 59.741 103.209 59.812 97.823 60.531 96.33 61.506 95.923 64.569 95.445 68.162 97.77 70.567 101.718 70.563 102.974 70.562 104.821 70.288 105.427 70.015 105.565 69.952 105.891 69.823 106.15 69.728 107.727 69.148 109.063 67.637 109.447 66.001 109.523 65.679 109.628 65.325 109.682 65.215 109.821 64.929 109.82 57.28 109.682 56.995 109.627 56.884 109.517 56.606 109.436 56.376 108.693 54.268 105.544 53.109 101.589 53.488 M141.424 53.492 C140.634 53.581 139.863 53.732 139.746 53.821 139.7 53.856 139.512 53.932 139.327 53.991 138.38 54.291 137.079 55.238 136.582 55.988 135.994 56.877 135.855 57.146 135.62 57.858 134.871 60.122 134.919 64.193 135.72 66.322 136.895 69.445 140.141 71.037 144.187 70.474 144.819 70.386 145.9 70.094 145.982 69.989 146.005 69.96 146.287 69.804 146.609 69.643 147.267 69.313 148.351 68.314 148.653 67.759 148.753 67.575 148.91 67.305 149.003 67.159 149.164 66.905 149.589 65.752 149.699 65.269 L149.752 65.039 147.956 65.039 C145.898 65.039 145.937 65.03 145.05 65.739 143.004 67.376 140.659 67.077 139.887 65.081 139.78 64.805 139.656 64.511 139.611 64.428 139.566 64.344 139.507 64.034 139.479 63.738 L139.429 63.199 144.694 63.177 149.958 63.156 149.984 62.444 C150.135 58.333 148.753 55.229 146.317 54.203 146.11 54.116 145.79 53.979 145.605 53.899 144.777 53.54 142.746 53.342 141.424 53.492 M18.918 58.739 C18.919 65.317 19.004 66.248 19.723 67.592 21.071 70.11 25.995 71.372 29.071 69.987 29.264 69.9 29.717 69.707 30.078 69.558 31.023 69.167 31.613 68.597 32.099 67.604 32.842 66.088 32.896 65.496 32.896 58.817 L32.896 53.642 31.41 53.669 C29.709 53.701 29.349 53.823 28.893 54.525 L28.669 54.869 28.626 60.059 C28.577 65.804 28.6 65.576 28.017 66.309 27.242 67.285 24.6 67.3 23.829 66.333 23.289 65.656 23.316 65.988 23.27 59.556 L23.228 53.697 21.073 53.674 18.917 53.652 Z M73.995 61.935 L73.995 70.229 76.13 70.229 78.264 70.229 78.264 62.874 C78.264 55.162 78.25 54.834 77.891 54.363 77.457 53.795 77.14 53.703 75.481 53.671 L73.995 53.642 Z M143.926 57.34 C144.642 57.772 145.48 59.203 145.48 59.995 145.48 60.078 144.837 60.101 142.478 60.101 L139.476 60.101 139.539 59.787 C140.002 57.488 142.167 56.281 143.926 57.34 M119.944 57.349 C121.074 57.705 121.622 58.131 122.008 58.954 122.142 59.239 122.274 59.492 122.303 59.514 122.581 59.744 122.741 62.451 122.545 63.621 122.372 64.653 121.445 66.295 121.034 66.295 120.997 66.295 120.913 66.348 120.848 66.413 120.487 66.774 118.914 66.916 118.118 66.659 116.384 66.099 115.456 63.248 116.054 60.31 116.487 58.182 118.273 56.822 119.944 57.349 M67.969 63.147 C67.969 64.644 67.61 65.673 66.902 66.204 66.775 66.299 66.623 66.417 66.564 66.467 65.498 67.365 63.259 67.151 62.721 66.099 61.971 64.633 62.956 63.311 65.098 62.904 65.859 62.76 67.509 62.31 67.711 62.192 67.954 62.05 67.969 62.104 67.969 63.147 M105.614 63.26 C105.578 64.179 105.529 64.521 105.372 64.955 104.303 67.914 99.219 67.56 100.153 64.592 100.362 63.927 100.702 63.64 101.911 63.109 102.003 63.069 102.531 62.937 103.083 62.816 103.636 62.696 104.389 62.493 104.757 62.366 105.747 62.023 105.666 61.938 105.614 63.26 M14.865 75.005 C14.342 75.093 13.539 75.391 13.338 75.573 13.253 75.649 12.972 75.891 12.713 76.11 12.046 76.675 11.562 77.653 11.368 78.829 11.232 79.658 11.369 80.356 11.9 81.527 13.016 83.986 16.896 84.487 18.844 82.422 19.838 81.369 20.279 79.643 19.926 78.181 19.637 76.985 18.503 75.651 17.436 75.252 16.623 74.948 15.723 74.861 14.865 75.005 M28.563 75.009 C25.314 75.55 23.931 79.84 26.187 82.377 27.471 83.822 30.233 84.148 31.835 83.046 35.093 80.805 34.04 75.626 30.2 75.003 29.593 74.904 29.183 74.906 28.563 75.009 M145.505 75.163 C143.861 75.755 143.326 77.677 144.484 78.835 144.972 79.323 145.525 79.562 146.861 79.859 148.789 80.289 149.422 81.197 148.463 82.157 147.598 83.021 146.059 82.884 144.664 81.819 144.235 81.492 144.135 81.511 143.77 81.989 143.497 82.346 143.522 82.395 144.221 82.86 146.753 84.546 149.93 83.672 149.929 81.289 149.929 79.886 149.277 79.302 147.12 78.767 145.465 78.357 145.014 78.033 145.026 77.262 145.046 75.886 147.14 75.555 148.788 76.667 L149.156 76.915 149.467 76.491 149.779 76.066 149.492 75.822 C148.614 75.073 146.655 74.749 145.505 75.163 M0.335 79.311 L0.335 83.538 0.879 83.538 1.423 83.538 1.423 81.738 1.423 79.939 3.683 79.939 5.943 79.939 5.943 79.436 5.943 78.934 3.683 78.934 1.423 78.934 1.423 77.511 1.423 76.088 3.934 76.088 6.445 76.088 6.445 75.586 6.445 75.084 3.39 75.084 0.335 75.084 Z M39.174 79.304 L39.174 83.538 41.108 83.538 C42.596 83.538 43.159 83.508 43.551 83.406 47.028 82.505 47.836 77.935 44.884 75.871 43.926 75.202 43.633 75.14 41.246 75.103 L39.174 75.071 Z M58.51 75.172 C58.51 75.221 58.627 75.494 58.77 75.779 58.912 76.064 59.158 76.632 59.315 77.042 59.473 77.451 59.728 78.053 59.884 78.381 60.039 78.708 60.342 79.428 60.558 79.98 60.773 80.533 60.999 81.062 61.059 81.155 61.119 81.249 61.29 81.625 61.437 81.992 61.585 82.359 61.791 82.866 61.895 83.12 L62.085 83.58 62.602 83.605 C63.116 83.63 63.12 83.628 63.211 83.366 63.262 83.221 63.394 82.932 63.504 82.725 63.615 82.517 63.9 81.852 64.137 81.247 64.375 80.643 64.596 80.129 64.629 80.106 64.662 80.083 64.92 79.486 65.202 78.779 65.484 78.072 65.803 77.319 65.91 77.105 66.101 76.724 66.713 75.213 66.713 75.123 66.713 75.097 66.444 75.087 66.114 75.101 L65.515 75.126 65.277 75.711 C65.145 76.034 64.958 76.524 64.861 76.8 64.764 77.076 64.638 77.358 64.583 77.427 64.528 77.496 64.303 78.02 64.085 78.59 63.866 79.16 63.564 79.895 63.412 80.222 63.261 80.55 63.032 81.098 62.902 81.441 L62.668 82.065 62.535 81.776 C62.462 81.617 62.379 81.468 62.35 81.446 62.322 81.422 62.127 80.952 61.917 80.399 61.368 78.953 61.243 78.646 61.185 78.599 61.156 78.576 60.933 78.03 60.69 77.386 60.446 76.741 60.181 76.098 60.101 75.956 60.021 75.814 59.91 75.56 59.854 75.391 L59.752 75.084 59.131 75.084 C58.751 75.084 58.51 75.118 58.51 75.172 M71.819 79.311 L71.819 83.538 74.916 83.538 78.013 83.538 78.013 83.077 78.013 82.617 75.46 82.617 72.908 82.617 72.908 81.236 72.908 79.855 75.105 79.854 C77.613 79.852 77.53 79.873 77.495 79.261 L77.469 78.809 75.188 78.786 72.908 78.764 72.908 77.426 72.908 76.088 75.46 76.088 78.013 76.088 78.013 75.586 78.013 75.084 74.916 75.084 71.819 75.084 Z M83.37 79.311 L83.37 83.538 83.914 83.538 84.457 83.538 84.478 80.274 84.501 77.011 84.877 77.486 C85.084 77.747 85.486 78.265 85.769 78.636 86.053 79.007 86.354 79.384 86.439 79.473 86.608 79.651 87.37 80.628 88.11 81.613 88.369 81.958 88.651 82.316 88.736 82.408 88.821 82.5 89.054 82.782 89.253 83.036 89.609 83.488 89.624 83.496 90.092 83.521 L90.569 83.546 90.569 79.315 90.569 75.084 90.025 75.084 89.481 75.084 89.476 78.327 C89.472 80.873 89.45 81.536 89.371 81.409 89.317 81.32 89.137 81.094 88.972 80.907 88.807 80.719 88.509 80.34 88.31 80.064 88.111 79.788 87.861 79.468 87.754 79.353 87.648 79.238 87.393 78.917 87.188 78.641 86.983 78.365 86.745 78.064 86.659 77.971 86.572 77.88 86.277 77.505 86.003 77.139 85.729 76.773 85.416 76.377 85.307 76.26 85.198 76.143 84.961 75.83 84.781 75.565 L84.453 75.084 83.911 75.084 83.37 75.084 Z M95.842 75.607 L95.842 76.13 97.224 76.105 98.605 76.08 98.605 79.809 98.605 83.538 99.149 83.538 99.693 83.538 99.693 79.809 99.693 76.081 101.053 76.093 102.414 76.105 102.438 75.594 102.463 75.084 99.153 75.084 95.842 75.084 Z M107.563 77.821 C107.565 81.672 107.827 82.578 109.144 83.283 110.42 83.965 112.846 83.735 113.64 82.856 114.588 81.807 114.676 81.387 114.676 77.912 L114.676 75.084 114.132 75.084 113.588 75.084 113.587 77.7 C113.585 81.307 113.507 81.621 112.441 82.334 111.942 82.668 110.359 82.836 110.174 82.575 110.141 82.528 109.969 82.415 109.792 82.323 108.837 81.83 108.733 81.405 108.71 77.941 L108.691 75.126 108.126 75.101 107.561 75.076 Z M120.368 79.304 L120.368 83.538 120.912 83.538 121.456 83.538 121.456 81.948 121.456 80.357 122.566 80.359 123.675 80.361 124.344 81.252 C124.713 81.743 125.119 82.296 125.248 82.482 125.377 82.669 125.619 82.983 125.787 83.179 L126.093 83.538 126.753 83.538 C127.503 83.538 127.5 83.544 127.005 82.928 126.487 82.281 125.043 80.339 125.002 80.231 124.982 80.179 125.165 80.076 125.418 79.996 127.658 79.29 127.716 76.332 125.509 75.316 125.118 75.135 124.982 75.124 122.733 75.098 L120.368 75.07 Z M132.505 79.311 L132.505 83.538 135.645 83.538 138.783 83.538 138.783 83.077 138.783 82.617 136.189 82.617 133.594 82.617 133.594 81.237 133.594 79.858 135.875 79.835 138.156 79.813 138.181 79.29 138.206 78.767 135.9 78.767 133.594 78.767 133.594 77.427 133.594 76.088 136.189 76.088 138.783 76.088 138.783 75.586 138.783 75.084 135.645 75.084 132.505 75.084 Z M16.498 76.118 C19.33 76.985 19.772 81.168 17.153 82.324 16.949 82.413 16.757 82.524 16.726 82.569 16.694 82.614 16.306 82.667 15.863 82.686 14.649 82.739 13.525 82.105 12.998 81.069 12.881 80.838 12.752 80.629 12.712 80.603 12.672 80.578 12.598 80.333 12.547 80.06 12.084 77.589 14.249 75.429 16.498 76.118 M30.775 76.329 C32.297 77.038 33.113 79.256 32.371 80.666 32.303 80.795 32.179 81.032 32.097 81.191 31.884 81.599 31.307 82.135 30.876 82.326 30.675 82.415 30.485 82.524 30.453 82.569 30.422 82.614 30.042 82.666 29.61 82.685 28.674 82.726 27.847 82.403 27.232 81.755 24.646 79.033 27.43 74.769 30.775 76.329 M42.564 76.166 C46.228 76.607 46.612 81.844 43.023 82.418 42.837 82.448 42.666 82.505 42.641 82.545 42.616 82.584 42.071 82.617 41.429 82.617 L40.262 82.617 40.262 79.353 40.262 76.088 41.12 76.092 C41.592 76.094 42.242 76.127 42.564 76.166 M125.121 76.393 C126.172 76.919 126.319 78.148 125.412 78.825 125.239 78.954 125.079 79.083 125.056 79.113 124.934 79.269 124.193 79.352 122.9 79.352 L121.456 79.353 121.456 77.708 121.456 76.063 123.049 76.108 C124.591 76.152 124.658 76.161 125.121 76.393" fill="#848484" fill-opacity="1" stroke="none"/>
  <path id="path1" d="M45.159 0.051 C42.265 0.193 37.359 0.843 37.263 1.099 37.247 1.14 37.201 1.153 37.161 1.128 37.121 1.103 37.021 1.12 36.938 1.166 36.856 1.211 36.431 1.327 35.993 1.424 35.122 1.617 33.288 2.134 33.022 2.261 32.93 2.305 32.233 2.553 31.473 2.812 30.714 3.07 30.054 3.312 30.008 3.349 29.962 3.385 29.341 3.65 28.627 3.937 27.914 4.223 27.311 4.486 27.288 4.52 27.265 4.555 27.039 4.669 26.786 4.774 26.532 4.88 26.291 4.997 26.248 5.034 26.166 5.105 26.439 5.692 26.554 5.692 26.589 5.692 26.621 5.739 26.624 5.797 26.628 5.898 27.233 6.942 27.749 7.739 29.154 9.912 29.519 10.468 29.725 10.756 29.856 10.94 30.129 11.336 30.332 11.635 30.785 12.307 32.004 13.961 32.213 14.188 32.298 14.28 32.548 14.6 32.769 14.899 32.99 15.199 33.233 15.5 33.308 15.569 33.383 15.638 33.588 15.883 33.762 16.113 34.08 16.535 34.313 16.803 35.753 18.413 37.168 19.996 39.868 22.625 41.058 23.579 41.334 23.8 41.704 24.112 41.879 24.272 42.054 24.431 42.342 24.657 42.518 24.774 42.694 24.891 43.022 25.143 43.245 25.333 43.69 25.713 44.333 26.174 45.494 26.947 45.908 27.222 46.417 27.564 46.624 27.707 47.589 28.372 49.599 29.513 51.06 30.225 53.949 31.633 53.902 31.619 54.107 31.187 54.182 31.029 54.275 30.888 54.313 30.873 54.353 30.858 54.584 30.525 54.828 30.134 55.071 29.743 55.34 29.347 55.424 29.255 55.508 29.163 55.822 28.73 56.121 28.292 57.453 26.345 57.706 25.989 57.774 25.961 57.815 25.946 58.013 25.682 58.215 25.375 58.417 25.069 58.652 24.743 58.737 24.651 58.822 24.559 59.004 24.333 59.141 24.149 59.709 23.383 61.153 21.548 61.249 21.47 61.305 21.425 61.502 21.183 61.687 20.934 61.871 20.686 62.184 20.309 62.381 20.097 62.579 19.886 62.801 19.619 62.876 19.503 62.951 19.388 63.224 19.062 63.482 18.778 64.045 18.16 64.068 18.204 62.857 17.62 62.38 17.39 61.931 17.154 61.86 17.095 61.788 17.036 61.312 16.791 60.802 16.551 60.292 16.31 59.822 16.073 59.757 16.023 59.693 15.973 59.188 15.732 58.636 15.487 58.083 15.242 57.48 14.958 57.296 14.856 57.112 14.753 56.472 14.468 55.874 14.221 55.275 13.975 54.767 13.752 54.743 13.725 54.72 13.698 54.4 13.557 54.032 13.41 53.664 13.264 53.023 13.008 52.609 12.841 51.387 12.35 49.782 11.751 49.512 11.686 49.374 11.652 49.11 11.557 48.926 11.474 48.418 11.244 48.198 11.17 46.791 10.758 46.078 10.549 45.362 10.325 45.201 10.26 45.04 10.194 44.8 10.117 44.668 10.089 44.536 10.06 44.446 10.018 44.468 9.996 44.549 9.916 49.293 11.109 50.807 11.59 51.292 11.744 52.253 12.042 52.944 12.252 54.735 12.798 56.844 13.51 57.673 13.849 58.064 14.009 58.854 14.313 59.428 14.524 60.001 14.736 60.51 14.939 60.558 14.977 60.662 15.059 62.116 15.653 62.214 15.653 62.251 15.653 62.706 15.858 63.225 16.108 63.744 16.359 64.389 16.646 64.658 16.747 L65.147 16.93 65.566 16.48 C67.298 14.618 69.587 12.385 71.547 10.645 72.731 9.594 72.939 9.375 72.752 9.375 72.713 9.375 72.563 9.262 72.418 9.124 72.273 8.985 71.9 8.709 71.587 8.508 71.274 8.308 70.963 8.088 70.895 8.02 70.827 7.952 70.433 7.683 70.019 7.423 69.605 7.162 69.177 6.882 69.069 6.801 68.961 6.721 68.509 6.452 68.065 6.205 67.621 5.957 67.238 5.726 67.215 5.689 67.193 5.654 66.703 5.389 66.127 5.101 65.552 4.813 65.062 4.552 65.039 4.521 65.016 4.49 64.64 4.304 64.202 4.108 63.765 3.912 63.143 3.626 62.821 3.471 62.131 3.139 61.589 2.924 60.561 2.575 60.147 2.435 59.77 2.294 59.724 2.262 59.505 2.113 57.557 1.521 56.668 1.333 56.415 1.28 56.171 1.207 56.124 1.172 55.943 1.034 53.686 0.595 52.065 0.384 50.125 0.131 46.8 -0.029 45.159 0.051 M39.129 79.353 C39.129 81.632 39.14 82.564 39.153 81.424 39.166 80.285 39.166 78.42 39.153 77.281 39.14 76.141 39.129 77.074 39.129 79.353 M2.658 76.151 C3.36 76.165 4.509 76.165 5.211 76.151 5.913 76.137 5.338 76.125 3.934 76.125 2.53 76.125 1.956 76.137 2.658 76.151 M40.747 76.15 C41.036 76.167 41.488 76.167 41.751 76.15 42.014 76.133 41.777 76.12 41.225 76.12 40.673 76.12 40.457 76.134 40.747 76.15 M96.575 76.15 C96.955 76.166 97.576 76.166 97.956 76.15 98.336 76.135 98.025 76.122 97.266 76.122 96.506 76.122 96.195 76.135 96.575 76.15 M100.346 76.15 C100.728 76.166 101.331 76.166 101.685 76.15 102.04 76.135 101.727 76.122 100.99 76.122 100.254 76.122 99.964 76.135 100.346 76.15 M122.067 76.15 C122.426 76.166 122.991 76.166 123.323 76.15 123.654 76.134 123.361 76.122 122.67 76.122 121.98 76.122 121.708 76.135 122.067 76.15" fill="#9cc46c" fill-opacity="1" stroke="none"/>
  <path id="path2" d="M101.827 0.051 C100.599 0.111 98.778 0.265 97.893 0.383 96.369 0.586 94.035 1.042 93.879 1.166 93.831 1.204 93.603 1.276 93.373 1.325 92.669 1.473 90.286 2.176 90.238 2.249 90.213 2.287 89.835 2.441 89.397 2.592 88.326 2.96 87.873 3.14 87.179 3.47 86.857 3.624 86.254 3.904 85.84 4.093 85.425 4.283 85.03 4.474 84.961 4.518 84.892 4.562 84.383 4.829 83.831 5.112 83.279 5.395 82.808 5.654 82.785 5.689 82.762 5.724 82.46 5.913 82.115 6.109 81.77 6.305 81.363 6.537 81.21 6.624 81.058 6.712 80.888 6.822 80.834 6.871 80.779 6.919 80.47 7.124 80.148 7.326 79.826 7.528 79.517 7.733 79.461 7.781 79.405 7.829 79.322 7.868 79.277 7.868 79.231 7.868 79.164 7.92 79.127 7.983 79.09 8.046 78.796 8.267 78.474 8.474 78.152 8.68 77.756 8.967 77.595 9.111 77.434 9.255 77.276 9.373 77.244 9.373 77.16 9.376 75.049 11.046 74.468 11.57 74.198 11.813 73.915 12.045 73.84 12.087 73.411 12.32 69.696 15.899 67.904 17.805 67.548 18.184 67.07 18.685 66.841 18.92 66.612 19.154 66.368 19.432 66.297 19.537 66.183 19.708 65.866 20.074 64.74 21.339 64.552 21.549 63.96 22.268 63.423 22.935 62.127 24.549 62.137 24.537 61.934 24.777 61.837 24.892 61.626 25.184 61.465 25.425 61.304 25.667 61.143 25.865 61.108 25.865 61.072 25.865 60.939 26.025 60.811 26.221 60.683 26.417 60.308 26.934 59.976 27.372 59.646 27.809 59.278 28.321 59.159 28.51 59.04 28.698 58.827 28.979 58.686 29.133 58.545 29.288 58.372 29.536 58.301 29.684 58.231 29.832 58.023 30.144 57.84 30.376 57.656 30.609 57.506 30.82 57.506 30.846 57.506 30.873 57.363 31.09 57.188 31.33 57.013 31.57 56.766 31.945 56.64 32.164 56.514 32.382 56.38 32.561 56.343 32.561 56.307 32.561 56.169 32.759 56.037 33.001 55.906 33.243 55.51 33.873 55.157 34.403 54.805 34.932 54.468 35.457 54.409 35.569 54.35 35.682 54.239 35.841 54.161 35.925 54.084 36.008 53.82 36.443 53.575 36.892 53.33 37.342 53.104 37.728 53.074 37.751 52.963 37.836 52.662 38.311 52.358 38.881 52.186 39.203 51.98 39.542 51.899 39.634 51.819 39.727 51.697 39.915 51.629 40.053 51.307 40.699 50.766 41.652 50.678 41.727 50.625 41.773 50.378 42.205 50.13 42.686 49.882 43.167 49.626 43.626 49.56 43.706 49.496 43.785 49.225 44.258 48.959 44.756 48.694 45.254 48.353 45.887 48.2 46.164 47.49 47.454 47.946 47.146 49.192 45.494 49.4 45.217 49.599 44.973 49.635 44.95 49.67 44.927 49.937 44.607 50.227 44.238 50.517 43.87 50.777 43.55 50.805 43.527 50.833 43.504 51.061 43.24 51.312 42.941 51.986 42.138 52.685 41.353 53.064 40.974 53.248 40.79 53.495 40.507 53.614 40.346 53.807 40.084 55.022 38.801 57.023 36.747 57.753 35.997 59.6 34.233 60.615 33.315 60.945 33.015 61.378 32.611 61.576 32.417 61.773 32.222 62.116 31.926 62.336 31.758 62.557 31.59 62.869 31.327 63.03 31.172 63.303 30.91 64.884 29.596 65.835 28.839 66.065 28.657 66.272 28.483 66.295 28.455 66.318 28.426 66.568 28.245 66.85 28.053 67.132 27.862 67.414 27.644 67.476 27.569 67.538 27.495 67.835 27.271 68.134 27.073 68.435 26.875 68.766 26.633 68.87 26.536 68.975 26.438 69.395 26.125 69.804 25.839 70.214 25.554 70.788 25.151 71.08 24.944 71.372 24.737 71.708 24.517 71.827 24.456 71.946 24.395 72.189 24.215 72.365 24.058 72.542 23.901 72.718 23.772 72.756 23.772 72.846 23.772 73.766 23.172 73.848 23.061 73.889 23.005 73.91 23.005 73.912 23.061 73.913 23.108 73.941 23.104 73.976 23.051 74.01 23 74.245 22.83 74.5 22.674 74.754 22.519 75.037 22.345 75.128 22.289 75.219 22.233 75.415 22.125 75.565 22.049 75.715 21.974 75.837 21.883 75.837 21.847 75.837 21.812 75.978 21.716 76.151 21.635 76.324 21.554 76.653 21.369 76.883 21.224 77.114 21.079 77.424 20.91 77.574 20.849 77.724 20.789 77.846 20.709 77.846 20.674 77.846 20.638 78.308 20.374 78.871 20.086 79.436 19.799 79.915 19.536 79.939 19.5 79.962 19.465 80.451 19.201 81.027 18.915 81.602 18.628 82.092 18.369 82.115 18.339 82.138 18.309 82.515 18.121 82.952 17.923 83.39 17.724 83.898 17.475 84.082 17.37 84.266 17.265 84.868 16.983 85.421 16.744 85.972 16.504 86.688 16.184 87.011 16.033 87.333 15.881 87.899 15.636 88.267 15.488 88.636 15.339 89.031 15.177 89.146 15.128 89.261 15.079 89.408 15.029 89.473 15.017 89.537 15.004 89.612 14.959 89.64 14.915 89.668 14.871 90.293 14.624 91.03 14.366 91.766 14.107 92.463 13.845 92.578 13.782 92.693 13.719 93.277 13.509 93.876 13.315 94.474 13.122 95.246 12.855 95.592 12.722 95.937 12.589 96.973 12.267 97.893 12.005 98.814 11.743 99.607 11.499 99.654 11.461 99.702 11.424 100.738 11.143 101.956 10.838 103.175 10.533 104.454 10.211 104.799 10.123 105.501 9.944 105.818 9.949 105.171 10.129 104.943 10.193 104.663 10.294 104.548 10.353 104.433 10.413 104.294 10.462 104.24 10.462 104.088 10.464 101.234 11.362 101.061 11.463 100.976 11.513 100.359 11.739 99.689 11.964 99.019 12.19 98.221 12.489 97.915 12.63 97.609 12.77 96.99 13.022 96.538 13.19 96.087 13.358 95.676 13.529 95.626 13.569 95.576 13.609 95.509 13.618 95.479 13.587 95.449 13.557 95.424 13.578 95.424 13.635 95.424 13.691 95.387 13.714 95.34 13.686 95.294 13.658 95.256 13.665 95.256 13.702 95.256 13.739 95.077 13.841 94.859 13.928 93.578 14.44 92.662 14.85 92.662 14.912 92.662 14.951 92.621 14.983 92.571 14.983 92.521 14.983 92.229 15.1 91.922 15.242 91.616 15.384 91.139 15.595 90.862 15.711 90.586 15.826 90.303 15.967 90.234 16.023 90.165 16.08 89.638 16.36 89.063 16.647 87.068 17.641 86.091 18.148 85.986 18.243 85.929 18.295 85.881 18.308 85.88 18.272 85.88 18.236 85.851 18.249 85.818 18.302 85.784 18.355 85.304 18.635 84.752 18.924 84.199 19.214 83.703 19.494 83.649 19.548 83.596 19.601 83.238 19.807 82.854 20.006 82.471 20.204 81.95 20.507 81.696 20.677 81.443 20.848 81.006 21.103 80.726 21.245 80.445 21.386 80.1 21.599 79.96 21.717 79.82 21.834 79.685 21.931 79.661 21.931 79.576 21.931 78.138 22.809 77.972 22.963 77.88 23.048 77.629 23.207 77.415 23.316 77.201 23.426 76.849 23.639 76.633 23.79 76.003 24.232 75.317 24.676 74.988 24.856 74.82 24.947 74.632 25.071 74.569 25.13 74.39 25.3 73.844 25.698 73.791 25.698 73.692 25.698 72.824 26.31 72.824 26.379 72.824 26.418 72.785 26.451 72.738 26.451 72.645 26.451 71.574 27.169 70.818 27.738 70.563 27.93 70.245 28.143 70.11 28.21 69.976 28.279 69.768 28.432 69.649 28.551 69.53 28.67 69.338 28.816 69.224 28.877 69.109 28.938 68.601 29.296 68.094 29.673 67.588 30.05 67.022 30.453 66.837 30.57 66.653 30.686 66.446 30.848 66.379 30.929 66.311 31.01 66.001 31.245 65.689 31.45 65.378 31.655 65.019 31.933 64.893 32.067 64.766 32.201 64.625 32.31 64.578 32.31 64.532 32.31 64.4 32.396 64.285 32.501 64.17 32.606 63.927 32.804 63.743 32.941 63.56 33.077 63.353 33.234 63.283 33.29 63.213 33.344 63.062 33.463 62.946 33.554 62.643 33.793 62.943 33.884 65.206 34.237 65.552 34.292 65.91 34.369 66.002 34.41 66.21 34.504 69.03 34.859 70.982 35.037 74.18 35.33 79.754 35.285 82.994 34.941 84.12 34.821 86.091 34.531 86.091 34.486 86.091 34.479 86.166 34.461 86.258 34.446 87.521 34.242 91.089 33.397 91.395 33.229 91.47 33.188 91.984 33.019 92.536 32.854 93.755 32.492 94.531 32.224 94.587 32.147 94.61 32.116 94.987 31.964 95.424 31.809 95.862 31.655 96.395 31.446 96.61 31.344 96.825 31.243 97.098 31.135 97.217 31.105 97.336 31.076 97.433 31.017 97.433 30.975 97.433 30.933 97.631 30.824 97.872 30.733 98.506 30.492 99.63 29.965 99.777 29.84 99.846 29.781 100.299 29.525 100.783 29.272 101.267 29.019 101.889 28.667 102.164 28.489 102.439 28.312 102.804 28.096 102.975 28.009 103.145 27.922 103.361 27.781 103.454 27.694 103.547 27.607 103.841 27.405 104.107 27.244 104.372 27.083 104.816 26.784 105.092 26.58 105.368 26.375 105.847 26.036 106.155 25.828 106.464 25.619 106.785 25.374 106.869 25.284 106.954 25.193 107.179 25.014 107.37 24.885 107.561 24.756 107.899 24.492 108.121 24.298 108.342 24.103 108.797 23.715 109.131 23.436 109.716 22.945 112.08 20.791 112.165 20.67 112.188 20.637 112.738 20.05 113.387 19.367 114.036 18.682 114.746 17.915 114.965 17.662 115.183 17.409 115.556 16.981 115.793 16.713 116.031 16.444 116.24 16.18 116.259 16.127 116.277 16.073 116.443 15.879 116.628 15.695 116.812 15.511 117.086 15.172 117.237 14.941 117.388 14.711 117.636 14.385 117.789 14.217 117.942 14.049 118.236 13.665 118.443 13.363 118.65 13.061 118.848 12.813 118.883 12.81 118.917 12.809 118.946 12.75 118.946 12.681 118.946 12.612 118.976 12.556 119.012 12.556 119.049 12.556 119.283 12.245 119.532 11.865 119.782 11.486 120.039 11.121 120.103 11.055 120.167 10.989 120.423 10.619 120.672 10.233 120.921 9.848 121.162 9.488 121.208 9.433 121.365 9.247 121.938 8.313 122.084 8.006 122.164 7.838 122.265 7.701 122.308 7.701 122.352 7.701 122.365 7.665 122.338 7.622 122.312 7.579 122.343 7.513 122.408 7.476 122.473 7.438 122.648 7.182 122.796 6.906 122.945 6.63 123.232 6.148 123.434 5.836 123.635 5.524 123.8 5.217 123.8 5.156 123.8 5.028 122.307 4.274 121.164 3.824 120.749 3.66 120.26 3.453 120.075 3.363 119.891 3.273 119.157 3.005 118.443 2.769 117.729 2.532 117.033 2.288 116.895 2.226 116.521 2.057 116.183 1.957 114.627 1.556 113.848 1.355 113.004 1.134 112.751 1.064 110.378 0.413 104.862 -0.098 101.827 0.051" fill="#6c9c2c" fill-opacity="1" stroke="none"/>
 </g>
</svg>
