<svg id="Snabb_logo_-_menu" data-name="Snabb logo - menu" xmlns="http://www.w3.org/2000/svg" xmlns:xlink="http://www.w3.org/1999/xlink" width="121.991" height="32" viewBox="0 0 121.991 32">
  <defs>
    <clipPath id="clip-path">
      <rect id="Rectangle_5921" data-name="Rectangle 5921" width="121.991" height="32"/>
    </clipPath>
  </defs>
  <g id="Group_33533" data-name="Group 33533" clip-path="url(#clip-path)">
    <path id="Path_872" data-name="Path 872" d="M21.017,20.8c-1.046-5.067-5.551-7.135-7.717-8.129l-.852-.4C8.564,10.469,7.914,9.748,7.933,8.5a2.32,2.32,0,0,1,2.012-2.15,2.688,2.688,0,0,1,3.047,1.825l6.068-2.205a8.915,8.915,0,0,0-3.537-4.361A9.306,9.306,0,0,0,8.743.3,8.506,8.506,0,0,0,1.476,8.4C1.387,14.241,6.4,16.575,9.718,18.12l.885.411c1.951.9,3.732,1.842,4.089,3.571a3.057,3.057,0,0,1-.7,2.557,4.1,4.1,0,0,1-3.452,1.123A3.942,3.942,0,0,1,7.11,23.605,5.95,5.95,0,0,1,6.459,21.3H0A12.547,12.547,0,0,0,1.228,26.28a10.239,10.239,0,0,0,8.835,5.8q.56.042,1.081.041A9.534,9.534,0,0,0,21.017,20.8" transform="translate(-0.001 -0.119)"/>
    <path id="Path_873" data-name="Path 873" d="M668.591,11.608A8.735,8.735,0,0,0,669.1,10.5a8.521,8.521,0,0,0,.561-3.658,6.758,6.758,0,0,0-.682-2.678A6.679,6.679,0,0,0,665.9.993,7.341,7.341,0,0,0,662.456.14h-9.463V32.119h11.868a10.6,10.6,0,0,0,3.73-20.51M659.3,5.252a0,0,0,0,1,0,0h1.88c2.261,0,3.108,1.35,3.108,2.779,0,1.747-1.483,2.672-2.808,3.489a12.063,12.063,0,0,0-2.184,1.467Zm4.756,20.622H659.3V21.1a4.757,4.757,0,1,1,4.756,4.778" transform="translate(-553.419 -0.119)"/>
    <path id="Path_874" data-name="Path 874" d="M504.493,11.608a8.709,8.709,0,0,0,.513-1.113,8.519,8.519,0,0,0,.561-3.658,6.757,6.757,0,0,0-.682-2.678A6.679,6.679,0,0,0,501.806.993,7.341,7.341,0,0,0,498.358.14H488.9V32.119h11.868a10.6,10.6,0,0,0,3.73-20.51m-9.287-6.355a0,0,0,0,1,0,0h1.88c2.26,0,3.108,1.35,3.108,2.779,0,1.747-1.483,2.672-2.808,3.489a12.068,12.068,0,0,0-2.184,1.467Zm4.757,20.622h-4.757V21.1a4.757,4.757,0,1,1,4.757,4.778" transform="translate(-414.344 -0.119)"/>
    <path id="Path_875" data-name="Path 875" d="M180.5,9.884A9.885,9.885,0,0,0,170.613,0a8.832,8.832,0,0,0-5.962,2.068V0h-6.3V31.977h6.317V10.938a4.791,4.791,0,0,1,9.581,0v21.04H180.5Z" transform="translate(-134.203 0.001)"/>
    <path id="Path_876" data-name="Path 876" d="M335.78.129h-.526A9.148,9.148,0,0,0,327,5.948l6.062,2.182a2.5,2.5,0,0,1,2.576-1.879A2.336,2.336,0,0,1,338.1,8.5v3.292a9.754,9.754,0,0,0-5.871-1.78c-5.51,0-9.976,4.946-9.976,11.047s4.466,11.047,9.976,11.047a9.3,9.3,0,0,0,5.871-2.118v2.118H344.4V8.851A8.652,8.652,0,0,0,335.78.129m-2.461,25.7a4.75,4.75,0,1,1,4.75-4.75,4.755,4.755,0,0,1-4.75,4.75" transform="translate(-273.117 -0.109)"/>
  </g>
</svg>
