<?xml version="1.0" encoding="UTF-8"?>
<!-- Generated by Pixelmator Pro 3.5.11 -->
<svg width="120" height="25" viewBox="0 0 120 25" xmlns="http://www.w3.org/2000/svg">
    <path id="Path" fill="#e1ffa0" fill-rule="evenodd" stroke="none" d="M 16.25868 6.550682 L 13.430573 8.210814 C 12.420943 6.748779 10.749993 5.793167 8.859485 5.793167 C 7.953036 5.793167 7.096971 6.012899 6.340118 6.402838 L 4.603678 3.344877 C 5.856015 2.609602 7.309441 2.188873 8.859485 2.188873 C 12.025946 2.188873 14.789113 3.94454 16.25868 6.550682 Z"/>
    <path id="path1" fill="#e1ffa0" fill-rule="evenodd" stroke="none" d="M 9.613803 18.419556 L 12.441834 16.759434 C 13.45154 18.221474 15.122488 19.177071 17.012922 19.177071 C 17.919447 19.177071 18.775436 18.957361 19.53232 18.567408 L 21.268738 21.625383 C 20.016392 22.360661 18.562967 22.781364 17.012922 22.781364 C 13.846461 22.781364 11.083294 21.02569 9.613803 18.419556 Z"/>
    <path id="path2" fill="#e1ffa0" fill-rule="evenodd" stroke="none" d="M 9.542753 6.592392 L 9.542753 9.912654 C 7.792609 10.070629 6.143163 11.064186 5.197931 12.728758 C 4.744668 13.526994 4.503817 14.390568 4.457521 15.251994 L 0.984641 15.251994 C 0.984528 13.781672 1.352885 12.291489 2.127922 10.926611 C 3.711145 8.138498 6.588129 6.583305 9.542753 6.592392 Z"/>
    <path id="path3" fill="#e1ffa0" fill-rule="evenodd" stroke="none" d="M 16.329805 18.377838 L 16.329805 15.057591 C 18.07995 14.899616 19.729328 13.906059 20.67462 12.241488 C 21.127844 11.443252 21.368673 10.579678 21.414984 9.718251 L 24.887894 9.718251 C 24.88797 11.188574 24.519596 12.678757 23.744614 14.043634 C 22.161383 16.831749 19.284399 18.386963 16.329805 18.377838 Z"/>
    <path id="path4" fill="#e1ffa0" fill-rule="evenodd" stroke="none" d="M 6.220284 12.526841 L 9.048347 14.186963 C 8.307907 15.806978 8.329403 17.756134 9.27462 19.420706 C 9.72792 20.218941 10.343081 20.862806 11.053651 21.33428 L 9.317159 24.392256 C 8.064739 23.657207 6.979655 22.58773 6.204618 21.222853 C 4.621395 18.43474 4.73524 15.12385 6.220284 12.526841 Z"/>
    <path id="path5" fill="#e1ffa0" fill-rule="evenodd" stroke="none" d="M 19.652245 12.443404 L 16.824135 10.783282 C 17.564651 9.163267 17.543079 7.214127 16.597862 5.549524 C 16.144638 4.75132 15.529479 4.107422 14.818906 3.63596 L 16.555325 0.577999 C 17.807743 1.313082 18.892874 2.382492 19.667856 3.747375 C 21.251087 6.535513 21.137272 9.846395 19.652245 12.443404 Z"/>
    <path id="path6" fill="#071412" stroke="none" d="M 36.656193 22.354294 C 35.19545 22.354294 33.840378 22.16641 32.590824 21.790644 C 31.341269 21.397009 30.28533 20.869095 29.423004 20.207054 L 30.452545 17.496166 C 31.314873 18.122469 32.256466 18.605598 33.277184 18.945553 C 34.315552 19.285507 35.44186 19.455521 36.656193 19.455521 C 38.046486 19.455521 39.058453 19.222931 39.692017 18.757669 C 40.325584 18.27454 40.642361 17.657207 40.642361 16.905674 C 40.642361 16.279371 40.413601 15.787347 39.956001 15.429447 C 39.516052 15.071549 38.7505 14.776303 37.659332 14.543712 L 34.755497 13.926381 C 31.446865 13.210659 29.792583 11.483895 29.792583 8.746166 C 29.792583 7.565184 30.100542 6.536297 30.71653 5.65951 C 31.33252 4.782722 32.18602 4.10276 33.277184 3.619633 C 34.368347 3.136503 35.626652 2.894939 37.05217 2.894939 C 38.319294 2.894939 39.507229 3.091772 40.615963 3.48543 C 41.724701 3.861197 42.648651 4.398006 43.387806 5.09586 L 42.358265 7.672546 C 40.897522 6.419992 39.120075 5.793713 37.025768 5.793713 C 35.81144 5.793713 34.861095 6.053165 34.174732 6.572086 C 33.488373 7.091005 33.145191 7.770937 33.145191 8.611963 C 33.145191 9.256135 33.35638 9.775078 33.778755 10.168712 C 34.201134 10.544478 34.922714 10.839725 35.943432 11.054447 L 38.820869 11.671779 C 40.563168 12.047546 41.856693 12.638037 42.701447 13.443252 C 43.56377 14.248466 43.994972 15.322086 43.994972 16.664112 C 43.994972 17.79141 43.695763 18.78451 43.097424 19.643404 C 42.499081 20.5023 41.645508 21.173313 40.53677 21.656441 C 39.445606 22.121704 38.152081 22.354294 36.656193 22.354294 Z M 51.937222 22.354294 C 50.599648 22.354294 49.438114 22.076918 48.452621 21.52224 C 47.467052 20.96756 46.701496 20.180214 46.155952 19.160276 C 45.610332 18.122469 45.337601 16.905674 45.337601 15.50997 C 45.337601 14.114264 45.610332 12.906442 46.155952 11.886503 C 46.701496 10.866564 47.467052 10.079218 48.452621 9.52454 C 49.438114 8.969862 50.599648 8.692486 51.937222 8.692486 C 53.274719 8.692486 54.436256 8.969862 55.421825 9.52454 C 56.407318 10.079218 57.172874 10.866564 57.718491 11.886503 C 58.264034 12.906442 58.536846 14.114264 58.536846 15.50997 C 58.536846 16.905674 58.264034 18.122469 57.718491 19.160276 C 57.172874 20.180214 56.407318 20.96756 55.421825 21.52224 C 54.436256 22.076918 53.274719 22.354294 51.937222 22.354294 Z M 51.937222 19.804447 C 52.922714 19.804447 53.714668 19.446548 54.313087 18.730827 C 54.911427 17.997162 55.210632 16.923542 55.210632 15.50997 C 55.210632 14.07845 54.911427 13.013803 54.313087 12.315951 C 53.714668 11.60023 52.922714 11.242332 51.937222 11.242332 C 50.951653 11.242332 50.159698 11.60023 49.561359 12.315951 C 48.96294 13.013803 48.663807 14.07845 48.663807 15.50997 C 48.663807 16.923542 48.96294 17.997162 49.561359 18.730827 C 50.159698 19.446548 50.951653 19.804447 51.937222 19.804447 Z M 65.220192 22.354294 C 63.689075 22.354294 62.553944 21.933819 61.814781 21.092791 C 61.093201 20.233896 60.732445 18.981365 60.732445 17.335123 L 60.732445 3.163343 L 64.032257 3.163343 L 64.032257 17.17408 C 64.032257 18.78451 64.701042 19.589724 66.038536 19.589724 C 66.232155 19.589724 66.42569 19.580751 66.619308 19.562883 C 66.81292 19.545015 66.997711 19.509201 67.173676 19.455521 L 67.12088 22.11273 C 66.487312 22.273773 65.853752 22.354294 65.220192 22.354294 Z M 73.468513 22.354294 C 72.342125 22.354294 71.347809 22.076918 70.485481 21.52224 C 69.640732 20.96756 68.980766 20.180214 68.505592 19.160276 C 68.030418 18.122469 67.792839 16.905674 67.792839 15.50997 C 67.792839 14.096395 68.030418 12.888574 68.505592 11.886503 C 68.980766 10.866564 69.640732 10.079218 70.485481 9.52454 C 71.347809 8.969862 72.342125 8.692486 73.468513 8.692486 C 74.383636 8.692486 75.210808 8.898235 75.949966 9.309815 C 76.689125 9.721395 77.243492 10.267101 77.613075 10.947086 L 77.613075 3.163343 L 80.912888 3.163343 L 80.912888 22.08589 L 77.692268 22.08589 L 77.692268 19.91181 C 77.340042 20.663345 76.785667 21.262806 76.029167 21.710123 C 75.272362 22.139572 74.418854 22.354294 73.468513 22.354294 Z M 74.392456 19.804447 C 75.377953 19.804447 76.170212 19.446548 76.768326 18.730827 C 77.36644 17.997162 77.665871 16.923542 77.665871 15.50997 C 77.665871 14.07845 77.36644 13.013803 76.768326 12.315951 C 76.170212 11.60023 75.377953 11.242332 74.392456 11.242332 C 73.406891 11.242332 72.614937 11.60023 72.016594 12.315951 C 71.418175 13.013803 71.119041 14.07845 71.119041 15.50997 C 71.119041 16.923542 71.418175 17.997162 72.016594 18.730827 C 72.614937 19.446548 73.406891 19.804447 74.392456 19.804447 Z M 90.168198 22.354294 C 88.707985 22.354294 87.449158 22.076918 86.393219 21.52224 C 85.337273 20.96756 84.518913 20.180214 83.938156 19.160276 C 83.375488 18.140337 83.093407 16.932514 83.093407 15.53681 C 83.093407 14.176917 83.36644 12.986963 83.911758 11.967025 C 84.475174 10.947086 85.24073 10.150844 86.20842 9.57822 C 87.194221 8.98773 88.312004 8.692486 89.561035 8.692486 C 91.391571 8.692486 92.834442 9.282976 93.890381 10.463957 C 94.964424 11.644939 95.500694 13.255368 95.500694 15.295245 L 95.500694 16.288343 L 86.261223 16.288343 C 86.507851 18.632439 87.827774 19.804447 90.221001 19.804447 C 90.942802 19.804447 91.664612 19.697086 92.385674 19.482363 C 93.107475 19.249769 93.767441 18.891872 94.365555 18.408743 L 95.289505 20.663345 C 94.674042 21.182285 93.899429 21.593788 92.966431 21.898005 C 92.034187 22.202225 91.101189 22.354294 90.168198 22.354294 Z M 89.693024 10.973927 C 88.725327 10.973927 87.942421 11.278144 87.343559 11.886503 C 86.745438 12.494862 86.384911 13.318022 86.261223 14.355828 L 92.755249 14.355828 C 92.685104 13.26434 92.385674 12.432285 91.857697 11.859662 C 91.347832 11.269172 90.626022 10.973927 89.693024 10.973927 Z M 97.586166 22.08589 L 97.586166 8.96089 L 100.806793 8.96089 L 100.806793 11.269172 C 101.440353 9.712422 102.795731 8.853527 104.872162 8.692486 L 105.875298 8.611963 L 106.086487 11.457055 L 104.185791 11.644939 C 102.021118 11.859662 100.938782 12.986963 100.938782 15.02684 L 100.938782 22.08589 L 97.586166 22.08589 Z M 111.517036 22.354294 C 110.584038 22.354294 109.748329 22.175383 109.009178 21.817484 C 108.287361 21.441719 107.715652 20.94072 107.293274 20.314417 C 106.888252 19.688114 106.686111 18.981365 106.686111 18.194019 C 106.686111 17.22776 106.932747 16.467255 107.42527 15.912577 C 107.917793 15.339954 108.718796 14.928452 109.82753 14.677914 C 110.936264 14.427377 112.423637 14.302147 114.288879 14.302147 L 115.212822 14.302147 L 115.212822 13.738497 C 115.212822 12.843788 115.018982 12.199616 114.63205 11.805982 C 114.245125 11.412347 113.593468 11.21549 112.678574 11.21549 C 111.956757 11.21549 111.217606 11.331825 110.461098 11.564418 C 109.70459 11.779141 108.939034 12.119096 108.164421 12.584356 L 107.214081 10.302915 C 107.671906 9.980827 108.208176 9.70345 108.824387 9.470859 C 109.457947 9.220323 110.117912 9.032438 110.804268 8.907207 C 111.507988 8.764032 112.167946 8.692486 112.784157 8.692486 C 114.667511 8.692486 116.06662 9.1398 116.981522 10.03451 C 117.896416 10.911273 118.354248 12.280138 118.354248 14.141104 L 118.354248 22.08589 L 115.265617 22.08589 L 115.265617 19.992332 C 114.966187 20.725998 114.491013 21.307516 113.840096 21.736965 C 113.189186 22.148542 112.414589 22.354294 111.517036 22.354294 Z M 112.203392 20.046013 C 113.065498 20.046013 113.778252 19.741795 114.341667 19.133436 C 114.92244 18.525078 115.212822 17.755598 115.212822 16.825153 L 115.212822 16.234661 L 114.315277 16.234661 C 112.661217 16.234661 111.507988 16.368866 110.857071 16.63727 C 110.223511 16.887806 109.906731 17.352991 109.906731 18.032974 C 109.906731 18.623466 110.108864 19.106594 110.513885 19.482363 C 110.918915 19.85813 111.48159 20.046013 112.203392 20.046013 Z"/>
</svg>
