<?xml version="1.0" encoding="UTF-8"?>
<!-- Generated by Pixelmator Pro 3.5.11 -->
<svg width="130" height="27" viewBox="0 0 130 27" xmlns="http://www.w3.org/2000/svg">
    <path id="Path" fill="#e1ffa0" fill-rule="evenodd" stroke="none" d="M 17.613571 7.074738 L 14.549787 8.867678 C 13.456021 7.288683 11.645826 6.25662 9.597775 6.25662 C 8.615788 6.25662 7.688385 6.493931 6.868462 6.915064 L 4.987318 3.612467 C 6.344016 2.818369 7.918561 2.363983 9.597775 2.363983 C 13.028109 2.363983 16.02154 4.260103 17.613571 7.074738 Z"/>
    <path id="path1" fill="#e1ffa0" fill-rule="evenodd" stroke="none" d="M 10.414952 19.89312 L 13.478654 18.100187 C 14.572502 19.67919 16.382696 20.711235 18.430666 20.711235 C 19.412735 20.711235 20.340057 20.473949 21.160013 20.052801 L 23.041132 23.355413 C 21.684425 24.149513 20.10988 24.603874 18.430666 24.603874 C 15.000333 24.603874 12.006901 22.707745 10.414952 19.89312 Z"/>
    <path id="path2" fill="#e1ffa0" fill-rule="evenodd" stroke="none" d="M 10.337983 7.119783 L 10.337983 10.705666 C 8.441993 10.87628 6.655093 11.949322 5.631092 13.747059 C 5.140058 14.609153 4.879135 15.541813 4.828981 16.472153 L 1.066694 16.472153 C 1.066572 14.884205 1.465625 13.274807 2.305249 11.800739 C 4.020408 8.789577 7.137139 7.10997 10.337983 7.119783 Z"/>
    <path id="path3" fill="#e1ffa0" fill-rule="evenodd" stroke="none" d="M 17.690622 19.848064 L 17.690622 16.262199 C 19.586613 16.091587 21.373438 15.018543 22.397505 13.220806 C 22.888498 12.358712 23.149395 11.426052 23.199566 10.495712 L 26.961884 10.495712 C 26.961967 12.08366 26.562897 13.693058 25.723331 15.167126 C 24.008165 18.178288 20.891434 19.857922 17.690622 19.848064 Z"/>
    <path id="path4" fill="#e1ffa0" fill-rule="evenodd" stroke="none" d="M 6.738641 13.528988 L 9.802376 15.32192 C 9.000233 17.071537 9.02352 19.176624 10.047505 20.974361 C 10.538579 21.836456 11.205004 22.53183 11.974789 23.041021 L 10.093589 26.343636 C 8.736801 25.549784 7.561293 24.394749 6.72167 22.920681 C 5.006512 19.909519 5.129844 16.333757 6.738641 13.528988 Z"/>
    <path id="path5" fill="#e1ffa0" fill-rule="evenodd" stroke="none" d="M 21.28993 13.438877 L 18.226147 11.645945 C 19.028372 9.896328 19.005003 7.791256 17.981018 5.993486 C 17.490025 5.131426 16.823603 4.436016 16.053816 3.926836 L 17.934935 0.624239 C 19.291721 1.418129 20.467279 2.573092 21.306845 4.047167 C 23.022011 7.058355 22.89871 10.634108 21.28993 13.438877 Z"/>
    <path id="path6" fill="#071412" stroke="none" d="M 39.710873 24.142637 C 38.128403 24.142637 36.660408 23.939724 35.306725 23.533895 C 33.953041 23.10877 32.809105 22.538622 31.874922 21.82362 L 32.990257 18.895859 C 33.924446 19.572268 34.944508 20.094048 36.050285 20.461197 C 37.175179 20.828346 38.395348 21.011963 39.710873 21.011963 C 41.21703 21.011963 42.313324 20.760765 42.999687 20.258282 C 43.68605 19.736504 44.029224 19.069786 44.029224 18.258129 C 44.029224 17.581722 43.781403 17.050335 43.285671 16.663803 C 42.809055 16.277273 41.979706 15.958407 40.797611 15.707208 L 37.651791 15.040491 C 34.067436 14.267512 32.275299 12.402607 32.275299 9.44586 C 32.275299 8.170399 32.608921 7.0592 33.276241 6.11227 C 33.943562 5.16534 34.868191 4.430981 36.050285 3.909203 C 37.232376 3.387423 38.595539 3.126534 40.139851 3.126534 C 41.512569 3.126534 42.799496 3.339113 44.000629 3.764265 C 45.201759 4.170092 46.202705 4.749847 47.003456 5.503529 L 45.888119 8.28635 C 44.305649 6.933592 42.380081 6.25721 40.111252 6.25721 C 38.795727 6.25721 37.766186 6.53742 37.022629 7.097853 C 36.279068 7.658285 35.907291 8.392611 35.907291 9.30092 C 35.907291 9.996626 36.136078 10.557083 36.593651 10.982208 C 37.051228 11.388037 37.832943 11.706903 38.938717 11.938803 L 42.055943 12.605521 C 43.943432 13.011351 45.344753 13.64908 46.259903 14.518712 C 47.194088 15.388344 47.661217 16.547853 47.661217 17.997238 C 47.661217 19.214724 47.337078 20.28727 46.688877 21.214876 C 46.040672 22.142485 45.115967 22.867178 43.914833 23.388956 C 42.732738 23.891439 41.331421 24.142637 39.710873 24.142637 Z M 56.265324 24.142637 C 54.816284 24.142637 53.557957 23.843071 52.490341 23.244019 C 51.422638 22.644966 50.593288 21.794632 50.002281 20.693098 C 49.411194 19.572268 49.115734 18.258129 49.115734 16.750767 C 49.115734 15.243405 49.411194 13.938957 50.002281 12.837423 C 50.593288 11.735889 51.422638 10.885555 52.490341 10.286503 C 53.557957 9.687452 54.816284 9.387884 56.265324 9.387884 C 57.714279 9.387884 58.97261 9.687452 60.04031 10.286503 C 61.107925 10.885555 61.937283 11.735889 62.528362 12.837423 C 63.119373 13.938957 63.414917 15.243405 63.414917 16.750767 C 63.414917 18.258129 63.119373 19.572268 62.528362 20.693098 C 61.937283 21.794632 61.107925 22.644966 60.04031 23.244019 C 58.97261 23.843071 57.714279 24.142637 56.265324 24.142637 Z M 56.265324 21.388803 C 57.332939 21.388803 58.190891 21.002274 58.839176 20.229294 C 59.487377 19.436935 59.81152 18.277428 59.81152 16.750767 C 59.81152 15.204726 59.487377 14.054908 58.839176 13.301228 C 58.190891 12.528249 57.332939 12.141718 56.265324 12.141718 C 55.197624 12.141718 54.339672 12.528249 53.691471 13.301228 C 53.043186 14.054908 52.719124 15.204726 52.719124 16.750767 C 52.719124 18.277428 53.043186 19.436935 53.691471 20.229294 C 54.339672 21.002274 55.197624 21.388803 56.265324 21.388803 Z M 70.655205 24.142637 C 68.996498 24.142637 67.766769 23.688524 66.966011 22.780214 C 66.184303 21.852608 65.79348 20.499874 65.79348 18.721931 L 65.79348 3.41641 L 69.368279 3.41641 L 69.368279 18.548006 C 69.368279 20.28727 70.092796 21.156902 71.541748 21.156902 C 71.751503 21.156902 71.961166 21.147211 72.170914 21.127914 C 72.380669 21.108616 72.580856 21.069939 72.771484 21.011963 L 72.714287 23.881748 C 72.027924 24.055676 71.341568 24.142637 70.655205 24.142637 Z M 79.590889 24.142637 C 78.370636 24.142637 77.293457 23.843071 76.359276 23.244019 C 75.444122 22.644966 74.729164 21.794632 74.214394 20.693098 C 73.699623 19.572268 73.442238 18.258129 73.442238 16.750767 C 73.442238 15.224108 73.699623 13.91966 74.214394 12.837423 C 74.729164 11.735889 75.444122 10.885555 76.359276 10.286503 C 77.293457 9.687452 78.370636 9.387884 79.590889 9.387884 C 80.582268 9.387884 81.478378 9.610094 82.279129 10.054602 C 83.079887 10.499107 83.68045 11.088469 84.080833 11.822853 L 84.080833 3.41641 L 87.655624 3.41641 L 87.655624 23.85276 L 84.166618 23.85276 L 84.166618 21.504753 C 83.785042 22.316412 83.184471 22.963831 82.364929 23.446934 C 81.545052 23.910738 80.620422 24.142637 79.590889 24.142637 Z M 80.591827 21.388803 C 81.659447 21.388803 82.517723 21.002274 83.16568 20.229294 C 83.813637 19.436935 84.138023 18.277428 84.138023 16.750767 C 84.138023 15.204726 83.813637 14.054908 83.16568 13.301228 C 82.517723 12.528249 81.659447 12.141718 80.591827 12.141718 C 79.524132 12.141718 78.666176 12.528249 78.017975 13.301228 C 77.36969 14.054908 77.045631 15.204726 77.045631 16.750767 C 77.045631 18.277428 77.36969 19.436935 78.017975 20.229294 C 78.666176 21.002274 79.524132 21.388803 80.591827 21.388803 Z M 97.682213 24.142637 C 96.100311 24.142637 94.736588 23.843071 93.592651 23.244019 C 92.448715 22.644966 91.562157 21.794632 90.932999 20.693098 C 90.323448 19.591564 90.017853 18.287117 90.017853 16.779755 C 90.017853 15.31107 90.313644 14.025921 90.904404 12.924387 C 91.514771 11.822853 92.344124 10.962912 93.392456 10.344479 C 94.460403 9.706749 95.671341 9.387884 97.024452 9.387884 C 99.007538 9.387884 100.570641 10.025614 101.714577 11.301073 C 102.87812 12.576534 103.459084 14.315798 103.459084 16.518864 L 103.459084 17.591412 L 93.449661 17.591412 C 93.716843 20.123034 95.146759 21.388803 97.73941 21.388803 C 98.52137 21.388803 99.303329 21.272854 100.084473 21.040951 C 100.866432 20.789751 101.58139 20.403221 102.229355 19.881443 L 103.230293 22.316412 C 102.563545 22.876869 101.72438 23.321293 100.713638 23.649845 C 99.703705 23.978401 98.692955 24.142637 97.682213 24.142637 Z M 97.16745 11.851841 C 96.119102 11.851841 95.270958 12.180396 94.622192 12.837423 C 93.974228 13.494451 93.583656 14.383464 93.449661 15.504294 L 100.484856 15.504294 C 100.408859 14.325487 100.084473 13.426868 99.512505 12.808435 C 98.960152 12.170705 98.178192 11.851841 97.16745 11.851841 Z M 105.718353 23.85276 L 105.718353 9.677761 L 109.207359 9.677761 L 109.207359 12.170705 C 109.893723 10.489416 111.362038 9.56181 113.611504 9.387884 L 114.698242 9.30092 L 114.927032 12.373619 L 112.867943 12.576534 C 110.522881 12.808435 109.350349 14.025921 109.350349 16.228989 L 109.350349 23.85276 L 105.718353 23.85276 Z M 120.81012 24.142637 C 119.799377 24.142637 118.894028 23.949413 118.093277 23.562883 C 117.31131 23.157055 116.691956 22.615978 116.234383 21.939569 C 115.795601 21.263163 115.576614 20.499874 115.576614 19.64954 C 115.576614 18.60598 115.843811 17.784636 116.377373 17.185583 C 116.910942 16.56715 117.778694 16.122726 118.979828 15.852147 C 120.180954 15.581567 121.792274 15.446319 123.81295 15.446319 L 124.813896 15.446319 L 124.813896 14.837576 C 124.813896 13.871291 124.603897 13.175586 124.184723 12.75046 C 123.765549 12.325335 123.059593 12.11273 122.068451 12.11273 C 121.286484 12.11273 120.485741 12.238371 119.666183 12.489571 C 118.846634 12.721473 118.017281 13.088623 117.178123 13.591105 L 116.148582 11.127148 C 116.644569 10.779293 117.225525 10.479727 117.893082 10.228527 C 118.579445 9.957949 119.294403 9.755033 120.037956 9.619785 C 120.800316 9.465155 121.515274 9.387884 122.182838 9.387884 C 124.223137 9.387884 125.738838 9.870985 126.72998 10.837271 C 127.721115 11.784175 128.217102 13.262548 128.217102 15.272392 L 128.217102 23.85276 L 124.871086 23.85276 L 124.871086 21.591719 C 124.5467 22.384077 124.031929 23.012117 123.326775 23.475922 C 122.62162 23.920425 121.782471 24.142637 120.81012 24.142637 Z M 121.55368 21.649693 C 122.487625 21.649693 123.259773 21.32114 123.87014 20.66411 C 124.499313 20.007084 124.813896 19.176046 124.813896 18.171165 L 124.813896 17.533436 L 123.841545 17.533436 C 122.049652 17.533436 120.800316 17.678375 120.095161 17.96825 C 119.408798 18.238831 119.06562 18.74123 119.06562 19.475613 C 119.06562 20.113344 119.284599 20.635122 119.723381 21.040951 C 120.162163 21.446781 120.771721 21.649693 121.55368 21.649693 Z"/>
</svg>
