<?xml version="1.0" encoding="UTF-8"?>
<svg width="150px" height="43px" viewBox="0 0 150 43" xmlns="http://www.w3.org/2000/svg" xmlns:xlink="http://www.w3.org/1999/xlink" version="1.1">
 <!-- Generated by Pixelmator Pro 2.3 -->
 <path id="Path" d="M59.527 14.374 L54.678 14.374 54.678 28.708 51.658 28.708 51.658 14.374 46.808 14.374 46.808 11.692 59.527 11.692 Z" fill="#292969" fill-opacity="1" stroke="none"/>
 <path id="Path-1" d="M61.315 13.105 C61.326 12.625 61.53 12.17 61.882 11.842 62.234 11.514 62.704 11.342 63.185 11.364 63.666 11.336 64.137 11.507 64.487 11.836 64.837 12.166 65.035 12.625 65.034 13.105 65.029 13.583 64.829 14.038 64.481 14.366 64.132 14.695 63.664 14.867 63.185 14.845 62.705 14.862 62.239 14.688 61.888 14.361 61.537 14.035 61.331 13.583 61.315 13.105 Z M61.767 17.2 L64.623 17.2 64.623 28.667 61.726 28.667 Z" fill="#292969" fill-opacity="1" stroke="none"/>
 <path id="Path-2" d="M79.027 22.176 L79.027 28.626 76.171 28.626 76.171 22.483 C76.265 21.793 76.059 21.095 75.603 20.567 75.147 20.038 74.487 19.73 73.788 19.718 72.993 19.663 72.213 19.954 71.649 20.516 71.086 21.077 70.794 21.854 70.849 22.647 L70.849 28.646 67.993 28.646 67.993 17.179 70.849 17.179 70.849 18.981 C71.567 17.69 72.944 16.901 74.425 16.934 77.384 16.913 79.027 18.858 79.027 22.176 Z" fill="#292969" fill-opacity="1" stroke="none"/>
 <path id="Path-3" d="M92.712 17.159 L85.562 34.216 82.562 34.216 85.151 27.827 80.569 17.159 83.692 17.159 86.671 24.428 89.63 17.159 Z" fill="#292969" fill-opacity="1" stroke="none"/>
 <path id="Path-4" d="M94.048 23.691 L97.027 23.691 C97.231 25.239 98.633 26.346 100.192 26.189 101.918 26.189 103.027 25.206 103.027 23.875 103.027 22.544 102 22.012 100.582 21.623 L98.527 21.029 C94.87 20.087 94.233 17.917 94.233 16.442 94.31 15.013 94.97 13.677 96.061 12.745 97.151 11.813 98.577 11.366 100.007 11.508 101.435 11.381 102.85 11.859 103.906 12.826 104.962 13.792 105.56 15.157 105.555 16.586 L102.411 16.586 C102.268 15.274 101.182 14.265 99.859 14.213 98.536 14.162 97.375 15.084 97.13 16.381 97.13 16.852 97.274 17.855 99.185 18.429 L101.24 18.981 C103.89 19.719 105.945 21.131 105.945 23.834 105.891 25.313 105.223 26.704 104.101 27.674 102.98 28.644 101.505 29.107 100.027 28.953 98.527 29.077 97.04 28.586 95.912 27.592 94.783 26.599 94.11 25.19 94.048 23.691 Z" fill="#292969" fill-opacity="1" stroke="none"/>
 <path id="Path-5" d="M119.959 23.875 L111.062 23.875 C111.352 25.397 112.761 26.446 114.308 26.291 115.526 26.34 116.693 25.808 117.452 24.858 L119.342 26.312 C118.15 27.968 116.21 28.927 114.164 28.871 112.019 28.874 110.036 27.735 108.963 25.884 107.889 24.033 107.889 21.752 108.962 19.901 110.036 18.05 112.019 16.911 114.164 16.913 115.745 16.843 117.284 17.437 118.405 18.55 119.525 19.663 120.127 21.194 120.062 22.769 120.041 23.097 120 23.466 119.959 23.875 Z M117.164 21.828 C117.023 20.326 115.693 19.22 114.185 19.35 112.651 19.226 111.284 20.31 111.062 21.828 Z" fill="#292969" fill-opacity="1" stroke="none"/>
 <path id="Path-6" d="M133.788 23.875 L124.89 23.875 C125.19 25.4 126.606 26.447 128.158 26.291 129.368 26.334 130.526 25.802 131.281 24.858 L133.171 26.312 C131.979 27.968 130.039 28.927 127.993 28.871 125.848 28.874 123.865 27.735 122.791 25.884 121.718 24.033 121.718 21.752 122.791 19.901 123.865 18.05 125.848 16.911 127.993 16.913 129.574 16.843 131.112 17.437 132.233 18.55 133.354 19.663 133.955 21.194 133.891 22.769 133.884 23.14 133.85 23.51 133.788 23.875 Z M131.014 21.828 C130.862 20.323 129.526 19.219 128.014 19.35 126.48 19.226 125.113 20.31 124.89 21.828 Z" fill="#292969" fill-opacity="1" stroke="none"/>
 <path id="Path-7" d="M148.13 11.016 L148.13 28.626 145.274 28.626 145.274 27.049 C144.373 28.237 142.945 28.91 141.452 28.851 139.891 28.842 138.402 28.195 137.334 27.061 136.265 25.926 135.711 24.405 135.801 22.851 135.705 21.304 136.255 19.786 137.322 18.657 138.388 17.528 139.876 16.89 141.432 16.893 142.924 16.817 144.36 17.475 145.274 18.654 L145.274 10.996 Z M145.233 22.954 C145.233 22.076 144.882 21.234 144.257 20.615 143.632 19.997 142.785 19.652 141.904 19.657 141.032 19.651 140.195 19.999 139.587 20.621 138.978 21.243 138.65 22.085 138.678 22.954 138.58 24.182 139.183 25.362 140.237 26.006 141.292 26.65 142.619 26.65 143.674 26.006 144.728 25.362 145.331 24.182 145.233 22.954 Z" fill="#292969" fill-opacity="1" stroke="none"/>
 <path id="Path-8" d="M27.596 35.895 L34.254 32.066 C35.53 31.361 36.318 30.018 36.308 28.564 L36.308 13.248 C36.318 11.794 35.53 10.451 34.254 9.747 L27.596 5.918 20.959 2.089 C20.335 1.728 19.626 1.537 18.904 1.536 18.181 1.528 17.47 1.719 16.849 2.089 L10.192 5.918 3.534 9.747 C2.922 10.103 2.412 10.61 2.055 11.221 1.693 11.843 1.501 12.549 1.5 13.269 L1.5 28.585 C1.501 29.304 1.693 30.01 2.055 30.632 2.412 31.243 2.922 31.751 3.534 32.107 L10.192 35.936 16.849 39.765 C17.47 40.134 18.181 40.325 18.904 40.318 L18.904 20.906" fill="none" stroke="#b2d235" stroke-width="3.077" stroke-opacity="1" stroke-linejoin="round" stroke-linecap="round"/>
 <path id="Path-9" d="M25.274 24.674 C26.261 20.98 25.76 17.049 23.877 13.719 23.317 12.661 22.627 11.678 21.822 10.791 20.987 9.911 20.049 9.134 19.028 8.477 18 9.133 17.055 9.91 16.212 10.791 15.421 11.688 14.731 12.67 14.158 13.719 11.686 18.179 11.686 23.592 14.158 28.052 14.731 29.101 15.421 30.083 16.212 30.98 17.055 31.861 18 32.638 19.028 33.294" fill="none" stroke="#b2d235" stroke-width="3.077" stroke-opacity="1" stroke-linejoin="round" stroke-linecap="round"/>
</svg>
