<svg height="81" viewBox="0 0 150 81" width="150" xmlns="http://www.w3.org/2000/svg" xmlns:xlink="http://www.w3.org/1999/xlink"><mask id="a" fill="#fff"><path d="m0 0h86.1159799v80.7681649h-86.1159799z" fill="#fff" fill-rule="evenodd"/></mask><g fill="#25075d" fill-rule="evenodd"><path d="m79.8552168 45.6277943c-2.8932605 0-5.2383942-2.3459007-5.2383942-5.2396725s2.3451337-5.2396725 5.2383942-5.2396725 5.2383943 2.3459007 5.2383943 5.2396725-2.3451338 5.2396725-5.2383943 5.2396725m-39.4804658 34.1180784c-21.7338395 0-39.35263777-17.6228888-39.35263777-39.3618414s17.61879827-39.36184137 39.35263777-39.36184137c19.6149614 0 35.8731577 14.35585907 38.8579431 33.13508057-3.1609324.31369-5.6382404 2.9881089-5.6382404 6.2308513 0 3.2422311 2.476541 5.9163943 5.6369621 6.2305957-2.9881089 18.7753867-19.2445156 33.1271552-38.8566648 33.1271552m39.8946288-45.6044529c-1.2979662-8.4156887-5.2112947-16.1779203-11.3452524-22.3131563-7.6257112-7.62750083-17.764778-11.82844246-28.5493764-11.82844246-10.7845985 0-20.9236652 4.20094163-28.5493764 11.82844246-7.62571125 7.6275008-11.8253746 17.7688684-11.8253746 28.5557678s4.19966335 20.928267 11.8253746 28.5557678c7.6257112 7.6277565 17.7647779 11.8284425 28.5493764 11.8284425 10.7845984 0 20.9236652-4.200686 28.5493764-11.8284425 6.1316568-6.1331907 10.0442183-13.8923544 11.3434628-22.3049753 3.2606383-.2132172 5.8483897-2.9326315 5.8483897-6.246702 0-3.3135592-2.5869844-6.0327178-5.8466001-6.246702" mask="url(#a)"/><path d="m11.9925481 42.4631804-2.07209295-5.3161137h-.97660644l2.53738719 6.507727h1.0223689l2.5376428-6.507727h-.9768621z"/><path d="m35.9622795 37.1469644h-.9126924v6.5079826h4.7462561v-.9165272h-3.8335637z"/><path d="m51.8082047 41.070059c0 .9991042-.8124752 1.8149029-1.8072332 1.8149029-.9950137 0-1.8074889-.8157987-1.8074889-1.8149029v-3.9230434h-.9126924v3.9230434c0 1.5032581 1.223059 2.7316858 2.7201813 2.7316858 1.4968667 0 2.7199256-1.2284277 2.7199256-2.7316858v-3.9230434h-.9126924z"/><path d="m61.1367903 43.6548448h4.6552426v-.9165273h-3.7425501v-1.8790726h3.4687424v-.9165272h-3.4687424v-1.8790726h3.7425501v-.9167829h-4.6552426z"/><path d="m96.0819163 39.8217412c-.8032716-.1467466-1.5060703-.4583915-1.5060703-.9622897 0-.6143417.5841743-.9625453 1.5060703-.9625453.8306268 0 1.5060703.3482036 1.5060703.9625453h.9126924c0-1.109292-.9950137-1.8793283-2.4187627-1.8793283-1.3324798 0-2.4187627.6785114-2.4187627 1.8793283 0 1.2281721 1.1133825 1.6315975 2.4187627 1.878817.9310997.2017126 1.6886088.3942217 1.6886088 1.0635295 0 .6595928-.7575091 1.0630182-1.6886088 1.0630182-.9310996 0-1.6886088-.3666109-1.6886088-1.0630182h-.9126924c0 1.2189684 1.1680929 1.9795454 2.6013012 1.9795454 1.4329527 0 2.6013012-.7148145 2.6013012-1.9795454 0-1.2652422-1.1683485-1.7141744-2.6013012-1.9800568"/><path d="m109.636677 40.6557427h-1.980824v-2.6122945h1.980824c.730409 0 1.30538.5775273 1.30538 1.3107491 0 .7240181-.574971 1.3015454-1.30538 1.3015454m0-3.5288217h-2.893516v6.507727h.912692v-2.0621224h1.980824c1.223059 0 2.218072-.9993599 2.218072-2.2183283 0-1.2281721-.995013-2.2272763-2.218072-2.2272763"/><path d="m135.066997 37.8969573c.66624 0 1.268566.2656267 1.715964.6964073l.638885-.6506449c-.620733-.5959344-1.432953-.9625453-2.354849-.9625453-1.871147 0-3.386421 1.5216653-3.386421 3.4004822 0 1.8793283 1.515274 3.400738 3.386421 3.400738.912693 0 1.734116-.3666109 2.354849-.9625454l-.638885-.6506448c-.447398.4307805-1.049724.6966629-1.715964.6966629-1.369294 0-2.473473-1.1090363-2.473473-2.4842107 0-1.3654594 1.104179-2.4836993 2.473473-2.4836993"/><path d="m150 38.0434994v-.9165273h-4.654987v6.507727h4.654987v-.9165273h-3.742295v-1.8788169h3.468487v-.9167829h-3.468487v-1.8790726z"/><path d="m121.057859 37.1263586-2.539944 6.496478h.977629l2.073883-5.3071657 2.074138 5.3071657h.977629l-2.539943-6.496478z"/><path d="m24.0025831 37.1263586-2.5399437 6.496478h.9776291l2.0738826-5.3071657 2.0741382 5.3071657h.9776291l-2.5399437-6.496478z"/></g></svg>