<?xml version="1.0" encoding="UTF-8"?>
<svg width="151px" height="48px" viewBox="0 0 151 48" version="1.1" xmlns="http://www.w3.org/2000/svg" xmlns:xlink="http://www.w3.org/1999/xlink">
    <!-- Generator: Sketch 61.2 (89653) - https://sketch.com -->
    <title>Group</title>
    <desc>Created with Sketch.</desc>
    <g id="Page-1" stroke="none" stroke-width="1" fill="none" fill-rule="evenodd">
        <g id="Group" transform="translate(0.200450, 0.052500)">
            <path d="M4.6231237,21 L14.7737148,38.3335079 L19.0049651,31.1081577 C19.527463,30.2161844 20.4927693,29.666754 21.5374995,29.666754 L30,29.666754 L20.6933214,45.5585963 C20.1708234,46.4505696 19.2055172,47 18.160787,47 L11.3866427,47 C10.3421781,47 9.37660624,46.4505696 8.85437396,45.5585963 L0.391873435,31.1081577 C-0.130624478,30.2161844 -0.130624478,29.1173236 0.391873435,28.2250884 L4.6231237,21 Z" id="Fill-4" fill="#004E5F"></path>
            <path d="M35,8.66666667 L14.6984173,8.66666667 L18.9296956,15.8919442 C19.4519314,16.7839085 19.4519314,17.8827582 18.9296956,18.7747225 L14.6984173,26 L5.39167681,10.1080558 C4.86944106,9.21635342 4.86944106,8.1172418 5.39167681,7.22527749 L8.77877144,1.44165105 C9.30127283,0.549424871 10.2665855,0 11.3113226,0 L28.2364361,0 C29.2809076,0 30.2464859,0.549424871 30.7687216,1.44165105 L35,8.66666667 Z" id="Fill-6" fill="#00B4AA"></path>
            <path d="M30.090788,41 L40.2720975,23.6664921 L31.7842536,23.6664921 C30.7363618,23.6664921 29.7681343,23.1170617 29.2440552,22.2250884 L25,15 L43.6694198,15 C44.7173117,15 45.6855392,15.5494304 46.2096183,16.4414037 L49.6069407,22.2250884 C50.1310198,23.1170617 50.1310198,24.2161844 49.6069407,25.1078958 L41.1188303,39.5585963 C40.5950177,40.4505696 39.6267901,41 38.5788983,41 L30.090788,41 Z" id="Fill-8" fill="#00B4AA"></path>
            <path d="M86.79955,26.9475 L94.79955,26.9475 C94.5853197,24.750937 93.049744,22.9475 90.7990325,22.9475 C88.4422408,22.9475 86.9775578,24.8685339 86.79955,26.9475 M99.79955,29.2988399 C99.79955,29.7074536 99.79955,30.1520898 99.7255723,30.6343615 L86.6485491,30.6343615 C86.6485491,33.084162 88.7063535,35.1992757 91.2032341,35.1992757 C92.8198333,35.1992757 93.9587706,34.4946858 94.7294161,33.3441156 L99.5422247,33.3441156 C98.4032873,36.3498459 95.795174,38.9475 91.1673097,38.9475 C85.9138281,38.9475 81.79955,35.088251 81.79955,29.2988399 C81.79955,24.2150939 85.1051294,19.9475 90.8360066,19.9475 C96.6397972,19.9475 99.79955,24.3263873 99.79955,29.2988399" id="Fill-10" fill="#004E5F"></path>
            <path d="M107.966438,23.2130011 C108.945229,21.4970025 110.937418,20 113.344884,20 C114.060175,20 114.511149,20.0367638 115,20.1462619 L115,24.7467674 C114.360461,24.6375338 113.608384,24.5280357 112.592534,24.5280357 C109.582588,24.5280357 108.07816,26.3535324 108.07816,29.4930058 L108.07816,38 L103,38 L103,20.5112554 L107.966438,20.5112554 L107.966438,23.2130011 Z" id="Fill-12" fill="#004E5F"></path>
            <path d="M117.79955,37.9475 L122.79955,37.9475 L122.79955,19.9475 L117.79955,19.9475 L117.79955,37.9475 Z M117.79955,11.9475 L122.79955,11.9475 L122.79955,14.3090791 C122.79955,15.7662893 121.726445,16.9475 120.402856,16.9475 L117.79955,16.9475 L117.79955,11.9475 Z" id="Fill-14" fill="#004E5F"></path>
            <path d="M133.674452,38 L128.558241,38 L128.558241,24.4249678 L126,24.4249678 L126,20.1854476 L128.558241,20.1854476 L128.558241,17.4708183 C128.558241,13.2679386 130.815097,11 135.029328,11 C136.194816,11 137.322971,11.1856272 138.150284,11.4084337 L138.150284,15.5366854 C137.435786,15.3510582 136.797316,15.2397897 136.118788,15.2397897 C134.314012,15.2397897 133.674452,16.2061826 133.674452,17.8051628 L133.674452,20.1854476 L140.444745,20.1854476 L140.444745,17.4708183 C140.444745,13.2679386 142.7016,11 146.878226,11 C148.043441,11 149.172959,11.1856272 150,11.4084337 L150,15.5366854 C149.285502,15.3510582 148.645941,15.2397897 147.968503,15.2397897 C146.163728,15.2397897 145.523077,16.2061826 145.523077,17.8051628 L145.523077,20.1854476 L149.436195,20.1854476 L149.436195,24.4249678 L145.523077,24.4249678 L145.523077,38 L140.444745,38 L140.444745,24.4249678 L133.674452,24.4249678 L133.674452,38 Z" id="Fill-16" fill="#004E5F"></path>
            <path d="M75.8742467,21 L71.9998661,32.6994389 L68.686889,22.6942667 C68.3526182,21.6854196 67.3765903,21 66.2736039,21 L63,21 L69.5094415,38 L70.2446766,38 L73.7553234,38 L74.4905585,38 L81,21 L75.8742467,21 Z" id="Fill-17" fill="#004E5F"></path>
        </g>
    </g>
</svg>