<?xml version="1.0" encoding="UTF-8"?>
<!-- Generated by Pixelmator Pro 2.4.6 -->
<svg width="130" height="35" viewBox="0 0 130 35" xmlns="http://www.w3.org/2000/svg" xmlns:xlink="http://www.w3.org/1999/xlink">
    <path id="Path" fill="#03282c" stroke="none" d="M 11.07301 29.402067 C 10.60501 27.098911 9.55201 23.937157 6.00444 14.100351 L -0 14.100351 L 8.22679 34.515423 L 13.8411 34.515423 L 21.639019 14.100222 L 15.75158 14.100222 C 12.39849 23.741753 11.46288 26.825626 11.07301 29.401937 Z"/>
    <path id="path1" fill="#03282c" stroke="none" d="M 32.236229 13.670921 C 26.076052 13.670921 21.708961 18.23797 21.708961 24.366589 C 21.708961 30.689964 26.231791 34.905331 32.5481 34.905331 C 36.56081 34.905331 39.99086 32.821735 41.621059 29.850092 L 37.500061 27.606089 C 36.681057 29.206404 35.004841 30.338413 32.58762 30.338413 C 29.741531 30.338413 27.519051 28.543209 27.24618 26.044651 L 42.72411 26.044651 C 42.997112 17.847158 38.435413 13.670534 32.236229 13.670534 Z M 27.206659 22.180443 C 27.401659 19.79941 29.46801 18.120958 32.236229 18.120958 C 35.004452 18.120958 36.992798 19.799927 37.109798 22.180443 Z"/>
    <path id="path2" fill="#03282c" stroke="none" d="M 64.947998 14.100351 L 59.41156 14.100351 L 59.41156 34.515553 L 64.947998 34.515553 Z"/>
    <path id="path3" fill="#03282c" stroke="none" d="M 91.854103 9.572435 C 92.684769 9.582317 93.510551 9.700378 94.310318 9.923599 L 94.310318 5.473818 C 93.176079 5.112949 91.992477 4.928537 90.801491 4.92712 C 87.136528 4.92712 83.471443 6.878984 83.471443 12.655922 L 83.471443 14.100351 L 75.39727 14.100351 L 75.39727 13.436771 C 75.085266 10.509041 76.255264 9.572435 78.243362 9.572435 C 79.074295 9.582272 79.900337 9.700331 80.700356 9.923599 L 80.700356 5.473818 C 79.566071 5.112961 78.382431 4.928547 77.191406 4.92712 C 73.526443 4.92712 69.861351 6.878984 69.861351 12.655922 L 69.861351 14.100351 L 67.443344 14.100351 L 67.443344 18.431568 L 69.861351 18.431568 L 69.861351 34.515423 L 75.397919 34.515423 L 75.397919 18.431568 L 83.472092 18.431568 L 83.472092 34.515423 L 89.008659 34.515423 L 89.008659 18.431568 L 94.310966 18.431568 L 94.310966 14.100351 L 89.008011 14.100351 L 89.008011 13.436771 C 88.696007 10.509041 89.866005 9.572435 91.854103 9.572435 Z"/>
    <path id="path4" fill="#03282c" stroke="none" d="M 51.009533 20.355923 L 51.009533 19.5588 L 50.407238 14.100351 L 45.590088 14.100351 L 45.590088 34.515423 L 51.009533 34.515423 L 51.009533 26.24251 C 51.009533 21.927177 53.985619 19.250904 57.251221 19.250904 L 57.251221 13.866199 C 53.417 14.248228 51.009659 16.458136 51.009533 20.356052 Z"/>
    <path id="path5" fill="#03282c" stroke="none" d="M 64.992722 6.7262 L 59.36697 6.7262 L 59.36697 11.169004 L 64.992722 11.169004 Z"/>
    <path id="path6" fill="#14e5c5" stroke="none" d="M 118.753181 13.92251 L 118.753181 27.702951 L 118.80011 27.702951 C 119.724403 20.741699 123.837479 16.192472 130 14.026863 L 130 0 C 122.913048 1.237526 118.753181 5.723471 118.753181 13.92251 Z"/>
    <path id="path7" fill="#14e5c5" stroke="none" d="M 105.538033 25.70808 L 116.784721 34.989281 L 116.784721 16.581219 L 105.538033 7.299891 Z"/>
</svg>
