<?xml version="1.0" encoding="UTF-8"?>
<svg width="150px" height="53px" viewBox="0 0 150 53" xmlns="http://www.w3.org/2000/svg" xmlns:xlink="http://www.w3.org/1999/xlink" version="1.1">
 <!-- Generated by Pixelmator Pro 1.8 -->
 <path id="Path" d="M34.626 31.472 L29.486 16.557 23.458 16.557 31.519 37.85 37.757 37.85 45.818 16.557 39.79 16.557 Z" fill="#1d1d1b" fill-opacity="1" stroke="none"/>
 <path id="Path-1" d="M53.318 14 C55.187 14 56.706 12.476 56.706 10.647 56.706 8.818 55.187 7.246 53.318 7.246 51.495 7.246 49.977 8.818 49.977 10.647 49.977 12.476 51.495 14 53.318 14 Z M56.075 37.85 L56.075 16.557 50.607 16.557 50.607 37.85 Z" fill="#1d1d1b" fill-opacity="1" stroke="none"/>
 <path id="Path-2" d="M68.084 22.607 C68.084 21.552 69.136 20.872 70.537 20.872 72.103 20.872 73.248 21.599 73.925 23.053 L78.598 20.496 C76.939 17.612 73.972 15.97 70.537 15.97 68.248 15.97 66.332 16.557 64.766 17.8 63.248 18.996 62.477 20.661 62.477 22.748 62.477 27.18 66.425 28.493 69.556 29.314 71.729 29.877 73.411 30.51 73.411 31.659 73.411 32.902 72.43 33.488 70.491 33.488 68.318 33.488 66.963 32.55 66.332 30.721 L61.589 33.395 C63.154 36.748 66.121 38.46 70.491 38.46 72.921 38.46 74.953 37.874 76.565 36.725 78.224 35.529 79.019 33.817 79.019 31.659 79.065 27.11 75.023 25.609 71.939 24.976 69.79 24.389 68.084 23.756 68.084 22.607 Z" fill="#1d1d1b" fill-opacity="1" stroke="none"/>
 <path id="Path-3" d="M102.453 35.224 C104.626 33.043 105.724 30.369 105.724 27.227 105.724 24.085 104.626 21.435 102.453 19.254 100.28 17.073 97.617 15.97 94.486 15.97 91.355 15.97 88.668 17.073 86.519 19.254 84.346 21.435 83.294 24.061 83.294 27.227 83.294 30.369 84.346 33.066 86.519 35.224 88.692 37.405 91.355 38.46 94.486 38.46 97.617 38.46 100.304 37.381 102.453 35.224 Z M90.374 31.425 C89.322 30.323 88.762 28.915 88.762 27.204 88.762 25.492 89.322 24.085 90.374 22.982 91.472 21.88 92.827 21.317 94.486 21.317 96.145 21.317 97.5 21.88 98.598 22.982 99.696 24.085 100.257 25.492 100.257 27.204 100.257 28.915 99.696 30.323 98.598 31.425 97.5 32.527 96.145 33.09 94.486 33.09 92.827 33.09 91.472 32.527 90.374 31.425 Z" fill="#1d1d1b" fill-opacity="1" stroke="none"/>
 <path id="Path-4" d="M117.173 16.557 L111.706 16.557 111.706 37.85 117.173 37.85 117.173 27.673 C117.173 25.632 117.804 24.178 119.136 23.287 120.444 22.396 121.986 22.044 123.645 22.255 L123.645 16.135 C120.748 16.135 118.224 17.495 117.196 20.215 L117.196 16.557 Z" fill="#1d1d1b" fill-opacity="1" stroke="none"/>
 <path id="Path-5" d="M138.528 30.862 L133.014 16.557 127.033 16.557 135.724 37.17 C134.696 40.055 133.084 41.298 130.164 41.251 L130.164 46.363 C135.584 46.668 139.159 43.971 141.355 37.85 L149.089 16.557 143.224 16.557 Z" fill="#1d1d1b" fill-opacity="1" stroke="none"/>
 <path id="Path-6" d="M0 0 L35.14 0 35.14 6.308 9.112 6.308 26.495 52.062 19.813 52.062 C12.29 31.73 7.523 20.332 -0 0 Z" fill="#1d1d1b" fill-opacity="1" stroke="none"/>
</svg>
