<?xml version="1.0" encoding="UTF-8"?>
<svg width="150px" height="20px" viewBox="0 0 150 20" xmlns="http://www.w3.org/2000/svg" xmlns:xlink="http://www.w3.org/1999/xlink" version="1.1">
 <!-- Generated by Pixelmator Pro 1.6.1 -->
 <g id="group">
  <path id="Path" d="M0 0.114 L4.265 0.114 7.557 12.971 11.135 0.057 14.656 0.057 18.263 12.971 21.555 0.114 25.735 0.114 20.153 19.743 16.431 19.743 12.853 7.343 9.275 19.743 5.582 19.743 Z" fill="#091b25" fill-opacity="1" stroke="none"/>
  <path id="Path-1" d="M31.975 0 L35.84 0 42.853 19.629 38.645 19.629 37.185 15.4 30.458 15.4 29.027 19.629 24.962 19.629 Z M35.954 11.829 L33.836 5.457 31.689 11.829 Z" fill="#091b25" fill-opacity="1" stroke="none"/>
  <path id="Path-2" d="M45.258 0.114 L52.615 0.114 C54.876 0.114 56.679 0.743 57.91 1.971 58.969 3.029 59.571 4.571 59.571 6.486 L59.571 6.6 C59.571 9.543 58.082 11.429 55.935 12.371 L60.115 19.629 55.477 19.629 51.87 13.229 49.323 13.229 49.323 19.629 45.258 19.629 Z M52.3 9.657 C54.361 9.657 55.477 8.486 55.477 6.743 L55.477 6.686 C55.477 4.743 54.275 3.743 52.214 3.743 L49.294 3.743 49.294 9.629 52.3 9.629 Z" fill="#091b25" fill-opacity="1" stroke="none"/>
  <path id="Path-3" d="M62.777 0.114 L70.134 0.114 C72.395 0.114 74.198 0.743 75.429 1.971 76.489 3.029 77.09 4.571 77.09 6.486 L77.09 6.6 C77.09 9.543 75.601 11.429 73.454 12.371 L77.605 19.629 72.996 19.629 69.389 13.229 66.842 13.229 66.842 19.629 62.777 19.629 Z M69.819 9.657 C71.88 9.657 72.996 8.486 72.996 6.743 L72.996 6.686 C72.996 4.743 71.794 3.743 69.733 3.743 L66.813 3.743 66.813 9.629 69.819 9.629 Z" fill="#091b25" fill-opacity="1" stroke="none"/>
  <path id="Path-4" d="M80.296 0.114 L92.891 0.114 92.891 3.771 84.303 3.771 84.303 7.971 91.861 7.971 91.861 11.629 84.303 11.629 84.303 15.971 93.006 15.971 93.006 19.629 80.296 19.629 Z" fill="#091b25" fill-opacity="1" stroke="none"/>
  <path id="Path-5" d="M96.212 0.114 L99.933 0.114 107.433 11.486 107.433 0.114 111.412 0.114 111.412 19.629 107.92 19.629 100.191 7.829 100.191 19.629 96.212 19.629 Z" fill="#091b25" fill-opacity="1" stroke="none"/>
  <path id="Path-6" d="M114.876 15.343 L119.198 15.343 119.198 19.629 114.876 19.629 Z" fill="#2683ff" fill-opacity="1" stroke="none"/>
  <path id="Path-7" d="M122.863 0.114 L126.927 0.114 126.927 19.629 122.863 19.629 Z" fill="#2683ff" fill-opacity="1" stroke="none"/>
  <path id="Path-8" d="M140.525 14.886 C140.239 14.971 139.781 14.971 139.494 14.886 139.208 14.8 139.179 14.857 139.437 15 139.695 15.143 139.924 15.543 139.952 15.857 139.981 16.171 140.038 16.171 140.095 15.857 140.124 15.543 140.353 15.143 140.611 15 140.84 14.857 140.811 14.8 140.525 14.886 Z M139.323 13.4 C139.265 13.286 139.036 13.029 138.779 12.8 L138.635 12.686 C138.378 12.457 137.977 12.429 137.719 12.6 137.462 12.771 137.319 13.029 137.376 13.171 137.433 13.314 137.719 13.514 138.063 13.6 L138.492 13.714 C138.807 13.8 139.151 13.829 139.265 13.743 139.351 13.657 139.38 13.514 139.323 13.4 Z M142.385 12.6 C142.128 12.429 141.727 12.457 141.469 12.686 L141.326 12.8 C141.069 13.029 140.811 13.286 140.782 13.4 140.725 13.514 140.782 13.657 140.868 13.743 140.954 13.829 141.298 13.8 141.641 13.714 L142.071 13.6 C142.385 13.514 142.7 13.314 142.758 13.171 142.786 13.029 142.615 12.771 142.385 12.6 Z M140.038 0.114 C134.628 0.114 130.248 4.486 130.248 9.886 130.248 15.286 134.628 19.657 140.038 19.657 145.448 19.657 149.828 15.286 149.828 9.886 149.828 4.486 145.448 0.114 140.038 0.114 Z M145.277 4.4 L144.847 7.514 C144.79 7.857 144.59 8.343 144.361 8.6 L142.815 10.429 C142.586 10.686 142.5 11.143 142.643 11.457 L143.674 14.229 C143.788 14.543 143.645 14.943 143.387 15.143 L141.04 16.714 C140.754 16.914 140.324 17.057 140.067 17.057 139.809 17.057 139.38 16.914 139.094 16.714 L136.746 15.143 C136.46 14.943 136.345 14.543 136.46 14.229 L137.49 11.457 C137.605 11.143 137.605 10.771 137.49 10.629 137.376 10.486 136.517 9.486 136.517 9.486 136.403 9.686 136.288 9.857 136.202 10 L135.057 11.914 C134.885 12.2 134.771 12.171 134.828 11.829 L135.286 8.714 C135.344 8.371 135.63 7.971 135.916 7.829 L137.634 6.971 C137.948 6.829 138.235 6.943 138.321 7.229 L138.349 7.286 138.893 9.371 C138.979 9.686 139.094 9.971 139.122 9.971 139.179 9.971 139.151 9.714 139.065 9.371 L138.55 7.257 C138.464 6.943 138.492 6.4 138.607 6.086 L139.838 2.543 C139.952 2.229 140.124 2.229 140.239 2.543 L141.469 6.086 C141.584 6.4 141.613 6.943 141.527 7.257 L141.011 9.371 C140.926 9.686 140.897 9.971 140.954 9.971 141.011 9.971 141.097 9.714 141.183 9.371 L141.727 7.286 C141.813 6.971 142.099 6.514 142.357 6.286 L144.876 4.171 C145.162 3.971 145.334 4.057 145.277 4.4 Z" fill="#2683ff" fill-opacity="1" stroke="none"/>
 </g>
</svg>
