<svg width="150" height="35" viewBox="0 0 150 35" fill="none" xmlns="http://www.w3.org/2000/svg">
<path d="M13.0736 25.6031V33.9074L4.35791 25.6031V25.4637H13.0736V25.6031Z" fill="#730009"/>
<path d="M13.0735 25.6031V33.9074L21.7892 25.6031V25.4637H13.0735V25.6031Z" fill="url(#paint0_linear)"/>
<path d="M13.0736 25.6031V33.9074L4.35791 25.6031H13.0736Z" fill="url(#paint1_linear)"/>
<path d="M13.0735 25.6031V33.9074L21.7892 25.6031H13.0735Z" fill="url(#paint2_linear)"/>
<path d="M13.0735 3.89067V25.6031H23.1488V9.26649L13.0735 3.89067Z" fill="url(#paint3_linear)"/>
<path d="M17.1594 6.07307V25.6031H23.1488V9.26649L17.1594 6.07307Z" fill="url(#paint4_linear)"/>
<path d="M17.1594 6.07307V25.6031H23.1488V9.26649L17.1594 6.07307Z" fill="url(#paint5_linear)"/>
<path d="M13.0736 3.89067V25.6031H2.99829V9.26649L13.0736 3.89067Z" fill="url(#paint6_linear)"/>
<path d="M13.0736 3.89067V25.6031H2.99829V9.26649L13.0736 3.89067Z" fill="url(#paint7_linear)"/>
<path d="M4.77609 28.8105C6.06227 28.8105 7.10492 27.7679 7.10492 26.4817C7.10492 25.1955 6.06227 24.1529 4.77609 24.1529C3.48992 24.1529 2.44727 25.1955 2.44727 26.4817C2.44727 27.7679 3.48992 28.8105 4.77609 28.8105Z" fill="url(#paint8_radial)"/>
<path d="M17.3963 29.194C19.2293 29.194 20.7152 27.9578 20.7152 26.4329C20.7152 24.9079 19.2293 23.6718 17.3963 23.6718C15.5633 23.6718 14.0774 24.9079 14.0774 26.4329C14.0774 27.9578 15.5633 29.194 17.3963 29.194Z" fill="url(#paint9_radial)"/>
<path d="M13.0735 33.4682V34.8627L4.21143 26.6908H4.35785V26.5584L5.44556 26.1819V26.3213L13.0735 33.4682Z" fill="url(#paint10_linear)"/>
<path d="M13.0735 33.4681V34.8627L4.21143 26.6908H4.35785L5.44556 26.3213L13.0735 33.4681Z" fill="url(#paint11_linear)"/>
<path d="M13.0735 34.8626L0 26.6908V26.5584H4.35783V26.6908L13.0735 34.8626Z" fill="url(#paint12_linear)"/>
<path d="M13.0735 33.4682V34.8627L21.9286 26.6909H21.7892V26.5584L20.7014 26.154V26.3213L13.0735 33.4682Z" fill="url(#paint13_linear)"/>
<path d="M13.0735 33.4681V34.8627L21.7892 26.6908L20.7014 26.3213L13.0735 33.4681Z" fill="url(#paint14_linear)"/>
<path d="M13.0735 34.8626L26.147 26.6908V26.5584H21.7892V26.6908L13.0735 34.8626Z" fill="url(#paint15_linear)"/>
<path d="M13.0735 34.8626L7.62793 26.6908V26.5584H13.2129V34.6604L13.0735 34.8626Z" fill="url(#paint16_linear)"/>
<path d="M13.0735 26.6909V34.8627L7.62793 26.6909H13.0735Z" fill="url(#paint17_linear)"/>
<path d="M13.0735 26.6908V34.8626L18.519 26.6908V26.5584H13.0735V26.6908Z" fill="url(#paint18_linear)"/>
<path d="M13.0735 26.6909V34.8627L18.519 26.6909H13.0735Z" fill="url(#paint19_radial)"/>
<path d="M20.7014 5.89876V26.3213L21.7891 26.6908H21.9286V5.53618L21.7891 5.44554L20.7014 5.89876Z" fill="url(#paint20_linear)"/>
<path d="M20.7014 5.89876V26.3213L21.7891 26.6908V5.44554L20.7014 5.89876Z" fill="url(#paint21_linear)"/>
<path d="M21.7891 5.44554V26.6908H26.1469V8.1718L21.7891 5.44554Z" fill="url(#paint22_linear)"/>
<path d="M21.7891 5.44554V26.6908H26.1469V8.1718L21.7891 5.44554Z" fill="url(#paint23_linear)"/>
<path d="M21.7891 5.44554V26.6908H26.1469V8.1718L21.7891 5.44554Z" fill="url(#paint24_linear)"/>
<path d="M5.44563 5.89876V26.3213L4.35791 26.6908V5.44554L5.44563 5.89876Z" fill="url(#paint25_linear)"/>
<path d="M5.44563 5.89876V26.3213L4.35791 26.6908V5.44554L5.44563 5.89876Z" fill="url(#paint26_linear)"/>
<path d="M4.35783 5.44554V26.6908H0V8.1718L4.35783 5.44554Z" fill="url(#paint27_linear)"/>
<path d="M4.35783 5.44554V26.6908H0V8.1718L4.35783 5.44554Z" fill="url(#paint28_linear)"/>
<path d="M4.35783 5.44554V26.6908H0V8.1718L4.35783 5.44554Z" fill="url(#paint29_linear)"/>
<path d="M13.0735 0V26.6909H18.519V3.4026L13.0735 0Z" fill="url(#paint30_linear)"/>
<path d="M13.0735 0V26.6909H18.519V3.4026L13.0735 0Z" fill="url(#paint31_linear)"/>
<path d="M13.0735 0V26.6909H18.519V3.4026L13.0735 0Z" fill="url(#paint32_linear)"/>
<path d="M13.0735 0V26.6909H18.519V3.4026L13.0735 0Z" fill="url(#paint33_linear)"/>
<path d="M13.0735 0V26.6909H7.62793V3.4026L13.0735 0Z" fill="url(#paint34_linear)"/>
<path d="M13.0735 0V26.6909H7.62793V3.4026L13.0735 0Z" fill="url(#paint35_radial)"/>
<path d="M13.0735 0V26.6909H7.62793V3.4026L13.0735 0Z" fill="url(#paint36_linear)"/>
<path d="M13.0735 0V26.6909H7.62793V3.4026L13.0735 0Z" fill="url(#paint37_linear)"/>
<path d="M134.681 28.3155L130.323 28.3294L137.979 17.4331L130.302 6.54721L134.66 6.55418L140.151 14.343L145.628 6.54721L149.979 6.53326L142.326 17.4297L150 28.3155L145.649 28.3085L140.156 20.5198L134.681 28.3155Z" fill="black"/>
<path d="M51.2271 7.34208L55.1526 22.849L59.3571 6.54024H63.7009L57.7325 28.3503H53.542L49.3933 13.4361L49.2817 13.0247L45.0146 28.3503H40.831L34.8625 6.54024H39.2064L43.4109 22.849L47.3364 7.34208H51.2271Z" fill="black"/>
<path fill-rule="evenodd" clip-rule="evenodd" d="M75.8333 22.0471H65.7301C65.8746 22.9868 66.3522 23.8431 67.0758 24.4596C68.0087 25.082 69.1231 25.3741 70.2413 25.2894C70.9961 25.3002 71.7475 25.1871 72.4656 24.9547C73.2078 24.6905 73.9243 24.3591 74.6061 23.9646L75.7775 26.8652C75.0374 27.4631 74.2034 27.9343 73.3093 28.2597C72.2944 28.6008 71.2281 28.7635 70.1577 28.7408C67.3129 28.7408 65.156 28.0435 63.6872 26.649C62.209 25.2545 61.4769 23.3371 61.4769 20.8897C61.4428 19.4423 61.7561 18.0077 62.3903 16.7062C62.9595 15.5356 63.8683 14.5637 64.998 13.9172C66.2331 13.2476 67.6239 12.9179 69.0281 12.9619C70.3727 12.9154 71.6992 13.2829 72.8282 14.0148C73.8495 14.6978 74.6454 15.6684 75.1152 16.8038C75.6236 18.0662 75.8749 19.4174 75.8542 20.7781L75.8333 22.0471ZM65.765 19.3558H72.0403C71.9114 18.5198 71.5294 17.7435 70.9456 17.1315C70.394 16.6304 69.6682 16.3651 68.9235 16.3924C68.1539 16.3636 67.4034 16.6363 66.8318 17.1524C66.2348 17.7433 65.8583 18.521 65.765 19.3558Z" fill="black"/>
<path fill-rule="evenodd" clip-rule="evenodd" d="M89.5762 15.0816C90.9873 16.6465 91.7174 18.7088 91.6052 20.813C91.6325 22.2464 91.3195 23.6658 90.6918 24.9547C90.1097 26.1277 89.1892 27.0992 88.0492 27.7437C86.7915 28.4302 85.3747 28.7717 83.9424 28.7338C83.2726 28.7238 82.6105 28.589 81.9901 28.3364C81.3242 28.0704 80.6923 27.7263 80.1075 27.3114L79.3056 28.3643H77.2627V6.87492L81.251 6.54024V13.6452C82.1133 13.1977 83.0686 12.9589 84.04 12.948C86.1052 12.8372 88.1195 13.6134 89.5762 15.0816ZM86.5013 24.0413C87.1747 23.1034 87.5135 21.9665 87.4635 20.813C87.5171 19.6709 87.1856 18.5439 86.5222 17.6126C85.9027 16.8026 84.9262 16.3469 83.9075 16.3924C82.9524 16.4222 82.0277 16.7353 81.251 17.2919V24.4039C82.0261 24.9591 82.954 25.2611 83.9075 25.2685C84.9209 25.309 85.8899 24.8505 86.5013 24.0413Z" fill="black"/>
<path fill-rule="evenodd" clip-rule="evenodd" d="M111.372 28.3294L102.838 6.60996H99.3237L90.8521 28.3294H95.0007L96.9182 23.2185H105.167L107 28.3294H111.372ZM98.1383 19.8647L100.983 12.2926L103.891 19.8647H98.1383Z" fill="black"/>
<path fill-rule="evenodd" clip-rule="evenodd" d="M119.293 6.60996H112.488L112.509 28.3294H116.63V20.1227H120.527L125.129 28.3643H129.536L124.202 19.035C125.289 18.5203 126.22 17.7263 126.9 16.7341C127.589 15.7173 127.942 14.5105 127.911 13.2827C128.015 11.3246 127.107 9.45031 125.506 8.31823C123.666 7.10923 121.492 6.51143 119.293 6.60996ZM116.609 10.0614H119.168C122.063 10.0614 123.511 11.2118 123.511 13.5128C123.581 14.4747 123.138 15.4021 122.347 15.9531C121.409 16.517 120.324 16.7889 119.23 16.7341H116.609V10.0614Z" fill="black"/>
<defs>
<linearGradient id="paint0_linear" x1="17.4313" y1="33.9074" x2="17.4313" y2="25.4637" gradientUnits="userSpaceOnUse">
<stop stop-color="#8D0710"/>
<stop offset="0.4" stop-color="#850308"/>
<stop offset="1" stop-color="#7D0000"/>
</linearGradient>
<linearGradient id="paint1_linear" x1="9.09923" y1="29.3683" x2="10.4372" y2="27.9091" gradientUnits="userSpaceOnUse">
<stop offset="0.2" stop-color="#590903"/>
<stop offset="0.45" stop-color="#590903" stop-opacity="0"/>
</linearGradient>
<linearGradient id="paint2_linear" x1="17.6684" y1="30.0238" x2="12.2184" y2="23.2445" gradientUnits="userSpaceOnUse">
<stop offset="0.03" stop-color="#290401"/>
<stop offset="0.29" stop-color="#290401" stop-opacity="0"/>
</linearGradient>
<linearGradient id="paint3_linear" x1="18.1147" y1="25.6031" x2="18.1147" y2="3.89067" gradientUnits="userSpaceOnUse">
<stop offset="0.49" stop-color="#470000"/>
<stop offset="0.69" stop-color="#6C0000"/>
<stop offset="0.81" stop-color="#7D0000"/>
</linearGradient>
<linearGradient id="paint4_linear" x1="17.1594" y1="15.8346" x2="23.1488" y2="15.8346" gradientUnits="userSpaceOnUse">
<stop offset="0.36" stop-color="#2F0603" stop-opacity="0"/>
<stop offset="0.38" stop-color="#2F0603" stop-opacity="0.13"/>
<stop offset="0.54" stop-color="#2F0603"/>
</linearGradient>
<linearGradient id="paint5_linear" x1="17.1594" y1="15.8346" x2="23.1488" y2="15.8346" gradientUnits="userSpaceOnUse">
<stop stop-color="#290401"/>
<stop offset="0.51" stop-color="#290401" stop-opacity="0"/>
</linearGradient>
<linearGradient id="paint6_linear" x1="8.03242" y1="25.6031" x2="8.03242" y2="3.89067" gradientUnits="userSpaceOnUse">
<stop stop-color="#790100"/>
<stop offset="1" stop-color="#A60200"/>
</linearGradient>
<linearGradient id="paint7_linear" x1="2.99829" y1="14.7469" x2="13.0736" y2="14.7469" gradientUnits="userSpaceOnUse">
<stop offset="0.28" stop-color="#3B0000"/>
<stop offset="0.34" stop-color="#4A0000"/>
<stop offset="0.46" stop-color="#740C03" stop-opacity="0"/>
</linearGradient>
<radialGradient id="paint8_radial" cx="0" cy="0" r="1" gradientUnits="userSpaceOnUse" gradientTransform="translate(4.77283 26.4187) scale(2.32626)">
<stop/>
<stop offset="0.13" stop-opacity="0.65"/>
<stop offset="1" stop-opacity="0"/>
</radialGradient>
<radialGradient id="paint9_radial" cx="0" cy="0" r="1" gradientUnits="userSpaceOnUse" gradientTransform="translate(14.503 26.4305) scale(3.30643)">
<stop stop-opacity="0.55"/>
<stop offset="1" stop-opacity="0"/>
</radialGradient>
<linearGradient id="paint10_linear" x1="12.948" y1="34.4025" x2="5.21522" y2="26.3149" gradientUnits="userSpaceOnUse">
<stop offset="0.14" stop-color="#630400"/>
<stop offset="1" stop-color="#700000"/>
</linearGradient>
<linearGradient id="paint11_linear" x1="8.66684" y1="30.7489" x2="9.31937" y2="29.8888" gradientUnits="userSpaceOnUse">
<stop offset="0.09" stop-color="#F40114" stop-opacity="0"/>
<stop offset="0.26" stop-color="#F40114" stop-opacity="0.05"/>
<stop offset="0.59" stop-color="#F40114" stop-opacity="0.19"/>
<stop offset="1" stop-color="#F40114" stop-opacity="0.4"/>
</linearGradient>
<linearGradient id="paint12_linear" x1="7.96268" y1="34.4652" x2="6.73086" y2="26.5694" gradientUnits="userSpaceOnUse">
<stop stop-color="#FF1B37"/>
<stop offset="0.15" stop-color="#F61A34"/>
<stop offset="0.39" stop-color="#DC162B"/>
<stop offset="0.7" stop-color="#B3101D"/>
<stop offset="1" stop-color="#850A0E"/>
</linearGradient>
<linearGradient id="paint13_linear" x1="13.0735" y1="30.5048" x2="21.9286" y2="30.5048" gradientUnits="userSpaceOnUse">
<stop stop-color="#630B07"/>
<stop offset="0.51" stop-color="#5B0A07"/>
<stop offset="1" stop-color="#4E0907"/>
</linearGradient>
<linearGradient id="paint14_linear" x1="16.7829" y1="30.1214" x2="17.5203" y2="30.8963" gradientUnits="userSpaceOnUse">
<stop stop-color="#F40114" stop-opacity="0.3"/>
<stop offset="1" stop-color="#F40114" stop-opacity="0"/>
</linearGradient>
<linearGradient id="paint15_linear" x1="19.6067" y1="34.8626" x2="19.6067" y2="26.5584" gradientUnits="userSpaceOnUse">
<stop stop-color="#FF2A44"/>
<stop offset="0.16" stop-color="#F7273E"/>
<stop offset="0.4" stop-color="#E21E2C"/>
<stop offset="0.69" stop-color="#BF1010"/>
<stop offset="0.86" stop-color="#81070A"/>
<stop offset="1" stop-color="#4F0006"/>
</linearGradient>
<linearGradient id="paint16_linear" x1="10.417" y1="34.8626" x2="10.417" y2="26.5584" gradientUnits="userSpaceOnUse">
<stop stop-color="#F81934"/>
<stop offset="0.16" stop-color="#F01831"/>
<stop offset="0.41" stop-color="#D91529"/>
<stop offset="0.72" stop-color="#B5101D"/>
<stop offset="1" stop-color="#8D0A0F"/>
</linearGradient>
<linearGradient id="paint17_linear" x1="10.3542" y1="30.7768" x2="12.9436" y2="30.3412" gradientUnits="userSpaceOnUse">
<stop stop-color="#FF001F" stop-opacity="0.15"/>
<stop offset="0.52" stop-color="#FF001F" stop-opacity="0"/>
</linearGradient>
<linearGradient id="paint18_linear" x1="15.7997" y1="35.4623" x2="15.7997" y2="26.9837" gradientUnits="userSpaceOnUse">
<stop offset="0.1" stop-color="#FF1023"/>
<stop offset="0.21" stop-color="#FA1022"/>
<stop offset="0.36" stop-color="#EA0E1F"/>
<stop offset="0.52" stop-color="#D10C1B"/>
<stop offset="0.69" stop-color="#AD0915"/>
<stop offset="0.87" stop-color="#80050E"/>
<stop offset="1" stop-color="#590207"/>
</linearGradient>
<radialGradient id="paint19_radial" cx="0" cy="0" r="1" gradientUnits="userSpaceOnUse" gradientTransform="translate(11.9656 18.7887) scale(4.76295)">
<stop stop-color="#4D0802"/>
<stop offset="0.09" stop-color="#520902" stop-opacity="0.87"/>
<stop offset="0.48" stop-color="#640A03" stop-opacity="0.4"/>
<stop offset="0.8" stop-color="#700C03" stop-opacity="0.11"/>
<stop offset="1" stop-color="#740C03" stop-opacity="0"/>
</radialGradient>
<linearGradient id="paint20_linear" x1="15.4093" y1="21.9844" x2="27.1104" y2="21.9467" gradientUnits="userSpaceOnUse">
<stop stop-color="#540003"/>
<stop offset="0.59" stop-color="#5C0001"/>
<stop offset="0.63" stop-color="#600002"/>
<stop offset="0.68" stop-color="#6B0104"/>
<stop offset="0.72" stop-color="#7E0208"/>
<stop offset="0.76" stop-color="#98040E"/>
<stop offset="0.78" stop-color="#AD0612"/>
<stop offset="0.85" stop-color="#C81120"/>
<stop offset="0.96" stop-color="#FF293C"/>
</linearGradient>
<linearGradient id="paint21_linear" x1="20.7014" y1="16.0716" x2="21.7891" y2="16.0716" gradientUnits="userSpaceOnUse">
<stop stop-color="#FF0000" stop-opacity="0.3"/>
<stop offset="0.09" stop-color="#FF0000" stop-opacity="0.27"/>
<stop offset="0.61" stop-color="#FF0000" stop-opacity="0.07"/>
<stop offset="0.87" stop-color="#FF0000" stop-opacity="0"/>
</linearGradient>
<linearGradient id="paint22_linear" x1="23.9645" y1="26.6908" x2="23.9645" y2="5.44554" gradientUnits="userSpaceOnUse">
<stop stop-color="#730205"/>
<stop offset="0.3" stop-color="#7B0206"/>
<stop offset="0.76" stop-color="#900207"/>
<stop offset="1" stop-color="#9E0208"/>
</linearGradient>
<linearGradient id="paint23_linear" x1="21.7891" y1="16.0716" x2="26.1469" y2="16.0716" gradientUnits="userSpaceOnUse">
<stop stop-color="#FF3636" stop-opacity="0.3"/>
<stop offset="0.09" stop-color="#FF3636" stop-opacity="0.26"/>
<stop offset="0.47" stop-color="#FF3636" stop-opacity="0.13"/>
<stop offset="0.79" stop-color="#FF3636" stop-opacity="0.05"/>
<stop offset="1" stop-color="#FF3636" stop-opacity="0.02"/>
</linearGradient>
<linearGradient id="paint24_linear" x1="23.9645" y1="26.6908" x2="23.9645" y2="5.44554" gradientUnits="userSpaceOnUse">
<stop stop-color="#FF4747" stop-opacity="0.3"/>
<stop offset="0.09" stop-color="#FF4545" stop-opacity="0.24"/>
<stop offset="0.26" stop-color="#FF4141" stop-opacity="0.14"/>
<stop offset="0.44" stop-color="#FF3F3F" stop-opacity="0.07"/>
<stop offset="0.64" stop-color="#FF3D3D" stop-opacity="0.03"/>
<stop offset="0.87" stop-color="#FF3D3D" stop-opacity="0.02"/>
</linearGradient>
<linearGradient id="paint25_linear" x1="4.90177" y1="26.6908" x2="4.90177" y2="5.44554" gradientUnits="userSpaceOnUse">
<stop offset="0.01" stop-color="#7D0103"/>
<stop offset="1" stop-color="#890103"/>
</linearGradient>
<linearGradient id="paint26_linear" x1="4.35791" y1="16.0716" x2="5.44563" y2="16.0716" gradientUnits="userSpaceOnUse">
<stop stop-color="#FF2929" stop-opacity="0"/>
<stop offset="0.12" stop-color="#FF2929" stop-opacity="0.05"/>
<stop offset="0.49" stop-color="#FF2929" stop-opacity="0.19"/>
<stop offset="0.8" stop-color="#FF2929" stop-opacity="0.27"/>
<stop offset="1" stop-color="#FF2929" stop-opacity="0.3"/>
</linearGradient>
<linearGradient id="paint27_linear" x1="2.1824" y1="26.6908" x2="2.1824" y2="5.44554" gradientUnits="userSpaceOnUse">
<stop stop-color="#FF1329"/>
<stop offset="0.17" stop-color="#FF1E34"/>
<stop offset="0.7" stop-color="#FF3E54"/>
<stop offset="1" stop-color="#FF4A60"/>
</linearGradient>
<linearGradient id="paint28_linear" x1="2.1824" y1="26.6908" x2="2.1824" y2="5.44554" gradientUnits="userSpaceOnUse">
<stop stop-color="white" stop-opacity="0.04"/>
<stop offset="0.2" stop-color="white" stop-opacity="0"/>
</linearGradient>
<linearGradient id="paint29_linear" x1="0" y1="16.0716" x2="4.35783" y2="16.0716" gradientUnits="userSpaceOnUse">
<stop offset="0.67" stop-color="white" stop-opacity="0"/>
<stop offset="1" stop-color="white" stop-opacity="0.03"/>
</linearGradient>
<linearGradient id="paint30_linear" x1="15.7997" y1="26.6909" x2="15.7997" y2="0" gradientUnits="userSpaceOnUse">
<stop stop-color="#6B0104"/>
<stop offset="0.24" stop-color="#730104"/>
<stop offset="0.61" stop-color="#880104"/>
<stop offset="1" stop-color="#A60005"/>
</linearGradient>
<linearGradient id="paint31_linear" x1="13.0735" y1="13.3454" x2="18.519" y2="13.3454" gradientUnits="userSpaceOnUse">
<stop stop-color="#FF0000" stop-opacity="0"/>
<stop offset="0.29" stop-color="#FF0000" stop-opacity="0.01"/>
<stop offset="0.56" stop-color="#FF0000" stop-opacity="0.06"/>
<stop offset="0.83" stop-color="#FF0000" stop-opacity="0.14"/>
<stop offset="1" stop-color="#FF0000" stop-opacity="0.2"/>
</linearGradient>
<linearGradient id="paint32_linear" x1="15.7997" y1="26.6909" x2="15.7997" y2="0" gradientUnits="userSpaceOnUse">
<stop stop-color="#FF0000" stop-opacity="0.2"/>
<stop offset="0.17" stop-color="#FF0000" stop-opacity="0.14"/>
<stop offset="0.44" stop-color="#FF0000" stop-opacity="0.06"/>
<stop offset="0.71" stop-color="#FF0000" stop-opacity="0.01"/>
<stop offset="1" stop-color="#FF0000" stop-opacity="0"/>
</linearGradient>
<linearGradient id="paint33_linear" x1="13.0735" y1="13.3454" x2="18.519" y2="13.3454" gradientUnits="userSpaceOnUse">
<stop stop-opacity="0.12"/>
<stop offset="0.08" stop-opacity="0.1"/>
<stop offset="1" stop-opacity="0"/>
</linearGradient>
<linearGradient id="paint34_linear" x1="10.3472" y1="26.6909" x2="10.3472" y2="0" gradientUnits="userSpaceOnUse">
<stop stop-color="#FF081B"/>
<stop offset="1" stop-color="#FF4556"/>
</linearGradient>
<radialGradient id="paint35_radial" cx="0" cy="0" r="1" gradientUnits="userSpaceOnUse" gradientTransform="translate(1.09371 1.57549) scale(14.2474 14.2472)">
<stop stop-color="white" stop-opacity="0.1"/>
<stop offset="1" stop-color="white" stop-opacity="0"/>
</radialGradient>
<linearGradient id="paint36_linear" x1="10.3296" y1="26.6327" x2="10.3296" y2="0.00160003" gradientUnits="userSpaceOnUse">
<stop stop-color="white" stop-opacity="0.08"/>
<stop offset="0.2" stop-color="white" stop-opacity="0"/>
</linearGradient>
<linearGradient id="paint37_linear" x1="7.61682" y1="13.3171" x2="13.0494" y2="13.3171" gradientUnits="userSpaceOnUse">
<stop stop-color="white" stop-opacity="0.04"/>
<stop offset="0.47" stop-color="white" stop-opacity="0"/>
</linearGradient>
</defs>
</svg>
