<svg width="150" height="58" viewBox="0 0 150 58" fill="none" xmlns="http://www.w3.org/2000/svg">
<path d="M64.3495 5.15805C64.4206 5.36354 64.5155 5.86934 64.563 6.28031C64.6263 6.84934 64.6263 7.32748 64.5788 8.27982C64.5274 8.95555 64.4523 9.76563 64.4127 10.0739C64.3732 10.3821 64.2704 11.0578 64.1874 11.5715C64.1043 12.0852 63.9541 12.9585 63.8552 13.5157C63.7524 14.0729 63.6021 14.8632 63.5151 15.2742C63.4282 15.6891 63.2107 16.6809 63.0327 17.4831C62.8548 18.2853 62.5345 19.6328 62.3289 20.4745C62.1233 21.3162 61.7872 22.5807 61.5816 23.2801C61.567 23.3258 61.5546 23.3704 61.5427 23.4134C61.532 23.4521 61.5216 23.4895 61.5104 23.5251C61.5104 23.5251 60.1897 27.5716 59.1774 30.0532C59.1379 30.152 59.0944 30.2626 59.0469 30.3733C59.0221 30.4304 58.9988 30.4875 58.9752 30.5455C58.9611 30.5799 58.947 30.6146 58.9323 30.6499C58.7069 31.2071 58.2877 32.1831 57.9991 32.8193C57.7144 33.4555 57.0738 34.7872 56.5796 35.7751C56.0853 36.763 55.33 38.1935 54.899 38.9562C54.472 39.7149 53.8077 40.845 53.4281 41.4615C53.1553 41.9001 52.9734 42.2241 52.8706 42.4375C52.6017 42.8683 52.2656 43.382 51.8662 43.9431L50.9607 45.1483C49.6637 46.7843 47.9318 48.606 45.844 49.9495C45.5316 50.1274 45.156 50.3249 44.8476 50.4791C44.3533 50.7201 43.6771 50.9888 43.349 51.0797C42.8349 51.2141 42.6135 51.2338 41.7752 51.2022C40.9725 51.1706 40.7036 51.1311 40.241 50.9651C39.9326 50.8584 39.5292 50.6766 39.3434 50.5699C39.1575 50.4633 38.7068 50.0839 38.343 49.7322C37.9792 49.3805 37.5047 48.8194 37.2872 48.4914C37.0697 48.1595 36.7692 47.6497 36.619 47.3494C36.4687 47.053 36.2631 46.5788 36.1563 46.3022C36.0496 46.0256 35.8875 45.5633 35.7886 45.2748C35.6898 44.9863 35.5593 44.5635 35.496 44.3383C35.4327 44.113 35.2943 43.5242 35.1915 43.0303C35.0887 42.5363 34.9345 41.6788 34.8475 41.1216C34.7605 40.5645 34.6221 39.5133 34.543 38.7823C34.46 38.0512 34.377 37.419 34.3572 37.3795C34.3374 37.34 34.2702 37.3123 34.2109 37.3242C34.1516 37.336 33.6731 37.9643 33.1512 38.727C32.6292 39.4857 31.8424 40.6119 31.4074 41.2244C30.9724 41.8408 30.2449 42.805 29.7901 43.3701C29.3394 43.9352 28.4062 45.0179 27.7221 45.7727C27.0381 46.5274 26.1286 47.4995 25.7016 47.9303C25.2745 48.361 24.5865 49.013 24.1752 49.3805C23.764 49.748 23.1234 50.2736 22.7518 50.5502C22.3801 50.8268 21.7988 51.2259 21.4587 51.4393C21.1187 51.6487 20.5453 51.9728 20.1855 52.1545C19.8257 52.3363 19.2286 52.5774 18.8569 52.692C18.244 52.8777 18.074 52.8974 16.9866 52.9014C15.9585 52.9014 15.7054 52.8777 15.1914 52.7315C14.8632 52.6366 14.3571 52.4391 14.0684 52.2889C13.7165 52.1071 13.3448 51.8187 12.9375 51.4156C12.5382 51.0204 12.2258 50.6253 12.0202 50.2538C11.8501 49.9456 11.6089 49.3924 11.4864 49.0209C11.3638 48.6534 11.2017 48.0291 11.1305 47.6379C11.0237 47.0609 11 46.5235 11 44.7927C11 42.967 11.0277 42.485 11.174 41.4615C11.2689 40.8055 11.4785 39.6082 11.6406 38.806C11.8066 37.9999 12.0913 36.7551 12.2772 36.0359C12.463 35.3128 12.8031 34.1352 13.0285 33.416C13.2578 32.6929 13.6572 31.5153 13.9182 30.7961C14.1791 30.0769 14.6299 28.848 14.9186 28.0655C15.2072 27.2871 15.6185 26.1925 15.828 25.6353C16.0376 25.0821 16.3777 24.1732 16.5833 23.616C16.7323 23.2226 16.9953 22.5036 17.2542 21.7956C17.3594 21.5079 17.464 21.222 17.5599 20.9605C17.8921 20.0556 18.3429 18.7911 18.5603 18.1549C18.7778 17.5187 19.11 16.5071 19.2958 15.9104C19.4817 15.3137 19.7071 14.555 19.798 14.227C19.8889 13.8951 20.0313 13.3734 20.1104 13.0652C20.1834 12.7942 20.3053 12.3063 20.4036 11.913C20.4171 11.859 20.4301 11.8068 20.4425 11.7572C20.5453 11.3463 20.6956 10.7061 20.7747 10.3347C20.8854 9.8249 20.9882 9.5641 21.2017 9.25982C21.3559 9.03853 21.5971 8.76982 21.7434 8.66313C21.8858 8.55644 22.1547 8.41023 22.3405 8.3391C22.5461 8.26006 22.8941 8.20869 23.2381 8.20474C23.6138 8.20079 23.9775 8.25216 24.3255 8.35885C24.5707 8.43394 24.7249 8.49321 24.8791 8.5999C24.8792 8.59998 24.8798 8.60043 24.8809 8.60125C24.9367 8.64132 26.2358 9.57419 26.2551 12.1919C26.2591 13.1719 26.0812 14.1401 25.7371 15.0568C25.5829 15.4639 25.405 15.9301 25.2191 16.3925C24.7881 17.4634 24.2662 18.7595 24.0566 19.2732C23.8471 19.7869 23.5109 20.593 23.3093 21.0672C23.1116 21.5375 22.7715 22.3476 22.558 22.8613C22.3445 23.375 22.0202 24.1653 21.8344 24.6197C21.6485 25.0742 21.3124 25.8961 21.0871 26.4533C20.8617 27.0065 20.6165 27.6309 20.5414 27.8363C20.4662 28.0418 20.1855 28.7847 19.9206 29.4842C19.6517 30.1836 19.2326 31.3651 18.9834 32.1041C18.7343 32.843 18.3943 33.9021 18.2282 34.4592C18.0621 35.0164 17.7735 36.0596 17.5876 36.7788C17.4018 37.502 17.1645 38.5294 17.0617 39.0629C16.9589 39.5963 16.8047 40.5408 16.7177 41.1572C16.6307 41.7737 16.5595 42.6825 16.5556 43.1765C16.5556 43.7258 16.5991 44.3383 16.6782 44.7492C16.7493 45.1207 16.864 45.5554 16.9352 45.7213C17.0103 45.8873 17.2001 46.16 17.3622 46.3259C17.5876 46.5551 17.7537 46.65 18.0503 46.7171C18.335 46.7804 18.5564 46.7843 18.8727 46.725C19.11 46.6816 19.6042 46.4958 19.9759 46.3141C20.3476 46.1283 20.9763 45.7371 21.3757 45.4368C21.7751 45.1365 22.3919 44.6386 22.7518 44.3304C23.1076 44.0221 23.8115 43.3464 24.3097 42.8327C24.8079 42.319 25.5711 41.4773 26.006 40.9636C26.437 40.4499 27.1013 39.6437 27.473 39.1696C27.8447 38.6954 28.5209 37.8023 28.9716 37.1858C29.4264 36.5694 30.1183 35.5933 30.5098 35.0164C30.9013 34.4395 31.4904 33.5464 31.8186 33.0327C32.1468 32.515 32.736 31.5548 33.1275 30.8988C33.5189 30.2429 34.0092 29.4012 34.2148 29.0297C34.4205 28.6622 34.7763 28.0023 35.0057 27.5716C35.235 27.1409 35.5672 26.5007 35.7491 26.149C35.931 25.7973 36.3343 24.9754 36.6467 24.3155C36.963 23.6555 37.4256 22.6281 37.6826 22.0314C37.9397 21.4347 38.2323 20.7274 38.3311 20.4587C38.3883 20.3033 38.4693 20.0857 38.5481 19.874C38.6055 19.7198 38.6618 19.5687 38.7068 19.4471C38.8135 19.1586 38.9717 18.8267 39.0587 18.7042C39.1457 18.5817 39.3513 18.4236 39.5174 18.3485C39.7349 18.2537 40.0077 18.2142 40.5099 18.2142C41.0358 18.2142 41.3047 18.2497 41.6328 18.3722C41.9452 18.4868 42.1943 18.6568 42.5265 18.9887C42.9061 19.368 43.0089 19.5222 43.1157 19.8936C43.2106 20.2176 43.2343 20.4824 43.2026 20.8301C43.171 21.1581 42.9614 21.8852 42.5463 23.0746C42.348 23.6433 42.1086 24.3342 41.9 24.9359C41.755 25.3545 41.6248 25.7299 41.534 25.9909C41.3126 26.6271 41.0002 27.6862 40.8381 28.3461C40.6759 29.006 40.4585 29.9821 40.3557 30.5155C40.2528 31.053 40.0986 32.0132 40.0116 32.6494C39.9286 33.2856 39.8258 34.4829 39.7863 35.3049C39.7388 36.3046 39.7388 37.0989 39.7902 37.6996C39.8337 38.1935 39.9365 39.051 40.0196 39.6082C40.1026 40.1654 40.2528 40.9873 40.3557 41.4417C40.4585 41.8962 40.6285 42.5363 40.7313 42.8643C40.8341 43.1923 41.0279 43.6981 41.1623 43.9866C41.2928 44.275 41.5182 44.6741 41.6605 44.8757C41.8029 45.0772 42.0718 45.3262 42.2576 45.4368C42.5304 45.5949 42.6847 45.6344 43.0445 45.6265C43.2896 45.6225 43.6613 45.5514 43.8669 45.4724C44.0726 45.3933 44.4443 45.1958 44.6894 45.0337C44.9385 44.8717 45.4644 44.4173 45.8638 44.0261C45.9547 43.9352 46.0457 43.8443 46.1287 43.7574C46.1604 43.7258 46.192 43.6902 46.2315 43.6467C46.4134 43.4491 46.5597 43.2792 46.619 43.1883C46.6349 43.1646 46.6507 43.137 46.6665 43.1093C46.6783 43.0935 46.6902 43.0737 46.6981 43.0579L46.8049 42.892C47.7618 41.5405 49.2802 39.1063 49.9128 38.0789L50.0394 37.8853C50.075 37.8418 50.1066 37.7904 50.1264 37.743C50.1303 37.7371 50.1343 37.7302 50.1383 37.7227C50.1422 37.7153 50.1461 37.7074 50.1501 37.6996C50.154 37.6917 50.162 37.6837 50.1659 37.6758C50.1817 37.6521 50.1975 37.6245 50.2094 37.6008C50.2134 37.5968 50.2134 37.5929 50.2173 37.5889C50.332 37.415 50.5297 37.0594 50.7432 36.6366C51.0477 36.032 51.5578 34.9611 51.8741 34.2617C52.1904 33.5622 52.6649 32.4755 52.9299 31.8472C53.0327 31.5983 53.1276 31.3612 53.2027 31.1636C53.212 31.139 53.2237 31.1081 53.2376 31.0711C53.3605 30.7461 53.6582 29.9586 54.0133 28.9863C54.0687 28.84 54.124 28.6899 54.1794 28.5358C54.4127 27.8956 54.7132 27.046 54.9386 26.394C55.2984 25.3508 55.6306 24.3471 55.8283 23.6318C55.8364 23.6051 55.8447 23.5779 55.8531 23.5502C55.9145 23.3484 55.9836 23.1212 56.0497 22.885C56.2355 22.2251 56.5084 21.1976 56.6507 20.6009C56.7931 20.0042 56.9631 19.2455 57.0264 18.9176C57.0857 18.5896 57.2043 17.9652 57.2873 17.5345C57.3704 17.1038 57.5404 16.0922 57.6669 15.29C57.7935 14.4878 57.9675 13.409 58.0505 12.8953C58.1335 12.3816 58.2838 11.5083 58.3866 10.9511C58.4855 10.3979 58.6515 9.55619 58.7583 9.082C58.8651 8.60781 59.0509 7.8649 59.1735 7.43418C59.2961 7.00345 59.4977 6.44628 59.6163 6.20128C59.735 5.95628 59.9959 5.54926 60.1937 5.30426C60.3914 5.05531 60.7591 4.69176 61.0161 4.49813C61.2692 4.3045 61.5895 4.11088 61.7239 4.07531C61.8584 4.03975 62.1707 4.00418 62.4159 4.00023C62.661 3.99628 63.0406 4.0437 63.2581 4.10692C63.5112 4.182 63.7484 4.32031 63.9343 4.50208C64.0964 4.6641 64.2743 4.94466 64.3495 5.15805Z" fill="black"/>
<path d="M106.631 17.2263C106.611 17.3013 106.604 25.3547 106.611 35.131L106.631 52.9014H111.424V17.1472C107.185 17.0959 106.659 17.1196 106.631 17.2263Z" fill="black"/>
<path fill-rule="evenodd" clip-rule="evenodd" d="M103.626 36.2849C103.733 36.6129 103.875 37.087 103.938 37.332C104.002 37.581 104.101 38.1382 104.168 38.5649C104.231 38.9957 104.278 39.7899 104.278 40.3234C104.278 40.8569 104.243 41.58 104.195 41.9317C104.148 42.2834 104.029 42.9236 103.927 43.3543C103.824 43.785 103.622 44.441 103.48 44.8124C103.436 44.931 103.373 45.0772 103.302 45.2392C103.231 45.4131 103.152 45.5949 103.08 45.745C103.041 45.8359 102.978 45.9584 102.902 46.0928C102.886 46.1253 102.87 46.1568 102.854 46.1873L102.839 46.2161C102.83 46.2347 102.82 46.2528 102.811 46.2706C102.59 46.7053 102.139 47.4126 101.815 47.8433C101.7 47.9935 101.55 48.1792 101.384 48.3728C101.336 48.4353 101.289 48.4934 101.246 48.5452L101.206 48.5941C100.945 48.9024 100.419 49.4319 100.04 49.7717C100.034 49.7776 100.028 49.7826 100.022 49.7875L100.014 49.7942L100.009 49.7984L100.004 49.8033C99.6402 50.1313 99.2567 50.4514 99.0352 50.6055C98.7268 50.8228 98.1535 51.1785 97.762 51.3958C97.3784 51.6092 96.7655 51.9016 96.3939 52.0518C96.3547 52.0686 96.319 52.0845 96.2881 52.0983C96.2536 52.1136 96.2249 52.1264 96.2041 52.1348C96.0617 52.194 95.6544 52.3284 95.3065 52.4351C95.2953 52.4383 95.2835 52.4421 95.2713 52.4461C95.2533 52.4519 95.2344 52.458 95.2155 52.4628C95.1641 52.4786 95.1127 52.4944 95.0692 52.5062C94.7212 52.609 94.314 52.7078 94.1716 52.7275C94.0293 52.7512 93.6576 52.8105 93.3492 52.8579C93.2187 52.8777 93.0407 52.8935 92.8233 52.9053C92.5227 52.929 92.1866 52.929 91.6884 52.9211C91.6286 52.9192 91.5688 52.9182 91.5085 52.9172C91.4493 52.9162 91.3893 52.9152 91.3286 52.9132C91.0636 52.9093 90.7948 52.8974 90.5457 52.8856C90 52.8579 89.5294 52.8184 89.3594 52.7828C89.1142 52.7315 88.5567 52.5892 88.1257 52.4667C87.6907 52.3442 87.236 52.2019 87.1134 52.1506C86.9909 52.0992 86.7022 51.9767 86.4768 51.8779C86.2475 51.7831 85.7611 51.5341 85.3894 51.3286C85.0217 51.1232 84.3969 50.7122 84.0055 50.4158C83.614 50.1195 82.9695 49.5425 82.578 49.1395C82.1826 48.7364 81.7635 48.274 81.6409 48.116L81.5104 47.9461C81.4788 47.9065 81.4471 47.871 81.4155 47.8354C81.3839 47.8749 81.3522 47.9105 81.3206 47.9461L81.1901 48.116C81.0675 48.274 80.6444 48.7324 80.253 49.1395C79.8576 49.5465 79.217 50.1195 78.8255 50.4158C78.4341 50.7122 77.8133 51.1232 77.4416 51.3286C77.0699 51.5341 76.5796 51.7831 76.3542 51.8779C76.1288 51.9767 75.8401 52.0992 75.7176 52.1506C75.591 52.2019 75.1363 52.3442 74.7053 52.4667C74.2743 52.5892 73.7168 52.7315 73.4716 52.7828C73.2976 52.8184 72.8271 52.8579 72.2814 52.8856C72.0388 52.8971 71.7774 52.9049 71.5191 52.9126L71.4985 52.9132C71.3719 52.9172 71.2533 52.9211 71.1387 52.9211C70.6404 52.929 70.3083 52.9251 70.0038 52.9053C69.7863 52.8935 69.6084 52.8777 69.4779 52.8579C69.1695 52.8065 68.7978 52.7473 68.6554 52.7275C68.5131 52.7078 68.1058 52.609 67.7579 52.5062C67.7144 52.4944 67.6629 52.4786 67.6115 52.4628C67.5868 52.4535 67.562 52.4466 67.5391 52.4403L67.5206 52.4351C67.1726 52.3323 66.7654 52.194 66.623 52.1348C66.5979 52.1257 66.5663 52.1113 66.5281 52.094C66.5124 52.0868 66.4955 52.0792 66.4776 52.0712C66.4635 52.0649 66.4487 52.0584 66.4332 52.0518C66.0615 51.9056 65.4526 51.6092 65.0651 51.3958C64.6736 51.1785 64.1003 50.8228 63.7918 50.6055C63.5704 50.4514 63.1908 50.1313 62.827 49.8033C62.8151 49.7915 62.8033 49.7836 62.7914 49.7717C62.4158 49.4319 61.8899 48.9024 61.625 48.5941C61.5735 48.5309 61.5142 48.4558 61.447 48.3728C61.2809 48.1792 61.1307 47.9935 61.016 47.8433C60.6918 47.4086 60.2449 46.7013 60.0196 46.2706C59.996 46.2293 59.9746 46.1858 59.9521 46.1402L59.9286 46.0928C59.8535 45.9545 59.7942 45.8359 59.7507 45.745C59.6795 45.5949 59.6004 45.4131 59.5292 45.2392C59.4639 45.0941 59.4085 44.9556 59.3632 44.8421L59.3513 44.8124C59.209 44.4449 59.0073 43.785 58.9045 43.3543C58.8017 42.9236 58.6831 42.2834 58.6356 41.9317C58.5921 41.58 58.5526 40.8569 58.5526 40.3234C58.5526 39.7899 58.604 38.9957 58.6633 38.5649C58.7226 38.1342 58.8254 37.577 58.8887 37.332C58.9559 37.087 59.0943 36.6129 59.2011 36.2849C59.3078 35.9569 59.553 35.3483 59.7467 34.9374C59.9365 34.5264 60.2924 33.8862 60.5336 33.5148C60.7748 33.1433 61.1663 32.6059 61.3996 32.3175C61.6368 32.029 62.1627 31.4797 62.57 31.0925C62.9773 30.7052 63.6653 30.1559 64.0963 29.8675C64.5273 29.5829 65.1521 29.2115 65.4803 29.0455C65.8084 28.8796 66.366 28.6385 66.714 28.5041C67.0659 28.3698 67.6392 28.192 67.9872 28.109C67.999 28.105 68.0109 28.105 68.0228 28.1011C68.1849 28.0576 68.351 28.0181 68.5289 27.9825C68.7309 27.9368 68.9293 27.8948 69.0602 27.867L69.0746 27.864C69.3197 27.8126 70.162 27.7612 70.9449 27.7494C71.7278 27.7375 72.5859 27.7573 72.8548 27.7929C73.1236 27.8284 73.5942 27.9154 73.9026 27.9825C74.0687 28.0181 74.3257 28.0853 74.5946 28.1643H74.5985C74.6618 28.1643 75.0058 28.2671 75.3656 28.3975C75.7255 28.5239 76.2909 28.7531 76.6191 28.9072C76.9473 29.0613 77.5207 29.3735 77.8923 29.6027C78.2601 29.8319 78.8848 30.2863 79.2763 30.6104C79.6678 30.9344 80.2134 31.4481 80.4863 31.7563C80.5956 31.8803 80.7137 32.0136 80.8391 32.1553L80.852 32.1698C81.0269 32.3674 81.216 32.5809 81.4155 32.8075C81.6385 32.5513 81.8515 32.3118 82.0459 32.0932L82.0471 32.0918C82.1522 31.9737 82.2519 31.8616 82.3447 31.7563C82.6176 31.452 83.1632 30.9344 83.5547 30.6104C83.9462 30.2863 84.567 29.8319 84.9387 29.6027C85.3104 29.3735 85.8837 29.0613 86.2119 28.9072C86.5401 28.7571 87.1055 28.5279 87.4654 28.3975C87.8252 28.271 88.1692 28.1643 88.2325 28.1643H88.2364L88.2657 28.1561C88.5236 28.0841 88.7646 28.0168 88.9284 27.9825C89.2368 27.9154 89.7074 27.8284 89.9763 27.7929C90.2451 27.7573 91.1032 27.7375 91.8861 27.7494C92.6651 27.7612 93.5113 27.8126 93.7564 27.864C93.8869 27.8916 94.0886 27.9351 94.3021 27.9825C94.4761 28.0221 94.6461 28.0616 94.8043 28.1011C94.8161 28.105 94.828 28.105 94.8399 28.109C95.1918 28.192 95.7651 28.3698 96.1131 28.5041C96.4611 28.6385 97.0186 28.8796 97.3468 29.0455C97.675 29.2075 98.2998 29.579 98.7308 29.8675C99.1618 30.1559 99.8498 30.7052 100.257 31.0925C100.664 31.4797 101.194 32.029 101.427 32.3175C101.665 32.6059 102.052 33.1433 102.293 33.5148C102.535 33.8862 102.891 34.5264 103.08 34.9374C103.274 35.3483 103.519 35.9569 103.626 36.2849ZM91.7714 32.5427C91.2574 32.5308 90.7513 32.5348 90.6485 32.5545C90.5457 32.5704 90.1898 32.6573 89.8576 32.7561C89.5294 32.8391 89.0905 32.9774 88.8849 33.0564C88.6793 33.1354 88.3234 33.2895 88.098 33.4002C87.8726 33.5108 87.501 33.7203 87.2756 33.8704C87.0502 34.0206 86.5955 34.392 86.2712 34.6963C85.947 35.0006 85.5199 35.4827 85.3262 35.7712C85.1324 36.0596 84.8082 36.6326 84.6026 37.0436C84.4009 37.4545 84.1755 38.0275 84.1043 38.316C84.0332 38.6045 83.9501 38.9562 83.9224 39.1024C83.8948 39.2446 83.871 39.8018 83.871 40.3353C83.8671 40.8687 83.8908 41.422 83.9224 41.5682C83.9541 41.7104 84.0411 42.0819 84.1201 42.3901C84.1755 42.5916 84.2427 42.8248 84.306 43.0105C84.3693 43.1725 84.4404 43.3424 84.5077 43.5005C84.5551 43.6032 84.6026 43.706 84.6381 43.7732C84.7014 43.8917 84.8675 44.1999 85.0138 44.4607C85.1008 44.5991 85.1878 44.7334 85.2827 44.8638C85.4922 45.1365 85.7848 45.4605 86.1565 45.8359C86.7615 46.4484 87.1609 46.7803 87.5049 46.9661C87.7738 47.1083 88.0941 47.2822 88.2167 47.3494C88.3392 47.4126 88.6477 47.547 88.9126 47.6457C88.9239 47.6495 88.9361 47.6542 88.9484 47.6589C88.9618 47.6641 88.9753 47.6693 88.9877 47.6734C89.2724 47.7761 89.7785 47.9145 90.1621 48.0014C90.2965 48.033 90.4152 48.0567 90.5259 48.0765C90.7552 48.1081 91.0597 48.1318 91.3404 48.1436C91.4947 48.1436 91.6686 48.1397 91.8822 48.1318C92.102 48.1249 92.3129 48.1121 92.4941 48.1011L92.5741 48.0962C92.7046 48.0804 92.8232 48.0646 92.9063 48.0449C93.1712 47.9895 93.5429 47.9026 93.7288 47.8552C93.8988 47.8117 94.2665 47.6853 94.5829 47.5628C94.652 47.5292 94.7291 47.4907 94.8101 47.4502C94.8911 47.4097 94.9764 47.3671 95.0613 47.3257C95.3104 47.2032 95.6149 47.0332 95.8561 46.891C95.8921 46.8658 95.9249 46.8471 95.9513 46.8321L95.9589 46.8278C96.0182 46.7922 96.0696 46.7566 96.1131 46.729C96.1843 46.6815 96.2713 46.6183 96.3622 46.5472C96.5441 46.3773 96.8604 46.0691 97.1768 45.7529C97.7145 45.2116 98.0704 44.7769 98.3116 44.3659C98.5054 44.0379 98.7663 43.5084 98.8929 43.1883C99.0194 42.8682 99.1934 42.2637 99.2843 41.8408C99.3832 41.3666 99.4465 40.8016 99.4465 40.3629C99.4465 40.0073 99.399 39.4541 99.3397 39.0708C99.3278 39.0194 99.316 38.9641 99.3041 38.9048C99.2527 38.6637 99.1894 38.3911 99.1222 38.1421C99.0669 37.9485 99.0076 37.7588 98.9522 37.6126C98.8178 37.253 98.541 36.6761 98.3353 36.3323C98.1297 35.9924 97.671 35.4076 97.3231 35.0362C96.9712 34.6647 96.5243 34.2458 96.3306 34.1075L96.2853 34.0733C96.2226 34.0262 96.1699 33.9865 96.125 33.9416C96.0459 33.8862 95.9945 33.8507 95.9826 33.8507C95.951 33.8507 95.8245 33.7716 95.7019 33.6768C95.5793 33.582 95.2906 33.42 95.0653 33.3133C94.8399 33.2066 94.5196 33.0643 94.3535 33.0011C94.1914 32.9379 93.8197 32.8312 93.531 32.764C93.3022 32.7132 93.0605 32.6547 92.9314 32.6234L92.8588 32.6059C92.7758 32.5822 92.2855 32.5545 91.7714 32.5427ZM69.9564 32.6059C69.8773 32.6257 69.5728 32.6968 69.2841 32.764C68.9955 32.8312 68.6238 32.9379 68.4577 32.9892C68.2917 33.0564 67.9714 33.1987 67.746 33.3014C67.5206 33.4041 67.2319 33.5701 67.1094 33.6649C66.9868 33.7598 66.8603 33.8388 66.8286 33.8388C66.8168 33.8388 66.7654 33.8744 66.6863 33.9297C66.6309 33.985 66.5637 34.0364 66.4807 34.0957C66.2829 34.2379 65.8361 34.6529 65.4882 35.0243C65.1362 35.3918 64.6815 35.9766 64.4759 36.3204C64.2703 36.6642 63.9935 37.2412 63.8591 37.6008C63.8037 37.747 63.7444 37.9327 63.689 38.1303C63.6258 38.3792 63.5585 38.6519 63.5071 38.8929C63.5032 38.9127 63.4992 38.9317 63.4952 38.9501L63.4873 38.9868L63.4834 39.0044L63.4715 39.0589C63.4122 39.4422 63.3648 39.9954 63.3648 40.3511C63.3648 40.7897 63.428 41.3587 63.5269 41.829C63.6139 42.2518 63.7918 42.8564 63.9184 43.1765C64.0449 43.4966 64.3059 44.0261 64.4996 44.3541C64.7408 44.765 65.0927 45.1997 65.6345 45.7411C65.9508 46.0611 66.2671 46.3654 66.449 46.5353C66.5439 46.6065 66.6309 46.6697 66.6981 46.7171C66.7416 46.7487 66.793 46.7803 66.8523 46.8159C66.8673 46.8245 66.8846 46.8353 66.9036 46.8472C66.9196 46.8573 66.9372 46.8684 66.9552 46.8791C67.1964 47.0214 67.5048 47.1913 67.7499 47.3138C67.835 47.3553 67.92 47.3978 68.001 47.4383C68.0821 47.4788 68.1592 47.5173 68.2284 47.5509C68.5408 47.6734 68.9125 47.7999 69.0825 47.8433C69.2683 47.8907 69.6361 47.9777 69.905 48.033C69.988 48.0528 70.1066 48.0686 70.2371 48.0844C70.4348 48.1002 70.68 48.112 70.9291 48.1199C71.1426 48.1278 71.3166 48.1318 71.4708 48.1318C71.7516 48.1239 72.056 48.0962 72.2854 48.0646C72.3961 48.0449 72.5147 48.0211 72.6491 47.9895C73.0327 47.9026 73.5388 47.7603 73.8235 47.6616C73.8354 47.6576 73.8482 47.6527 73.8611 47.6477C73.8739 47.6428 73.8868 47.6378 73.8986 47.6339C74.1636 47.5351 74.472 47.4047 74.5946 47.3375C74.6505 47.3069 74.7474 47.2549 74.8618 47.1936L74.8652 47.1918C75.0011 47.1189 75.1612 47.0331 75.3063 46.9542C75.6504 46.7685 76.0497 46.4366 76.6547 45.8241C77.0264 45.4486 77.319 45.1246 77.5286 44.852C77.6234 44.7177 77.7104 44.5834 77.7973 44.4491C77.9436 44.1883 78.1098 43.8799 78.1731 43.7613C78.1854 43.7353 78.2006 43.7039 78.2174 43.6692C78.244 43.6145 78.2745 43.5515 78.3036 43.4887C78.3748 43.3306 78.442 43.1607 78.5052 42.9986C78.5685 42.8169 78.6397 42.5798 78.6911 42.3782C78.7702 42.07 78.8611 41.7025 78.8888 41.5563C78.9165 41.4141 78.9402 40.8569 78.9402 40.3234C78.9402 39.7899 78.9165 39.2367 78.8888 39.0905C78.8572 38.9443 78.7781 38.5926 78.7069 38.3041C78.6357 38.0157 78.4143 37.4427 78.2087 37.0317C78.007 36.6208 77.6788 36.0478 77.4851 35.7593C77.2913 35.4748 76.8643 34.9887 76.54 34.6845C76.2118 34.3802 75.7611 34.0087 75.5357 33.8586C75.3103 33.7084 74.9386 33.499 74.7132 33.3883C74.4878 33.2816 74.1319 33.1236 73.9263 33.0445C73.7207 32.9655 73.2818 32.8312 72.9536 32.7442C72.6254 32.6573 72.2695 32.5743 72.1667 32.5545C72.0639 32.5348 71.5578 32.5308 71.0438 32.5427C70.5258 32.5545 70.0394 32.5822 69.9564 32.6059Z" fill="black"/>
<path fill-rule="evenodd" clip-rule="evenodd" d="M138.828 38.431C138.846 38.5424 138.865 38.6561 138.881 38.7546C138.925 39.0233 138.968 41.9515 139 52.933L134.247 52.8974L134.212 51.6882C134.192 51.0244 134.152 50.4514 134.121 50.4158C134.093 50.3802 133.757 50.5581 133.373 50.811C132.99 51.0639 132.46 51.3879 132.191 51.5341C131.922 51.6764 131.396 51.9214 131.028 52.0636C130.661 52.2059 130.068 52.4074 129.72 52.5102C129.372 52.6129 128.964 52.7117 128.822 52.7314C128.764 52.741 128.669 52.7558 128.556 52.7734C128.389 52.7993 128.183 52.8313 128 52.8619C127.628 52.9211 126.932 52.9369 125.939 52.9132C125.117 52.8935 124.31 52.8421 124.144 52.7986C123.982 52.7552 123.642 52.6801 123.397 52.6327C123.152 52.5813 122.646 52.439 122.274 52.3165C121.902 52.194 121.262 51.9332 120.85 51.7396C120.439 51.546 119.747 51.1508 119.316 50.8584C118.881 50.566 118.276 50.1115 117.968 49.8428C117.659 49.5741 117.157 49.0762 116.857 48.7324C116.556 48.3886 116.07 47.7524 115.781 47.3217C115.493 46.891 115.097 46.1994 114.899 45.7885C114.702 45.3775 114.421 44.6544 114.271 44.1802C114.12 43.706 113.962 43.1014 113.919 42.8327C113.879 42.5679 113.812 42.1609 113.773 41.9357C113.733 41.7104 113.701 40.9952 113.701 40.3471C113.701 39.699 113.741 38.9245 113.784 38.6242C113.832 38.3239 113.939 37.7786 114.022 37.4071C114.105 37.0396 114.275 36.4508 114.397 36.0991C114.52 35.7514 114.789 35.127 114.994 34.7161C115.2 34.3011 115.591 33.6294 115.864 33.2184C116.145 32.7916 116.718 32.1001 117.185 31.6141C117.636 31.1438 118.363 30.4957 118.794 30.1757C119.229 29.8556 119.937 29.4091 120.368 29.1838C120.799 28.9586 121.455 28.6583 121.827 28.516C122.195 28.3737 122.855 28.1683 123.286 28.0616C123.717 27.9549 124.306 27.8363 124.595 27.7968C124.884 27.7612 125.758 27.7415 126.54 27.7533C127.434 27.7691 128.201 27.8245 128.601 27.8995C128.953 27.9667 129.474 28.0853 129.763 28.1683C130.052 28.2512 130.542 28.4133 130.851 28.5318C131.163 28.6464 131.685 28.8795 132.013 29.0455C132.345 29.2075 132.982 29.5908 133.437 29.8912C134.03 30.2863 134.54 30.717 135.24 31.4165C135.943 32.1199 136.374 32.6296 136.766 33.2184C137.066 33.6728 137.446 34.313 137.612 34.641C137.778 34.9729 138.011 35.4945 138.13 35.8028C138.249 36.111 138.431 36.6642 138.529 37.0357C138.628 37.4071 138.731 37.8418 138.759 38.0078C138.773 38.1045 138.8 38.2654 138.828 38.431ZM133.848 42.3466C133.939 42.0147 134.034 41.6314 134.061 41.4852C134.089 41.3429 134.101 40.8173 134.101 40.3234C134.101 39.8294 134.077 39.3078 134.049 39.1616C134.022 39.0194 133.931 38.6479 133.852 38.3397C133.769 38.0315 133.65 37.6442 133.579 37.4782C133.512 37.3162 133.377 37.012 133.282 36.8065C133.187 36.601 133.033 36.3165 132.934 36.1703C132.835 36.024 132.598 35.704 132.408 35.459C132.219 35.21 131.914 34.8702 131.736 34.7042C131.558 34.5382 131.262 34.2853 131.08 34.1431C130.898 34.0048 130.629 33.8151 130.483 33.7242C130.336 33.6333 130.048 33.4753 129.842 33.3725C129.637 33.2737 129.3 33.1196 129.095 33.0406C128.889 32.9576 128.486 32.8351 128.197 32.7679C127.913 32.6968 127.608 32.6217 127.525 32.602C127.442 32.5782 126.952 32.5506 126.438 32.5387C125.924 32.5269 125.417 32.5308 125.315 32.5506C125.212 32.5703 124.856 32.6533 124.528 32.7403C124.2 32.8232 123.761 32.9616 123.555 33.0406C123.349 33.1196 122.994 33.2737 122.768 33.3844C122.543 33.495 122.254 33.6531 122.132 33.7361C122.009 33.8191 121.72 34.0245 121.495 34.1945C121.27 34.3644 120.886 34.7161 120.641 34.9808C120.4 35.2456 120.044 35.6961 119.854 35.9845C119.664 36.273 119.38 36.7946 119.221 37.1463L119.218 37.155C119.065 37.5037 118.913 37.8504 118.877 37.9327C118.842 38.0157 118.755 38.3674 118.68 38.719C118.589 39.1458 118.541 39.6753 118.541 40.3274C118.537 41.0624 118.577 41.4852 118.703 42.0503C118.794 42.4612 118.937 42.9433 119.02 43.1172C119.103 43.295 119.17 43.461 119.17 43.4926C119.17 43.5242 119.328 43.8206 119.522 44.1486C119.716 44.4805 120.016 44.9349 120.19 45.1602C120.364 45.3854 120.684 45.7411 120.906 45.9505C121.127 46.1599 121.44 46.4365 121.606 46.559C121.768 46.6815 122.163 46.9423 122.484 47.132C122.804 47.3217 123.1 47.4798 123.14 47.4798C123.179 47.4798 123.357 47.543 123.531 47.626C123.705 47.705 124.211 47.8591 124.654 47.9619C125.263 48.1041 125.667 48.1515 126.303 48.1515C126.94 48.1515 127.355 48.1041 128.007 47.9579C128.482 47.8512 128.905 47.7366 128.945 47.705C128.988 47.6734 129.154 47.6023 129.32 47.5509C129.486 47.4995 129.704 47.3968 129.807 47.3257C129.909 47.2545 130.139 47.1241 130.313 47.0372C130.487 46.9502 130.823 46.729 131.06 46.5472C131.297 46.3654 131.697 46.0019 131.95 45.7411C132.199 45.4802 132.555 45.0495 132.741 44.7808C132.926 44.5121 133.215 43.9905 133.381 43.619C133.547 43.2476 133.757 42.6746 133.848 42.3466Z" fill="black"/>
</svg>
