<?xml version="1.0" encoding="UTF-8"?>
<svg width="150px" height="25px" viewBox="0 0 150 25" xmlns="http://www.w3.org/2000/svg" xmlns:xlink="http://www.w3.org/1999/xlink" version="1.1">
 <!-- Generated by Pixelmator Pro 2.0.3 -->
 <g id="Issues">
  <g id="wowflow-logo">
   <g id="Group-3">
    <defs>
     <linearGradient id="linear-gradient" gradientUnits="userSpaceOnUse" x1="16.832" y1="-0" x2="16.832" y2="34.199">
      <stop offset="0" stop-color="#f344e4" stop-opacity="1"/>
      <stop offset="0.455" stop-color="#ac46ee" stop-opacity="1"/>
      <stop offset="1" stop-color="#5848fb" stop-opacity="1"/>
     </linearGradient>
    </defs>
    <path id="Fill-1" d="M0.943 14.67 L2.6 17.816 3.43 19.39 C3.573 19.664 3.696 19.901 3.801 20.008 3.922 20.119 3.871 20.038 3.851 20.05 3.842 20.058 3.986 19.941 4.092 19.748 4.198 19.574 4.326 19.285 4.458 19.02 L5.235 17.419 6.782 14.214 C7.039 13.693 7.278 13.127 7.672 12.527 8.051 11.957 8.653 11.261 9.613 11.025 10.07 10.911 10.573 10.926 11.012 11.055 11.453 11.182 11.824 11.396 12.137 11.626 12.761 12.096 13.199 12.633 13.59 13.161 15.01 15.135 16.302 17.159 17.498 19.27 L18.351 20.802 C18.607 21.237 18.824 21.45 18.983 21.512 19.063 21.549 19.108 21.539 19.083 21.527 19.054 21.51 19.022 21.525 19.054 21.492 19.129 21.438 19.389 21.11 19.626 20.652 20.698 18.644 21.756 16.48 22.8 14.373 24.899 10.131 26.945 5.851 28.868 1.506 29.437 0.22 30.923 -0.354 32.186 0.226 33.449 0.806 34.012 2.32 33.443 3.605 33.398 3.707 33.34 3.816 33.285 3.907 30.808 7.959 28.444 12.073 26.075 16.19 24.873 18.254 23.714 20.282 22.412 22.374 22.044 22.922 21.632 23.619 20.713 24.21 20.253 24.497 19.638 24.69 19.024 24.665 18.414 24.643 17.887 24.436 17.465 24.175 17.046 23.919 16.681 23.564 16.424 23.227 16.159 22.886 15.968 22.547 15.81 22.238 L15.039 20.607 C14.035 18.52 12.906 16.466 11.689 14.511 11.41 14.068 11.104 13.668 10.802 13.407 10.485 13.141 10.274 13.072 10.059 13.097 9.855 13.107 9.559 13.311 9.269 13.694 8.98 14.064 8.711 14.575 8.413 15.098 L6.667 18.196 5.798 19.747 C5.65 20.002 5.529 20.254 5.312 20.577 5.097 20.869 4.838 21.237 4.263 21.43 3.975 21.518 3.65 21.497 3.374 21.384 3.096 21.266 2.899 21.078 2.762 20.908 2.49 20.557 2.378 20.241 2.256 19.986 L1.52 18.366 0.046 15.126 C-0.07 14.869 0.039 14.566 0.291 14.448 0.533 14.333 0.818 14.434 0.943 14.67" fill-opacity="1" fill="url(#linear-gradient)" stroke="none"/>
   </g>
   <g id="Group-2">
    <path id="Combined-Shape" d="M63.851 9.295 C64.073 9.151 64.313 9.078 64.576 9.078 64.951 9.078 65.291 9.203 65.593 9.45 65.897 9.698 66.048 10.005 66.048 10.373 66.048 10.581 66.007 10.764 65.925 10.923 L61.876 20.196 C61.745 20.499 61.544 20.732 61.274 20.891 61.005 21.05 60.706 21.13 60.379 21.13 60.068 21.13 59.778 21.05 59.507 20.891 59.238 20.732 59.037 20.499 58.907 20.196 L55.986 13.344 53.164 20.196 C53.033 20.499 52.832 20.732 52.562 20.891 52.293 21.05 51.994 21.13 51.667 21.13 51.356 21.13 51.061 21.05 50.783 20.891 50.505 20.732 50.301 20.499 50.169 20.196 L46.145 10.923 C46.063 10.716 46.023 10.54 46.023 10.396 46.023 10.03 46.186 9.713 46.514 9.45 46.84 9.186 47.201 9.055 47.593 9.055 47.871 9.055 48.124 9.126 48.354 9.271 48.583 9.414 48.755 9.63 48.869 9.916 L51.764 17.224 54.735 9.989 C54.865 9.686 55.054 9.458 55.299 9.306 55.545 9.155 55.814 9.078 56.109 9.078 56.403 9.078 56.673 9.155 56.919 9.306 57.164 9.458 57.352 9.686 57.483 9.989 L60.476 17.249 63.348 9.941 C63.462 9.654 63.63 9.437 63.851 9.295 Z M75.336 17.846 C75.86 17.207 76.123 16.264 76.123 15.018 76.123 13.788 75.86 12.848 75.336 12.201 74.812 11.555 74.058 11.23 73.074 11.23 72.091 11.23 71.333 11.555 70.801 12.201 70.268 12.848 70.001 13.788 70.001 15.018 70.001 16.264 70.264 17.207 70.788 17.846 71.312 18.485 72.066 18.805 73.05 18.805 74.049 18.805 74.812 18.485 75.336 17.846 Z M69.841 20.386 C68.915 19.892 68.198 19.181 67.69 18.254 67.182 17.327 66.928 16.248 66.928 15.018 66.928 13.788 67.182 12.713 67.69 11.794 68.198 10.875 68.915 10.167 69.841 9.672 70.767 9.177 71.845 8.928 73.074 8.928 74.303 8.928 75.381 9.177 76.307 9.672 77.233 10.167 77.946 10.875 78.445 11.794 78.946 12.713 79.196 13.788 79.196 15.018 79.196 16.248 78.946 17.327 78.445 18.254 77.946 19.181 77.233 19.892 76.307 20.386 75.381 20.882 74.303 21.13 73.074 21.13 71.845 21.13 70.767 20.882 69.841 20.386 Z M98.51 9.295 C98.732 9.151 98.973 9.078 99.235 9.078 99.611 9.078 99.95 9.203 100.253 9.45 100.556 9.698 100.707 10.005 100.707 10.373 100.707 10.581 100.666 10.764 100.584 10.923 L96.535 20.196 C96.404 20.499 96.203 20.732 95.933 20.891 95.664 21.05 95.365 21.13 95.038 21.13 94.727 21.13 94.437 21.05 94.166 20.891 93.898 20.732 93.696 20.499 93.566 20.196 L90.645 13.344 87.823 20.196 C87.692 20.499 87.491 20.732 87.221 20.891 86.952 21.05 86.653 21.13 86.326 21.13 86.015 21.13 85.721 21.05 85.442 20.891 85.164 20.732 84.96 20.499 84.828 20.196 L80.805 10.923 C80.722 10.716 80.682 10.54 80.682 10.396 80.682 10.03 80.845 9.713 81.173 9.45 81.5 9.186 81.86 9.055 82.252 9.055 82.53 9.055 82.783 9.126 83.013 9.271 83.242 9.414 83.414 9.63 83.529 9.916 L86.423 17.224 89.394 9.989 C89.524 9.686 89.713 9.458 89.958 9.306 90.204 9.155 90.473 9.078 90.768 9.078 91.063 9.078 91.333 9.155 91.578 9.306 91.823 9.458 92.011 9.686 92.142 9.989 L95.135 17.249 98.008 9.941 C98.121 9.654 98.289 9.437 98.51 9.295 Z M111.575 20.75 C111.291 20.497 111.15 20.134 111.15 19.661 L111.15 5.046 C111.15 4.573 111.291 4.214 111.575 3.969 111.857 3.724 112.218 3.602 112.655 3.602 113.092 3.602 113.456 3.724 113.748 3.969 114.039 4.214 114.186 4.573 114.186 5.046 L114.186 19.661 C114.186 20.134 114.039 20.497 113.748 20.75 113.456 21.003 113.092 21.13 112.655 21.13 112.218 21.13 111.857 21.003 111.575 20.75 Z M106.827 6.687 C106.488 7.094 106.317 7.682 106.317 8.449 L106.317 9.013 108.381 9.013 C109.288 9.013 109.741 9.395 109.741 10.162 109.741 10.93 109.288 11.313 108.381 11.313 L106.317 11.313 106.317 19.661 C106.317 20.134 106.175 20.493 105.891 20.738 105.609 20.982 105.248 21.105 104.811 21.105 104.374 21.105 104.01 20.982 103.718 20.738 103.427 20.493 103.281 20.134 103.281 19.661 L103.281 11.313 102.067 11.313 C101.16 11.313 100.707 10.93 100.707 10.162 100.707 9.395 101.16 9.013 102.067 9.013 L103.281 9.013 103.281 8.84 C103.281 7.307 103.682 6.103 104.484 5.229 105.284 4.357 106.415 3.863 107.871 3.749 L108.502 3.699 C109.15 3.65 109.608 3.72 109.875 3.908 110.141 4.095 110.275 4.385 110.275 4.778 110.275 5.479 109.879 5.87 109.085 5.953 L108.454 6.001 C107.71 6.05 107.167 6.279 106.827 6.687 Z M125.308 17.846 C125.832 17.207 126.095 16.264 126.095 15.018 126.095 13.788 125.832 12.848 125.308 12.201 124.784 11.555 124.029 11.23 123.046 11.23 122.063 11.23 121.305 11.555 120.772 12.201 120.239 12.848 119.973 13.788 119.973 15.018 119.973 16.264 120.236 17.207 120.76 17.846 121.284 18.485 122.038 18.805 123.021 18.805 124.021 18.805 124.784 18.485 125.308 17.846 Z M119.813 20.386 C118.887 19.892 118.169 19.181 117.662 18.254 117.154 17.327 116.9 16.248 116.9 15.018 116.9 13.788 117.154 12.713 117.662 11.794 118.169 10.875 118.887 10.167 119.813 9.672 120.739 9.177 121.817 8.928 123.046 8.928 124.275 8.928 125.353 9.177 126.278 9.672 127.205 10.167 127.918 10.875 128.417 11.794 128.918 12.713 129.168 13.788 129.168 15.018 129.168 16.248 128.918 17.327 128.417 18.254 127.918 19.181 127.205 19.892 126.278 20.386 125.353 20.882 124.275 21.13 123.046 21.13 121.817 21.13 120.739 20.882 119.813 20.386 Z M147.803 9.295 C148.025 9.151 148.265 9.078 148.528 9.078 148.904 9.078 149.243 9.203 149.546 9.45 149.849 9.698 150 10.005 150 10.373 150 10.581 149.959 10.764 149.877 10.923 L145.828 20.196 C145.697 20.499 145.496 20.732 145.226 20.891 144.957 21.05 144.658 21.13 144.331 21.13 144.02 21.13 143.73 21.05 143.459 20.891 143.19 20.732 142.989 20.499 142.859 20.196 L139.938 13.344 137.116 20.196 C136.985 20.499 136.784 20.732 136.514 20.891 136.245 21.05 135.946 21.13 135.619 21.13 135.308 21.13 135.013 21.05 134.735 20.891 134.457 20.732 134.253 20.499 134.121 20.196 L130.097 10.923 C130.015 10.716 129.975 10.54 129.975 10.396 129.975 10.03 130.138 9.713 130.466 9.45 130.792 9.186 131.153 9.055 131.545 9.055 131.823 9.055 132.076 9.126 132.306 9.271 132.535 9.414 132.707 9.63 132.821 9.916 L135.716 17.224 138.687 9.989 C138.817 9.686 139.006 9.458 139.251 9.306 139.497 9.155 139.766 9.078 140.061 9.078 140.355 9.078 140.625 9.155 140.871 9.306 141.116 9.458 141.304 9.686 141.435 9.989 L144.428 17.249 147.301 9.941 C147.414 9.654 147.582 9.437 147.803 9.295 Z" fill="#291a53" fill-opacity="1" stroke="none"/>
   </g>
  </g>
 </g>
</svg>
