<svg width="40" height="40" viewBox="0 0 40 40" fill="none" xmlns="http://www.w3.org/2000/svg">
<circle cx="20" cy="20" r="20" fill="#272333"/>
<path d="M12.8404 16.4468V27H16.2447V16.4468H12.8404ZM21.6915 27H18.2872V18.8298C18.2872 18.8298 18.2305 16.8061 18.2305 16.4468H21.578L21.6915 17.9031C22.3723 16.8818 23.3936 16.1064 24.7553 16.1064C27.1383 16.1064 28.8404 17.8085 28.8404 20.8723V27H25.4362V21.2128C25.4362 19.5106 24.604 18.8298 23.5827 18.8298C22.5615 18.8298 21.6915 19.5106 21.6915 20.8723V27ZM14.5236 14.7447C15.7908 14.7447 16.5851 13.9125 16.5851 12.8723C16.5662 11.8132 15.7908 11 14.5615 11C13.3132 11 12.5 11.8132 12.5 12.8723C12.5 13.9125 13.2943 14.7447 14.5047 14.7447H14.5236Z" fill="white"/>
</svg>
