<svg width="40" height="40" viewBox="0 0 40 40" fill="none" xmlns="http://www.w3.org/2000/svg">
<circle cx="20" cy="20" r="20" fill="#272333"/>
<path d="M29.2308 14.6553C28.5926 14.9345 27.9145 15.1339 27.1966 15.2137C27.9345 14.7749 28.4929 14.0769 28.7521 13.2593C28.0741 13.6581 27.3162 13.9573 26.5185 14.1168C25.8604 13.4387 24.943 13 23.9259 13C21.9715 13 20.396 14.5755 20.396 16.5299C20.396 16.8091 20.416 17.0883 20.4758 17.3476C17.5442 17.188 14.9516 15.8519 13.1966 13.7179C12.8974 14.2365 12.7179 14.7749 12.7179 15.433C12.7179 16.6496 13.3362 17.7265 14.2934 18.3647C13.7151 18.3447 13.1766 18.1852 12.698 17.9259C12.698 17.9459 12.698 17.9459 12.698 17.9658C12.698 19.6809 13.9145 21.1168 15.5299 21.4359C15.2308 21.5157 14.9117 21.5556 14.5926 21.5556C14.3732 21.5556 14.1538 21.5356 13.9345 21.4957C14.3732 22.8917 15.6895 23.9288 17.2251 23.9487C16.0285 24.906 14.4929 25.6239 12.8376 25.6239C12.5584 25.6239 12.2792 25.604 12 25.5641C13.5556 26.5613 15.4302 27 17.4245 27C23.9259 27 27.4758 21.6154 27.4758 16.9487C27.4758 16.7892 27.4758 16.6496 27.4758 16.49C28.1538 15.9915 28.7521 15.3732 29.2308 14.6553Z" fill="white"/>
</svg>
